%TF.GenerationSoftware,KiCad,Pcbnew,(6.0.1)*%
%TF.CreationDate,2022-06-06T22:12:23-07:00*%
%TF.ProjectId,MPPT,4d505054-2e6b-4696-9361-645f70636258,3.4.0*%
%TF.SameCoordinates,PX10b1ae8PY9b06478*%
%TF.FileFunction,Paste,Bot*%
%TF.FilePolarity,Positive*%
%FSLAX46Y46*%
G04 Gerber Fmt 4.6, Leading zero omitted, Abs format (unit mm)*
G04 Created by KiCad (PCBNEW (6.0.1)) date 2022-06-06 22:12:23*
%MOMM*%
%LPD*%
G01*
G04 APERTURE LIST*
G04 Aperture macros list*
%AMRoundRect*
0 Rectangle with rounded corners*
0 $1 Rounding radius*
0 $2 $3 $4 $5 $6 $7 $8 $9 X,Y pos of 4 corners*
0 Add a 4 corners polygon primitive as box body*
4,1,4,$2,$3,$4,$5,$6,$7,$8,$9,$2,$3,0*
0 Add four circle primitives for the rounded corners*
1,1,$1+$1,$2,$3*
1,1,$1+$1,$4,$5*
1,1,$1+$1,$6,$7*
1,1,$1+$1,$8,$9*
0 Add four rect primitives between the rounded corners*
20,1,$1+$1,$2,$3,$4,$5,0*
20,1,$1+$1,$4,$5,$6,$7,0*
20,1,$1+$1,$6,$7,$8,$9,0*
20,1,$1+$1,$8,$9,$2,$3,0*%
G04 Aperture macros list end*
%ADD10R,1.500000X0.400000*%
%ADD11RoundRect,0.250000X-0.450000X0.262500X-0.450000X-0.262500X0.450000X-0.262500X0.450000X0.262500X0*%
%ADD12RoundRect,0.250000X0.625000X-0.312500X0.625000X0.312500X-0.625000X0.312500X-0.625000X-0.312500X0*%
%ADD13RoundRect,0.250000X0.475000X-0.250000X0.475000X0.250000X-0.475000X0.250000X-0.475000X-0.250000X0*%
%ADD14R,1.300000X1.700000*%
%ADD15RoundRect,0.150000X-0.150000X0.512500X-0.150000X-0.512500X0.150000X-0.512500X0.150000X0.512500X0*%
%ADD16RoundRect,0.250000X0.450000X-0.262500X0.450000X0.262500X-0.450000X0.262500X-0.450000X-0.262500X0*%
%ADD17RoundRect,0.250000X-0.250000X-0.475000X0.250000X-0.475000X0.250000X0.475000X-0.250000X0.475000X0*%
%ADD18RoundRect,0.250000X0.250000X0.475000X-0.250000X0.475000X-0.250000X-0.475000X0.250000X-0.475000X0*%
%ADD19RoundRect,0.150000X0.150000X-0.512500X0.150000X0.512500X-0.150000X0.512500X-0.150000X-0.512500X0*%
%ADD20RoundRect,0.250000X-0.625000X0.312500X-0.625000X-0.312500X0.625000X-0.312500X0.625000X0.312500X0*%
%ADD21RoundRect,0.250000X0.262500X0.450000X-0.262500X0.450000X-0.262500X-0.450000X0.262500X-0.450000X0*%
%ADD22R,1.100000X1.100000*%
%ADD23R,4.000000X1.500000*%
%ADD24RoundRect,0.250000X-0.475000X0.250000X-0.475000X-0.250000X0.475000X-0.250000X0.475000X0.250000X0*%
%ADD25R,0.500000X0.500000*%
G04 APERTURE END LIST*
D10*
%TO.C,U502*%
X77460000Y-132934000D03*
X77460000Y-132284000D03*
X77460000Y-131634000D03*
X74800000Y-131634000D03*
X74800000Y-132284000D03*
X74800000Y-132934000D03*
%TD*%
D11*
%TO.C,R505*%
X69865000Y-118667500D03*
X69865000Y-116842500D03*
%TD*%
D12*
%TO.C,R501*%
X116665000Y-130562500D03*
X116665000Y-133487500D03*
%TD*%
D11*
%TO.C,R504*%
X130295000Y-127215000D03*
X130295000Y-125390000D03*
%TD*%
D13*
%TO.C,C502*%
X71720000Y-131059000D03*
X71720000Y-132959000D03*
%TD*%
D14*
%TO.C,D504*%
X66995000Y-112810000D03*
X63495000Y-112810000D03*
%TD*%
%TO.C,D502*%
X71715000Y-135859000D03*
X75215000Y-135859000D03*
%TD*%
D15*
%TO.C,U504*%
X65245000Y-118214882D03*
X66195000Y-118214882D03*
X67145000Y-118214882D03*
X67145000Y-115939882D03*
X66195000Y-115939882D03*
X65245000Y-115939882D03*
%TD*%
D16*
%TO.C,R506*%
X69850000Y-112487500D03*
X69850000Y-114312500D03*
%TD*%
D14*
%TO.C,D501*%
X106315000Y-135682500D03*
X109815000Y-135682500D03*
%TD*%
D16*
%TO.C,R503*%
X130300000Y-121055000D03*
X130300000Y-122880000D03*
%TD*%
D17*
%TO.C,C503*%
X134930000Y-118675000D03*
X133030000Y-118675000D03*
%TD*%
D18*
%TO.C,C504*%
X65240000Y-121145000D03*
X67140000Y-121145000D03*
%TD*%
D19*
%TO.C,U503*%
X134920000Y-121532500D03*
X133970000Y-121532500D03*
X133020000Y-121532500D03*
X133020000Y-123807500D03*
X133970000Y-123807500D03*
X134920000Y-123807500D03*
%TD*%
D10*
%TO.C,U501*%
X112050000Y-132847500D03*
X112050000Y-132197500D03*
X112050000Y-131547500D03*
X109390000Y-131547500D03*
X109390000Y-132197500D03*
X109390000Y-132847500D03*
%TD*%
D20*
%TO.C,R502*%
X82190000Y-133510000D03*
X82190000Y-130585000D03*
%TD*%
D14*
%TO.C,D503*%
X133165000Y-126845000D03*
X136665000Y-126845000D03*
%TD*%
D13*
%TO.C,C501*%
X106335000Y-130992500D03*
X106335000Y-132892500D03*
%TD*%
D14*
%TO.C,D301*%
X54350000Y-82610000D03*
X57850000Y-82610000D03*
%TD*%
D17*
%TO.C,C606*%
X31480000Y-131417500D03*
X33380000Y-131417500D03*
%TD*%
%TO.C,C601*%
X40640000Y-109425000D03*
X42540000Y-109425000D03*
%TD*%
D18*
%TO.C,C602*%
X42545000Y-112465000D03*
X40645000Y-112465000D03*
%TD*%
D21*
%TO.C,R202*%
X42990000Y-123235000D03*
X41165000Y-123235000D03*
%TD*%
D17*
%TO.C,C204*%
X41095000Y-129430000D03*
X42995000Y-129430000D03*
%TD*%
D16*
%TO.C,R603*%
X22490000Y-135937500D03*
X22490000Y-134112500D03*
%TD*%
D17*
%TO.C,C605*%
X31495000Y-128947500D03*
X33395000Y-128947500D03*
%TD*%
%TO.C,C607*%
X25790000Y-131427500D03*
X27690000Y-131427500D03*
%TD*%
%TO.C,C203*%
X40970000Y-138870000D03*
X42870000Y-138870000D03*
%TD*%
D18*
%TO.C,C202*%
X45592500Y-148770000D03*
X43692500Y-148770000D03*
%TD*%
D21*
%TO.C,R601*%
X22442500Y-128927500D03*
X20617500Y-128927500D03*
%TD*%
D22*
%TO.C,D401*%
X56760000Y-68665000D03*
X56760000Y-71465000D03*
%TD*%
D23*
%TO.C,L201*%
X41925000Y-136055000D03*
X41925000Y-132455000D03*
%TD*%
D16*
%TO.C,R404*%
X95465000Y-133787500D03*
X95465000Y-131962500D03*
%TD*%
D24*
%TO.C,C301*%
X50630000Y-77930000D03*
X50630000Y-79830000D03*
%TD*%
D11*
%TO.C,R602*%
X25180000Y-134127500D03*
X25180000Y-135952500D03*
%TD*%
D17*
%TO.C,C205*%
X41085000Y-126475000D03*
X42985000Y-126475000D03*
%TD*%
D21*
%TO.C,R701*%
X27097500Y-87820000D03*
X25272500Y-87820000D03*
%TD*%
D16*
%TO.C,R401*%
X130170000Y-133702500D03*
X130170000Y-131877500D03*
%TD*%
D21*
%TO.C,R201*%
X45572500Y-145810000D03*
X43747500Y-145810000D03*
%TD*%
D17*
%TO.C,C603*%
X36190000Y-109465000D03*
X38090000Y-109465000D03*
%TD*%
D18*
%TO.C,C201*%
X39877500Y-148805000D03*
X37977500Y-148805000D03*
%TD*%
%TO.C,C604*%
X38085000Y-112485000D03*
X36185000Y-112485000D03*
%TD*%
D21*
%TO.C,R704*%
X27097500Y-99450000D03*
X25272500Y-99450000D03*
%TD*%
D18*
%TO.C,C608*%
X27690000Y-128937500D03*
X25790000Y-128937500D03*
%TD*%
D25*
%TO.C,D201*%
X40162500Y-145835000D03*
X37962500Y-145835000D03*
%TD*%
D21*
%TO.C,R706*%
X27070000Y-93605000D03*
X25245000Y-93605000D03*
%TD*%
%TO.C,R705*%
X25265000Y-102440000D03*
X27090000Y-102440000D03*
%TD*%
D24*
%TO.C,C302*%
X50610000Y-73965000D03*
X50610000Y-75865000D03*
%TD*%
D11*
%TO.C,R402*%
X59885000Y-69650000D03*
X59885000Y-71475000D03*
%TD*%
D21*
%TO.C,R703*%
X25270000Y-96560000D03*
X27095000Y-96560000D03*
%TD*%
D13*
%TO.C,C101*%
X28535000Y-56995000D03*
X28535000Y-55095000D03*
%TD*%
D21*
%TO.C,R702*%
X27097500Y-90730000D03*
X25272500Y-90730000D03*
%TD*%
M02*
