%TF.GenerationSoftware,KiCad,Pcbnew,(6.0.1)*%
%TF.CreationDate,2022-02-17T13:58:57-06:00*%
%TF.ProjectId,MPPT,4d505054-2e6b-4696-9361-645f70636258,1.4.0*%
%TF.SameCoordinates,PX10b1ae8PY9b06478*%
%TF.FileFunction,Soldermask,Bot*%
%TF.FilePolarity,Negative*%
%FSLAX46Y46*%
G04 Gerber Fmt 4.6, Leading zero omitted, Abs format (unit mm)*
G04 Created by KiCad (PCBNEW (6.0.1)) date 2022-02-17 13:58:57*
%MOMM*%
%LPD*%
G01*
G04 APERTURE LIST*
G04 Aperture macros list*
%AMRoundRect*
0 Rectangle with rounded corners*
0 $1 Rounding radius*
0 $2 $3 $4 $5 $6 $7 $8 $9 X,Y pos of 4 corners*
0 Add a 4 corners polygon primitive as box body*
4,1,4,$2,$3,$4,$5,$6,$7,$8,$9,$2,$3,0*
0 Add four circle primitives for the rounded corners*
1,1,$1+$1,$2,$3*
1,1,$1+$1,$4,$5*
1,1,$1+$1,$6,$7*
1,1,$1+$1,$8,$9*
0 Add four rect primitives between the rounded corners*
20,1,$1+$1,$2,$3,$4,$5,0*
20,1,$1+$1,$4,$5,$6,$7,0*
20,1,$1+$1,$6,$7,$8,$9,0*
20,1,$1+$1,$8,$9,$2,$3,0*%
G04 Aperture macros list end*
%ADD10C,1.270000*%
%ADD11RoundRect,0.250001X0.759999X-0.499999X0.759999X0.499999X-0.759999X0.499999X-0.759999X-0.499999X0*%
%ADD12O,2.020000X1.500000*%
%ADD13C,3.200000*%
%ADD14C,2.286000*%
%ADD15RoundRect,0.250001X0.499999X0.759999X-0.499999X0.759999X-0.499999X-0.759999X0.499999X-0.759999X0*%
%ADD16O,1.500000X2.020000*%
%ADD17C,2.000000*%
%ADD18C,4.000000*%
%ADD19R,2.000000X2.000000*%
%ADD20O,2.000000X2.000000*%
%ADD21C,2.500000*%
%ADD22R,1.530000X1.530000*%
%ADD23C,1.530000*%
%ADD24R,1.700000X1.700000*%
%ADD25O,1.700000X1.700000*%
%ADD26C,2.200000*%
%ADD27R,4.000000X4.000000*%
%ADD28R,1.508000X1.508000*%
%ADD29C,1.508000*%
%ADD30R,4.500000X2.500000*%
%ADD31O,4.500000X2.500000*%
%ADD32C,3.800000*%
%ADD33R,1.000000X1.000000*%
%ADD34R,1.500000X0.400000*%
%ADD35R,1.300000X1.700000*%
%ADD36RoundRect,0.250000X-0.450000X0.262500X-0.450000X-0.262500X0.450000X-0.262500X0.450000X0.262500X0*%
%ADD37RoundRect,0.250000X-0.250000X-0.475000X0.250000X-0.475000X0.250000X0.475000X-0.250000X0.475000X0*%
%ADD38RoundRect,0.250000X0.625000X-0.312500X0.625000X0.312500X-0.625000X0.312500X-0.625000X-0.312500X0*%
%ADD39RoundRect,0.250000X0.250000X0.475000X-0.250000X0.475000X-0.250000X-0.475000X0.250000X-0.475000X0*%
%ADD40RoundRect,0.250000X0.262500X0.450000X-0.262500X0.450000X-0.262500X-0.450000X0.262500X-0.450000X0*%
%ADD41RoundRect,0.250000X0.475000X-0.250000X0.475000X0.250000X-0.475000X0.250000X-0.475000X-0.250000X0*%
%ADD42RoundRect,0.250000X0.450000X-0.262500X0.450000X0.262500X-0.450000X0.262500X-0.450000X-0.262500X0*%
%ADD43RoundRect,0.150000X-0.150000X0.512500X-0.150000X-0.512500X0.150000X-0.512500X0.150000X0.512500X0*%
%ADD44R,1.100000X1.100000*%
%ADD45R,4.000000X1.500000*%
%ADD46RoundRect,0.250000X-0.475000X0.250000X-0.475000X-0.250000X0.475000X-0.250000X0.475000X0.250000X0*%
%ADD47RoundRect,0.150000X0.150000X-0.512500X0.150000X0.512500X-0.150000X0.512500X-0.150000X-0.512500X0*%
%ADD48R,0.500000X0.500000*%
%ADD49RoundRect,0.250000X-0.625000X0.312500X-0.625000X-0.312500X0.625000X-0.312500X0.625000X0.312500X0*%
G04 APERTURE END LIST*
D10*
X3990000Y111535000D03*
X3990000Y102535000D03*
D11*
X5950000Y105535000D03*
D12*
X5950000Y108535000D03*
D13*
X110490000Y10975000D03*
X86750000Y10975000D03*
D14*
X94810000Y13775000D03*
X94810000Y16315000D03*
X94810000Y21395000D03*
X102430000Y13775000D03*
X102430000Y21395000D03*
X102430000Y16315000D03*
D13*
X120015000Y4990000D03*
X4995000Y5085000D03*
X119995000Y140085000D03*
X4995000Y140085000D03*
D10*
X16730000Y18915000D03*
X1730000Y18915000D03*
D15*
X13730000Y20875000D03*
D16*
X10730000Y20875000D03*
X7730000Y20875000D03*
X4730000Y20875000D03*
D17*
X3715000Y98255000D03*
X3715000Y91755000D03*
X8215000Y91755000D03*
X8215000Y98255000D03*
D18*
X56280000Y82080000D03*
X81680000Y82080000D03*
D19*
X71525000Y86845000D03*
D20*
X66445000Y86845000D03*
D10*
X16725000Y10115000D03*
X1725000Y10115000D03*
D15*
X13725000Y12075000D03*
D16*
X10725000Y12075000D03*
X7725000Y12075000D03*
X4725000Y12075000D03*
D21*
X37487500Y34805000D03*
X37487500Y10705000D03*
D19*
X66445000Y77300000D03*
D20*
X71525000Y77300000D03*
D21*
X49540000Y30600000D03*
X73640000Y30600000D03*
D18*
X77560000Y130865000D03*
X77560000Y105465000D03*
D10*
X31450000Y3635000D03*
X40450000Y3635000D03*
D15*
X37450000Y5595000D03*
D16*
X34450000Y5595000D03*
D22*
X13270000Y90590000D03*
D23*
X13270000Y88050000D03*
X13270000Y85510000D03*
X13270000Y82970000D03*
X13270000Y80430000D03*
X13270000Y77890000D03*
X13270000Y75350000D03*
X13270000Y72810000D03*
X13270000Y70270000D03*
X13270000Y67730000D03*
X13270000Y65190000D03*
X13270000Y62650000D03*
X13270000Y60110000D03*
X13270000Y57570000D03*
X13270000Y55030000D03*
X28510000Y55030000D03*
X28510000Y57570000D03*
X28510000Y60110000D03*
X28510000Y62650000D03*
X28510000Y65190000D03*
X28510000Y67730000D03*
X28510000Y70270000D03*
X28510000Y72810000D03*
X28510000Y75350000D03*
X28510000Y77890000D03*
X28510000Y80430000D03*
X28510000Y82970000D03*
X28510000Y85510000D03*
X28510000Y88050000D03*
D22*
X28510000Y90590000D03*
D19*
X82295000Y115570000D03*
D20*
X82295000Y120650000D03*
D18*
X50025000Y105470000D03*
X50025000Y130870000D03*
D24*
X12760000Y27422500D03*
D25*
X15300000Y27422500D03*
D26*
X93470000Y121230000D03*
X108470000Y121230000D03*
D27*
X108065000Y52120000D03*
D18*
X98065000Y52120000D03*
D28*
X20457500Y10820000D03*
D29*
X22997500Y10820000D03*
X25537500Y10820000D03*
X28077500Y10820000D03*
D30*
X46020000Y123625000D03*
D31*
X46020000Y118175000D03*
X46020000Y112725000D03*
D13*
X73210000Y11040000D03*
X49470000Y11040000D03*
D14*
X57530000Y16380000D03*
X57530000Y13840000D03*
X57530000Y21460000D03*
X65150000Y21460000D03*
X65150000Y13840000D03*
X65150000Y16380000D03*
D19*
X72765000Y120650000D03*
D20*
X72765000Y115570000D03*
D30*
X53930000Y112755000D03*
D31*
X53930000Y118205000D03*
X53930000Y123655000D03*
D32*
X116085000Y92760000D03*
X94285000Y92760000D03*
D21*
X108165000Y30681000D03*
X84065000Y30681000D03*
D27*
X66720000Y52410000D03*
D18*
X56720000Y52410000D03*
D33*
X94550000Y26857500D03*
D34*
X57295000Y29621000D03*
X57295000Y30271000D03*
X57295000Y30921000D03*
X59955000Y30921000D03*
X59955000Y30271000D03*
X59955000Y29621000D03*
D35*
X37665000Y79930000D03*
X41165000Y79930000D03*
D36*
X52360000Y45712500D03*
X52360000Y43887500D03*
D37*
X13975000Y31137500D03*
X15875000Y31137500D03*
D33*
X66820000Y28979000D03*
D38*
X99160000Y29067500D03*
X99160000Y31992500D03*
D33*
X14750000Y39372500D03*
D37*
X23135000Y53130000D03*
X25035000Y53130000D03*
D39*
X25040000Y50090000D03*
X23140000Y50090000D03*
D36*
X112790000Y37165000D03*
X112790000Y35340000D03*
D33*
X28095000Y19370000D03*
D40*
X25485000Y39320000D03*
X23660000Y39320000D03*
D41*
X54215000Y29596000D03*
X54215000Y31496000D03*
D37*
X23590000Y33125000D03*
X25490000Y33125000D03*
D33*
X66785000Y31919000D03*
X4725000Y39372500D03*
X43285000Y49750000D03*
D35*
X45990000Y49745000D03*
X49490000Y49745000D03*
D33*
X59980000Y26676000D03*
D35*
X57710000Y26696000D03*
X54210000Y26696000D03*
D42*
X4985000Y26617500D03*
X4985000Y28442500D03*
D33*
X22667500Y19370000D03*
D37*
X13990000Y33607500D03*
X15890000Y33607500D03*
X8285000Y31127500D03*
X10185000Y31127500D03*
X23465000Y23685000D03*
X25365000Y23685000D03*
D33*
X40560000Y76885000D03*
X16240000Y53045000D03*
D39*
X28087500Y13785000D03*
X26187500Y13785000D03*
D43*
X47740000Y46615118D03*
X48690000Y46615118D03*
X49640000Y46615118D03*
X49640000Y44340118D03*
X48690000Y44340118D03*
X47740000Y44340118D03*
D33*
X10730000Y39377500D03*
D40*
X4937500Y33627500D03*
X3112500Y33627500D03*
D42*
X52345000Y48242500D03*
X52345000Y50067500D03*
D33*
X16210000Y50065000D03*
D35*
X92310000Y26872500D03*
X88810000Y26872500D03*
D44*
X39255000Y93890000D03*
X39255000Y91090000D03*
D45*
X24420000Y26500000D03*
X24420000Y30100000D03*
D33*
X52450000Y41362500D03*
D42*
X77960000Y28767500D03*
X77960000Y30592500D03*
X112795000Y39675000D03*
X112795000Y41500000D03*
D46*
X33125000Y84625000D03*
X33125000Y82725000D03*
D33*
X6720000Y39372500D03*
X39740000Y85735000D03*
D37*
X115525000Y43880000D03*
X117425000Y43880000D03*
D33*
X12740000Y39372500D03*
D36*
X7675000Y28427500D03*
X7675000Y26602500D03*
D39*
X25480000Y36080000D03*
X23580000Y36080000D03*
D40*
X9592500Y74735000D03*
X7767500Y74735000D03*
D33*
X20575000Y56100000D03*
D42*
X112665000Y28852500D03*
X112665000Y30677500D03*
D40*
X28067500Y16745000D03*
X26242500Y16745000D03*
D33*
X119160000Y32810000D03*
X20460000Y19345000D03*
D39*
X49635000Y41410000D03*
X47735000Y41410000D03*
D47*
X117415000Y38747500D03*
X116465000Y38747500D03*
X115515000Y38747500D03*
X115515000Y41022500D03*
X116465000Y41022500D03*
X117415000Y41022500D03*
D37*
X18685000Y53090000D03*
X20585000Y53090000D03*
D33*
X97375000Y121210000D03*
X104395000Y121185000D03*
D39*
X22372500Y13750000D03*
X20472500Y13750000D03*
D33*
X33120000Y91260000D03*
X87625000Y115235000D03*
X24670000Y19390000D03*
D39*
X20580000Y50070000D03*
X18680000Y50070000D03*
D40*
X9592500Y63105000D03*
X7767500Y63105000D03*
D33*
X101270000Y29044000D03*
D39*
X10185000Y33617500D03*
X8285000Y33617500D03*
D33*
X109940000Y41495000D03*
D34*
X91885000Y29707500D03*
X91885000Y30357500D03*
X91885000Y31007500D03*
X94545000Y31007500D03*
X94545000Y30357500D03*
X94545000Y29707500D03*
D48*
X22657500Y16720000D03*
X20457500Y16720000D03*
D40*
X9565000Y68950000D03*
X7740000Y68950000D03*
D33*
X8720000Y39372500D03*
X101270000Y31984000D03*
D49*
X64685000Y31970000D03*
X64685000Y29045000D03*
D35*
X119160000Y35710000D03*
X115660000Y35710000D03*
D33*
X11030000Y102805000D03*
D40*
X9585000Y60115000D03*
X7760000Y60115000D03*
D41*
X88830000Y29662500D03*
X88830000Y31562500D03*
D46*
X33105000Y88590000D03*
X33105000Y86690000D03*
D33*
X36065000Y92885000D03*
D36*
X42380000Y92905000D03*
X42380000Y91080000D03*
D40*
X9590000Y65995000D03*
X7765000Y65995000D03*
D41*
X11030000Y105560000D03*
X11030000Y107460000D03*
D40*
X9592500Y71825000D03*
X7767500Y71825000D03*
M02*
