%TF.GenerationSoftware,KiCad,Pcbnew,(6.0.1)*%
%TF.CreationDate,2022-02-04T14:14:18-06:00*%
%TF.ProjectId,MPPT,4d505054-2e6b-4696-9361-645f70636258,1.3.0*%
%TF.SameCoordinates,Original*%
%TF.FileFunction,Copper,L1,Top*%
%TF.FilePolarity,Positive*%
%FSLAX46Y46*%
G04 Gerber Fmt 4.6, Leading zero omitted, Abs format (unit mm)*
G04 Created by KiCad (PCBNEW (6.0.1)) date 2022-02-04 14:14:18*
%MOMM*%
%LPD*%
G01*
G04 APERTURE LIST*
G04 Aperture macros list*
%AMRoundRect*
0 Rectangle with rounded corners*
0 $1 Rounding radius*
0 $2 $3 $4 $5 $6 $7 $8 $9 X,Y pos of 4 corners*
0 Add a 4 corners polygon primitive as box body*
4,1,4,$2,$3,$4,$5,$6,$7,$8,$9,$2,$3,0*
0 Add four circle primitives for the rounded corners*
1,1,$1+$1,$2,$3*
1,1,$1+$1,$4,$5*
1,1,$1+$1,$6,$7*
1,1,$1+$1,$8,$9*
0 Add four rect primitives between the rounded corners*
20,1,$1+$1,$2,$3,$4,$5,0*
20,1,$1+$1,$4,$5,$6,$7,0*
20,1,$1+$1,$6,$7,$8,$9,0*
20,1,$1+$1,$8,$9,$2,$3,0*%
G04 Aperture macros list end*
%TA.AperFunction,ComponentPad*%
%ADD10RoundRect,0.250001X0.759999X-0.499999X0.759999X0.499999X-0.759999X0.499999X-0.759999X-0.499999X0*%
%TD*%
%TA.AperFunction,ComponentPad*%
%ADD11O,2.020000X1.500000*%
%TD*%
%TA.AperFunction,ComponentPad*%
%ADD12C,2.286000*%
%TD*%
%TA.AperFunction,ComponentPad*%
%ADD13RoundRect,0.250001X0.499999X0.759999X-0.499999X0.759999X-0.499999X-0.759999X0.499999X-0.759999X0*%
%TD*%
%TA.AperFunction,ComponentPad*%
%ADD14O,1.500000X2.020000*%
%TD*%
%TA.AperFunction,ComponentPad*%
%ADD15C,2.000000*%
%TD*%
%TA.AperFunction,ComponentPad*%
%ADD16C,4.000000*%
%TD*%
%TA.AperFunction,SMDPad,CuDef*%
%ADD17RoundRect,0.150000X-0.150000X0.587500X-0.150000X-0.587500X0.150000X-0.587500X0.150000X0.587500X0*%
%TD*%
%TA.AperFunction,ComponentPad*%
%ADD18R,2.000000X2.000000*%
%TD*%
%TA.AperFunction,ComponentPad*%
%ADD19O,2.000000X2.000000*%
%TD*%
%TA.AperFunction,SMDPad,CuDef*%
%ADD20RoundRect,0.250000X0.450000X-0.262500X0.450000X0.262500X-0.450000X0.262500X-0.450000X-0.262500X0*%
%TD*%
%TA.AperFunction,ComponentPad*%
%ADD21C,2.500000*%
%TD*%
%TA.AperFunction,ComponentPad*%
%ADD22R,1.530000X1.530000*%
%TD*%
%TA.AperFunction,ComponentPad*%
%ADD23C,1.530000*%
%TD*%
%TA.AperFunction,SMDPad,CuDef*%
%ADD24RoundRect,0.243750X0.243750X0.456250X-0.243750X0.456250X-0.243750X-0.456250X0.243750X-0.456250X0*%
%TD*%
%TA.AperFunction,SMDPad,CuDef*%
%ADD25R,0.650000X1.800000*%
%TD*%
%TA.AperFunction,SMDPad,CuDef*%
%ADD26RoundRect,0.218750X0.381250X-0.218750X0.381250X0.218750X-0.381250X0.218750X-0.381250X-0.218750X0*%
%TD*%
%TA.AperFunction,SMDPad,CuDef*%
%ADD27RoundRect,0.250000X-1.020000X0.250000X-1.020000X-0.250000X1.020000X-0.250000X1.020000X0.250000X0*%
%TD*%
%TA.AperFunction,ComponentPad*%
%ADD28R,1.700000X1.700000*%
%TD*%
%TA.AperFunction,ComponentPad*%
%ADD29O,1.700000X1.700000*%
%TD*%
%TA.AperFunction,SMDPad,CuDef*%
%ADD30RoundRect,0.243750X-0.456250X0.243750X-0.456250X-0.243750X0.456250X-0.243750X0.456250X0.243750X0*%
%TD*%
%TA.AperFunction,ComponentPad*%
%ADD31C,2.200000*%
%TD*%
%TA.AperFunction,ComponentPad*%
%ADD32R,4.000000X4.000000*%
%TD*%
%TA.AperFunction,SMDPad,CuDef*%
%ADD33R,1.520000X2.160000*%
%TD*%
%TA.AperFunction,SMDPad,CuDef*%
%ADD34RoundRect,0.243750X-0.243750X-0.456250X0.243750X-0.456250X0.243750X0.456250X-0.243750X0.456250X0*%
%TD*%
%TA.AperFunction,ComponentPad*%
%ADD35R,1.508000X1.508000*%
%TD*%
%TA.AperFunction,ComponentPad*%
%ADD36C,1.508000*%
%TD*%
%TA.AperFunction,ComponentPad*%
%ADD37R,4.500000X2.500000*%
%TD*%
%TA.AperFunction,ComponentPad*%
%ADD38O,4.500000X2.500000*%
%TD*%
%TA.AperFunction,ComponentPad*%
%ADD39C,3.800000*%
%TD*%
%TA.AperFunction,SMDPad,CuDef*%
%ADD40RoundRect,0.150000X0.150000X-0.825000X0.150000X0.825000X-0.150000X0.825000X-0.150000X-0.825000X0*%
%TD*%
%TA.AperFunction,ViaPad*%
%ADD41C,0.800000*%
%TD*%
%TA.AperFunction,ViaPad*%
%ADD42C,0.600000*%
%TD*%
%TA.AperFunction,ViaPad*%
%ADD43C,1.000000*%
%TD*%
%TA.AperFunction,Conductor*%
%ADD44C,0.500000*%
%TD*%
%TA.AperFunction,Conductor*%
%ADD45C,0.250000*%
%TD*%
%TA.AperFunction,Conductor*%
%ADD46C,1.000000*%
%TD*%
%TA.AperFunction,Conductor*%
%ADD47C,3.000000*%
%TD*%
%TA.AperFunction,Conductor*%
%ADD48C,7.000000*%
%TD*%
G04 APERTURE END LIST*
D10*
%TO.P,J2,1,Pin_1*%
%TO.N,+9V*%
X23245000Y-64710000D03*
D11*
%TO.P,J2,2,Pin_2*%
%TO.N,GND*%
X23245000Y-61710000D03*
%TD*%
D12*
%TO.P,J3,1,+*%
%TO.N,Net-(F1-Pad2)*%
X112315000Y-141160000D03*
X112315000Y-146240000D03*
X112315000Y-148780000D03*
%TO.P,J3,2,-*%
%TO.N,/-ARR*%
X119935000Y-146240000D03*
X119935000Y-141160000D03*
X119935000Y-148780000D03*
%TD*%
D13*
%TO.P,J6,1,5V*%
%TO.N,Net-(C19-Pad1)*%
X40795000Y-148167500D03*
D14*
%TO.P,J6,2,GND*%
%TO.N,Net-(C19-Pad2)*%
X37795000Y-148167500D03*
%TO.P,J6,3,CAN_H*%
%TO.N,Net-(J5-Pad3)*%
X34795000Y-148167500D03*
%TO.P,J6,4,CAN_L*%
%TO.N,Net-(J5-Pad4)*%
X31795000Y-148167500D03*
%TD*%
D15*
%TO.P,SW1,1,1*%
%TO.N,GND*%
X21010000Y-71990000D03*
X21010000Y-78490000D03*
%TO.P,SW1,2,2*%
%TO.N,/Reset*%
X25510000Y-78490000D03*
X25510000Y-71990000D03*
%TD*%
D16*
%TO.P,HS3,1*%
%TO.N,N/C*%
X73785000Y-80475000D03*
X99185000Y-80475000D03*
%TD*%
D17*
%TO.P,U10,1,CAN_H*%
%TO.N,Net-(J5-Pad3)*%
X34350000Y-140615000D03*
%TO.P,U10,2,CAN_L*%
%TO.N,Net-(J5-Pad4)*%
X32450000Y-140615000D03*
%TO.P,U10,3,GND*%
%TO.N,Net-(C19-Pad2)*%
X33400000Y-142490000D03*
%TD*%
D18*
%TO.P,D6,1,K*%
%TO.N,/+BATT*%
X89030000Y-75710000D03*
D19*
%TO.P,D6,2,A*%
%TO.N,Net-(D4-Pad2)*%
X83950000Y-75710000D03*
%TD*%
D13*
%TO.P,J5,1,5V*%
%TO.N,Net-(C19-Pad1)*%
X40790000Y-156967500D03*
D14*
%TO.P,J5,2,GND*%
%TO.N,Net-(C19-Pad2)*%
X37790000Y-156967500D03*
%TO.P,J5,3,CAN_H*%
%TO.N,Net-(J5-Pad3)*%
X34790000Y-156967500D03*
%TO.P,J5,4,CAN_L*%
%TO.N,Net-(J5-Pad4)*%
X31790000Y-156967500D03*
%TD*%
D20*
%TO.P,R2,1*%
%TO.N,Net-(R2-Pad1)*%
X53580000Y-71500000D03*
%TO.P,R2,2*%
%TO.N,/Drive_PWM*%
X53580000Y-69675000D03*
%TD*%
D18*
%TO.P,D5,1,K*%
%TO.N,/+BATT*%
X83950000Y-85255000D03*
D19*
%TO.P,D5,2,A*%
%TO.N,Net-(D4-Pad2)*%
X89030000Y-85255000D03*
%TD*%
D21*
%TO.P,F2,1*%
%TO.N,Net-(F2-Pad1)*%
X67045000Y-131955000D03*
%TO.P,F2,2*%
%TO.N,/+BATT*%
X91145000Y-131955000D03*
%TD*%
D16*
%TO.P,HS2,1*%
%TO.N,N/C*%
X95065000Y-31690000D03*
X95065000Y-57090000D03*
%TD*%
D13*
%TO.P,J1,1,+12V*%
%TO.N,+12V*%
X53942500Y-156885000D03*
D14*
%TO.P,J1,2,GND*%
%TO.N,GNDPWR*%
X50942500Y-156885000D03*
%TD*%
D22*
%TO.P,U2,1,D1*%
%TO.N,/Heartbeat*%
X30565000Y-79655000D03*
D23*
%TO.P,U2,2,D0*%
%TO.N,/Tracking*%
X30565000Y-82195000D03*
%TO.P,U2,3,RST*%
%TO.N,/Reset*%
X30565000Y-84735000D03*
%TO.P,U2,4,GND*%
%TO.N,GND*%
X30565000Y-87275000D03*
%TO.P,U2,5,D2*%
%TO.N,/CAN_Tx*%
X30565000Y-89815000D03*
%TO.P,U2,6,D3*%
%TO.N,/Error*%
X30565000Y-92355000D03*
%TO.P,U2,7,D4*%
%TO.N,unconnected-(U2-Pad7)*%
X30565000Y-94895000D03*
%TO.P,U2,8,D5*%
%TO.N,unconnected-(U2-Pad8)*%
X30565000Y-97435000D03*
%TO.P,U2,9,D6*%
%TO.N,unconnected-(U2-Pad9)*%
X30565000Y-99975000D03*
%TO.P,U2,10,D7*%
%TO.N,Net-(SW2-Pad4)*%
X30565000Y-102515000D03*
%TO.P,U2,11,D8*%
%TO.N,Net-(SW2-Pad3)*%
X30565000Y-105055000D03*
%TO.P,U2,12,D9*%
%TO.N,unconnected-(U2-Pad12)*%
X30565000Y-107595000D03*
%TO.P,U2,13,D10*%
%TO.N,/CAN_Rx*%
X30565000Y-110135000D03*
%TO.P,U2,14,D11*%
%TO.N,unconnected-(U2-Pad14)*%
X30565000Y-112675000D03*
%TO.P,U2,15,D12*%
%TO.N,unconnected-(U2-Pad15)*%
X30565000Y-115215000D03*
%TO.P,U2,16,D13*%
%TO.N,unconnected-(U2-Pad16)*%
X45805000Y-115215000D03*
%TO.P,U2,17,+3V3*%
%TO.N,+3V3*%
X45805000Y-112675000D03*
%TO.P,U2,18,AREF*%
%TO.N,unconnected-(U2-Pad18)*%
X45805000Y-110135000D03*
%TO.P,U2,19,A0*%
%TO.N,unconnected-(U2-Pad19)*%
X45805000Y-107595000D03*
%TO.P,U2,20,A1*%
%TO.N,/PWM*%
X45805000Y-105055000D03*
%TO.P,U2,21,A2*%
%TO.N,unconnected-(U2-Pad21)*%
X45805000Y-102515000D03*
%TO.P,U2,22,A3*%
%TO.N,/Battery_Current*%
X45805000Y-99975000D03*
%TO.P,U2,23,A4*%
%TO.N,/Battery_Voltage*%
X45805000Y-97435000D03*
%TO.P,U2,24,A5*%
%TO.N,/Array_Current*%
X45805000Y-94895000D03*
%TO.P,U2,25,A6*%
%TO.N,/Array_Voltage*%
X45805000Y-92355000D03*
%TO.P,U2,26,A7*%
%TO.N,unconnected-(U2-Pad26)*%
X45805000Y-89815000D03*
%TO.P,U2,27,+5V*%
%TO.N,+5V*%
X45805000Y-87275000D03*
%TO.P,U2,28,RST*%
%TO.N,/Reset*%
X45805000Y-84735000D03*
%TO.P,U2,29,GND*%
%TO.N,GND*%
X45805000Y-82195000D03*
D22*
%TO.P,U2,30,VIN*%
%TO.N,+9V*%
X45805000Y-79655000D03*
%TD*%
D18*
%TO.P,R5,1*%
%TO.N,Net-(D4-Pad2)*%
X99800000Y-46985000D03*
D19*
%TO.P,R5,2*%
%TO.N,Net-(C9-Pad1)*%
X99800000Y-41905000D03*
%TD*%
D24*
%TO.P,LED5,1,K*%
%TO.N,GND*%
X26917500Y-95525000D03*
%TO.P,LED5,2,A*%
%TO.N,Net-(LED5-Pad2)*%
X25042500Y-95525000D03*
%TD*%
%TO.P,LED10,1,K*%
%TO.N,GND*%
X26890000Y-101300000D03*
%TO.P,LED10,2,A*%
%TO.N,Net-(R22-Pad2)*%
X25015000Y-101300000D03*
%TD*%
D25*
%TO.P,U9,1,GND_In*%
%TO.N,GND*%
X42350000Y-123105000D03*
%TO.P,U9,2,GND_In*%
X41080000Y-123105000D03*
%TO.P,U9,3,V_In*%
%TO.N,+5V*%
X39810000Y-123105000D03*
%TO.P,U9,4,V_IO*%
%TO.N,+3V3*%
X38540000Y-123105000D03*
%TO.P,U9,5,RX*%
%TO.N,/CAN_Rx*%
X37270000Y-123105000D03*
%TO.P,U9,6,SILENT*%
%TO.N,unconnected-(U9-Pad6)*%
X36000000Y-123105000D03*
%TO.P,U9,7,TX*%
%TO.N,/CAN_Tx*%
X34730000Y-123105000D03*
%TO.P,U9,8,STDBY*%
%TO.N,unconnected-(U9-Pad8)*%
X33460000Y-123105000D03*
%TO.P,U9,9,AUX_In*%
%TO.N,unconnected-(U9-Pad9)*%
X32190000Y-123105000D03*
%TO.P,U9,10,GND_In*%
%TO.N,GND*%
X30920000Y-123105000D03*
%TO.P,U9,11,GND_ISO_In*%
%TO.N,Net-(C19-Pad2)*%
X30920000Y-132555000D03*
%TO.P,U9,12,RS*%
%TO.N,Net-(R12-Pad1)*%
X32190000Y-132555000D03*
%TO.P,U9,13,CAN_L*%
%TO.N,Net-(J5-Pad4)*%
X33460000Y-132555000D03*
%TO.P,U9,14,CAN_H*%
%TO.N,Net-(J5-Pad3)*%
X34730000Y-132555000D03*
%TO.P,U9,15,GND_ISO_In*%
%TO.N,Net-(C19-Pad2)*%
X36000000Y-132555000D03*
%TO.P,U9,16,V_ISO_In*%
%TO.N,Net-(C19-Pad1)*%
X37270000Y-132555000D03*
%TO.P,U9,17,AUX_Out*%
%TO.N,unconnected-(U9-Pad17)*%
X38540000Y-132555000D03*
%TO.P,U9,18,GND_ISO_Out*%
%TO.N,Net-(C18-Pad2)*%
X39810000Y-132555000D03*
%TO.P,U9,19,V_ISO_Out*%
%TO.N,Net-(C18-Pad1)*%
X41080000Y-132555000D03*
%TO.P,U9,20,GND_ISO_Out*%
%TO.N,Net-(C18-Pad2)*%
X42350000Y-132555000D03*
%TD*%
D26*
%TO.P,L4,1*%
%TO.N,Net-(C19-Pad2)*%
X43115000Y-137710000D03*
%TO.P,L4,2*%
%TO.N,Net-(C18-Pad2)*%
X43115000Y-135585000D03*
%TD*%
D24*
%TO.P,LED8,1,K*%
%TO.N,GND*%
X26902500Y-110130000D03*
%TO.P,LED8,2,A*%
%TO.N,Net-(LED8-Pad2)*%
X25027500Y-110130000D03*
%TD*%
D26*
%TO.P,L3,1*%
%TO.N,Net-(C19-Pad1)*%
X40890000Y-137725000D03*
%TO.P,L3,2*%
%TO.N,Net-(C18-Pad1)*%
X40890000Y-135600000D03*
%TD*%
D24*
%TO.P,LED7,1,K*%
%TO.N,GND*%
X26902500Y-104255000D03*
%TO.P,LED7,2,A*%
%TO.N,Net-(LED7-Pad2)*%
X25027500Y-104255000D03*
%TD*%
D27*
%TO.P,U4,1,GNDin*%
%TO.N,GND*%
X58570000Y-134285000D03*
%TO.P,U4,2,Vin*%
%TO.N,Net-(C7-Pad1)*%
X58570000Y-131745000D03*
%TO.P,U4,4,Vout*%
%TO.N,+9VA*%
X58570000Y-126665000D03*
%TO.P,U4,5,GNDout*%
%TO.N,GND*%
X48410000Y-126665000D03*
%TO.P,U4,8,NC*%
%TO.N,unconnected-(U4-Pad8)*%
X48410000Y-134285000D03*
%TD*%
D16*
%TO.P,HS1,1*%
%TO.N,N/C*%
X67530000Y-57085000D03*
X67530000Y-31685000D03*
%TD*%
D28*
%TO.P,JP1,1,A*%
%TO.N,Net-(JP1-Pad1)*%
X39825000Y-141620000D03*
D29*
%TO.P,JP1,2,B*%
%TO.N,Net-(JP1-Pad2)*%
X42365000Y-141620000D03*
%TD*%
D30*
%TO.P,LED3,1,K*%
%TO.N,/-ARR*%
X135860000Y-145544000D03*
%TO.P,LED3,2,A*%
%TO.N,Net-(LED3-Pad2)*%
X135860000Y-147419000D03*
%TD*%
D31*
%TO.P,C9,1*%
%TO.N,Net-(C9-Pad1)*%
X110975000Y-41325000D03*
%TO.P,C9,2*%
%TO.N,GND*%
X125975000Y-41325000D03*
%TD*%
D32*
%TO.P,CP1,1*%
%TO.N,/+ARR*%
X125570000Y-110435000D03*
D16*
%TO.P,CP1,2*%
%TO.N,GND*%
X115570000Y-110435000D03*
%TD*%
D33*
%TO.P,SW2,1*%
%TO.N,GND*%
X24280000Y-83045000D03*
%TO.P,SW2,2*%
X21740000Y-83045000D03*
%TO.P,SW2,3*%
%TO.N,Net-(SW2-Pad3)*%
X21740000Y-91305000D03*
%TO.P,SW2,4*%
%TO.N,Net-(SW2-Pad4)*%
X24280000Y-91305000D03*
%TD*%
D24*
%TO.P,LED9,1,K*%
%TO.N,GND*%
X26907500Y-107135000D03*
%TO.P,LED9,2,A*%
%TO.N,Net-(LED9-Pad2)*%
X25032500Y-107135000D03*
%TD*%
D34*
%TO.P,LED1,1,K*%
%TO.N,GND*%
X55077500Y-141145000D03*
%TO.P,LED1,2,A*%
%TO.N,Net-(LED1-Pad2)*%
X56952500Y-141145000D03*
%TD*%
D35*
%TO.P,U1,1,-VIN*%
%TO.N,GNDPWR*%
X49347500Y-149695000D03*
D36*
%TO.P,U1,2,+VIN*%
%TO.N,+12V*%
X51887500Y-149695000D03*
%TO.P,U1,3,-VOUT*%
%TO.N,GND*%
X54427500Y-149695000D03*
%TO.P,U1,4,+VOUT*%
%TO.N,+5V*%
X56967500Y-149695000D03*
%TD*%
D34*
%TO.P,LED2,1,K*%
%TO.N,GND*%
X50672500Y-121195000D03*
%TO.P,LED2,2,A*%
%TO.N,Net-(LED2-Pad2)*%
X52547500Y-121195000D03*
%TD*%
D37*
%TO.P,Q1,1,G*%
%TO.N,/Drive_PWM*%
X63525000Y-38930000D03*
D38*
%TO.P,Q1,2,D*%
%TO.N,Net-(D4-Pad2)*%
X63525000Y-44380000D03*
%TO.P,Q1,3,S*%
%TO.N,GND*%
X63525000Y-49830000D03*
%TD*%
D12*
%TO.P,J4,1,+*%
%TO.N,Net-(F2-Pad1)*%
X75035000Y-148715000D03*
X75035000Y-146175000D03*
X75035000Y-141095000D03*
%TO.P,J4,2,-*%
%TO.N,/-BATT*%
X82655000Y-148715000D03*
X82655000Y-146175000D03*
X82655000Y-141095000D03*
%TD*%
D18*
%TO.P,D4,1,K*%
%TO.N,Net-(C9-Pad1)*%
X90270000Y-41905000D03*
D19*
%TO.P,D4,2,A*%
%TO.N,Net-(D4-Pad2)*%
X90270000Y-46985000D03*
%TD*%
D37*
%TO.P,Q2,1,G*%
%TO.N,/Drive_PWM*%
X71435000Y-49800000D03*
D38*
%TO.P,Q2,2,D*%
%TO.N,Net-(D4-Pad2)*%
X71435000Y-44350000D03*
%TO.P,Q2,3,S*%
%TO.N,GND*%
X71435000Y-38900000D03*
%TD*%
D39*
%TO.P,L2,1,1*%
%TO.N,/+ARR*%
X133590000Y-69795000D03*
%TO.P,L2,2,2*%
%TO.N,Net-(D4-Pad2)*%
X111790000Y-69795000D03*
%TD*%
D30*
%TO.P,LED4,1,K*%
%TO.N,/-BATT*%
X97525000Y-145347500D03*
%TO.P,LED4,2,A*%
%TO.N,Net-(LED4-Pad2)*%
X97525000Y-147222500D03*
%TD*%
D21*
%TO.P,F1,1*%
%TO.N,/+ARR*%
X125670000Y-131874000D03*
%TO.P,F1,2*%
%TO.N,Net-(F1-Pad2)*%
X101570000Y-131874000D03*
%TD*%
D40*
%TO.P,U3,1,VDD*%
%TO.N,+9VA*%
X53425000Y-79345000D03*
%TO.P,U3,2,IN*%
%TO.N,/PWM*%
X54695000Y-79345000D03*
%TO.P,U3,3,ENBL*%
X55965000Y-79345000D03*
%TO.P,U3,4,AGND*%
%TO.N,GND*%
X57235000Y-79345000D03*
%TO.P,U3,5,PGND*%
X57235000Y-74395000D03*
%TO.P,U3,6,OUT*%
%TO.N,Net-(R2-Pad1)*%
X55965000Y-74395000D03*
%TO.P,U3,7,OUT*%
X54695000Y-74395000D03*
%TO.P,U3,8,VDD*%
%TO.N,+9VA*%
X53425000Y-74395000D03*
%TD*%
D24*
%TO.P,LED6,1,K*%
%TO.N,GND*%
X26907500Y-98420000D03*
%TO.P,LED6,2,A*%
%TO.N,Net-(LED6-Pad2)*%
X25032500Y-98420000D03*
%TD*%
D32*
%TO.P,CP2,1*%
%TO.N,/+BATT*%
X84225000Y-110145000D03*
D16*
%TO.P,CP2,2*%
%TO.N,GND*%
X74225000Y-110145000D03*
%TD*%
D41*
%TO.N,+9VA*%
X95240000Y-126715000D03*
X87220000Y-126665000D03*
D42*
%TO.N,GND*%
X28290000Y-99105000D03*
X79095000Y-130655000D03*
X50645000Y-119410000D03*
D43*
X58595000Y-134300000D03*
D42*
X55077500Y-141145000D03*
D43*
X48435000Y-126675000D03*
D42*
X42335000Y-120155000D03*
X28305000Y-111610000D03*
X28305000Y-107560000D03*
X24300000Y-85330000D03*
X28315000Y-102095000D03*
X41090000Y-125245000D03*
D43*
X57245000Y-76820000D03*
D42*
X21765000Y-85330000D03*
X78050000Y-134006000D03*
X30900000Y-120225000D03*
D43*
X57230000Y-82680000D03*
D42*
X26275000Y-93550000D03*
X42325000Y-125275000D03*
X28295000Y-104925000D03*
%TO.N,+9V*%
X28325000Y-64685000D03*
X28325000Y-67440000D03*
D43*
%TO.N,Net-(C7-Pad1)*%
X53310000Y-130415000D03*
%TO.N,+9VA*%
X50630000Y-79830000D03*
X50610000Y-73965000D03*
D42*
X111730000Y-128866000D03*
X65245000Y-121140000D03*
X77145000Y-129141000D03*
D43*
X54370000Y-124435000D03*
D42*
X101895000Y-122073750D03*
X50625000Y-71295000D03*
%TO.N,Net-(C9-Pad1)*%
X114880000Y-41345000D03*
%TO.N,+5V*%
X40435000Y-120155000D03*
X40430000Y-117115000D03*
D43*
X53310000Y-134015000D03*
X41645000Y-114205000D03*
X41650000Y-110805000D03*
D42*
%TO.N,+3V3*%
X37870000Y-114145000D03*
X37875000Y-120175000D03*
X37880000Y-117155000D03*
%TO.N,/Array_Voltage*%
X59705000Y-116015000D03*
X101895000Y-116951250D03*
X103810000Y-119223750D03*
X56535000Y-103070000D03*
X99430000Y-125360000D03*
X59675000Y-111785000D03*
X99430000Y-127855000D03*
X52945000Y-99395000D03*
X63315000Y-125690000D03*
X63345000Y-127940000D03*
X99420000Y-116943750D03*
%TO.N,/Battery_Voltage*%
X65245000Y-115939882D03*
X55925000Y-112865000D03*
X67145000Y-118230000D03*
X63565000Y-112908882D03*
X52795000Y-112840000D03*
%TO.N,/Array_Current*%
X102750000Y-140620000D03*
X52890000Y-101925000D03*
X57990000Y-116035000D03*
X61675000Y-127935000D03*
X56480000Y-105505000D03*
X58010000Y-111790000D03*
X61675000Y-125650000D03*
%TO.N,/Battery_Current*%
X64065000Y-124305000D03*
X76546666Y-135926000D03*
X52775000Y-114440000D03*
X70820000Y-127986000D03*
X55910000Y-114480000D03*
D43*
%TO.N,/Drive_PWM*%
X59885000Y-69650000D03*
X56760000Y-68665000D03*
D42*
X53580000Y-69675000D03*
%TO.N,/PWM*%
X52860000Y-96720000D03*
X28320000Y-103795000D03*
X42760000Y-103715000D03*
X35750000Y-103720000D03*
X53730000Y-82680000D03*
X40475000Y-103695000D03*
X52860000Y-92110000D03*
X33830000Y-103755000D03*
%TO.N,Net-(C18-Pad1)*%
X40875000Y-135600000D03*
X41815000Y-129670000D03*
%TO.N,Net-(C18-Pad2)*%
X39805000Y-129670000D03*
X43115000Y-135585000D03*
%TO.N,Net-(LED1-Pad2)*%
X56952500Y-141145000D03*
%TO.N,Net-(LED2-Pad2)*%
X52527500Y-121195000D03*
%TO.N,Net-(LED3-Pad2)*%
X135870000Y-147399000D03*
%TO.N,Net-(LED4-Pad2)*%
X97515000Y-147200000D03*
%TO.N,Net-(LED5-Pad2)*%
X25062500Y-95510000D03*
%TO.N,Net-(LED6-Pad2)*%
X25062500Y-98420000D03*
%TO.N,Net-(LED7-Pad2)*%
X25060000Y-104250000D03*
%TO.N,Net-(LED8-Pad2)*%
X25027500Y-110130000D03*
%TO.N,Net-(LED9-Pad2)*%
X25062500Y-107140000D03*
%TO.N,/Tracking*%
X28240000Y-97760000D03*
%TO.N,/CAN_Tx*%
X33505000Y-120180000D03*
X28280000Y-106340000D03*
X34695000Y-115450000D03*
%TO.N,/CAN_Rx*%
X33535000Y-117200000D03*
%TO.N,/Reset*%
X27665000Y-80645000D03*
%TO.N,Net-(C19-Pad1)*%
X37795000Y-129665000D03*
X37250000Y-135425000D03*
X37250000Y-137915000D03*
X40890000Y-137725000D03*
%TO.N,Net-(C19-Pad2)*%
X35350000Y-135425000D03*
X43115000Y-137710000D03*
X35785000Y-129670000D03*
X35350000Y-137915000D03*
X30177500Y-135415000D03*
X33400000Y-142490000D03*
%TO.N,/+ARR*%
X135860000Y-143755000D03*
X106515000Y-119703750D03*
%TO.N,/+BATT*%
X69865000Y-118667500D03*
X97510000Y-143810000D03*
%TO.N,Net-(J5-Pad3)*%
X34350000Y-140615000D03*
X33785000Y-129670000D03*
%TO.N,Net-(J5-Pad4)*%
X32450000Y-140615000D03*
X31790000Y-129670000D03*
%TO.N,Net-(D4-Pad2)*%
X105130000Y-47320000D03*
%TO.N,/Error*%
X28315000Y-100660000D03*
%TO.N,Net-(R12-Pad1)*%
X32002500Y-135415000D03*
%TO.N,/Heartbeat*%
X27350000Y-93525000D03*
%TO.N,Net-(R22-Pad2)*%
X25035000Y-101295000D03*
%TD*%
D44*
%TO.N,+9VA*%
X101845000Y-126715000D02*
X101895000Y-126665000D01*
X95240000Y-126715000D02*
X101845000Y-126715000D01*
X87219000Y-126666000D02*
X87220000Y-126665000D01*
X83646000Y-126666000D02*
X87219000Y-126666000D01*
X58422500Y-126666000D02*
X83646000Y-126666000D01*
D45*
%TO.N,GND*%
X26902500Y-104255000D02*
X27625000Y-104255000D01*
X21740000Y-83045000D02*
X21740000Y-85305000D01*
X27520000Y-101300000D02*
X28315000Y-102095000D01*
X27625000Y-104255000D02*
X28295000Y-104925000D01*
X26917500Y-95525000D02*
X26917500Y-94192500D01*
X26902500Y-110207500D02*
X28305000Y-111610000D01*
X30910000Y-123110000D02*
X30910000Y-120225000D01*
X26890000Y-101300000D02*
X27520000Y-101300000D01*
D44*
X50655000Y-119420000D02*
X50645000Y-119410000D01*
X57235000Y-82675000D02*
X57230000Y-82680000D01*
X57235000Y-76810000D02*
X57245000Y-76820000D01*
D45*
X27605000Y-98420000D02*
X28290000Y-99105000D01*
X42325000Y-120165000D02*
X42335000Y-120155000D01*
X41070000Y-125225000D02*
X41090000Y-125245000D01*
X26907500Y-107135000D02*
X27880000Y-107135000D01*
X27880000Y-107135000D02*
X28305000Y-107560000D01*
D44*
X50655000Y-121042500D02*
X50655000Y-119420000D01*
D45*
X78050000Y-134006000D02*
X79095000Y-132961000D01*
D44*
X57235000Y-79345000D02*
X57235000Y-82675000D01*
X57235000Y-74395000D02*
X57235000Y-76810000D01*
D45*
X42340000Y-123110000D02*
X42340000Y-120205000D01*
X26917500Y-94192500D02*
X26275000Y-93550000D01*
X42340000Y-123110000D02*
X42340000Y-125260000D01*
X41070000Y-123110000D02*
X42340000Y-123110000D01*
X26907500Y-98420000D02*
X27605000Y-98420000D01*
X79095000Y-132961000D02*
X79095000Y-130655000D01*
X42340000Y-125260000D02*
X42325000Y-125275000D01*
X24280000Y-83045000D02*
X24280000Y-85310000D01*
X41070000Y-123110000D02*
X41070000Y-125225000D01*
D46*
%TO.N,GNDPWR*%
X49347500Y-155290000D02*
X49347500Y-149695000D01*
X50942500Y-156885000D02*
X49347500Y-155290000D01*
D44*
%TO.N,+9V*%
X28325000Y-64685000D02*
X28325000Y-67440000D01*
X28325000Y-74415000D02*
X33565000Y-79655000D01*
X23360000Y-64685000D02*
X28325000Y-64685000D01*
X33565000Y-79655000D02*
X45805000Y-79655000D01*
X28325000Y-67440000D02*
X28325000Y-74415000D01*
D46*
%TO.N,Net-(C7-Pad1)*%
X53340000Y-130445000D02*
X53310000Y-130415000D01*
X58570000Y-131745000D02*
X57310000Y-131745000D01*
X56010000Y-130445000D02*
X53340000Y-130445000D01*
X57310000Y-131745000D02*
X56010000Y-130445000D01*
%TO.N,+9VA*%
X56600000Y-126665000D02*
X54370000Y-124435000D01*
D44*
X77145000Y-129141000D02*
X77145000Y-126691000D01*
X101895000Y-122073750D02*
X101895000Y-126665000D01*
D46*
X50610000Y-87325000D02*
X50610000Y-73965000D01*
X54370000Y-124435000D02*
X54370000Y-91085000D01*
D44*
X52995000Y-73965000D02*
X53425000Y-74395000D01*
X111730000Y-127840000D02*
X110555000Y-126665000D01*
D46*
X50610000Y-71310000D02*
X50625000Y-71295000D01*
D44*
X111730000Y-128866000D02*
X111730000Y-127840000D01*
X52940000Y-79830000D02*
X53425000Y-79345000D01*
X50610000Y-73965000D02*
X52995000Y-73965000D01*
X65245000Y-121140000D02*
X65245000Y-126674882D01*
X101895000Y-126665000D02*
X110555000Y-126665000D01*
D46*
X50610000Y-73965000D02*
X50610000Y-71310000D01*
X58570000Y-126665000D02*
X56600000Y-126665000D01*
X54370000Y-91085000D02*
X50610000Y-87325000D01*
D44*
X50630000Y-79830000D02*
X52940000Y-79830000D01*
D45*
%TO.N,Net-(C9-Pad1)*%
X114860000Y-41325000D02*
X114880000Y-41345000D01*
X110975000Y-41325000D02*
X114860000Y-41325000D01*
D47*
X110395000Y-41905000D02*
X110975000Y-41325000D01*
X90270000Y-41905000D02*
X110395000Y-41905000D01*
D44*
%TO.N,+5V*%
X43260000Y-87275000D02*
X45805000Y-87275000D01*
X41640000Y-88895000D02*
X43260000Y-87275000D01*
X44950000Y-117475000D02*
X44950000Y-119510000D01*
D45*
X39785000Y-120805000D02*
X40435000Y-120155000D01*
D44*
X41680000Y-114205000D02*
X44950000Y-117475000D01*
X44965000Y-127165000D02*
X51850000Y-134050000D01*
X53275000Y-134050000D02*
X51850000Y-134050000D01*
D45*
X39800000Y-123110000D02*
X39800000Y-120845000D01*
X40435000Y-117120000D02*
X40430000Y-117115000D01*
D44*
X41645000Y-114205000D02*
X41680000Y-114205000D01*
D45*
X40430000Y-117115000D02*
X40430000Y-115420000D01*
D44*
X53310000Y-134015000D02*
X53275000Y-134050000D01*
D45*
X40435000Y-120155000D02*
X40435000Y-117120000D01*
X40430000Y-115420000D02*
X41645000Y-114205000D01*
D44*
X41640000Y-110795000D02*
X41640000Y-88895000D01*
X41650000Y-110805000D02*
X41640000Y-110795000D01*
X44965000Y-127165000D02*
X44965000Y-119550000D01*
D45*
%TO.N,+3V3*%
X37870000Y-117145000D02*
X37880000Y-117155000D01*
X37870000Y-114145000D02*
X37870000Y-117145000D01*
X38530000Y-123110000D02*
X38530000Y-120855000D01*
X37875000Y-117160000D02*
X37880000Y-117155000D01*
X37875000Y-120175000D02*
X37875000Y-117160000D01*
X37870000Y-114145000D02*
X39340000Y-112675000D01*
X45805000Y-112675000D02*
X39340000Y-112675000D01*
X38515000Y-120815000D02*
X37875000Y-120175000D01*
%TO.N,/Array_Voltage*%
X59675000Y-106210000D02*
X59675000Y-111785000D01*
X63345000Y-127940000D02*
X63345000Y-152925000D01*
X99420000Y-125350000D02*
X99420000Y-116943750D01*
X68100000Y-157680000D02*
X92170000Y-157680000D01*
X45805000Y-92355000D02*
X52845000Y-99395000D01*
X56535000Y-103070000D02*
X59675000Y-106210000D01*
X103810000Y-119223750D02*
X103810000Y-118866250D01*
X63345000Y-152925000D02*
X68100000Y-157680000D01*
X52845000Y-99395000D02*
X52945000Y-99395000D01*
X59705000Y-116015000D02*
X59705000Y-122080000D01*
X103810000Y-118866250D02*
X101895000Y-116951250D01*
X99370000Y-127915000D02*
X99430000Y-127855000D01*
X99370000Y-150480000D02*
X99370000Y-127915000D01*
X99370000Y-150480000D02*
X92170000Y-157680000D01*
X99430000Y-125360000D02*
X99420000Y-125350000D01*
X59705000Y-122080000D02*
X63315000Y-125690000D01*
%TO.N,/Battery_Voltage*%
X67145000Y-117839882D02*
X65245000Y-115939882D01*
X55925000Y-112865000D02*
X63521118Y-112865000D01*
X67145000Y-118230000D02*
X67145000Y-117839882D01*
X51010000Y-111000000D02*
X51010000Y-102640000D01*
X45805000Y-97435000D02*
X51010000Y-102640000D01*
X63521118Y-112865000D02*
X63565000Y-112908882D01*
X51010000Y-111000000D02*
X52795000Y-112785000D01*
X52795000Y-112785000D02*
X52795000Y-112840000D01*
%TO.N,/Array_Current*%
X67654283Y-159835000D02*
X92275000Y-159835000D01*
X58010000Y-107035000D02*
X58010000Y-111790000D01*
X102750000Y-140620000D02*
X100810000Y-142560000D01*
X57990000Y-116035000D02*
X57990000Y-121965000D01*
X57990000Y-121965000D02*
X61675000Y-125650000D01*
X100810000Y-151300000D02*
X92275000Y-159835000D01*
X100810000Y-142560000D02*
X100810000Y-151300000D01*
X52835000Y-101925000D02*
X52890000Y-101925000D01*
X45805000Y-94895000D02*
X52690000Y-101780000D01*
X56480000Y-105505000D02*
X58010000Y-107035000D01*
X61675000Y-127935000D02*
X61675000Y-153855717D01*
X52690000Y-101780000D02*
X52835000Y-101925000D01*
X61675000Y-153855717D02*
X67654283Y-159835000D01*
%TO.N,/Battery_Current*%
X72980000Y-130146000D02*
X72980000Y-132359334D01*
X72980000Y-132359334D02*
X76546666Y-135926000D01*
X61420000Y-115670000D02*
X61420000Y-121600000D01*
X61335000Y-115585000D02*
X61420000Y-115670000D01*
X45805000Y-99975000D02*
X49405000Y-103575000D01*
X61420000Y-121600000D02*
X61420000Y-121660000D01*
X49405000Y-111705000D02*
X52140000Y-114440000D01*
X60230000Y-114480000D02*
X61335000Y-115585000D01*
X61420000Y-121660000D02*
X64065000Y-124305000D01*
X55910000Y-114480000D02*
X60230000Y-114480000D01*
X52140000Y-114440000D02*
X52775000Y-114440000D01*
X49405000Y-103575000D02*
X49405000Y-111705000D01*
X70820000Y-127986000D02*
X72980000Y-130146000D01*
D46*
%TO.N,+12V*%
X51887500Y-152082500D02*
X51887500Y-149695000D01*
X53942500Y-156885000D02*
X53942500Y-154137500D01*
X53942500Y-154137500D02*
X51887500Y-152082500D01*
D44*
%TO.N,/Drive_PWM*%
X53580000Y-69675000D02*
X55750000Y-69675000D01*
X69335000Y-49800000D02*
X59885000Y-59250000D01*
X59885000Y-69650000D02*
X59885000Y-59250000D01*
X59885000Y-59250000D02*
X59885000Y-42570000D01*
X71435000Y-49800000D02*
X69335000Y-49800000D01*
X59860000Y-69675000D02*
X59885000Y-69650000D01*
X59885000Y-42570000D02*
X63525000Y-38930000D01*
X55750000Y-69675000D02*
X59860000Y-69675000D01*
X55750000Y-69675000D02*
X56760000Y-68665000D01*
D45*
%TO.N,/PWM*%
X44465000Y-103715000D02*
X45805000Y-105055000D01*
X55965000Y-80445000D02*
X54695000Y-81715000D01*
X54695000Y-79345000D02*
X54695000Y-81715000D01*
X55965000Y-79345000D02*
X55965000Y-80445000D01*
X28595000Y-103755000D02*
X33830000Y-103755000D01*
X52860000Y-96720000D02*
X52860000Y-92110000D01*
X54695000Y-81715000D02*
X53730000Y-82680000D01*
X35750000Y-103720000D02*
X40450000Y-103720000D01*
X42760000Y-103715000D02*
X44465000Y-103715000D01*
%TO.N,Net-(C18-Pad1)*%
X41070000Y-130415000D02*
X41815000Y-129670000D01*
X41070000Y-132560000D02*
X41070000Y-130415000D01*
X41070000Y-132560000D02*
X41070000Y-135405000D01*
%TO.N,Net-(C18-Pad2)*%
X43115000Y-135585000D02*
X42340000Y-134810000D01*
X42340000Y-134810000D02*
X42340000Y-132560000D01*
X39805000Y-129285000D02*
X40720000Y-128370000D01*
X39800000Y-129675000D02*
X39805000Y-129670000D01*
X40720000Y-128370000D02*
X42805000Y-128370000D01*
X42805000Y-128370000D02*
X43100000Y-128665000D01*
X39805000Y-129670000D02*
X39805000Y-129285000D01*
X43100000Y-131800000D02*
X42340000Y-132560000D01*
X43100000Y-128665000D02*
X43100000Y-131800000D01*
X39800000Y-132560000D02*
X39800000Y-129675000D01*
%TO.N,/Tracking*%
X28240000Y-97760000D02*
X28240000Y-84520000D01*
X28240000Y-84520000D02*
X30565000Y-82195000D01*
%TO.N,/CAN_Tx*%
X34705000Y-121380000D02*
X33505000Y-120180000D01*
X28280000Y-106340000D02*
X34690000Y-106340000D01*
X34720000Y-123110000D02*
X34720000Y-121420000D01*
X34690000Y-106340000D02*
X34690000Y-93940000D01*
X34690000Y-93940000D02*
X30565000Y-89815000D01*
X34690000Y-106340000D02*
X34695000Y-106345000D01*
X34695000Y-106345000D02*
X34695000Y-115450000D01*
%TO.N,/CAN_Rx*%
X33535000Y-113105000D02*
X30565000Y-110135000D01*
X33535000Y-117820000D02*
X33535000Y-117200000D01*
X37245000Y-121570000D02*
X33515000Y-117840000D01*
X33515000Y-117840000D02*
X33535000Y-117820000D01*
X37260000Y-123110000D02*
X37260000Y-121610000D01*
X33535000Y-117200000D02*
X33535000Y-113105000D01*
%TO.N,/Reset*%
X25510000Y-78490000D02*
X27665000Y-80645000D01*
X45805000Y-84735000D02*
X30565000Y-84735000D01*
X25510000Y-71990000D02*
X25510000Y-78490000D01*
%TO.N,Net-(C19-Pad1)*%
X37260000Y-132560000D02*
X37260000Y-130200000D01*
X37250000Y-135425000D02*
X37250000Y-137685000D01*
X37260000Y-132560000D02*
X37260000Y-135415000D01*
X37290000Y-137725000D02*
X37250000Y-137685000D01*
X37260000Y-135415000D02*
X37250000Y-135425000D01*
X40890000Y-137725000D02*
X37290000Y-137725000D01*
X37250000Y-137685000D02*
X37250000Y-137915000D01*
X40790000Y-156967500D02*
X40790000Y-148172500D01*
X37260000Y-130200000D02*
X37795000Y-129665000D01*
%TO.N,Net-(C19-Pad2)*%
X35990000Y-132560000D02*
X35990000Y-129875000D01*
X30505000Y-128630000D02*
X30505000Y-132155000D01*
X30725000Y-128410000D02*
X30505000Y-128630000D01*
X35990000Y-132560000D02*
X35990000Y-134785000D01*
X30910000Y-134682500D02*
X30177500Y-135415000D01*
X35785000Y-129670000D02*
X34895000Y-128780000D01*
X34535000Y-128410000D02*
X30725000Y-128410000D01*
X37795000Y-148167500D02*
X37795000Y-138890000D01*
X34895000Y-128780000D02*
X34895000Y-128770000D01*
X37795000Y-148167500D02*
X37795000Y-156962500D01*
X35990000Y-134785000D02*
X35350000Y-135425000D01*
X37790000Y-138885000D02*
X41940000Y-138885000D01*
X35350000Y-137915000D02*
X36320000Y-138885000D01*
X35350000Y-135425000D02*
X35350000Y-137915000D01*
X35990000Y-129875000D02*
X35785000Y-129670000D01*
X34895000Y-128770000D02*
X34535000Y-128410000D01*
X37795000Y-138890000D02*
X37790000Y-138885000D01*
X41940000Y-138885000D02*
X43115000Y-137710000D01*
X30910000Y-132560000D02*
X30910000Y-134682500D01*
X30505000Y-132155000D02*
X30910000Y-132560000D01*
X36320000Y-138885000D02*
X37790000Y-138885000D01*
%TO.N,/+ARR*%
X135860000Y-143755000D02*
X135860000Y-142064000D01*
D48*
X125570000Y-110435000D02*
X125570000Y-77815000D01*
X125570000Y-77815000D02*
X133590000Y-69795000D01*
D45*
X106515000Y-119703750D02*
X123736250Y-119703750D01*
X135860000Y-142064000D02*
X125670000Y-131874000D01*
%TO.N,/+BATT*%
X69865000Y-118667500D02*
X85352500Y-118667500D01*
X97525000Y-143795000D02*
X97510000Y-143810000D01*
X97525000Y-141214000D02*
X97525000Y-143795000D01*
X91145000Y-134834000D02*
X97525000Y-141214000D01*
X91145000Y-131955000D02*
X91145000Y-134834000D01*
%TO.N,/-ARR*%
X135860000Y-145544000D02*
X120631000Y-145544000D01*
%TO.N,/-BATT*%
X97525000Y-145347500D02*
X83482500Y-145347500D01*
X83482500Y-145347500D02*
X82655000Y-146175000D01*
%TO.N,Net-(J5-Pad3)*%
X34795000Y-148167500D02*
X34795000Y-156962500D01*
X34720000Y-133890000D02*
X34320000Y-134290000D01*
X34720000Y-132560000D02*
X34720000Y-130605000D01*
X34795000Y-148167500D02*
X34795000Y-141060000D01*
X34720000Y-132560000D02*
X34720000Y-133890000D01*
X34320000Y-134290000D02*
X34320000Y-140525000D01*
X34795000Y-141060000D02*
X34350000Y-140615000D01*
X34720000Y-130605000D02*
X33785000Y-129670000D01*
%TO.N,Net-(J5-Pad4)*%
X31795000Y-148167500D02*
X31795000Y-156962500D01*
X33450000Y-131330000D02*
X31790000Y-129670000D01*
X33450000Y-139615000D02*
X32450000Y-140615000D01*
X31795000Y-148167500D02*
X31795000Y-141270000D01*
X31795000Y-141270000D02*
X32450000Y-140615000D01*
X33450000Y-132560000D02*
X33450000Y-131330000D01*
X33450000Y-132560000D02*
X33450000Y-139615000D01*
D47*
%TO.N,Net-(D4-Pad2)*%
X83950000Y-75710000D02*
X83950000Y-73050000D01*
X83950000Y-73050000D02*
X87205000Y-69795000D01*
D45*
X104795000Y-46985000D02*
X105130000Y-47320000D01*
D47*
X89030000Y-85255000D02*
X93565000Y-80720000D01*
X93565000Y-69795000D02*
X111790000Y-69795000D01*
X87205000Y-69795000D02*
X93565000Y-69795000D01*
X93565000Y-80720000D02*
X93565000Y-69795000D01*
D45*
X99800000Y-46985000D02*
X104795000Y-46985000D01*
D44*
%TO.N,Net-(R2-Pad1)*%
X54695000Y-74395000D02*
X54695000Y-72615000D01*
X54695000Y-72615000D02*
X53580000Y-71500000D01*
X55965000Y-74395000D02*
X54695000Y-74395000D01*
D45*
%TO.N,/Error*%
X28940000Y-100070000D02*
X28940000Y-93980000D01*
X28940000Y-93980000D02*
X30565000Y-92355000D01*
X28315000Y-100660000D02*
X28350000Y-100660000D01*
X28350000Y-100660000D02*
X28940000Y-100070000D01*
%TO.N,Net-(R12-Pad1)*%
X32180000Y-135237500D02*
X32002500Y-135415000D01*
X32180000Y-132560000D02*
X32180000Y-135237500D01*
%TO.N,/Heartbeat*%
X27350000Y-93525000D02*
X27350000Y-82870000D01*
X27350000Y-82870000D02*
X30565000Y-79655000D01*
%TO.N,Net-(SW2-Pad4)*%
X30325000Y-102755000D02*
X23780000Y-102755000D01*
X23780000Y-102755000D02*
X23250000Y-102225000D01*
X23250000Y-102225000D02*
X23250000Y-92295000D01*
X23250000Y-92295000D02*
X24240000Y-91305000D01*
%TO.N,Net-(SW2-Pad3)*%
X29910000Y-105710000D02*
X30565000Y-105055000D01*
X21740000Y-91305000D02*
X21740000Y-104565000D01*
X22885000Y-105710000D02*
X29910000Y-105710000D01*
X21740000Y-104565000D02*
X22885000Y-105710000D01*
%TD*%
%TA.AperFunction,Conductor*%
%TO.N,Net-(F1-Pad2)*%
G36*
X102646943Y-129772907D02*
G01*
X102872453Y-129788946D01*
X102894211Y-129792427D01*
X103000307Y-129819096D01*
X103108089Y-129846188D01*
X103128924Y-129853415D01*
X103330150Y-129943641D01*
X103349404Y-129954390D01*
X103531810Y-130078314D01*
X103548891Y-130092250D01*
X103706906Y-130246090D01*
X103721297Y-130262795D01*
X103850063Y-130441821D01*
X103861324Y-130460782D01*
X103956901Y-130659510D01*
X103964684Y-130680144D01*
X104024151Y-130892505D01*
X104028216Y-130914181D01*
X104044402Y-131079174D01*
X104050286Y-131139159D01*
X104050881Y-131150180D01*
X104058537Y-131903914D01*
X104058538Y-131903942D01*
X104065000Y-132540000D01*
X104523677Y-132977097D01*
X104523679Y-132977099D01*
X104525491Y-132978825D01*
X104525498Y-132978833D01*
X107094748Y-135427202D01*
X109910000Y-138110000D01*
X110510267Y-138109993D01*
X110512678Y-138109993D01*
X111249158Y-138109984D01*
X112222266Y-138109972D01*
X113437968Y-138109957D01*
X113447859Y-138110346D01*
X113667842Y-138127669D01*
X113687384Y-138130766D01*
X113897116Y-138181153D01*
X113915932Y-138187271D01*
X114115190Y-138269869D01*
X114132817Y-138278858D01*
X114316681Y-138391627D01*
X114332682Y-138403263D01*
X114496636Y-138543432D01*
X114510620Y-138557431D01*
X114650603Y-138721531D01*
X114662221Y-138737543D01*
X114774796Y-138921545D01*
X114783762Y-138939176D01*
X114866142Y-139138528D01*
X114872239Y-139157350D01*
X114922394Y-139367131D01*
X114925470Y-139386676D01*
X114942553Y-139606696D01*
X114942930Y-139616563D01*
X114939852Y-142389271D01*
X114931270Y-150121453D01*
X114930871Y-150131332D01*
X114913348Y-150351008D01*
X114910237Y-150370521D01*
X114859749Y-150579929D01*
X114853626Y-150598716D01*
X114771018Y-150797662D01*
X114762034Y-150815257D01*
X114649337Y-150998846D01*
X114637721Y-151014810D01*
X114500721Y-151174999D01*
X114497705Y-151178525D01*
X114483724Y-151192488D01*
X114319847Y-151332289D01*
X114303856Y-151343895D01*
X114120130Y-151456363D01*
X114102523Y-151465324D01*
X113903474Y-151547684D01*
X113884685Y-151553782D01*
X113677303Y-151603508D01*
X113675205Y-151604011D01*
X113655690Y-151607097D01*
X113618429Y-151610022D01*
X113435999Y-151624346D01*
X113426119Y-151624733D01*
X113048204Y-151624681D01*
X112661038Y-151624628D01*
X111306424Y-151624443D01*
X111296525Y-151624051D01*
X111076068Y-151606621D01*
X111056487Y-151603508D01*
X110846340Y-151552876D01*
X110827488Y-151546729D01*
X110627887Y-151463757D01*
X110610234Y-151454729D01*
X110426123Y-151341473D01*
X110410109Y-151329792D01*
X110246032Y-151189043D01*
X110232055Y-151174999D01*
X110092097Y-151010263D01*
X110080488Y-150994188D01*
X109968109Y-150809539D01*
X109959165Y-150791843D01*
X109877145Y-150591852D01*
X109871088Y-150572972D01*
X109821457Y-150362587D01*
X109818437Y-150342990D01*
X109802057Y-150122462D01*
X109801712Y-150112547D01*
X109802319Y-149981260D01*
X112003244Y-149981260D01*
X112004233Y-149982581D01*
X112008813Y-149984806D01*
X112093016Y-150007368D01*
X112103811Y-150009271D01*
X112309525Y-150027269D01*
X112320475Y-150027269D01*
X112526189Y-150009271D01*
X112536984Y-150007368D01*
X112615310Y-149986381D01*
X112627351Y-149979041D01*
X112627155Y-149977404D01*
X112624297Y-149973181D01*
X112327812Y-149676696D01*
X112313868Y-149669082D01*
X112312035Y-149669213D01*
X112305420Y-149673464D01*
X112010004Y-149968880D01*
X112003244Y-149981260D01*
X109802319Y-149981260D01*
X109807846Y-148785475D01*
X111067731Y-148785475D01*
X111085729Y-148991189D01*
X111087632Y-149001984D01*
X111108619Y-149080310D01*
X111115959Y-149092351D01*
X111117596Y-149092155D01*
X111121819Y-149089297D01*
X111418304Y-148792812D01*
X111424682Y-148781132D01*
X113204082Y-148781132D01*
X113204213Y-148782965D01*
X113208464Y-148789580D01*
X113503880Y-149084996D01*
X113516260Y-149091756D01*
X113517581Y-149090767D01*
X113519806Y-149086187D01*
X113542368Y-149001984D01*
X113544271Y-148991189D01*
X113562269Y-148785475D01*
X113562269Y-148774525D01*
X113544271Y-148568811D01*
X113542368Y-148558016D01*
X113521381Y-148479690D01*
X113514041Y-148467649D01*
X113512404Y-148467845D01*
X113508181Y-148470703D01*
X113211696Y-148767188D01*
X113204082Y-148781132D01*
X111424682Y-148781132D01*
X111425918Y-148778868D01*
X111425787Y-148777035D01*
X111421536Y-148770420D01*
X111126120Y-148475004D01*
X111113740Y-148468244D01*
X111112419Y-148469233D01*
X111110194Y-148473813D01*
X111087632Y-148558016D01*
X111085729Y-148568811D01*
X111067731Y-148774525D01*
X111067731Y-148785475D01*
X109807846Y-148785475D01*
X109809260Y-148479690D01*
X109814053Y-147442824D01*
X112002390Y-147442824D01*
X112002748Y-147447841D01*
X112022175Y-147499925D01*
X112009832Y-147563968D01*
X112002438Y-147579190D01*
X112002845Y-147582596D01*
X112005703Y-147586819D01*
X112302188Y-147883304D01*
X112316132Y-147890918D01*
X112317965Y-147890787D01*
X112324580Y-147886536D01*
X112619996Y-147591120D01*
X112627610Y-147577176D01*
X112627252Y-147572159D01*
X112607825Y-147520075D01*
X112620168Y-147456032D01*
X112627562Y-147440810D01*
X112627155Y-147437404D01*
X112624297Y-147433181D01*
X112327812Y-147136696D01*
X112313868Y-147129082D01*
X112312035Y-147129213D01*
X112305420Y-147133464D01*
X112010004Y-147428880D01*
X112002390Y-147442824D01*
X109814053Y-147442824D01*
X109819588Y-146245475D01*
X111067731Y-146245475D01*
X111085729Y-146451189D01*
X111087632Y-146461984D01*
X111108619Y-146540310D01*
X111115959Y-146552351D01*
X111117596Y-146552155D01*
X111121819Y-146549297D01*
X111418304Y-146252812D01*
X111424682Y-146241132D01*
X113204082Y-146241132D01*
X113204213Y-146242965D01*
X113208464Y-146249580D01*
X113503880Y-146544996D01*
X113516260Y-146551756D01*
X113517581Y-146550767D01*
X113519806Y-146546187D01*
X113542368Y-146461984D01*
X113544271Y-146451189D01*
X113562269Y-146245475D01*
X113562269Y-146234525D01*
X113544271Y-146028811D01*
X113542368Y-146018016D01*
X113521381Y-145939690D01*
X113514041Y-145927649D01*
X113512404Y-145927845D01*
X113508181Y-145930703D01*
X113211696Y-146227188D01*
X113204082Y-146241132D01*
X111424682Y-146241132D01*
X111425918Y-146238868D01*
X111425787Y-146237035D01*
X111421536Y-146230420D01*
X111126120Y-145935004D01*
X111113740Y-145928244D01*
X111112419Y-145929233D01*
X111110194Y-145933813D01*
X111087632Y-146018016D01*
X111085729Y-146028811D01*
X111067731Y-146234525D01*
X111067731Y-146245475D01*
X109819588Y-146245475D01*
X109821786Y-145769886D01*
X109821786Y-145769882D01*
X109824724Y-145134236D01*
X109729250Y-145040959D01*
X112002649Y-145040959D01*
X112002845Y-145042596D01*
X112005703Y-145046819D01*
X112302188Y-145343304D01*
X112316132Y-145350918D01*
X112317965Y-145350787D01*
X112324580Y-145346536D01*
X112619996Y-145051120D01*
X112626756Y-145038740D01*
X112625767Y-145037419D01*
X112621187Y-145035194D01*
X112536984Y-145012632D01*
X112526189Y-145010729D01*
X112320475Y-144992731D01*
X112309525Y-144992731D01*
X112103811Y-145010729D01*
X112093016Y-145012632D01*
X112014690Y-145033619D01*
X112002649Y-145040959D01*
X109729250Y-145040959D01*
X109368258Y-144688272D01*
X109368247Y-144688261D01*
X106986444Y-142361260D01*
X112003244Y-142361260D01*
X112004233Y-142362581D01*
X112008813Y-142364806D01*
X112093016Y-142387368D01*
X112103811Y-142389271D01*
X112309525Y-142407269D01*
X112320475Y-142407269D01*
X112526189Y-142389271D01*
X112536984Y-142387368D01*
X112615310Y-142366381D01*
X112627351Y-142359041D01*
X112627155Y-142357404D01*
X112624297Y-142353181D01*
X112327812Y-142056696D01*
X112313868Y-142049082D01*
X112312035Y-142049213D01*
X112305420Y-142053464D01*
X112010004Y-142348880D01*
X112003244Y-142361260D01*
X106986444Y-142361260D01*
X105984105Y-141381984D01*
X105762497Y-141165475D01*
X111067731Y-141165475D01*
X111085729Y-141371189D01*
X111087632Y-141381984D01*
X111108619Y-141460310D01*
X111115959Y-141472351D01*
X111117596Y-141472155D01*
X111121819Y-141469297D01*
X111418304Y-141172812D01*
X111424682Y-141161132D01*
X113204082Y-141161132D01*
X113204213Y-141162965D01*
X113208464Y-141169580D01*
X113503880Y-141464996D01*
X113516260Y-141471756D01*
X113517581Y-141470767D01*
X113519806Y-141466187D01*
X113542368Y-141381984D01*
X113544271Y-141371189D01*
X113562269Y-141165475D01*
X113562269Y-141154525D01*
X113544271Y-140948811D01*
X113542368Y-140938016D01*
X113521381Y-140859690D01*
X113514041Y-140847649D01*
X113512404Y-140847845D01*
X113508181Y-140850703D01*
X113211696Y-141147188D01*
X113204082Y-141161132D01*
X111424682Y-141161132D01*
X111425918Y-141158868D01*
X111425787Y-141157035D01*
X111421536Y-141150420D01*
X111126120Y-140855004D01*
X111113740Y-140848244D01*
X111112419Y-140849233D01*
X111110194Y-140853813D01*
X111087632Y-140938016D01*
X111085729Y-140948811D01*
X111067731Y-141154525D01*
X111067731Y-141165475D01*
X105762497Y-141165475D01*
X105240000Y-140655000D01*
X104509123Y-139960959D01*
X112002649Y-139960959D01*
X112002845Y-139962596D01*
X112005703Y-139966819D01*
X112302188Y-140263304D01*
X112316132Y-140270918D01*
X112317965Y-140270787D01*
X112324580Y-140266536D01*
X112619996Y-139971120D01*
X112626756Y-139958740D01*
X112625767Y-139957419D01*
X112621187Y-139955194D01*
X112536984Y-139932632D01*
X112526189Y-139930729D01*
X112320475Y-139912731D01*
X112309525Y-139912731D01*
X112103811Y-139930729D01*
X112093016Y-139932632D01*
X112014690Y-139953619D01*
X112002649Y-139960959D01*
X104509123Y-139960959D01*
X102579352Y-138128448D01*
X99734737Y-135427202D01*
X99699113Y-135365790D01*
X99695500Y-135335834D01*
X99695500Y-133162625D01*
X101170878Y-133162625D01*
X101171867Y-133163946D01*
X101176447Y-133166171D01*
X101329364Y-133207145D01*
X101340159Y-133209048D01*
X101564525Y-133228678D01*
X101575475Y-133228678D01*
X101799841Y-133209048D01*
X101810636Y-133207145D01*
X101957676Y-133167746D01*
X101969717Y-133160406D01*
X101969521Y-133158769D01*
X101966663Y-133154546D01*
X101582812Y-132770695D01*
X101568868Y-132763081D01*
X101567035Y-132763212D01*
X101560420Y-132767463D01*
X101177638Y-133150245D01*
X101170878Y-133162625D01*
X99695500Y-133162625D01*
X99695500Y-131879475D01*
X100215322Y-131879475D01*
X100234952Y-132103841D01*
X100236855Y-132114636D01*
X100276254Y-132261676D01*
X100283594Y-132273717D01*
X100285231Y-132273521D01*
X100289454Y-132270663D01*
X100673305Y-131886812D01*
X100679683Y-131875132D01*
X102459081Y-131875132D01*
X102459212Y-131876965D01*
X102463463Y-131883580D01*
X102846245Y-132266362D01*
X102858625Y-132273122D01*
X102859946Y-132272133D01*
X102862171Y-132267553D01*
X102903145Y-132114636D01*
X102905048Y-132103841D01*
X102924678Y-131879475D01*
X102924678Y-131868525D01*
X102905048Y-131644159D01*
X102903145Y-131633364D01*
X102863746Y-131486324D01*
X102856406Y-131474283D01*
X102854769Y-131474479D01*
X102850546Y-131477337D01*
X102466695Y-131861188D01*
X102459081Y-131875132D01*
X100679683Y-131875132D01*
X100680919Y-131872868D01*
X100680788Y-131871035D01*
X100676537Y-131864420D01*
X100293755Y-131481638D01*
X100281375Y-131474878D01*
X100280054Y-131475867D01*
X100277829Y-131480447D01*
X100236855Y-131633364D01*
X100234952Y-131644159D01*
X100215322Y-131868525D01*
X100215322Y-131879475D01*
X99695500Y-131879475D01*
X99695500Y-130587594D01*
X101170283Y-130587594D01*
X101170479Y-130589231D01*
X101173337Y-130593454D01*
X101557188Y-130977305D01*
X101571132Y-130984919D01*
X101572965Y-130984788D01*
X101579580Y-130980537D01*
X101962362Y-130597755D01*
X101969122Y-130585375D01*
X101968133Y-130584054D01*
X101963553Y-130581829D01*
X101810636Y-130540855D01*
X101799841Y-130538952D01*
X101575475Y-130519322D01*
X101564525Y-130519322D01*
X101340159Y-130538952D01*
X101329364Y-130540855D01*
X101182324Y-130580254D01*
X101170283Y-130587594D01*
X99695500Y-130587594D01*
X99695500Y-130106810D01*
X99715502Y-130038689D01*
X99754429Y-130000145D01*
X99777301Y-129985763D01*
X99794641Y-129976658D01*
X99990866Y-129892378D01*
X100009409Y-129886071D01*
X100216318Y-129833226D01*
X100235617Y-129829868D01*
X100242180Y-129829246D01*
X100453132Y-129809266D01*
X100462894Y-129808724D01*
X101942267Y-129784136D01*
X102260382Y-129778849D01*
X102635922Y-129772607D01*
X102646943Y-129772907D01*
G37*
%TD.AperFunction*%
%TD*%
%TA.AperFunction,Conductor*%
%TO.N,Net-(D4-Pad2)*%
G36*
X77974220Y-41431149D02*
G01*
X78920662Y-41434677D01*
X78930787Y-41435123D01*
X79001826Y-41441120D01*
X79155960Y-41454132D01*
X79175947Y-41457454D01*
X79326832Y-41495210D01*
X79390230Y-41511075D01*
X79409421Y-41517555D01*
X79552638Y-41579154D01*
X79612345Y-41604835D01*
X79630247Y-41614307D01*
X79820857Y-41735723D01*
X79829155Y-41741490D01*
X79937602Y-41823533D01*
X81995000Y-43380000D01*
X84620000Y-44780000D01*
X84997614Y-44778761D01*
X92868835Y-44752934D01*
X104430000Y-44715000D01*
X104430349Y-44714999D01*
X104430355Y-44714999D01*
X104545274Y-44714670D01*
X106402351Y-44709348D01*
X106412284Y-44709712D01*
X106633329Y-44726566D01*
X106652967Y-44729635D01*
X106822647Y-44770084D01*
X106863765Y-44779886D01*
X106882676Y-44786006D01*
X107082941Y-44868780D01*
X107100655Y-44877798D01*
X107285407Y-44991035D01*
X107301482Y-45002727D01*
X107466132Y-45143615D01*
X107480168Y-45157689D01*
X107620612Y-45322716D01*
X107632261Y-45338823D01*
X107745001Y-45523881D01*
X107753970Y-45541617D01*
X107836206Y-45742104D01*
X107842274Y-45761027D01*
X107891957Y-45971956D01*
X107894974Y-45991603D01*
X107911233Y-46212700D01*
X107911570Y-46222641D01*
X107862516Y-55054463D01*
X107800000Y-66310000D01*
X109310388Y-66307958D01*
X109310394Y-66307958D01*
X109312863Y-66307955D01*
X109312872Y-66307955D01*
X110955835Y-66305733D01*
X111423877Y-66305100D01*
X111961473Y-66304373D01*
X113699616Y-66302022D01*
X113709462Y-66302394D01*
X113928431Y-66319259D01*
X113947886Y-66322301D01*
X114156740Y-66371933D01*
X114175476Y-66377965D01*
X114374067Y-66459540D01*
X114391628Y-66468416D01*
X114575066Y-66579924D01*
X114591042Y-66591436D01*
X114754869Y-66730164D01*
X114768854Y-66744023D01*
X114909065Y-66906582D01*
X114920716Y-66922444D01*
X115029234Y-67097361D01*
X115033891Y-67104868D01*
X115042933Y-67122361D01*
X115126302Y-67320188D01*
X115132507Y-67338876D01*
X115184033Y-67547263D01*
X115187252Y-67566690D01*
X115206106Y-67785504D01*
X115206567Y-67795346D01*
X115238268Y-71893416D01*
X115237953Y-71903353D01*
X115222191Y-72124395D01*
X115219220Y-72144035D01*
X115170042Y-72354978D01*
X115164019Y-72373912D01*
X115082287Y-72574513D01*
X115073363Y-72592265D01*
X114961119Y-72777514D01*
X114949515Y-72793642D01*
X114809549Y-72958940D01*
X114795555Y-72973043D01*
X114631332Y-73114296D01*
X114615297Y-73126022D01*
X114430915Y-73239699D01*
X114413241Y-73248756D01*
X114213281Y-73332036D01*
X114194399Y-73338203D01*
X114130326Y-73353664D01*
X113983840Y-73389012D01*
X113964218Y-73392136D01*
X113743308Y-73409608D01*
X113733374Y-73410000D01*
X105420000Y-73410000D01*
X87110000Y-73425000D01*
X86105000Y-74285000D01*
X86107080Y-74946364D01*
X86107511Y-75083329D01*
X86115272Y-77551513D01*
X86114916Y-77561393D01*
X86098327Y-77781154D01*
X86095299Y-77800681D01*
X86045702Y-78010303D01*
X86039659Y-78029115D01*
X85957900Y-78228406D01*
X85948989Y-78246043D01*
X85837075Y-78430107D01*
X85825518Y-78446133D01*
X85686212Y-78610429D01*
X85672291Y-78624452D01*
X85509005Y-78764954D01*
X85493062Y-78776628D01*
X85309824Y-78889871D01*
X85292253Y-78898909D01*
X85093561Y-78982114D01*
X85074793Y-78988294D01*
X84865530Y-79039415D01*
X84846026Y-79042584D01*
X84626413Y-79060768D01*
X84616535Y-79061197D01*
X83562693Y-79065541D01*
X82153481Y-79071349D01*
X81304486Y-79074849D01*
X81281265Y-79072787D01*
X81278072Y-79072202D01*
X81277462Y-79071884D01*
X81285000Y-79070000D01*
X81273843Y-79070000D01*
X81212259Y-79037931D01*
X78478246Y-76338772D01*
X83049898Y-76338772D01*
X83053258Y-76347208D01*
X83106634Y-76422734D01*
X83114112Y-76431489D01*
X83250642Y-76564490D01*
X83259586Y-76571733D01*
X83309937Y-76605376D01*
X83323142Y-76609511D01*
X83324686Y-76602709D01*
X84575000Y-76602709D01*
X84578973Y-76616240D01*
X84580485Y-76616457D01*
X84726712Y-76494841D01*
X84734841Y-76486712D01*
X84853527Y-76344007D01*
X84855117Y-76337059D01*
X84853461Y-76335791D01*
X84849207Y-76335000D01*
X84593115Y-76335000D01*
X84577876Y-76339475D01*
X84576671Y-76340865D01*
X84575000Y-76348548D01*
X84575000Y-76602709D01*
X83324686Y-76602709D01*
X83325000Y-76601324D01*
X83325000Y-76353115D01*
X83320525Y-76337876D01*
X83319135Y-76336671D01*
X83311452Y-76335000D01*
X83062745Y-76335000D01*
X83049898Y-76338772D01*
X78478246Y-76338772D01*
X78474425Y-76335000D01*
X77205552Y-75082303D01*
X83048486Y-75082303D01*
X83058528Y-75085000D01*
X83306885Y-75085000D01*
X83322124Y-75080525D01*
X83323329Y-75079135D01*
X83325000Y-75071452D01*
X83325000Y-75066885D01*
X84575000Y-75066885D01*
X84579475Y-75082124D01*
X84580865Y-75083329D01*
X84588548Y-75085000D01*
X84838122Y-75085000D01*
X84850517Y-75081360D01*
X84846791Y-75072350D01*
X84774419Y-74975433D01*
X84766717Y-74966879D01*
X84626751Y-74837495D01*
X84617618Y-74830488D01*
X84590323Y-74813266D01*
X84576758Y-74809405D01*
X84576538Y-74809663D01*
X84575000Y-74816879D01*
X84575000Y-75066885D01*
X83325000Y-75066885D01*
X83325000Y-74819906D01*
X83321027Y-74806375D01*
X83319826Y-74806203D01*
X83314303Y-74808155D01*
X83305633Y-74813313D01*
X83296318Y-74820081D01*
X83153015Y-74945755D01*
X83145094Y-74954103D01*
X83053118Y-75070772D01*
X83048486Y-75082303D01*
X77205552Y-75082303D01*
X75969232Y-73861744D01*
X75962405Y-73854448D01*
X75816814Y-73685914D01*
X75804999Y-73669817D01*
X75779604Y-73628752D01*
X75690501Y-73484668D01*
X75681381Y-73466913D01*
X75663708Y-73424545D01*
X75639477Y-73366459D01*
X75597573Y-73266005D01*
X75591370Y-73247024D01*
X75540355Y-73035401D01*
X75537228Y-73015680D01*
X75519894Y-72793651D01*
X75519512Y-72783666D01*
X75520091Y-72373912D01*
X75521207Y-71583399D01*
X110891104Y-71583399D01*
X110894386Y-71587784D01*
X111136412Y-71690269D01*
X111144805Y-71693143D01*
X111409983Y-71763454D01*
X111418695Y-71765116D01*
X111691130Y-71797360D01*
X111699995Y-71797778D01*
X111974238Y-71791315D01*
X111983098Y-71790478D01*
X112253681Y-71745441D01*
X112262338Y-71743362D01*
X112523881Y-71660647D01*
X112532145Y-71657375D01*
X112675487Y-71588544D01*
X112685965Y-71579105D01*
X112684010Y-71572894D01*
X111802811Y-70691694D01*
X111788868Y-70684081D01*
X111787034Y-70684212D01*
X111780420Y-70688463D01*
X110897864Y-71571019D01*
X110891104Y-71583399D01*
X75521207Y-71583399D01*
X75523814Y-69736470D01*
X109786055Y-69736470D01*
X109796825Y-70010580D01*
X109797800Y-70019409D01*
X109847085Y-70289270D01*
X109849294Y-70297873D01*
X109936110Y-70558093D01*
X109939514Y-70566311D01*
X109996485Y-70680329D01*
X110006086Y-70690656D01*
X110012633Y-70688483D01*
X110893306Y-69807811D01*
X110899683Y-69796132D01*
X112679081Y-69796132D01*
X112679212Y-69797966D01*
X112683463Y-69804580D01*
X113564593Y-70685709D01*
X113576968Y-70692466D01*
X113581613Y-70688989D01*
X113674763Y-70478288D01*
X113677779Y-70469913D01*
X113752239Y-70205896D01*
X113754040Y-70197202D01*
X113790725Y-69924084D01*
X113791253Y-69917691D01*
X113795008Y-69798222D01*
X113794881Y-69791779D01*
X113775420Y-69516930D01*
X113774167Y-69508120D01*
X113716430Y-69239939D01*
X113713954Y-69231418D01*
X113619006Y-68974052D01*
X113615345Y-68965943D01*
X113584554Y-68908878D01*
X113574632Y-68898855D01*
X113567357Y-68901527D01*
X112686694Y-69782189D01*
X112679081Y-69796132D01*
X110899683Y-69796132D01*
X110900919Y-69793868D01*
X110900788Y-69792034D01*
X110896537Y-69785420D01*
X110014890Y-68903774D01*
X110002515Y-68897017D01*
X109995531Y-68902245D01*
X109991591Y-68909027D01*
X109987687Y-68916997D01*
X109884699Y-69171261D01*
X109881955Y-69179705D01*
X109815821Y-69445942D01*
X109814294Y-69454693D01*
X109786334Y-69727586D01*
X109786055Y-69736470D01*
X75523814Y-69736470D01*
X75526250Y-68010910D01*
X110894282Y-68010910D01*
X110896694Y-68017810D01*
X111777189Y-68898306D01*
X111791132Y-68905919D01*
X111792966Y-68905788D01*
X111799580Y-68901537D01*
X112680066Y-68021050D01*
X112686823Y-68008675D01*
X112681897Y-68002095D01*
X112647623Y-67982901D01*
X112639581Y-67979116D01*
X112383726Y-67880134D01*
X112375253Y-67877527D01*
X112108006Y-67815583D01*
X112099229Y-67814193D01*
X111825927Y-67790522D01*
X111817056Y-67790382D01*
X111543136Y-67805457D01*
X111534326Y-67806571D01*
X111265270Y-67860089D01*
X111256712Y-67862430D01*
X110997865Y-67953331D01*
X110989731Y-67956851D01*
X110904459Y-68001147D01*
X110894282Y-68010910D01*
X75526250Y-68010910D01*
X75541667Y-57090000D01*
X92859778Y-57090000D01*
X92878644Y-57377839D01*
X92934919Y-57660753D01*
X93027641Y-57933902D01*
X93155222Y-58192611D01*
X93315480Y-58432454D01*
X93318194Y-58435548D01*
X93318198Y-58435554D01*
X93501288Y-58644327D01*
X93505673Y-58649327D01*
X93508762Y-58652036D01*
X93719446Y-58836802D01*
X93719452Y-58836806D01*
X93722546Y-58839520D01*
X93725972Y-58841809D01*
X93725977Y-58841813D01*
X93905567Y-58961811D01*
X93962389Y-58999778D01*
X93966088Y-59001602D01*
X93966093Y-59001605D01*
X94210959Y-59122359D01*
X94221098Y-59127359D01*
X94224996Y-59128682D01*
X94224998Y-59128683D01*
X94490337Y-59218754D01*
X94490341Y-59218755D01*
X94494247Y-59220081D01*
X94498291Y-59220885D01*
X94498297Y-59220887D01*
X94773118Y-59275552D01*
X94773121Y-59275552D01*
X94777161Y-59276356D01*
X94781272Y-59276625D01*
X94781276Y-59276626D01*
X95060881Y-59294952D01*
X95065000Y-59295222D01*
X95069119Y-59294952D01*
X95348724Y-59276626D01*
X95348728Y-59276625D01*
X95352839Y-59276356D01*
X95356879Y-59275552D01*
X95356882Y-59275552D01*
X95631703Y-59220887D01*
X95631709Y-59220885D01*
X95635753Y-59220081D01*
X95639659Y-59218755D01*
X95639663Y-59218754D01*
X95905002Y-59128683D01*
X95905004Y-59128682D01*
X95908902Y-59127359D01*
X95919041Y-59122359D01*
X96163907Y-59001605D01*
X96163912Y-59001602D01*
X96167611Y-58999778D01*
X96224433Y-58961811D01*
X96404023Y-58841813D01*
X96404028Y-58841809D01*
X96407454Y-58839520D01*
X96410548Y-58836806D01*
X96410554Y-58836802D01*
X96621238Y-58652036D01*
X96624327Y-58649327D01*
X96628712Y-58644327D01*
X96811802Y-58435554D01*
X96811806Y-58435548D01*
X96814520Y-58432454D01*
X96974778Y-58192611D01*
X97102359Y-57933902D01*
X97195081Y-57660753D01*
X97251356Y-57377839D01*
X97270222Y-57090000D01*
X97251356Y-56802161D01*
X97250552Y-56798118D01*
X97195887Y-56523297D01*
X97195885Y-56523291D01*
X97195081Y-56519247D01*
X97102359Y-56246098D01*
X96974778Y-55987389D01*
X96814520Y-55747546D01*
X96811806Y-55744452D01*
X96811802Y-55744446D01*
X96627036Y-55533762D01*
X96624327Y-55530673D01*
X96618626Y-55525673D01*
X96410554Y-55343198D01*
X96410548Y-55343194D01*
X96407454Y-55340480D01*
X96404028Y-55338191D01*
X96404023Y-55338187D01*
X96171044Y-55182516D01*
X96167611Y-55180222D01*
X96163912Y-55178398D01*
X96163907Y-55178395D01*
X95912597Y-55054463D01*
X95912595Y-55054462D01*
X95908902Y-55052641D01*
X95894173Y-55047641D01*
X95639663Y-54961246D01*
X95639659Y-54961245D01*
X95635753Y-54959919D01*
X95631709Y-54959115D01*
X95631703Y-54959113D01*
X95356882Y-54904448D01*
X95356879Y-54904448D01*
X95352839Y-54903644D01*
X95348728Y-54903375D01*
X95348724Y-54903374D01*
X95069119Y-54885048D01*
X95065000Y-54884778D01*
X95060881Y-54885048D01*
X94781276Y-54903374D01*
X94781272Y-54903375D01*
X94777161Y-54903644D01*
X94773121Y-54904448D01*
X94773118Y-54904448D01*
X94498297Y-54959113D01*
X94498291Y-54959115D01*
X94494247Y-54959919D01*
X94490341Y-54961245D01*
X94490337Y-54961246D01*
X94235827Y-55047641D01*
X94221098Y-55052641D01*
X94217405Y-55054462D01*
X94217403Y-55054463D01*
X93966093Y-55178395D01*
X93966088Y-55178398D01*
X93962389Y-55180222D01*
X93958956Y-55182516D01*
X93725977Y-55338187D01*
X93725972Y-55338191D01*
X93722546Y-55340480D01*
X93719452Y-55343194D01*
X93719446Y-55343198D01*
X93511374Y-55525673D01*
X93505673Y-55530673D01*
X93502964Y-55533762D01*
X93318198Y-55744446D01*
X93318194Y-55744452D01*
X93315480Y-55747546D01*
X93155222Y-55987389D01*
X93027641Y-56246098D01*
X92934919Y-56519247D01*
X92934115Y-56523291D01*
X92934113Y-56523297D01*
X92879448Y-56798118D01*
X92878644Y-56802161D01*
X92859778Y-57090000D01*
X75541667Y-57090000D01*
X75544814Y-54860968D01*
X75544891Y-54856738D01*
X75548194Y-54762400D01*
X75548774Y-54753958D01*
X75558399Y-54660078D01*
X75558901Y-54655876D01*
X75586056Y-54457087D01*
X75586059Y-54457062D01*
X75586199Y-54456037D01*
X75586200Y-54456023D01*
X75600000Y-54355000D01*
X75600000Y-53310000D01*
X75590590Y-52768943D01*
X75590574Y-52767588D01*
X75590378Y-52736366D01*
X75590392Y-52733580D01*
X75590885Y-52702449D01*
X75590915Y-52701050D01*
X75688626Y-49075261D01*
X75688694Y-49072737D01*
X75717909Y-47988654D01*
X98700001Y-47988654D01*
X98701209Y-48000923D01*
X98703381Y-48011843D01*
X98712698Y-48034339D01*
X98721011Y-48046780D01*
X98738220Y-48063989D01*
X98750663Y-48072303D01*
X98773154Y-48081619D01*
X98784083Y-48083793D01*
X98796338Y-48085000D01*
X99156885Y-48085000D01*
X99172124Y-48080525D01*
X99173329Y-48079135D01*
X99175000Y-48071452D01*
X99175000Y-48066884D01*
X100425000Y-48066884D01*
X100429475Y-48082123D01*
X100430865Y-48083328D01*
X100438548Y-48084999D01*
X100803654Y-48084999D01*
X100815923Y-48083791D01*
X100826843Y-48081619D01*
X100849339Y-48072302D01*
X100861780Y-48063989D01*
X100878989Y-48046780D01*
X100887303Y-48034337D01*
X100896619Y-48011846D01*
X100898793Y-48000917D01*
X100900000Y-47988662D01*
X100900000Y-47628115D01*
X100895525Y-47612876D01*
X100894135Y-47611671D01*
X100886452Y-47610000D01*
X100443115Y-47610000D01*
X100427876Y-47614475D01*
X100426671Y-47615865D01*
X100425000Y-47623548D01*
X100425000Y-48066884D01*
X99175000Y-48066884D01*
X99175000Y-47628115D01*
X99170525Y-47612876D01*
X99169135Y-47611671D01*
X99161452Y-47610000D01*
X98718116Y-47610000D01*
X98702877Y-47614475D01*
X98701672Y-47615865D01*
X98700001Y-47623548D01*
X98700001Y-47988654D01*
X75717909Y-47988654D01*
X75728012Y-47613772D01*
X89369898Y-47613772D01*
X89373258Y-47622208D01*
X89426634Y-47697734D01*
X89434112Y-47706489D01*
X89570642Y-47839490D01*
X89579586Y-47846733D01*
X89629937Y-47880376D01*
X89643142Y-47884511D01*
X89644686Y-47877709D01*
X90895000Y-47877709D01*
X90898973Y-47891240D01*
X90900485Y-47891457D01*
X91046712Y-47769841D01*
X91054841Y-47761712D01*
X91173527Y-47619007D01*
X91175117Y-47612059D01*
X91173461Y-47610791D01*
X91169207Y-47610000D01*
X90913115Y-47610000D01*
X90897876Y-47614475D01*
X90896671Y-47615865D01*
X90895000Y-47623548D01*
X90895000Y-47877709D01*
X89644686Y-47877709D01*
X89645000Y-47876324D01*
X89645000Y-47628115D01*
X89640525Y-47612876D01*
X89639135Y-47611671D01*
X89631452Y-47610000D01*
X89382745Y-47610000D01*
X89369898Y-47613772D01*
X75728012Y-47613772D01*
X75730000Y-47540000D01*
X74196731Y-47532346D01*
X74196726Y-47532346D01*
X74194213Y-47532333D01*
X74194203Y-47532333D01*
X67713794Y-47499986D01*
X66715000Y-47495000D01*
X66300469Y-47497899D01*
X61751549Y-47529709D01*
X61740723Y-47529319D01*
X61500084Y-47510267D01*
X61478734Y-47506712D01*
X61250168Y-47448106D01*
X61229740Y-47440948D01*
X61014590Y-47344091D01*
X60995689Y-47333544D01*
X60800278Y-47201286D01*
X60783461Y-47187659D01*
X60613571Y-47023907D01*
X60599347Y-47007617D01*
X60459988Y-46817203D01*
X60448752Y-46798703D01*
X60348586Y-46596431D01*
X60335500Y-46540516D01*
X60335500Y-46357303D01*
X89368486Y-46357303D01*
X89378528Y-46360000D01*
X89626885Y-46360000D01*
X89642124Y-46355525D01*
X89643329Y-46354135D01*
X89645000Y-46346452D01*
X89645000Y-46341885D01*
X90895000Y-46341885D01*
X90899475Y-46357124D01*
X90900865Y-46358329D01*
X90908548Y-46360000D01*
X91158122Y-46360000D01*
X91170517Y-46356360D01*
X91166791Y-46347350D01*
X91162710Y-46341885D01*
X98700000Y-46341885D01*
X98704475Y-46357124D01*
X98705865Y-46358329D01*
X98713548Y-46360000D01*
X99156885Y-46360000D01*
X99172124Y-46355525D01*
X99173329Y-46354135D01*
X99175000Y-46346452D01*
X99175000Y-46341885D01*
X100425000Y-46341885D01*
X100429475Y-46357124D01*
X100430865Y-46358329D01*
X100438548Y-46360000D01*
X100881884Y-46360000D01*
X100897123Y-46355525D01*
X100898328Y-46354135D01*
X100899999Y-46346452D01*
X100899999Y-45981346D01*
X100898791Y-45969077D01*
X100896619Y-45958157D01*
X100887302Y-45935661D01*
X100878989Y-45923220D01*
X100861780Y-45906011D01*
X100849337Y-45897697D01*
X100826846Y-45888381D01*
X100815917Y-45886207D01*
X100803662Y-45885000D01*
X100443115Y-45885000D01*
X100427876Y-45889475D01*
X100426671Y-45890865D01*
X100425000Y-45898548D01*
X100425000Y-46341885D01*
X99175000Y-46341885D01*
X99175000Y-45903116D01*
X99170525Y-45887877D01*
X99169135Y-45886672D01*
X99161452Y-45885001D01*
X98796346Y-45885001D01*
X98784077Y-45886209D01*
X98773157Y-45888381D01*
X98750661Y-45897698D01*
X98738220Y-45906011D01*
X98721011Y-45923220D01*
X98712697Y-45935663D01*
X98703381Y-45958154D01*
X98701207Y-45969083D01*
X98700000Y-45981338D01*
X98700000Y-46341885D01*
X91162710Y-46341885D01*
X91094419Y-46250433D01*
X91086717Y-46241879D01*
X90946751Y-46112495D01*
X90937618Y-46105488D01*
X90910323Y-46088266D01*
X90896758Y-46084405D01*
X90896538Y-46084663D01*
X90895000Y-46091879D01*
X90895000Y-46341885D01*
X89645000Y-46341885D01*
X89645000Y-46094906D01*
X89641027Y-46081375D01*
X89639826Y-46081203D01*
X89634303Y-46083155D01*
X89625633Y-46088313D01*
X89616318Y-46095081D01*
X89473015Y-46220755D01*
X89465094Y-46229103D01*
X89373118Y-46345772D01*
X89368486Y-46357303D01*
X60335500Y-46357303D01*
X60335500Y-45013450D01*
X61330823Y-45013450D01*
X61349073Y-45052589D01*
X61354557Y-45062086D01*
X61483731Y-45246567D01*
X61490787Y-45254975D01*
X61650025Y-45414213D01*
X61658433Y-45421269D01*
X61842913Y-45550443D01*
X61852409Y-45555926D01*
X62056527Y-45651108D01*
X62066819Y-45654854D01*
X62284364Y-45713145D01*
X62295159Y-45715048D01*
X62463331Y-45729762D01*
X62468795Y-45730000D01*
X62881885Y-45730000D01*
X62897124Y-45725525D01*
X62898329Y-45724135D01*
X62900000Y-45716452D01*
X62900000Y-45711885D01*
X64150000Y-45711885D01*
X64154475Y-45727124D01*
X64155865Y-45728329D01*
X64163548Y-45730000D01*
X64581205Y-45730000D01*
X64586669Y-45729762D01*
X64754841Y-45715048D01*
X64765636Y-45713145D01*
X64983181Y-45654854D01*
X64993473Y-45651108D01*
X65197591Y-45555926D01*
X65207087Y-45550443D01*
X65391567Y-45421269D01*
X65399975Y-45414213D01*
X65559213Y-45254975D01*
X65566269Y-45246567D01*
X65695443Y-45062087D01*
X65700926Y-45052592D01*
X65715463Y-45021417D01*
X65717580Y-45007477D01*
X65713792Y-45005000D01*
X64168115Y-45005000D01*
X64152876Y-45009475D01*
X64151672Y-45010864D01*
X64150000Y-45018548D01*
X64150000Y-45711885D01*
X62900000Y-45711885D01*
X62900000Y-45023115D01*
X62895525Y-45007876D01*
X62894135Y-45006671D01*
X62886452Y-45005000D01*
X61344997Y-45005000D01*
X61331466Y-45008973D01*
X61330823Y-45013450D01*
X60335500Y-45013450D01*
X60335500Y-44983450D01*
X69240823Y-44983450D01*
X69259073Y-45022589D01*
X69264557Y-45032086D01*
X69393731Y-45216567D01*
X69400787Y-45224975D01*
X69560025Y-45384213D01*
X69568433Y-45391269D01*
X69752913Y-45520443D01*
X69762409Y-45525926D01*
X69966527Y-45621108D01*
X69976819Y-45624854D01*
X70194364Y-45683145D01*
X70205159Y-45685048D01*
X70373331Y-45699762D01*
X70378795Y-45700000D01*
X70791885Y-45700000D01*
X70807124Y-45695525D01*
X70808329Y-45694135D01*
X70810000Y-45686452D01*
X70810000Y-45681885D01*
X72060000Y-45681885D01*
X72064475Y-45697124D01*
X72065865Y-45698329D01*
X72073548Y-45700000D01*
X72491205Y-45700000D01*
X72496669Y-45699762D01*
X72664841Y-45685048D01*
X72675636Y-45683145D01*
X72893181Y-45624854D01*
X72903473Y-45621108D01*
X73107591Y-45525926D01*
X73117087Y-45520443D01*
X73301567Y-45391269D01*
X73309975Y-45384213D01*
X73469213Y-45224975D01*
X73476269Y-45216567D01*
X73605443Y-45032087D01*
X73610926Y-45022592D01*
X73625463Y-44991417D01*
X73627580Y-44977477D01*
X73623792Y-44975000D01*
X72078115Y-44975000D01*
X72062876Y-44979475D01*
X72061671Y-44980865D01*
X72060000Y-44988548D01*
X72060000Y-45681885D01*
X70810000Y-45681885D01*
X70810000Y-44993115D01*
X70805525Y-44977876D01*
X70804135Y-44976671D01*
X70796452Y-44975000D01*
X69254997Y-44975000D01*
X69241466Y-44978973D01*
X69240823Y-44983450D01*
X60335500Y-44983450D01*
X60335500Y-43752523D01*
X61332420Y-43752523D01*
X61336208Y-43755000D01*
X62881885Y-43755000D01*
X62897124Y-43750525D01*
X62898329Y-43749135D01*
X62900000Y-43741452D01*
X62900000Y-43736885D01*
X64150000Y-43736885D01*
X64154475Y-43752124D01*
X64155865Y-43753329D01*
X64163548Y-43755000D01*
X65705003Y-43755000D01*
X65718534Y-43751027D01*
X65719177Y-43746550D01*
X65707974Y-43722523D01*
X69242420Y-43722523D01*
X69246208Y-43725000D01*
X70791885Y-43725000D01*
X70807124Y-43720525D01*
X70808329Y-43719135D01*
X70810000Y-43711452D01*
X70810000Y-43706885D01*
X72060000Y-43706885D01*
X72064475Y-43722124D01*
X72065865Y-43723329D01*
X72073548Y-43725000D01*
X73615003Y-43725000D01*
X73628534Y-43721027D01*
X73629177Y-43716550D01*
X73610927Y-43677411D01*
X73605443Y-43667914D01*
X73476269Y-43483433D01*
X73469213Y-43475025D01*
X73309975Y-43315787D01*
X73301567Y-43308731D01*
X73117087Y-43179557D01*
X73107591Y-43174074D01*
X72903473Y-43078892D01*
X72893181Y-43075146D01*
X72675636Y-43016855D01*
X72664841Y-43014952D01*
X72496669Y-43000238D01*
X72491205Y-43000000D01*
X72078115Y-43000000D01*
X72062876Y-43004475D01*
X72061671Y-43005865D01*
X72060000Y-43013548D01*
X72060000Y-43706885D01*
X70810000Y-43706885D01*
X70810000Y-43018115D01*
X70805525Y-43002876D01*
X70804135Y-43001671D01*
X70796452Y-43000000D01*
X70378795Y-43000000D01*
X70373331Y-43000238D01*
X70205159Y-43014952D01*
X70194364Y-43016855D01*
X69976819Y-43075146D01*
X69966527Y-43078892D01*
X69762409Y-43174074D01*
X69752913Y-43179557D01*
X69568433Y-43308731D01*
X69560025Y-43315787D01*
X69400787Y-43475025D01*
X69393731Y-43483433D01*
X69264557Y-43667913D01*
X69259074Y-43677408D01*
X69244537Y-43708583D01*
X69242420Y-43722523D01*
X65707974Y-43722523D01*
X65700927Y-43707411D01*
X65695443Y-43697914D01*
X65566269Y-43513433D01*
X65559213Y-43505025D01*
X65399975Y-43345787D01*
X65391567Y-43338731D01*
X65207087Y-43209557D01*
X65197591Y-43204074D01*
X64993473Y-43108892D01*
X64983181Y-43105146D01*
X64765636Y-43046855D01*
X64754841Y-43044952D01*
X64586669Y-43030238D01*
X64581205Y-43030000D01*
X64168115Y-43030000D01*
X64152876Y-43034475D01*
X64151671Y-43035865D01*
X64150000Y-43043548D01*
X64150000Y-43736885D01*
X62900000Y-43736885D01*
X62900000Y-43048115D01*
X62895525Y-43032876D01*
X62894135Y-43031671D01*
X62886452Y-43030000D01*
X62468795Y-43030000D01*
X62463331Y-43030238D01*
X62295159Y-43044952D01*
X62284364Y-43046855D01*
X62066819Y-43105146D01*
X62056527Y-43108892D01*
X61852409Y-43204074D01*
X61842913Y-43209557D01*
X61658433Y-43338731D01*
X61650025Y-43345787D01*
X61490787Y-43505025D01*
X61483731Y-43513433D01*
X61354557Y-43697913D01*
X61349074Y-43707408D01*
X61334537Y-43738583D01*
X61332420Y-43752523D01*
X60335500Y-43752523D01*
X60335500Y-42808793D01*
X60355502Y-42740672D01*
X60372405Y-42719698D01*
X61684441Y-41407662D01*
X61746753Y-41373636D01*
X61774006Y-41370758D01*
X77974220Y-41431149D01*
G37*
%TD.AperFunction*%
%TD*%
%TA.AperFunction,Conductor*%
%TO.N,Net-(F2-Pad1)*%
G36*
X68020734Y-129802728D02*
G01*
X68114179Y-129808165D01*
X68243432Y-129815686D01*
X68263236Y-129818428D01*
X68476168Y-129865380D01*
X68495296Y-129871223D01*
X68698118Y-129951279D01*
X68716082Y-129960076D01*
X68818514Y-130020761D01*
X68903677Y-130071215D01*
X68920020Y-130082742D01*
X68989609Y-130140617D01*
X69087665Y-130222167D01*
X69101979Y-130236136D01*
X69245449Y-130400331D01*
X69257373Y-130416390D01*
X69373053Y-130601218D01*
X69382284Y-130618959D01*
X69411896Y-130688932D01*
X69467264Y-130819771D01*
X69473570Y-130838748D01*
X69525700Y-131050472D01*
X69528925Y-131070210D01*
X69547310Y-131292522D01*
X69547738Y-131302522D01*
X69558050Y-134677123D01*
X69558051Y-134677141D01*
X69560000Y-135315000D01*
X70017690Y-135755652D01*
X70017694Y-135755657D01*
X70019513Y-135757408D01*
X72073297Y-137734740D01*
X72073304Y-137734746D01*
X72075057Y-137736434D01*
X72515000Y-138160000D01*
X76105841Y-138135405D01*
X76115784Y-138135730D01*
X76337041Y-138151724D01*
X76356700Y-138154719D01*
X76567824Y-138204195D01*
X76586769Y-138210247D01*
X76787468Y-138292324D01*
X76805219Y-138301279D01*
X76920896Y-138371603D01*
X76990506Y-138413922D01*
X77006633Y-138425563D01*
X77171888Y-138565961D01*
X77185982Y-138579996D01*
X77327075Y-138744641D01*
X77338785Y-138760718D01*
X77452213Y-138945516D01*
X77461248Y-138963236D01*
X77544184Y-139163589D01*
X77550317Y-139182510D01*
X77600690Y-139393416D01*
X77603769Y-139413067D01*
X77620705Y-139634239D01*
X77621073Y-139644185D01*
X77614204Y-142301381D01*
X77593891Y-150159982D01*
X77593873Y-150166838D01*
X77593461Y-150176694D01*
X77575693Y-150395849D01*
X77572567Y-150415315D01*
X77521995Y-150624201D01*
X77515872Y-150642940D01*
X77433335Y-150841387D01*
X77424363Y-150858943D01*
X77311877Y-151042091D01*
X77300276Y-151058031D01*
X77160606Y-151221381D01*
X77146671Y-151235308D01*
X76983211Y-151374888D01*
X76967267Y-151386474D01*
X76784055Y-151498836D01*
X76766494Y-151507797D01*
X76567994Y-151590206D01*
X76549251Y-151596318D01*
X76340320Y-151646755D01*
X76320862Y-151649866D01*
X76101672Y-151667493D01*
X76091838Y-151667898D01*
X75003015Y-151670004D01*
X74037074Y-151671872D01*
X74027146Y-151671499D01*
X73883793Y-151660449D01*
X73806381Y-151654482D01*
X73786770Y-151651401D01*
X73576250Y-151601071D01*
X73557365Y-151594948D01*
X73545907Y-151590206D01*
X73357379Y-151512181D01*
X73339696Y-151503171D01*
X73155179Y-151390007D01*
X73139128Y-151378328D01*
X72974687Y-151237593D01*
X72960667Y-151223535D01*
X72820378Y-151058720D01*
X72808741Y-151042635D01*
X72696075Y-150857818D01*
X72687108Y-150840103D01*
X72604880Y-150639899D01*
X72598807Y-150620997D01*
X72549045Y-150410349D01*
X72546017Y-150390727D01*
X72529592Y-150169910D01*
X72529246Y-150159982D01*
X72530373Y-149916260D01*
X74723244Y-149916260D01*
X74724233Y-149917581D01*
X74728813Y-149919806D01*
X74813016Y-149942368D01*
X74823811Y-149944271D01*
X75029525Y-149962269D01*
X75040475Y-149962269D01*
X75246189Y-149944271D01*
X75256984Y-149942368D01*
X75335310Y-149921381D01*
X75347351Y-149914041D01*
X75347155Y-149912404D01*
X75344297Y-149908181D01*
X75047812Y-149611696D01*
X75033868Y-149604082D01*
X75032035Y-149604213D01*
X75025420Y-149608464D01*
X74730004Y-149903880D01*
X74723244Y-149916260D01*
X72530373Y-149916260D01*
X72535900Y-148720475D01*
X73787731Y-148720475D01*
X73805729Y-148926189D01*
X73807632Y-148936984D01*
X73828619Y-149015310D01*
X73835959Y-149027351D01*
X73837596Y-149027155D01*
X73841819Y-149024297D01*
X74138304Y-148727812D01*
X74144682Y-148716132D01*
X75924082Y-148716132D01*
X75924213Y-148717965D01*
X75928464Y-148724580D01*
X76223880Y-149019996D01*
X76236260Y-149026756D01*
X76237581Y-149025767D01*
X76239806Y-149021187D01*
X76262368Y-148936984D01*
X76264271Y-148926189D01*
X76282269Y-148720475D01*
X76282269Y-148709525D01*
X76264271Y-148503811D01*
X76262368Y-148493016D01*
X76241381Y-148414690D01*
X76234041Y-148402649D01*
X76232404Y-148402845D01*
X76228181Y-148405703D01*
X75931696Y-148702188D01*
X75924082Y-148716132D01*
X74144682Y-148716132D01*
X74145918Y-148713868D01*
X74145787Y-148712035D01*
X74141536Y-148705420D01*
X73846120Y-148410004D01*
X73833740Y-148403244D01*
X73832419Y-148404233D01*
X73830194Y-148408813D01*
X73807632Y-148493016D01*
X73805729Y-148503811D01*
X73787731Y-148709525D01*
X73787731Y-148720475D01*
X72535900Y-148720475D01*
X72542046Y-147391032D01*
X72542107Y-147377824D01*
X74722390Y-147377824D01*
X74722748Y-147382841D01*
X74742175Y-147434925D01*
X74729832Y-147498968D01*
X74722438Y-147514190D01*
X74722845Y-147517596D01*
X74725703Y-147521819D01*
X75022188Y-147818304D01*
X75036132Y-147825918D01*
X75037965Y-147825787D01*
X75044580Y-147821536D01*
X75339996Y-147526120D01*
X75347610Y-147512176D01*
X75347252Y-147507159D01*
X75327825Y-147455075D01*
X75340168Y-147391032D01*
X75347562Y-147375810D01*
X75347155Y-147372404D01*
X75344297Y-147368181D01*
X75047812Y-147071696D01*
X75033868Y-147064082D01*
X75032035Y-147064213D01*
X75025420Y-147068464D01*
X74730004Y-147363880D01*
X74722390Y-147377824D01*
X72542107Y-147377824D01*
X72547642Y-146180475D01*
X73787731Y-146180475D01*
X73805729Y-146386189D01*
X73807632Y-146396984D01*
X73828619Y-146475310D01*
X73835959Y-146487351D01*
X73837596Y-146487155D01*
X73841819Y-146484297D01*
X74138304Y-146187812D01*
X74144682Y-146176132D01*
X75924082Y-146176132D01*
X75924213Y-146177965D01*
X75928464Y-146184580D01*
X76223880Y-146479996D01*
X76236260Y-146486756D01*
X76237581Y-146485767D01*
X76239806Y-146481187D01*
X76262368Y-146396984D01*
X76264271Y-146386189D01*
X76282269Y-146180475D01*
X76282269Y-146169525D01*
X76264271Y-145963811D01*
X76262368Y-145953016D01*
X76241381Y-145874690D01*
X76234041Y-145862649D01*
X76232404Y-145862845D01*
X76228181Y-145865703D01*
X75931696Y-146162188D01*
X75924082Y-146176132D01*
X74144682Y-146176132D01*
X74145918Y-146173868D01*
X74145787Y-146172035D01*
X74141536Y-146165420D01*
X73846120Y-145870004D01*
X73833740Y-145863244D01*
X73832419Y-145864233D01*
X73830194Y-145868813D01*
X73807632Y-145953016D01*
X73805729Y-145963811D01*
X73787731Y-146169525D01*
X73787731Y-146180475D01*
X72547642Y-146180475D01*
X72549252Y-145832087D01*
X72549252Y-145832086D01*
X72552244Y-145184803D01*
X72332797Y-144975959D01*
X74722649Y-144975959D01*
X74722845Y-144977596D01*
X74725703Y-144981819D01*
X75022188Y-145278304D01*
X75036132Y-145285918D01*
X75037965Y-145285787D01*
X75044580Y-145281536D01*
X75339996Y-144986120D01*
X75346756Y-144973740D01*
X75345767Y-144972419D01*
X75341187Y-144970194D01*
X75256984Y-144947632D01*
X75246189Y-144945729D01*
X75040475Y-144927731D01*
X75029525Y-144927731D01*
X74823811Y-144945729D01*
X74813016Y-144947632D01*
X74734690Y-144968619D01*
X74722649Y-144975959D01*
X72332797Y-144975959D01*
X72083356Y-144738570D01*
X72083353Y-144738567D01*
X69517050Y-142296260D01*
X74723244Y-142296260D01*
X74724233Y-142297581D01*
X74728813Y-142299806D01*
X74813016Y-142322368D01*
X74823811Y-142324271D01*
X75029525Y-142342269D01*
X75040475Y-142342269D01*
X75246189Y-142324271D01*
X75256984Y-142322368D01*
X75335310Y-142301381D01*
X75347351Y-142294041D01*
X75347155Y-142292404D01*
X75344297Y-142288181D01*
X75047812Y-141991696D01*
X75033868Y-141984082D01*
X75032035Y-141984213D01*
X75025420Y-141988464D01*
X74730004Y-142283880D01*
X74723244Y-142296260D01*
X69517050Y-142296260D01*
X69514718Y-142294041D01*
X68260554Y-141100475D01*
X73787731Y-141100475D01*
X73805729Y-141306189D01*
X73807632Y-141316984D01*
X73828619Y-141395310D01*
X73835959Y-141407351D01*
X73837596Y-141407155D01*
X73841819Y-141404297D01*
X74138304Y-141107812D01*
X74144682Y-141096132D01*
X75924082Y-141096132D01*
X75924213Y-141097965D01*
X75928464Y-141104580D01*
X76223880Y-141399996D01*
X76236260Y-141406756D01*
X76237581Y-141405767D01*
X76239806Y-141401187D01*
X76262368Y-141316984D01*
X76264271Y-141306189D01*
X76282269Y-141100475D01*
X76282269Y-141089525D01*
X76264271Y-140883811D01*
X76262368Y-140873016D01*
X76241381Y-140794690D01*
X76234041Y-140782649D01*
X76232404Y-140782845D01*
X76228181Y-140785703D01*
X75931696Y-141082188D01*
X75924082Y-141096132D01*
X74144682Y-141096132D01*
X74145918Y-141093868D01*
X74145787Y-141092035D01*
X74141536Y-141085420D01*
X73846120Y-140790004D01*
X73833740Y-140783244D01*
X73832419Y-140784233D01*
X73830194Y-140788813D01*
X73807632Y-140873016D01*
X73805729Y-140883811D01*
X73787731Y-141089525D01*
X73787731Y-141100475D01*
X68260554Y-141100475D01*
X67864584Y-140723637D01*
X67863786Y-140722871D01*
X67858656Y-140717902D01*
X67845942Y-140705587D01*
X67844429Y-140704097D01*
X67826850Y-140686457D01*
X67826070Y-140685667D01*
X67356331Y-140205918D01*
X67052839Y-139895959D01*
X74722649Y-139895959D01*
X74722845Y-139897596D01*
X74725703Y-139901819D01*
X75022188Y-140198304D01*
X75036132Y-140205918D01*
X75037965Y-140205787D01*
X75044580Y-140201536D01*
X75339996Y-139906120D01*
X75346756Y-139893740D01*
X75345767Y-139892419D01*
X75341187Y-139890194D01*
X75256984Y-139867632D01*
X75246189Y-139865729D01*
X75040475Y-139847731D01*
X75029525Y-139847731D01*
X74823811Y-139865729D01*
X74813016Y-139867632D01*
X74734690Y-139888619D01*
X74722649Y-139895959D01*
X67052839Y-139895959D01*
X64987161Y-137786262D01*
X64980687Y-137779122D01*
X64842146Y-137614002D01*
X64830897Y-137598289D01*
X64721759Y-137418091D01*
X64713045Y-137400843D01*
X64632742Y-137206068D01*
X64626768Y-137187689D01*
X64577198Y-136982934D01*
X64574104Y-136963858D01*
X64556021Y-136749085D01*
X64555580Y-136739426D01*
X64545717Y-135377110D01*
X64530271Y-133243625D01*
X66645878Y-133243625D01*
X66646867Y-133244946D01*
X66651447Y-133247171D01*
X66804364Y-133288145D01*
X66815159Y-133290048D01*
X67039525Y-133309678D01*
X67050475Y-133309678D01*
X67274841Y-133290048D01*
X67285636Y-133288145D01*
X67432676Y-133248746D01*
X67444717Y-133241406D01*
X67444521Y-133239769D01*
X67441663Y-133235546D01*
X67057812Y-132851695D01*
X67043868Y-132844081D01*
X67042035Y-132844212D01*
X67035420Y-132848463D01*
X66652638Y-133231245D01*
X66645878Y-133243625D01*
X64530271Y-133243625D01*
X64520981Y-131960475D01*
X65690322Y-131960475D01*
X65709952Y-132184841D01*
X65711855Y-132195636D01*
X65751254Y-132342676D01*
X65758594Y-132354717D01*
X65760231Y-132354521D01*
X65764454Y-132351663D01*
X66148305Y-131967812D01*
X66154683Y-131956132D01*
X67934081Y-131956132D01*
X67934212Y-131957965D01*
X67938463Y-131964580D01*
X68321245Y-132347362D01*
X68333625Y-132354122D01*
X68334946Y-132353133D01*
X68337171Y-132348553D01*
X68378145Y-132195636D01*
X68380048Y-132184841D01*
X68399678Y-131960475D01*
X68399678Y-131949525D01*
X68380048Y-131725159D01*
X68378145Y-131714364D01*
X68338746Y-131567324D01*
X68331406Y-131555283D01*
X68329769Y-131555479D01*
X68325546Y-131558337D01*
X67941695Y-131942188D01*
X67934081Y-131956132D01*
X66154683Y-131956132D01*
X66155919Y-131953868D01*
X66155788Y-131952035D01*
X66151537Y-131945420D01*
X65768755Y-131562638D01*
X65756375Y-131555878D01*
X65755054Y-131556867D01*
X65752829Y-131561447D01*
X65711855Y-131714364D01*
X65709952Y-131725159D01*
X65690322Y-131949525D01*
X65690322Y-131960475D01*
X64520981Y-131960475D01*
X64516642Y-131361176D01*
X64516953Y-131351388D01*
X64520764Y-131297506D01*
X64532368Y-131133400D01*
X64535266Y-131114021D01*
X64583188Y-130905852D01*
X64589055Y-130887157D01*
X64616122Y-130819771D01*
X64668675Y-130688929D01*
X64677364Y-130671380D01*
X64679025Y-130668594D01*
X66645283Y-130668594D01*
X66645479Y-130670231D01*
X66648337Y-130674454D01*
X67032188Y-131058305D01*
X67046132Y-131065919D01*
X67047965Y-131065788D01*
X67054580Y-131061537D01*
X67437362Y-130678755D01*
X67444122Y-130666375D01*
X67443133Y-130665054D01*
X67438553Y-130662829D01*
X67285636Y-130621855D01*
X67274841Y-130619952D01*
X67050475Y-130600322D01*
X67039525Y-130600322D01*
X66815159Y-130619952D01*
X66804364Y-130621855D01*
X66657324Y-130661254D01*
X66645283Y-130668594D01*
X64679025Y-130668594D01*
X64786756Y-130487893D01*
X64798068Y-130471894D01*
X64934584Y-130307587D01*
X64948240Y-130293536D01*
X65108577Y-130152383D01*
X65124248Y-130140617D01*
X65304532Y-130026031D01*
X65321833Y-130016839D01*
X65517701Y-129931591D01*
X65536222Y-129925192D01*
X65742941Y-129871341D01*
X65762230Y-129867891D01*
X65836868Y-129860465D01*
X65979701Y-129846255D01*
X65989477Y-129845665D01*
X67224559Y-129819316D01*
X68010728Y-129802544D01*
X68020734Y-129802728D01*
G37*
%TD.AperFunction*%
%TD*%
%TA.AperFunction,Conductor*%
%TO.N,/+BATT*%
G36*
X84939729Y-82916093D02*
G01*
X84949644Y-82916498D01*
X85170162Y-82934219D01*
X85189748Y-82937359D01*
X85399920Y-82988297D01*
X85418771Y-82994473D01*
X85618335Y-83077762D01*
X85635983Y-83086819D01*
X85820008Y-83200400D01*
X85836014Y-83212114D01*
X85999938Y-83353174D01*
X86013905Y-83367254D01*
X86153651Y-83532284D01*
X86165239Y-83548384D01*
X86277355Y-83733304D01*
X86286269Y-83751017D01*
X86367975Y-83951249D01*
X86373999Y-83970142D01*
X86423267Y-84180715D01*
X86426251Y-84200325D01*
X86442220Y-84420978D01*
X86442546Y-84430899D01*
X86429954Y-86351619D01*
X86420000Y-87870000D01*
X86432023Y-87966892D01*
X86432024Y-87966903D01*
X86432148Y-87967899D01*
X87231385Y-94408874D01*
X87231803Y-94412729D01*
X87239810Y-94498880D01*
X87240289Y-94506605D01*
X87242979Y-94593084D01*
X87243040Y-94596936D01*
X87248010Y-110247554D01*
X81244903Y-110230307D01*
X81249545Y-108141338D01*
X82125000Y-108141338D01*
X82125001Y-109501885D01*
X82129476Y-109517124D01*
X82130866Y-109518329D01*
X82138549Y-109520000D01*
X83581885Y-109520000D01*
X83597124Y-109515525D01*
X83598329Y-109514135D01*
X83600000Y-109506452D01*
X83600000Y-109501885D01*
X84850000Y-109501885D01*
X84854475Y-109517124D01*
X84855865Y-109518329D01*
X84863548Y-109520000D01*
X86306885Y-109520000D01*
X86322124Y-109515525D01*
X86323329Y-109514135D01*
X86325000Y-109506452D01*
X86324999Y-108141346D01*
X86323791Y-108129077D01*
X86321619Y-108118157D01*
X86312302Y-108095661D01*
X86303989Y-108083220D01*
X86286780Y-108066011D01*
X86274337Y-108057697D01*
X86251846Y-108048381D01*
X86240917Y-108046207D01*
X86228662Y-108045000D01*
X84868115Y-108045000D01*
X84852876Y-108049475D01*
X84851671Y-108050865D01*
X84850000Y-108058548D01*
X84850000Y-109501885D01*
X83600000Y-109501885D01*
X83600000Y-108063116D01*
X83595525Y-108047877D01*
X83594135Y-108046672D01*
X83586452Y-108045001D01*
X82221346Y-108045001D01*
X82209077Y-108046209D01*
X82198157Y-108048381D01*
X82175661Y-108057698D01*
X82163220Y-108066011D01*
X82146011Y-108083220D01*
X82137697Y-108095663D01*
X82128381Y-108118154D01*
X82126207Y-108129083D01*
X82125000Y-108141338D01*
X81249545Y-108141338D01*
X81279888Y-94484842D01*
X81280020Y-94408874D01*
X81291336Y-87867784D01*
X81294120Y-86258654D01*
X82850001Y-86258654D01*
X82851209Y-86270923D01*
X82853381Y-86281843D01*
X82862698Y-86304339D01*
X82871011Y-86316780D01*
X82888220Y-86333989D01*
X82900663Y-86342303D01*
X82923154Y-86351619D01*
X82934083Y-86353793D01*
X82946338Y-86355000D01*
X83306885Y-86355000D01*
X83322124Y-86350525D01*
X83323329Y-86349135D01*
X83325000Y-86341452D01*
X83325000Y-86336884D01*
X84575000Y-86336884D01*
X84579475Y-86352123D01*
X84580865Y-86353328D01*
X84588548Y-86354999D01*
X84953654Y-86354999D01*
X84965923Y-86353791D01*
X84976843Y-86351619D01*
X84999339Y-86342302D01*
X85011780Y-86333989D01*
X85028989Y-86316780D01*
X85037303Y-86304337D01*
X85046619Y-86281846D01*
X85048793Y-86270917D01*
X85050000Y-86258662D01*
X85050000Y-85898115D01*
X85045525Y-85882876D01*
X85044135Y-85881671D01*
X85036452Y-85880000D01*
X84593115Y-85880000D01*
X84577876Y-85884475D01*
X84576671Y-85885865D01*
X84575000Y-85893548D01*
X84575000Y-86336884D01*
X83325000Y-86336884D01*
X83325000Y-85898115D01*
X83320525Y-85882876D01*
X83319135Y-85881671D01*
X83311452Y-85880000D01*
X82868116Y-85880000D01*
X82852877Y-85884475D01*
X82851672Y-85885865D01*
X82850001Y-85893548D01*
X82850001Y-86258654D01*
X81294120Y-86258654D01*
X81294921Y-85795535D01*
X81294938Y-85793708D01*
X81295633Y-85751889D01*
X81295751Y-85748147D01*
X81297688Y-85706375D01*
X81297789Y-85704501D01*
X81363659Y-84630000D01*
X81364770Y-84611885D01*
X82850000Y-84611885D01*
X82854475Y-84627124D01*
X82855865Y-84628329D01*
X82863548Y-84630000D01*
X83306885Y-84630000D01*
X83322124Y-84625525D01*
X83323329Y-84624135D01*
X83325000Y-84616452D01*
X83325000Y-84611885D01*
X84575000Y-84611885D01*
X84579475Y-84627124D01*
X84580865Y-84628329D01*
X84588548Y-84630000D01*
X85031884Y-84630000D01*
X85047123Y-84625525D01*
X85048328Y-84624135D01*
X85049999Y-84616452D01*
X85049999Y-84251346D01*
X85048791Y-84239077D01*
X85046619Y-84228157D01*
X85037302Y-84205661D01*
X85028989Y-84193220D01*
X85011780Y-84176011D01*
X84999337Y-84167697D01*
X84976846Y-84158381D01*
X84965917Y-84156207D01*
X84953662Y-84155000D01*
X84593115Y-84155000D01*
X84577876Y-84159475D01*
X84576671Y-84160865D01*
X84575000Y-84168548D01*
X84575000Y-84611885D01*
X83325000Y-84611885D01*
X83325000Y-84173116D01*
X83320525Y-84157877D01*
X83319135Y-84156672D01*
X83311452Y-84155001D01*
X82946346Y-84155001D01*
X82934077Y-84156209D01*
X82923157Y-84158381D01*
X82900661Y-84167698D01*
X82888220Y-84176011D01*
X82871011Y-84193220D01*
X82862697Y-84205663D01*
X82853381Y-84228154D01*
X82851207Y-84239083D01*
X82850000Y-84251338D01*
X82850000Y-84611885D01*
X81364770Y-84611885D01*
X81382251Y-84326725D01*
X81383338Y-84316224D01*
X81392825Y-84251338D01*
X81417427Y-84083059D01*
X81422226Y-84062484D01*
X81493156Y-83843358D01*
X81501325Y-83823873D01*
X81607879Y-83619666D01*
X81619182Y-83601831D01*
X81758369Y-83418291D01*
X81772496Y-83402594D01*
X81825114Y-83353171D01*
X81940380Y-83244905D01*
X81956931Y-83231787D01*
X82148815Y-83104361D01*
X82167334Y-83094191D01*
X82377799Y-83000627D01*
X82397756Y-82993693D01*
X82620895Y-82936611D01*
X82641731Y-82933109D01*
X82677060Y-82930186D01*
X82876574Y-82913677D01*
X82887126Y-82913248D01*
X84939729Y-82916093D01*
G37*
%TD.AperFunction*%
%TD*%
%TA.AperFunction,Conductor*%
%TO.N,/+BATT*%
G36*
X86013031Y-107201180D02*
G01*
X86106065Y-107207948D01*
X86225078Y-107216606D01*
X86244972Y-107219665D01*
X86269375Y-107225446D01*
X86446936Y-107267507D01*
X86466091Y-107273697D01*
X86657865Y-107353101D01*
X86675783Y-107362262D01*
X86852444Y-107471192D01*
X86868682Y-107483093D01*
X87025751Y-107618787D01*
X87039877Y-107633116D01*
X87075677Y-107675765D01*
X87173316Y-107792085D01*
X87184988Y-107808492D01*
X87291401Y-107986689D01*
X87300310Y-108004747D01*
X87376977Y-108197617D01*
X87382896Y-108216861D01*
X87427863Y-108419485D01*
X87430639Y-108439417D01*
X87434256Y-108501264D01*
X87443050Y-108651662D01*
X87443236Y-108661736D01*
X87411689Y-110123401D01*
X87421983Y-112223989D01*
X87427066Y-113261186D01*
X87430000Y-113860000D01*
X87759441Y-114268813D01*
X87759444Y-114268818D01*
X93322975Y-121172775D01*
X93329331Y-121181390D01*
X93441804Y-121348241D01*
X93462971Y-121379642D01*
X93473398Y-121398373D01*
X93569279Y-121611485D01*
X93576380Y-121631711D01*
X93634749Y-121857998D01*
X93638318Y-121879137D01*
X93657923Y-122117420D01*
X93658346Y-122128140D01*
X93624627Y-133082715D01*
X93624209Y-133092592D01*
X93606256Y-133312219D01*
X93603107Y-133331725D01*
X93552215Y-133541018D01*
X93546056Y-133559791D01*
X93463073Y-133758554D01*
X93454055Y-133776134D01*
X93341016Y-133959487D01*
X93329363Y-133975437D01*
X93189052Y-134138866D01*
X93175045Y-134152802D01*
X93010917Y-134292280D01*
X92994905Y-134303855D01*
X92810984Y-134415966D01*
X92793359Y-134424895D01*
X92594176Y-134506875D01*
X92575371Y-134512939D01*
X92365817Y-134562775D01*
X92346309Y-134565823D01*
X92246625Y-134573465D01*
X92126601Y-134582666D01*
X92116721Y-134583035D01*
X91135048Y-134581099D01*
X90043980Y-134578947D01*
X90034155Y-134578543D01*
X89815361Y-134560970D01*
X89795931Y-134557867D01*
X89587357Y-134507601D01*
X89568651Y-134501512D01*
X89370440Y-134419377D01*
X89352914Y-134410452D01*
X89169912Y-134298456D01*
X89153982Y-134286905D01*
X88990664Y-134147792D01*
X88976724Y-134133900D01*
X88837053Y-133971044D01*
X88825447Y-133955151D01*
X88712837Y-133772531D01*
X88703852Y-133755034D01*
X88621049Y-133557103D01*
X88614898Y-133538416D01*
X88563928Y-133330019D01*
X88560759Y-133310595D01*
X88555153Y-133243625D01*
X90745878Y-133243625D01*
X90746867Y-133244946D01*
X90751447Y-133247171D01*
X90904364Y-133288145D01*
X90915159Y-133290048D01*
X91139525Y-133309678D01*
X91150475Y-133309678D01*
X91374841Y-133290048D01*
X91385636Y-133288145D01*
X91532676Y-133248746D01*
X91544717Y-133241406D01*
X91544521Y-133239769D01*
X91541663Y-133235546D01*
X91157812Y-132851695D01*
X91143868Y-132844081D01*
X91142035Y-132844212D01*
X91135420Y-132848463D01*
X90752638Y-133231245D01*
X90745878Y-133243625D01*
X88555153Y-133243625D01*
X88542448Y-133091865D01*
X88542011Y-133082028D01*
X88536013Y-131960475D01*
X89790322Y-131960475D01*
X89809952Y-132184841D01*
X89811855Y-132195636D01*
X89851254Y-132342676D01*
X89858594Y-132354717D01*
X89860231Y-132354521D01*
X89864454Y-132351663D01*
X90248305Y-131967812D01*
X90254683Y-131956132D01*
X92034081Y-131956132D01*
X92034212Y-131957965D01*
X92038463Y-131964580D01*
X92421245Y-132347362D01*
X92433625Y-132354122D01*
X92434946Y-132353133D01*
X92437171Y-132348553D01*
X92478145Y-132195636D01*
X92480048Y-132184841D01*
X92499678Y-131960475D01*
X92499678Y-131949525D01*
X92480048Y-131725159D01*
X92478145Y-131714364D01*
X92438746Y-131567324D01*
X92431406Y-131555283D01*
X92429769Y-131555479D01*
X92425546Y-131558337D01*
X92041695Y-131942188D01*
X92034081Y-131956132D01*
X90254683Y-131956132D01*
X90255919Y-131953868D01*
X90255788Y-131952035D01*
X90251537Y-131945420D01*
X89868755Y-131562638D01*
X89856375Y-131555878D01*
X89855054Y-131556867D01*
X89852829Y-131561447D01*
X89811855Y-131714364D01*
X89809952Y-131725159D01*
X89790322Y-131949525D01*
X89790322Y-131960475D01*
X88536013Y-131960475D01*
X88529105Y-130668594D01*
X90745283Y-130668594D01*
X90745479Y-130670231D01*
X90748337Y-130674454D01*
X91132188Y-131058305D01*
X91146132Y-131065919D01*
X91147965Y-131065788D01*
X91154580Y-131061537D01*
X91537362Y-130678755D01*
X91544122Y-130666375D01*
X91543133Y-130665054D01*
X91538553Y-130662829D01*
X91385636Y-130621855D01*
X91374841Y-130619952D01*
X91150475Y-130600322D01*
X91139525Y-130600322D01*
X90915159Y-130619952D01*
X90904364Y-130621855D01*
X90757324Y-130661254D01*
X90745283Y-130668594D01*
X88529105Y-130668594D01*
X88520058Y-128976792D01*
X88520056Y-128976358D01*
X88520037Y-128966367D01*
X88520039Y-128965479D01*
X88520089Y-128955757D01*
X88520092Y-128955323D01*
X88560703Y-124226319D01*
X88560725Y-124223785D01*
X88565000Y-123726000D01*
X86697545Y-121176945D01*
X82120099Y-114928784D01*
X82120036Y-114928700D01*
X82110000Y-114915000D01*
X81615174Y-114270878D01*
X81548622Y-114184246D01*
X81542679Y-114175817D01*
X81418021Y-113982686D01*
X81408300Y-113964518D01*
X81318854Y-113758387D01*
X81312227Y-113738885D01*
X81257583Y-113520927D01*
X81254224Y-113500599D01*
X81235422Y-113271492D01*
X81235000Y-113261186D01*
X81235000Y-112148654D01*
X82125001Y-112148654D01*
X82126209Y-112160923D01*
X82128381Y-112171843D01*
X82137698Y-112194339D01*
X82146011Y-112206780D01*
X82163220Y-112223989D01*
X82175663Y-112232303D01*
X82198154Y-112241619D01*
X82209083Y-112243793D01*
X82221338Y-112245000D01*
X83581885Y-112245000D01*
X83597124Y-112240525D01*
X83598329Y-112239135D01*
X83600000Y-112231452D01*
X83600000Y-112226884D01*
X84850000Y-112226884D01*
X84854475Y-112242123D01*
X84855865Y-112243328D01*
X84863548Y-112244999D01*
X86228654Y-112244999D01*
X86240923Y-112243791D01*
X86251843Y-112241619D01*
X86274339Y-112232302D01*
X86286780Y-112223989D01*
X86303989Y-112206780D01*
X86312303Y-112194337D01*
X86321619Y-112171846D01*
X86323793Y-112160917D01*
X86325000Y-112148662D01*
X86325000Y-110788115D01*
X86320525Y-110772876D01*
X86319135Y-110771671D01*
X86311452Y-110770000D01*
X84868115Y-110770000D01*
X84852876Y-110774475D01*
X84851671Y-110775865D01*
X84850000Y-110783548D01*
X84850000Y-112226884D01*
X83600000Y-112226884D01*
X83600000Y-110788115D01*
X83595525Y-110772876D01*
X83594135Y-110771671D01*
X83586452Y-110770000D01*
X82143116Y-110770000D01*
X82127877Y-110774475D01*
X82126672Y-110775865D01*
X82125001Y-110783548D01*
X82125001Y-112148654D01*
X81235000Y-112148654D01*
X81235000Y-109501885D01*
X82125000Y-109501885D01*
X82129475Y-109517124D01*
X82130865Y-109518329D01*
X82138548Y-109520000D01*
X83581885Y-109520000D01*
X83597124Y-109515525D01*
X83598329Y-109514135D01*
X83600000Y-109506452D01*
X83600000Y-109501885D01*
X84850000Y-109501885D01*
X84854475Y-109517124D01*
X84855865Y-109518329D01*
X84863548Y-109520000D01*
X86306884Y-109520000D01*
X86322123Y-109515525D01*
X86323328Y-109514135D01*
X86324999Y-109506452D01*
X86324999Y-108141346D01*
X86323791Y-108129077D01*
X86321619Y-108118157D01*
X86312302Y-108095661D01*
X86303989Y-108083220D01*
X86286780Y-108066011D01*
X86274337Y-108057697D01*
X86251846Y-108048381D01*
X86240917Y-108046207D01*
X86228662Y-108045000D01*
X84868115Y-108045000D01*
X84852876Y-108049475D01*
X84851671Y-108050865D01*
X84850000Y-108058548D01*
X84850000Y-109501885D01*
X83600000Y-109501885D01*
X83600000Y-108063116D01*
X83595525Y-108047877D01*
X83594135Y-108046672D01*
X83586452Y-108045001D01*
X82221346Y-108045001D01*
X82209077Y-108046209D01*
X82198157Y-108048381D01*
X82175661Y-108057698D01*
X82163220Y-108066011D01*
X82146011Y-108083220D01*
X82137697Y-108095663D01*
X82128381Y-108118154D01*
X82126207Y-108129083D01*
X82125000Y-108141338D01*
X82125000Y-109501885D01*
X81235000Y-109501885D01*
X81235000Y-108729908D01*
X81235385Y-108720069D01*
X81252524Y-108501264D01*
X81255587Y-108481830D01*
X81305440Y-108273160D01*
X81311493Y-108254436D01*
X81331039Y-108207001D01*
X81393231Y-108056070D01*
X81402117Y-108038535D01*
X81513743Y-107855319D01*
X81525262Y-107839366D01*
X81664055Y-107675765D01*
X81677918Y-107661799D01*
X81840483Y-107521810D01*
X81856354Y-107510172D01*
X82038735Y-107397204D01*
X82056222Y-107388179D01*
X82253976Y-107304983D01*
X82272656Y-107298792D01*
X82480944Y-107247404D01*
X82500360Y-107244197D01*
X82719025Y-107225446D01*
X82728861Y-107224988D01*
X83945871Y-107216016D01*
X86002964Y-107200851D01*
X86013031Y-107201180D01*
G37*
%TD.AperFunction*%
%TD*%
%TA.AperFunction,Conductor*%
%TO.N,/+ARR*%
G36*
X125318645Y-107145359D02*
G01*
X126614087Y-107152160D01*
X127574324Y-107157201D01*
X127584118Y-107157634D01*
X127656774Y-107163689D01*
X127802083Y-107175798D01*
X127821439Y-107178943D01*
X128029137Y-107229536D01*
X128047771Y-107235645D01*
X128245116Y-107317857D01*
X128262576Y-107326784D01*
X128444773Y-107438619D01*
X128460630Y-107450141D01*
X128623276Y-107588899D01*
X128637148Y-107602738D01*
X128772964Y-107761167D01*
X128776291Y-107765048D01*
X128787856Y-107780883D01*
X128900125Y-107962808D01*
X128909094Y-107980247D01*
X128991779Y-108177398D01*
X128997929Y-108196005D01*
X129049025Y-108403606D01*
X129052214Y-108422948D01*
X129070899Y-108640849D01*
X129071355Y-108650639D01*
X129087797Y-110801795D01*
X129087832Y-110806343D01*
X129088271Y-110863714D01*
X129088003Y-110872952D01*
X129074475Y-111078500D01*
X129071915Y-111096791D01*
X129028481Y-111298167D01*
X129026202Y-111307122D01*
X128666407Y-112531619D01*
X128185000Y-114170000D01*
X128199971Y-118550573D01*
X128209982Y-121479930D01*
X128209983Y-121480117D01*
X128209992Y-121484756D01*
X128209992Y-121485188D01*
X128209985Y-121489879D01*
X128209984Y-121490079D01*
X128174627Y-132976715D01*
X128174209Y-132986592D01*
X128156256Y-133206219D01*
X128153107Y-133225725D01*
X128102215Y-133435018D01*
X128096056Y-133453791D01*
X128013073Y-133652554D01*
X128004055Y-133670134D01*
X127891016Y-133853487D01*
X127879363Y-133869437D01*
X127739052Y-134032866D01*
X127725045Y-134046802D01*
X127560917Y-134186280D01*
X127544905Y-134197855D01*
X127360984Y-134309966D01*
X127343359Y-134318895D01*
X127144176Y-134400875D01*
X127125371Y-134406939D01*
X126915817Y-134456775D01*
X126896309Y-134459823D01*
X126796625Y-134467465D01*
X126676601Y-134476666D01*
X126666721Y-134477035D01*
X125685048Y-134475099D01*
X124593980Y-134472947D01*
X124584155Y-134472543D01*
X124365361Y-134454970D01*
X124345931Y-134451867D01*
X124137357Y-134401601D01*
X124118651Y-134395512D01*
X123920440Y-134313377D01*
X123902914Y-134304452D01*
X123719912Y-134192456D01*
X123703982Y-134180905D01*
X123540664Y-134041792D01*
X123526724Y-134027900D01*
X123387053Y-133865044D01*
X123375447Y-133849151D01*
X123262837Y-133666531D01*
X123253852Y-133649034D01*
X123171049Y-133451103D01*
X123164898Y-133432416D01*
X123113928Y-133224019D01*
X123110759Y-133204595D01*
X123107245Y-133162625D01*
X125270878Y-133162625D01*
X125271867Y-133163946D01*
X125276447Y-133166171D01*
X125429364Y-133207145D01*
X125440159Y-133209048D01*
X125664525Y-133228678D01*
X125675475Y-133228678D01*
X125899841Y-133209048D01*
X125910636Y-133207145D01*
X126057676Y-133167746D01*
X126069717Y-133160406D01*
X126069521Y-133158769D01*
X126066663Y-133154546D01*
X125682812Y-132770695D01*
X125668868Y-132763081D01*
X125667035Y-132763212D01*
X125660420Y-132767463D01*
X125277638Y-133150245D01*
X125270878Y-133162625D01*
X123107245Y-133162625D01*
X123092448Y-132985865D01*
X123092011Y-132976028D01*
X123086147Y-131879475D01*
X124315322Y-131879475D01*
X124334952Y-132103841D01*
X124336855Y-132114636D01*
X124376254Y-132261676D01*
X124383594Y-132273717D01*
X124385231Y-132273521D01*
X124389454Y-132270663D01*
X124773305Y-131886812D01*
X124779683Y-131875132D01*
X126559081Y-131875132D01*
X126559212Y-131876965D01*
X126563463Y-131883580D01*
X126946245Y-132266362D01*
X126958625Y-132273122D01*
X126959946Y-132272133D01*
X126962171Y-132267553D01*
X127003145Y-132114636D01*
X127005048Y-132103841D01*
X127024678Y-131879475D01*
X127024678Y-131868525D01*
X127005048Y-131644159D01*
X127003145Y-131633364D01*
X126963746Y-131486324D01*
X126956406Y-131474283D01*
X126954769Y-131474479D01*
X126950546Y-131477337D01*
X126566695Y-131861188D01*
X126559081Y-131875132D01*
X124779683Y-131875132D01*
X124780919Y-131872868D01*
X124780788Y-131871035D01*
X124776537Y-131864420D01*
X124393755Y-131481638D01*
X124381375Y-131474878D01*
X124380054Y-131475867D01*
X124377829Y-131480447D01*
X124336855Y-131633364D01*
X124334952Y-131644159D01*
X124315322Y-131868525D01*
X124315322Y-131879475D01*
X123086147Y-131879475D01*
X123079239Y-130587594D01*
X125270283Y-130587594D01*
X125270479Y-130589231D01*
X125273337Y-130593454D01*
X125657188Y-130977305D01*
X125671132Y-130984919D01*
X125672965Y-130984788D01*
X125679580Y-130980537D01*
X126062362Y-130597755D01*
X126069122Y-130585375D01*
X126068133Y-130584054D01*
X126063553Y-130581829D01*
X125910636Y-130540855D01*
X125899841Y-130538952D01*
X125675475Y-130519322D01*
X125664525Y-130519322D01*
X125440159Y-130538952D01*
X125429364Y-130540855D01*
X125282324Y-130580254D01*
X125270283Y-130587594D01*
X123079239Y-130587594D01*
X123070058Y-128870792D01*
X123070056Y-128870358D01*
X123070037Y-128860367D01*
X123070039Y-128859479D01*
X123070089Y-128849757D01*
X123070092Y-128849323D01*
X123114969Y-123623638D01*
X123114971Y-123623430D01*
X123115000Y-123620000D01*
X123115014Y-123616362D01*
X123115015Y-123616156D01*
X123149130Y-114487914D01*
X123149130Y-114487913D01*
X123149139Y-114485499D01*
X123149139Y-114485493D01*
X123150000Y-114255000D01*
X122585725Y-112438654D01*
X123470001Y-112438654D01*
X123471209Y-112450923D01*
X123473381Y-112461843D01*
X123482698Y-112484339D01*
X123491011Y-112496780D01*
X123508220Y-112513989D01*
X123520663Y-112522303D01*
X123543154Y-112531619D01*
X123554083Y-112533793D01*
X123566338Y-112535000D01*
X124926885Y-112535000D01*
X124942124Y-112530525D01*
X124943329Y-112529135D01*
X124945000Y-112521452D01*
X124945000Y-112516884D01*
X126195000Y-112516884D01*
X126199475Y-112532123D01*
X126200865Y-112533328D01*
X126208548Y-112534999D01*
X127573654Y-112534999D01*
X127585923Y-112533791D01*
X127596843Y-112531619D01*
X127619339Y-112522302D01*
X127631780Y-112513989D01*
X127648989Y-112496780D01*
X127657303Y-112484337D01*
X127666619Y-112461846D01*
X127668793Y-112450917D01*
X127670000Y-112438662D01*
X127670000Y-111078115D01*
X127665525Y-111062876D01*
X127664135Y-111061671D01*
X127656452Y-111060000D01*
X126213115Y-111060000D01*
X126197876Y-111064475D01*
X126196671Y-111065865D01*
X126195000Y-111073548D01*
X126195000Y-112516884D01*
X124945000Y-112516884D01*
X124945000Y-111078115D01*
X124940525Y-111062876D01*
X124939135Y-111061671D01*
X124931452Y-111060000D01*
X123488116Y-111060000D01*
X123472877Y-111064475D01*
X123471672Y-111065865D01*
X123470001Y-111073548D01*
X123470001Y-112438654D01*
X122585725Y-112438654D01*
X122211092Y-111232745D01*
X122208708Y-111223964D01*
X122190611Y-111146315D01*
X122162665Y-111026409D01*
X122159827Y-111008450D01*
X122142706Y-110806343D01*
X122142265Y-110797254D01*
X122129921Y-109791885D01*
X123470000Y-109791885D01*
X123474475Y-109807124D01*
X123475865Y-109808329D01*
X123483548Y-109810000D01*
X124926885Y-109810000D01*
X124942124Y-109805525D01*
X124943329Y-109804135D01*
X124945000Y-109796452D01*
X124945000Y-109791885D01*
X126195000Y-109791885D01*
X126199475Y-109807124D01*
X126200865Y-109808329D01*
X126208548Y-109810000D01*
X127651884Y-109810000D01*
X127667123Y-109805525D01*
X127668328Y-109804135D01*
X127669999Y-109796452D01*
X127669999Y-108431346D01*
X127668791Y-108419077D01*
X127666619Y-108408157D01*
X127657302Y-108385661D01*
X127648989Y-108373220D01*
X127631780Y-108356011D01*
X127619337Y-108347697D01*
X127596846Y-108338381D01*
X127585917Y-108336207D01*
X127573662Y-108335000D01*
X126213115Y-108335000D01*
X126197876Y-108339475D01*
X126196671Y-108340865D01*
X126195000Y-108348548D01*
X126195000Y-109791885D01*
X124945000Y-109791885D01*
X124945000Y-108353116D01*
X124940525Y-108337877D01*
X124939135Y-108336672D01*
X124931452Y-108335001D01*
X123566346Y-108335001D01*
X123554077Y-108336209D01*
X123543157Y-108338381D01*
X123520661Y-108347698D01*
X123508220Y-108356011D01*
X123491011Y-108373220D01*
X123482697Y-108385663D01*
X123473381Y-108408154D01*
X123471207Y-108419083D01*
X123470000Y-108431338D01*
X123470000Y-109791885D01*
X122129921Y-109791885D01*
X122116021Y-108659856D01*
X122116296Y-108649856D01*
X122130990Y-108431338D01*
X122131254Y-108427403D01*
X122134173Y-108407627D01*
X122183005Y-108195218D01*
X122189016Y-108176151D01*
X122270825Y-107974150D01*
X122279776Y-107956273D01*
X122392510Y-107769746D01*
X122404176Y-107753511D01*
X122544986Y-107587171D01*
X122559072Y-107572985D01*
X122724427Y-107431002D01*
X122740580Y-107419223D01*
X122899509Y-107321638D01*
X122926303Y-107305186D01*
X122944114Y-107296110D01*
X123145547Y-107212879D01*
X123164571Y-107206735D01*
X123281683Y-107178943D01*
X123376622Y-107156413D01*
X123396369Y-107153356D01*
X123618739Y-107136832D01*
X123628727Y-107136488D01*
X125318645Y-107145359D01*
G37*
%TD.AperFunction*%
%TD*%
M02*
