G04 #@! TF.GenerationSoftware,KiCad,Pcbnew,(6.0.1)*
G04 #@! TF.CreationDate,2022-03-10T17:03:53-06:00*
G04 #@! TF.ProjectId,MPPT,4d505054-2e6b-4696-9361-645f70636258,1.4.0*
G04 #@! TF.SameCoordinates,PX10b1ae8PY9b06478*
G04 #@! TF.FileFunction,Soldermask,Top*
G04 #@! TF.FilePolarity,Negative*
%FSLAX46Y46*%
G04 Gerber Fmt 4.6, Leading zero omitted, Abs format (unit mm)*
G04 Created by KiCad (PCBNEW (6.0.1)) date 2022-03-10 17:03:53*
%MOMM*%
%LPD*%
G01*
G04 APERTURE LIST*
%ADD10C,1.270000*%
%ADD11O,2.020000X1.500000*%
%ADD12C,3.200000*%
%ADD13C,2.286000*%
%ADD14O,1.500000X2.020000*%
%ADD15C,2.000000*%
%ADD16C,4.000000*%
%ADD17R,2.000000X2.000000*%
%ADD18O,2.000000X2.000000*%
%ADD19C,2.500000*%
%ADD20R,1.530000X1.530000*%
%ADD21C,1.530000*%
%ADD22R,0.650000X1.800000*%
%ADD23R,1.700000X1.700000*%
%ADD24O,1.700000X1.700000*%
%ADD25C,2.200000*%
%ADD26R,4.000000X4.000000*%
%ADD27R,1.520000X2.160000*%
%ADD28R,1.508000X1.508000*%
%ADD29C,1.508000*%
%ADD30R,4.500000X2.500000*%
%ADD31O,4.500000X2.500000*%
%ADD32C,3.800000*%
G04 APERTURE END LIST*
D10*
X3990000Y111535000D03*
X3990000Y102535000D03*
G36*
G01*
X6709999Y104785000D02*
X5190001Y104785000D01*
G75*
G02*
X4940000Y105035001I0J250001D01*
G01*
X4940000Y106034999D01*
G75*
G02*
X5190001Y106285000I250001J0D01*
G01*
X6709999Y106285000D01*
G75*
G02*
X6960000Y106034999I0J-250001D01*
G01*
X6960000Y105035001D01*
G75*
G02*
X6709999Y104785000I-250001J0D01*
G01*
G37*
D11*
X5950000Y108535000D03*
D12*
X110490000Y10975000D03*
X86750000Y10975000D03*
D13*
X94810000Y13775000D03*
X94810000Y16315000D03*
X94810000Y21395000D03*
X102430000Y13775000D03*
X102430000Y21395000D03*
X102430000Y16315000D03*
D12*
X120015000Y4990000D03*
X4995000Y5085000D03*
X119995000Y140085000D03*
X4995000Y140085000D03*
D10*
X16730000Y18915000D03*
X1730000Y18915000D03*
G36*
G01*
X14480000Y21634999D02*
X14480000Y20115001D01*
G75*
G02*
X14229999Y19865000I-250001J0D01*
G01*
X13230001Y19865000D01*
G75*
G02*
X12980000Y20115001I0J250001D01*
G01*
X12980000Y21634999D01*
G75*
G02*
X13230001Y21885000I250001J0D01*
G01*
X14229999Y21885000D01*
G75*
G02*
X14480000Y21634999I0J-250001D01*
G01*
G37*
D14*
X10730000Y20875000D03*
X7730000Y20875000D03*
X4730000Y20875000D03*
D15*
X3715000Y98255000D03*
X3715000Y91755000D03*
X8215000Y91755000D03*
X8215000Y98255000D03*
D16*
X56280000Y82080000D03*
X81680000Y82080000D03*
G36*
G01*
X7135000Y29165000D02*
X7435000Y29165000D01*
G75*
G02*
X7585000Y29015000I0J-150000D01*
G01*
X7585000Y27840000D01*
G75*
G02*
X7435000Y27690000I-150000J0D01*
G01*
X7135000Y27690000D01*
G75*
G02*
X6985000Y27840000I0J150000D01*
G01*
X6985000Y29015000D01*
G75*
G02*
X7135000Y29165000I150000J0D01*
G01*
G37*
G36*
G01*
X5235000Y29165000D02*
X5535000Y29165000D01*
G75*
G02*
X5685000Y29015000I0J-150000D01*
G01*
X5685000Y27840000D01*
G75*
G02*
X5535000Y27690000I-150000J0D01*
G01*
X5235000Y27690000D01*
G75*
G02*
X5085000Y27840000I0J150000D01*
G01*
X5085000Y29015000D01*
G75*
G02*
X5235000Y29165000I150000J0D01*
G01*
G37*
G36*
G01*
X6185000Y27290000D02*
X6485000Y27290000D01*
G75*
G02*
X6635000Y27140000I0J-150000D01*
G01*
X6635000Y25965000D01*
G75*
G02*
X6485000Y25815000I-150000J0D01*
G01*
X6185000Y25815000D01*
G75*
G02*
X6035000Y25965000I0J150000D01*
G01*
X6035000Y27140000D01*
G75*
G02*
X6185000Y27290000I150000J0D01*
G01*
G37*
D17*
X71525000Y86845000D03*
D18*
X66445000Y86845000D03*
D10*
X16725000Y10115000D03*
X1725000Y10115000D03*
G36*
G01*
X14475000Y12834999D02*
X14475000Y11315001D01*
G75*
G02*
X14224999Y11065000I-250001J0D01*
G01*
X13225001Y11065000D01*
G75*
G02*
X12975000Y11315001I0J250001D01*
G01*
X12975000Y12834999D01*
G75*
G02*
X13225001Y13085000I250001J0D01*
G01*
X14224999Y13085000D01*
G75*
G02*
X14475000Y12834999I0J-250001D01*
G01*
G37*
D14*
X10725000Y12075000D03*
X7725000Y12075000D03*
X4725000Y12075000D03*
G36*
G01*
X36525000Y90542500D02*
X35625000Y90542500D01*
G75*
G02*
X35375000Y90792500I0J250000D01*
G01*
X35375000Y91317500D01*
G75*
G02*
X35625000Y91567500I250000J0D01*
G01*
X36525000Y91567500D01*
G75*
G02*
X36775000Y91317500I0J-250000D01*
G01*
X36775000Y90792500D01*
G75*
G02*
X36525000Y90542500I-250000J0D01*
G01*
G37*
G36*
G01*
X36525000Y92367500D02*
X35625000Y92367500D01*
G75*
G02*
X35375000Y92617500I0J250000D01*
G01*
X35375000Y93142500D01*
G75*
G02*
X35625000Y93392500I250000J0D01*
G01*
X36525000Y93392500D01*
G75*
G02*
X36775000Y93142500I0J-250000D01*
G01*
X36775000Y92617500D01*
G75*
G02*
X36525000Y92367500I-250000J0D01*
G01*
G37*
D19*
X37487500Y34805000D03*
X37487500Y10705000D03*
D17*
X66445000Y77300000D03*
D18*
X71525000Y77300000D03*
D19*
X49540000Y30600000D03*
X73640000Y30600000D03*
D16*
X77560000Y130865000D03*
X77560000Y105465000D03*
D10*
X31450000Y3635000D03*
X40450000Y3635000D03*
G36*
G01*
X38200000Y6354999D02*
X38200000Y4835001D01*
G75*
G02*
X37949999Y4585000I-250001J0D01*
G01*
X36950001Y4585000D01*
G75*
G02*
X36700000Y4835001I0J250001D01*
G01*
X36700000Y6354999D01*
G75*
G02*
X36950001Y6605000I250001J0D01*
G01*
X37949999Y6605000D01*
G75*
G02*
X38200000Y6354999I0J-250001D01*
G01*
G37*
D14*
X34450000Y5595000D03*
D20*
X13270000Y90590000D03*
D21*
X13270000Y88050000D03*
X13270000Y85510000D03*
X13270000Y82970000D03*
X13270000Y80430000D03*
X13270000Y77890000D03*
X13270000Y75350000D03*
X13270000Y72810000D03*
X13270000Y70270000D03*
X13270000Y67730000D03*
X13270000Y65190000D03*
X13270000Y62650000D03*
X13270000Y60110000D03*
X13270000Y57570000D03*
X13270000Y55030000D03*
X28510000Y55030000D03*
X28510000Y57570000D03*
X28510000Y60110000D03*
X28510000Y62650000D03*
X28510000Y65190000D03*
X28510000Y67730000D03*
X28510000Y70270000D03*
X28510000Y72810000D03*
X28510000Y75350000D03*
X28510000Y77890000D03*
X28510000Y80430000D03*
X28510000Y82970000D03*
X28510000Y85510000D03*
X28510000Y88050000D03*
D20*
X28510000Y90590000D03*
D17*
X82295000Y115570000D03*
D18*
X82295000Y120650000D03*
G36*
G01*
X10110000Y75176250D02*
X10110000Y74263750D01*
G75*
G02*
X9866250Y74020000I-243750J0D01*
G01*
X9378750Y74020000D01*
G75*
G02*
X9135000Y74263750I0J243750D01*
G01*
X9135000Y75176250D01*
G75*
G02*
X9378750Y75420000I243750J0D01*
G01*
X9866250Y75420000D01*
G75*
G02*
X10110000Y75176250I0J-243750D01*
G01*
G37*
G36*
G01*
X8235000Y75176250D02*
X8235000Y74263750D01*
G75*
G02*
X7991250Y74020000I-243750J0D01*
G01*
X7503750Y74020000D01*
G75*
G02*
X7260000Y74263750I0J243750D01*
G01*
X7260000Y75176250D01*
G75*
G02*
X7503750Y75420000I243750J0D01*
G01*
X7991250Y75420000D01*
G75*
G02*
X8235000Y75176250I0J-243750D01*
G01*
G37*
G36*
G01*
X10082500Y69401250D02*
X10082500Y68488750D01*
G75*
G02*
X9838750Y68245000I-243750J0D01*
G01*
X9351250Y68245000D01*
G75*
G02*
X9107500Y68488750I0J243750D01*
G01*
X9107500Y69401250D01*
G75*
G02*
X9351250Y69645000I243750J0D01*
G01*
X9838750Y69645000D01*
G75*
G02*
X10082500Y69401250I0J-243750D01*
G01*
G37*
G36*
G01*
X8207500Y69401250D02*
X8207500Y68488750D01*
G75*
G02*
X7963750Y68245000I-243750J0D01*
G01*
X7476250Y68245000D01*
G75*
G02*
X7232500Y68488750I0J243750D01*
G01*
X7232500Y69401250D01*
G75*
G02*
X7476250Y69645000I243750J0D01*
G01*
X7963750Y69645000D01*
G75*
G02*
X8207500Y69401250I0J-243750D01*
G01*
G37*
D22*
X15285000Y45937500D03*
X14015000Y45937500D03*
X12745000Y45937500D03*
X11475000Y45937500D03*
X10205000Y45937500D03*
X8935000Y45937500D03*
X7665000Y45937500D03*
X6395000Y45937500D03*
X5125000Y45937500D03*
X3855000Y45937500D03*
X3855000Y36487500D03*
X5125000Y36487500D03*
X6395000Y36487500D03*
X7665000Y36487500D03*
X8935000Y36487500D03*
X10205000Y36487500D03*
X11475000Y36487500D03*
X12745000Y36487500D03*
X14015000Y36487500D03*
X15285000Y36487500D03*
G36*
G01*
X16431250Y30895000D02*
X15668750Y30895000D01*
G75*
G02*
X15450000Y31113750I0J218750D01*
G01*
X15450000Y31551250D01*
G75*
G02*
X15668750Y31770000I218750J0D01*
G01*
X16431250Y31770000D01*
G75*
G02*
X16650000Y31551250I0J-218750D01*
G01*
X16650000Y31113750D01*
G75*
G02*
X16431250Y30895000I-218750J0D01*
G01*
G37*
G36*
G01*
X16431250Y33020000D02*
X15668750Y33020000D01*
G75*
G02*
X15450000Y33238750I0J218750D01*
G01*
X15450000Y33676250D01*
G75*
G02*
X15668750Y33895000I218750J0D01*
G01*
X16431250Y33895000D01*
G75*
G02*
X16650000Y33676250I0J-218750D01*
G01*
X16650000Y33238750D01*
G75*
G02*
X16431250Y33020000I-218750J0D01*
G01*
G37*
G36*
G01*
X10095000Y60571250D02*
X10095000Y59658750D01*
G75*
G02*
X9851250Y59415000I-243750J0D01*
G01*
X9363750Y59415000D01*
G75*
G02*
X9120000Y59658750I0J243750D01*
G01*
X9120000Y60571250D01*
G75*
G02*
X9363750Y60815000I243750J0D01*
G01*
X9851250Y60815000D01*
G75*
G02*
X10095000Y60571250I0J-243750D01*
G01*
G37*
G36*
G01*
X8220000Y60571250D02*
X8220000Y59658750D01*
G75*
G02*
X7976250Y59415000I-243750J0D01*
G01*
X7488750Y59415000D01*
G75*
G02*
X7245000Y59658750I0J243750D01*
G01*
X7245000Y60571250D01*
G75*
G02*
X7488750Y60815000I243750J0D01*
G01*
X7976250Y60815000D01*
G75*
G02*
X8220000Y60571250I0J-243750D01*
G01*
G37*
G36*
G01*
X14206250Y30880000D02*
X13443750Y30880000D01*
G75*
G02*
X13225000Y31098750I0J218750D01*
G01*
X13225000Y31536250D01*
G75*
G02*
X13443750Y31755000I218750J0D01*
G01*
X14206250Y31755000D01*
G75*
G02*
X14425000Y31536250I0J-218750D01*
G01*
X14425000Y31098750D01*
G75*
G02*
X14206250Y30880000I-218750J0D01*
G01*
G37*
G36*
G01*
X14206250Y33005000D02*
X13443750Y33005000D01*
G75*
G02*
X13225000Y33223750I0J218750D01*
G01*
X13225000Y33661250D01*
G75*
G02*
X13443750Y33880000I218750J0D01*
G01*
X14206250Y33880000D01*
G75*
G02*
X14425000Y33661250I0J-218750D01*
G01*
X14425000Y33223750D01*
G75*
G02*
X14206250Y33005000I-218750J0D01*
G01*
G37*
G36*
G01*
X10095000Y66446250D02*
X10095000Y65533750D01*
G75*
G02*
X9851250Y65290000I-243750J0D01*
G01*
X9363750Y65290000D01*
G75*
G02*
X9120000Y65533750I0J243750D01*
G01*
X9120000Y66446250D01*
G75*
G02*
X9363750Y66690000I243750J0D01*
G01*
X9851250Y66690000D01*
G75*
G02*
X10095000Y66446250I0J-243750D01*
G01*
G37*
G36*
G01*
X8220000Y66446250D02*
X8220000Y65533750D01*
G75*
G02*
X7976250Y65290000I-243750J0D01*
G01*
X7488750Y65290000D01*
G75*
G02*
X7245000Y65533750I0J243750D01*
G01*
X7245000Y66446250D01*
G75*
G02*
X7488750Y66690000I243750J0D01*
G01*
X7976250Y66690000D01*
G75*
G02*
X8220000Y66446250I0J-243750D01*
G01*
G37*
G36*
G01*
X28660000Y26730000D02*
X30700000Y26730000D01*
G75*
G02*
X30950000Y26480000I0J-250000D01*
G01*
X30950000Y25980000D01*
G75*
G02*
X30700000Y25730000I-250000J0D01*
G01*
X28660000Y25730000D01*
G75*
G02*
X28410000Y25980000I0J250000D01*
G01*
X28410000Y26480000D01*
G75*
G02*
X28660000Y26730000I250000J0D01*
G01*
G37*
G36*
G01*
X28660000Y29270000D02*
X30700000Y29270000D01*
G75*
G02*
X30950000Y29020000I0J-250000D01*
G01*
X30950000Y28520000D01*
G75*
G02*
X30700000Y28270000I-250000J0D01*
G01*
X28660000Y28270000D01*
G75*
G02*
X28410000Y28520000I0J250000D01*
G01*
X28410000Y29020000D01*
G75*
G02*
X28660000Y29270000I250000J0D01*
G01*
G37*
G36*
G01*
X28660000Y34350000D02*
X30700000Y34350000D01*
G75*
G02*
X30950000Y34100000I0J-250000D01*
G01*
X30950000Y33600000D01*
G75*
G02*
X30700000Y33350000I-250000J0D01*
G01*
X28660000Y33350000D01*
G75*
G02*
X28410000Y33600000I0J250000D01*
G01*
X28410000Y34100000D01*
G75*
G02*
X28660000Y34350000I250000J0D01*
G01*
G37*
G36*
G01*
X18500000Y34350000D02*
X20540000Y34350000D01*
G75*
G02*
X20790000Y34100000I0J-250000D01*
G01*
X20790000Y33600000D01*
G75*
G02*
X20540000Y33350000I-250000J0D01*
G01*
X18500000Y33350000D01*
G75*
G02*
X18250000Y33600000I0J250000D01*
G01*
X18250000Y34100000D01*
G75*
G02*
X18500000Y34350000I250000J0D01*
G01*
G37*
G36*
G01*
X18500000Y26730000D02*
X20540000Y26730000D01*
G75*
G02*
X20790000Y26480000I0J-250000D01*
G01*
X20790000Y25980000D01*
G75*
G02*
X20540000Y25730000I-250000J0D01*
G01*
X18500000Y25730000D01*
G75*
G02*
X18250000Y25980000I0J250000D01*
G01*
X18250000Y26480000D01*
G75*
G02*
X18500000Y26730000I250000J0D01*
G01*
G37*
D16*
X50025000Y105470000D03*
X50025000Y130870000D03*
D23*
X12760000Y27422500D03*
D24*
X15300000Y27422500D03*
G36*
G01*
X113131250Y28335000D02*
X112218750Y28335000D01*
G75*
G02*
X111975000Y28578750I0J243750D01*
G01*
X111975000Y29066250D01*
G75*
G02*
X112218750Y29310000I243750J0D01*
G01*
X113131250Y29310000D01*
G75*
G02*
X113375000Y29066250I0J-243750D01*
G01*
X113375000Y28578750D01*
G75*
G02*
X113131250Y28335000I-243750J0D01*
G01*
G37*
G36*
G01*
X113131250Y30210000D02*
X112218750Y30210000D01*
G75*
G02*
X111975000Y30453750I0J243750D01*
G01*
X111975000Y30941250D01*
G75*
G02*
X112218750Y31185000I243750J0D01*
G01*
X113131250Y31185000D01*
G75*
G02*
X113375000Y30941250I0J-243750D01*
G01*
X113375000Y30453750D01*
G75*
G02*
X113131250Y30210000I-243750J0D01*
G01*
G37*
D25*
X93470000Y121230000D03*
X108470000Y121230000D03*
D26*
X108065000Y52120000D03*
D16*
X98065000Y52120000D03*
D27*
X6985000Y87200000D03*
X4445000Y87200000D03*
X4445000Y78940000D03*
X6985000Y78940000D03*
G36*
G01*
X10100000Y63566250D02*
X10100000Y62653750D01*
G75*
G02*
X9856250Y62410000I-243750J0D01*
G01*
X9368750Y62410000D01*
G75*
G02*
X9125000Y62653750I0J243750D01*
G01*
X9125000Y63566250D01*
G75*
G02*
X9368750Y63810000I243750J0D01*
G01*
X9856250Y63810000D01*
G75*
G02*
X10100000Y63566250I0J-243750D01*
G01*
G37*
G36*
G01*
X8225000Y63566250D02*
X8225000Y62653750D01*
G75*
G02*
X7981250Y62410000I-243750J0D01*
G01*
X7493750Y62410000D01*
G75*
G02*
X7250000Y62653750I0J243750D01*
G01*
X7250000Y63566250D01*
G75*
G02*
X7493750Y63810000I243750J0D01*
G01*
X7981250Y63810000D01*
G75*
G02*
X8225000Y63566250I0J-243750D01*
G01*
G37*
G36*
G01*
X24182500Y18913750D02*
X24182500Y19826250D01*
G75*
G02*
X24426250Y20070000I243750J0D01*
G01*
X24913750Y20070000D01*
G75*
G02*
X25157500Y19826250I0J-243750D01*
G01*
X25157500Y18913750D01*
G75*
G02*
X24913750Y18670000I-243750J0D01*
G01*
X24426250Y18670000D01*
G75*
G02*
X24182500Y18913750I0J243750D01*
G01*
G37*
G36*
G01*
X26057500Y18913750D02*
X26057500Y19826250D01*
G75*
G02*
X26301250Y20070000I243750J0D01*
G01*
X26788750Y20070000D01*
G75*
G02*
X27032500Y19826250I0J-243750D01*
G01*
X27032500Y18913750D01*
G75*
G02*
X26788750Y18670000I-243750J0D01*
G01*
X26301250Y18670000D01*
G75*
G02*
X26057500Y18913750I0J243750D01*
G01*
G37*
D28*
X20457500Y10820000D03*
D29*
X22997500Y10820000D03*
X25537500Y10820000D03*
X28077500Y10820000D03*
G36*
G01*
X21295000Y38863750D02*
X21295000Y39776250D01*
G75*
G02*
X21538750Y40020000I243750J0D01*
G01*
X22026250Y40020000D01*
G75*
G02*
X22270000Y39776250I0J-243750D01*
G01*
X22270000Y38863750D01*
G75*
G02*
X22026250Y38620000I-243750J0D01*
G01*
X21538750Y38620000D01*
G75*
G02*
X21295000Y38863750I0J243750D01*
G01*
G37*
G36*
G01*
X23170000Y38863750D02*
X23170000Y39776250D01*
G75*
G02*
X23413750Y40020000I243750J0D01*
G01*
X23901250Y40020000D01*
G75*
G02*
X24145000Y39776250I0J-243750D01*
G01*
X24145000Y38863750D01*
G75*
G02*
X23901250Y38620000I-243750J0D01*
G01*
X23413750Y38620000D01*
G75*
G02*
X23170000Y38863750I0J243750D01*
G01*
G37*
D30*
X46020000Y123625000D03*
D31*
X46020000Y118175000D03*
X46020000Y112725000D03*
D12*
X73210000Y11040000D03*
X49470000Y11040000D03*
D13*
X57530000Y16380000D03*
X57530000Y13840000D03*
X57530000Y21460000D03*
X65150000Y21460000D03*
X65150000Y13840000D03*
X65150000Y16380000D03*
D17*
X72765000Y120650000D03*
D18*
X72765000Y115570000D03*
D30*
X53930000Y112755000D03*
D31*
X53930000Y118205000D03*
X53930000Y123655000D03*
D32*
X116085000Y92760000D03*
X94285000Y92760000D03*
G36*
G01*
X78406250Y28252500D02*
X77493750Y28252500D01*
G75*
G02*
X77250000Y28496250I0J243750D01*
G01*
X77250000Y28983750D01*
G75*
G02*
X77493750Y29227500I243750J0D01*
G01*
X78406250Y29227500D01*
G75*
G02*
X78650000Y28983750I0J-243750D01*
G01*
X78650000Y28496250D01*
G75*
G02*
X78406250Y28252500I-243750J0D01*
G01*
G37*
G36*
G01*
X78406250Y30127500D02*
X77493750Y30127500D01*
G75*
G02*
X77250000Y30371250I0J243750D01*
G01*
X77250000Y30858750D01*
G75*
G02*
X77493750Y31102500I243750J0D01*
G01*
X78406250Y31102500D01*
G75*
G02*
X78650000Y30858750I0J-243750D01*
G01*
X78650000Y30371250D01*
G75*
G02*
X78406250Y30127500I-243750J0D01*
G01*
G37*
D19*
X108165000Y30681000D03*
X84065000Y30681000D03*
G36*
G01*
X36070000Y82235000D02*
X35770000Y82235000D01*
G75*
G02*
X35620000Y82385000I0J150000D01*
G01*
X35620000Y84035000D01*
G75*
G02*
X35770000Y84185000I150000J0D01*
G01*
X36070000Y84185000D01*
G75*
G02*
X36220000Y84035000I0J-150000D01*
G01*
X36220000Y82385000D01*
G75*
G02*
X36070000Y82235000I-150000J0D01*
G01*
G37*
G36*
G01*
X37340000Y82235000D02*
X37040000Y82235000D01*
G75*
G02*
X36890000Y82385000I0J150000D01*
G01*
X36890000Y84035000D01*
G75*
G02*
X37040000Y84185000I150000J0D01*
G01*
X37340000Y84185000D01*
G75*
G02*
X37490000Y84035000I0J-150000D01*
G01*
X37490000Y82385000D01*
G75*
G02*
X37340000Y82235000I-150000J0D01*
G01*
G37*
G36*
G01*
X38610000Y82235000D02*
X38310000Y82235000D01*
G75*
G02*
X38160000Y82385000I0J150000D01*
G01*
X38160000Y84035000D01*
G75*
G02*
X38310000Y84185000I150000J0D01*
G01*
X38610000Y84185000D01*
G75*
G02*
X38760000Y84035000I0J-150000D01*
G01*
X38760000Y82385000D01*
G75*
G02*
X38610000Y82235000I-150000J0D01*
G01*
G37*
G36*
G01*
X39880000Y82235000D02*
X39580000Y82235000D01*
G75*
G02*
X39430000Y82385000I0J150000D01*
G01*
X39430000Y84035000D01*
G75*
G02*
X39580000Y84185000I150000J0D01*
G01*
X39880000Y84185000D01*
G75*
G02*
X40030000Y84035000I0J-150000D01*
G01*
X40030000Y82385000D01*
G75*
G02*
X39880000Y82235000I-150000J0D01*
G01*
G37*
G36*
G01*
X39880000Y87185000D02*
X39580000Y87185000D01*
G75*
G02*
X39430000Y87335000I0J150000D01*
G01*
X39430000Y88985000D01*
G75*
G02*
X39580000Y89135000I150000J0D01*
G01*
X39880000Y89135000D01*
G75*
G02*
X40030000Y88985000I0J-150000D01*
G01*
X40030000Y87335000D01*
G75*
G02*
X39880000Y87185000I-150000J0D01*
G01*
G37*
G36*
G01*
X38610000Y87185000D02*
X38310000Y87185000D01*
G75*
G02*
X38160000Y87335000I0J150000D01*
G01*
X38160000Y88985000D01*
G75*
G02*
X38310000Y89135000I150000J0D01*
G01*
X38610000Y89135000D01*
G75*
G02*
X38760000Y88985000I0J-150000D01*
G01*
X38760000Y87335000D01*
G75*
G02*
X38610000Y87185000I-150000J0D01*
G01*
G37*
G36*
G01*
X37340000Y87185000D02*
X37040000Y87185000D01*
G75*
G02*
X36890000Y87335000I0J150000D01*
G01*
X36890000Y88985000D01*
G75*
G02*
X37040000Y89135000I150000J0D01*
G01*
X37340000Y89135000D01*
G75*
G02*
X37490000Y88985000I0J-150000D01*
G01*
X37490000Y87335000D01*
G75*
G02*
X37340000Y87185000I-150000J0D01*
G01*
G37*
G36*
G01*
X36070000Y87185000D02*
X35770000Y87185000D01*
G75*
G02*
X35620000Y87335000I0J150000D01*
G01*
X35620000Y88985000D01*
G75*
G02*
X35770000Y89135000I150000J0D01*
G01*
X36070000Y89135000D01*
G75*
G02*
X36220000Y88985000I0J-150000D01*
G01*
X36220000Y87335000D01*
G75*
G02*
X36070000Y87185000I-150000J0D01*
G01*
G37*
G36*
G01*
X10100000Y72281250D02*
X10100000Y71368750D01*
G75*
G02*
X9856250Y71125000I-243750J0D01*
G01*
X9368750Y71125000D01*
G75*
G02*
X9125000Y71368750I0J243750D01*
G01*
X9125000Y72281250D01*
G75*
G02*
X9368750Y72525000I243750J0D01*
G01*
X9856250Y72525000D01*
G75*
G02*
X10100000Y72281250I0J-243750D01*
G01*
G37*
G36*
G01*
X8225000Y72281250D02*
X8225000Y71368750D01*
G75*
G02*
X7981250Y71125000I-243750J0D01*
G01*
X7493750Y71125000D01*
G75*
G02*
X7250000Y71368750I0J243750D01*
G01*
X7250000Y72281250D01*
G75*
G02*
X7493750Y72525000I243750J0D01*
G01*
X7981250Y72525000D01*
G75*
G02*
X8225000Y72281250I0J-243750D01*
G01*
G37*
D26*
X66720000Y52410000D03*
D16*
X56720000Y52410000D03*
M02*
