%FSLAX45Y45*%
G04 Gerber Fmt 4.5, Leading zero omitted, Abs format (unit mm)*
G04 Created by KiCad (PCBNEW (6.0.1)) date 2022-02-17 13:59:49*
%MOMM*%
%LPD*%
G01*
G04 APERTURE LIST*
%TA.AperFunction,Profile*%
%ADD10C,0.150000*%
%TD*%
%ADD11C,0.200000*%
%ADD12C,0.030000*%
%ADD13C,0.040000*%
%ADD14C,0.050000*%
%ADD15C,0.100000*%
%ADD16C,0.102000*%
%ADD17C,0.110000*%
%ADD18C,0.132080*%
%ADD19C,0.140000*%
%ADD20C,0.150000*%
%ADD21C,0.190000*%
%ADD22C,0.250000*%
G04 APERTURE END LIST*
D10*
X11999500Y14508500D02*
X499500Y14508500D01*
X12499500Y508500D02*
X12499500Y14008500D01*
X12499500Y14008500D02*
G75*
G03*
X11999500Y14508500I-500000J0D01*
G01*
X-500Y508500D02*
G75*
G03*
X499500Y8500I499503J-497D01*
G01*
X499500Y14508500D02*
G75*
G03*
X-500Y14008500I-2J-499998D01*
G01*
X11999500Y8500D02*
X499500Y8500D01*
X-500Y508500D02*
X-500Y14008500D01*
X11999500Y8500D02*
G75*
G03*
X12499500Y508500I0J500000D01*
G01*
D11*
D12*
X296250Y3377750D02*
X326250Y3347750D01*
X326250Y3377750D02*
X296250Y3347750D01*
X369000Y4396000D02*
X399000Y4366000D01*
X399000Y4396000D02*
X369000Y4366000D01*
X432000Y8506500D02*
X462000Y8476500D01*
X462000Y8506500D02*
X432000Y8476500D01*
X457500Y3952250D02*
X487500Y3922250D01*
X487500Y3952250D02*
X457500Y3922250D01*
X478750Y3377750D02*
X508750Y3347750D01*
X508750Y3377750D02*
X478750Y3347750D01*
X523500Y2857750D02*
X553500Y2827750D01*
X553500Y2857750D02*
X523500Y2827750D01*
X618500Y2670250D02*
X648500Y2640250D01*
X648500Y2670250D02*
X618500Y2640250D01*
X657000Y3952250D02*
X687000Y3922250D01*
X687000Y3952250D02*
X657000Y3922250D01*
X685500Y8506500D02*
X715500Y8476500D01*
X715500Y8506500D02*
X685500Y8476500D01*
X713500Y2857750D02*
X743500Y2827750D01*
X743500Y2857750D02*
X713500Y2827750D01*
X758250Y6026500D02*
X788250Y5996500D01*
X788250Y6026500D02*
X758250Y5996500D01*
X759000Y6910000D02*
X789000Y6880000D01*
X789000Y6910000D02*
X759000Y6880000D01*
X761500Y6614500D02*
X791500Y6584500D01*
X791500Y6614500D02*
X761500Y6584500D01*
X761750Y7488500D02*
X791750Y7458500D01*
X791750Y7488500D02*
X761750Y7458500D01*
X761750Y7197500D02*
X791750Y7167500D01*
X791750Y7197500D02*
X761750Y7167500D01*
X761750Y6325500D02*
X791750Y6295500D01*
X791750Y6325500D02*
X761750Y6295500D01*
X813500Y3376750D02*
X843500Y3346750D01*
X843500Y3376750D02*
X813500Y3346750D01*
X813500Y3127750D02*
X843500Y3097750D01*
X843500Y3127750D02*
X813500Y3097750D01*
X857000Y3952250D02*
X887000Y3922250D01*
X887000Y3952250D02*
X857000Y3922250D01*
X883000Y7684500D02*
X913000Y7654500D01*
X913000Y7684500D02*
X883000Y7654500D01*
X990500Y7687000D02*
X1020500Y7657000D01*
X1020500Y7687000D02*
X990500Y7657000D01*
X1003500Y3376750D02*
X1033500Y3346750D01*
X1033500Y3376750D02*
X1003500Y3346750D01*
X1003500Y3127750D02*
X1033500Y3097750D01*
X1033500Y3127750D02*
X1003500Y3097750D01*
X1022000Y8975000D02*
X1052000Y8945000D01*
X1052000Y8975000D02*
X1022000Y8945000D01*
X1058000Y3952750D02*
X1088000Y3922750D01*
X1088000Y3952750D02*
X1058000Y3922750D01*
X1079500Y7263500D02*
X1109500Y7233500D01*
X1109500Y7263500D02*
X1079500Y7233500D01*
X1083500Y6405500D02*
X1113500Y6375500D01*
X1113500Y6405500D02*
X1083500Y6375500D01*
X1084500Y7129000D02*
X1114500Y7099000D01*
X1114500Y7129000D02*
X1084500Y7099000D01*
X1085000Y6547000D02*
X1115000Y6517000D01*
X1115000Y6547000D02*
X1085000Y6517000D01*
X1086000Y6283500D02*
X1116000Y6253500D01*
X1116000Y6283500D02*
X1086000Y6253500D01*
X1086000Y5878500D02*
X1116000Y5848500D01*
X1116000Y5878500D02*
X1086000Y5848500D01*
X1087000Y6973500D02*
X1117000Y6943500D01*
X1117000Y6973500D02*
X1087000Y6943500D01*
X1087000Y6830000D02*
X1117000Y6800000D01*
X1117000Y6830000D02*
X1087000Y6800000D01*
X1087500Y6660000D02*
X1117500Y6630000D01*
X1117500Y6660000D02*
X1087500Y6630000D01*
X1088000Y10571000D02*
X1118000Y10541000D01*
X1118000Y10571000D02*
X1088000Y10541000D01*
X1088000Y10295500D02*
X1118000Y10265500D01*
X1118000Y10295500D02*
X1088000Y10265500D01*
X1192000Y4938000D02*
X1222000Y4908000D01*
X1222000Y4938000D02*
X1192000Y4908000D01*
X1259000Y3952250D02*
X1289000Y3922250D01*
X1289000Y3952250D02*
X1259000Y3922250D01*
X1366000Y3359250D02*
X1396000Y3329250D01*
X1396000Y3359250D02*
X1366000Y3329250D01*
X1367500Y3146750D02*
X1397500Y3116750D01*
X1397500Y3146750D02*
X1367500Y3116750D01*
X1370500Y5111500D02*
X1400500Y5081500D01*
X1400500Y5111500D02*
X1370500Y5081500D01*
X1387500Y4394750D02*
X1417500Y4364750D01*
X1417500Y4394750D02*
X1387500Y4364750D01*
X1460000Y3952250D02*
X1490000Y3922250D01*
X1490000Y3952250D02*
X1460000Y3922250D01*
X1511000Y4391750D02*
X1541000Y4361750D01*
X1541000Y4391750D02*
X1511000Y4361750D01*
X1590000Y3360750D02*
X1620000Y3330750D01*
X1620000Y3360750D02*
X1590000Y3330750D01*
X1590000Y3148250D02*
X1620000Y3118250D01*
X1620000Y3148250D02*
X1590000Y3118250D01*
X1606000Y5021500D02*
X1636000Y4991500D01*
X1636000Y5021500D02*
X1606000Y4991500D01*
X1609000Y5319500D02*
X1639000Y5289500D01*
X1639000Y5319500D02*
X1609000Y5289500D01*
X1638500Y6664000D02*
X1668500Y6634000D01*
X1668500Y6664000D02*
X1638500Y6634000D01*
X1725000Y5494500D02*
X1755000Y5464500D01*
X1755000Y5494500D02*
X1725000Y5464500D01*
X1830500Y6667500D02*
X1860500Y6637500D01*
X1860500Y6667500D02*
X1830500Y6637500D01*
X2042500Y5625000D02*
X2072500Y5595000D01*
X2072500Y5625000D02*
X2042500Y5595000D01*
X2043000Y5022000D02*
X2073000Y4992000D01*
X2073000Y5022000D02*
X2043000Y4992000D01*
X2043500Y5324000D02*
X2073500Y5294000D01*
X2073500Y5324000D02*
X2043500Y5294000D01*
X2298500Y5328000D02*
X2328500Y5298000D01*
X2328500Y5328000D02*
X2298500Y5298000D01*
X2299000Y5024000D02*
X2329000Y4994000D01*
X2329000Y5024000D02*
X2299000Y4994000D01*
X2303000Y6670000D02*
X2333000Y6640000D01*
X2333000Y6670000D02*
X2303000Y6640000D01*
X2348750Y3947000D02*
X2378750Y3917000D01*
X2378750Y3947000D02*
X2348750Y3917000D01*
X2452000Y1952000D02*
X2482000Y1922000D01*
X2482000Y1952000D02*
X2452000Y1922000D01*
X2531500Y6668000D02*
X2561500Y6638000D01*
X2561500Y6668000D02*
X2531500Y6638000D01*
X2639500Y1952000D02*
X2669500Y1922000D01*
X2669500Y1952000D02*
X2639500Y1922000D01*
X2792750Y1948250D02*
X2822750Y1918250D01*
X2822750Y1948250D02*
X2792750Y1918250D01*
X2792750Y1690250D02*
X2822750Y1660250D01*
X2822750Y1690250D02*
X2792750Y1660250D01*
X2792750Y1396750D02*
X2822750Y1366750D01*
X2822750Y1396750D02*
X2792750Y1366750D01*
X3112000Y7552000D02*
X3142000Y7522000D01*
X3142000Y7552000D02*
X3112000Y7522000D01*
X3112500Y7045000D02*
X3142500Y7015000D01*
X3142500Y7045000D02*
X3112500Y7015000D01*
X3113000Y6535500D02*
X3143000Y6505500D01*
X3143000Y6535500D02*
X3113000Y6505500D01*
X3114500Y7300500D02*
X3144500Y7270500D01*
X3144500Y7300500D02*
X3114500Y7270500D01*
X3115000Y7803500D02*
X3145000Y7773500D01*
X3145000Y7803500D02*
X3115000Y7773500D01*
X3297000Y9141000D02*
X3327000Y9111000D01*
X3327000Y9141000D02*
X3297000Y9111000D01*
X3476000Y6534000D02*
X3506000Y6504000D01*
X3506000Y6534000D02*
X3476000Y6504000D01*
X3485000Y7804000D02*
X3515000Y7774000D01*
X3515000Y7804000D02*
X3485000Y7774000D01*
X3487000Y7045000D02*
X3517000Y7015000D01*
X3517000Y7045000D02*
X3487000Y7015000D01*
X3490500Y7298000D02*
X3520500Y7268000D01*
X3520500Y7298000D02*
X3490500Y7268000D01*
X3495000Y7552000D02*
X3525000Y7522000D01*
X3525000Y7552000D02*
X3495000Y7522000D01*
X3592500Y9303000D02*
X3622500Y9273000D01*
X3622500Y9303000D02*
X3592500Y9273000D01*
X3597000Y6912000D02*
X3627000Y6882000D01*
X3627000Y6912000D02*
X3597000Y6882000D01*
X3751500Y8008000D02*
X3781500Y7978000D01*
X3781500Y8008000D02*
X3751500Y7978000D01*
X4041000Y7703500D02*
X4071000Y7673500D01*
X4071000Y7703500D02*
X4041000Y7673500D01*
X4305000Y4090500D02*
X4335000Y4060500D01*
X4335000Y4090500D02*
X4305000Y4060500D01*
X4305000Y3561000D02*
X4335000Y3531000D01*
X4335000Y3561000D02*
X4305000Y3531000D01*
X4313500Y4990000D02*
X4343500Y4960000D01*
X4343500Y4990000D02*
X4313500Y4960000D01*
X4474000Y4089000D02*
X4504000Y4059000D01*
X4504000Y4089000D02*
X4474000Y4059000D01*
X4476000Y3561000D02*
X4506000Y3531000D01*
X4506000Y3561000D02*
X4476000Y3531000D01*
X4591000Y4979612D02*
X4621000Y4949612D01*
X4621000Y4979612D02*
X4591000Y4949612D01*
X4644000Y3962500D02*
X4674000Y3932500D01*
X4674000Y3962500D02*
X4644000Y3932500D01*
X4759000Y4676512D02*
X4789000Y4646512D01*
X4789000Y4676512D02*
X4759000Y4646512D01*
X4759000Y4156500D02*
X4789000Y4126500D01*
X4789000Y4156500D02*
X4759000Y4126500D01*
X4860000Y3961000D02*
X4890000Y3931000D01*
X4890000Y3961000D02*
X4860000Y3931000D01*
X4949000Y4447500D02*
X4979000Y4417500D01*
X4979000Y4447500D02*
X4949000Y4417500D01*
X5221000Y4403750D02*
X5251000Y4373750D01*
X5251000Y4403750D02*
X5221000Y4373750D01*
X5758000Y2682600D02*
X5788000Y2652600D01*
X5788000Y2682600D02*
X5758000Y2652600D01*
X7781000Y3074250D02*
X7811000Y3044250D01*
X7811000Y3074250D02*
X7781000Y3044250D01*
X8747500Y11538500D02*
X8777500Y11508500D01*
X8777500Y11538500D02*
X8747500Y11508500D01*
X9722500Y12136000D02*
X9752500Y12106000D01*
X9752500Y12136000D02*
X9722500Y12106000D01*
X11251500Y3082750D02*
X11281500Y3052750D01*
X11281500Y3082750D02*
X11251500Y3052750D01*
X11264500Y4165000D02*
X11294500Y4135000D01*
X11294500Y4165000D02*
X11264500Y4135000D01*
X11535000Y4117000D02*
X11565000Y4087000D01*
X11565000Y4117000D02*
X11535000Y4087000D01*
X11726500Y3889750D02*
X11756500Y3859750D01*
X11756500Y3889750D02*
X11726500Y3859750D01*
X11901000Y3296000D02*
X11931000Y3266000D01*
X11931000Y3296000D02*
X11901000Y3266000D01*
D13*
X2199500Y3931000D02*
G75*
G03*
X2199500Y3931000I-20000J0D01*
G01*
X5441500Y3149600D02*
G75*
G03*
X5441500Y3149600I-20000J0D01*
G01*
X6191500Y3099550D02*
G75*
G03*
X6191500Y3099550I-20000J0D01*
G01*
X6194000Y2954650D02*
G75*
G03*
X6194000Y2954650I-20000J0D01*
G01*
X7479000Y761500D02*
G75*
G03*
X7479000Y761500I-20000J0D01*
G01*
X7918500Y762000D02*
G75*
G03*
X7918500Y762000I-20000J0D01*
G01*
X8017500Y3154000D02*
G75*
G03*
X8017500Y3154000I-20000J0D01*
G01*
X8250560Y3378810D02*
G75*
G03*
X8250560Y3378810I-20000J0D01*
G01*
X8621250Y2110250D02*
G75*
G03*
X8621250Y2110250I-20000J0D01*
G01*
X8903000Y3156250D02*
G75*
G03*
X8903000Y3156250I-20000J0D01*
G01*
X11014000Y4149500D02*
G75*
G03*
X11014000Y4149500I-20000J0D01*
G01*
X11026500Y758500D02*
G75*
G03*
X11026500Y758500I-20000J0D01*
G01*
X11451000Y760500D02*
G75*
G03*
X11451000Y760500I-20000J0D01*
G01*
X12113500Y3760500D02*
G75*
G03*
X12113500Y3760500I-20000J0D01*
G01*
D14*
X255500Y13269500D02*
X255500Y13219500D01*
X230500Y13244500D02*
X280500Y13244500D01*
X255500Y12519500D02*
X255500Y12469500D01*
X230500Y12494500D02*
X280500Y12494500D01*
X255500Y11769500D02*
X255500Y11719500D01*
X230500Y11744500D02*
X280500Y11744500D01*
X255500Y8769500D02*
X255500Y8719500D01*
X230500Y8744500D02*
X280500Y8744500D01*
X255500Y8019500D02*
X255500Y7969500D01*
X230500Y7994500D02*
X280500Y7994500D01*
X255500Y7269500D02*
X255500Y7219500D01*
X230500Y7244500D02*
X280500Y7244500D01*
X255500Y6519500D02*
X255500Y6469500D01*
X230500Y6494500D02*
X280500Y6494500D01*
X255500Y5769500D02*
X255500Y5719500D01*
X230500Y5744500D02*
X280500Y5744500D01*
X255500Y5019500D02*
X255500Y4969500D01*
X230500Y4994500D02*
X280500Y4994500D01*
X255500Y4269500D02*
X255500Y4219500D01*
X230500Y4244500D02*
X280500Y4244500D01*
X273500Y2361000D02*
X273500Y2311000D01*
X248500Y2336000D02*
X298500Y2336000D01*
X1005500Y14019500D02*
X1005500Y13969500D01*
X980500Y13994500D02*
X1030500Y13994500D01*
X1005500Y11769500D02*
X1005500Y11719500D01*
X980500Y11744500D02*
X1030500Y11744500D01*
X1005500Y11019500D02*
X1005500Y10969500D01*
X980500Y10994500D02*
X1030500Y10994500D01*
X1005500Y5769500D02*
X1005500Y5719500D01*
X980500Y5744500D02*
X1030500Y5744500D01*
X1005500Y4269500D02*
X1005500Y4219500D01*
X980500Y4244500D02*
X1030500Y4244500D01*
X1245000Y573500D02*
X1245000Y523500D01*
X1220000Y548500D02*
X1270000Y548500D01*
X1568500Y7203500D02*
X1568500Y7153500D01*
X1543500Y7178500D02*
X1593500Y7178500D01*
X1569500Y6158000D02*
X1569500Y6108000D01*
X1544500Y6133000D02*
X1594500Y6133000D01*
X1747000Y280000D02*
X1747000Y230000D01*
X1722000Y255000D02*
X1772000Y255000D01*
X1755500Y14019500D02*
X1755500Y13969500D01*
X1730500Y13994500D02*
X1780500Y13994500D01*
X1755500Y9519500D02*
X1755500Y9469500D01*
X1730500Y9494500D02*
X1780500Y9494500D01*
X1755500Y8769500D02*
X1755500Y8719500D01*
X1730500Y8744500D02*
X1780500Y8744500D01*
X1755500Y4269500D02*
X1755500Y4219500D01*
X1730500Y4244500D02*
X1780500Y4244500D01*
X1762500Y10702500D02*
X1762500Y10652500D01*
X1737500Y10677500D02*
X1787500Y10677500D01*
X1865500Y5025500D02*
X1865500Y4975500D01*
X1840500Y5000500D02*
X1890500Y5000500D01*
X1904000Y8243500D02*
X1904000Y8193500D01*
X1879000Y8218500D02*
X1929000Y8218500D01*
X1954500Y3409000D02*
X1954500Y3359000D01*
X1929500Y3384000D02*
X1979500Y3384000D01*
X1971000Y2361000D02*
X1971000Y2311000D01*
X1946000Y2336000D02*
X1996000Y2336000D01*
X2091000Y6240000D02*
X2091000Y6190000D01*
X2066000Y6215000D02*
X2116000Y6215000D01*
X2092500Y7716000D02*
X2092500Y7666000D01*
X2067500Y7691000D02*
X2117500Y7691000D01*
X2092500Y6966000D02*
X2092500Y6916000D01*
X2067500Y6941000D02*
X2117500Y6941000D01*
X2435000Y5629000D02*
X2435000Y5579000D01*
X2410000Y5604000D02*
X2460000Y5604000D01*
X2435500Y5969000D02*
X2435500Y5919000D01*
X2410500Y5944000D02*
X2460500Y5944000D01*
X2442000Y3035000D02*
X2442000Y2985000D01*
X2417000Y3010000D02*
X2467000Y3010000D01*
X2442000Y2675000D02*
X2442000Y2625000D01*
X2417000Y2650000D02*
X2467000Y2650000D01*
X2497000Y280000D02*
X2497000Y230000D01*
X2472000Y255000D02*
X2522000Y255000D01*
X2505500Y14019500D02*
X2505500Y13969500D01*
X2480500Y13994500D02*
X2530500Y13994500D01*
X2505500Y13269500D02*
X2505500Y13219500D01*
X2480500Y13244500D02*
X2530500Y13244500D01*
X2505500Y12519500D02*
X2505500Y12469500D01*
X2480500Y12494500D02*
X2530500Y12494500D01*
X2505500Y9519500D02*
X2505500Y9469500D01*
X2480500Y9494500D02*
X2530500Y9494500D01*
X2505500Y8769500D02*
X2505500Y8719500D01*
X2480500Y8744500D02*
X2530500Y8744500D01*
X2505500Y5019500D02*
X2505500Y4969500D01*
X2480500Y4994500D02*
X2530500Y4994500D01*
X2505500Y4269500D02*
X2505500Y4219500D01*
X2480500Y4244500D02*
X2530500Y4244500D01*
X2512500Y10702500D02*
X2512500Y10652500D01*
X2487500Y10677500D02*
X2537500Y10677500D01*
X2548000Y3633000D02*
X2548000Y3583000D01*
X2523000Y3608000D02*
X2573000Y3608000D01*
X2622000Y7892000D02*
X2622000Y7842000D01*
X2597000Y7867000D02*
X2647000Y7867000D01*
X2622000Y7142000D02*
X2622000Y7092000D01*
X2597000Y7117000D02*
X2647000Y7117000D01*
X2625000Y6167500D02*
X2625000Y6117500D01*
X2600000Y6142500D02*
X2650000Y6142500D01*
X2967500Y2649000D02*
X2967500Y2599000D01*
X2942500Y2624000D02*
X2992500Y2624000D01*
X3255500Y9519500D02*
X3255500Y9469500D01*
X3230500Y9494500D02*
X3280500Y9494500D01*
X3289000Y2769500D02*
X3289000Y2719500D01*
X3264000Y2744500D02*
X3314000Y2744500D01*
X3310500Y8884000D02*
X3310500Y8834000D01*
X3285500Y8859000D02*
X3335500Y8859000D01*
X3312500Y8297500D02*
X3312500Y8247500D01*
X3287500Y8272500D02*
X3337500Y8272500D01*
X3565000Y6346500D02*
X3565000Y6296500D01*
X3540000Y6321500D02*
X3590000Y6321500D01*
X3565000Y5596500D02*
X3565000Y5546500D01*
X3540000Y5571500D02*
X3590000Y5571500D01*
X3565000Y4846500D02*
X3565000Y4796500D01*
X3540000Y4821500D02*
X3590000Y4821500D01*
X3565000Y4096500D02*
X3565000Y4046500D01*
X3540000Y4071500D02*
X3590000Y4071500D01*
X3855500Y4275000D02*
X3855500Y4225000D01*
X3830500Y4250000D02*
X3880500Y4250000D01*
X3925500Y9414000D02*
X3925500Y9364000D01*
X3900500Y9389000D02*
X3950500Y9389000D01*
X3974000Y8598500D02*
X3974000Y8548500D01*
X3949000Y8573500D02*
X3999000Y8573500D01*
X4005500Y14019500D02*
X4005500Y13969500D01*
X3980500Y13994500D02*
X4030500Y13994500D01*
X4005500Y13269500D02*
X4005500Y13219500D01*
X3980500Y13244500D02*
X4030500Y13244500D01*
X4005500Y12519500D02*
X4005500Y12469500D01*
X3980500Y12494500D02*
X4030500Y12494500D01*
X4005500Y11769500D02*
X4005500Y11719500D01*
X3980500Y11744500D02*
X4030500Y11744500D01*
X4005500Y11019500D02*
X4005500Y10969500D01*
X3980500Y10994500D02*
X4030500Y10994500D01*
X4005500Y10269500D02*
X4005500Y10219500D01*
X3980500Y10244500D02*
X4030500Y10244500D01*
X4116500Y8018000D02*
X4116500Y7968000D01*
X4091500Y7993000D02*
X4141500Y7993000D01*
X4132000Y3144000D02*
X4132000Y3094000D01*
X4107000Y3119000D02*
X4157000Y3119000D01*
X4132000Y2394000D02*
X4132000Y2344000D01*
X4107000Y2369000D02*
X4157000Y2369000D01*
X4132000Y1644000D02*
X4132000Y1594000D01*
X4107000Y1619000D02*
X4157000Y1619000D01*
X4132000Y894000D02*
X4132000Y844000D01*
X4107000Y869000D02*
X4157000Y869000D01*
X4238000Y9315500D02*
X4238000Y9265500D01*
X4213000Y9290500D02*
X4263000Y9290500D01*
X4747000Y280000D02*
X4747000Y230000D01*
X4722000Y255000D02*
X4772000Y255000D01*
X4755500Y14019500D02*
X4755500Y13969500D01*
X4730500Y13994500D02*
X4780500Y13994500D01*
X4755500Y10269500D02*
X4755500Y10219500D01*
X4730500Y10244500D02*
X4780500Y10244500D01*
X4755500Y9519500D02*
X4755500Y9469500D01*
X4730500Y9494500D02*
X4780500Y9494500D01*
X4755500Y8769500D02*
X4755500Y8719500D01*
X4730500Y8744500D02*
X4780500Y8744500D01*
X4755500Y8019500D02*
X4755500Y7969500D01*
X4730500Y7994500D02*
X4780500Y7994500D01*
X4755500Y7269500D02*
X4755500Y7219500D01*
X4730500Y7244500D02*
X4780500Y7244500D01*
X4755500Y6519500D02*
X4755500Y6469500D01*
X4730500Y6494500D02*
X4780500Y6494500D01*
X4755500Y5769500D02*
X4755500Y5719500D01*
X4730500Y5744500D02*
X4780500Y5744500D01*
X4755500Y5019500D02*
X4755500Y4969500D01*
X4730500Y4994500D02*
X4780500Y4994500D01*
X4911000Y3465500D02*
X4911000Y3415500D01*
X4886000Y3440500D02*
X4936000Y3440500D01*
X5069000Y1642000D02*
X5069000Y1592000D01*
X5044000Y1617000D02*
X5094000Y1617000D01*
X5372500Y3486000D02*
X5372500Y3436000D01*
X5347500Y3461000D02*
X5397500Y3461000D01*
X5441500Y4052500D02*
X5441500Y4002500D01*
X5416500Y4027500D02*
X5466500Y4027500D01*
X5443000Y4288000D02*
X5443000Y4238000D01*
X5418000Y4263000D02*
X5468000Y4263000D01*
X5443500Y4737000D02*
X5443500Y4687000D01*
X5418500Y4712000D02*
X5468500Y4712000D01*
X5443500Y4537000D02*
X5443500Y4487000D01*
X5418500Y4512000D02*
X5468500Y4512000D01*
X5448000Y4967000D02*
X5448000Y4917000D01*
X5423000Y4942000D02*
X5473000Y4942000D01*
X5483000Y3831000D02*
X5483000Y3781000D01*
X5458000Y3806000D02*
X5508000Y3806000D01*
X5497000Y280000D02*
X5497000Y230000D01*
X5472000Y255000D02*
X5522000Y255000D01*
X5505500Y14019500D02*
X5505500Y13969500D01*
X5480500Y13994500D02*
X5530500Y13994500D01*
X5505500Y13269500D02*
X5505500Y13219500D01*
X5480500Y13244500D02*
X5530500Y13244500D01*
X5505500Y10269500D02*
X5505500Y10219500D01*
X5480500Y10244500D02*
X5530500Y10244500D01*
X5505500Y9519500D02*
X5505500Y9469500D01*
X5480500Y9494500D02*
X5530500Y9494500D01*
X5505500Y8769500D02*
X5505500Y8719500D01*
X5480500Y8744500D02*
X5530500Y8744500D01*
X5505500Y7269500D02*
X5505500Y7219500D01*
X5480500Y7244500D02*
X5530500Y7244500D01*
X5505500Y6519500D02*
X5505500Y6469500D01*
X5480500Y6494500D02*
X5530500Y6494500D01*
X5505500Y5769500D02*
X5505500Y5719500D01*
X5480500Y5744500D02*
X5530500Y5744500D01*
X5620000Y3695500D02*
X5620000Y3645500D01*
X5595000Y3670500D02*
X5645000Y3670500D01*
X5754000Y3562500D02*
X5754000Y3512500D01*
X5729000Y3537500D02*
X5779000Y3537500D01*
X5893000Y3424500D02*
X5893000Y3374500D01*
X5868000Y3399500D02*
X5918000Y3399500D01*
X5958500Y11100000D02*
X5958500Y11050000D01*
X5933500Y11075000D02*
X5983500Y11075000D01*
X6027000Y3291500D02*
X6027000Y3241500D01*
X6002000Y3266500D02*
X6052000Y3266500D01*
X6153000Y982500D02*
X6153000Y932500D01*
X6128000Y957500D02*
X6178000Y957500D01*
X6247000Y280000D02*
X6247000Y230000D01*
X6222000Y255000D02*
X6272000Y255000D01*
X6255500Y14019500D02*
X6255500Y13969500D01*
X6230500Y13994500D02*
X6280500Y13994500D01*
X6255500Y13269500D02*
X6255500Y13219500D01*
X6230500Y13244500D02*
X6280500Y13244500D01*
X6255500Y12519500D02*
X6255500Y12469500D01*
X6230500Y12494500D02*
X6280500Y12494500D01*
X6255500Y10269500D02*
X6255500Y10219500D01*
X6230500Y10244500D02*
X6280500Y10244500D01*
X6255500Y9519500D02*
X6255500Y9469500D01*
X6230500Y9494500D02*
X6280500Y9494500D01*
X6255500Y8769500D02*
X6255500Y8719500D01*
X6230500Y8744500D02*
X6280500Y8744500D01*
X6255500Y8019500D02*
X6255500Y7969500D01*
X6230500Y7994500D02*
X6280500Y7994500D01*
X6255500Y7269500D02*
X6255500Y7219500D01*
X6230500Y7244500D02*
X6280500Y7244500D01*
X6255500Y6519500D02*
X6255500Y6469500D01*
X6230500Y6494500D02*
X6280500Y6494500D01*
X6255500Y5769500D02*
X6255500Y5719500D01*
X6230500Y5744500D02*
X6280500Y5744500D01*
X6255500Y5019500D02*
X6255500Y4969500D01*
X6230500Y4994500D02*
X6280500Y4994500D01*
X6255500Y4269500D02*
X6255500Y4219500D01*
X6230500Y4244500D02*
X6280500Y4244500D01*
X6926500Y3213000D02*
X6926500Y3163000D01*
X6901500Y3188000D02*
X6951500Y3188000D01*
X6997000Y280000D02*
X6997000Y230000D01*
X6972000Y255000D02*
X7022000Y255000D01*
X7005500Y14019500D02*
X7005500Y13969500D01*
X6980500Y13994500D02*
X7030500Y13994500D01*
X7005500Y13269500D02*
X7005500Y13219500D01*
X6980500Y13244500D02*
X7030500Y13244500D01*
X7005500Y12519500D02*
X7005500Y12469500D01*
X6980500Y12494500D02*
X7030500Y12494500D01*
X7005500Y2019500D02*
X7005500Y1969500D01*
X6980500Y1994500D02*
X7030500Y1994500D01*
X7005500Y1269500D02*
X7005500Y1219500D01*
X6980500Y1244500D02*
X7030500Y1244500D01*
X7134000Y2612000D02*
X7134000Y2562000D01*
X7109000Y2587000D02*
X7159000Y2587000D01*
X7747000Y280000D02*
X7747000Y230000D01*
X7722000Y255000D02*
X7772000Y255000D01*
X7755500Y14019500D02*
X7755500Y13969500D01*
X7730500Y13994500D02*
X7780500Y13994500D01*
X7755500Y7269500D02*
X7755500Y7219500D01*
X7730500Y7244500D02*
X7780500Y7244500D01*
X7755500Y6519500D02*
X7755500Y6469500D01*
X7730500Y6494500D02*
X7780500Y6494500D01*
X7755500Y5769500D02*
X7755500Y5719500D01*
X7730500Y5744500D02*
X7780500Y5744500D01*
X7755500Y5019500D02*
X7755500Y4969500D01*
X7730500Y4994500D02*
X7780500Y4994500D01*
X7755500Y4269500D02*
X7755500Y4219500D01*
X7730500Y4244500D02*
X7780500Y4244500D01*
X7775500Y2022000D02*
X7775500Y1972000D01*
X7750500Y1997000D02*
X7800500Y1997000D01*
X7778000Y1368500D02*
X7778000Y1318500D01*
X7753000Y1343500D02*
X7803000Y1343500D01*
X7837500Y3278500D02*
X7837500Y3228500D01*
X7812500Y3253500D02*
X7862500Y3253500D01*
X7970500Y3412500D02*
X7970500Y3362500D01*
X7945500Y3387500D02*
X7995500Y3387500D01*
X8108500Y3549500D02*
X8108500Y3499500D01*
X8083500Y3524500D02*
X8133500Y3524500D01*
X8223500Y2271000D02*
X8223500Y2221000D01*
X8198500Y2246000D02*
X8248500Y2246000D01*
X8339000Y3557500D02*
X8339000Y3507500D01*
X8314000Y3532500D02*
X8364000Y3532500D01*
X8497000Y280000D02*
X8497000Y230000D01*
X8472000Y255000D02*
X8522000Y255000D01*
X8499000Y11079500D02*
X8499000Y11029500D01*
X8474000Y11054500D02*
X8524000Y11054500D01*
X8505500Y14019500D02*
X8505500Y13969500D01*
X8480500Y13994500D02*
X8530500Y13994500D01*
X8505500Y13269500D02*
X8505500Y13219500D01*
X8480500Y13244500D02*
X8530500Y13244500D01*
X8505500Y12519500D02*
X8505500Y12469500D01*
X8480500Y12494500D02*
X8530500Y12494500D01*
X8505500Y10269500D02*
X8505500Y10219500D01*
X8480500Y10244500D02*
X8530500Y10244500D01*
X8505500Y8019500D02*
X8505500Y7969500D01*
X8480500Y7994500D02*
X8530500Y7994500D01*
X8505500Y7269500D02*
X8505500Y7219500D01*
X8480500Y7244500D02*
X8530500Y7244500D01*
X8505500Y6519500D02*
X8505500Y6469500D01*
X8480500Y6494500D02*
X8530500Y6494500D01*
X8505500Y5769500D02*
X8505500Y5719500D01*
X8480500Y5744500D02*
X8530500Y5744500D01*
X8505500Y5019500D02*
X8505500Y4969500D01*
X8480500Y4994500D02*
X8530500Y4994500D01*
X8505500Y4269500D02*
X8505500Y4219500D01*
X8480500Y4244500D02*
X8530500Y4244500D01*
X8552500Y3556000D02*
X8552500Y3506000D01*
X8527500Y3531000D02*
X8577500Y3531000D01*
X8663000Y1652000D02*
X8663000Y1602000D01*
X8638000Y1627000D02*
X8688000Y1627000D01*
X8788000Y3556000D02*
X8788000Y3506000D01*
X8763000Y3531000D02*
X8813000Y3531000D01*
X8925000Y3418000D02*
X8925000Y3368000D01*
X8900000Y3393000D02*
X8950000Y3393000D01*
X9059000Y3285000D02*
X9059000Y3235000D01*
X9034000Y3260000D02*
X9084000Y3260000D01*
X9240500Y3282500D02*
X9240500Y3232500D01*
X9215500Y3257500D02*
X9265500Y3257500D01*
X9247000Y280000D02*
X9247000Y230000D01*
X9222000Y255000D02*
X9272000Y255000D01*
X9255500Y14019500D02*
X9255500Y13969500D01*
X9230500Y13994500D02*
X9280500Y13994500D01*
X9255500Y13269500D02*
X9255500Y13219500D01*
X9230500Y13244500D02*
X9280500Y13244500D01*
X9255500Y12519500D02*
X9255500Y12469500D01*
X9230500Y12494500D02*
X9280500Y12494500D01*
X9255500Y11769500D02*
X9255500Y11719500D01*
X9230500Y11744500D02*
X9280500Y11744500D01*
X9255500Y11019500D02*
X9255500Y10969500D01*
X9230500Y10994500D02*
X9280500Y10994500D01*
X9255500Y10269500D02*
X9255500Y10219500D01*
X9230500Y10244500D02*
X9280500Y10244500D01*
X9255500Y8019500D02*
X9255500Y7969500D01*
X9230500Y7994500D02*
X9280500Y7994500D01*
X9255500Y7269500D02*
X9255500Y7219500D01*
X9230500Y7244500D02*
X9280500Y7244500D01*
X9255500Y6519500D02*
X9255500Y6469500D01*
X9230500Y6494500D02*
X9280500Y6494500D01*
X9255500Y5769500D02*
X9255500Y5719500D01*
X9230500Y5744500D02*
X9280500Y5744500D01*
X9255500Y5019500D02*
X9255500Y4969500D01*
X9230500Y4994500D02*
X9280500Y4994500D01*
X9255500Y4269500D02*
X9255500Y4219500D01*
X9230500Y4244500D02*
X9280500Y4244500D01*
X9440500Y3282500D02*
X9440500Y3232500D01*
X9415500Y3257500D02*
X9465500Y3257500D01*
X9640500Y3282500D02*
X9640500Y3232500D01*
X9615500Y3257500D02*
X9665500Y3257500D01*
X9887500Y1007500D02*
X9887500Y957500D01*
X9862500Y982500D02*
X9912500Y982500D01*
X9997000Y280000D02*
X9997000Y230000D01*
X9972000Y255000D02*
X10022000Y255000D01*
X10005500Y14019500D02*
X10005500Y13969500D01*
X9980500Y13994500D02*
X10030500Y13994500D01*
X10005500Y13269500D02*
X10005500Y13219500D01*
X9980500Y13244500D02*
X10030500Y13244500D01*
X10005500Y12519500D02*
X10005500Y12469500D01*
X9980500Y12494500D02*
X10030500Y12494500D01*
X10005500Y11769500D02*
X10005500Y11719500D01*
X9980500Y11744500D02*
X10030500Y11744500D01*
X10005500Y11019500D02*
X10005500Y10969500D01*
X9980500Y10994500D02*
X10030500Y10994500D01*
X10005500Y10269500D02*
X10005500Y10219500D01*
X9980500Y10244500D02*
X10030500Y10244500D01*
X10005500Y9519500D02*
X10005500Y9469500D01*
X9980500Y9494500D02*
X10030500Y9494500D01*
X10005500Y8769500D02*
X10005500Y8719500D01*
X9980500Y8744500D02*
X10030500Y8744500D01*
X10005500Y8019500D02*
X10005500Y7969500D01*
X9980500Y7994500D02*
X10030500Y7994500D01*
X10005500Y7269500D02*
X10005500Y7219500D01*
X9980500Y7244500D02*
X10030500Y7244500D01*
X10005500Y6519500D02*
X10005500Y6469500D01*
X9980500Y6494500D02*
X10030500Y6494500D01*
X10005500Y5769500D02*
X10005500Y5719500D01*
X9980500Y5744500D02*
X10030500Y5744500D01*
X10005500Y4269500D02*
X10005500Y4219500D01*
X9980500Y4244500D02*
X10030500Y4244500D01*
X10005500Y3519500D02*
X10005500Y3469500D01*
X9980500Y3494500D02*
X10030500Y3494500D01*
X10387000Y3225000D02*
X10387000Y3175000D01*
X10362000Y3200000D02*
X10412000Y3200000D01*
X10710500Y2618000D02*
X10710500Y2568000D01*
X10685500Y2593000D02*
X10735500Y2593000D01*
X10747000Y280000D02*
X10747000Y230000D01*
X10722000Y255000D02*
X10772000Y255000D01*
X10755500Y14019500D02*
X10755500Y13969500D01*
X10730500Y13994500D02*
X10780500Y13994500D01*
X10755500Y13269500D02*
X10755500Y13219500D01*
X10730500Y13244500D02*
X10780500Y13244500D01*
X10755500Y12519500D02*
X10755500Y12469500D01*
X10730500Y12494500D02*
X10780500Y12494500D01*
X10755500Y11769500D02*
X10755500Y11719500D01*
X10730500Y11744500D02*
X10780500Y11744500D01*
X10755500Y11019500D02*
X10755500Y10969500D01*
X10730500Y10994500D02*
X10780500Y10994500D01*
X10755500Y10269500D02*
X10755500Y10219500D01*
X10730500Y10244500D02*
X10780500Y10244500D01*
X10755500Y9519500D02*
X10755500Y9469500D01*
X10730500Y9494500D02*
X10780500Y9494500D01*
X10755500Y2019500D02*
X10755500Y1969500D01*
X10730500Y1994500D02*
X10780500Y1994500D01*
X10755500Y1269500D02*
X10755500Y1219500D01*
X10730500Y1244500D02*
X10780500Y1244500D01*
X11497000Y280000D02*
X11497000Y230000D01*
X11472000Y255000D02*
X11522000Y255000D01*
X11505000Y1385500D02*
X11505000Y1335500D01*
X11480000Y1360500D02*
X11530000Y1360500D01*
X11505500Y14019500D02*
X11505500Y13969500D01*
X11480500Y13994500D02*
X11530500Y13994500D01*
X11505500Y13269500D02*
X11505500Y13219500D01*
X11480500Y13244500D02*
X11530500Y13244500D01*
X11505500Y12519500D02*
X11505500Y12469500D01*
X11480500Y12494500D02*
X11530500Y12494500D01*
X11505500Y11769500D02*
X11505500Y11719500D01*
X11480500Y11744500D02*
X11530500Y11744500D01*
X11505500Y11019500D02*
X11505500Y10969500D01*
X11480500Y10994500D02*
X11530500Y10994500D01*
X11505500Y10269500D02*
X11505500Y10219500D01*
X11480500Y10244500D02*
X11530500Y10244500D01*
X11505500Y8019500D02*
X11505500Y7969500D01*
X11480500Y7994500D02*
X11530500Y7994500D01*
X11505500Y7269500D02*
X11505500Y7219500D01*
X11480500Y7244500D02*
X11530500Y7244500D01*
X11505500Y6519500D02*
X11505500Y6469500D01*
X11480500Y6494500D02*
X11530500Y6494500D01*
X11505500Y5769500D02*
X11505500Y5719500D01*
X11480500Y5744500D02*
X11530500Y5744500D01*
X11505500Y5019500D02*
X11505500Y4969500D01*
X11480500Y4994500D02*
X11530500Y4994500D01*
X11505500Y2769500D02*
X11505500Y2719500D01*
X11480500Y2744500D02*
X11530500Y2744500D01*
X11505500Y2019500D02*
X11505500Y1969500D01*
X11480500Y1994500D02*
X11530500Y1994500D01*
X11549500Y4412500D02*
X11549500Y4362500D01*
X11524500Y4387500D02*
X11574500Y4387500D01*
X11563000Y3581000D02*
X11563000Y3531000D01*
X11538000Y3556000D02*
X11588000Y3556000D01*
X12255500Y13269500D02*
X12255500Y13219500D01*
X12230500Y13244500D02*
X12280500Y13244500D01*
X12255500Y12519500D02*
X12255500Y12469500D01*
X12230500Y12494500D02*
X12280500Y12494500D01*
X12255500Y11769500D02*
X12255500Y11719500D01*
X12230500Y11744500D02*
X12280500Y11744500D01*
X12255500Y11019500D02*
X12255500Y10969500D01*
X12230500Y10994500D02*
X12280500Y10994500D01*
X12255500Y10269500D02*
X12255500Y10219500D01*
X12230500Y10244500D02*
X12280500Y10244500D01*
X12255500Y9519500D02*
X12255500Y9469500D01*
X12230500Y9494500D02*
X12280500Y9494500D01*
X12255500Y8769500D02*
X12255500Y8719500D01*
X12230500Y8744500D02*
X12280500Y8744500D01*
X12255500Y8019500D02*
X12255500Y7969500D01*
X12230500Y7994500D02*
X12280500Y7994500D01*
X12255500Y7269500D02*
X12255500Y7219500D01*
X12230500Y7244500D02*
X12280500Y7244500D01*
X12255500Y6519500D02*
X12255500Y6469500D01*
X12230500Y6494500D02*
X12280500Y6494500D01*
X12255500Y5769500D02*
X12255500Y5719500D01*
X12230500Y5744500D02*
X12280500Y5744500D01*
X12255500Y5019500D02*
X12255500Y4969500D01*
X12230500Y4994500D02*
X12280500Y4994500D01*
X12255500Y4269500D02*
X12255500Y4219500D01*
X12230500Y4244500D02*
X12280500Y4244500D01*
X12255500Y3519500D02*
X12255500Y3469500D01*
X12230500Y3494500D02*
X12280500Y3494500D01*
X12255500Y2769500D02*
X12255500Y2719500D01*
X12230500Y2744500D02*
X12280500Y2744500D01*
X12255500Y2019500D02*
X12255500Y1969500D01*
X12230500Y1994500D02*
X12280500Y1994500D01*
X12255500Y1269500D02*
X12255500Y1219500D01*
X12230500Y1244500D02*
X12280500Y1244500D01*
D15*
X1311356Y2706894D02*
X1311356Y2777606D01*
X1240644Y2777606D01*
X1240644Y2706894D01*
X1311356Y2706894D01*
X1565356Y2706894D02*
X1565356Y2777606D01*
X1494644Y2777606D01*
X1494644Y2706894D01*
X1565356Y2706894D01*
X2081106Y1046644D02*
X2081106Y1117356D01*
X2010394Y1117356D01*
X2010394Y1046644D01*
X2081106Y1046644D01*
X2335106Y1046644D02*
X2335106Y1117356D01*
X2264394Y1117356D01*
X2264394Y1046644D01*
X2335106Y1046644D01*
X2589106Y1046644D02*
X2589106Y1117356D01*
X2518394Y1117356D01*
X2518394Y1046644D01*
X2589106Y1046644D01*
X2843106Y1046644D02*
X2843106Y1117356D01*
X2772394Y1117356D01*
X2772394Y1046644D01*
X2843106Y1046644D01*
D16*
X472500Y1156500D02*
X523500Y1207500D01*
X472500Y1258500D01*
X421500Y1207500D01*
X472500Y1156500D01*
X473000Y2036500D02*
X524000Y2087500D01*
X473000Y2138500D01*
X422000Y2087500D01*
X473000Y2036500D01*
X595000Y10802500D02*
X646000Y10853500D01*
X595000Y10904500D01*
X544000Y10853500D01*
X595000Y10802500D01*
X595000Y10502500D02*
X646000Y10553500D01*
X595000Y10604500D01*
X544000Y10553500D01*
X595000Y10502500D01*
X772500Y1156500D02*
X823500Y1207500D01*
X772500Y1258500D01*
X721500Y1207500D01*
X772500Y1156500D01*
X773000Y2036500D02*
X824000Y2087500D01*
X773000Y2138500D01*
X722000Y2087500D01*
X773000Y2036500D01*
X1072500Y1156500D02*
X1123500Y1207500D01*
X1072500Y1258500D01*
X1021500Y1207500D01*
X1072500Y1156500D01*
X1073000Y2036500D02*
X1124000Y2087500D01*
X1073000Y2138500D01*
X1022000Y2087500D01*
X1073000Y2036500D01*
X1327000Y9008000D02*
X1378000Y9059000D01*
X1327000Y9110000D01*
X1276000Y9059000D01*
X1327000Y9008000D01*
X1327000Y8754000D02*
X1378000Y8805000D01*
X1327000Y8856000D01*
X1276000Y8805000D01*
X1327000Y8754000D01*
X1327000Y8500000D02*
X1378000Y8551000D01*
X1327000Y8602000D01*
X1276000Y8551000D01*
X1327000Y8500000D01*
X1327000Y8246000D02*
X1378000Y8297000D01*
X1327000Y8348000D01*
X1276000Y8297000D01*
X1327000Y8246000D01*
X1327000Y7992000D02*
X1378000Y8043000D01*
X1327000Y8094000D01*
X1276000Y8043000D01*
X1327000Y7992000D01*
X1327000Y7738000D02*
X1378000Y7789000D01*
X1327000Y7840000D01*
X1276000Y7789000D01*
X1327000Y7738000D01*
X1327000Y7484000D02*
X1378000Y7535000D01*
X1327000Y7586000D01*
X1276000Y7535000D01*
X1327000Y7484000D01*
X1327000Y7230000D02*
X1378000Y7281000D01*
X1327000Y7332000D01*
X1276000Y7281000D01*
X1327000Y7230000D01*
X1327000Y6976000D02*
X1378000Y7027000D01*
X1327000Y7078000D01*
X1276000Y7027000D01*
X1327000Y6976000D01*
X1327000Y6722000D02*
X1378000Y6773000D01*
X1327000Y6824000D01*
X1276000Y6773000D01*
X1327000Y6722000D01*
X1327000Y6468000D02*
X1378000Y6519000D01*
X1327000Y6570000D01*
X1276000Y6519000D01*
X1327000Y6468000D01*
X1327000Y6214000D02*
X1378000Y6265000D01*
X1327000Y6316000D01*
X1276000Y6265000D01*
X1327000Y6214000D01*
X1327000Y5960000D02*
X1378000Y6011000D01*
X1327000Y6062000D01*
X1276000Y6011000D01*
X1327000Y5960000D01*
X1327000Y5706000D02*
X1378000Y5757000D01*
X1327000Y5808000D01*
X1276000Y5757000D01*
X1327000Y5706000D01*
X1327000Y5452000D02*
X1378000Y5503000D01*
X1327000Y5554000D01*
X1276000Y5503000D01*
X1327000Y5452000D01*
X1372500Y1156500D02*
X1423500Y1207500D01*
X1372500Y1258500D01*
X1321500Y1207500D01*
X1372500Y1156500D01*
X1373000Y2036500D02*
X1424000Y2087500D01*
X1373000Y2138500D01*
X1322000Y2087500D01*
X1373000Y2036500D01*
X2851000Y9008000D02*
X2902000Y9059000D01*
X2851000Y9110000D01*
X2800000Y9059000D01*
X2851000Y9008000D01*
X2851000Y8754000D02*
X2902000Y8805000D01*
X2851000Y8856000D01*
X2800000Y8805000D01*
X2851000Y8754000D01*
X2851000Y8500000D02*
X2902000Y8551000D01*
X2851000Y8602000D01*
X2800000Y8551000D01*
X2851000Y8500000D01*
X2851000Y8246000D02*
X2902000Y8297000D01*
X2851000Y8348000D01*
X2800000Y8297000D01*
X2851000Y8246000D01*
X2851000Y7992000D02*
X2902000Y8043000D01*
X2851000Y8094000D01*
X2800000Y8043000D01*
X2851000Y7992000D01*
X2851000Y7738000D02*
X2902000Y7789000D01*
X2851000Y7840000D01*
X2800000Y7789000D01*
X2851000Y7738000D01*
X2851000Y7484000D02*
X2902000Y7535000D01*
X2851000Y7586000D01*
X2800000Y7535000D01*
X2851000Y7484000D01*
X2851000Y7230000D02*
X2902000Y7281000D01*
X2851000Y7332000D01*
X2800000Y7281000D01*
X2851000Y7230000D01*
X2851000Y6976000D02*
X2902000Y7027000D01*
X2851000Y7078000D01*
X2800000Y7027000D01*
X2851000Y6976000D01*
X2851000Y6722000D02*
X2902000Y6773000D01*
X2851000Y6824000D01*
X2800000Y6773000D01*
X2851000Y6722000D01*
X2851000Y6468000D02*
X2902000Y6519000D01*
X2851000Y6570000D01*
X2800000Y6519000D01*
X2851000Y6468000D01*
X2851000Y6214000D02*
X2902000Y6265000D01*
X2851000Y6316000D01*
X2800000Y6265000D01*
X2851000Y6214000D01*
X2851000Y5960000D02*
X2902000Y6011000D01*
X2851000Y6062000D01*
X2800000Y6011000D01*
X2851000Y5960000D01*
X2851000Y5706000D02*
X2902000Y5757000D01*
X2851000Y5808000D01*
X2800000Y5757000D01*
X2851000Y5706000D01*
X2851000Y5452000D02*
X2902000Y5503000D01*
X2851000Y5554000D01*
X2800000Y5503000D01*
X2851000Y5452000D01*
X3445000Y508500D02*
X3496000Y559500D01*
X3445000Y610500D01*
X3394000Y559500D01*
X3445000Y508500D01*
X3745000Y508500D02*
X3796000Y559500D01*
X3745000Y610500D01*
X3694000Y559500D01*
X3745000Y508500D01*
D17*
X316500Y9880500D02*
X426500Y9770500D01*
X426500Y9880500D02*
X316500Y9770500D01*
X426500Y9825500D02*
G75*
G03*
X426500Y9825500I-55000J0D01*
G01*
X316500Y9230500D02*
X426500Y9120500D01*
X426500Y9230500D02*
X316500Y9120500D01*
X426500Y9175500D02*
G75*
G03*
X426500Y9175500I-55000J0D01*
G01*
X766500Y9880500D02*
X876500Y9770500D01*
X876500Y9880500D02*
X766500Y9770500D01*
X876500Y9825500D02*
G75*
G03*
X876500Y9825500I-55000J0D01*
G01*
X766500Y9230500D02*
X876500Y9120500D01*
X876500Y9230500D02*
X766500Y9120500D01*
X876500Y9175500D02*
G75*
G03*
X876500Y9175500I-55000J0D01*
G01*
X6589500Y8739500D02*
X6699500Y8629500D01*
X6699500Y8739500D02*
X6589500Y8629500D01*
X6699500Y8684500D02*
G75*
G03*
X6699500Y8684500I-55000J0D01*
G01*
X6589500Y7785000D02*
X6699500Y7675000D01*
X6699500Y7785000D02*
X6589500Y7675000D01*
X6699500Y7730000D02*
G75*
G03*
X6699500Y7730000I-55000J0D01*
G01*
X7097500Y8739500D02*
X7207500Y8629500D01*
X7207500Y8739500D02*
X7097500Y8629500D01*
X7207500Y8684500D02*
G75*
G03*
X7207500Y8684500I-55000J0D01*
G01*
X7097500Y7785000D02*
X7207500Y7675000D01*
X7207500Y7785000D02*
X7097500Y7675000D01*
X7207500Y7730000D02*
G75*
G03*
X7207500Y7730000I-55000J0D01*
G01*
X7221500Y12120000D02*
X7331500Y12010000D01*
X7331500Y12120000D02*
X7221500Y12010000D01*
X7331500Y12065000D02*
G75*
G03*
X7331500Y12065000I-55000J0D01*
G01*
X7221500Y11612000D02*
X7331500Y11502000D01*
X7331500Y11612000D02*
X7221500Y11502000D01*
X7331500Y11557000D02*
G75*
G03*
X7331500Y11557000I-55000J0D01*
G01*
X8174500Y12120000D02*
X8284500Y12010000D01*
X8284500Y12120000D02*
X8174500Y12010000D01*
X8284500Y12065000D02*
G75*
G03*
X8284500Y12065000I-55000J0D01*
G01*
X8174500Y11612000D02*
X8284500Y11502000D01*
X8284500Y11612000D02*
X8174500Y11502000D01*
X8284500Y11557000D02*
G75*
G03*
X8284500Y11557000I-55000J0D01*
G01*
X9292000Y12178000D02*
X9402000Y12068000D01*
X9402000Y12178000D02*
X9292000Y12068000D01*
X9402000Y12123000D02*
G75*
G03*
X9402000Y12123000I-55000J0D01*
G01*
X10792000Y12178000D02*
X10902000Y12068000D01*
X10902000Y12178000D02*
X10792000Y12068000D01*
X10902000Y12123000D02*
G75*
G03*
X10902000Y12123000I-55000J0D01*
G01*
D18*
X5686960Y2212040D02*
X5819040Y2079960D01*
X5819040Y2212040D02*
X5686960Y2079960D01*
X5753000Y2212040D02*
X5753000Y2079960D01*
X5686960Y2146000D02*
X5819040Y2146000D01*
X5686960Y1704040D02*
X5819040Y1571960D01*
X5819040Y1704040D02*
X5686960Y1571960D01*
X5753000Y1704040D02*
X5753000Y1571960D01*
X5686960Y1638000D02*
X5819040Y1638000D01*
X5686960Y1450040D02*
X5819040Y1317960D01*
X5819040Y1450040D02*
X5686960Y1317960D01*
X5753000Y1450040D02*
X5753000Y1317960D01*
X5686960Y1384000D02*
X5819040Y1384000D01*
X6448960Y2212040D02*
X6581040Y2079960D01*
X6581040Y2212040D02*
X6448960Y2079960D01*
X6515000Y2212040D02*
X6515000Y2079960D01*
X6448960Y2146000D02*
X6581040Y2146000D01*
X6448960Y1704040D02*
X6581040Y1571960D01*
X6581040Y1704040D02*
X6448960Y1571960D01*
X6515000Y1704040D02*
X6515000Y1571960D01*
X6448960Y1638000D02*
X6581040Y1638000D01*
X6448960Y1450040D02*
X6581040Y1317960D01*
X6581040Y1450040D02*
X6448960Y1317960D01*
X6515000Y1450040D02*
X6515000Y1317960D01*
X6448960Y1384000D02*
X6581040Y1384000D01*
X9414960Y2205540D02*
X9547040Y2073460D01*
X9547040Y2205540D02*
X9414960Y2073460D01*
X9481000Y2205540D02*
X9481000Y2073460D01*
X9414960Y2139500D02*
X9547040Y2139500D01*
X9414960Y1697540D02*
X9547040Y1565460D01*
X9547040Y1697540D02*
X9414960Y1565460D01*
X9481000Y1697540D02*
X9481000Y1565460D01*
X9414960Y1631500D02*
X9547040Y1631500D01*
X9414960Y1443540D02*
X9547040Y1311460D01*
X9547040Y1443540D02*
X9414960Y1311460D01*
X9481000Y1443540D02*
X9481000Y1311460D01*
X9414960Y1377500D02*
X9547040Y1377500D01*
X10176960Y2205540D02*
X10309040Y2073460D01*
X10309040Y2205540D02*
X10176960Y2073460D01*
X10243000Y2205540D02*
X10243000Y2073460D01*
X10176960Y2139500D02*
X10309040Y2139500D01*
X10176960Y1697540D02*
X10309040Y1565460D01*
X10309040Y1697540D02*
X10176960Y1565460D01*
X10243000Y1697540D02*
X10243000Y1565460D01*
X10176960Y1631500D02*
X10309040Y1631500D01*
X10176960Y1443540D02*
X10309040Y1311460D01*
X10309040Y1443540D02*
X10176960Y1311460D01*
X10243000Y1443540D02*
X10243000Y1311460D01*
X10176960Y1377500D02*
X10309040Y1377500D01*
D19*
X3678750Y3550500D02*
X3818750Y3410500D01*
X3818750Y3550500D02*
X3678750Y3410500D01*
X3798248Y3431002D02*
X3798248Y3529998D01*
X3699252Y3529998D01*
X3699252Y3431002D01*
X3798248Y3431002D01*
X3678750Y1140500D02*
X3818750Y1000500D01*
X3818750Y1140500D02*
X3678750Y1000500D01*
X3798248Y1021002D02*
X3798248Y1119998D01*
X3699252Y1119998D01*
X3699252Y1021002D01*
X3798248Y1021002D01*
X4884000Y3130000D02*
X5024000Y2990000D01*
X5024000Y3130000D02*
X4884000Y2990000D01*
X5003498Y3010502D02*
X5003498Y3109498D01*
X4904502Y3109498D01*
X4904502Y3010502D01*
X5003498Y3010502D01*
X7294000Y3130000D02*
X7434000Y2990000D01*
X7434000Y3130000D02*
X7294000Y2990000D01*
X7413498Y3010502D02*
X7413498Y3109498D01*
X7314502Y3109498D01*
X7314502Y3010502D01*
X7413498Y3010502D01*
X8336500Y3138100D02*
X8476500Y2998100D01*
X8476500Y3138100D02*
X8336500Y2998100D01*
X8455998Y3018602D02*
X8455998Y3117598D01*
X8357002Y3117598D01*
X8357002Y3018602D01*
X8455998Y3018602D01*
X10746500Y3138100D02*
X10886500Y2998100D01*
X10886500Y3138100D02*
X10746500Y2998100D01*
X10865998Y3018602D02*
X10865998Y3117598D01*
X10767002Y3117598D01*
X10767002Y3018602D01*
X10865998Y3018602D01*
D20*
X4527000Y12437500D02*
X4677000Y12287500D01*
X4677000Y12437500D02*
X4527000Y12287500D01*
X4602000Y12287500D02*
X4677000Y12362500D01*
X4602000Y12437500D01*
X4527000Y12362500D01*
X4602000Y12287500D01*
X4527000Y11892500D02*
X4677000Y11742500D01*
X4677000Y11892500D02*
X4527000Y11742500D01*
X4602000Y11742500D02*
X4677000Y11817500D01*
X4602000Y11892500D01*
X4527000Y11817500D01*
X4602000Y11742500D01*
X4527000Y11347500D02*
X4677000Y11197500D01*
X4677000Y11347500D02*
X4527000Y11197500D01*
X4602000Y11197500D02*
X4677000Y11272500D01*
X4602000Y11347500D01*
X4527000Y11272500D01*
X4602000Y11197500D01*
X5318000Y12440500D02*
X5468000Y12290500D01*
X5468000Y12440500D02*
X5318000Y12290500D01*
X5393000Y12290500D02*
X5468000Y12365500D01*
X5393000Y12440500D01*
X5318000Y12365500D01*
X5393000Y12290500D01*
X5318000Y11895500D02*
X5468000Y11745500D01*
X5468000Y11895500D02*
X5318000Y11745500D01*
X5393000Y11745500D02*
X5468000Y11820500D01*
X5393000Y11895500D01*
X5318000Y11820500D01*
X5393000Y11745500D01*
X5318000Y11350500D02*
X5468000Y11200500D01*
X5468000Y11350500D02*
X5318000Y11200500D01*
X5393000Y11200500D02*
X5468000Y11275500D01*
X5393000Y11350500D01*
X5318000Y11275500D01*
X5393000Y11200500D01*
D21*
X9428500Y9371000D02*
X9428500Y9181000D01*
X9333500Y9276000D02*
X9523500Y9276000D01*
X9523500Y9276000D02*
G75*
G03*
X9523500Y9276000I-95000J0D01*
G01*
X11608500Y9371000D02*
X11608500Y9181000D01*
X11513500Y9276000D02*
X11703500Y9276000D01*
X11703500Y9276000D02*
G75*
G03*
X11703500Y9276000I-95000J0D01*
G01*
D11*
X5742711Y5170289D02*
X5742711Y5311711D01*
X5601289Y5311711D01*
X5601289Y5170289D01*
X5742711Y5170289D01*
X5772000Y5241000D02*
G75*
G03*
X5772000Y5241000I-100000J0D01*
G01*
X6742711Y5170289D02*
X6742711Y5311711D01*
X6601289Y5311711D01*
X6601289Y5170289D01*
X6742711Y5170289D01*
X6772000Y5241000D02*
G75*
G03*
X6772000Y5241000I-100000J0D01*
G01*
X9877211Y5141289D02*
X9877211Y5282711D01*
X9735789Y5282711D01*
X9735789Y5141289D01*
X9877211Y5141289D01*
X9906500Y5212000D02*
G75*
G03*
X9906500Y5212000I-100000J0D01*
G01*
X10877211Y5141289D02*
X10877211Y5282711D01*
X10735789Y5282711D01*
X10735789Y5141289D01*
X10877211Y5141289D01*
X10906500Y5212000D02*
G75*
G03*
X10906500Y5212000I-100000J0D01*
G01*
D22*
X5002500Y12962000D02*
X5127500Y13087000D01*
X5002500Y13212000D01*
X4877500Y13087000D01*
X5002500Y12962000D01*
X5127500Y13087000D02*
G75*
G03*
X5127500Y13087000I-125000J0D01*
G01*
X5002500Y10422000D02*
X5127500Y10547000D01*
X5002500Y10672000D01*
X4877500Y10547000D01*
X5002500Y10422000D01*
X5127500Y10547000D02*
G75*
G03*
X5127500Y10547000I-125000J0D01*
G01*
X5628000Y8083000D02*
X5753000Y8208000D01*
X5628000Y8333000D01*
X5503000Y8208000D01*
X5628000Y8083000D01*
X5753000Y8208000D02*
G75*
G03*
X5753000Y8208000I-125000J0D01*
G01*
X7756000Y12961500D02*
X7881000Y13086500D01*
X7756000Y13211500D01*
X7631000Y13086500D01*
X7756000Y12961500D01*
X7881000Y13086500D02*
G75*
G03*
X7881000Y13086500I-125000J0D01*
G01*
X7756000Y10421500D02*
X7881000Y10546500D01*
X7756000Y10671500D01*
X7631000Y10546500D01*
X7756000Y10421500D01*
X7881000Y10546500D02*
G75*
G03*
X7881000Y10546500I-125000J0D01*
G01*
X8168000Y8083000D02*
X8293000Y8208000D01*
X8168000Y8333000D01*
X8043000Y8208000D01*
X8168000Y8083000D01*
X8293000Y8208000D02*
G75*
G03*
X8293000Y8208000I-125000J0D01*
G01*
D11*
X249619Y-309476D02*
X249619Y-109476D01*
X297238Y-109476D01*
X325810Y-119000D01*
X344857Y-138048D01*
X354381Y-157095D01*
X363905Y-195191D01*
X363905Y-223762D01*
X354381Y-261857D01*
X344857Y-280905D01*
X325810Y-299953D01*
X297238Y-309476D01*
X249619Y-309476D01*
X449619Y-309476D02*
X449619Y-176143D01*
X449619Y-214238D02*
X459143Y-195191D01*
X468667Y-185667D01*
X487714Y-176143D01*
X506762Y-176143D01*
X573429Y-309476D02*
X573429Y-176143D01*
X573429Y-109476D02*
X563905Y-119000D01*
X573429Y-128524D01*
X582952Y-119000D01*
X573429Y-109476D01*
X573429Y-128524D01*
X697238Y-309476D02*
X678190Y-299953D01*
X668667Y-280905D01*
X668667Y-109476D01*
X802000Y-309476D02*
X782952Y-299953D01*
X773428Y-280905D01*
X773428Y-109476D01*
X1030571Y-309476D02*
X1030571Y-109476D01*
X1097238Y-252333D01*
X1163905Y-109476D01*
X1163905Y-309476D01*
X1344857Y-309476D02*
X1344857Y-204714D01*
X1335333Y-185667D01*
X1316286Y-176143D01*
X1278190Y-176143D01*
X1259143Y-185667D01*
X1344857Y-299953D02*
X1325810Y-309476D01*
X1278190Y-309476D01*
X1259143Y-299953D01*
X1249619Y-280905D01*
X1249619Y-261857D01*
X1259143Y-242810D01*
X1278190Y-233286D01*
X1325810Y-233286D01*
X1344857Y-223762D01*
X1440095Y-176143D02*
X1440095Y-376143D01*
X1440095Y-185667D02*
X1459143Y-176143D01*
X1497238Y-176143D01*
X1516286Y-185667D01*
X1525809Y-195191D01*
X1535333Y-214238D01*
X1535333Y-271381D01*
X1525809Y-290429D01*
X1516286Y-299953D01*
X1497238Y-309476D01*
X1459143Y-309476D01*
X1440095Y-299953D01*
X1621048Y-290429D02*
X1630571Y-299953D01*
X1621048Y-309476D01*
X1611524Y-299953D01*
X1621048Y-290429D01*
X1621048Y-309476D01*
X1621048Y-185667D02*
X1630571Y-195191D01*
X1621048Y-204714D01*
X1611524Y-195191D01*
X1621048Y-185667D01*
X1621048Y-204714D01*
D12*
X-38000Y-624000D02*
X-8000Y-654000D01*
X-8000Y-624000D02*
X-38000Y-654000D01*
D11*
X287714Y-529476D02*
X306762Y-529476D01*
X325810Y-539000D01*
X335333Y-548524D01*
X344857Y-567572D01*
X354381Y-605667D01*
X354381Y-653286D01*
X344857Y-691381D01*
X335333Y-710429D01*
X325810Y-719952D01*
X306762Y-729476D01*
X287714Y-729476D01*
X268667Y-719952D01*
X259143Y-710429D01*
X249619Y-691381D01*
X240095Y-653286D01*
X240095Y-605667D01*
X249619Y-567572D01*
X259143Y-548524D01*
X268667Y-539000D01*
X287714Y-529476D01*
X440095Y-710429D02*
X449619Y-719952D01*
X440095Y-729476D01*
X430571Y-719952D01*
X440095Y-710429D01*
X440095Y-729476D01*
X516286Y-529476D02*
X640095Y-529476D01*
X573429Y-605667D01*
X602000Y-605667D01*
X621048Y-615191D01*
X630571Y-624714D01*
X640095Y-643762D01*
X640095Y-691381D01*
X630571Y-710429D01*
X621048Y-719952D01*
X602000Y-729476D01*
X544857Y-729476D01*
X525810Y-719952D01*
X516286Y-710429D01*
X763905Y-529476D02*
X782952Y-529476D01*
X802000Y-539000D01*
X811524Y-548524D01*
X821048Y-567572D01*
X830571Y-605667D01*
X830571Y-653286D01*
X821048Y-691381D01*
X811524Y-710429D01*
X802000Y-719952D01*
X782952Y-729476D01*
X763905Y-729476D01*
X744857Y-719952D01*
X735333Y-710429D01*
X725809Y-691381D01*
X716286Y-653286D01*
X716286Y-605667D01*
X725809Y-567572D01*
X735333Y-548524D01*
X744857Y-539000D01*
X763905Y-529476D01*
X954381Y-529476D02*
X973428Y-529476D01*
X992476Y-539000D01*
X1002000Y-548524D01*
X1011524Y-567572D01*
X1021048Y-605667D01*
X1021048Y-653286D01*
X1011524Y-691381D01*
X1002000Y-710429D01*
X992476Y-719952D01*
X973428Y-729476D01*
X954381Y-729476D01*
X935333Y-719952D01*
X925809Y-710429D01*
X916286Y-691381D01*
X906762Y-653286D01*
X906762Y-605667D01*
X916286Y-567572D01*
X925809Y-548524D01*
X935333Y-539000D01*
X954381Y-529476D01*
X1106762Y-729476D02*
X1106762Y-596143D01*
X1106762Y-615191D02*
X1116286Y-605667D01*
X1135333Y-596143D01*
X1163905Y-596143D01*
X1182952Y-605667D01*
X1192476Y-624714D01*
X1192476Y-729476D01*
X1192476Y-624714D02*
X1202000Y-605667D01*
X1221048Y-596143D01*
X1249619Y-596143D01*
X1268667Y-605667D01*
X1278190Y-624714D01*
X1278190Y-729476D01*
X1373429Y-729476D02*
X1373429Y-596143D01*
X1373429Y-615191D02*
X1382952Y-605667D01*
X1402000Y-596143D01*
X1430571Y-596143D01*
X1449619Y-605667D01*
X1459143Y-624714D01*
X1459143Y-729476D01*
X1459143Y-624714D02*
X1468667Y-605667D01*
X1487714Y-596143D01*
X1516286Y-596143D01*
X1535333Y-605667D01*
X1544857Y-624714D01*
X1544857Y-729476D01*
X1935333Y-519952D02*
X1763905Y-777095D01*
X2192476Y-529476D02*
X2211524Y-529476D01*
X2230571Y-539000D01*
X2240095Y-548524D01*
X2249619Y-567572D01*
X2259143Y-605667D01*
X2259143Y-653286D01*
X2249619Y-691381D01*
X2240095Y-710429D01*
X2230571Y-719952D01*
X2211524Y-729476D01*
X2192476Y-729476D01*
X2173429Y-719952D01*
X2163905Y-710429D01*
X2154381Y-691381D01*
X2144857Y-653286D01*
X2144857Y-605667D01*
X2154381Y-567572D01*
X2163905Y-548524D01*
X2173429Y-539000D01*
X2192476Y-529476D01*
X2344857Y-710429D02*
X2354381Y-719952D01*
X2344857Y-729476D01*
X2335333Y-719952D01*
X2344857Y-710429D01*
X2344857Y-729476D01*
X2478190Y-529476D02*
X2497238Y-529476D01*
X2516286Y-539000D01*
X2525810Y-548524D01*
X2535333Y-567572D01*
X2544857Y-605667D01*
X2544857Y-653286D01*
X2535333Y-691381D01*
X2525810Y-710429D01*
X2516286Y-719952D01*
X2497238Y-729476D01*
X2478190Y-729476D01*
X2459143Y-719952D01*
X2449619Y-710429D01*
X2440095Y-691381D01*
X2430571Y-653286D01*
X2430571Y-605667D01*
X2440095Y-567572D01*
X2449619Y-548524D01*
X2459143Y-539000D01*
X2478190Y-529476D01*
X2735333Y-729476D02*
X2621048Y-729476D01*
X2678190Y-729476D02*
X2678190Y-529476D01*
X2659143Y-558048D01*
X2640095Y-577095D01*
X2621048Y-586619D01*
X2925809Y-729476D02*
X2811524Y-729476D01*
X2868667Y-729476D02*
X2868667Y-529476D01*
X2849619Y-558048D01*
X2830571Y-577095D01*
X2811524Y-586619D01*
X3040095Y-615191D02*
X3021048Y-605667D01*
X3011524Y-596143D01*
X3002000Y-577095D01*
X3002000Y-567572D01*
X3011524Y-548524D01*
X3021048Y-539000D01*
X3040095Y-529476D01*
X3078190Y-529476D01*
X3097238Y-539000D01*
X3106762Y-548524D01*
X3116286Y-567572D01*
X3116286Y-577095D01*
X3106762Y-596143D01*
X3097238Y-605667D01*
X3078190Y-615191D01*
X3040095Y-615191D01*
X3021048Y-624714D01*
X3011524Y-634238D01*
X3002000Y-653286D01*
X3002000Y-691381D01*
X3011524Y-710429D01*
X3021048Y-719952D01*
X3040095Y-729476D01*
X3078190Y-729476D01*
X3097238Y-719952D01*
X3106762Y-710429D01*
X3116286Y-691381D01*
X3116286Y-653286D01*
X3106762Y-634238D01*
X3097238Y-624714D01*
X3078190Y-615191D01*
X3192476Y-529476D02*
X3192476Y-567572D01*
X3268667Y-529476D02*
X3268667Y-567572D01*
X3563905Y-805667D02*
X3554381Y-796143D01*
X3535333Y-767572D01*
X3525809Y-748524D01*
X3516286Y-719952D01*
X3506762Y-672334D01*
X3506762Y-634238D01*
X3516286Y-586619D01*
X3525809Y-558048D01*
X3535333Y-539000D01*
X3554381Y-510429D01*
X3563905Y-500905D01*
X3744857Y-729476D02*
X3630571Y-729476D01*
X3687714Y-729476D02*
X3687714Y-529476D01*
X3668667Y-558048D01*
X3649619Y-577095D01*
X3630571Y-586619D01*
X3868667Y-529476D02*
X3887714Y-529476D01*
X3906762Y-539000D01*
X3916286Y-548524D01*
X3925809Y-567572D01*
X3935333Y-605667D01*
X3935333Y-653286D01*
X3925809Y-691381D01*
X3916286Y-710429D01*
X3906762Y-719952D01*
X3887714Y-729476D01*
X3868667Y-729476D01*
X3849619Y-719952D01*
X3840095Y-710429D01*
X3830571Y-691381D01*
X3821048Y-653286D01*
X3821048Y-605667D01*
X3830571Y-567572D01*
X3840095Y-548524D01*
X3849619Y-539000D01*
X3868667Y-529476D01*
X4059143Y-529476D02*
X4078190Y-529476D01*
X4097238Y-539000D01*
X4106762Y-548524D01*
X4116286Y-567572D01*
X4125809Y-605667D01*
X4125809Y-653286D01*
X4116286Y-691381D01*
X4106762Y-710429D01*
X4097238Y-719952D01*
X4078190Y-729476D01*
X4059143Y-729476D01*
X4040095Y-719952D01*
X4030571Y-710429D01*
X4021048Y-691381D01*
X4011524Y-653286D01*
X4011524Y-605667D01*
X4021048Y-567572D01*
X4030571Y-548524D01*
X4040095Y-539000D01*
X4059143Y-529476D01*
X4363905Y-729476D02*
X4363905Y-529476D01*
X4449619Y-729476D02*
X4449619Y-624714D01*
X4440095Y-605667D01*
X4421048Y-596143D01*
X4392476Y-596143D01*
X4373429Y-605667D01*
X4363905Y-615191D01*
X4573429Y-729476D02*
X4554381Y-719952D01*
X4544857Y-710429D01*
X4535333Y-691381D01*
X4535333Y-634238D01*
X4544857Y-615191D01*
X4554381Y-605667D01*
X4573429Y-596143D01*
X4602000Y-596143D01*
X4621048Y-605667D01*
X4630571Y-615191D01*
X4640095Y-634238D01*
X4640095Y-691381D01*
X4630571Y-710429D01*
X4621048Y-719952D01*
X4602000Y-729476D01*
X4573429Y-729476D01*
X4754381Y-729476D02*
X4735333Y-719952D01*
X4725810Y-700905D01*
X4725810Y-529476D01*
X4906762Y-719952D02*
X4887714Y-729476D01*
X4849619Y-729476D01*
X4830571Y-719952D01*
X4821048Y-700905D01*
X4821048Y-624714D01*
X4830571Y-605667D01*
X4849619Y-596143D01*
X4887714Y-596143D01*
X4906762Y-605667D01*
X4916286Y-624714D01*
X4916286Y-643762D01*
X4821048Y-662810D01*
X4992476Y-719952D02*
X5011524Y-729476D01*
X5049619Y-729476D01*
X5068667Y-719952D01*
X5078190Y-700905D01*
X5078190Y-691381D01*
X5068667Y-672334D01*
X5049619Y-662810D01*
X5021048Y-662810D01*
X5002000Y-653286D01*
X4992476Y-634238D01*
X4992476Y-624714D01*
X5002000Y-605667D01*
X5021048Y-596143D01*
X5049619Y-596143D01*
X5068667Y-605667D01*
X5144857Y-805667D02*
X5154381Y-796143D01*
X5173429Y-767572D01*
X5182952Y-748524D01*
X5192476Y-719952D01*
X5202000Y-672334D01*
X5202000Y-634238D01*
X5192476Y-586619D01*
X5182952Y-558048D01*
X5173429Y-539000D01*
X5154381Y-510429D01*
X5144857Y-500905D01*
D13*
X-8000Y-903000D02*
G75*
G03*
X-8000Y-903000I-20000J0D01*
G01*
D11*
X287714Y-793476D02*
X306762Y-793476D01*
X325810Y-803000D01*
X335333Y-812524D01*
X344857Y-831572D01*
X354381Y-869667D01*
X354381Y-917286D01*
X344857Y-955381D01*
X335333Y-974429D01*
X325810Y-983952D01*
X306762Y-993476D01*
X287714Y-993476D01*
X268667Y-983952D01*
X259143Y-974429D01*
X249619Y-955381D01*
X240095Y-917286D01*
X240095Y-869667D01*
X249619Y-831572D01*
X259143Y-812524D01*
X268667Y-803000D01*
X287714Y-793476D01*
X440095Y-974429D02*
X449619Y-983952D01*
X440095Y-993476D01*
X430571Y-983952D01*
X440095Y-974429D01*
X440095Y-993476D01*
X621048Y-860143D02*
X621048Y-993476D01*
X573429Y-783952D02*
X525810Y-926810D01*
X649619Y-926810D01*
X763905Y-793476D02*
X782952Y-793476D01*
X802000Y-803000D01*
X811524Y-812524D01*
X821048Y-831572D01*
X830571Y-869667D01*
X830571Y-917286D01*
X821048Y-955381D01*
X811524Y-974429D01*
X802000Y-983952D01*
X782952Y-993476D01*
X763905Y-993476D01*
X744857Y-983952D01*
X735333Y-974429D01*
X725809Y-955381D01*
X716286Y-917286D01*
X716286Y-869667D01*
X725809Y-831572D01*
X735333Y-812524D01*
X744857Y-803000D01*
X763905Y-793476D01*
X954381Y-793476D02*
X973428Y-793476D01*
X992476Y-803000D01*
X1002000Y-812524D01*
X1011524Y-831572D01*
X1021048Y-869667D01*
X1021048Y-917286D01*
X1011524Y-955381D01*
X1002000Y-974429D01*
X992476Y-983952D01*
X973428Y-993476D01*
X954381Y-993476D01*
X935333Y-983952D01*
X925809Y-974429D01*
X916286Y-955381D01*
X906762Y-917286D01*
X906762Y-869667D01*
X916286Y-831572D01*
X925809Y-812524D01*
X935333Y-803000D01*
X954381Y-793476D01*
X1106762Y-993476D02*
X1106762Y-860143D01*
X1106762Y-879191D02*
X1116286Y-869667D01*
X1135333Y-860143D01*
X1163905Y-860143D01*
X1182952Y-869667D01*
X1192476Y-888714D01*
X1192476Y-993476D01*
X1192476Y-888714D02*
X1202000Y-869667D01*
X1221048Y-860143D01*
X1249619Y-860143D01*
X1268667Y-869667D01*
X1278190Y-888714D01*
X1278190Y-993476D01*
X1373429Y-993476D02*
X1373429Y-860143D01*
X1373429Y-879191D02*
X1382952Y-869667D01*
X1402000Y-860143D01*
X1430571Y-860143D01*
X1449619Y-869667D01*
X1459143Y-888714D01*
X1459143Y-993476D01*
X1459143Y-888714D02*
X1468667Y-869667D01*
X1487714Y-860143D01*
X1516286Y-860143D01*
X1535333Y-869667D01*
X1544857Y-888714D01*
X1544857Y-993476D01*
X1935333Y-783952D02*
X1763905Y-1041095D01*
X2192476Y-793476D02*
X2211524Y-793476D01*
X2230571Y-803000D01*
X2240095Y-812524D01*
X2249619Y-831572D01*
X2259143Y-869667D01*
X2259143Y-917286D01*
X2249619Y-955381D01*
X2240095Y-974429D01*
X2230571Y-983952D01*
X2211524Y-993476D01*
X2192476Y-993476D01*
X2173429Y-983952D01*
X2163905Y-974429D01*
X2154381Y-955381D01*
X2144857Y-917286D01*
X2144857Y-869667D01*
X2154381Y-831572D01*
X2163905Y-812524D01*
X2173429Y-803000D01*
X2192476Y-793476D01*
X2344857Y-974429D02*
X2354381Y-983952D01*
X2344857Y-993476D01*
X2335333Y-983952D01*
X2344857Y-974429D01*
X2344857Y-993476D01*
X2478190Y-793476D02*
X2497238Y-793476D01*
X2516286Y-803000D01*
X2525810Y-812524D01*
X2535333Y-831572D01*
X2544857Y-869667D01*
X2544857Y-917286D01*
X2535333Y-955381D01*
X2525810Y-974429D01*
X2516286Y-983952D01*
X2497238Y-993476D01*
X2478190Y-993476D01*
X2459143Y-983952D01*
X2449619Y-974429D01*
X2440095Y-955381D01*
X2430571Y-917286D01*
X2430571Y-869667D01*
X2440095Y-831572D01*
X2449619Y-812524D01*
X2459143Y-803000D01*
X2478190Y-793476D01*
X2735333Y-993476D02*
X2621048Y-993476D01*
X2678190Y-993476D02*
X2678190Y-793476D01*
X2659143Y-822048D01*
X2640095Y-841095D01*
X2621048Y-850619D01*
X2916286Y-793476D02*
X2821048Y-793476D01*
X2811524Y-888714D01*
X2821048Y-879191D01*
X2840095Y-869667D01*
X2887714Y-869667D01*
X2906762Y-879191D01*
X2916286Y-888714D01*
X2925809Y-907762D01*
X2925809Y-955381D01*
X2916286Y-974429D01*
X2906762Y-983952D01*
X2887714Y-993476D01*
X2840095Y-993476D01*
X2821048Y-983952D01*
X2811524Y-974429D01*
X2992476Y-793476D02*
X3125809Y-793476D01*
X3040095Y-993476D01*
X3192476Y-793476D02*
X3192476Y-831572D01*
X3268667Y-793476D02*
X3268667Y-831572D01*
X3563905Y-1069667D02*
X3554381Y-1060143D01*
X3535333Y-1031572D01*
X3525809Y-1012524D01*
X3516286Y-983952D01*
X3506762Y-936333D01*
X3506762Y-898238D01*
X3516286Y-850619D01*
X3525809Y-822048D01*
X3535333Y-803000D01*
X3554381Y-774429D01*
X3563905Y-764905D01*
X3744857Y-993476D02*
X3630571Y-993476D01*
X3687714Y-993476D02*
X3687714Y-793476D01*
X3668667Y-822048D01*
X3649619Y-841095D01*
X3630571Y-850619D01*
X3916286Y-860143D02*
X3916286Y-993476D01*
X3868667Y-783952D02*
X3821048Y-926810D01*
X3944857Y-926810D01*
X4173428Y-993476D02*
X4173428Y-793476D01*
X4259143Y-993476D02*
X4259143Y-888714D01*
X4249619Y-869667D01*
X4230571Y-860143D01*
X4202000Y-860143D01*
X4182952Y-869667D01*
X4173428Y-879191D01*
X4382952Y-993476D02*
X4363905Y-983952D01*
X4354381Y-974429D01*
X4344857Y-955381D01*
X4344857Y-898238D01*
X4354381Y-879191D01*
X4363905Y-869667D01*
X4382952Y-860143D01*
X4411524Y-860143D01*
X4430571Y-869667D01*
X4440095Y-879191D01*
X4449619Y-898238D01*
X4449619Y-955381D01*
X4440095Y-974429D01*
X4430571Y-983952D01*
X4411524Y-993476D01*
X4382952Y-993476D01*
X4563905Y-993476D02*
X4544857Y-983952D01*
X4535333Y-964905D01*
X4535333Y-793476D01*
X4716286Y-983952D02*
X4697238Y-993476D01*
X4659143Y-993476D01*
X4640095Y-983952D01*
X4630571Y-964905D01*
X4630571Y-888714D01*
X4640095Y-869667D01*
X4659143Y-860143D01*
X4697238Y-860143D01*
X4716286Y-869667D01*
X4725810Y-888714D01*
X4725810Y-907762D01*
X4630571Y-926810D01*
X4802000Y-983952D02*
X4821048Y-993476D01*
X4859143Y-993476D01*
X4878190Y-983952D01*
X4887714Y-964905D01*
X4887714Y-955381D01*
X4878190Y-936333D01*
X4859143Y-926810D01*
X4830571Y-926810D01*
X4811524Y-917286D01*
X4802000Y-898238D01*
X4802000Y-888714D01*
X4811524Y-869667D01*
X4830571Y-860143D01*
X4859143Y-860143D01*
X4878190Y-869667D01*
X4954381Y-1069667D02*
X4963905Y-1060143D01*
X4982952Y-1031572D01*
X4992476Y-1012524D01*
X5002000Y-983952D01*
X5011524Y-936333D01*
X5011524Y-898238D01*
X5002000Y-850619D01*
X4992476Y-822048D01*
X4982952Y-803000D01*
X4963905Y-774429D01*
X4954381Y-764905D01*
D14*
X-33000Y-1142000D02*
X-33000Y-1192000D01*
X-58000Y-1167000D02*
X-8000Y-1167000D01*
D11*
X287714Y-1057476D02*
X306762Y-1057476D01*
X325810Y-1067000D01*
X335333Y-1076524D01*
X344857Y-1095572D01*
X354381Y-1133667D01*
X354381Y-1181286D01*
X344857Y-1219381D01*
X335333Y-1238429D01*
X325810Y-1247953D01*
X306762Y-1257476D01*
X287714Y-1257476D01*
X268667Y-1247953D01*
X259143Y-1238429D01*
X249619Y-1219381D01*
X240095Y-1181286D01*
X240095Y-1133667D01*
X249619Y-1095572D01*
X259143Y-1076524D01*
X268667Y-1067000D01*
X287714Y-1057476D01*
X440095Y-1238429D02*
X449619Y-1247953D01*
X440095Y-1257476D01*
X430571Y-1247953D01*
X440095Y-1238429D01*
X440095Y-1257476D01*
X630571Y-1057476D02*
X535333Y-1057476D01*
X525810Y-1152714D01*
X535333Y-1143191D01*
X554381Y-1133667D01*
X602000Y-1133667D01*
X621048Y-1143191D01*
X630571Y-1152714D01*
X640095Y-1171762D01*
X640095Y-1219381D01*
X630571Y-1238429D01*
X621048Y-1247953D01*
X602000Y-1257476D01*
X554381Y-1257476D01*
X535333Y-1247953D01*
X525810Y-1238429D01*
X763905Y-1057476D02*
X782952Y-1057476D01*
X802000Y-1067000D01*
X811524Y-1076524D01*
X821048Y-1095572D01*
X830571Y-1133667D01*
X830571Y-1181286D01*
X821048Y-1219381D01*
X811524Y-1238429D01*
X802000Y-1247953D01*
X782952Y-1257476D01*
X763905Y-1257476D01*
X744857Y-1247953D01*
X735333Y-1238429D01*
X725809Y-1219381D01*
X716286Y-1181286D01*
X716286Y-1133667D01*
X725809Y-1095572D01*
X735333Y-1076524D01*
X744857Y-1067000D01*
X763905Y-1057476D01*
X954381Y-1057476D02*
X973428Y-1057476D01*
X992476Y-1067000D01*
X1002000Y-1076524D01*
X1011524Y-1095572D01*
X1021048Y-1133667D01*
X1021048Y-1181286D01*
X1011524Y-1219381D01*
X1002000Y-1238429D01*
X992476Y-1247953D01*
X973428Y-1257476D01*
X954381Y-1257476D01*
X935333Y-1247953D01*
X925809Y-1238429D01*
X916286Y-1219381D01*
X906762Y-1181286D01*
X906762Y-1133667D01*
X916286Y-1095572D01*
X925809Y-1076524D01*
X935333Y-1067000D01*
X954381Y-1057476D01*
X1106762Y-1257476D02*
X1106762Y-1124143D01*
X1106762Y-1143191D02*
X1116286Y-1133667D01*
X1135333Y-1124143D01*
X1163905Y-1124143D01*
X1182952Y-1133667D01*
X1192476Y-1152714D01*
X1192476Y-1257476D01*
X1192476Y-1152714D02*
X1202000Y-1133667D01*
X1221048Y-1124143D01*
X1249619Y-1124143D01*
X1268667Y-1133667D01*
X1278190Y-1152714D01*
X1278190Y-1257476D01*
X1373429Y-1257476D02*
X1373429Y-1124143D01*
X1373429Y-1143191D02*
X1382952Y-1133667D01*
X1402000Y-1124143D01*
X1430571Y-1124143D01*
X1449619Y-1133667D01*
X1459143Y-1152714D01*
X1459143Y-1257476D01*
X1459143Y-1152714D02*
X1468667Y-1133667D01*
X1487714Y-1124143D01*
X1516286Y-1124143D01*
X1535333Y-1133667D01*
X1544857Y-1152714D01*
X1544857Y-1257476D01*
X1935333Y-1047952D02*
X1763905Y-1305095D01*
X2192476Y-1057476D02*
X2211524Y-1057476D01*
X2230571Y-1067000D01*
X2240095Y-1076524D01*
X2249619Y-1095572D01*
X2259143Y-1133667D01*
X2259143Y-1181286D01*
X2249619Y-1219381D01*
X2240095Y-1238429D01*
X2230571Y-1247953D01*
X2211524Y-1257476D01*
X2192476Y-1257476D01*
X2173429Y-1247953D01*
X2163905Y-1238429D01*
X2154381Y-1219381D01*
X2144857Y-1181286D01*
X2144857Y-1133667D01*
X2154381Y-1095572D01*
X2163905Y-1076524D01*
X2173429Y-1067000D01*
X2192476Y-1057476D01*
X2344857Y-1238429D02*
X2354381Y-1247953D01*
X2344857Y-1257476D01*
X2335333Y-1247953D01*
X2344857Y-1238429D01*
X2344857Y-1257476D01*
X2478190Y-1057476D02*
X2497238Y-1057476D01*
X2516286Y-1067000D01*
X2525810Y-1076524D01*
X2535333Y-1095572D01*
X2544857Y-1133667D01*
X2544857Y-1181286D01*
X2535333Y-1219381D01*
X2525810Y-1238429D01*
X2516286Y-1247953D01*
X2497238Y-1257476D01*
X2478190Y-1257476D01*
X2459143Y-1247953D01*
X2449619Y-1238429D01*
X2440095Y-1219381D01*
X2430571Y-1181286D01*
X2430571Y-1133667D01*
X2440095Y-1095572D01*
X2449619Y-1076524D01*
X2459143Y-1067000D01*
X2478190Y-1057476D01*
X2735333Y-1257476D02*
X2621048Y-1257476D01*
X2678190Y-1257476D02*
X2678190Y-1057476D01*
X2659143Y-1086048D01*
X2640095Y-1105095D01*
X2621048Y-1114619D01*
X2830571Y-1257476D02*
X2868667Y-1257476D01*
X2887714Y-1247953D01*
X2897238Y-1238429D01*
X2916286Y-1209857D01*
X2925809Y-1171762D01*
X2925809Y-1095572D01*
X2916286Y-1076524D01*
X2906762Y-1067000D01*
X2887714Y-1057476D01*
X2849619Y-1057476D01*
X2830571Y-1067000D01*
X2821048Y-1076524D01*
X2811524Y-1095572D01*
X2811524Y-1143191D01*
X2821048Y-1162238D01*
X2830571Y-1171762D01*
X2849619Y-1181286D01*
X2887714Y-1181286D01*
X2906762Y-1171762D01*
X2916286Y-1162238D01*
X2925809Y-1143191D01*
X2992476Y-1057476D02*
X3125809Y-1057476D01*
X3040095Y-1257476D01*
X3192476Y-1057476D02*
X3192476Y-1095572D01*
X3268667Y-1057476D02*
X3268667Y-1095572D01*
X3563905Y-1333667D02*
X3554381Y-1324143D01*
X3535333Y-1295572D01*
X3525809Y-1276524D01*
X3516286Y-1247953D01*
X3506762Y-1200334D01*
X3506762Y-1162238D01*
X3516286Y-1114619D01*
X3525809Y-1086048D01*
X3535333Y-1067000D01*
X3554381Y-1038429D01*
X3563905Y-1028905D01*
X3630571Y-1076524D02*
X3640095Y-1067000D01*
X3659143Y-1057476D01*
X3706762Y-1057476D01*
X3725809Y-1067000D01*
X3735333Y-1076524D01*
X3744857Y-1095572D01*
X3744857Y-1114619D01*
X3735333Y-1143191D01*
X3621048Y-1257476D01*
X3744857Y-1257476D01*
X3811524Y-1057476D02*
X3935333Y-1057476D01*
X3868667Y-1133667D01*
X3897238Y-1133667D01*
X3916286Y-1143191D01*
X3925809Y-1152714D01*
X3935333Y-1171762D01*
X3935333Y-1219381D01*
X3925809Y-1238429D01*
X3916286Y-1247953D01*
X3897238Y-1257476D01*
X3840095Y-1257476D01*
X3821048Y-1247953D01*
X3811524Y-1238429D01*
X4002000Y-1057476D02*
X4135333Y-1057476D01*
X4049619Y-1257476D01*
X4363905Y-1257476D02*
X4363905Y-1057476D01*
X4449619Y-1257476D02*
X4449619Y-1152714D01*
X4440095Y-1133667D01*
X4421048Y-1124143D01*
X4392476Y-1124143D01*
X4373429Y-1133667D01*
X4363905Y-1143191D01*
X4573429Y-1257476D02*
X4554381Y-1247953D01*
X4544857Y-1238429D01*
X4535333Y-1219381D01*
X4535333Y-1162238D01*
X4544857Y-1143191D01*
X4554381Y-1133667D01*
X4573429Y-1124143D01*
X4602000Y-1124143D01*
X4621048Y-1133667D01*
X4630571Y-1143191D01*
X4640095Y-1162238D01*
X4640095Y-1219381D01*
X4630571Y-1238429D01*
X4621048Y-1247953D01*
X4602000Y-1257476D01*
X4573429Y-1257476D01*
X4754381Y-1257476D02*
X4735333Y-1247953D01*
X4725810Y-1228905D01*
X4725810Y-1057476D01*
X4906762Y-1247953D02*
X4887714Y-1257476D01*
X4849619Y-1257476D01*
X4830571Y-1247953D01*
X4821048Y-1228905D01*
X4821048Y-1152714D01*
X4830571Y-1133667D01*
X4849619Y-1124143D01*
X4887714Y-1124143D01*
X4906762Y-1133667D01*
X4916286Y-1152714D01*
X4916286Y-1171762D01*
X4821048Y-1190810D01*
X4992476Y-1247953D02*
X5011524Y-1257476D01*
X5049619Y-1257476D01*
X5068667Y-1247953D01*
X5078190Y-1228905D01*
X5078190Y-1219381D01*
X5068667Y-1200334D01*
X5049619Y-1190810D01*
X5021048Y-1190810D01*
X5002000Y-1181286D01*
X4992476Y-1162238D01*
X4992476Y-1152714D01*
X5002000Y-1133667D01*
X5021048Y-1124143D01*
X5049619Y-1124143D01*
X5068667Y-1133667D01*
X5144857Y-1333667D02*
X5154381Y-1324143D01*
X5173429Y-1295572D01*
X5182952Y-1276524D01*
X5192476Y-1247953D01*
X5202000Y-1200334D01*
X5202000Y-1162238D01*
X5192476Y-1114619D01*
X5182952Y-1086048D01*
X5173429Y-1067000D01*
X5154381Y-1038429D01*
X5144857Y-1028905D01*
D15*
X-22644Y-1466356D02*
X-22644Y-1395645D01*
X-93356Y-1395645D01*
X-93356Y-1466356D01*
X-22644Y-1466356D01*
D11*
X354381Y-1521476D02*
X240095Y-1521476D01*
X297238Y-1521476D02*
X297238Y-1321476D01*
X278190Y-1350048D01*
X259143Y-1369095D01*
X240095Y-1378619D01*
X440095Y-1502429D02*
X449619Y-1511952D01*
X440095Y-1521476D01*
X430571Y-1511952D01*
X440095Y-1502429D01*
X440095Y-1521476D01*
X573429Y-1321476D02*
X592476Y-1321476D01*
X611524Y-1331000D01*
X621048Y-1340524D01*
X630571Y-1359572D01*
X640095Y-1397667D01*
X640095Y-1445286D01*
X630571Y-1483381D01*
X621048Y-1502429D01*
X611524Y-1511952D01*
X592476Y-1521476D01*
X573429Y-1521476D01*
X554381Y-1511952D01*
X544857Y-1502429D01*
X535333Y-1483381D01*
X525810Y-1445286D01*
X525810Y-1397667D01*
X535333Y-1359572D01*
X544857Y-1340524D01*
X554381Y-1331000D01*
X573429Y-1321476D01*
X763905Y-1321476D02*
X782952Y-1321476D01*
X802000Y-1331000D01*
X811524Y-1340524D01*
X821048Y-1359572D01*
X830571Y-1397667D01*
X830571Y-1445286D01*
X821048Y-1483381D01*
X811524Y-1502429D01*
X802000Y-1511952D01*
X782952Y-1521476D01*
X763905Y-1521476D01*
X744857Y-1511952D01*
X735333Y-1502429D01*
X725809Y-1483381D01*
X716286Y-1445286D01*
X716286Y-1397667D01*
X725809Y-1359572D01*
X735333Y-1340524D01*
X744857Y-1331000D01*
X763905Y-1321476D01*
X954381Y-1321476D02*
X973428Y-1321476D01*
X992476Y-1331000D01*
X1002000Y-1340524D01*
X1011524Y-1359572D01*
X1021048Y-1397667D01*
X1021048Y-1445286D01*
X1011524Y-1483381D01*
X1002000Y-1502429D01*
X992476Y-1511952D01*
X973428Y-1521476D01*
X954381Y-1521476D01*
X935333Y-1511952D01*
X925809Y-1502429D01*
X916286Y-1483381D01*
X906762Y-1445286D01*
X906762Y-1397667D01*
X916286Y-1359572D01*
X925809Y-1340524D01*
X935333Y-1331000D01*
X954381Y-1321476D01*
X1106762Y-1521476D02*
X1106762Y-1388143D01*
X1106762Y-1407191D02*
X1116286Y-1397667D01*
X1135333Y-1388143D01*
X1163905Y-1388143D01*
X1182952Y-1397667D01*
X1192476Y-1416714D01*
X1192476Y-1521476D01*
X1192476Y-1416714D02*
X1202000Y-1397667D01*
X1221048Y-1388143D01*
X1249619Y-1388143D01*
X1268667Y-1397667D01*
X1278190Y-1416714D01*
X1278190Y-1521476D01*
X1373429Y-1521476D02*
X1373429Y-1388143D01*
X1373429Y-1407191D02*
X1382952Y-1397667D01*
X1402000Y-1388143D01*
X1430571Y-1388143D01*
X1449619Y-1397667D01*
X1459143Y-1416714D01*
X1459143Y-1521476D01*
X1459143Y-1416714D02*
X1468667Y-1397667D01*
X1487714Y-1388143D01*
X1516286Y-1388143D01*
X1535333Y-1397667D01*
X1544857Y-1416714D01*
X1544857Y-1521476D01*
X1935333Y-1311953D02*
X1763905Y-1569095D01*
X2192476Y-1321476D02*
X2211524Y-1321476D01*
X2230571Y-1331000D01*
X2240095Y-1340524D01*
X2249619Y-1359572D01*
X2259143Y-1397667D01*
X2259143Y-1445286D01*
X2249619Y-1483381D01*
X2240095Y-1502429D01*
X2230571Y-1511952D01*
X2211524Y-1521476D01*
X2192476Y-1521476D01*
X2173429Y-1511952D01*
X2163905Y-1502429D01*
X2154381Y-1483381D01*
X2144857Y-1445286D01*
X2144857Y-1397667D01*
X2154381Y-1359572D01*
X2163905Y-1340524D01*
X2173429Y-1331000D01*
X2192476Y-1321476D01*
X2344857Y-1502429D02*
X2354381Y-1511952D01*
X2344857Y-1521476D01*
X2335333Y-1511952D01*
X2344857Y-1502429D01*
X2344857Y-1521476D01*
X2478190Y-1321476D02*
X2497238Y-1321476D01*
X2516286Y-1331000D01*
X2525810Y-1340524D01*
X2535333Y-1359572D01*
X2544857Y-1397667D01*
X2544857Y-1445286D01*
X2535333Y-1483381D01*
X2525810Y-1502429D01*
X2516286Y-1511952D01*
X2497238Y-1521476D01*
X2478190Y-1521476D01*
X2459143Y-1511952D01*
X2449619Y-1502429D01*
X2440095Y-1483381D01*
X2430571Y-1445286D01*
X2430571Y-1397667D01*
X2440095Y-1359572D01*
X2449619Y-1340524D01*
X2459143Y-1331000D01*
X2478190Y-1321476D01*
X2611524Y-1321476D02*
X2735333Y-1321476D01*
X2668667Y-1397667D01*
X2697238Y-1397667D01*
X2716286Y-1407191D01*
X2725810Y-1416714D01*
X2735333Y-1435762D01*
X2735333Y-1483381D01*
X2725810Y-1502429D01*
X2716286Y-1511952D01*
X2697238Y-1521476D01*
X2640095Y-1521476D01*
X2621048Y-1511952D01*
X2611524Y-1502429D01*
X2830571Y-1521476D02*
X2868667Y-1521476D01*
X2887714Y-1511952D01*
X2897238Y-1502429D01*
X2916286Y-1473857D01*
X2925809Y-1435762D01*
X2925809Y-1359572D01*
X2916286Y-1340524D01*
X2906762Y-1331000D01*
X2887714Y-1321476D01*
X2849619Y-1321476D01*
X2830571Y-1331000D01*
X2821048Y-1340524D01*
X2811524Y-1359572D01*
X2811524Y-1407191D01*
X2821048Y-1426238D01*
X2830571Y-1435762D01*
X2849619Y-1445286D01*
X2887714Y-1445286D01*
X2906762Y-1435762D01*
X2916286Y-1426238D01*
X2925809Y-1407191D01*
X3097238Y-1388143D02*
X3097238Y-1521476D01*
X3049619Y-1311953D02*
X3002000Y-1454810D01*
X3125809Y-1454810D01*
X3192476Y-1321476D02*
X3192476Y-1359572D01*
X3268667Y-1321476D02*
X3268667Y-1359572D01*
X3563905Y-1597667D02*
X3554381Y-1588143D01*
X3535333Y-1559572D01*
X3525809Y-1540524D01*
X3516286Y-1511952D01*
X3506762Y-1464333D01*
X3506762Y-1426238D01*
X3516286Y-1378619D01*
X3525809Y-1350048D01*
X3535333Y-1331000D01*
X3554381Y-1302429D01*
X3563905Y-1292905D01*
X3725809Y-1321476D02*
X3687714Y-1321476D01*
X3668667Y-1331000D01*
X3659143Y-1340524D01*
X3640095Y-1369095D01*
X3630571Y-1407191D01*
X3630571Y-1483381D01*
X3640095Y-1502429D01*
X3649619Y-1511952D01*
X3668667Y-1521476D01*
X3706762Y-1521476D01*
X3725809Y-1511952D01*
X3735333Y-1502429D01*
X3744857Y-1483381D01*
X3744857Y-1435762D01*
X3735333Y-1416714D01*
X3725809Y-1407191D01*
X3706762Y-1397667D01*
X3668667Y-1397667D01*
X3649619Y-1407191D01*
X3640095Y-1416714D01*
X3630571Y-1435762D01*
X3982952Y-1521476D02*
X3982952Y-1321476D01*
X4068667Y-1521476D02*
X4068667Y-1416714D01*
X4059143Y-1397667D01*
X4040095Y-1388143D01*
X4011524Y-1388143D01*
X3992476Y-1397667D01*
X3982952Y-1407191D01*
X4192476Y-1521476D02*
X4173428Y-1511952D01*
X4163905Y-1502429D01*
X4154381Y-1483381D01*
X4154381Y-1426238D01*
X4163905Y-1407191D01*
X4173428Y-1397667D01*
X4192476Y-1388143D01*
X4221048Y-1388143D01*
X4240095Y-1397667D01*
X4249619Y-1407191D01*
X4259143Y-1426238D01*
X4259143Y-1483381D01*
X4249619Y-1502429D01*
X4240095Y-1511952D01*
X4221048Y-1521476D01*
X4192476Y-1521476D01*
X4373429Y-1521476D02*
X4354381Y-1511952D01*
X4344857Y-1492905D01*
X4344857Y-1321476D01*
X4525810Y-1511952D02*
X4506762Y-1521476D01*
X4468667Y-1521476D01*
X4449619Y-1511952D01*
X4440095Y-1492905D01*
X4440095Y-1416714D01*
X4449619Y-1397667D01*
X4468667Y-1388143D01*
X4506762Y-1388143D01*
X4525810Y-1397667D01*
X4535333Y-1416714D01*
X4535333Y-1435762D01*
X4440095Y-1454810D01*
X4611524Y-1511952D02*
X4630571Y-1521476D01*
X4668667Y-1521476D01*
X4687714Y-1511952D01*
X4697238Y-1492905D01*
X4697238Y-1483381D01*
X4687714Y-1464333D01*
X4668667Y-1454810D01*
X4640095Y-1454810D01*
X4621048Y-1445286D01*
X4611524Y-1426238D01*
X4611524Y-1416714D01*
X4621048Y-1397667D01*
X4640095Y-1388143D01*
X4668667Y-1388143D01*
X4687714Y-1397667D01*
X4763905Y-1597667D02*
X4773429Y-1588143D01*
X4792476Y-1559572D01*
X4802000Y-1540524D01*
X4811524Y-1511952D01*
X4821048Y-1464333D01*
X4821048Y-1426238D01*
X4811524Y-1378619D01*
X4802000Y-1350048D01*
X4792476Y-1331000D01*
X4773429Y-1302429D01*
X4763905Y-1292905D01*
D16*
X-59000Y-1746000D02*
X-8000Y-1695000D01*
X-59000Y-1644000D01*
X-110000Y-1695000D01*
X-59000Y-1746000D01*
D11*
X354381Y-1785476D02*
X240095Y-1785476D01*
X297238Y-1785476D02*
X297238Y-1585476D01*
X278190Y-1614048D01*
X259143Y-1633095D01*
X240095Y-1642619D01*
X440095Y-1766429D02*
X449619Y-1775952D01*
X440095Y-1785476D01*
X430571Y-1775952D01*
X440095Y-1766429D01*
X440095Y-1785476D01*
X573429Y-1585476D02*
X592476Y-1585476D01*
X611524Y-1595000D01*
X621048Y-1604524D01*
X630571Y-1623572D01*
X640095Y-1661667D01*
X640095Y-1709286D01*
X630571Y-1747381D01*
X621048Y-1766429D01*
X611524Y-1775952D01*
X592476Y-1785476D01*
X573429Y-1785476D01*
X554381Y-1775952D01*
X544857Y-1766429D01*
X535333Y-1747381D01*
X525810Y-1709286D01*
X525810Y-1661667D01*
X535333Y-1623572D01*
X544857Y-1604524D01*
X554381Y-1595000D01*
X573429Y-1585476D01*
X716286Y-1604524D02*
X725809Y-1595000D01*
X744857Y-1585476D01*
X792476Y-1585476D01*
X811524Y-1595000D01*
X821048Y-1604524D01*
X830571Y-1623572D01*
X830571Y-1642619D01*
X821048Y-1671191D01*
X706762Y-1785476D01*
X830571Y-1785476D01*
X954381Y-1585476D02*
X973428Y-1585476D01*
X992476Y-1595000D01*
X1002000Y-1604524D01*
X1011524Y-1623572D01*
X1021048Y-1661667D01*
X1021048Y-1709286D01*
X1011524Y-1747381D01*
X1002000Y-1766429D01*
X992476Y-1775952D01*
X973428Y-1785476D01*
X954381Y-1785476D01*
X935333Y-1775952D01*
X925809Y-1766429D01*
X916286Y-1747381D01*
X906762Y-1709286D01*
X906762Y-1661667D01*
X916286Y-1623572D01*
X925809Y-1604524D01*
X935333Y-1595000D01*
X954381Y-1585476D01*
X1106762Y-1785476D02*
X1106762Y-1652143D01*
X1106762Y-1671191D02*
X1116286Y-1661667D01*
X1135333Y-1652143D01*
X1163905Y-1652143D01*
X1182952Y-1661667D01*
X1192476Y-1680714D01*
X1192476Y-1785476D01*
X1192476Y-1680714D02*
X1202000Y-1661667D01*
X1221048Y-1652143D01*
X1249619Y-1652143D01*
X1268667Y-1661667D01*
X1278190Y-1680714D01*
X1278190Y-1785476D01*
X1373429Y-1785476D02*
X1373429Y-1652143D01*
X1373429Y-1671191D02*
X1382952Y-1661667D01*
X1402000Y-1652143D01*
X1430571Y-1652143D01*
X1449619Y-1661667D01*
X1459143Y-1680714D01*
X1459143Y-1785476D01*
X1459143Y-1680714D02*
X1468667Y-1661667D01*
X1487714Y-1652143D01*
X1516286Y-1652143D01*
X1535333Y-1661667D01*
X1544857Y-1680714D01*
X1544857Y-1785476D01*
X1935333Y-1575952D02*
X1763905Y-1833095D01*
X2192476Y-1585476D02*
X2211524Y-1585476D01*
X2230571Y-1595000D01*
X2240095Y-1604524D01*
X2249619Y-1623572D01*
X2259143Y-1661667D01*
X2259143Y-1709286D01*
X2249619Y-1747381D01*
X2240095Y-1766429D01*
X2230571Y-1775952D01*
X2211524Y-1785476D01*
X2192476Y-1785476D01*
X2173429Y-1775952D01*
X2163905Y-1766429D01*
X2154381Y-1747381D01*
X2144857Y-1709286D01*
X2144857Y-1661667D01*
X2154381Y-1623572D01*
X2163905Y-1604524D01*
X2173429Y-1595000D01*
X2192476Y-1585476D01*
X2344857Y-1766429D02*
X2354381Y-1775952D01*
X2344857Y-1785476D01*
X2335333Y-1775952D01*
X2344857Y-1766429D01*
X2344857Y-1785476D01*
X2478190Y-1585476D02*
X2497238Y-1585476D01*
X2516286Y-1595000D01*
X2525810Y-1604524D01*
X2535333Y-1623572D01*
X2544857Y-1661667D01*
X2544857Y-1709286D01*
X2535333Y-1747381D01*
X2525810Y-1766429D01*
X2516286Y-1775952D01*
X2497238Y-1785476D01*
X2478190Y-1785476D01*
X2459143Y-1775952D01*
X2449619Y-1766429D01*
X2440095Y-1747381D01*
X2430571Y-1709286D01*
X2430571Y-1661667D01*
X2440095Y-1623572D01*
X2449619Y-1604524D01*
X2459143Y-1595000D01*
X2478190Y-1585476D01*
X2716286Y-1652143D02*
X2716286Y-1785476D01*
X2668667Y-1575952D02*
X2621048Y-1718810D01*
X2744857Y-1718810D01*
X2859143Y-1585476D02*
X2878190Y-1585476D01*
X2897238Y-1595000D01*
X2906762Y-1604524D01*
X2916286Y-1623572D01*
X2925809Y-1661667D01*
X2925809Y-1709286D01*
X2916286Y-1747381D01*
X2906762Y-1766429D01*
X2897238Y-1775952D01*
X2878190Y-1785476D01*
X2859143Y-1785476D01*
X2840095Y-1775952D01*
X2830571Y-1766429D01*
X2821048Y-1747381D01*
X2811524Y-1709286D01*
X2811524Y-1661667D01*
X2821048Y-1623572D01*
X2830571Y-1604524D01*
X2840095Y-1595000D01*
X2859143Y-1585476D01*
X3002000Y-1604524D02*
X3011524Y-1595000D01*
X3030571Y-1585476D01*
X3078190Y-1585476D01*
X3097238Y-1595000D01*
X3106762Y-1604524D01*
X3116286Y-1623572D01*
X3116286Y-1642619D01*
X3106762Y-1671191D01*
X2992476Y-1785476D01*
X3116286Y-1785476D01*
X3192476Y-1585476D02*
X3192476Y-1623572D01*
X3268667Y-1585476D02*
X3268667Y-1623572D01*
X3563905Y-1861667D02*
X3554381Y-1852143D01*
X3535333Y-1823572D01*
X3525809Y-1804524D01*
X3516286Y-1775952D01*
X3506762Y-1728333D01*
X3506762Y-1690238D01*
X3516286Y-1642619D01*
X3525809Y-1614048D01*
X3535333Y-1595000D01*
X3554381Y-1566429D01*
X3563905Y-1556905D01*
X3725809Y-1652143D02*
X3725809Y-1785476D01*
X3678190Y-1575952D02*
X3630571Y-1718810D01*
X3754381Y-1718810D01*
X3821048Y-1604524D02*
X3830571Y-1595000D01*
X3849619Y-1585476D01*
X3897238Y-1585476D01*
X3916286Y-1595000D01*
X3925809Y-1604524D01*
X3935333Y-1623572D01*
X3935333Y-1642619D01*
X3925809Y-1671191D01*
X3811524Y-1785476D01*
X3935333Y-1785476D01*
X4173428Y-1785476D02*
X4173428Y-1585476D01*
X4259143Y-1785476D02*
X4259143Y-1680714D01*
X4249619Y-1661667D01*
X4230571Y-1652143D01*
X4202000Y-1652143D01*
X4182952Y-1661667D01*
X4173428Y-1671191D01*
X4382952Y-1785476D02*
X4363905Y-1775952D01*
X4354381Y-1766429D01*
X4344857Y-1747381D01*
X4344857Y-1690238D01*
X4354381Y-1671191D01*
X4363905Y-1661667D01*
X4382952Y-1652143D01*
X4411524Y-1652143D01*
X4430571Y-1661667D01*
X4440095Y-1671191D01*
X4449619Y-1690238D01*
X4449619Y-1747381D01*
X4440095Y-1766429D01*
X4430571Y-1775952D01*
X4411524Y-1785476D01*
X4382952Y-1785476D01*
X4563905Y-1785476D02*
X4544857Y-1775952D01*
X4535333Y-1756905D01*
X4535333Y-1585476D01*
X4716286Y-1775952D02*
X4697238Y-1785476D01*
X4659143Y-1785476D01*
X4640095Y-1775952D01*
X4630571Y-1756905D01*
X4630571Y-1680714D01*
X4640095Y-1661667D01*
X4659143Y-1652143D01*
X4697238Y-1652143D01*
X4716286Y-1661667D01*
X4725810Y-1680714D01*
X4725810Y-1699762D01*
X4630571Y-1718810D01*
X4802000Y-1775952D02*
X4821048Y-1785476D01*
X4859143Y-1785476D01*
X4878190Y-1775952D01*
X4887714Y-1756905D01*
X4887714Y-1747381D01*
X4878190Y-1728333D01*
X4859143Y-1718810D01*
X4830571Y-1718810D01*
X4811524Y-1709286D01*
X4802000Y-1690238D01*
X4802000Y-1680714D01*
X4811524Y-1661667D01*
X4830571Y-1652143D01*
X4859143Y-1652143D01*
X4878190Y-1661667D01*
X4954381Y-1861667D02*
X4963905Y-1852143D01*
X4982952Y-1823572D01*
X4992476Y-1804524D01*
X5002000Y-1775952D01*
X5011524Y-1728333D01*
X5011524Y-1690238D01*
X5002000Y-1642619D01*
X4992476Y-1614048D01*
X4982952Y-1595000D01*
X4963905Y-1566429D01*
X4954381Y-1556905D01*
D17*
X-118000Y-1904000D02*
X-8000Y-2014000D01*
X-8000Y-1904000D02*
X-118000Y-2014000D01*
X-8000Y-1959000D02*
G75*
G03*
X-8000Y-1959000I-55000J0D01*
G01*
D11*
X354381Y-2049476D02*
X240095Y-2049476D01*
X297238Y-2049476D02*
X297238Y-1849476D01*
X278190Y-1878048D01*
X259143Y-1897095D01*
X240095Y-1906619D01*
X440095Y-2030429D02*
X449619Y-2039952D01*
X440095Y-2049476D01*
X430571Y-2039952D01*
X440095Y-2030429D01*
X440095Y-2049476D01*
X640095Y-2049476D02*
X525810Y-2049476D01*
X582952Y-2049476D02*
X582952Y-1849476D01*
X563905Y-1878048D01*
X544857Y-1897095D01*
X525810Y-1906619D01*
X763905Y-1849476D02*
X782952Y-1849476D01*
X802000Y-1859000D01*
X811524Y-1868524D01*
X821048Y-1887572D01*
X830571Y-1925667D01*
X830571Y-1973286D01*
X821048Y-2011381D01*
X811524Y-2030429D01*
X802000Y-2039952D01*
X782952Y-2049476D01*
X763905Y-2049476D01*
X744857Y-2039952D01*
X735333Y-2030429D01*
X725809Y-2011381D01*
X716286Y-1973286D01*
X716286Y-1925667D01*
X725809Y-1887572D01*
X735333Y-1868524D01*
X744857Y-1859000D01*
X763905Y-1849476D01*
X954381Y-1849476D02*
X973428Y-1849476D01*
X992476Y-1859000D01*
X1002000Y-1868524D01*
X1011524Y-1887572D01*
X1021048Y-1925667D01*
X1021048Y-1973286D01*
X1011524Y-2011381D01*
X1002000Y-2030429D01*
X992476Y-2039952D01*
X973428Y-2049476D01*
X954381Y-2049476D01*
X935333Y-2039952D01*
X925809Y-2030429D01*
X916286Y-2011381D01*
X906762Y-1973286D01*
X906762Y-1925667D01*
X916286Y-1887572D01*
X925809Y-1868524D01*
X935333Y-1859000D01*
X954381Y-1849476D01*
X1106762Y-2049476D02*
X1106762Y-1916143D01*
X1106762Y-1935191D02*
X1116286Y-1925667D01*
X1135333Y-1916143D01*
X1163905Y-1916143D01*
X1182952Y-1925667D01*
X1192476Y-1944714D01*
X1192476Y-2049476D01*
X1192476Y-1944714D02*
X1202000Y-1925667D01*
X1221048Y-1916143D01*
X1249619Y-1916143D01*
X1268667Y-1925667D01*
X1278190Y-1944714D01*
X1278190Y-2049476D01*
X1373429Y-2049476D02*
X1373429Y-1916143D01*
X1373429Y-1935191D02*
X1382952Y-1925667D01*
X1402000Y-1916143D01*
X1430571Y-1916143D01*
X1449619Y-1925667D01*
X1459143Y-1944714D01*
X1459143Y-2049476D01*
X1459143Y-1944714D02*
X1468667Y-1925667D01*
X1487714Y-1916143D01*
X1516286Y-1916143D01*
X1535333Y-1925667D01*
X1544857Y-1944714D01*
X1544857Y-2049476D01*
X1935333Y-1839952D02*
X1763905Y-2097095D01*
X2192476Y-1849476D02*
X2211524Y-1849476D01*
X2230571Y-1859000D01*
X2240095Y-1868524D01*
X2249619Y-1887572D01*
X2259143Y-1925667D01*
X2259143Y-1973286D01*
X2249619Y-2011381D01*
X2240095Y-2030429D01*
X2230571Y-2039952D01*
X2211524Y-2049476D01*
X2192476Y-2049476D01*
X2173429Y-2039952D01*
X2163905Y-2030429D01*
X2154381Y-2011381D01*
X2144857Y-1973286D01*
X2144857Y-1925667D01*
X2154381Y-1887572D01*
X2163905Y-1868524D01*
X2173429Y-1859000D01*
X2192476Y-1849476D01*
X2344857Y-2030429D02*
X2354381Y-2039952D01*
X2344857Y-2049476D01*
X2335333Y-2039952D01*
X2344857Y-2030429D01*
X2344857Y-2049476D01*
X2478190Y-1849476D02*
X2497238Y-1849476D01*
X2516286Y-1859000D01*
X2525810Y-1868524D01*
X2535333Y-1887572D01*
X2544857Y-1925667D01*
X2544857Y-1973286D01*
X2535333Y-2011381D01*
X2525810Y-2030429D01*
X2516286Y-2039952D01*
X2497238Y-2049476D01*
X2478190Y-2049476D01*
X2459143Y-2039952D01*
X2449619Y-2030429D01*
X2440095Y-2011381D01*
X2430571Y-1973286D01*
X2430571Y-1925667D01*
X2440095Y-1887572D01*
X2449619Y-1868524D01*
X2459143Y-1859000D01*
X2478190Y-1849476D01*
X2716286Y-1916143D02*
X2716286Y-2049476D01*
X2668667Y-1839952D02*
X2621048Y-1982810D01*
X2744857Y-1982810D01*
X2802000Y-1849476D02*
X2925809Y-1849476D01*
X2859143Y-1925667D01*
X2887714Y-1925667D01*
X2906762Y-1935191D01*
X2916286Y-1944714D01*
X2925809Y-1963762D01*
X2925809Y-2011381D01*
X2916286Y-2030429D01*
X2906762Y-2039952D01*
X2887714Y-2049476D01*
X2830571Y-2049476D01*
X2811524Y-2039952D01*
X2802000Y-2030429D01*
X2992476Y-1849476D02*
X3116286Y-1849476D01*
X3049619Y-1925667D01*
X3078190Y-1925667D01*
X3097238Y-1935191D01*
X3106762Y-1944714D01*
X3116286Y-1963762D01*
X3116286Y-2011381D01*
X3106762Y-2030429D01*
X3097238Y-2039952D01*
X3078190Y-2049476D01*
X3021048Y-2049476D01*
X3002000Y-2039952D01*
X2992476Y-2030429D01*
X3192476Y-1849476D02*
X3192476Y-1887572D01*
X3268667Y-1849476D02*
X3268667Y-1887572D01*
X3563905Y-2125667D02*
X3554381Y-2116143D01*
X3535333Y-2087572D01*
X3525809Y-2068524D01*
X3516286Y-2039952D01*
X3506762Y-1992333D01*
X3506762Y-1954238D01*
X3516286Y-1906619D01*
X3525809Y-1878048D01*
X3535333Y-1859000D01*
X3554381Y-1830429D01*
X3563905Y-1820905D01*
X3744857Y-2049476D02*
X3630571Y-2049476D01*
X3687714Y-2049476D02*
X3687714Y-1849476D01*
X3668667Y-1878048D01*
X3649619Y-1897095D01*
X3630571Y-1906619D01*
X3916286Y-1916143D02*
X3916286Y-2049476D01*
X3868667Y-1839952D02*
X3821048Y-1982810D01*
X3944857Y-1982810D01*
X4173428Y-2049476D02*
X4173428Y-1849476D01*
X4259143Y-2049476D02*
X4259143Y-1944714D01*
X4249619Y-1925667D01*
X4230571Y-1916143D01*
X4202000Y-1916143D01*
X4182952Y-1925667D01*
X4173428Y-1935191D01*
X4382952Y-2049476D02*
X4363905Y-2039952D01*
X4354381Y-2030429D01*
X4344857Y-2011381D01*
X4344857Y-1954238D01*
X4354381Y-1935191D01*
X4363905Y-1925667D01*
X4382952Y-1916143D01*
X4411524Y-1916143D01*
X4430571Y-1925667D01*
X4440095Y-1935191D01*
X4449619Y-1954238D01*
X4449619Y-2011381D01*
X4440095Y-2030429D01*
X4430571Y-2039952D01*
X4411524Y-2049476D01*
X4382952Y-2049476D01*
X4563905Y-2049476D02*
X4544857Y-2039952D01*
X4535333Y-2020905D01*
X4535333Y-1849476D01*
X4716286Y-2039952D02*
X4697238Y-2049476D01*
X4659143Y-2049476D01*
X4640095Y-2039952D01*
X4630571Y-2020905D01*
X4630571Y-1944714D01*
X4640095Y-1925667D01*
X4659143Y-1916143D01*
X4697238Y-1916143D01*
X4716286Y-1925667D01*
X4725810Y-1944714D01*
X4725810Y-1963762D01*
X4630571Y-1982810D01*
X4802000Y-2039952D02*
X4821048Y-2049476D01*
X4859143Y-2049476D01*
X4878190Y-2039952D01*
X4887714Y-2020905D01*
X4887714Y-2011381D01*
X4878190Y-1992333D01*
X4859143Y-1982810D01*
X4830571Y-1982810D01*
X4811524Y-1973286D01*
X4802000Y-1954238D01*
X4802000Y-1944714D01*
X4811524Y-1925667D01*
X4830571Y-1916143D01*
X4859143Y-1916143D01*
X4878190Y-1925667D01*
X4954381Y-2125667D02*
X4963905Y-2116143D01*
X4982952Y-2087572D01*
X4992476Y-2068524D01*
X5002000Y-2039952D01*
X5011524Y-1992333D01*
X5011524Y-1954238D01*
X5002000Y-1906619D01*
X4992476Y-1878048D01*
X4982952Y-1859000D01*
X4963905Y-1830429D01*
X4954381Y-1820905D01*
D18*
X-140080Y-2156960D02*
X-8000Y-2289040D01*
X-8000Y-2156960D02*
X-140080Y-2289040D01*
X-74040Y-2156960D02*
X-74040Y-2289040D01*
X-140080Y-2223000D02*
X-8000Y-2223000D01*
D11*
X354381Y-2313476D02*
X240095Y-2313476D01*
X297238Y-2313476D02*
X297238Y-2113476D01*
X278190Y-2142048D01*
X259143Y-2161095D01*
X240095Y-2170619D01*
X440095Y-2294429D02*
X449619Y-2303953D01*
X440095Y-2313476D01*
X430571Y-2303953D01*
X440095Y-2294429D01*
X440095Y-2313476D01*
X516286Y-2113476D02*
X640095Y-2113476D01*
X573429Y-2189667D01*
X602000Y-2189667D01*
X621048Y-2199191D01*
X630571Y-2208714D01*
X640095Y-2227762D01*
X640095Y-2275381D01*
X630571Y-2294429D01*
X621048Y-2303953D01*
X602000Y-2313476D01*
X544857Y-2313476D01*
X525810Y-2303953D01*
X516286Y-2294429D01*
X716286Y-2132524D02*
X725809Y-2123000D01*
X744857Y-2113476D01*
X792476Y-2113476D01*
X811524Y-2123000D01*
X821048Y-2132524D01*
X830571Y-2151572D01*
X830571Y-2170619D01*
X821048Y-2199191D01*
X706762Y-2313476D01*
X830571Y-2313476D01*
X1021048Y-2313476D02*
X906762Y-2313476D01*
X963905Y-2313476D02*
X963905Y-2113476D01*
X944857Y-2142048D01*
X925809Y-2161095D01*
X906762Y-2170619D01*
X1106762Y-2313476D02*
X1106762Y-2180143D01*
X1106762Y-2199191D02*
X1116286Y-2189667D01*
X1135333Y-2180143D01*
X1163905Y-2180143D01*
X1182952Y-2189667D01*
X1192476Y-2208714D01*
X1192476Y-2313476D01*
X1192476Y-2208714D02*
X1202000Y-2189667D01*
X1221048Y-2180143D01*
X1249619Y-2180143D01*
X1268667Y-2189667D01*
X1278190Y-2208714D01*
X1278190Y-2313476D01*
X1373429Y-2313476D02*
X1373429Y-2180143D01*
X1373429Y-2199191D02*
X1382952Y-2189667D01*
X1402000Y-2180143D01*
X1430571Y-2180143D01*
X1449619Y-2189667D01*
X1459143Y-2208714D01*
X1459143Y-2313476D01*
X1459143Y-2208714D02*
X1468667Y-2189667D01*
X1487714Y-2180143D01*
X1516286Y-2180143D01*
X1535333Y-2189667D01*
X1544857Y-2208714D01*
X1544857Y-2313476D01*
X1935333Y-2103953D02*
X1763905Y-2361095D01*
X2192476Y-2113476D02*
X2211524Y-2113476D01*
X2230571Y-2123000D01*
X2240095Y-2132524D01*
X2249619Y-2151572D01*
X2259143Y-2189667D01*
X2259143Y-2237286D01*
X2249619Y-2275381D01*
X2240095Y-2294429D01*
X2230571Y-2303953D01*
X2211524Y-2313476D01*
X2192476Y-2313476D01*
X2173429Y-2303953D01*
X2163905Y-2294429D01*
X2154381Y-2275381D01*
X2144857Y-2237286D01*
X2144857Y-2189667D01*
X2154381Y-2151572D01*
X2163905Y-2132524D01*
X2173429Y-2123000D01*
X2192476Y-2113476D01*
X2344857Y-2294429D02*
X2354381Y-2303953D01*
X2344857Y-2313476D01*
X2335333Y-2303953D01*
X2344857Y-2294429D01*
X2344857Y-2313476D01*
X2478190Y-2113476D02*
X2497238Y-2113476D01*
X2516286Y-2123000D01*
X2525810Y-2132524D01*
X2535333Y-2151572D01*
X2544857Y-2189667D01*
X2544857Y-2237286D01*
X2535333Y-2275381D01*
X2525810Y-2294429D01*
X2516286Y-2303953D01*
X2497238Y-2313476D01*
X2478190Y-2313476D01*
X2459143Y-2303953D01*
X2449619Y-2294429D01*
X2440095Y-2275381D01*
X2430571Y-2237286D01*
X2430571Y-2189667D01*
X2440095Y-2151572D01*
X2449619Y-2132524D01*
X2459143Y-2123000D01*
X2478190Y-2113476D01*
X2725810Y-2113476D02*
X2630571Y-2113476D01*
X2621048Y-2208714D01*
X2630571Y-2199191D01*
X2649619Y-2189667D01*
X2697238Y-2189667D01*
X2716286Y-2199191D01*
X2725810Y-2208714D01*
X2735333Y-2227762D01*
X2735333Y-2275381D01*
X2725810Y-2294429D01*
X2716286Y-2303953D01*
X2697238Y-2313476D01*
X2649619Y-2313476D01*
X2630571Y-2303953D01*
X2621048Y-2294429D01*
X2811524Y-2132524D02*
X2821048Y-2123000D01*
X2840095Y-2113476D01*
X2887714Y-2113476D01*
X2906762Y-2123000D01*
X2916286Y-2132524D01*
X2925809Y-2151572D01*
X2925809Y-2170619D01*
X2916286Y-2199191D01*
X2802000Y-2313476D01*
X2925809Y-2313476D01*
X3049619Y-2113476D02*
X3068667Y-2113476D01*
X3087714Y-2123000D01*
X3097238Y-2132524D01*
X3106762Y-2151572D01*
X3116286Y-2189667D01*
X3116286Y-2237286D01*
X3106762Y-2275381D01*
X3097238Y-2294429D01*
X3087714Y-2303953D01*
X3068667Y-2313476D01*
X3049619Y-2313476D01*
X3030571Y-2303953D01*
X3021048Y-2294429D01*
X3011524Y-2275381D01*
X3002000Y-2237286D01*
X3002000Y-2189667D01*
X3011524Y-2151572D01*
X3021048Y-2132524D01*
X3030571Y-2123000D01*
X3049619Y-2113476D01*
X3192476Y-2113476D02*
X3192476Y-2151572D01*
X3268667Y-2113476D02*
X3268667Y-2151572D01*
X3563905Y-2389667D02*
X3554381Y-2380143D01*
X3535333Y-2351572D01*
X3525809Y-2332524D01*
X3516286Y-2303953D01*
X3506762Y-2256334D01*
X3506762Y-2218238D01*
X3516286Y-2170619D01*
X3525809Y-2142048D01*
X3535333Y-2123000D01*
X3554381Y-2094429D01*
X3563905Y-2084905D01*
X3744857Y-2313476D02*
X3630571Y-2313476D01*
X3687714Y-2313476D02*
X3687714Y-2113476D01*
X3668667Y-2142048D01*
X3649619Y-2161095D01*
X3630571Y-2170619D01*
X3821048Y-2132524D02*
X3830571Y-2123000D01*
X3849619Y-2113476D01*
X3897238Y-2113476D01*
X3916286Y-2123000D01*
X3925809Y-2132524D01*
X3935333Y-2151572D01*
X3935333Y-2170619D01*
X3925809Y-2199191D01*
X3811524Y-2313476D01*
X3935333Y-2313476D01*
X4173428Y-2313476D02*
X4173428Y-2113476D01*
X4259143Y-2313476D02*
X4259143Y-2208714D01*
X4249619Y-2189667D01*
X4230571Y-2180143D01*
X4202000Y-2180143D01*
X4182952Y-2189667D01*
X4173428Y-2199191D01*
X4382952Y-2313476D02*
X4363905Y-2303953D01*
X4354381Y-2294429D01*
X4344857Y-2275381D01*
X4344857Y-2218238D01*
X4354381Y-2199191D01*
X4363905Y-2189667D01*
X4382952Y-2180143D01*
X4411524Y-2180143D01*
X4430571Y-2189667D01*
X4440095Y-2199191D01*
X4449619Y-2218238D01*
X4449619Y-2275381D01*
X4440095Y-2294429D01*
X4430571Y-2303953D01*
X4411524Y-2313476D01*
X4382952Y-2313476D01*
X4563905Y-2313476D02*
X4544857Y-2303953D01*
X4535333Y-2284905D01*
X4535333Y-2113476D01*
X4716286Y-2303953D02*
X4697238Y-2313476D01*
X4659143Y-2313476D01*
X4640095Y-2303953D01*
X4630571Y-2284905D01*
X4630571Y-2208714D01*
X4640095Y-2189667D01*
X4659143Y-2180143D01*
X4697238Y-2180143D01*
X4716286Y-2189667D01*
X4725810Y-2208714D01*
X4725810Y-2227762D01*
X4630571Y-2246810D01*
X4802000Y-2303953D02*
X4821048Y-2313476D01*
X4859143Y-2313476D01*
X4878190Y-2303953D01*
X4887714Y-2284905D01*
X4887714Y-2275381D01*
X4878190Y-2256334D01*
X4859143Y-2246810D01*
X4830571Y-2246810D01*
X4811524Y-2237286D01*
X4802000Y-2218238D01*
X4802000Y-2208714D01*
X4811524Y-2189667D01*
X4830571Y-2180143D01*
X4859143Y-2180143D01*
X4878190Y-2189667D01*
X4954381Y-2389667D02*
X4963905Y-2380143D01*
X4982952Y-2351572D01*
X4992476Y-2332524D01*
X5002000Y-2303953D01*
X5011524Y-2256334D01*
X5011524Y-2218238D01*
X5002000Y-2170619D01*
X4992476Y-2142048D01*
X4982952Y-2123000D01*
X4963905Y-2094429D01*
X4954381Y-2084905D01*
D19*
X-148000Y-2417000D02*
X-8000Y-2557000D01*
X-8000Y-2417000D02*
X-148000Y-2557000D01*
X-28502Y-2536498D02*
X-28502Y-2437502D01*
X-127498Y-2437502D01*
X-127498Y-2536498D01*
X-28502Y-2536498D01*
D11*
X354381Y-2577476D02*
X240095Y-2577476D01*
X297238Y-2577476D02*
X297238Y-2377476D01*
X278190Y-2406048D01*
X259143Y-2425095D01*
X240095Y-2434619D01*
X440095Y-2558429D02*
X449619Y-2567953D01*
X440095Y-2577476D01*
X430571Y-2567953D01*
X440095Y-2558429D01*
X440095Y-2577476D01*
X621048Y-2444143D02*
X621048Y-2577476D01*
X573429Y-2367953D02*
X525810Y-2510810D01*
X649619Y-2510810D01*
X763905Y-2377476D02*
X782952Y-2377476D01*
X802000Y-2387000D01*
X811524Y-2396524D01*
X821048Y-2415572D01*
X830571Y-2453667D01*
X830571Y-2501286D01*
X821048Y-2539381D01*
X811524Y-2558429D01*
X802000Y-2567953D01*
X782952Y-2577476D01*
X763905Y-2577476D01*
X744857Y-2567953D01*
X735333Y-2558429D01*
X725809Y-2539381D01*
X716286Y-2501286D01*
X716286Y-2453667D01*
X725809Y-2415572D01*
X735333Y-2396524D01*
X744857Y-2387000D01*
X763905Y-2377476D01*
X954381Y-2377476D02*
X973428Y-2377476D01*
X992476Y-2387000D01*
X1002000Y-2396524D01*
X1011524Y-2415572D01*
X1021048Y-2453667D01*
X1021048Y-2501286D01*
X1011524Y-2539381D01*
X1002000Y-2558429D01*
X992476Y-2567953D01*
X973428Y-2577476D01*
X954381Y-2577476D01*
X935333Y-2567953D01*
X925809Y-2558429D01*
X916286Y-2539381D01*
X906762Y-2501286D01*
X906762Y-2453667D01*
X916286Y-2415572D01*
X925809Y-2396524D01*
X935333Y-2387000D01*
X954381Y-2377476D01*
X1106762Y-2577476D02*
X1106762Y-2444143D01*
X1106762Y-2463191D02*
X1116286Y-2453667D01*
X1135333Y-2444143D01*
X1163905Y-2444143D01*
X1182952Y-2453667D01*
X1192476Y-2472714D01*
X1192476Y-2577476D01*
X1192476Y-2472714D02*
X1202000Y-2453667D01*
X1221048Y-2444143D01*
X1249619Y-2444143D01*
X1268667Y-2453667D01*
X1278190Y-2472714D01*
X1278190Y-2577476D01*
X1373429Y-2577476D02*
X1373429Y-2444143D01*
X1373429Y-2463191D02*
X1382952Y-2453667D01*
X1402000Y-2444143D01*
X1430571Y-2444143D01*
X1449619Y-2453667D01*
X1459143Y-2472714D01*
X1459143Y-2577476D01*
X1459143Y-2472714D02*
X1468667Y-2453667D01*
X1487714Y-2444143D01*
X1516286Y-2444143D01*
X1535333Y-2453667D01*
X1544857Y-2472714D01*
X1544857Y-2577476D01*
X1935333Y-2367953D02*
X1763905Y-2625095D01*
X2192476Y-2377476D02*
X2211524Y-2377476D01*
X2230571Y-2387000D01*
X2240095Y-2396524D01*
X2249619Y-2415572D01*
X2259143Y-2453667D01*
X2259143Y-2501286D01*
X2249619Y-2539381D01*
X2240095Y-2558429D01*
X2230571Y-2567953D01*
X2211524Y-2577476D01*
X2192476Y-2577476D01*
X2173429Y-2567953D01*
X2163905Y-2558429D01*
X2154381Y-2539381D01*
X2144857Y-2501286D01*
X2144857Y-2453667D01*
X2154381Y-2415572D01*
X2163905Y-2396524D01*
X2173429Y-2387000D01*
X2192476Y-2377476D01*
X2344857Y-2558429D02*
X2354381Y-2567953D01*
X2344857Y-2577476D01*
X2335333Y-2567953D01*
X2344857Y-2558429D01*
X2344857Y-2577476D01*
X2478190Y-2377476D02*
X2497238Y-2377476D01*
X2516286Y-2387000D01*
X2525810Y-2396524D01*
X2535333Y-2415572D01*
X2544857Y-2453667D01*
X2544857Y-2501286D01*
X2535333Y-2539381D01*
X2525810Y-2558429D01*
X2516286Y-2567953D01*
X2497238Y-2577476D01*
X2478190Y-2577476D01*
X2459143Y-2567953D01*
X2449619Y-2558429D01*
X2440095Y-2539381D01*
X2430571Y-2501286D01*
X2430571Y-2453667D01*
X2440095Y-2415572D01*
X2449619Y-2396524D01*
X2459143Y-2387000D01*
X2478190Y-2377476D01*
X2725810Y-2377476D02*
X2630571Y-2377476D01*
X2621048Y-2472714D01*
X2630571Y-2463191D01*
X2649619Y-2453667D01*
X2697238Y-2453667D01*
X2716286Y-2463191D01*
X2725810Y-2472714D01*
X2735333Y-2491762D01*
X2735333Y-2539381D01*
X2725810Y-2558429D01*
X2716286Y-2567953D01*
X2697238Y-2577476D01*
X2649619Y-2577476D01*
X2630571Y-2567953D01*
X2621048Y-2558429D01*
X2916286Y-2377476D02*
X2821048Y-2377476D01*
X2811524Y-2472714D01*
X2821048Y-2463191D01*
X2840095Y-2453667D01*
X2887714Y-2453667D01*
X2906762Y-2463191D01*
X2916286Y-2472714D01*
X2925809Y-2491762D01*
X2925809Y-2539381D01*
X2916286Y-2558429D01*
X2906762Y-2567953D01*
X2887714Y-2577476D01*
X2840095Y-2577476D01*
X2821048Y-2567953D01*
X2811524Y-2558429D01*
X3116286Y-2577476D02*
X3002000Y-2577476D01*
X3059143Y-2577476D02*
X3059143Y-2377476D01*
X3040095Y-2406048D01*
X3021048Y-2425095D01*
X3002000Y-2434619D01*
X3192476Y-2377476D02*
X3192476Y-2415572D01*
X3268667Y-2377476D02*
X3268667Y-2415572D01*
X3563905Y-2653667D02*
X3554381Y-2644143D01*
X3535333Y-2615572D01*
X3525809Y-2596524D01*
X3516286Y-2567953D01*
X3506762Y-2520334D01*
X3506762Y-2482238D01*
X3516286Y-2434619D01*
X3525809Y-2406048D01*
X3535333Y-2387000D01*
X3554381Y-2358429D01*
X3563905Y-2348905D01*
X3725809Y-2377476D02*
X3687714Y-2377476D01*
X3668667Y-2387000D01*
X3659143Y-2396524D01*
X3640095Y-2425095D01*
X3630571Y-2463191D01*
X3630571Y-2539381D01*
X3640095Y-2558429D01*
X3649619Y-2567953D01*
X3668667Y-2577476D01*
X3706762Y-2577476D01*
X3725809Y-2567953D01*
X3735333Y-2558429D01*
X3744857Y-2539381D01*
X3744857Y-2491762D01*
X3735333Y-2472714D01*
X3725809Y-2463191D01*
X3706762Y-2453667D01*
X3668667Y-2453667D01*
X3649619Y-2463191D01*
X3640095Y-2472714D01*
X3630571Y-2491762D01*
X3982952Y-2577476D02*
X3982952Y-2377476D01*
X4068667Y-2577476D02*
X4068667Y-2472714D01*
X4059143Y-2453667D01*
X4040095Y-2444143D01*
X4011524Y-2444143D01*
X3992476Y-2453667D01*
X3982952Y-2463191D01*
X4192476Y-2577476D02*
X4173428Y-2567953D01*
X4163905Y-2558429D01*
X4154381Y-2539381D01*
X4154381Y-2482238D01*
X4163905Y-2463191D01*
X4173428Y-2453667D01*
X4192476Y-2444143D01*
X4221048Y-2444143D01*
X4240095Y-2453667D01*
X4249619Y-2463191D01*
X4259143Y-2482238D01*
X4259143Y-2539381D01*
X4249619Y-2558429D01*
X4240095Y-2567953D01*
X4221048Y-2577476D01*
X4192476Y-2577476D01*
X4373429Y-2577476D02*
X4354381Y-2567953D01*
X4344857Y-2548905D01*
X4344857Y-2377476D01*
X4525810Y-2567953D02*
X4506762Y-2577476D01*
X4468667Y-2577476D01*
X4449619Y-2567953D01*
X4440095Y-2548905D01*
X4440095Y-2472714D01*
X4449619Y-2453667D01*
X4468667Y-2444143D01*
X4506762Y-2444143D01*
X4525810Y-2453667D01*
X4535333Y-2472714D01*
X4535333Y-2491762D01*
X4440095Y-2510810D01*
X4611524Y-2567953D02*
X4630571Y-2577476D01*
X4668667Y-2577476D01*
X4687714Y-2567953D01*
X4697238Y-2548905D01*
X4697238Y-2539381D01*
X4687714Y-2520334D01*
X4668667Y-2510810D01*
X4640095Y-2510810D01*
X4621048Y-2501286D01*
X4611524Y-2482238D01*
X4611524Y-2472714D01*
X4621048Y-2453667D01*
X4640095Y-2444143D01*
X4668667Y-2444143D01*
X4687714Y-2453667D01*
X4763905Y-2653667D02*
X4773429Y-2644143D01*
X4792476Y-2615572D01*
X4802000Y-2596524D01*
X4811524Y-2567953D01*
X4821048Y-2520334D01*
X4821048Y-2482238D01*
X4811524Y-2434619D01*
X4802000Y-2406048D01*
X4792476Y-2387000D01*
X4773429Y-2358429D01*
X4763905Y-2348905D01*
D20*
X-158000Y-2676000D02*
X-8000Y-2826000D01*
X-8000Y-2676000D02*
X-158000Y-2826000D01*
X-83000Y-2826000D02*
X-8000Y-2751000D01*
X-83000Y-2676000D01*
X-158000Y-2751000D01*
X-83000Y-2826000D01*
D11*
X354381Y-2841476D02*
X240095Y-2841476D01*
X297238Y-2841476D02*
X297238Y-2641476D01*
X278190Y-2670048D01*
X259143Y-2689095D01*
X240095Y-2698619D01*
X440095Y-2822429D02*
X449619Y-2831952D01*
X440095Y-2841476D01*
X430571Y-2831952D01*
X440095Y-2822429D01*
X440095Y-2841476D01*
X630571Y-2641476D02*
X535333Y-2641476D01*
X525810Y-2736714D01*
X535333Y-2727191D01*
X554381Y-2717667D01*
X602000Y-2717667D01*
X621048Y-2727191D01*
X630571Y-2736714D01*
X640095Y-2755762D01*
X640095Y-2803381D01*
X630571Y-2822429D01*
X621048Y-2831952D01*
X602000Y-2841476D01*
X554381Y-2841476D01*
X535333Y-2831952D01*
X525810Y-2822429D01*
X763905Y-2641476D02*
X782952Y-2641476D01*
X802000Y-2651000D01*
X811524Y-2660524D01*
X821048Y-2679572D01*
X830571Y-2717667D01*
X830571Y-2765286D01*
X821048Y-2803381D01*
X811524Y-2822429D01*
X802000Y-2831952D01*
X782952Y-2841476D01*
X763905Y-2841476D01*
X744857Y-2831952D01*
X735333Y-2822429D01*
X725809Y-2803381D01*
X716286Y-2765286D01*
X716286Y-2717667D01*
X725809Y-2679572D01*
X735333Y-2660524D01*
X744857Y-2651000D01*
X763905Y-2641476D01*
X954381Y-2641476D02*
X973428Y-2641476D01*
X992476Y-2651000D01*
X1002000Y-2660524D01*
X1011524Y-2679572D01*
X1021048Y-2717667D01*
X1021048Y-2765286D01*
X1011524Y-2803381D01*
X1002000Y-2822429D01*
X992476Y-2831952D01*
X973428Y-2841476D01*
X954381Y-2841476D01*
X935333Y-2831952D01*
X925809Y-2822429D01*
X916286Y-2803381D01*
X906762Y-2765286D01*
X906762Y-2717667D01*
X916286Y-2679572D01*
X925809Y-2660524D01*
X935333Y-2651000D01*
X954381Y-2641476D01*
X1106762Y-2841476D02*
X1106762Y-2708143D01*
X1106762Y-2727191D02*
X1116286Y-2717667D01*
X1135333Y-2708143D01*
X1163905Y-2708143D01*
X1182952Y-2717667D01*
X1192476Y-2736714D01*
X1192476Y-2841476D01*
X1192476Y-2736714D02*
X1202000Y-2717667D01*
X1221048Y-2708143D01*
X1249619Y-2708143D01*
X1268667Y-2717667D01*
X1278190Y-2736714D01*
X1278190Y-2841476D01*
X1373429Y-2841476D02*
X1373429Y-2708143D01*
X1373429Y-2727191D02*
X1382952Y-2717667D01*
X1402000Y-2708143D01*
X1430571Y-2708143D01*
X1449619Y-2717667D01*
X1459143Y-2736714D01*
X1459143Y-2841476D01*
X1459143Y-2736714D02*
X1468667Y-2717667D01*
X1487714Y-2708143D01*
X1516286Y-2708143D01*
X1535333Y-2717667D01*
X1544857Y-2736714D01*
X1544857Y-2841476D01*
X1935333Y-2631953D02*
X1763905Y-2889095D01*
X2192476Y-2641476D02*
X2211524Y-2641476D01*
X2230571Y-2651000D01*
X2240095Y-2660524D01*
X2249619Y-2679572D01*
X2259143Y-2717667D01*
X2259143Y-2765286D01*
X2249619Y-2803381D01*
X2240095Y-2822429D01*
X2230571Y-2831952D01*
X2211524Y-2841476D01*
X2192476Y-2841476D01*
X2173429Y-2831952D01*
X2163905Y-2822429D01*
X2154381Y-2803381D01*
X2144857Y-2765286D01*
X2144857Y-2717667D01*
X2154381Y-2679572D01*
X2163905Y-2660524D01*
X2173429Y-2651000D01*
X2192476Y-2641476D01*
X2344857Y-2822429D02*
X2354381Y-2831952D01*
X2344857Y-2841476D01*
X2335333Y-2831952D01*
X2344857Y-2822429D01*
X2344857Y-2841476D01*
X2478190Y-2641476D02*
X2497238Y-2641476D01*
X2516286Y-2651000D01*
X2525810Y-2660524D01*
X2535333Y-2679572D01*
X2544857Y-2717667D01*
X2544857Y-2765286D01*
X2535333Y-2803381D01*
X2525810Y-2822429D01*
X2516286Y-2831952D01*
X2497238Y-2841476D01*
X2478190Y-2841476D01*
X2459143Y-2831952D01*
X2449619Y-2822429D01*
X2440095Y-2803381D01*
X2430571Y-2765286D01*
X2430571Y-2717667D01*
X2440095Y-2679572D01*
X2449619Y-2660524D01*
X2459143Y-2651000D01*
X2478190Y-2641476D01*
X2725810Y-2641476D02*
X2630571Y-2641476D01*
X2621048Y-2736714D01*
X2630571Y-2727191D01*
X2649619Y-2717667D01*
X2697238Y-2717667D01*
X2716286Y-2727191D01*
X2725810Y-2736714D01*
X2735333Y-2755762D01*
X2735333Y-2803381D01*
X2725810Y-2822429D01*
X2716286Y-2831952D01*
X2697238Y-2841476D01*
X2649619Y-2841476D01*
X2630571Y-2831952D01*
X2621048Y-2822429D01*
X2830571Y-2841476D02*
X2868667Y-2841476D01*
X2887714Y-2831952D01*
X2897238Y-2822429D01*
X2916286Y-2793857D01*
X2925809Y-2755762D01*
X2925809Y-2679572D01*
X2916286Y-2660524D01*
X2906762Y-2651000D01*
X2887714Y-2641476D01*
X2849619Y-2641476D01*
X2830571Y-2651000D01*
X2821048Y-2660524D01*
X2811524Y-2679572D01*
X2811524Y-2727191D01*
X2821048Y-2746238D01*
X2830571Y-2755762D01*
X2849619Y-2765286D01*
X2887714Y-2765286D01*
X2906762Y-2755762D01*
X2916286Y-2746238D01*
X2925809Y-2727191D01*
X3116286Y-2841476D02*
X3002000Y-2841476D01*
X3059143Y-2841476D02*
X3059143Y-2641476D01*
X3040095Y-2670048D01*
X3021048Y-2689095D01*
X3002000Y-2698619D01*
X3192476Y-2641476D02*
X3192476Y-2679572D01*
X3268667Y-2641476D02*
X3268667Y-2679572D01*
X3563905Y-2917667D02*
X3554381Y-2908143D01*
X3535333Y-2879572D01*
X3525809Y-2860524D01*
X3516286Y-2831952D01*
X3506762Y-2784334D01*
X3506762Y-2746238D01*
X3516286Y-2698619D01*
X3525809Y-2670048D01*
X3535333Y-2651000D01*
X3554381Y-2622429D01*
X3563905Y-2612905D01*
X3725809Y-2641476D02*
X3687714Y-2641476D01*
X3668667Y-2651000D01*
X3659143Y-2660524D01*
X3640095Y-2689095D01*
X3630571Y-2727191D01*
X3630571Y-2803381D01*
X3640095Y-2822429D01*
X3649619Y-2831952D01*
X3668667Y-2841476D01*
X3706762Y-2841476D01*
X3725809Y-2831952D01*
X3735333Y-2822429D01*
X3744857Y-2803381D01*
X3744857Y-2755762D01*
X3735333Y-2736714D01*
X3725809Y-2727191D01*
X3706762Y-2717667D01*
X3668667Y-2717667D01*
X3649619Y-2727191D01*
X3640095Y-2736714D01*
X3630571Y-2755762D01*
X3982952Y-2841476D02*
X3982952Y-2641476D01*
X4068667Y-2841476D02*
X4068667Y-2736714D01*
X4059143Y-2717667D01*
X4040095Y-2708143D01*
X4011524Y-2708143D01*
X3992476Y-2717667D01*
X3982952Y-2727191D01*
X4192476Y-2841476D02*
X4173428Y-2831952D01*
X4163905Y-2822429D01*
X4154381Y-2803381D01*
X4154381Y-2746238D01*
X4163905Y-2727191D01*
X4173428Y-2717667D01*
X4192476Y-2708143D01*
X4221048Y-2708143D01*
X4240095Y-2717667D01*
X4249619Y-2727191D01*
X4259143Y-2746238D01*
X4259143Y-2803381D01*
X4249619Y-2822429D01*
X4240095Y-2831952D01*
X4221048Y-2841476D01*
X4192476Y-2841476D01*
X4373429Y-2841476D02*
X4354381Y-2831952D01*
X4344857Y-2812905D01*
X4344857Y-2641476D01*
X4525810Y-2831952D02*
X4506762Y-2841476D01*
X4468667Y-2841476D01*
X4449619Y-2831952D01*
X4440095Y-2812905D01*
X4440095Y-2736714D01*
X4449619Y-2717667D01*
X4468667Y-2708143D01*
X4506762Y-2708143D01*
X4525810Y-2717667D01*
X4535333Y-2736714D01*
X4535333Y-2755762D01*
X4440095Y-2774810D01*
X4611524Y-2831952D02*
X4630571Y-2841476D01*
X4668667Y-2841476D01*
X4687714Y-2831952D01*
X4697238Y-2812905D01*
X4697238Y-2803381D01*
X4687714Y-2784334D01*
X4668667Y-2774810D01*
X4640095Y-2774810D01*
X4621048Y-2765286D01*
X4611524Y-2746238D01*
X4611524Y-2736714D01*
X4621048Y-2717667D01*
X4640095Y-2708143D01*
X4668667Y-2708143D01*
X4687714Y-2717667D01*
X4763905Y-2917667D02*
X4773429Y-2908143D01*
X4792476Y-2879572D01*
X4802000Y-2860524D01*
X4811524Y-2831952D01*
X4821048Y-2784334D01*
X4821048Y-2746238D01*
X4811524Y-2698619D01*
X4802000Y-2670048D01*
X4792476Y-2651000D01*
X4773429Y-2622429D01*
X4763905Y-2612905D01*
D21*
X-103000Y-2926000D02*
X-103000Y-3116000D01*
X-198000Y-3021000D02*
X-8000Y-3021000D01*
X-8000Y-3021000D02*
G75*
G03*
X-8000Y-3021000I-95000J0D01*
G01*
D11*
X354381Y-3111476D02*
X240095Y-3111476D01*
X297238Y-3111476D02*
X297238Y-2911476D01*
X278190Y-2940048D01*
X259143Y-2959095D01*
X240095Y-2968619D01*
X440095Y-3092429D02*
X449619Y-3101952D01*
X440095Y-3111476D01*
X430571Y-3101952D01*
X440095Y-3092429D01*
X440095Y-3111476D01*
X544857Y-3111476D02*
X582952Y-3111476D01*
X602000Y-3101952D01*
X611524Y-3092429D01*
X630571Y-3063857D01*
X640095Y-3025762D01*
X640095Y-2949572D01*
X630571Y-2930524D01*
X621048Y-2921000D01*
X602000Y-2911476D01*
X563905Y-2911476D01*
X544857Y-2921000D01*
X535333Y-2930524D01*
X525810Y-2949572D01*
X525810Y-2997191D01*
X535333Y-3016238D01*
X544857Y-3025762D01*
X563905Y-3035286D01*
X602000Y-3035286D01*
X621048Y-3025762D01*
X630571Y-3016238D01*
X640095Y-2997191D01*
X763905Y-2911476D02*
X782952Y-2911476D01*
X802000Y-2921000D01*
X811524Y-2930524D01*
X821048Y-2949572D01*
X830571Y-2987667D01*
X830571Y-3035286D01*
X821048Y-3073381D01*
X811524Y-3092429D01*
X802000Y-3101952D01*
X782952Y-3111476D01*
X763905Y-3111476D01*
X744857Y-3101952D01*
X735333Y-3092429D01*
X725809Y-3073381D01*
X716286Y-3035286D01*
X716286Y-2987667D01*
X725809Y-2949572D01*
X735333Y-2930524D01*
X744857Y-2921000D01*
X763905Y-2911476D01*
X954381Y-2911476D02*
X973428Y-2911476D01*
X992476Y-2921000D01*
X1002000Y-2930524D01*
X1011524Y-2949572D01*
X1021048Y-2987667D01*
X1021048Y-3035286D01*
X1011524Y-3073381D01*
X1002000Y-3092429D01*
X992476Y-3101952D01*
X973428Y-3111476D01*
X954381Y-3111476D01*
X935333Y-3101952D01*
X925809Y-3092429D01*
X916286Y-3073381D01*
X906762Y-3035286D01*
X906762Y-2987667D01*
X916286Y-2949572D01*
X925809Y-2930524D01*
X935333Y-2921000D01*
X954381Y-2911476D01*
X1106762Y-3111476D02*
X1106762Y-2978143D01*
X1106762Y-2997191D02*
X1116286Y-2987667D01*
X1135333Y-2978143D01*
X1163905Y-2978143D01*
X1182952Y-2987667D01*
X1192476Y-3006714D01*
X1192476Y-3111476D01*
X1192476Y-3006714D02*
X1202000Y-2987667D01*
X1221048Y-2978143D01*
X1249619Y-2978143D01*
X1268667Y-2987667D01*
X1278190Y-3006714D01*
X1278190Y-3111476D01*
X1373429Y-3111476D02*
X1373429Y-2978143D01*
X1373429Y-2997191D02*
X1382952Y-2987667D01*
X1402000Y-2978143D01*
X1430571Y-2978143D01*
X1449619Y-2987667D01*
X1459143Y-3006714D01*
X1459143Y-3111476D01*
X1459143Y-3006714D02*
X1468667Y-2987667D01*
X1487714Y-2978143D01*
X1516286Y-2978143D01*
X1535333Y-2987667D01*
X1544857Y-3006714D01*
X1544857Y-3111476D01*
X1935333Y-2901952D02*
X1763905Y-3159095D01*
X2192476Y-2911476D02*
X2211524Y-2911476D01*
X2230571Y-2921000D01*
X2240095Y-2930524D01*
X2249619Y-2949572D01*
X2259143Y-2987667D01*
X2259143Y-3035286D01*
X2249619Y-3073381D01*
X2240095Y-3092429D01*
X2230571Y-3101952D01*
X2211524Y-3111476D01*
X2192476Y-3111476D01*
X2173429Y-3101952D01*
X2163905Y-3092429D01*
X2154381Y-3073381D01*
X2144857Y-3035286D01*
X2144857Y-2987667D01*
X2154381Y-2949572D01*
X2163905Y-2930524D01*
X2173429Y-2921000D01*
X2192476Y-2911476D01*
X2344857Y-3092429D02*
X2354381Y-3101952D01*
X2344857Y-3111476D01*
X2335333Y-3101952D01*
X2344857Y-3092429D01*
X2344857Y-3111476D01*
X2478190Y-2911476D02*
X2497238Y-2911476D01*
X2516286Y-2921000D01*
X2525810Y-2930524D01*
X2535333Y-2949572D01*
X2544857Y-2987667D01*
X2544857Y-3035286D01*
X2535333Y-3073381D01*
X2525810Y-3092429D01*
X2516286Y-3101952D01*
X2497238Y-3111476D01*
X2478190Y-3111476D01*
X2459143Y-3101952D01*
X2449619Y-3092429D01*
X2440095Y-3073381D01*
X2430571Y-3035286D01*
X2430571Y-2987667D01*
X2440095Y-2949572D01*
X2449619Y-2930524D01*
X2459143Y-2921000D01*
X2478190Y-2911476D01*
X2611524Y-2911476D02*
X2744857Y-2911476D01*
X2659143Y-3111476D01*
X2906762Y-2978143D02*
X2906762Y-3111476D01*
X2859143Y-2901952D02*
X2811524Y-3044810D01*
X2935333Y-3044810D01*
X3040095Y-2997191D02*
X3021048Y-2987667D01*
X3011524Y-2978143D01*
X3002000Y-2959095D01*
X3002000Y-2949572D01*
X3011524Y-2930524D01*
X3021048Y-2921000D01*
X3040095Y-2911476D01*
X3078190Y-2911476D01*
X3097238Y-2921000D01*
X3106762Y-2930524D01*
X3116286Y-2949572D01*
X3116286Y-2959095D01*
X3106762Y-2978143D01*
X3097238Y-2987667D01*
X3078190Y-2997191D01*
X3040095Y-2997191D01*
X3021048Y-3006714D01*
X3011524Y-3016238D01*
X3002000Y-3035286D01*
X3002000Y-3073381D01*
X3011524Y-3092429D01*
X3021048Y-3101952D01*
X3040095Y-3111476D01*
X3078190Y-3111476D01*
X3097238Y-3101952D01*
X3106762Y-3092429D01*
X3116286Y-3073381D01*
X3116286Y-3035286D01*
X3106762Y-3016238D01*
X3097238Y-3006714D01*
X3078190Y-2997191D01*
X3192476Y-2911476D02*
X3192476Y-2949572D01*
X3268667Y-2911476D02*
X3268667Y-2949572D01*
X3563905Y-3187667D02*
X3554381Y-3178143D01*
X3535333Y-3149572D01*
X3525809Y-3130524D01*
X3516286Y-3101952D01*
X3506762Y-3054333D01*
X3506762Y-3016238D01*
X3516286Y-2968619D01*
X3525809Y-2940048D01*
X3535333Y-2921000D01*
X3554381Y-2892429D01*
X3563905Y-2882905D01*
X3630571Y-2930524D02*
X3640095Y-2921000D01*
X3659143Y-2911476D01*
X3706762Y-2911476D01*
X3725809Y-2921000D01*
X3735333Y-2930524D01*
X3744857Y-2949572D01*
X3744857Y-2968619D01*
X3735333Y-2997191D01*
X3621048Y-3111476D01*
X3744857Y-3111476D01*
X3982952Y-3111476D02*
X3982952Y-2911476D01*
X4068667Y-3111476D02*
X4068667Y-3006714D01*
X4059143Y-2987667D01*
X4040095Y-2978143D01*
X4011524Y-2978143D01*
X3992476Y-2987667D01*
X3982952Y-2997191D01*
X4192476Y-3111476D02*
X4173428Y-3101952D01*
X4163905Y-3092429D01*
X4154381Y-3073381D01*
X4154381Y-3016238D01*
X4163905Y-2997191D01*
X4173428Y-2987667D01*
X4192476Y-2978143D01*
X4221048Y-2978143D01*
X4240095Y-2987667D01*
X4249619Y-2997191D01*
X4259143Y-3016238D01*
X4259143Y-3073381D01*
X4249619Y-3092429D01*
X4240095Y-3101952D01*
X4221048Y-3111476D01*
X4192476Y-3111476D01*
X4373429Y-3111476D02*
X4354381Y-3101952D01*
X4344857Y-3082905D01*
X4344857Y-2911476D01*
X4525810Y-3101952D02*
X4506762Y-3111476D01*
X4468667Y-3111476D01*
X4449619Y-3101952D01*
X4440095Y-3082905D01*
X4440095Y-3006714D01*
X4449619Y-2987667D01*
X4468667Y-2978143D01*
X4506762Y-2978143D01*
X4525810Y-2987667D01*
X4535333Y-3006714D01*
X4535333Y-3025762D01*
X4440095Y-3044810D01*
X4611524Y-3101952D02*
X4630571Y-3111476D01*
X4668667Y-3111476D01*
X4687714Y-3101952D01*
X4697238Y-3082905D01*
X4697238Y-3073381D01*
X4687714Y-3054333D01*
X4668667Y-3044810D01*
X4640095Y-3044810D01*
X4621048Y-3035286D01*
X4611524Y-3016238D01*
X4611524Y-3006714D01*
X4621048Y-2987667D01*
X4640095Y-2978143D01*
X4668667Y-2978143D01*
X4687714Y-2987667D01*
X4763905Y-3187667D02*
X4773429Y-3178143D01*
X4792476Y-3149572D01*
X4802000Y-3130524D01*
X4811524Y-3101952D01*
X4821048Y-3054333D01*
X4821048Y-3016238D01*
X4811524Y-2968619D01*
X4802000Y-2940048D01*
X4792476Y-2921000D01*
X4773429Y-2892429D01*
X4763905Y-2882905D01*
X-37289Y-3401712D02*
X-37289Y-3260289D01*
X-178711Y-3260289D01*
X-178711Y-3401712D01*
X-37289Y-3401712D01*
X-8000Y-3331000D02*
G75*
G03*
X-8000Y-3331000I-100000J0D01*
G01*
X240095Y-3240524D02*
X249619Y-3231000D01*
X268667Y-3221476D01*
X316286Y-3221476D01*
X335333Y-3231000D01*
X344857Y-3240524D01*
X354381Y-3259572D01*
X354381Y-3278619D01*
X344857Y-3307191D01*
X230571Y-3421476D01*
X354381Y-3421476D01*
X440095Y-3402429D02*
X449619Y-3411952D01*
X440095Y-3421476D01*
X430571Y-3411952D01*
X440095Y-3402429D01*
X440095Y-3421476D01*
X573429Y-3221476D02*
X592476Y-3221476D01*
X611524Y-3231000D01*
X621048Y-3240524D01*
X630571Y-3259572D01*
X640095Y-3297667D01*
X640095Y-3345286D01*
X630571Y-3383381D01*
X621048Y-3402429D01*
X611524Y-3411952D01*
X592476Y-3421476D01*
X573429Y-3421476D01*
X554381Y-3411952D01*
X544857Y-3402429D01*
X535333Y-3383381D01*
X525810Y-3345286D01*
X525810Y-3297667D01*
X535333Y-3259572D01*
X544857Y-3240524D01*
X554381Y-3231000D01*
X573429Y-3221476D01*
X763905Y-3221476D02*
X782952Y-3221476D01*
X802000Y-3231000D01*
X811524Y-3240524D01*
X821048Y-3259572D01*
X830571Y-3297667D01*
X830571Y-3345286D01*
X821048Y-3383381D01*
X811524Y-3402429D01*
X802000Y-3411952D01*
X782952Y-3421476D01*
X763905Y-3421476D01*
X744857Y-3411952D01*
X735333Y-3402429D01*
X725809Y-3383381D01*
X716286Y-3345286D01*
X716286Y-3297667D01*
X725809Y-3259572D01*
X735333Y-3240524D01*
X744857Y-3231000D01*
X763905Y-3221476D01*
X954381Y-3221476D02*
X973428Y-3221476D01*
X992476Y-3231000D01*
X1002000Y-3240524D01*
X1011524Y-3259572D01*
X1021048Y-3297667D01*
X1021048Y-3345286D01*
X1011524Y-3383381D01*
X1002000Y-3402429D01*
X992476Y-3411952D01*
X973428Y-3421476D01*
X954381Y-3421476D01*
X935333Y-3411952D01*
X925809Y-3402429D01*
X916286Y-3383381D01*
X906762Y-3345286D01*
X906762Y-3297667D01*
X916286Y-3259572D01*
X925809Y-3240524D01*
X935333Y-3231000D01*
X954381Y-3221476D01*
X1106762Y-3421476D02*
X1106762Y-3288143D01*
X1106762Y-3307191D02*
X1116286Y-3297667D01*
X1135333Y-3288143D01*
X1163905Y-3288143D01*
X1182952Y-3297667D01*
X1192476Y-3316714D01*
X1192476Y-3421476D01*
X1192476Y-3316714D02*
X1202000Y-3297667D01*
X1221048Y-3288143D01*
X1249619Y-3288143D01*
X1268667Y-3297667D01*
X1278190Y-3316714D01*
X1278190Y-3421476D01*
X1373429Y-3421476D02*
X1373429Y-3288143D01*
X1373429Y-3307191D02*
X1382952Y-3297667D01*
X1402000Y-3288143D01*
X1430571Y-3288143D01*
X1449619Y-3297667D01*
X1459143Y-3316714D01*
X1459143Y-3421476D01*
X1459143Y-3316714D02*
X1468667Y-3297667D01*
X1487714Y-3288143D01*
X1516286Y-3288143D01*
X1535333Y-3297667D01*
X1544857Y-3316714D01*
X1544857Y-3421476D01*
X1935333Y-3211952D02*
X1763905Y-3469095D01*
X2192476Y-3221476D02*
X2211524Y-3221476D01*
X2230571Y-3231000D01*
X2240095Y-3240524D01*
X2249619Y-3259572D01*
X2259143Y-3297667D01*
X2259143Y-3345286D01*
X2249619Y-3383381D01*
X2240095Y-3402429D01*
X2230571Y-3411952D01*
X2211524Y-3421476D01*
X2192476Y-3421476D01*
X2173429Y-3411952D01*
X2163905Y-3402429D01*
X2154381Y-3383381D01*
X2144857Y-3345286D01*
X2144857Y-3297667D01*
X2154381Y-3259572D01*
X2163905Y-3240524D01*
X2173429Y-3231000D01*
X2192476Y-3221476D01*
X2344857Y-3402429D02*
X2354381Y-3411952D01*
X2344857Y-3421476D01*
X2335333Y-3411952D01*
X2344857Y-3402429D01*
X2344857Y-3421476D01*
X2478190Y-3221476D02*
X2497238Y-3221476D01*
X2516286Y-3231000D01*
X2525810Y-3240524D01*
X2535333Y-3259572D01*
X2544857Y-3297667D01*
X2544857Y-3345286D01*
X2535333Y-3383381D01*
X2525810Y-3402429D01*
X2516286Y-3411952D01*
X2497238Y-3421476D01*
X2478190Y-3421476D01*
X2459143Y-3411952D01*
X2449619Y-3402429D01*
X2440095Y-3383381D01*
X2430571Y-3345286D01*
X2430571Y-3297667D01*
X2440095Y-3259572D01*
X2449619Y-3240524D01*
X2459143Y-3231000D01*
X2478190Y-3221476D01*
X2611524Y-3221476D02*
X2744857Y-3221476D01*
X2659143Y-3421476D01*
X2849619Y-3307191D02*
X2830571Y-3297667D01*
X2821048Y-3288143D01*
X2811524Y-3269095D01*
X2811524Y-3259572D01*
X2821048Y-3240524D01*
X2830571Y-3231000D01*
X2849619Y-3221476D01*
X2887714Y-3221476D01*
X2906762Y-3231000D01*
X2916286Y-3240524D01*
X2925809Y-3259572D01*
X2925809Y-3269095D01*
X2916286Y-3288143D01*
X2906762Y-3297667D01*
X2887714Y-3307191D01*
X2849619Y-3307191D01*
X2830571Y-3316714D01*
X2821048Y-3326238D01*
X2811524Y-3345286D01*
X2811524Y-3383381D01*
X2821048Y-3402429D01*
X2830571Y-3411952D01*
X2849619Y-3421476D01*
X2887714Y-3421476D01*
X2906762Y-3411952D01*
X2916286Y-3402429D01*
X2925809Y-3383381D01*
X2925809Y-3345286D01*
X2916286Y-3326238D01*
X2906762Y-3316714D01*
X2887714Y-3307191D01*
X2992476Y-3221476D02*
X3125809Y-3221476D01*
X3040095Y-3421476D01*
X3192476Y-3221476D02*
X3192476Y-3259572D01*
X3268667Y-3221476D02*
X3268667Y-3259572D01*
X3563905Y-3497667D02*
X3554381Y-3488143D01*
X3535333Y-3459572D01*
X3525809Y-3440524D01*
X3516286Y-3411952D01*
X3506762Y-3364333D01*
X3506762Y-3326238D01*
X3516286Y-3278619D01*
X3525809Y-3250048D01*
X3535333Y-3231000D01*
X3554381Y-3202429D01*
X3563905Y-3192905D01*
X3725809Y-3288143D02*
X3725809Y-3421476D01*
X3678190Y-3211952D02*
X3630571Y-3354810D01*
X3754381Y-3354810D01*
X3982952Y-3421476D02*
X3982952Y-3221476D01*
X4068667Y-3421476D02*
X4068667Y-3316714D01*
X4059143Y-3297667D01*
X4040095Y-3288143D01*
X4011524Y-3288143D01*
X3992476Y-3297667D01*
X3982952Y-3307191D01*
X4192476Y-3421476D02*
X4173428Y-3411952D01*
X4163905Y-3402429D01*
X4154381Y-3383381D01*
X4154381Y-3326238D01*
X4163905Y-3307191D01*
X4173428Y-3297667D01*
X4192476Y-3288143D01*
X4221048Y-3288143D01*
X4240095Y-3297667D01*
X4249619Y-3307191D01*
X4259143Y-3326238D01*
X4259143Y-3383381D01*
X4249619Y-3402429D01*
X4240095Y-3411952D01*
X4221048Y-3421476D01*
X4192476Y-3421476D01*
X4373429Y-3421476D02*
X4354381Y-3411952D01*
X4344857Y-3392905D01*
X4344857Y-3221476D01*
X4525810Y-3411952D02*
X4506762Y-3421476D01*
X4468667Y-3421476D01*
X4449619Y-3411952D01*
X4440095Y-3392905D01*
X4440095Y-3316714D01*
X4449619Y-3297667D01*
X4468667Y-3288143D01*
X4506762Y-3288143D01*
X4525810Y-3297667D01*
X4535333Y-3316714D01*
X4535333Y-3335762D01*
X4440095Y-3354810D01*
X4611524Y-3411952D02*
X4630571Y-3421476D01*
X4668667Y-3421476D01*
X4687714Y-3411952D01*
X4697238Y-3392905D01*
X4697238Y-3383381D01*
X4687714Y-3364333D01*
X4668667Y-3354810D01*
X4640095Y-3354810D01*
X4621048Y-3345286D01*
X4611524Y-3326238D01*
X4611524Y-3316714D01*
X4621048Y-3297667D01*
X4640095Y-3288143D01*
X4668667Y-3288143D01*
X4687714Y-3297667D01*
X4763905Y-3497667D02*
X4773429Y-3488143D01*
X4792476Y-3459572D01*
X4802000Y-3440524D01*
X4811524Y-3411952D01*
X4821048Y-3364333D01*
X4821048Y-3326238D01*
X4811524Y-3278619D01*
X4802000Y-3250048D01*
X4792476Y-3231000D01*
X4773429Y-3202429D01*
X4763905Y-3192905D01*
X-108000Y-3751000D02*
X-8000Y-3651000D01*
X-108000Y-3551000D01*
X-208000Y-3651000D01*
X-108000Y-3751000D01*
X-8000Y-3651000D02*
G75*
G03*
X-8000Y-3651000I-100000J0D01*
G01*
X240095Y-3560524D02*
X249619Y-3551000D01*
X268667Y-3541476D01*
X316286Y-3541476D01*
X335333Y-3551000D01*
X344857Y-3560524D01*
X354381Y-3579572D01*
X354381Y-3598619D01*
X344857Y-3627191D01*
X230571Y-3741476D01*
X354381Y-3741476D01*
X440095Y-3722429D02*
X449619Y-3731952D01*
X440095Y-3741476D01*
X430571Y-3731952D01*
X440095Y-3722429D01*
X440095Y-3741476D01*
X630571Y-3541476D02*
X535333Y-3541476D01*
X525810Y-3636714D01*
X535333Y-3627191D01*
X554381Y-3617667D01*
X602000Y-3617667D01*
X621048Y-3627191D01*
X630571Y-3636714D01*
X640095Y-3655762D01*
X640095Y-3703381D01*
X630571Y-3722429D01*
X621048Y-3731952D01*
X602000Y-3741476D01*
X554381Y-3741476D01*
X535333Y-3731952D01*
X525810Y-3722429D01*
X763905Y-3541476D02*
X782952Y-3541476D01*
X802000Y-3551000D01*
X811524Y-3560524D01*
X821048Y-3579572D01*
X830571Y-3617667D01*
X830571Y-3665286D01*
X821048Y-3703381D01*
X811524Y-3722429D01*
X802000Y-3731952D01*
X782952Y-3741476D01*
X763905Y-3741476D01*
X744857Y-3731952D01*
X735333Y-3722429D01*
X725809Y-3703381D01*
X716286Y-3665286D01*
X716286Y-3617667D01*
X725809Y-3579572D01*
X735333Y-3560524D01*
X744857Y-3551000D01*
X763905Y-3541476D01*
X954381Y-3541476D02*
X973428Y-3541476D01*
X992476Y-3551000D01*
X1002000Y-3560524D01*
X1011524Y-3579572D01*
X1021048Y-3617667D01*
X1021048Y-3665286D01*
X1011524Y-3703381D01*
X1002000Y-3722429D01*
X992476Y-3731952D01*
X973428Y-3741476D01*
X954381Y-3741476D01*
X935333Y-3731952D01*
X925809Y-3722429D01*
X916286Y-3703381D01*
X906762Y-3665286D01*
X906762Y-3617667D01*
X916286Y-3579572D01*
X925809Y-3560524D01*
X935333Y-3551000D01*
X954381Y-3541476D01*
X1106762Y-3741476D02*
X1106762Y-3608143D01*
X1106762Y-3627191D02*
X1116286Y-3617667D01*
X1135333Y-3608143D01*
X1163905Y-3608143D01*
X1182952Y-3617667D01*
X1192476Y-3636714D01*
X1192476Y-3741476D01*
X1192476Y-3636714D02*
X1202000Y-3617667D01*
X1221048Y-3608143D01*
X1249619Y-3608143D01*
X1268667Y-3617667D01*
X1278190Y-3636714D01*
X1278190Y-3741476D01*
X1373429Y-3741476D02*
X1373429Y-3608143D01*
X1373429Y-3627191D02*
X1382952Y-3617667D01*
X1402000Y-3608143D01*
X1430571Y-3608143D01*
X1449619Y-3617667D01*
X1459143Y-3636714D01*
X1459143Y-3741476D01*
X1459143Y-3636714D02*
X1468667Y-3617667D01*
X1487714Y-3608143D01*
X1516286Y-3608143D01*
X1535333Y-3617667D01*
X1544857Y-3636714D01*
X1544857Y-3741476D01*
X1935333Y-3531952D02*
X1763905Y-3789095D01*
X2192476Y-3541476D02*
X2211524Y-3541476D01*
X2230571Y-3551000D01*
X2240095Y-3560524D01*
X2249619Y-3579572D01*
X2259143Y-3617667D01*
X2259143Y-3665286D01*
X2249619Y-3703381D01*
X2240095Y-3722429D01*
X2230571Y-3731952D01*
X2211524Y-3741476D01*
X2192476Y-3741476D01*
X2173429Y-3731952D01*
X2163905Y-3722429D01*
X2154381Y-3703381D01*
X2144857Y-3665286D01*
X2144857Y-3617667D01*
X2154381Y-3579572D01*
X2163905Y-3560524D01*
X2173429Y-3551000D01*
X2192476Y-3541476D01*
X2344857Y-3722429D02*
X2354381Y-3731952D01*
X2344857Y-3741476D01*
X2335333Y-3731952D01*
X2344857Y-3722429D01*
X2344857Y-3741476D01*
X2478190Y-3541476D02*
X2497238Y-3541476D01*
X2516286Y-3551000D01*
X2525810Y-3560524D01*
X2535333Y-3579572D01*
X2544857Y-3617667D01*
X2544857Y-3665286D01*
X2535333Y-3703381D01*
X2525810Y-3722429D01*
X2516286Y-3731952D01*
X2497238Y-3741476D01*
X2478190Y-3741476D01*
X2459143Y-3731952D01*
X2449619Y-3722429D01*
X2440095Y-3703381D01*
X2430571Y-3665286D01*
X2430571Y-3617667D01*
X2440095Y-3579572D01*
X2449619Y-3560524D01*
X2459143Y-3551000D01*
X2478190Y-3541476D01*
X2640095Y-3741476D02*
X2678190Y-3741476D01*
X2697238Y-3731952D01*
X2706762Y-3722429D01*
X2725810Y-3693857D01*
X2735333Y-3655762D01*
X2735333Y-3579572D01*
X2725810Y-3560524D01*
X2716286Y-3551000D01*
X2697238Y-3541476D01*
X2659143Y-3541476D01*
X2640095Y-3551000D01*
X2630571Y-3560524D01*
X2621048Y-3579572D01*
X2621048Y-3627191D01*
X2630571Y-3646238D01*
X2640095Y-3655762D01*
X2659143Y-3665286D01*
X2697238Y-3665286D01*
X2716286Y-3655762D01*
X2725810Y-3646238D01*
X2735333Y-3627191D01*
X2849619Y-3627191D02*
X2830571Y-3617667D01*
X2821048Y-3608143D01*
X2811524Y-3589095D01*
X2811524Y-3579572D01*
X2821048Y-3560524D01*
X2830571Y-3551000D01*
X2849619Y-3541476D01*
X2887714Y-3541476D01*
X2906762Y-3551000D01*
X2916286Y-3560524D01*
X2925809Y-3579572D01*
X2925809Y-3589095D01*
X2916286Y-3608143D01*
X2906762Y-3617667D01*
X2887714Y-3627191D01*
X2849619Y-3627191D01*
X2830571Y-3636714D01*
X2821048Y-3646238D01*
X2811524Y-3665286D01*
X2811524Y-3703381D01*
X2821048Y-3722429D01*
X2830571Y-3731952D01*
X2849619Y-3741476D01*
X2887714Y-3741476D01*
X2906762Y-3731952D01*
X2916286Y-3722429D01*
X2925809Y-3703381D01*
X2925809Y-3665286D01*
X2916286Y-3646238D01*
X2906762Y-3636714D01*
X2887714Y-3627191D01*
X3097238Y-3608143D02*
X3097238Y-3741476D01*
X3049619Y-3531952D02*
X3002000Y-3674810D01*
X3125809Y-3674810D01*
X3192476Y-3541476D02*
X3192476Y-3579572D01*
X3268667Y-3541476D02*
X3268667Y-3579572D01*
X3563905Y-3817667D02*
X3554381Y-3808143D01*
X3535333Y-3779572D01*
X3525809Y-3760524D01*
X3516286Y-3731952D01*
X3506762Y-3684333D01*
X3506762Y-3646238D01*
X3516286Y-3598619D01*
X3525809Y-3570048D01*
X3535333Y-3551000D01*
X3554381Y-3522429D01*
X3563905Y-3512905D01*
X3725809Y-3541476D02*
X3687714Y-3541476D01*
X3668667Y-3551000D01*
X3659143Y-3560524D01*
X3640095Y-3589095D01*
X3630571Y-3627191D01*
X3630571Y-3703381D01*
X3640095Y-3722429D01*
X3649619Y-3731952D01*
X3668667Y-3741476D01*
X3706762Y-3741476D01*
X3725809Y-3731952D01*
X3735333Y-3722429D01*
X3744857Y-3703381D01*
X3744857Y-3655762D01*
X3735333Y-3636714D01*
X3725809Y-3627191D01*
X3706762Y-3617667D01*
X3668667Y-3617667D01*
X3649619Y-3627191D01*
X3640095Y-3636714D01*
X3630571Y-3655762D01*
X3982952Y-3741476D02*
X3982952Y-3541476D01*
X4068667Y-3741476D02*
X4068667Y-3636714D01*
X4059143Y-3617667D01*
X4040095Y-3608143D01*
X4011524Y-3608143D01*
X3992476Y-3617667D01*
X3982952Y-3627191D01*
X4192476Y-3741476D02*
X4173428Y-3731952D01*
X4163905Y-3722429D01*
X4154381Y-3703381D01*
X4154381Y-3646238D01*
X4163905Y-3627191D01*
X4173428Y-3617667D01*
X4192476Y-3608143D01*
X4221048Y-3608143D01*
X4240095Y-3617667D01*
X4249619Y-3627191D01*
X4259143Y-3646238D01*
X4259143Y-3703381D01*
X4249619Y-3722429D01*
X4240095Y-3731952D01*
X4221048Y-3741476D01*
X4192476Y-3741476D01*
X4373429Y-3741476D02*
X4354381Y-3731952D01*
X4344857Y-3712905D01*
X4344857Y-3541476D01*
X4525810Y-3731952D02*
X4506762Y-3741476D01*
X4468667Y-3741476D01*
X4449619Y-3731952D01*
X4440095Y-3712905D01*
X4440095Y-3636714D01*
X4449619Y-3617667D01*
X4468667Y-3608143D01*
X4506762Y-3608143D01*
X4525810Y-3617667D01*
X4535333Y-3636714D01*
X4535333Y-3655762D01*
X4440095Y-3674810D01*
X4611524Y-3731952D02*
X4630571Y-3741476D01*
X4668667Y-3741476D01*
X4687714Y-3731952D01*
X4697238Y-3712905D01*
X4697238Y-3703381D01*
X4687714Y-3684333D01*
X4668667Y-3674810D01*
X4640095Y-3674810D01*
X4621048Y-3665286D01*
X4611524Y-3646238D01*
X4611524Y-3636714D01*
X4621048Y-3617667D01*
X4640095Y-3608143D01*
X4668667Y-3608143D01*
X4687714Y-3617667D01*
X4763905Y-3817667D02*
X4773429Y-3808143D01*
X4792476Y-3779572D01*
X4802000Y-3760524D01*
X4811524Y-3731952D01*
X4821048Y-3684333D01*
X4821048Y-3646238D01*
X4811524Y-3598619D01*
X4802000Y-3570048D01*
X4792476Y-3551000D01*
X4773429Y-3522429D01*
X4763905Y-3512905D01*
M02*
