M48
; DRILL file {KiCad (6.0.1)} date Fri Feb  4 15:42:11 2022
; FORMAT={-:-/ absolute / inch / decimal}
; #@! TF.CreationDate,2022-02-04T15:42:11-06:00
; #@! TF.GenerationSoftware,Kicad,Pcbnew,(6.0.1)
; #@! TF.FileFunction,Plated,1,2,PTH
FMAT,2
INCH
; #@! TA.AperFunction,Plated,PTH,ViaDrill
T1C0.0118
; #@! TA.AperFunction,Plated,PTH,ViaDrill
T2C0.0157
; #@! TA.AperFunction,Plated,PTH,ViaDrill
T3C0.0197
; #@! TA.AperFunction,Plated,PTH,ComponentDrill
T4C0.0394
; #@! TA.AperFunction,Plated,PTH,ComponentDrill
T5C0.0402
; #@! TA.AperFunction,Plated,PTH,ComponentDrill
T6C0.0433
; #@! TA.AperFunction,Plated,PTH,ComponentDrill
T7C0.0520
; #@! TA.AperFunction,Plated,PTH,ComponentDrill
T8C0.0551
; #@! TA.AperFunction,Plated,PTH,ComponentDrill
T9C0.0591
; #@! TA.AperFunction,Plated,PTH,ComponentDrill
T10C0.0748
; #@! TA.AperFunction,Plated,PTH,ComponentDrill
T11C0.0787
; #@! TA.AperFunction,Plated,PTH,ComponentDrill
T12C0.0984
%
G90
G05
T1
X0.8569Y-3.3594
X0.9567Y-3.3594
X0.9853Y-4.3358
X0.9856Y-3.988
X0.9866Y-4.1043
X0.9867Y-3.7602
X0.9867Y-3.8748
X0.9867Y-4.2181
X1.0344Y-3.6831
X1.0768Y-3.6821
X1.0892Y-3.175
X1.1118Y-3.8488
X1.1134Y-4.1866
X1.1138Y-3.9018
X1.114Y-4.1309
X1.1144Y-4.2346
X1.1144Y-4.3941
X1.1148Y-3.963
X1.1148Y-4.0195
X1.115Y-4.0864
X1.1881Y-5.3313
X1.2165Y-4.7333
X1.2516Y-5.1051
X1.2599Y-5.3313
X1.2776Y-5.536
X1.315Y-5.6098
X1.3191Y-4.7315
X1.3203Y-4.6142
X1.3301Y-5.1051
X1.3319Y-4.0848
X1.3524Y-5.536
X1.3659Y-4.5453
X1.3917Y-5.3317
X1.3917Y-5.4297
X1.4075Y-4.0835
X1.4089Y-5.1051
X1.4665Y-5.3317
X1.4665Y-5.4297
X1.488Y-5.1049
X1.4909Y-4.4939
X1.4911Y-4.7313
X1.4913Y-4.6124
X1.5671Y-5.1051
X1.5917Y-4.6108
X1.5919Y-4.7305
X1.5935Y-4.0825
X1.6093Y-5.3386
X1.6098Y-5.4222
X1.6177Y-4.9309
X1.6463Y-5.1051
X1.6663Y-4.9321
X1.6667Y-4.7305
X1.6835Y-4.0833
X1.6974Y-5.338
X1.6974Y-5.4217
X1.9931Y-2.8069
X1.9939Y-4.7012
X2.068Y-4.7715
X2.0778Y-4.5055
X2.0785Y-4.4425
X2.0811Y-3.6264
X2.0811Y-3.8079
X2.0823Y-4.0128
X2.0844Y-3.9132
X2.1094Y-2.7431
X2.1684Y-5.5569
X2.2012Y-4.5071
X2.2018Y-4.4435
X2.2236Y-4.1537
X2.2258Y-4.0579
X2.2422Y-5.5569
X2.2831Y-4.5683
X2.2839Y-4.4012
X2.3494Y-4.401
X2.3506Y-4.5675
X2.4281Y-4.9469
X2.4281Y-5.0368
X2.4927Y-4.9484
X2.4939Y-5.037
X2.5026Y-4.4452
X2.5222Y-4.8939
X2.5687Y-4.5646
X2.5687Y-4.7693
X2.6435Y-4.6547
X2.7506Y-4.6719
X2.7882Y-5.0388
X3.0136Y-5.3514
X3.0372Y-5.0843
X3.114Y-5.1439
X3.839Y-5.6618
X3.8392Y-5.7953
X3.9142Y-4.6041
X4.0116Y-4.6044
X4.0116Y-4.8061
X4.0453Y-5.5362
X4.087Y-4.6938
X4.139Y-1.863
X4.1935Y-4.7127
X4.3988Y-5.0735
X4.5228Y-1.6278
X5.3488Y-5.6596
X5.3492Y-5.8031
T2
X1.1152Y-2.5467
X1.1152Y-2.6551
X2.0904Y-0.8254
X2.0904Y-0.9829
X2.0904Y-1.1404
X2.0904Y-1.2978
X2.0904Y-1.4553
X2.0904Y-1.6128
X2.0904Y-1.7703
X2.0904Y-1.9278
X2.0904Y-2.0852
X2.0904Y-2.2427
X2.0904Y-2.4002
X2.1154Y-3.2551
X2.2478Y-0.8254
X2.2478Y-0.9829
X2.2478Y-1.1404
X2.2478Y-1.2978
X2.2478Y-1.4553
X2.2478Y-1.6128
X2.2478Y-1.7703
X2.2478Y-1.9278
X2.2478Y-2.0852
X2.2478Y-2.2427
X2.2478Y-2.4002
X2.4053Y-0.8254
X2.4053Y-0.9829
X2.4053Y-1.1404
X2.4053Y-1.2978
X2.4539Y-2.1122
X2.5618Y-5.061
X2.5628Y-0.8254
X2.5628Y-0.9829
X2.5628Y-2.4002
X2.5663Y-5.5339
X2.5663Y-5.6913
X2.5663Y-5.8488
X2.5907Y-4.2724
X2.5917Y-4.3482
X2.6219Y-4.8445
X2.6226Y-4.9413
X2.6404Y-5.0602
X2.6587Y-6.3488
X2.6791Y-4.3463
X2.6809Y-6.0902
X2.7203Y-0.8254
X2.7203Y-0.9829
X2.7222Y-2.5404
X2.7222Y-2.6978
X2.7222Y-2.8553
X2.7222Y-3.0128
X2.7222Y-3.1703
X2.7222Y-3.3278
X2.7222Y-3.4852
X2.7222Y-3.6427
X2.7222Y-3.8002
X2.7222Y-3.9577
X2.7222Y-4.1152
X2.7222Y-4.2726
X2.7222Y-4.9026
X2.7222Y-5.06
X2.7222Y-5.69
X2.7222Y-5.8474
X2.7238Y-6.1571
X2.7685Y-4.3451
X2.7872Y-5.1362
X2.7904Y-5.2573
X2.798Y-2.113
X2.8161Y-6.3488
X2.8413Y-4.7264
X2.8417Y-4.6075
X2.8419Y-6.1571
X2.8433Y-4.4661
X2.8776Y-2.2447
X2.8778Y-0.8254
X2.8778Y-0.9829
X2.8778Y-1.1404
X2.8778Y-1.2978
X2.8791Y-2.4041
X2.8797Y-2.5404
X2.8797Y-2.6978
X2.8797Y-2.8553
X2.8797Y-3.0128
X2.8797Y-3.3278
X2.8797Y-3.4852
X2.8797Y-3.6427
X2.8797Y-3.8002
X2.8797Y-3.9577
X2.8797Y-4.1152
X2.8797Y-4.9026
X2.8797Y-5.06
X2.8996Y-4.5199
X2.9594Y-4.7264
X2.9598Y-4.6075
X2.96Y-6.1571
X2.9736Y-6.3488
X3.0281Y-4.522
X3.0352Y-0.8254
X3.0352Y-0.9829
X3.0352Y-1.1404
X3.0352Y-1.2978
X3.0352Y-1.4553
X3.0372Y-3.3278
X3.0372Y-3.4852
X3.0372Y-3.6427
X3.0372Y-3.8002
X3.0372Y-3.9577
X3.0372Y-4.1152
X3.0372Y-4.9026
X3.0728Y-5.2758
X3.0776Y-4.7264
X3.078Y-4.6075
X3.0781Y-6.1571
X3.1039Y-5.3537
X3.1311Y-6.3488
X3.1927Y-0.8254
X3.1927Y-0.9829
X3.1927Y-1.1404
X3.1927Y-1.2978
X3.1927Y-1.4553
X3.1947Y-4.9026
X3.1947Y-5.06
X3.1957Y-4.7264
X3.1961Y-4.6075
X3.1963Y-6.1571
X3.2886Y-6.3488
X3.3138Y-4.7264
X3.3148Y-6.1571
X3.3502Y-0.8254
X3.3502Y-0.9829
X3.3502Y-1.1404
X3.3502Y-1.2978
X3.3502Y-1.4553
X3.3502Y-1.6128
X3.3522Y-4.9026
X3.3522Y-5.06
X3.4329Y-6.1571
X3.4339Y-4.9868
X3.4461Y-6.3488
X3.5077Y-0.8254
X3.5077Y-0.9829
X3.5077Y-1.1404
X3.5077Y-1.2978
X3.5077Y-1.4553
X3.5096Y-3.4852
X3.5096Y-3.6427
X3.5096Y-3.8002
X3.5096Y-3.9577
X3.5096Y-4.1152
X3.5096Y-4.2726
X3.5096Y-4.4301
X3.5096Y-5.375
X3.5096Y-5.5325
X3.5096Y-5.8474
X3.551Y-6.1571
X3.6035Y-6.3488
X3.6415Y-6.1043
X3.6652Y-0.8254
X3.6652Y-0.9829
X3.6652Y-1.4553
X3.6671Y-3.4852
X3.6671Y-3.6427
X3.6671Y-3.8002
X3.6671Y-3.9577
X3.6671Y-4.1152
X3.6671Y-4.2726
X3.6671Y-4.4301
X3.6671Y-4.5876
X3.6671Y-5.5325
X3.6671Y-5.8474
X3.7268Y-6.0232
X3.7297Y-6.2864
X3.7496Y-4.9888
X3.7795Y-5.0583
X3.7795Y-5.1764
X3.7795Y-5.2945
X3.7795Y-5.4008
X3.7801Y-4.7041
X3.7801Y-4.8222
X3.7807Y-4.9197
X3.7982Y-6.2169
X3.8089Y-5.9348
X3.8226Y-0.8254
X3.8226Y-0.9829
X3.8226Y-1.4553
X3.8246Y-3.0128
X3.8246Y-3.3278
X3.8246Y-3.4852
X3.8246Y-3.6427
X3.8246Y-3.8002
X3.8246Y-3.9577
X3.8246Y-4.1152
X3.8246Y-4.2726
X3.8246Y-4.4301
X3.8246Y-4.5876
X3.8551Y-5.5094
X3.8583Y-4.9398
X3.8583Y-5.8644
X3.8612Y-5.0606
X3.874Y-6.1392
X3.9205Y-5.3947
X3.9222Y-4.7041
X3.9222Y-4.8222
X3.9232Y-4.9211
X3.9413Y-6.0717
X3.972Y-5.5094
X3.9801Y-0.8254
X3.9801Y-0.9829
X3.9801Y-1.1404
X3.9801Y-1.2978
X3.9801Y-1.4553
X3.9821Y-3.0128
X3.9821Y-3.3278
X3.9821Y-3.4852
X3.9821Y-3.6427
X3.9821Y-3.8002
X3.9821Y-3.9577
X3.9821Y-4.1152
X3.9821Y-4.2726
X3.9821Y-5.06
X3.9821Y-6.1624
X4.0065Y-6.0041
X4.0226Y-5.6451
X4.0226Y-5.7632
X4.0226Y-5.8813
X4.0606Y-5.0598
X4.0823Y-5.5813
X4.1376Y-0.8254
X4.1376Y-0.9829
X4.1376Y-1.1404
X4.1376Y-1.2978
X4.1376Y-1.4553
X4.1396Y-3.0128
X4.1396Y-3.1703
X4.1396Y-3.3278
X4.1396Y-3.4852
X4.1396Y-3.6427
X4.1396Y-3.8002
X4.1396Y-3.9577
X4.1396Y-4.1152
X4.1396Y-4.2726
X4.1396Y-4.9026
X4.1396Y-5.06
X4.1396Y-5.69
X4.1396Y-5.8474
X4.1396Y-6.1624
X4.1413Y-5.2104
X4.1419Y-5.136
X4.2106Y-5.0606
X4.212Y-4.9364
X4.2951Y-0.8254
X4.2951Y-0.9829
X4.2951Y-1.1404
X4.2951Y-1.2978
X4.2951Y-1.4553
X4.297Y-3.0128
X4.297Y-3.1703
X4.297Y-3.3278
X4.297Y-3.4852
X4.297Y-3.6427
X4.297Y-3.8002
X4.297Y-3.9577
X4.297Y-4.1152
X4.297Y-4.2726
X4.297Y-4.4301
X4.297Y-4.5876
X4.297Y-4.9026
X4.297Y-6.0049
X4.297Y-6.1624
X4.2972Y-4.6579
X4.2974Y-4.7632
X4.3728Y-4.938
X4.4154Y-4.6579
X4.4156Y-4.7632
X4.4423Y-4.9996
X4.4526Y-0.8254
X4.4526Y-0.9829
X4.4526Y-1.1404
X4.4526Y-1.2978
X4.4526Y-1.4553
X4.4526Y-1.7703
X4.4526Y-1.9278
X4.4526Y-2.0852
X4.4526Y-2.2427
X4.4526Y-2.4002
X4.4545Y-2.5404
X4.4545Y-3.0128
X4.4545Y-3.1703
X4.4545Y-3.3278
X4.4545Y-3.4852
X4.4545Y-3.6427
X4.4545Y-3.8002
X4.4545Y-3.9577
X4.4545Y-4.1152
X4.4545Y-4.5876
X4.4545Y-4.9026
X4.4545Y-5.375
X4.4545Y-6.0049
X4.4545Y-6.1624
X4.485Y-5.0677
X4.5335Y-4.6579
X4.5337Y-4.7632
X4.61Y-0.8254
X4.61Y-0.9829
X4.61Y-1.1404
X4.61Y-1.2978
X4.61Y-1.4553
X4.61Y-1.7703
X4.61Y-1.9278
X4.61Y-2.0852
X4.61Y-2.2427
X4.61Y-2.4002
X4.612Y-2.5404
X4.612Y-2.6978
X4.612Y-2.8553
X4.612Y-3.0128
X4.612Y-3.1703
X4.612Y-3.3278
X4.612Y-3.4852
X4.612Y-3.6427
X4.612Y-3.8002
X4.612Y-3.9577
X4.612Y-4.1152
X4.612Y-4.5876
X4.612Y-4.9026
X4.612Y-5.06
X4.612Y-6.0049
X4.612Y-6.1624
X4.6516Y-4.6579
X4.6518Y-4.7632
X4.7675Y-0.8254
X4.7675Y-0.9829
X4.7675Y-1.1404
X4.7675Y-1.2978
X4.7675Y-1.4553
X4.7675Y-1.7703
X4.7675Y-1.9278
X4.7675Y-2.0852
X4.7675Y-2.2427
X4.7675Y-2.4002
X4.7695Y-2.5404
X4.7695Y-2.6978
X4.7695Y-2.8553
X4.7695Y-4.4301
X4.7695Y-4.5876
X4.7695Y-4.9026
X4.7695Y-5.06
X4.7695Y-5.2175
X4.7695Y-6.0049
X4.7695Y-6.1624
X4.7697Y-4.6579
X4.7699Y-4.7632
X4.8002Y-1.6297
X4.925Y-0.8254
X4.925Y-0.9829
X4.925Y-1.1404
X4.925Y-1.2978
X4.925Y-1.4553
X4.925Y-1.7703
X4.925Y-1.9278
X4.925Y-2.0852
X4.925Y-2.2427
X4.925Y-2.4002
X4.927Y-2.5404
X4.927Y-2.6978
X4.927Y-5.375
X4.927Y-5.5325
X4.927Y-5.8474
X4.927Y-6.0049
X4.927Y-6.1624
X5.0825Y-0.8254
X5.0825Y-0.9829
X5.0825Y-1.1404
X5.0825Y-1.2978
X5.0825Y-1.4553
X5.0825Y-1.6128
X5.0825Y-1.7703
X5.0825Y-1.9278
X5.0825Y-2.0852
X5.0825Y-2.2427
X5.0825Y-2.4002
X5.0844Y-2.5404
X5.0844Y-5.5325
X5.0844Y-5.8474
X5.0844Y-6.1624
X5.24Y-0.8254
X5.24Y-0.9829
X5.24Y-1.1404
X5.24Y-1.2978
X5.24Y-1.4553
X5.24Y-1.6128
X5.24Y-1.7703
X5.24Y-1.9278
X5.24Y-2.0852
X5.24Y-2.2427
X5.24Y-2.4002
X5.2419Y-2.5404
X5.2419Y-3.1703
X5.2419Y-3.3278
X5.2419Y-3.4852
X5.2419Y-3.6427
X5.2419Y-3.8002
X5.2419Y-3.9577
X5.2419Y-4.1152
X5.2419Y-4.2726
X5.2419Y-4.4301
X5.2419Y-4.5876
X5.2419Y-4.7451
X5.2419Y-4.9026
X5.2419Y-5.06
X5.2419Y-5.2175
X5.2419Y-5.375
X5.2419Y-5.8474
X5.2419Y-6.0049
X5.2419Y-6.1624
X5.3974Y-1.1404
X5.3974Y-1.2978
X5.3974Y-1.4553
X5.3974Y-1.6128
X5.3974Y-1.7703
X5.3974Y-1.9278
X5.3974Y-2.0852
X5.3974Y-2.2427
X5.3974Y-2.4002
X5.3994Y-2.5404
X5.3994Y-3.0128
X5.3994Y-3.1703
X5.3994Y-3.3278
X5.3994Y-3.4852
X5.3994Y-3.6427
X5.3994Y-3.8002
X5.3994Y-3.9577
X5.3994Y-4.1152
X5.3994Y-4.2726
X5.3994Y-4.4301
X5.3994Y-4.5876
X5.3994Y-4.7451
X5.3994Y-4.9026
X5.3994Y-5.06
X5.3994Y-5.2175
X5.3994Y-5.375
X5.3994Y-5.5325
X5.3994Y-6.0049
T3
X1.6396Y-4.4963
X1.6398Y-4.3624
X1.9069Y-4.9872
X1.9925Y-2.912
X1.9933Y-3.1429
X2.0988Y-5.1344
X2.0988Y-5.2762
X2.1406Y-4.899
X2.2346Y-2.7033
X2.2531Y-3.2551
X2.2537Y-3.0244
X2.3069Y-5.2874
X2.3577Y-2.7421
T4
X1.5679Y-5.5756
X1.6679Y-5.5756
X1.9428Y-5.8935
X2.0428Y-5.8935
X2.1428Y-5.8935
X2.2428Y-5.8935
T5
X0.9152Y-2.4295
X0.9152Y-2.5476
X1.2033Y-3.136
X1.2033Y-3.236
X1.2033Y-3.336
X1.2033Y-3.436
X1.2033Y-3.536
X1.2033Y-3.636
X1.2033Y-3.736
X1.2033Y-3.836
X1.2033Y-3.936
X1.2033Y-4.036
X1.2033Y-4.136
X1.2033Y-4.236
X1.2033Y-4.336
X1.2033Y-4.436
X1.2033Y-4.536
X1.2516Y-6.1798
X1.2518Y-5.8334
X1.3697Y-6.1798
X1.3699Y-5.8334
X1.4878Y-6.1798
X1.488Y-5.8334
X1.6059Y-6.1798
X1.6061Y-5.8334
X1.8033Y-3.136
X1.8033Y-3.236
X1.8033Y-3.336
X1.8033Y-3.436
X1.8033Y-3.536
X1.8033Y-3.636
X1.8033Y-3.736
X1.8033Y-3.836
X1.8033Y-3.936
X1.8033Y-4.036
X1.8033Y-4.136
X1.8033Y-4.236
X1.8033Y-4.336
X1.8033Y-4.436
X1.8033Y-4.536
X2.0056Y-6.1766
X2.1237Y-6.1766
T6
X0.8272Y-2.8343
X0.8272Y-3.0902
X1.0043Y-2.8343
X1.0043Y-3.0902
X3.3051Y-2.9807
X3.3051Y-3.3565
X3.5051Y-2.9807
X3.5051Y-3.3565
X3.5539Y-1.6498
X3.5539Y-1.8498
X3.9291Y-1.6498
X3.9291Y-1.8498
X4.3691Y-1.627
X4.9596Y-1.627
T7
X2.9541Y-5.5549
X2.9541Y-5.7549
X2.9541Y-5.8549
X3.2541Y-5.5549
X3.2541Y-5.7549
X3.2541Y-5.8549
X4.4219Y-5.5575
X4.4219Y-5.7575
X4.4219Y-5.8575
X4.7219Y-5.5575
X4.7219Y-5.7575
X4.7219Y-5.8575
T8
X2.6396Y-5.1951
X3.5884Y-5.1951
X3.9988Y-5.1919
X4.9476Y-5.1919
T9
X2.501Y-1.5327
X2.501Y-1.7472
X2.501Y-1.9618
X2.8124Y-1.5315
X2.8124Y-1.7461
X2.8124Y-1.9606
T10
X4.4012Y-2.7478
X5.2594Y-2.7478
T11
X2.9222Y-4.3364
X3.3159Y-4.3364
X4.55Y-4.3478
X4.9437Y-4.3478
T12
X2.6587Y-1.2474
X2.6587Y-2.2474
X2.9049Y-3.1683
X3.7427Y-1.2476
X3.7427Y-2.2476
X3.9049Y-3.1683
T0
M30
