G04 #@! TF.GenerationSoftware,KiCad,Pcbnew,(6.0.1)*
G04 #@! TF.CreationDate,2022-03-10T17:03:53-06:00*
G04 #@! TF.ProjectId,MPPT,4d505054-2e6b-4696-9361-645f70636258,1.4.0*
G04 #@! TF.SameCoordinates,PX10b1ae8PY9b06478*
G04 #@! TF.FileFunction,Soldermask,Bot*
G04 #@! TF.FilePolarity,Negative*
%FSLAX46Y46*%
G04 Gerber Fmt 4.6, Leading zero omitted, Abs format (unit mm)*
G04 Created by KiCad (PCBNEW (6.0.1)) date 2022-03-10 17:03:53*
%MOMM*%
%LPD*%
G01*
G04 APERTURE LIST*
%ADD10C,1.270000*%
%ADD11O,2.020000X1.500000*%
%ADD12C,3.200000*%
%ADD13C,2.286000*%
%ADD14O,1.500000X2.020000*%
%ADD15C,2.000000*%
%ADD16C,4.000000*%
%ADD17R,2.000000X2.000000*%
%ADD18O,2.000000X2.000000*%
%ADD19C,2.500000*%
%ADD20R,1.530000X1.530000*%
%ADD21C,1.530000*%
%ADD22R,1.700000X1.700000*%
%ADD23O,1.700000X1.700000*%
%ADD24C,2.200000*%
%ADD25R,4.000000X4.000000*%
%ADD26R,1.508000X1.508000*%
%ADD27C,1.508000*%
%ADD28R,4.500000X2.500000*%
%ADD29O,4.500000X2.500000*%
%ADD30C,3.800000*%
%ADD31R,1.000000X1.000000*%
%ADD32R,1.500000X0.400000*%
%ADD33R,1.300000X1.700000*%
%ADD34R,1.100000X1.100000*%
%ADD35R,4.000000X1.500000*%
%ADD36R,0.500000X0.500000*%
G04 APERTURE END LIST*
D10*
X3990000Y111535000D03*
X3990000Y102535000D03*
G36*
G01*
X6709999Y104785000D02*
X5190001Y104785000D01*
G75*
G02*
X4940000Y105035001I0J250001D01*
G01*
X4940000Y106034999D01*
G75*
G02*
X5190001Y106285000I250001J0D01*
G01*
X6709999Y106285000D01*
G75*
G02*
X6960000Y106034999I0J-250001D01*
G01*
X6960000Y105035001D01*
G75*
G02*
X6709999Y104785000I-250001J0D01*
G01*
G37*
D11*
X5950000Y108535000D03*
D12*
X110490000Y10975000D03*
X86750000Y10975000D03*
D13*
X94810000Y13775000D03*
X94810000Y16315000D03*
X94810000Y21395000D03*
X102430000Y13775000D03*
X102430000Y21395000D03*
X102430000Y16315000D03*
D12*
X120015000Y4990000D03*
X4995000Y5085000D03*
X119995000Y140085000D03*
X4995000Y140085000D03*
D10*
X16730000Y18915000D03*
X1730000Y18915000D03*
G36*
G01*
X14480000Y21634999D02*
X14480000Y20115001D01*
G75*
G02*
X14229999Y19865000I-250001J0D01*
G01*
X13230001Y19865000D01*
G75*
G02*
X12980000Y20115001I0J250001D01*
G01*
X12980000Y21634999D01*
G75*
G02*
X13230001Y21885000I250001J0D01*
G01*
X14229999Y21885000D01*
G75*
G02*
X14480000Y21634999I0J-250001D01*
G01*
G37*
D14*
X10730000Y20875000D03*
X7730000Y20875000D03*
X4730000Y20875000D03*
D15*
X3715000Y98255000D03*
X3715000Y91755000D03*
X8215000Y91755000D03*
X8215000Y98255000D03*
D16*
X56280000Y82080000D03*
X81680000Y82080000D03*
D17*
X71525000Y86845000D03*
D18*
X66445000Y86845000D03*
D10*
X16725000Y10115000D03*
X1725000Y10115000D03*
G36*
G01*
X14475000Y12834999D02*
X14475000Y11315001D01*
G75*
G02*
X14224999Y11065000I-250001J0D01*
G01*
X13225001Y11065000D01*
G75*
G02*
X12975000Y11315001I0J250001D01*
G01*
X12975000Y12834999D01*
G75*
G02*
X13225001Y13085000I250001J0D01*
G01*
X14224999Y13085000D01*
G75*
G02*
X14475000Y12834999I0J-250001D01*
G01*
G37*
D14*
X10725000Y12075000D03*
X7725000Y12075000D03*
X4725000Y12075000D03*
D19*
X37487500Y34805000D03*
X37487500Y10705000D03*
D17*
X66445000Y77300000D03*
D18*
X71525000Y77300000D03*
D19*
X49540000Y30600000D03*
X73640000Y30600000D03*
D16*
X77560000Y130865000D03*
X77560000Y105465000D03*
D10*
X31450000Y3635000D03*
X40450000Y3635000D03*
G36*
G01*
X38200000Y6354999D02*
X38200000Y4835001D01*
G75*
G02*
X37949999Y4585000I-250001J0D01*
G01*
X36950001Y4585000D01*
G75*
G02*
X36700000Y4835001I0J250001D01*
G01*
X36700000Y6354999D01*
G75*
G02*
X36950001Y6605000I250001J0D01*
G01*
X37949999Y6605000D01*
G75*
G02*
X38200000Y6354999I0J-250001D01*
G01*
G37*
D14*
X34450000Y5595000D03*
D20*
X13270000Y90590000D03*
D21*
X13270000Y88050000D03*
X13270000Y85510000D03*
X13270000Y82970000D03*
X13270000Y80430000D03*
X13270000Y77890000D03*
X13270000Y75350000D03*
X13270000Y72810000D03*
X13270000Y70270000D03*
X13270000Y67730000D03*
X13270000Y65190000D03*
X13270000Y62650000D03*
X13270000Y60110000D03*
X13270000Y57570000D03*
X13270000Y55030000D03*
X28510000Y55030000D03*
X28510000Y57570000D03*
X28510000Y60110000D03*
X28510000Y62650000D03*
X28510000Y65190000D03*
X28510000Y67730000D03*
X28510000Y70270000D03*
X28510000Y72810000D03*
X28510000Y75350000D03*
X28510000Y77890000D03*
X28510000Y80430000D03*
X28510000Y82970000D03*
X28510000Y85510000D03*
X28510000Y88050000D03*
D20*
X28510000Y90590000D03*
D17*
X82295000Y115570000D03*
D18*
X82295000Y120650000D03*
D16*
X50025000Y105470000D03*
X50025000Y130870000D03*
D22*
X12760000Y27422500D03*
D23*
X15300000Y27422500D03*
D24*
X93470000Y121230000D03*
X108470000Y121230000D03*
D25*
X108065000Y52120000D03*
D16*
X98065000Y52120000D03*
D26*
X20457500Y10820000D03*
D27*
X22997500Y10820000D03*
X25537500Y10820000D03*
X28077500Y10820000D03*
D28*
X46020000Y123625000D03*
D29*
X46020000Y118175000D03*
X46020000Y112725000D03*
D12*
X73210000Y11040000D03*
X49470000Y11040000D03*
D13*
X57530000Y16380000D03*
X57530000Y13840000D03*
X57530000Y21460000D03*
X65150000Y21460000D03*
X65150000Y13840000D03*
X65150000Y16380000D03*
D17*
X72765000Y120650000D03*
D18*
X72765000Y115570000D03*
D28*
X53930000Y112755000D03*
D29*
X53930000Y118205000D03*
X53930000Y123655000D03*
D30*
X116085000Y92760000D03*
X94285000Y92760000D03*
D19*
X108165000Y30681000D03*
X84065000Y30681000D03*
D25*
X66720000Y52410000D03*
D16*
X56720000Y52410000D03*
D31*
X94550000Y26857500D03*
D32*
X57295000Y29621000D03*
X57295000Y30271000D03*
X57295000Y30921000D03*
X59955000Y30921000D03*
X59955000Y30271000D03*
X59955000Y29621000D03*
D33*
X37665000Y79930000D03*
X41165000Y79930000D03*
G36*
G01*
X51910000Y46225000D02*
X52810000Y46225000D01*
G75*
G02*
X53060000Y45975000I0J-250000D01*
G01*
X53060000Y45450000D01*
G75*
G02*
X52810000Y45200000I-250000J0D01*
G01*
X51910000Y45200000D01*
G75*
G02*
X51660000Y45450000I0J250000D01*
G01*
X51660000Y45975000D01*
G75*
G02*
X51910000Y46225000I250000J0D01*
G01*
G37*
G36*
G01*
X51910000Y44400000D02*
X52810000Y44400000D01*
G75*
G02*
X53060000Y44150000I0J-250000D01*
G01*
X53060000Y43625000D01*
G75*
G02*
X52810000Y43375000I-250000J0D01*
G01*
X51910000Y43375000D01*
G75*
G02*
X51660000Y43625000I0J250000D01*
G01*
X51660000Y44150000D01*
G75*
G02*
X51910000Y44400000I250000J0D01*
G01*
G37*
G36*
G01*
X13475000Y30662500D02*
X13475000Y31612500D01*
G75*
G02*
X13725000Y31862500I250000J0D01*
G01*
X14225000Y31862500D01*
G75*
G02*
X14475000Y31612500I0J-250000D01*
G01*
X14475000Y30662500D01*
G75*
G02*
X14225000Y30412500I-250000J0D01*
G01*
X13725000Y30412500D01*
G75*
G02*
X13475000Y30662500I0J250000D01*
G01*
G37*
G36*
G01*
X15375000Y30662500D02*
X15375000Y31612500D01*
G75*
G02*
X15625000Y31862500I250000J0D01*
G01*
X16125000Y31862500D01*
G75*
G02*
X16375000Y31612500I0J-250000D01*
G01*
X16375000Y30662500D01*
G75*
G02*
X16125000Y30412500I-250000J0D01*
G01*
X15625000Y30412500D01*
G75*
G02*
X15375000Y30662500I0J250000D01*
G01*
G37*
D31*
X66820000Y28979000D03*
G36*
G01*
X99785000Y28505000D02*
X98535000Y28505000D01*
G75*
G02*
X98285000Y28755000I0J250000D01*
G01*
X98285000Y29380000D01*
G75*
G02*
X98535000Y29630000I250000J0D01*
G01*
X99785000Y29630000D01*
G75*
G02*
X100035000Y29380000I0J-250000D01*
G01*
X100035000Y28755000D01*
G75*
G02*
X99785000Y28505000I-250000J0D01*
G01*
G37*
G36*
G01*
X99785000Y31430000D02*
X98535000Y31430000D01*
G75*
G02*
X98285000Y31680000I0J250000D01*
G01*
X98285000Y32305000D01*
G75*
G02*
X98535000Y32555000I250000J0D01*
G01*
X99785000Y32555000D01*
G75*
G02*
X100035000Y32305000I0J-250000D01*
G01*
X100035000Y31680000D01*
G75*
G02*
X99785000Y31430000I-250000J0D01*
G01*
G37*
X14750000Y39372500D03*
G36*
G01*
X22635000Y52655000D02*
X22635000Y53605000D01*
G75*
G02*
X22885000Y53855000I250000J0D01*
G01*
X23385000Y53855000D01*
G75*
G02*
X23635000Y53605000I0J-250000D01*
G01*
X23635000Y52655000D01*
G75*
G02*
X23385000Y52405000I-250000J0D01*
G01*
X22885000Y52405000D01*
G75*
G02*
X22635000Y52655000I0J250000D01*
G01*
G37*
G36*
G01*
X24535000Y52655000D02*
X24535000Y53605000D01*
G75*
G02*
X24785000Y53855000I250000J0D01*
G01*
X25285000Y53855000D01*
G75*
G02*
X25535000Y53605000I0J-250000D01*
G01*
X25535000Y52655000D01*
G75*
G02*
X25285000Y52405000I-250000J0D01*
G01*
X24785000Y52405000D01*
G75*
G02*
X24535000Y52655000I0J250000D01*
G01*
G37*
G36*
G01*
X25540000Y50565000D02*
X25540000Y49615000D01*
G75*
G02*
X25290000Y49365000I-250000J0D01*
G01*
X24790000Y49365000D01*
G75*
G02*
X24540000Y49615000I0J250000D01*
G01*
X24540000Y50565000D01*
G75*
G02*
X24790000Y50815000I250000J0D01*
G01*
X25290000Y50815000D01*
G75*
G02*
X25540000Y50565000I0J-250000D01*
G01*
G37*
G36*
G01*
X23640000Y50565000D02*
X23640000Y49615000D01*
G75*
G02*
X23390000Y49365000I-250000J0D01*
G01*
X22890000Y49365000D01*
G75*
G02*
X22640000Y49615000I0J250000D01*
G01*
X22640000Y50565000D01*
G75*
G02*
X22890000Y50815000I250000J0D01*
G01*
X23390000Y50815000D01*
G75*
G02*
X23640000Y50565000I0J-250000D01*
G01*
G37*
G36*
G01*
X112340000Y37677500D02*
X113240000Y37677500D01*
G75*
G02*
X113490000Y37427500I0J-250000D01*
G01*
X113490000Y36902500D01*
G75*
G02*
X113240000Y36652500I-250000J0D01*
G01*
X112340000Y36652500D01*
G75*
G02*
X112090000Y36902500I0J250000D01*
G01*
X112090000Y37427500D01*
G75*
G02*
X112340000Y37677500I250000J0D01*
G01*
G37*
G36*
G01*
X112340000Y35852500D02*
X113240000Y35852500D01*
G75*
G02*
X113490000Y35602500I0J-250000D01*
G01*
X113490000Y35077500D01*
G75*
G02*
X113240000Y34827500I-250000J0D01*
G01*
X112340000Y34827500D01*
G75*
G02*
X112090000Y35077500I0J250000D01*
G01*
X112090000Y35602500D01*
G75*
G02*
X112340000Y35852500I250000J0D01*
G01*
G37*
X28095000Y19370000D03*
G36*
G01*
X25997500Y39770000D02*
X25997500Y38870000D01*
G75*
G02*
X25747500Y38620000I-250000J0D01*
G01*
X25222500Y38620000D01*
G75*
G02*
X24972500Y38870000I0J250000D01*
G01*
X24972500Y39770000D01*
G75*
G02*
X25222500Y40020000I250000J0D01*
G01*
X25747500Y40020000D01*
G75*
G02*
X25997500Y39770000I0J-250000D01*
G01*
G37*
G36*
G01*
X24172500Y39770000D02*
X24172500Y38870000D01*
G75*
G02*
X23922500Y38620000I-250000J0D01*
G01*
X23397500Y38620000D01*
G75*
G02*
X23147500Y38870000I0J250000D01*
G01*
X23147500Y39770000D01*
G75*
G02*
X23397500Y40020000I250000J0D01*
G01*
X23922500Y40020000D01*
G75*
G02*
X24172500Y39770000I0J-250000D01*
G01*
G37*
G36*
G01*
X54690000Y29096000D02*
X53740000Y29096000D01*
G75*
G02*
X53490000Y29346000I0J250000D01*
G01*
X53490000Y29846000D01*
G75*
G02*
X53740000Y30096000I250000J0D01*
G01*
X54690000Y30096000D01*
G75*
G02*
X54940000Y29846000I0J-250000D01*
G01*
X54940000Y29346000D01*
G75*
G02*
X54690000Y29096000I-250000J0D01*
G01*
G37*
G36*
G01*
X54690000Y30996000D02*
X53740000Y30996000D01*
G75*
G02*
X53490000Y31246000I0J250000D01*
G01*
X53490000Y31746000D01*
G75*
G02*
X53740000Y31996000I250000J0D01*
G01*
X54690000Y31996000D01*
G75*
G02*
X54940000Y31746000I0J-250000D01*
G01*
X54940000Y31246000D01*
G75*
G02*
X54690000Y30996000I-250000J0D01*
G01*
G37*
G36*
G01*
X23090000Y32650000D02*
X23090000Y33600000D01*
G75*
G02*
X23340000Y33850000I250000J0D01*
G01*
X23840000Y33850000D01*
G75*
G02*
X24090000Y33600000I0J-250000D01*
G01*
X24090000Y32650000D01*
G75*
G02*
X23840000Y32400000I-250000J0D01*
G01*
X23340000Y32400000D01*
G75*
G02*
X23090000Y32650000I0J250000D01*
G01*
G37*
G36*
G01*
X24990000Y32650000D02*
X24990000Y33600000D01*
G75*
G02*
X25240000Y33850000I250000J0D01*
G01*
X25740000Y33850000D01*
G75*
G02*
X25990000Y33600000I0J-250000D01*
G01*
X25990000Y32650000D01*
G75*
G02*
X25740000Y32400000I-250000J0D01*
G01*
X25240000Y32400000D01*
G75*
G02*
X24990000Y32650000I0J250000D01*
G01*
G37*
X66785000Y31919000D03*
X4725000Y39372500D03*
X43285000Y49750000D03*
D33*
X45990000Y49745000D03*
X49490000Y49745000D03*
D31*
X59980000Y26676000D03*
D33*
X57710000Y26696000D03*
X54210000Y26696000D03*
G36*
G01*
X5435000Y26105000D02*
X4535000Y26105000D01*
G75*
G02*
X4285000Y26355000I0J250000D01*
G01*
X4285000Y26880000D01*
G75*
G02*
X4535000Y27130000I250000J0D01*
G01*
X5435000Y27130000D01*
G75*
G02*
X5685000Y26880000I0J-250000D01*
G01*
X5685000Y26355000D01*
G75*
G02*
X5435000Y26105000I-250000J0D01*
G01*
G37*
G36*
G01*
X5435000Y27930000D02*
X4535000Y27930000D01*
G75*
G02*
X4285000Y28180000I0J250000D01*
G01*
X4285000Y28705000D01*
G75*
G02*
X4535000Y28955000I250000J0D01*
G01*
X5435000Y28955000D01*
G75*
G02*
X5685000Y28705000I0J-250000D01*
G01*
X5685000Y28180000D01*
G75*
G02*
X5435000Y27930000I-250000J0D01*
G01*
G37*
D31*
X22667500Y19370000D03*
G36*
G01*
X13490000Y33132500D02*
X13490000Y34082500D01*
G75*
G02*
X13740000Y34332500I250000J0D01*
G01*
X14240000Y34332500D01*
G75*
G02*
X14490000Y34082500I0J-250000D01*
G01*
X14490000Y33132500D01*
G75*
G02*
X14240000Y32882500I-250000J0D01*
G01*
X13740000Y32882500D01*
G75*
G02*
X13490000Y33132500I0J250000D01*
G01*
G37*
G36*
G01*
X15390000Y33132500D02*
X15390000Y34082500D01*
G75*
G02*
X15640000Y34332500I250000J0D01*
G01*
X16140000Y34332500D01*
G75*
G02*
X16390000Y34082500I0J-250000D01*
G01*
X16390000Y33132500D01*
G75*
G02*
X16140000Y32882500I-250000J0D01*
G01*
X15640000Y32882500D01*
G75*
G02*
X15390000Y33132500I0J250000D01*
G01*
G37*
G36*
G01*
X7785000Y30652500D02*
X7785000Y31602500D01*
G75*
G02*
X8035000Y31852500I250000J0D01*
G01*
X8535000Y31852500D01*
G75*
G02*
X8785000Y31602500I0J-250000D01*
G01*
X8785000Y30652500D01*
G75*
G02*
X8535000Y30402500I-250000J0D01*
G01*
X8035000Y30402500D01*
G75*
G02*
X7785000Y30652500I0J250000D01*
G01*
G37*
G36*
G01*
X9685000Y30652500D02*
X9685000Y31602500D01*
G75*
G02*
X9935000Y31852500I250000J0D01*
G01*
X10435000Y31852500D01*
G75*
G02*
X10685000Y31602500I0J-250000D01*
G01*
X10685000Y30652500D01*
G75*
G02*
X10435000Y30402500I-250000J0D01*
G01*
X9935000Y30402500D01*
G75*
G02*
X9685000Y30652500I0J250000D01*
G01*
G37*
G36*
G01*
X22965000Y23210000D02*
X22965000Y24160000D01*
G75*
G02*
X23215000Y24410000I250000J0D01*
G01*
X23715000Y24410000D01*
G75*
G02*
X23965000Y24160000I0J-250000D01*
G01*
X23965000Y23210000D01*
G75*
G02*
X23715000Y22960000I-250000J0D01*
G01*
X23215000Y22960000D01*
G75*
G02*
X22965000Y23210000I0J250000D01*
G01*
G37*
G36*
G01*
X24865000Y23210000D02*
X24865000Y24160000D01*
G75*
G02*
X25115000Y24410000I250000J0D01*
G01*
X25615000Y24410000D01*
G75*
G02*
X25865000Y24160000I0J-250000D01*
G01*
X25865000Y23210000D01*
G75*
G02*
X25615000Y22960000I-250000J0D01*
G01*
X25115000Y22960000D01*
G75*
G02*
X24865000Y23210000I0J250000D01*
G01*
G37*
X40560000Y76885000D03*
X16240000Y53045000D03*
G36*
G01*
X28587500Y14260000D02*
X28587500Y13310000D01*
G75*
G02*
X28337500Y13060000I-250000J0D01*
G01*
X27837500Y13060000D01*
G75*
G02*
X27587500Y13310000I0J250000D01*
G01*
X27587500Y14260000D01*
G75*
G02*
X27837500Y14510000I250000J0D01*
G01*
X28337500Y14510000D01*
G75*
G02*
X28587500Y14260000I0J-250000D01*
G01*
G37*
G36*
G01*
X26687500Y14260000D02*
X26687500Y13310000D01*
G75*
G02*
X26437500Y13060000I-250000J0D01*
G01*
X25937500Y13060000D01*
G75*
G02*
X25687500Y13310000I0J250000D01*
G01*
X25687500Y14260000D01*
G75*
G02*
X25937500Y14510000I250000J0D01*
G01*
X26437500Y14510000D01*
G75*
G02*
X26687500Y14260000I0J-250000D01*
G01*
G37*
G36*
G01*
X47590000Y47277618D02*
X47890000Y47277618D01*
G75*
G02*
X48040000Y47127618I0J-150000D01*
G01*
X48040000Y46102618D01*
G75*
G02*
X47890000Y45952618I-150000J0D01*
G01*
X47590000Y45952618D01*
G75*
G02*
X47440000Y46102618I0J150000D01*
G01*
X47440000Y47127618D01*
G75*
G02*
X47590000Y47277618I150000J0D01*
G01*
G37*
G36*
G01*
X48540000Y47277618D02*
X48840000Y47277618D01*
G75*
G02*
X48990000Y47127618I0J-150000D01*
G01*
X48990000Y46102618D01*
G75*
G02*
X48840000Y45952618I-150000J0D01*
G01*
X48540000Y45952618D01*
G75*
G02*
X48390000Y46102618I0J150000D01*
G01*
X48390000Y47127618D01*
G75*
G02*
X48540000Y47277618I150000J0D01*
G01*
G37*
G36*
G01*
X49490000Y47277618D02*
X49790000Y47277618D01*
G75*
G02*
X49940000Y47127618I0J-150000D01*
G01*
X49940000Y46102618D01*
G75*
G02*
X49790000Y45952618I-150000J0D01*
G01*
X49490000Y45952618D01*
G75*
G02*
X49340000Y46102618I0J150000D01*
G01*
X49340000Y47127618D01*
G75*
G02*
X49490000Y47277618I150000J0D01*
G01*
G37*
G36*
G01*
X49490000Y45002618D02*
X49790000Y45002618D01*
G75*
G02*
X49940000Y44852618I0J-150000D01*
G01*
X49940000Y43827618D01*
G75*
G02*
X49790000Y43677618I-150000J0D01*
G01*
X49490000Y43677618D01*
G75*
G02*
X49340000Y43827618I0J150000D01*
G01*
X49340000Y44852618D01*
G75*
G02*
X49490000Y45002618I150000J0D01*
G01*
G37*
G36*
G01*
X48540000Y45002618D02*
X48840000Y45002618D01*
G75*
G02*
X48990000Y44852618I0J-150000D01*
G01*
X48990000Y43827618D01*
G75*
G02*
X48840000Y43677618I-150000J0D01*
G01*
X48540000Y43677618D01*
G75*
G02*
X48390000Y43827618I0J150000D01*
G01*
X48390000Y44852618D01*
G75*
G02*
X48540000Y45002618I150000J0D01*
G01*
G37*
G36*
G01*
X47590000Y45002618D02*
X47890000Y45002618D01*
G75*
G02*
X48040000Y44852618I0J-150000D01*
G01*
X48040000Y43827618D01*
G75*
G02*
X47890000Y43677618I-150000J0D01*
G01*
X47590000Y43677618D01*
G75*
G02*
X47440000Y43827618I0J150000D01*
G01*
X47440000Y44852618D01*
G75*
G02*
X47590000Y45002618I150000J0D01*
G01*
G37*
X10730000Y39377500D03*
G36*
G01*
X5450000Y34077500D02*
X5450000Y33177500D01*
G75*
G02*
X5200000Y32927500I-250000J0D01*
G01*
X4675000Y32927500D01*
G75*
G02*
X4425000Y33177500I0J250000D01*
G01*
X4425000Y34077500D01*
G75*
G02*
X4675000Y34327500I250000J0D01*
G01*
X5200000Y34327500D01*
G75*
G02*
X5450000Y34077500I0J-250000D01*
G01*
G37*
G36*
G01*
X3625000Y34077500D02*
X3625000Y33177500D01*
G75*
G02*
X3375000Y32927500I-250000J0D01*
G01*
X2850000Y32927500D01*
G75*
G02*
X2600000Y33177500I0J250000D01*
G01*
X2600000Y34077500D01*
G75*
G02*
X2850000Y34327500I250000J0D01*
G01*
X3375000Y34327500D01*
G75*
G02*
X3625000Y34077500I0J-250000D01*
G01*
G37*
G36*
G01*
X52795000Y47730000D02*
X51895000Y47730000D01*
G75*
G02*
X51645000Y47980000I0J250000D01*
G01*
X51645000Y48505000D01*
G75*
G02*
X51895000Y48755000I250000J0D01*
G01*
X52795000Y48755000D01*
G75*
G02*
X53045000Y48505000I0J-250000D01*
G01*
X53045000Y47980000D01*
G75*
G02*
X52795000Y47730000I-250000J0D01*
G01*
G37*
G36*
G01*
X52795000Y49555000D02*
X51895000Y49555000D01*
G75*
G02*
X51645000Y49805000I0J250000D01*
G01*
X51645000Y50330000D01*
G75*
G02*
X51895000Y50580000I250000J0D01*
G01*
X52795000Y50580000D01*
G75*
G02*
X53045000Y50330000I0J-250000D01*
G01*
X53045000Y49805000D01*
G75*
G02*
X52795000Y49555000I-250000J0D01*
G01*
G37*
X16210000Y50065000D03*
D33*
X92310000Y26872500D03*
X88810000Y26872500D03*
D34*
X39255000Y93890000D03*
X39255000Y91090000D03*
D35*
X24420000Y26500000D03*
X24420000Y30100000D03*
D31*
X52450000Y41362500D03*
G36*
G01*
X78410000Y28255000D02*
X77510000Y28255000D01*
G75*
G02*
X77260000Y28505000I0J250000D01*
G01*
X77260000Y29030000D01*
G75*
G02*
X77510000Y29280000I250000J0D01*
G01*
X78410000Y29280000D01*
G75*
G02*
X78660000Y29030000I0J-250000D01*
G01*
X78660000Y28505000D01*
G75*
G02*
X78410000Y28255000I-250000J0D01*
G01*
G37*
G36*
G01*
X78410000Y30080000D02*
X77510000Y30080000D01*
G75*
G02*
X77260000Y30330000I0J250000D01*
G01*
X77260000Y30855000D01*
G75*
G02*
X77510000Y31105000I250000J0D01*
G01*
X78410000Y31105000D01*
G75*
G02*
X78660000Y30855000I0J-250000D01*
G01*
X78660000Y30330000D01*
G75*
G02*
X78410000Y30080000I-250000J0D01*
G01*
G37*
G36*
G01*
X113245000Y39162500D02*
X112345000Y39162500D01*
G75*
G02*
X112095000Y39412500I0J250000D01*
G01*
X112095000Y39937500D01*
G75*
G02*
X112345000Y40187500I250000J0D01*
G01*
X113245000Y40187500D01*
G75*
G02*
X113495000Y39937500I0J-250000D01*
G01*
X113495000Y39412500D01*
G75*
G02*
X113245000Y39162500I-250000J0D01*
G01*
G37*
G36*
G01*
X113245000Y40987500D02*
X112345000Y40987500D01*
G75*
G02*
X112095000Y41237500I0J250000D01*
G01*
X112095000Y41762500D01*
G75*
G02*
X112345000Y42012500I250000J0D01*
G01*
X113245000Y42012500D01*
G75*
G02*
X113495000Y41762500I0J-250000D01*
G01*
X113495000Y41237500D01*
G75*
G02*
X113245000Y40987500I-250000J0D01*
G01*
G37*
G36*
G01*
X32650000Y85125000D02*
X33600000Y85125000D01*
G75*
G02*
X33850000Y84875000I0J-250000D01*
G01*
X33850000Y84375000D01*
G75*
G02*
X33600000Y84125000I-250000J0D01*
G01*
X32650000Y84125000D01*
G75*
G02*
X32400000Y84375000I0J250000D01*
G01*
X32400000Y84875000D01*
G75*
G02*
X32650000Y85125000I250000J0D01*
G01*
G37*
G36*
G01*
X32650000Y83225000D02*
X33600000Y83225000D01*
G75*
G02*
X33850000Y82975000I0J-250000D01*
G01*
X33850000Y82475000D01*
G75*
G02*
X33600000Y82225000I-250000J0D01*
G01*
X32650000Y82225000D01*
G75*
G02*
X32400000Y82475000I0J250000D01*
G01*
X32400000Y82975000D01*
G75*
G02*
X32650000Y83225000I250000J0D01*
G01*
G37*
X6720000Y39372500D03*
X39740000Y85735000D03*
G36*
G01*
X115025000Y43405000D02*
X115025000Y44355000D01*
G75*
G02*
X115275000Y44605000I250000J0D01*
G01*
X115775000Y44605000D01*
G75*
G02*
X116025000Y44355000I0J-250000D01*
G01*
X116025000Y43405000D01*
G75*
G02*
X115775000Y43155000I-250000J0D01*
G01*
X115275000Y43155000D01*
G75*
G02*
X115025000Y43405000I0J250000D01*
G01*
G37*
G36*
G01*
X116925000Y43405000D02*
X116925000Y44355000D01*
G75*
G02*
X117175000Y44605000I250000J0D01*
G01*
X117675000Y44605000D01*
G75*
G02*
X117925000Y44355000I0J-250000D01*
G01*
X117925000Y43405000D01*
G75*
G02*
X117675000Y43155000I-250000J0D01*
G01*
X117175000Y43155000D01*
G75*
G02*
X116925000Y43405000I0J250000D01*
G01*
G37*
X12740000Y39372500D03*
G36*
G01*
X7225000Y28940000D02*
X8125000Y28940000D01*
G75*
G02*
X8375000Y28690000I0J-250000D01*
G01*
X8375000Y28165000D01*
G75*
G02*
X8125000Y27915000I-250000J0D01*
G01*
X7225000Y27915000D01*
G75*
G02*
X6975000Y28165000I0J250000D01*
G01*
X6975000Y28690000D01*
G75*
G02*
X7225000Y28940000I250000J0D01*
G01*
G37*
G36*
G01*
X7225000Y27115000D02*
X8125000Y27115000D01*
G75*
G02*
X8375000Y26865000I0J-250000D01*
G01*
X8375000Y26340000D01*
G75*
G02*
X8125000Y26090000I-250000J0D01*
G01*
X7225000Y26090000D01*
G75*
G02*
X6975000Y26340000I0J250000D01*
G01*
X6975000Y26865000D01*
G75*
G02*
X7225000Y27115000I250000J0D01*
G01*
G37*
G36*
G01*
X25980000Y36555000D02*
X25980000Y35605000D01*
G75*
G02*
X25730000Y35355000I-250000J0D01*
G01*
X25230000Y35355000D01*
G75*
G02*
X24980000Y35605000I0J250000D01*
G01*
X24980000Y36555000D01*
G75*
G02*
X25230000Y36805000I250000J0D01*
G01*
X25730000Y36805000D01*
G75*
G02*
X25980000Y36555000I0J-250000D01*
G01*
G37*
G36*
G01*
X24080000Y36555000D02*
X24080000Y35605000D01*
G75*
G02*
X23830000Y35355000I-250000J0D01*
G01*
X23330000Y35355000D01*
G75*
G02*
X23080000Y35605000I0J250000D01*
G01*
X23080000Y36555000D01*
G75*
G02*
X23330000Y36805000I250000J0D01*
G01*
X23830000Y36805000D01*
G75*
G02*
X24080000Y36555000I0J-250000D01*
G01*
G37*
G36*
G01*
X10105000Y75185000D02*
X10105000Y74285000D01*
G75*
G02*
X9855000Y74035000I-250000J0D01*
G01*
X9330000Y74035000D01*
G75*
G02*
X9080000Y74285000I0J250000D01*
G01*
X9080000Y75185000D01*
G75*
G02*
X9330000Y75435000I250000J0D01*
G01*
X9855000Y75435000D01*
G75*
G02*
X10105000Y75185000I0J-250000D01*
G01*
G37*
G36*
G01*
X8280000Y75185000D02*
X8280000Y74285000D01*
G75*
G02*
X8030000Y74035000I-250000J0D01*
G01*
X7505000Y74035000D01*
G75*
G02*
X7255000Y74285000I0J250000D01*
G01*
X7255000Y75185000D01*
G75*
G02*
X7505000Y75435000I250000J0D01*
G01*
X8030000Y75435000D01*
G75*
G02*
X8280000Y75185000I0J-250000D01*
G01*
G37*
X20575000Y56100000D03*
G36*
G01*
X113115000Y28340000D02*
X112215000Y28340000D01*
G75*
G02*
X111965000Y28590000I0J250000D01*
G01*
X111965000Y29115000D01*
G75*
G02*
X112215000Y29365000I250000J0D01*
G01*
X113115000Y29365000D01*
G75*
G02*
X113365000Y29115000I0J-250000D01*
G01*
X113365000Y28590000D01*
G75*
G02*
X113115000Y28340000I-250000J0D01*
G01*
G37*
G36*
G01*
X113115000Y30165000D02*
X112215000Y30165000D01*
G75*
G02*
X111965000Y30415000I0J250000D01*
G01*
X111965000Y30940000D01*
G75*
G02*
X112215000Y31190000I250000J0D01*
G01*
X113115000Y31190000D01*
G75*
G02*
X113365000Y30940000I0J-250000D01*
G01*
X113365000Y30415000D01*
G75*
G02*
X113115000Y30165000I-250000J0D01*
G01*
G37*
G36*
G01*
X28580000Y17195000D02*
X28580000Y16295000D01*
G75*
G02*
X28330000Y16045000I-250000J0D01*
G01*
X27805000Y16045000D01*
G75*
G02*
X27555000Y16295000I0J250000D01*
G01*
X27555000Y17195000D01*
G75*
G02*
X27805000Y17445000I250000J0D01*
G01*
X28330000Y17445000D01*
G75*
G02*
X28580000Y17195000I0J-250000D01*
G01*
G37*
G36*
G01*
X26755000Y17195000D02*
X26755000Y16295000D01*
G75*
G02*
X26505000Y16045000I-250000J0D01*
G01*
X25980000Y16045000D01*
G75*
G02*
X25730000Y16295000I0J250000D01*
G01*
X25730000Y17195000D01*
G75*
G02*
X25980000Y17445000I250000J0D01*
G01*
X26505000Y17445000D01*
G75*
G02*
X26755000Y17195000I0J-250000D01*
G01*
G37*
X119160000Y32810000D03*
X20460000Y19345000D03*
G36*
G01*
X50135000Y41885000D02*
X50135000Y40935000D01*
G75*
G02*
X49885000Y40685000I-250000J0D01*
G01*
X49385000Y40685000D01*
G75*
G02*
X49135000Y40935000I0J250000D01*
G01*
X49135000Y41885000D01*
G75*
G02*
X49385000Y42135000I250000J0D01*
G01*
X49885000Y42135000D01*
G75*
G02*
X50135000Y41885000I0J-250000D01*
G01*
G37*
G36*
G01*
X48235000Y41885000D02*
X48235000Y40935000D01*
G75*
G02*
X47985000Y40685000I-250000J0D01*
G01*
X47485000Y40685000D01*
G75*
G02*
X47235000Y40935000I0J250000D01*
G01*
X47235000Y41885000D01*
G75*
G02*
X47485000Y42135000I250000J0D01*
G01*
X47985000Y42135000D01*
G75*
G02*
X48235000Y41885000I0J-250000D01*
G01*
G37*
G36*
G01*
X117565000Y38085000D02*
X117265000Y38085000D01*
G75*
G02*
X117115000Y38235000I0J150000D01*
G01*
X117115000Y39260000D01*
G75*
G02*
X117265000Y39410000I150000J0D01*
G01*
X117565000Y39410000D01*
G75*
G02*
X117715000Y39260000I0J-150000D01*
G01*
X117715000Y38235000D01*
G75*
G02*
X117565000Y38085000I-150000J0D01*
G01*
G37*
G36*
G01*
X116615000Y38085000D02*
X116315000Y38085000D01*
G75*
G02*
X116165000Y38235000I0J150000D01*
G01*
X116165000Y39260000D01*
G75*
G02*
X116315000Y39410000I150000J0D01*
G01*
X116615000Y39410000D01*
G75*
G02*
X116765000Y39260000I0J-150000D01*
G01*
X116765000Y38235000D01*
G75*
G02*
X116615000Y38085000I-150000J0D01*
G01*
G37*
G36*
G01*
X115665000Y38085000D02*
X115365000Y38085000D01*
G75*
G02*
X115215000Y38235000I0J150000D01*
G01*
X115215000Y39260000D01*
G75*
G02*
X115365000Y39410000I150000J0D01*
G01*
X115665000Y39410000D01*
G75*
G02*
X115815000Y39260000I0J-150000D01*
G01*
X115815000Y38235000D01*
G75*
G02*
X115665000Y38085000I-150000J0D01*
G01*
G37*
G36*
G01*
X115665000Y40360000D02*
X115365000Y40360000D01*
G75*
G02*
X115215000Y40510000I0J150000D01*
G01*
X115215000Y41535000D01*
G75*
G02*
X115365000Y41685000I150000J0D01*
G01*
X115665000Y41685000D01*
G75*
G02*
X115815000Y41535000I0J-150000D01*
G01*
X115815000Y40510000D01*
G75*
G02*
X115665000Y40360000I-150000J0D01*
G01*
G37*
G36*
G01*
X116615000Y40360000D02*
X116315000Y40360000D01*
G75*
G02*
X116165000Y40510000I0J150000D01*
G01*
X116165000Y41535000D01*
G75*
G02*
X116315000Y41685000I150000J0D01*
G01*
X116615000Y41685000D01*
G75*
G02*
X116765000Y41535000I0J-150000D01*
G01*
X116765000Y40510000D01*
G75*
G02*
X116615000Y40360000I-150000J0D01*
G01*
G37*
G36*
G01*
X117565000Y40360000D02*
X117265000Y40360000D01*
G75*
G02*
X117115000Y40510000I0J150000D01*
G01*
X117115000Y41535000D01*
G75*
G02*
X117265000Y41685000I150000J0D01*
G01*
X117565000Y41685000D01*
G75*
G02*
X117715000Y41535000I0J-150000D01*
G01*
X117715000Y40510000D01*
G75*
G02*
X117565000Y40360000I-150000J0D01*
G01*
G37*
G36*
G01*
X18185000Y52615000D02*
X18185000Y53565000D01*
G75*
G02*
X18435000Y53815000I250000J0D01*
G01*
X18935000Y53815000D01*
G75*
G02*
X19185000Y53565000I0J-250000D01*
G01*
X19185000Y52615000D01*
G75*
G02*
X18935000Y52365000I-250000J0D01*
G01*
X18435000Y52365000D01*
G75*
G02*
X18185000Y52615000I0J250000D01*
G01*
G37*
G36*
G01*
X20085000Y52615000D02*
X20085000Y53565000D01*
G75*
G02*
X20335000Y53815000I250000J0D01*
G01*
X20835000Y53815000D01*
G75*
G02*
X21085000Y53565000I0J-250000D01*
G01*
X21085000Y52615000D01*
G75*
G02*
X20835000Y52365000I-250000J0D01*
G01*
X20335000Y52365000D01*
G75*
G02*
X20085000Y52615000I0J250000D01*
G01*
G37*
X97375000Y121210000D03*
X104395000Y121185000D03*
G36*
G01*
X22872500Y14225000D02*
X22872500Y13275000D01*
G75*
G02*
X22622500Y13025000I-250000J0D01*
G01*
X22122500Y13025000D01*
G75*
G02*
X21872500Y13275000I0J250000D01*
G01*
X21872500Y14225000D01*
G75*
G02*
X22122500Y14475000I250000J0D01*
G01*
X22622500Y14475000D01*
G75*
G02*
X22872500Y14225000I0J-250000D01*
G01*
G37*
G36*
G01*
X20972500Y14225000D02*
X20972500Y13275000D01*
G75*
G02*
X20722500Y13025000I-250000J0D01*
G01*
X20222500Y13025000D01*
G75*
G02*
X19972500Y13275000I0J250000D01*
G01*
X19972500Y14225000D01*
G75*
G02*
X20222500Y14475000I250000J0D01*
G01*
X20722500Y14475000D01*
G75*
G02*
X20972500Y14225000I0J-250000D01*
G01*
G37*
X33120000Y91260000D03*
X87625000Y115235000D03*
X24670000Y19390000D03*
G36*
G01*
X21080000Y50545000D02*
X21080000Y49595000D01*
G75*
G02*
X20830000Y49345000I-250000J0D01*
G01*
X20330000Y49345000D01*
G75*
G02*
X20080000Y49595000I0J250000D01*
G01*
X20080000Y50545000D01*
G75*
G02*
X20330000Y50795000I250000J0D01*
G01*
X20830000Y50795000D01*
G75*
G02*
X21080000Y50545000I0J-250000D01*
G01*
G37*
G36*
G01*
X19180000Y50545000D02*
X19180000Y49595000D01*
G75*
G02*
X18930000Y49345000I-250000J0D01*
G01*
X18430000Y49345000D01*
G75*
G02*
X18180000Y49595000I0J250000D01*
G01*
X18180000Y50545000D01*
G75*
G02*
X18430000Y50795000I250000J0D01*
G01*
X18930000Y50795000D01*
G75*
G02*
X19180000Y50545000I0J-250000D01*
G01*
G37*
G36*
G01*
X10105000Y63555000D02*
X10105000Y62655000D01*
G75*
G02*
X9855000Y62405000I-250000J0D01*
G01*
X9330000Y62405000D01*
G75*
G02*
X9080000Y62655000I0J250000D01*
G01*
X9080000Y63555000D01*
G75*
G02*
X9330000Y63805000I250000J0D01*
G01*
X9855000Y63805000D01*
G75*
G02*
X10105000Y63555000I0J-250000D01*
G01*
G37*
G36*
G01*
X8280000Y63555000D02*
X8280000Y62655000D01*
G75*
G02*
X8030000Y62405000I-250000J0D01*
G01*
X7505000Y62405000D01*
G75*
G02*
X7255000Y62655000I0J250000D01*
G01*
X7255000Y63555000D01*
G75*
G02*
X7505000Y63805000I250000J0D01*
G01*
X8030000Y63805000D01*
G75*
G02*
X8280000Y63555000I0J-250000D01*
G01*
G37*
X101270000Y29044000D03*
G36*
G01*
X10685000Y34092500D02*
X10685000Y33142500D01*
G75*
G02*
X10435000Y32892500I-250000J0D01*
G01*
X9935000Y32892500D01*
G75*
G02*
X9685000Y33142500I0J250000D01*
G01*
X9685000Y34092500D01*
G75*
G02*
X9935000Y34342500I250000J0D01*
G01*
X10435000Y34342500D01*
G75*
G02*
X10685000Y34092500I0J-250000D01*
G01*
G37*
G36*
G01*
X8785000Y34092500D02*
X8785000Y33142500D01*
G75*
G02*
X8535000Y32892500I-250000J0D01*
G01*
X8035000Y32892500D01*
G75*
G02*
X7785000Y33142500I0J250000D01*
G01*
X7785000Y34092500D01*
G75*
G02*
X8035000Y34342500I250000J0D01*
G01*
X8535000Y34342500D01*
G75*
G02*
X8785000Y34092500I0J-250000D01*
G01*
G37*
X109940000Y41495000D03*
D32*
X91885000Y29707500D03*
X91885000Y30357500D03*
X91885000Y31007500D03*
X94545000Y31007500D03*
X94545000Y30357500D03*
X94545000Y29707500D03*
D36*
X22657500Y16720000D03*
X20457500Y16720000D03*
G36*
G01*
X10077500Y69400000D02*
X10077500Y68500000D01*
G75*
G02*
X9827500Y68250000I-250000J0D01*
G01*
X9302500Y68250000D01*
G75*
G02*
X9052500Y68500000I0J250000D01*
G01*
X9052500Y69400000D01*
G75*
G02*
X9302500Y69650000I250000J0D01*
G01*
X9827500Y69650000D01*
G75*
G02*
X10077500Y69400000I0J-250000D01*
G01*
G37*
G36*
G01*
X8252500Y69400000D02*
X8252500Y68500000D01*
G75*
G02*
X8002500Y68250000I-250000J0D01*
G01*
X7477500Y68250000D01*
G75*
G02*
X7227500Y68500000I0J250000D01*
G01*
X7227500Y69400000D01*
G75*
G02*
X7477500Y69650000I250000J0D01*
G01*
X8002500Y69650000D01*
G75*
G02*
X8252500Y69400000I0J-250000D01*
G01*
G37*
D31*
X8720000Y39372500D03*
X101270000Y31984000D03*
G36*
G01*
X64060000Y32532500D02*
X65310000Y32532500D01*
G75*
G02*
X65560000Y32282500I0J-250000D01*
G01*
X65560000Y31657500D01*
G75*
G02*
X65310000Y31407500I-250000J0D01*
G01*
X64060000Y31407500D01*
G75*
G02*
X63810000Y31657500I0J250000D01*
G01*
X63810000Y32282500D01*
G75*
G02*
X64060000Y32532500I250000J0D01*
G01*
G37*
G36*
G01*
X64060000Y29607500D02*
X65310000Y29607500D01*
G75*
G02*
X65560000Y29357500I0J-250000D01*
G01*
X65560000Y28732500D01*
G75*
G02*
X65310000Y28482500I-250000J0D01*
G01*
X64060000Y28482500D01*
G75*
G02*
X63810000Y28732500I0J250000D01*
G01*
X63810000Y29357500D01*
G75*
G02*
X64060000Y29607500I250000J0D01*
G01*
G37*
D33*
X119160000Y35710000D03*
X115660000Y35710000D03*
D31*
X11030000Y102805000D03*
G36*
G01*
X10097500Y60565000D02*
X10097500Y59665000D01*
G75*
G02*
X9847500Y59415000I-250000J0D01*
G01*
X9322500Y59415000D01*
G75*
G02*
X9072500Y59665000I0J250000D01*
G01*
X9072500Y60565000D01*
G75*
G02*
X9322500Y60815000I250000J0D01*
G01*
X9847500Y60815000D01*
G75*
G02*
X10097500Y60565000I0J-250000D01*
G01*
G37*
G36*
G01*
X8272500Y60565000D02*
X8272500Y59665000D01*
G75*
G02*
X8022500Y59415000I-250000J0D01*
G01*
X7497500Y59415000D01*
G75*
G02*
X7247500Y59665000I0J250000D01*
G01*
X7247500Y60565000D01*
G75*
G02*
X7497500Y60815000I250000J0D01*
G01*
X8022500Y60815000D01*
G75*
G02*
X8272500Y60565000I0J-250000D01*
G01*
G37*
G36*
G01*
X89305000Y29162500D02*
X88355000Y29162500D01*
G75*
G02*
X88105000Y29412500I0J250000D01*
G01*
X88105000Y29912500D01*
G75*
G02*
X88355000Y30162500I250000J0D01*
G01*
X89305000Y30162500D01*
G75*
G02*
X89555000Y29912500I0J-250000D01*
G01*
X89555000Y29412500D01*
G75*
G02*
X89305000Y29162500I-250000J0D01*
G01*
G37*
G36*
G01*
X89305000Y31062500D02*
X88355000Y31062500D01*
G75*
G02*
X88105000Y31312500I0J250000D01*
G01*
X88105000Y31812500D01*
G75*
G02*
X88355000Y32062500I250000J0D01*
G01*
X89305000Y32062500D01*
G75*
G02*
X89555000Y31812500I0J-250000D01*
G01*
X89555000Y31312500D01*
G75*
G02*
X89305000Y31062500I-250000J0D01*
G01*
G37*
G36*
G01*
X32630000Y89090000D02*
X33580000Y89090000D01*
G75*
G02*
X33830000Y88840000I0J-250000D01*
G01*
X33830000Y88340000D01*
G75*
G02*
X33580000Y88090000I-250000J0D01*
G01*
X32630000Y88090000D01*
G75*
G02*
X32380000Y88340000I0J250000D01*
G01*
X32380000Y88840000D01*
G75*
G02*
X32630000Y89090000I250000J0D01*
G01*
G37*
G36*
G01*
X32630000Y87190000D02*
X33580000Y87190000D01*
G75*
G02*
X33830000Y86940000I0J-250000D01*
G01*
X33830000Y86440000D01*
G75*
G02*
X33580000Y86190000I-250000J0D01*
G01*
X32630000Y86190000D01*
G75*
G02*
X32380000Y86440000I0J250000D01*
G01*
X32380000Y86940000D01*
G75*
G02*
X32630000Y87190000I250000J0D01*
G01*
G37*
X36065000Y92885000D03*
G36*
G01*
X41930000Y93417500D02*
X42830000Y93417500D01*
G75*
G02*
X43080000Y93167500I0J-250000D01*
G01*
X43080000Y92642500D01*
G75*
G02*
X42830000Y92392500I-250000J0D01*
G01*
X41930000Y92392500D01*
G75*
G02*
X41680000Y92642500I0J250000D01*
G01*
X41680000Y93167500D01*
G75*
G02*
X41930000Y93417500I250000J0D01*
G01*
G37*
G36*
G01*
X41930000Y91592500D02*
X42830000Y91592500D01*
G75*
G02*
X43080000Y91342500I0J-250000D01*
G01*
X43080000Y90817500D01*
G75*
G02*
X42830000Y90567500I-250000J0D01*
G01*
X41930000Y90567500D01*
G75*
G02*
X41680000Y90817500I0J250000D01*
G01*
X41680000Y91342500D01*
G75*
G02*
X41930000Y91592500I250000J0D01*
G01*
G37*
G36*
G01*
X10102500Y66445000D02*
X10102500Y65545000D01*
G75*
G02*
X9852500Y65295000I-250000J0D01*
G01*
X9327500Y65295000D01*
G75*
G02*
X9077500Y65545000I0J250000D01*
G01*
X9077500Y66445000D01*
G75*
G02*
X9327500Y66695000I250000J0D01*
G01*
X9852500Y66695000D01*
G75*
G02*
X10102500Y66445000I0J-250000D01*
G01*
G37*
G36*
G01*
X8277500Y66445000D02*
X8277500Y65545000D01*
G75*
G02*
X8027500Y65295000I-250000J0D01*
G01*
X7502500Y65295000D01*
G75*
G02*
X7252500Y65545000I0J250000D01*
G01*
X7252500Y66445000D01*
G75*
G02*
X7502500Y66695000I250000J0D01*
G01*
X8027500Y66695000D01*
G75*
G02*
X8277500Y66445000I0J-250000D01*
G01*
G37*
G36*
G01*
X11505000Y105060000D02*
X10555000Y105060000D01*
G75*
G02*
X10305000Y105310000I0J250000D01*
G01*
X10305000Y105810000D01*
G75*
G02*
X10555000Y106060000I250000J0D01*
G01*
X11505000Y106060000D01*
G75*
G02*
X11755000Y105810000I0J-250000D01*
G01*
X11755000Y105310000D01*
G75*
G02*
X11505000Y105060000I-250000J0D01*
G01*
G37*
G36*
G01*
X11505000Y106960000D02*
X10555000Y106960000D01*
G75*
G02*
X10305000Y107210000I0J250000D01*
G01*
X10305000Y107710000D01*
G75*
G02*
X10555000Y107960000I250000J0D01*
G01*
X11505000Y107960000D01*
G75*
G02*
X11755000Y107710000I0J-250000D01*
G01*
X11755000Y107210000D01*
G75*
G02*
X11505000Y106960000I-250000J0D01*
G01*
G37*
G36*
G01*
X10105000Y72275000D02*
X10105000Y71375000D01*
G75*
G02*
X9855000Y71125000I-250000J0D01*
G01*
X9330000Y71125000D01*
G75*
G02*
X9080000Y71375000I0J250000D01*
G01*
X9080000Y72275000D01*
G75*
G02*
X9330000Y72525000I250000J0D01*
G01*
X9855000Y72525000D01*
G75*
G02*
X10105000Y72275000I0J-250000D01*
G01*
G37*
G36*
G01*
X8280000Y72275000D02*
X8280000Y71375000D01*
G75*
G02*
X8030000Y71125000I-250000J0D01*
G01*
X7505000Y71125000D01*
G75*
G02*
X7255000Y71375000I0J250000D01*
G01*
X7255000Y72275000D01*
G75*
G02*
X7505000Y72525000I250000J0D01*
G01*
X8030000Y72525000D01*
G75*
G02*
X8280000Y72275000I0J-250000D01*
G01*
G37*
M02*
