%TF.GenerationSoftware,KiCad,Pcbnew,(6.0.1)*%
%TF.CreationDate,2022-02-04T16:06:47-06:00*%
%TF.ProjectId,MPPT,4d505054-2e6b-4696-9361-645f70636258,1.3.0*%
%TF.SameCoordinates,Original*%
%TF.FileFunction,AssemblyDrawing,Top*%
%FSLAX46Y46*%
G04 Gerber Fmt 4.6, Leading zero omitted, Abs format (unit mm)*
G04 Created by KiCad (PCBNEW (6.0.1)) date 2022-02-04 16:06:47*
%MOMM*%
%LPD*%
G01*
G04 APERTURE LIST*
%ADD10C,0.150000*%
%ADD11C,0.100000*%
%ADD12C,0.127000*%
%ADD13C,0.200000*%
G04 APERTURE END LIST*
D10*
%TO.C,J2*%
X28106904Y-65990952D02*
X28106904Y-65838571D01*
X28068809Y-65762380D01*
X28030714Y-65724285D01*
X27916428Y-65648095D01*
X27764047Y-65610000D01*
X27459285Y-65610000D01*
X27383095Y-65648095D01*
X27345000Y-65686190D01*
X27306904Y-65762380D01*
X27306904Y-65914761D01*
X27345000Y-65990952D01*
X27383095Y-66029047D01*
X27459285Y-66067142D01*
X27649761Y-66067142D01*
X27725952Y-66029047D01*
X27764047Y-65990952D01*
X27802142Y-65914761D01*
X27802142Y-65762380D01*
X27764047Y-65686190D01*
X27725952Y-65648095D01*
X27649761Y-65610000D01*
X27306904Y-65381428D02*
X28106904Y-65114761D01*
X27306904Y-64848095D01*
X28068809Y-64010000D02*
X28106904Y-63895714D01*
X28106904Y-63705238D01*
X28068809Y-63629047D01*
X28030714Y-63590952D01*
X27954523Y-63552857D01*
X27878333Y-63552857D01*
X27802142Y-63590952D01*
X27764047Y-63629047D01*
X27725952Y-63705238D01*
X27687857Y-63857619D01*
X27649761Y-63933809D01*
X27611666Y-63971904D01*
X27535476Y-64010000D01*
X27459285Y-64010000D01*
X27383095Y-63971904D01*
X27345000Y-63933809D01*
X27306904Y-63857619D01*
X27306904Y-63667142D01*
X27345000Y-63552857D01*
X27573571Y-62867142D02*
X28106904Y-62867142D01*
X27573571Y-63210000D02*
X27992619Y-63210000D01*
X28068809Y-63171904D01*
X28106904Y-63095714D01*
X28106904Y-62981428D01*
X28068809Y-62905238D01*
X28030714Y-62867142D01*
X27573571Y-62486190D02*
X28373571Y-62486190D01*
X27611666Y-62486190D02*
X27573571Y-62410000D01*
X27573571Y-62257619D01*
X27611666Y-62181428D01*
X27649761Y-62143333D01*
X27725952Y-62105238D01*
X27954523Y-62105238D01*
X28030714Y-62143333D01*
X28068809Y-62181428D01*
X28106904Y-62257619D01*
X28106904Y-62410000D01*
X28068809Y-62486190D01*
X27573571Y-61762380D02*
X28373571Y-61762380D01*
X27611666Y-61762380D02*
X27573571Y-61686190D01*
X27573571Y-61533809D01*
X27611666Y-61457619D01*
X27649761Y-61419523D01*
X27725952Y-61381428D01*
X27954523Y-61381428D01*
X28030714Y-61419523D01*
X28068809Y-61457619D01*
X28106904Y-61533809D01*
X28106904Y-61686190D01*
X28068809Y-61762380D01*
X28106904Y-60924285D02*
X28068809Y-61000476D01*
X27992619Y-61038571D01*
X27306904Y-61038571D01*
X27573571Y-60695714D02*
X28106904Y-60505238D01*
X27573571Y-60314761D02*
X28106904Y-60505238D01*
X28297380Y-60581428D01*
X28335476Y-60619523D01*
X28373571Y-60695714D01*
X24006904Y-63476666D02*
X24578333Y-63476666D01*
X24692619Y-63514761D01*
X24768809Y-63590952D01*
X24806904Y-63705238D01*
X24806904Y-63781428D01*
X24083095Y-63133809D02*
X24045000Y-63095714D01*
X24006904Y-63019523D01*
X24006904Y-62829047D01*
X24045000Y-62752857D01*
X24083095Y-62714761D01*
X24159285Y-62676666D01*
X24235476Y-62676666D01*
X24349761Y-62714761D01*
X24806904Y-63171904D01*
X24806904Y-62676666D01*
%TO.C,H1*%
X130535476Y-150666904D02*
X130992619Y-150666904D01*
X130764047Y-151466904D02*
X130764047Y-150666904D01*
X131373571Y-151466904D02*
X131297380Y-151428809D01*
X131259285Y-151390714D01*
X131221190Y-151314523D01*
X131221190Y-151085952D01*
X131259285Y-151009761D01*
X131297380Y-150971666D01*
X131373571Y-150933571D01*
X131487857Y-150933571D01*
X131564047Y-150971666D01*
X131602142Y-151009761D01*
X131640238Y-151085952D01*
X131640238Y-151314523D01*
X131602142Y-151390714D01*
X131564047Y-151428809D01*
X131487857Y-151466904D01*
X131373571Y-151466904D01*
X131983095Y-150933571D02*
X131983095Y-151733571D01*
X131983095Y-150971666D02*
X132059285Y-150933571D01*
X132211666Y-150933571D01*
X132287857Y-150971666D01*
X132325952Y-151009761D01*
X132364047Y-151085952D01*
X132364047Y-151314523D01*
X132325952Y-151390714D01*
X132287857Y-151428809D01*
X132211666Y-151466904D01*
X132059285Y-151466904D01*
X131983095Y-151428809D01*
X133697380Y-151466904D02*
X133316428Y-151466904D01*
X133316428Y-150666904D01*
X134268809Y-151428809D02*
X134192619Y-151466904D01*
X134040238Y-151466904D01*
X133964047Y-151428809D01*
X133925952Y-151352619D01*
X133925952Y-151047857D01*
X133964047Y-150971666D01*
X134040238Y-150933571D01*
X134192619Y-150933571D01*
X134268809Y-150971666D01*
X134306904Y-151047857D01*
X134306904Y-151124047D01*
X133925952Y-151200238D01*
X134535476Y-150933571D02*
X134840238Y-150933571D01*
X134649761Y-151466904D02*
X134649761Y-150781190D01*
X134687857Y-150705000D01*
X134764047Y-150666904D01*
X134840238Y-150666904D01*
X134992619Y-150933571D02*
X135297380Y-150933571D01*
X135106904Y-150666904D02*
X135106904Y-151352619D01*
X135145000Y-151428809D01*
X135221190Y-151466904D01*
X135297380Y-151466904D01*
X136173571Y-151466904D02*
X136173571Y-150666904D01*
X136440238Y-151238333D01*
X136706904Y-150666904D01*
X136706904Y-151466904D01*
X137202142Y-151466904D02*
X137125952Y-151428809D01*
X137087857Y-151390714D01*
X137049761Y-151314523D01*
X137049761Y-151085952D01*
X137087857Y-151009761D01*
X137125952Y-150971666D01*
X137202142Y-150933571D01*
X137316428Y-150933571D01*
X137392619Y-150971666D01*
X137430714Y-151009761D01*
X137468809Y-151085952D01*
X137468809Y-151314523D01*
X137430714Y-151390714D01*
X137392619Y-151428809D01*
X137316428Y-151466904D01*
X137202142Y-151466904D01*
X138154523Y-150933571D02*
X138154523Y-151466904D01*
X137811666Y-150933571D02*
X137811666Y-151352619D01*
X137849761Y-151428809D01*
X137925952Y-151466904D01*
X138040238Y-151466904D01*
X138116428Y-151428809D01*
X138154523Y-151390714D01*
X138535476Y-150933571D02*
X138535476Y-151466904D01*
X138535476Y-151009761D02*
X138573571Y-150971666D01*
X138649761Y-150933571D01*
X138764047Y-150933571D01*
X138840238Y-150971666D01*
X138878333Y-151047857D01*
X138878333Y-151466904D01*
X139145000Y-150933571D02*
X139449761Y-150933571D01*
X139259285Y-150666904D02*
X139259285Y-151352619D01*
X139297380Y-151428809D01*
X139373571Y-151466904D01*
X139449761Y-151466904D01*
X139716428Y-151466904D02*
X139716428Y-150933571D01*
X139716428Y-150666904D02*
X139678333Y-150705000D01*
X139716428Y-150743095D01*
X139754523Y-150705000D01*
X139716428Y-150666904D01*
X139716428Y-150743095D01*
X140097380Y-150933571D02*
X140097380Y-151466904D01*
X140097380Y-151009761D02*
X140135476Y-150971666D01*
X140211666Y-150933571D01*
X140325952Y-150933571D01*
X140402142Y-150971666D01*
X140440238Y-151047857D01*
X140440238Y-151466904D01*
X141164047Y-150933571D02*
X141164047Y-151581190D01*
X141125952Y-151657380D01*
X141087857Y-151695476D01*
X141011666Y-151733571D01*
X140897380Y-151733571D01*
X140821190Y-151695476D01*
X141164047Y-151428809D02*
X141087857Y-151466904D01*
X140935476Y-151466904D01*
X140859285Y-151428809D01*
X140821190Y-151390714D01*
X140783095Y-151314523D01*
X140783095Y-151085952D01*
X140821190Y-151009761D01*
X140859285Y-150971666D01*
X140935476Y-150933571D01*
X141087857Y-150933571D01*
X141164047Y-150971666D01*
X142154523Y-151466904D02*
X142154523Y-150666904D01*
X142154523Y-151047857D02*
X142611666Y-151047857D01*
X142611666Y-151466904D02*
X142611666Y-150666904D01*
X143106904Y-151466904D02*
X143030714Y-151428809D01*
X142992619Y-151390714D01*
X142954523Y-151314523D01*
X142954523Y-151085952D01*
X142992619Y-151009761D01*
X143030714Y-150971666D01*
X143106904Y-150933571D01*
X143221190Y-150933571D01*
X143297380Y-150971666D01*
X143335476Y-151009761D01*
X143373571Y-151085952D01*
X143373571Y-151314523D01*
X143335476Y-151390714D01*
X143297380Y-151428809D01*
X143221190Y-151466904D01*
X143106904Y-151466904D01*
X143830714Y-151466904D02*
X143754523Y-151428809D01*
X143716428Y-151352619D01*
X143716428Y-150666904D01*
X144440238Y-151428809D02*
X144364047Y-151466904D01*
X144211666Y-151466904D01*
X144135476Y-151428809D01*
X144097380Y-151352619D01*
X144097380Y-151047857D01*
X144135476Y-150971666D01*
X144211666Y-150933571D01*
X144364047Y-150933571D01*
X144440238Y-150971666D01*
X144478333Y-151047857D01*
X144478333Y-151124047D01*
X144097380Y-151200238D01*
X136590476Y-157831904D02*
X136590476Y-157031904D01*
X136590476Y-157412857D02*
X137047619Y-157412857D01*
X137047619Y-157831904D02*
X137047619Y-157031904D01*
X137847619Y-157831904D02*
X137390476Y-157831904D01*
X137619047Y-157831904D02*
X137619047Y-157031904D01*
X137542857Y-157146190D01*
X137466666Y-157222380D01*
X137390476Y-157260476D01*
%TO.C,H2*%
X15041428Y-151201904D02*
X15498571Y-151201904D01*
X15270000Y-152001904D02*
X15270000Y-151201904D01*
X15879523Y-152001904D02*
X15803333Y-151963809D01*
X15765238Y-151925714D01*
X15727142Y-151849523D01*
X15727142Y-151620952D01*
X15765238Y-151544761D01*
X15803333Y-151506666D01*
X15879523Y-151468571D01*
X15993809Y-151468571D01*
X16070000Y-151506666D01*
X16108095Y-151544761D01*
X16146190Y-151620952D01*
X16146190Y-151849523D01*
X16108095Y-151925714D01*
X16070000Y-151963809D01*
X15993809Y-152001904D01*
X15879523Y-152001904D01*
X16489047Y-151468571D02*
X16489047Y-152268571D01*
X16489047Y-151506666D02*
X16565238Y-151468571D01*
X16717619Y-151468571D01*
X16793809Y-151506666D01*
X16831904Y-151544761D01*
X16870000Y-151620952D01*
X16870000Y-151849523D01*
X16831904Y-151925714D01*
X16793809Y-151963809D01*
X16717619Y-152001904D01*
X16565238Y-152001904D01*
X16489047Y-151963809D01*
X18279523Y-152001904D02*
X18012857Y-151620952D01*
X17822380Y-152001904D02*
X17822380Y-151201904D01*
X18127142Y-151201904D01*
X18203333Y-151240000D01*
X18241428Y-151278095D01*
X18279523Y-151354285D01*
X18279523Y-151468571D01*
X18241428Y-151544761D01*
X18203333Y-151582857D01*
X18127142Y-151620952D01*
X17822380Y-151620952D01*
X18622380Y-152001904D02*
X18622380Y-151468571D01*
X18622380Y-151201904D02*
X18584285Y-151240000D01*
X18622380Y-151278095D01*
X18660476Y-151240000D01*
X18622380Y-151201904D01*
X18622380Y-151278095D01*
X19346190Y-151468571D02*
X19346190Y-152116190D01*
X19308095Y-152192380D01*
X19270000Y-152230476D01*
X19193809Y-152268571D01*
X19079523Y-152268571D01*
X19003333Y-152230476D01*
X19346190Y-151963809D02*
X19270000Y-152001904D01*
X19117619Y-152001904D01*
X19041428Y-151963809D01*
X19003333Y-151925714D01*
X18965238Y-151849523D01*
X18965238Y-151620952D01*
X19003333Y-151544761D01*
X19041428Y-151506666D01*
X19117619Y-151468571D01*
X19270000Y-151468571D01*
X19346190Y-151506666D01*
X19727142Y-152001904D02*
X19727142Y-151201904D01*
X20070000Y-152001904D02*
X20070000Y-151582857D01*
X20031904Y-151506666D01*
X19955714Y-151468571D01*
X19841428Y-151468571D01*
X19765238Y-151506666D01*
X19727142Y-151544761D01*
X20336666Y-151468571D02*
X20641428Y-151468571D01*
X20450952Y-151201904D02*
X20450952Y-151887619D01*
X20489047Y-151963809D01*
X20565238Y-152001904D01*
X20641428Y-152001904D01*
X21517619Y-152001904D02*
X21517619Y-151201904D01*
X21784285Y-151773333D01*
X22050952Y-151201904D01*
X22050952Y-152001904D01*
X22546190Y-152001904D02*
X22470000Y-151963809D01*
X22431904Y-151925714D01*
X22393809Y-151849523D01*
X22393809Y-151620952D01*
X22431904Y-151544761D01*
X22470000Y-151506666D01*
X22546190Y-151468571D01*
X22660476Y-151468571D01*
X22736666Y-151506666D01*
X22774761Y-151544761D01*
X22812857Y-151620952D01*
X22812857Y-151849523D01*
X22774761Y-151925714D01*
X22736666Y-151963809D01*
X22660476Y-152001904D01*
X22546190Y-152001904D01*
X23498571Y-151468571D02*
X23498571Y-152001904D01*
X23155714Y-151468571D02*
X23155714Y-151887619D01*
X23193809Y-151963809D01*
X23270000Y-152001904D01*
X23384285Y-152001904D01*
X23460476Y-151963809D01*
X23498571Y-151925714D01*
X23879523Y-151468571D02*
X23879523Y-152001904D01*
X23879523Y-151544761D02*
X23917619Y-151506666D01*
X23993809Y-151468571D01*
X24108095Y-151468571D01*
X24184285Y-151506666D01*
X24222380Y-151582857D01*
X24222380Y-152001904D01*
X24489047Y-151468571D02*
X24793809Y-151468571D01*
X24603333Y-151201904D02*
X24603333Y-151887619D01*
X24641428Y-151963809D01*
X24717619Y-152001904D01*
X24793809Y-152001904D01*
X25060476Y-152001904D02*
X25060476Y-151468571D01*
X25060476Y-151201904D02*
X25022380Y-151240000D01*
X25060476Y-151278095D01*
X25098571Y-151240000D01*
X25060476Y-151201904D01*
X25060476Y-151278095D01*
X25441428Y-151468571D02*
X25441428Y-152001904D01*
X25441428Y-151544761D02*
X25479523Y-151506666D01*
X25555714Y-151468571D01*
X25670000Y-151468571D01*
X25746190Y-151506666D01*
X25784285Y-151582857D01*
X25784285Y-152001904D01*
X26508095Y-151468571D02*
X26508095Y-152116190D01*
X26470000Y-152192380D01*
X26431904Y-152230476D01*
X26355714Y-152268571D01*
X26241428Y-152268571D01*
X26165238Y-152230476D01*
X26508095Y-151963809D02*
X26431904Y-152001904D01*
X26279523Y-152001904D01*
X26203333Y-151963809D01*
X26165238Y-151925714D01*
X26127142Y-151849523D01*
X26127142Y-151620952D01*
X26165238Y-151544761D01*
X26203333Y-151506666D01*
X26279523Y-151468571D01*
X26431904Y-151468571D01*
X26508095Y-151506666D01*
X27498571Y-152001904D02*
X27498571Y-151201904D01*
X27498571Y-151582857D02*
X27955714Y-151582857D01*
X27955714Y-152001904D02*
X27955714Y-151201904D01*
X28450952Y-152001904D02*
X28374761Y-151963809D01*
X28336666Y-151925714D01*
X28298571Y-151849523D01*
X28298571Y-151620952D01*
X28336666Y-151544761D01*
X28374761Y-151506666D01*
X28450952Y-151468571D01*
X28565238Y-151468571D01*
X28641428Y-151506666D01*
X28679523Y-151544761D01*
X28717619Y-151620952D01*
X28717619Y-151849523D01*
X28679523Y-151925714D01*
X28641428Y-151963809D01*
X28565238Y-152001904D01*
X28450952Y-152001904D01*
X29174761Y-152001904D02*
X29098571Y-151963809D01*
X29060476Y-151887619D01*
X29060476Y-151201904D01*
X29784285Y-151963809D02*
X29708095Y-152001904D01*
X29555714Y-152001904D01*
X29479523Y-151963809D01*
X29441428Y-151887619D01*
X29441428Y-151582857D01*
X29479523Y-151506666D01*
X29555714Y-151468571D01*
X29708095Y-151468571D01*
X29784285Y-151506666D01*
X29822380Y-151582857D01*
X29822380Y-151659047D01*
X29441428Y-151735238D01*
X21590476Y-157831904D02*
X21590476Y-157031904D01*
X21590476Y-157412857D02*
X22047619Y-157412857D01*
X22047619Y-157831904D02*
X22047619Y-157031904D01*
X22390476Y-157108095D02*
X22428571Y-157070000D01*
X22504761Y-157031904D01*
X22695238Y-157031904D01*
X22771428Y-157070000D01*
X22809523Y-157108095D01*
X22847619Y-157184285D01*
X22847619Y-157260476D01*
X22809523Y-157374761D01*
X22352380Y-157831904D01*
X22847619Y-157831904D01*
%TO.C,H3*%
X129785714Y-18212857D02*
X129900000Y-18250952D01*
X129938095Y-18289047D01*
X129976190Y-18365238D01*
X129976190Y-18479523D01*
X129938095Y-18555714D01*
X129900000Y-18593809D01*
X129823809Y-18631904D01*
X129519047Y-18631904D01*
X129519047Y-17831904D01*
X129785714Y-17831904D01*
X129861904Y-17870000D01*
X129900000Y-17908095D01*
X129938095Y-17984285D01*
X129938095Y-18060476D01*
X129900000Y-18136666D01*
X129861904Y-18174761D01*
X129785714Y-18212857D01*
X129519047Y-18212857D01*
X130433333Y-18631904D02*
X130357142Y-18593809D01*
X130319047Y-18555714D01*
X130280952Y-18479523D01*
X130280952Y-18250952D01*
X130319047Y-18174761D01*
X130357142Y-18136666D01*
X130433333Y-18098571D01*
X130547619Y-18098571D01*
X130623809Y-18136666D01*
X130661904Y-18174761D01*
X130700000Y-18250952D01*
X130700000Y-18479523D01*
X130661904Y-18555714D01*
X130623809Y-18593809D01*
X130547619Y-18631904D01*
X130433333Y-18631904D01*
X130928571Y-18098571D02*
X131233333Y-18098571D01*
X131042857Y-17831904D02*
X131042857Y-18517619D01*
X131080952Y-18593809D01*
X131157142Y-18631904D01*
X131233333Y-18631904D01*
X131385714Y-18098571D02*
X131690476Y-18098571D01*
X131500000Y-17831904D02*
X131500000Y-18517619D01*
X131538095Y-18593809D01*
X131614285Y-18631904D01*
X131690476Y-18631904D01*
X132071428Y-18631904D02*
X131995238Y-18593809D01*
X131957142Y-18555714D01*
X131919047Y-18479523D01*
X131919047Y-18250952D01*
X131957142Y-18174761D01*
X131995238Y-18136666D01*
X132071428Y-18098571D01*
X132185714Y-18098571D01*
X132261904Y-18136666D01*
X132300000Y-18174761D01*
X132338095Y-18250952D01*
X132338095Y-18479523D01*
X132300000Y-18555714D01*
X132261904Y-18593809D01*
X132185714Y-18631904D01*
X132071428Y-18631904D01*
X132680952Y-18631904D02*
X132680952Y-18098571D01*
X132680952Y-18174761D02*
X132719047Y-18136666D01*
X132795238Y-18098571D01*
X132909523Y-18098571D01*
X132985714Y-18136666D01*
X133023809Y-18212857D01*
X133023809Y-18631904D01*
X133023809Y-18212857D02*
X133061904Y-18136666D01*
X133138095Y-18098571D01*
X133252380Y-18098571D01*
X133328571Y-18136666D01*
X133366666Y-18212857D01*
X133366666Y-18631904D01*
X134738095Y-18631904D02*
X134357142Y-18631904D01*
X134357142Y-17831904D01*
X135309523Y-18593809D02*
X135233333Y-18631904D01*
X135080952Y-18631904D01*
X135004761Y-18593809D01*
X134966666Y-18517619D01*
X134966666Y-18212857D01*
X135004761Y-18136666D01*
X135080952Y-18098571D01*
X135233333Y-18098571D01*
X135309523Y-18136666D01*
X135347619Y-18212857D01*
X135347619Y-18289047D01*
X134966666Y-18365238D01*
X135576190Y-18098571D02*
X135880952Y-18098571D01*
X135690476Y-18631904D02*
X135690476Y-17946190D01*
X135728571Y-17870000D01*
X135804761Y-17831904D01*
X135880952Y-17831904D01*
X136033333Y-18098571D02*
X136338095Y-18098571D01*
X136147619Y-17831904D02*
X136147619Y-18517619D01*
X136185714Y-18593809D01*
X136261904Y-18631904D01*
X136338095Y-18631904D01*
X137214285Y-18631904D02*
X137214285Y-17831904D01*
X137480952Y-18403333D01*
X137747619Y-17831904D01*
X137747619Y-18631904D01*
X138242857Y-18631904D02*
X138166666Y-18593809D01*
X138128571Y-18555714D01*
X138090476Y-18479523D01*
X138090476Y-18250952D01*
X138128571Y-18174761D01*
X138166666Y-18136666D01*
X138242857Y-18098571D01*
X138357142Y-18098571D01*
X138433333Y-18136666D01*
X138471428Y-18174761D01*
X138509523Y-18250952D01*
X138509523Y-18479523D01*
X138471428Y-18555714D01*
X138433333Y-18593809D01*
X138357142Y-18631904D01*
X138242857Y-18631904D01*
X139195238Y-18098571D02*
X139195238Y-18631904D01*
X138852380Y-18098571D02*
X138852380Y-18517619D01*
X138890476Y-18593809D01*
X138966666Y-18631904D01*
X139080952Y-18631904D01*
X139157142Y-18593809D01*
X139195238Y-18555714D01*
X139576190Y-18098571D02*
X139576190Y-18631904D01*
X139576190Y-18174761D02*
X139614285Y-18136666D01*
X139690476Y-18098571D01*
X139804761Y-18098571D01*
X139880952Y-18136666D01*
X139919047Y-18212857D01*
X139919047Y-18631904D01*
X140185714Y-18098571D02*
X140490476Y-18098571D01*
X140300000Y-17831904D02*
X140300000Y-18517619D01*
X140338095Y-18593809D01*
X140414285Y-18631904D01*
X140490476Y-18631904D01*
X140757142Y-18631904D02*
X140757142Y-18098571D01*
X140757142Y-17831904D02*
X140719047Y-17870000D01*
X140757142Y-17908095D01*
X140795238Y-17870000D01*
X140757142Y-17831904D01*
X140757142Y-17908095D01*
X141138095Y-18098571D02*
X141138095Y-18631904D01*
X141138095Y-18174761D02*
X141176190Y-18136666D01*
X141252380Y-18098571D01*
X141366666Y-18098571D01*
X141442857Y-18136666D01*
X141480952Y-18212857D01*
X141480952Y-18631904D01*
X142204761Y-18098571D02*
X142204761Y-18746190D01*
X142166666Y-18822380D01*
X142128571Y-18860476D01*
X142052380Y-18898571D01*
X141938095Y-18898571D01*
X141861904Y-18860476D01*
X142204761Y-18593809D02*
X142128571Y-18631904D01*
X141976190Y-18631904D01*
X141900000Y-18593809D01*
X141861904Y-18555714D01*
X141823809Y-18479523D01*
X141823809Y-18250952D01*
X141861904Y-18174761D01*
X141900000Y-18136666D01*
X141976190Y-18098571D01*
X142128571Y-18098571D01*
X142204761Y-18136666D01*
X143195238Y-18631904D02*
X143195238Y-17831904D01*
X143195238Y-18212857D02*
X143652380Y-18212857D01*
X143652380Y-18631904D02*
X143652380Y-17831904D01*
X144147619Y-18631904D02*
X144071428Y-18593809D01*
X144033333Y-18555714D01*
X143995238Y-18479523D01*
X143995238Y-18250952D01*
X144033333Y-18174761D01*
X144071428Y-18136666D01*
X144147619Y-18098571D01*
X144261904Y-18098571D01*
X144338095Y-18136666D01*
X144376190Y-18174761D01*
X144414285Y-18250952D01*
X144414285Y-18479523D01*
X144376190Y-18555714D01*
X144338095Y-18593809D01*
X144261904Y-18631904D01*
X144147619Y-18631904D01*
X144871428Y-18631904D02*
X144795238Y-18593809D01*
X144757142Y-18517619D01*
X144757142Y-17831904D01*
X145480952Y-18593809D02*
X145404761Y-18631904D01*
X145252380Y-18631904D01*
X145176190Y-18593809D01*
X145138095Y-18517619D01*
X145138095Y-18212857D01*
X145176190Y-18136666D01*
X145252380Y-18098571D01*
X145404761Y-18098571D01*
X145480952Y-18136666D01*
X145519047Y-18212857D01*
X145519047Y-18289047D01*
X145138095Y-18365238D01*
X136590476Y-22831904D02*
X136590476Y-22031904D01*
X136590476Y-22412857D02*
X137047619Y-22412857D01*
X137047619Y-22831904D02*
X137047619Y-22031904D01*
X137352380Y-22031904D02*
X137847619Y-22031904D01*
X137580952Y-22336666D01*
X137695238Y-22336666D01*
X137771428Y-22374761D01*
X137809523Y-22412857D01*
X137847619Y-22489047D01*
X137847619Y-22679523D01*
X137809523Y-22755714D01*
X137771428Y-22793809D01*
X137695238Y-22831904D01*
X137466666Y-22831904D01*
X137390476Y-22793809D01*
X137352380Y-22755714D01*
%TO.C,H4*%
X14366666Y-18212857D02*
X14480952Y-18250952D01*
X14519047Y-18289047D01*
X14557142Y-18365238D01*
X14557142Y-18479523D01*
X14519047Y-18555714D01*
X14480952Y-18593809D01*
X14404761Y-18631904D01*
X14100000Y-18631904D01*
X14100000Y-17831904D01*
X14366666Y-17831904D01*
X14442857Y-17870000D01*
X14480952Y-17908095D01*
X14519047Y-17984285D01*
X14519047Y-18060476D01*
X14480952Y-18136666D01*
X14442857Y-18174761D01*
X14366666Y-18212857D01*
X14100000Y-18212857D01*
X15014285Y-18631904D02*
X14938095Y-18593809D01*
X14900000Y-18555714D01*
X14861904Y-18479523D01*
X14861904Y-18250952D01*
X14900000Y-18174761D01*
X14938095Y-18136666D01*
X15014285Y-18098571D01*
X15128571Y-18098571D01*
X15204761Y-18136666D01*
X15242857Y-18174761D01*
X15280952Y-18250952D01*
X15280952Y-18479523D01*
X15242857Y-18555714D01*
X15204761Y-18593809D01*
X15128571Y-18631904D01*
X15014285Y-18631904D01*
X15509523Y-18098571D02*
X15814285Y-18098571D01*
X15623809Y-17831904D02*
X15623809Y-18517619D01*
X15661904Y-18593809D01*
X15738095Y-18631904D01*
X15814285Y-18631904D01*
X15966666Y-18098571D02*
X16271428Y-18098571D01*
X16080952Y-17831904D02*
X16080952Y-18517619D01*
X16119047Y-18593809D01*
X16195238Y-18631904D01*
X16271428Y-18631904D01*
X16652380Y-18631904D02*
X16576190Y-18593809D01*
X16538095Y-18555714D01*
X16500000Y-18479523D01*
X16500000Y-18250952D01*
X16538095Y-18174761D01*
X16576190Y-18136666D01*
X16652380Y-18098571D01*
X16766666Y-18098571D01*
X16842857Y-18136666D01*
X16880952Y-18174761D01*
X16919047Y-18250952D01*
X16919047Y-18479523D01*
X16880952Y-18555714D01*
X16842857Y-18593809D01*
X16766666Y-18631904D01*
X16652380Y-18631904D01*
X17261904Y-18631904D02*
X17261904Y-18098571D01*
X17261904Y-18174761D02*
X17300000Y-18136666D01*
X17376190Y-18098571D01*
X17490476Y-18098571D01*
X17566666Y-18136666D01*
X17604761Y-18212857D01*
X17604761Y-18631904D01*
X17604761Y-18212857D02*
X17642857Y-18136666D01*
X17719047Y-18098571D01*
X17833333Y-18098571D01*
X17909523Y-18136666D01*
X17947619Y-18212857D01*
X17947619Y-18631904D01*
X19395238Y-18631904D02*
X19128571Y-18250952D01*
X18938095Y-18631904D02*
X18938095Y-17831904D01*
X19242857Y-17831904D01*
X19319047Y-17870000D01*
X19357142Y-17908095D01*
X19395238Y-17984285D01*
X19395238Y-18098571D01*
X19357142Y-18174761D01*
X19319047Y-18212857D01*
X19242857Y-18250952D01*
X18938095Y-18250952D01*
X19738095Y-18631904D02*
X19738095Y-18098571D01*
X19738095Y-17831904D02*
X19700000Y-17870000D01*
X19738095Y-17908095D01*
X19776190Y-17870000D01*
X19738095Y-17831904D01*
X19738095Y-17908095D01*
X20461904Y-18098571D02*
X20461904Y-18746190D01*
X20423809Y-18822380D01*
X20385714Y-18860476D01*
X20309523Y-18898571D01*
X20195238Y-18898571D01*
X20119047Y-18860476D01*
X20461904Y-18593809D02*
X20385714Y-18631904D01*
X20233333Y-18631904D01*
X20157142Y-18593809D01*
X20119047Y-18555714D01*
X20080952Y-18479523D01*
X20080952Y-18250952D01*
X20119047Y-18174761D01*
X20157142Y-18136666D01*
X20233333Y-18098571D01*
X20385714Y-18098571D01*
X20461904Y-18136666D01*
X20842857Y-18631904D02*
X20842857Y-17831904D01*
X21185714Y-18631904D02*
X21185714Y-18212857D01*
X21147619Y-18136666D01*
X21071428Y-18098571D01*
X20957142Y-18098571D01*
X20880952Y-18136666D01*
X20842857Y-18174761D01*
X21452380Y-18098571D02*
X21757142Y-18098571D01*
X21566666Y-17831904D02*
X21566666Y-18517619D01*
X21604761Y-18593809D01*
X21680952Y-18631904D01*
X21757142Y-18631904D01*
X22633333Y-18631904D02*
X22633333Y-17831904D01*
X22900000Y-18403333D01*
X23166666Y-17831904D01*
X23166666Y-18631904D01*
X23661904Y-18631904D02*
X23585714Y-18593809D01*
X23547619Y-18555714D01*
X23509523Y-18479523D01*
X23509523Y-18250952D01*
X23547619Y-18174761D01*
X23585714Y-18136666D01*
X23661904Y-18098571D01*
X23776190Y-18098571D01*
X23852380Y-18136666D01*
X23890476Y-18174761D01*
X23928571Y-18250952D01*
X23928571Y-18479523D01*
X23890476Y-18555714D01*
X23852380Y-18593809D01*
X23776190Y-18631904D01*
X23661904Y-18631904D01*
X24614285Y-18098571D02*
X24614285Y-18631904D01*
X24271428Y-18098571D02*
X24271428Y-18517619D01*
X24309523Y-18593809D01*
X24385714Y-18631904D01*
X24500000Y-18631904D01*
X24576190Y-18593809D01*
X24614285Y-18555714D01*
X24995238Y-18098571D02*
X24995238Y-18631904D01*
X24995238Y-18174761D02*
X25033333Y-18136666D01*
X25109523Y-18098571D01*
X25223809Y-18098571D01*
X25300000Y-18136666D01*
X25338095Y-18212857D01*
X25338095Y-18631904D01*
X25604761Y-18098571D02*
X25909523Y-18098571D01*
X25719047Y-17831904D02*
X25719047Y-18517619D01*
X25757142Y-18593809D01*
X25833333Y-18631904D01*
X25909523Y-18631904D01*
X26176190Y-18631904D02*
X26176190Y-18098571D01*
X26176190Y-17831904D02*
X26138095Y-17870000D01*
X26176190Y-17908095D01*
X26214285Y-17870000D01*
X26176190Y-17831904D01*
X26176190Y-17908095D01*
X26557142Y-18098571D02*
X26557142Y-18631904D01*
X26557142Y-18174761D02*
X26595238Y-18136666D01*
X26671428Y-18098571D01*
X26785714Y-18098571D01*
X26861904Y-18136666D01*
X26900000Y-18212857D01*
X26900000Y-18631904D01*
X27623809Y-18098571D02*
X27623809Y-18746190D01*
X27585714Y-18822380D01*
X27547619Y-18860476D01*
X27471428Y-18898571D01*
X27357142Y-18898571D01*
X27280952Y-18860476D01*
X27623809Y-18593809D02*
X27547619Y-18631904D01*
X27395238Y-18631904D01*
X27319047Y-18593809D01*
X27280952Y-18555714D01*
X27242857Y-18479523D01*
X27242857Y-18250952D01*
X27280952Y-18174761D01*
X27319047Y-18136666D01*
X27395238Y-18098571D01*
X27547619Y-18098571D01*
X27623809Y-18136666D01*
X28614285Y-18631904D02*
X28614285Y-17831904D01*
X28614285Y-18212857D02*
X29071428Y-18212857D01*
X29071428Y-18631904D02*
X29071428Y-17831904D01*
X29566666Y-18631904D02*
X29490476Y-18593809D01*
X29452380Y-18555714D01*
X29414285Y-18479523D01*
X29414285Y-18250952D01*
X29452380Y-18174761D01*
X29490476Y-18136666D01*
X29566666Y-18098571D01*
X29680952Y-18098571D01*
X29757142Y-18136666D01*
X29795238Y-18174761D01*
X29833333Y-18250952D01*
X29833333Y-18479523D01*
X29795238Y-18555714D01*
X29757142Y-18593809D01*
X29680952Y-18631904D01*
X29566666Y-18631904D01*
X30290476Y-18631904D02*
X30214285Y-18593809D01*
X30176190Y-18517619D01*
X30176190Y-17831904D01*
X30900000Y-18593809D02*
X30823809Y-18631904D01*
X30671428Y-18631904D01*
X30595238Y-18593809D01*
X30557142Y-18517619D01*
X30557142Y-18212857D01*
X30595238Y-18136666D01*
X30671428Y-18098571D01*
X30823809Y-18098571D01*
X30900000Y-18136666D01*
X30938095Y-18212857D01*
X30938095Y-18289047D01*
X30557142Y-18365238D01*
X21590476Y-22831904D02*
X21590476Y-22031904D01*
X21590476Y-22412857D02*
X22047619Y-22412857D01*
X22047619Y-22831904D02*
X22047619Y-22031904D01*
X22771428Y-22298571D02*
X22771428Y-22831904D01*
X22580952Y-21993809D02*
X22390476Y-22565238D01*
X22885714Y-22565238D01*
%TO.C,J6*%
X34466428Y-143953214D02*
X34428333Y-143991309D01*
X34314047Y-144029404D01*
X34237857Y-144029404D01*
X34123571Y-143991309D01*
X34047380Y-143915119D01*
X34009285Y-143838928D01*
X33971190Y-143686547D01*
X33971190Y-143572261D01*
X34009285Y-143419880D01*
X34047380Y-143343690D01*
X34123571Y-143267500D01*
X34237857Y-143229404D01*
X34314047Y-143229404D01*
X34428333Y-143267500D01*
X34466428Y-143305595D01*
X34771190Y-143800833D02*
X35152142Y-143800833D01*
X34695000Y-144029404D02*
X34961666Y-143229404D01*
X35228333Y-144029404D01*
X35495000Y-144029404D02*
X35495000Y-143229404D01*
X35952142Y-144029404D01*
X35952142Y-143229404D01*
X36142619Y-144105595D02*
X36752142Y-144105595D01*
X37095000Y-143229404D02*
X37247380Y-143229404D01*
X37323571Y-143267500D01*
X37399761Y-143343690D01*
X37437857Y-143496071D01*
X37437857Y-143762738D01*
X37399761Y-143915119D01*
X37323571Y-143991309D01*
X37247380Y-144029404D01*
X37095000Y-144029404D01*
X37018809Y-143991309D01*
X36942619Y-143915119D01*
X36904523Y-143762738D01*
X36904523Y-143496071D01*
X36942619Y-143343690D01*
X37018809Y-143267500D01*
X37095000Y-143229404D01*
X38123571Y-143496071D02*
X38123571Y-144029404D01*
X37780714Y-143496071D02*
X37780714Y-143915119D01*
X37818809Y-143991309D01*
X37895000Y-144029404D01*
X38009285Y-144029404D01*
X38085476Y-143991309D01*
X38123571Y-143953214D01*
X38390238Y-143496071D02*
X38695000Y-143496071D01*
X38504523Y-143229404D02*
X38504523Y-143915119D01*
X38542619Y-143991309D01*
X38618809Y-144029404D01*
X38695000Y-144029404D01*
X36028333Y-146529404D02*
X36028333Y-147100833D01*
X35990238Y-147215119D01*
X35914047Y-147291309D01*
X35799761Y-147329404D01*
X35723571Y-147329404D01*
X36752142Y-146529404D02*
X36599761Y-146529404D01*
X36523571Y-146567500D01*
X36485476Y-146605595D01*
X36409285Y-146719880D01*
X36371190Y-146872261D01*
X36371190Y-147177023D01*
X36409285Y-147253214D01*
X36447380Y-147291309D01*
X36523571Y-147329404D01*
X36675952Y-147329404D01*
X36752142Y-147291309D01*
X36790238Y-147253214D01*
X36828333Y-147177023D01*
X36828333Y-146986547D01*
X36790238Y-146910357D01*
X36752142Y-146872261D01*
X36675952Y-146834166D01*
X36523571Y-146834166D01*
X36447380Y-146872261D01*
X36409285Y-146910357D01*
X36371190Y-146986547D01*
%TO.C,SW1*%
X28033809Y-77178095D02*
X28071904Y-77063809D01*
X28071904Y-76873333D01*
X28033809Y-76797142D01*
X27995714Y-76759047D01*
X27919523Y-76720952D01*
X27843333Y-76720952D01*
X27767142Y-76759047D01*
X27729047Y-76797142D01*
X27690952Y-76873333D01*
X27652857Y-77025714D01*
X27614761Y-77101904D01*
X27576666Y-77140000D01*
X27500476Y-77178095D01*
X27424285Y-77178095D01*
X27348095Y-77140000D01*
X27310000Y-77101904D01*
X27271904Y-77025714D01*
X27271904Y-76835238D01*
X27310000Y-76720952D01*
X27271904Y-76454285D02*
X28071904Y-76263809D01*
X27500476Y-76111428D01*
X28071904Y-75959047D01*
X27271904Y-75768571D01*
X28148095Y-75654285D02*
X28148095Y-75044761D01*
X28071904Y-74854285D02*
X27271904Y-74854285D01*
X27271904Y-74549523D01*
X27310000Y-74473333D01*
X27348095Y-74435238D01*
X27424285Y-74397142D01*
X27538571Y-74397142D01*
X27614761Y-74435238D01*
X27652857Y-74473333D01*
X27690952Y-74549523D01*
X27690952Y-74854285D01*
X27538571Y-73711428D02*
X28071904Y-73711428D01*
X27538571Y-74054285D02*
X27957619Y-74054285D01*
X28033809Y-74016190D01*
X28071904Y-73940000D01*
X28071904Y-73825714D01*
X28033809Y-73749523D01*
X27995714Y-73711428D01*
X28033809Y-73368571D02*
X28071904Y-73292380D01*
X28071904Y-73140000D01*
X28033809Y-73063809D01*
X27957619Y-73025714D01*
X27919523Y-73025714D01*
X27843333Y-73063809D01*
X27805238Y-73140000D01*
X27805238Y-73254285D01*
X27767142Y-73330476D01*
X27690952Y-73368571D01*
X27652857Y-73368571D01*
X27576666Y-73330476D01*
X27538571Y-73254285D01*
X27538571Y-73140000D01*
X27576666Y-73063809D01*
X28071904Y-72682857D02*
X27271904Y-72682857D01*
X28071904Y-72340000D02*
X27652857Y-72340000D01*
X27576666Y-72378095D01*
X27538571Y-72454285D01*
X27538571Y-72568571D01*
X27576666Y-72644761D01*
X27614761Y-72682857D01*
X23583809Y-76306666D02*
X23621904Y-76192380D01*
X23621904Y-76001904D01*
X23583809Y-75925714D01*
X23545714Y-75887619D01*
X23469523Y-75849523D01*
X23393333Y-75849523D01*
X23317142Y-75887619D01*
X23279047Y-75925714D01*
X23240952Y-76001904D01*
X23202857Y-76154285D01*
X23164761Y-76230476D01*
X23126666Y-76268571D01*
X23050476Y-76306666D01*
X22974285Y-76306666D01*
X22898095Y-76268571D01*
X22860000Y-76230476D01*
X22821904Y-76154285D01*
X22821904Y-75963809D01*
X22860000Y-75849523D01*
X22821904Y-75582857D02*
X23621904Y-75392380D01*
X23050476Y-75240000D01*
X23621904Y-75087619D01*
X22821904Y-74897142D01*
X23621904Y-74173333D02*
X23621904Y-74630476D01*
X23621904Y-74401904D02*
X22821904Y-74401904D01*
X22936190Y-74478095D01*
X23012380Y-74554285D01*
X23050476Y-74630476D01*
%TO.C,HS3*%
X79285000Y-94298809D02*
X79399285Y-94336904D01*
X79589761Y-94336904D01*
X79665952Y-94298809D01*
X79704047Y-94260714D01*
X79742142Y-94184523D01*
X79742142Y-94108333D01*
X79704047Y-94032142D01*
X79665952Y-93994047D01*
X79589761Y-93955952D01*
X79437380Y-93917857D01*
X79361190Y-93879761D01*
X79323095Y-93841666D01*
X79285000Y-93765476D01*
X79285000Y-93689285D01*
X79323095Y-93613095D01*
X79361190Y-93575000D01*
X79437380Y-93536904D01*
X79627857Y-93536904D01*
X79742142Y-93575000D01*
X80427857Y-94298809D02*
X80351666Y-94336904D01*
X80199285Y-94336904D01*
X80123095Y-94298809D01*
X80085000Y-94260714D01*
X80046904Y-94184523D01*
X80046904Y-93955952D01*
X80085000Y-93879761D01*
X80123095Y-93841666D01*
X80199285Y-93803571D01*
X80351666Y-93803571D01*
X80427857Y-93841666D01*
X80770714Y-94336904D02*
X80770714Y-93536904D01*
X81113571Y-94336904D02*
X81113571Y-93917857D01*
X81075476Y-93841666D01*
X80999285Y-93803571D01*
X80885000Y-93803571D01*
X80808809Y-93841666D01*
X80770714Y-93879761D01*
X81608809Y-94336904D02*
X81532619Y-94298809D01*
X81494523Y-94260714D01*
X81456428Y-94184523D01*
X81456428Y-93955952D01*
X81494523Y-93879761D01*
X81532619Y-93841666D01*
X81608809Y-93803571D01*
X81723095Y-93803571D01*
X81799285Y-93841666D01*
X81837380Y-93879761D01*
X81875476Y-93955952D01*
X81875476Y-94184523D01*
X81837380Y-94260714D01*
X81799285Y-94298809D01*
X81723095Y-94336904D01*
X81608809Y-94336904D01*
X82104047Y-93803571D02*
X82408809Y-93803571D01*
X82218333Y-93536904D02*
X82218333Y-94222619D01*
X82256428Y-94298809D01*
X82332619Y-94336904D01*
X82408809Y-94336904D01*
X82561190Y-93803571D02*
X82865952Y-93803571D01*
X82675476Y-93536904D02*
X82675476Y-94222619D01*
X82713571Y-94298809D01*
X82789761Y-94336904D01*
X82865952Y-94336904D01*
X83132619Y-94336904D02*
X83132619Y-93536904D01*
X83208809Y-94032142D02*
X83437380Y-94336904D01*
X83437380Y-93803571D02*
X83132619Y-94108333D01*
X83704047Y-93803571D02*
X83894523Y-94336904D01*
X84085000Y-93803571D02*
X83894523Y-94336904D01*
X83818333Y-94527380D01*
X83780238Y-94565476D01*
X83704047Y-94603571D01*
X84999285Y-94336904D02*
X84999285Y-93536904D01*
X85189761Y-93536904D01*
X85304047Y-93575000D01*
X85380238Y-93651190D01*
X85418333Y-93727380D01*
X85456428Y-93879761D01*
X85456428Y-93994047D01*
X85418333Y-94146428D01*
X85380238Y-94222619D01*
X85304047Y-94298809D01*
X85189761Y-94336904D01*
X84999285Y-94336904D01*
X85799285Y-94336904D02*
X85799285Y-93803571D01*
X85799285Y-93536904D02*
X85761190Y-93575000D01*
X85799285Y-93613095D01*
X85837380Y-93575000D01*
X85799285Y-93536904D01*
X85799285Y-93613095D01*
X86294523Y-94336904D02*
X86218333Y-94298809D01*
X86180238Y-94260714D01*
X86142142Y-94184523D01*
X86142142Y-93955952D01*
X86180238Y-93879761D01*
X86218333Y-93841666D01*
X86294523Y-93803571D01*
X86408809Y-93803571D01*
X86485000Y-93841666D01*
X86523095Y-93879761D01*
X86561190Y-93955952D01*
X86561190Y-94184523D01*
X86523095Y-94260714D01*
X86485000Y-94298809D01*
X86408809Y-94336904D01*
X86294523Y-94336904D01*
X87246904Y-94336904D02*
X87246904Y-93536904D01*
X87246904Y-94298809D02*
X87170714Y-94336904D01*
X87018333Y-94336904D01*
X86942142Y-94298809D01*
X86904047Y-94260714D01*
X86865952Y-94184523D01*
X86865952Y-93955952D01*
X86904047Y-93879761D01*
X86942142Y-93841666D01*
X87018333Y-93803571D01*
X87170714Y-93803571D01*
X87246904Y-93841666D01*
X87932619Y-94298809D02*
X87856428Y-94336904D01*
X87704047Y-94336904D01*
X87627857Y-94298809D01*
X87589761Y-94222619D01*
X87589761Y-93917857D01*
X87627857Y-93841666D01*
X87704047Y-93803571D01*
X87856428Y-93803571D01*
X87932619Y-93841666D01*
X87970714Y-93917857D01*
X87970714Y-93994047D01*
X87589761Y-94070238D01*
X88923095Y-94336904D02*
X88923095Y-93536904D01*
X88923095Y-93917857D02*
X89380238Y-93917857D01*
X89380238Y-94336904D02*
X89380238Y-93536904D01*
X90065952Y-94298809D02*
X89989761Y-94336904D01*
X89837380Y-94336904D01*
X89761190Y-94298809D01*
X89723095Y-94222619D01*
X89723095Y-93917857D01*
X89761190Y-93841666D01*
X89837380Y-93803571D01*
X89989761Y-93803571D01*
X90065952Y-93841666D01*
X90104047Y-93917857D01*
X90104047Y-93994047D01*
X89723095Y-94070238D01*
X90789761Y-94336904D02*
X90789761Y-93917857D01*
X90751666Y-93841666D01*
X90675476Y-93803571D01*
X90523095Y-93803571D01*
X90446904Y-93841666D01*
X90789761Y-94298809D02*
X90713571Y-94336904D01*
X90523095Y-94336904D01*
X90446904Y-94298809D01*
X90408809Y-94222619D01*
X90408809Y-94146428D01*
X90446904Y-94070238D01*
X90523095Y-94032142D01*
X90713571Y-94032142D01*
X90789761Y-93994047D01*
X91056428Y-93803571D02*
X91361190Y-93803571D01*
X91170714Y-93536904D02*
X91170714Y-94222619D01*
X91208809Y-94298809D01*
X91285000Y-94336904D01*
X91361190Y-94336904D01*
X91589761Y-94298809D02*
X91665952Y-94336904D01*
X91818333Y-94336904D01*
X91894523Y-94298809D01*
X91932619Y-94222619D01*
X91932619Y-94184523D01*
X91894523Y-94108333D01*
X91818333Y-94070238D01*
X91704047Y-94070238D01*
X91627857Y-94032142D01*
X91589761Y-93955952D01*
X91589761Y-93917857D01*
X91627857Y-93841666D01*
X91704047Y-93803571D01*
X91818333Y-93803571D01*
X91894523Y-93841666D01*
X92275476Y-94336904D02*
X92275476Y-93803571D01*
X92275476Y-93536904D02*
X92237380Y-93575000D01*
X92275476Y-93613095D01*
X92313571Y-93575000D01*
X92275476Y-93536904D01*
X92275476Y-93613095D01*
X92656428Y-93803571D02*
X92656428Y-94336904D01*
X92656428Y-93879761D02*
X92694523Y-93841666D01*
X92770714Y-93803571D01*
X92885000Y-93803571D01*
X92961190Y-93841666D01*
X92999285Y-93917857D01*
X92999285Y-94336904D01*
X93380238Y-94336904D02*
X93380238Y-93536904D01*
X93456428Y-94032142D02*
X93685000Y-94336904D01*
X93685000Y-93803571D02*
X93380238Y-94108333D01*
X85494523Y-80836904D02*
X85494523Y-80036904D01*
X85494523Y-80417857D02*
X85951666Y-80417857D01*
X85951666Y-80836904D02*
X85951666Y-80036904D01*
X86294523Y-80798809D02*
X86408809Y-80836904D01*
X86599285Y-80836904D01*
X86675476Y-80798809D01*
X86713571Y-80760714D01*
X86751666Y-80684523D01*
X86751666Y-80608333D01*
X86713571Y-80532142D01*
X86675476Y-80494047D01*
X86599285Y-80455952D01*
X86446904Y-80417857D01*
X86370714Y-80379761D01*
X86332619Y-80341666D01*
X86294523Y-80265476D01*
X86294523Y-80189285D01*
X86332619Y-80113095D01*
X86370714Y-80075000D01*
X86446904Y-80036904D01*
X86637380Y-80036904D01*
X86751666Y-80075000D01*
X87018333Y-80036904D02*
X87513571Y-80036904D01*
X87246904Y-80341666D01*
X87361190Y-80341666D01*
X87437380Y-80379761D01*
X87475476Y-80417857D01*
X87513571Y-80494047D01*
X87513571Y-80684523D01*
X87475476Y-80760714D01*
X87437380Y-80798809D01*
X87361190Y-80836904D01*
X87132619Y-80836904D01*
X87056428Y-80798809D01*
X87018333Y-80760714D01*
%TO.C,U10*%
X31285714Y-146295357D02*
X31323809Y-146333452D01*
X31361904Y-146447738D01*
X31361904Y-146523928D01*
X31323809Y-146638214D01*
X31247619Y-146714404D01*
X31171428Y-146752500D01*
X31019047Y-146790595D01*
X30904761Y-146790595D01*
X30752380Y-146752500D01*
X30676190Y-146714404D01*
X30600000Y-146638214D01*
X30561904Y-146523928D01*
X30561904Y-146447738D01*
X30600000Y-146333452D01*
X30638095Y-146295357D01*
X31361904Y-145952500D02*
X30561904Y-145952500D01*
X30561904Y-145762023D01*
X30600000Y-145647738D01*
X30676190Y-145571547D01*
X30752380Y-145533452D01*
X30904761Y-145495357D01*
X31019047Y-145495357D01*
X31171428Y-145533452D01*
X31247619Y-145571547D01*
X31323809Y-145647738D01*
X31361904Y-145762023D01*
X31361904Y-145952500D01*
X31323809Y-145190595D02*
X31361904Y-145076309D01*
X31361904Y-144885833D01*
X31323809Y-144809642D01*
X31285714Y-144771547D01*
X31209523Y-144733452D01*
X31133333Y-144733452D01*
X31057142Y-144771547D01*
X31019047Y-144809642D01*
X30980952Y-144885833D01*
X30942857Y-145038214D01*
X30904761Y-145114404D01*
X30866666Y-145152500D01*
X30790476Y-145190595D01*
X30714285Y-145190595D01*
X30638095Y-145152500D01*
X30600000Y-145114404D01*
X30561904Y-145038214D01*
X30561904Y-144847738D01*
X30600000Y-144733452D01*
X30561904Y-144238214D02*
X30561904Y-144085833D01*
X30600000Y-144009642D01*
X30676190Y-143933452D01*
X30828571Y-143895357D01*
X31095238Y-143895357D01*
X31247619Y-143933452D01*
X31323809Y-144009642D01*
X31361904Y-144085833D01*
X31361904Y-144238214D01*
X31323809Y-144314404D01*
X31247619Y-144390595D01*
X31095238Y-144428690D01*
X30828571Y-144428690D01*
X30676190Y-144390595D01*
X30600000Y-144314404D01*
X30561904Y-144238214D01*
X30561904Y-143666785D02*
X30561904Y-143209642D01*
X31361904Y-143438214D02*
X30561904Y-143438214D01*
X30638095Y-142981071D02*
X30600000Y-142942976D01*
X30561904Y-142866785D01*
X30561904Y-142676309D01*
X30600000Y-142600119D01*
X30638095Y-142562023D01*
X30714285Y-142523928D01*
X30790476Y-142523928D01*
X30904761Y-142562023D01*
X31361904Y-143019166D01*
X31361904Y-142523928D01*
X30561904Y-142257261D02*
X30561904Y-141762023D01*
X30866666Y-142028690D01*
X30866666Y-141914404D01*
X30904761Y-141838214D01*
X30942857Y-141800119D01*
X31019047Y-141762023D01*
X31209523Y-141762023D01*
X31285714Y-141800119D01*
X31323809Y-141838214D01*
X31361904Y-141914404D01*
X31361904Y-142142976D01*
X31323809Y-142219166D01*
X31285714Y-142257261D01*
X31057142Y-141419166D02*
X31057142Y-140809642D01*
X30561904Y-140542976D02*
X30561904Y-140085833D01*
X31361904Y-140314404D02*
X30561904Y-140314404D01*
X30638095Y-139857261D02*
X30600000Y-139819166D01*
X30561904Y-139742976D01*
X30561904Y-139552500D01*
X30600000Y-139476309D01*
X30638095Y-139438214D01*
X30714285Y-139400119D01*
X30790476Y-139400119D01*
X30904761Y-139438214D01*
X31361904Y-139895357D01*
X31361904Y-139400119D01*
X30828571Y-138714404D02*
X31361904Y-138714404D01*
X30523809Y-138904880D02*
X31095238Y-139095357D01*
X31095238Y-138600119D01*
X31285714Y-137838214D02*
X31323809Y-137876309D01*
X31361904Y-137990595D01*
X31361904Y-138066785D01*
X31323809Y-138181071D01*
X31247619Y-138257261D01*
X31171428Y-138295357D01*
X31019047Y-138333452D01*
X30904761Y-138333452D01*
X30752380Y-138295357D01*
X30676190Y-138257261D01*
X30600000Y-138181071D01*
X30561904Y-138066785D01*
X30561904Y-137990595D01*
X30600000Y-137876309D01*
X30638095Y-137838214D01*
X31133333Y-137533452D02*
X31133333Y-137152500D01*
X31361904Y-137609642D02*
X30561904Y-137342976D01*
X31361904Y-137076309D01*
X31361904Y-136809642D02*
X30561904Y-136809642D01*
X31361904Y-136352500D01*
X30561904Y-136352500D01*
X33071904Y-142317976D02*
X33719523Y-142317976D01*
X33795714Y-142279880D01*
X33833809Y-142241785D01*
X33871904Y-142165595D01*
X33871904Y-142013214D01*
X33833809Y-141937023D01*
X33795714Y-141898928D01*
X33719523Y-141860833D01*
X33071904Y-141860833D01*
X33871904Y-141060833D02*
X33871904Y-141517976D01*
X33871904Y-141289404D02*
X33071904Y-141289404D01*
X33186190Y-141365595D01*
X33262380Y-141441785D01*
X33300476Y-141517976D01*
X33071904Y-140565595D02*
X33071904Y-140489404D01*
X33110000Y-140413214D01*
X33148095Y-140375119D01*
X33224285Y-140337023D01*
X33376666Y-140298928D01*
X33567142Y-140298928D01*
X33719523Y-140337023D01*
X33795714Y-140375119D01*
X33833809Y-140413214D01*
X33871904Y-140489404D01*
X33871904Y-140565595D01*
X33833809Y-140641785D01*
X33795714Y-140679880D01*
X33719523Y-140717976D01*
X33567142Y-140756071D01*
X33376666Y-140756071D01*
X33224285Y-140717976D01*
X33148095Y-140679880D01*
X33110000Y-140641785D01*
X33071904Y-140565595D01*
%TO.C,D6*%
X84109047Y-73533809D02*
X84223333Y-73571904D01*
X84413809Y-73571904D01*
X84490000Y-73533809D01*
X84528095Y-73495714D01*
X84566190Y-73419523D01*
X84566190Y-73343333D01*
X84528095Y-73267142D01*
X84490000Y-73229047D01*
X84413809Y-73190952D01*
X84261428Y-73152857D01*
X84185238Y-73114761D01*
X84147142Y-73076666D01*
X84109047Y-73000476D01*
X84109047Y-72924285D01*
X84147142Y-72848095D01*
X84185238Y-72810000D01*
X84261428Y-72771904D01*
X84451904Y-72771904D01*
X84566190Y-72810000D01*
X85251904Y-73533809D02*
X85175714Y-73571904D01*
X85023333Y-73571904D01*
X84947142Y-73533809D01*
X84909047Y-73495714D01*
X84870952Y-73419523D01*
X84870952Y-73190952D01*
X84909047Y-73114761D01*
X84947142Y-73076666D01*
X85023333Y-73038571D01*
X85175714Y-73038571D01*
X85251904Y-73076666D01*
X85594761Y-73571904D02*
X85594761Y-72771904D01*
X85937619Y-73571904D02*
X85937619Y-73152857D01*
X85899523Y-73076666D01*
X85823333Y-73038571D01*
X85709047Y-73038571D01*
X85632857Y-73076666D01*
X85594761Y-73114761D01*
X86432857Y-73571904D02*
X86356666Y-73533809D01*
X86318571Y-73495714D01*
X86280476Y-73419523D01*
X86280476Y-73190952D01*
X86318571Y-73114761D01*
X86356666Y-73076666D01*
X86432857Y-73038571D01*
X86547142Y-73038571D01*
X86623333Y-73076666D01*
X86661428Y-73114761D01*
X86699523Y-73190952D01*
X86699523Y-73419523D01*
X86661428Y-73495714D01*
X86623333Y-73533809D01*
X86547142Y-73571904D01*
X86432857Y-73571904D01*
X86928095Y-73038571D02*
X87232857Y-73038571D01*
X87042380Y-72771904D02*
X87042380Y-73457619D01*
X87080476Y-73533809D01*
X87156666Y-73571904D01*
X87232857Y-73571904D01*
X87385238Y-73038571D02*
X87690000Y-73038571D01*
X87499523Y-72771904D02*
X87499523Y-73457619D01*
X87537619Y-73533809D01*
X87613809Y-73571904D01*
X87690000Y-73571904D01*
X87956666Y-73571904D02*
X87956666Y-72771904D01*
X88032857Y-73267142D02*
X88261428Y-73571904D01*
X88261428Y-73038571D02*
X87956666Y-73343333D01*
X88528095Y-73038571D02*
X88718571Y-73571904D01*
X88909047Y-73038571D02*
X88718571Y-73571904D01*
X88642380Y-73762380D01*
X88604285Y-73800476D01*
X88528095Y-73838571D01*
X85899523Y-80341904D02*
X85899523Y-79541904D01*
X86090000Y-79541904D01*
X86204285Y-79580000D01*
X86280476Y-79656190D01*
X86318571Y-79732380D01*
X86356666Y-79884761D01*
X86356666Y-79999047D01*
X86318571Y-80151428D01*
X86280476Y-80227619D01*
X86204285Y-80303809D01*
X86090000Y-80341904D01*
X85899523Y-80341904D01*
X87042380Y-79541904D02*
X86890000Y-79541904D01*
X86813809Y-79580000D01*
X86775714Y-79618095D01*
X86699523Y-79732380D01*
X86661428Y-79884761D01*
X86661428Y-80189523D01*
X86699523Y-80265714D01*
X86737619Y-80303809D01*
X86813809Y-80341904D01*
X86966190Y-80341904D01*
X87042380Y-80303809D01*
X87080476Y-80265714D01*
X87118571Y-80189523D01*
X87118571Y-79999047D01*
X87080476Y-79922857D01*
X87042380Y-79884761D01*
X86966190Y-79846666D01*
X86813809Y-79846666D01*
X86737619Y-79884761D01*
X86699523Y-79922857D01*
X86661428Y-79999047D01*
%TO.C,J5*%
X34918571Y-152753214D02*
X34880476Y-152791309D01*
X34766190Y-152829404D01*
X34690000Y-152829404D01*
X34575714Y-152791309D01*
X34499523Y-152715119D01*
X34461428Y-152638928D01*
X34423333Y-152486547D01*
X34423333Y-152372261D01*
X34461428Y-152219880D01*
X34499523Y-152143690D01*
X34575714Y-152067500D01*
X34690000Y-152029404D01*
X34766190Y-152029404D01*
X34880476Y-152067500D01*
X34918571Y-152105595D01*
X35223333Y-152600833D02*
X35604285Y-152600833D01*
X35147142Y-152829404D02*
X35413809Y-152029404D01*
X35680476Y-152829404D01*
X35947142Y-152829404D02*
X35947142Y-152029404D01*
X36404285Y-152829404D01*
X36404285Y-152029404D01*
X36594761Y-152905595D02*
X37204285Y-152905595D01*
X37394761Y-152829404D02*
X37394761Y-152029404D01*
X37775714Y-152296071D02*
X37775714Y-152829404D01*
X37775714Y-152372261D02*
X37813809Y-152334166D01*
X37890000Y-152296071D01*
X38004285Y-152296071D01*
X38080476Y-152334166D01*
X38118571Y-152410357D01*
X38118571Y-152829404D01*
X36023333Y-155329404D02*
X36023333Y-155900833D01*
X35985238Y-156015119D01*
X35909047Y-156091309D01*
X35794761Y-156129404D01*
X35718571Y-156129404D01*
X36785238Y-155329404D02*
X36404285Y-155329404D01*
X36366190Y-155710357D01*
X36404285Y-155672261D01*
X36480476Y-155634166D01*
X36670952Y-155634166D01*
X36747142Y-155672261D01*
X36785238Y-155710357D01*
X36823333Y-155786547D01*
X36823333Y-155977023D01*
X36785238Y-156053214D01*
X36747142Y-156091309D01*
X36670952Y-156129404D01*
X36480476Y-156129404D01*
X36404285Y-156091309D01*
X36366190Y-156053214D01*
%TO.C,R2*%
X55591904Y-70930357D02*
X55591904Y-71387500D01*
X55591904Y-71158928D02*
X54791904Y-71158928D01*
X54906190Y-71235119D01*
X54982380Y-71311309D01*
X55020476Y-71387500D01*
X55515714Y-70587500D02*
X55553809Y-70549404D01*
X55591904Y-70587500D01*
X55553809Y-70625595D01*
X55515714Y-70587500D01*
X55591904Y-70587500D01*
X54791904Y-69825595D02*
X54791904Y-70206547D01*
X55172857Y-70244642D01*
X55134761Y-70206547D01*
X55096666Y-70130357D01*
X55096666Y-69939880D01*
X55134761Y-69863690D01*
X55172857Y-69825595D01*
X55249047Y-69787500D01*
X55439523Y-69787500D01*
X55515714Y-69825595D01*
X55553809Y-69863690D01*
X55591904Y-69939880D01*
X55591904Y-70130357D01*
X55553809Y-70206547D01*
X55515714Y-70244642D01*
X53941904Y-70720833D02*
X53560952Y-70987500D01*
X53941904Y-71177976D02*
X53141904Y-71177976D01*
X53141904Y-70873214D01*
X53180000Y-70797023D01*
X53218095Y-70758928D01*
X53294285Y-70720833D01*
X53408571Y-70720833D01*
X53484761Y-70758928D01*
X53522857Y-70797023D01*
X53560952Y-70873214D01*
X53560952Y-71177976D01*
X53218095Y-70416071D02*
X53180000Y-70377976D01*
X53141904Y-70301785D01*
X53141904Y-70111309D01*
X53180000Y-70035119D01*
X53218095Y-69997023D01*
X53294285Y-69958928D01*
X53370476Y-69958928D01*
X53484761Y-69997023D01*
X53941904Y-70454166D01*
X53941904Y-69958928D01*
%TO.C,D5*%
X84109047Y-88078809D02*
X84223333Y-88116904D01*
X84413809Y-88116904D01*
X84490000Y-88078809D01*
X84528095Y-88040714D01*
X84566190Y-87964523D01*
X84566190Y-87888333D01*
X84528095Y-87812142D01*
X84490000Y-87774047D01*
X84413809Y-87735952D01*
X84261428Y-87697857D01*
X84185238Y-87659761D01*
X84147142Y-87621666D01*
X84109047Y-87545476D01*
X84109047Y-87469285D01*
X84147142Y-87393095D01*
X84185238Y-87355000D01*
X84261428Y-87316904D01*
X84451904Y-87316904D01*
X84566190Y-87355000D01*
X85251904Y-88078809D02*
X85175714Y-88116904D01*
X85023333Y-88116904D01*
X84947142Y-88078809D01*
X84909047Y-88040714D01*
X84870952Y-87964523D01*
X84870952Y-87735952D01*
X84909047Y-87659761D01*
X84947142Y-87621666D01*
X85023333Y-87583571D01*
X85175714Y-87583571D01*
X85251904Y-87621666D01*
X85594761Y-88116904D02*
X85594761Y-87316904D01*
X85937619Y-88116904D02*
X85937619Y-87697857D01*
X85899523Y-87621666D01*
X85823333Y-87583571D01*
X85709047Y-87583571D01*
X85632857Y-87621666D01*
X85594761Y-87659761D01*
X86432857Y-88116904D02*
X86356666Y-88078809D01*
X86318571Y-88040714D01*
X86280476Y-87964523D01*
X86280476Y-87735952D01*
X86318571Y-87659761D01*
X86356666Y-87621666D01*
X86432857Y-87583571D01*
X86547142Y-87583571D01*
X86623333Y-87621666D01*
X86661428Y-87659761D01*
X86699523Y-87735952D01*
X86699523Y-87964523D01*
X86661428Y-88040714D01*
X86623333Y-88078809D01*
X86547142Y-88116904D01*
X86432857Y-88116904D01*
X86928095Y-87583571D02*
X87232857Y-87583571D01*
X87042380Y-87316904D02*
X87042380Y-88002619D01*
X87080476Y-88078809D01*
X87156666Y-88116904D01*
X87232857Y-88116904D01*
X87385238Y-87583571D02*
X87690000Y-87583571D01*
X87499523Y-87316904D02*
X87499523Y-88002619D01*
X87537619Y-88078809D01*
X87613809Y-88116904D01*
X87690000Y-88116904D01*
X87956666Y-88116904D02*
X87956666Y-87316904D01*
X88032857Y-87812142D02*
X88261428Y-88116904D01*
X88261428Y-87583571D02*
X87956666Y-87888333D01*
X88528095Y-87583571D02*
X88718571Y-88116904D01*
X88909047Y-87583571D02*
X88718571Y-88116904D01*
X88642380Y-88307380D01*
X88604285Y-88345476D01*
X88528095Y-88383571D01*
X85899523Y-81346904D02*
X85899523Y-80546904D01*
X86090000Y-80546904D01*
X86204285Y-80585000D01*
X86280476Y-80661190D01*
X86318571Y-80737380D01*
X86356666Y-80889761D01*
X86356666Y-81004047D01*
X86318571Y-81156428D01*
X86280476Y-81232619D01*
X86204285Y-81308809D01*
X86090000Y-81346904D01*
X85899523Y-81346904D01*
X87080476Y-80546904D02*
X86699523Y-80546904D01*
X86661428Y-80927857D01*
X86699523Y-80889761D01*
X86775714Y-80851666D01*
X86966190Y-80851666D01*
X87042380Y-80889761D01*
X87080476Y-80927857D01*
X87118571Y-81004047D01*
X87118571Y-81194523D01*
X87080476Y-81270714D01*
X87042380Y-81308809D01*
X86966190Y-81346904D01*
X86775714Y-81346904D01*
X86699523Y-81308809D01*
X86661428Y-81270714D01*
%TO.C,F2*%
X77430714Y-125697857D02*
X77164047Y-125697857D01*
X77164047Y-126116904D02*
X77164047Y-125316904D01*
X77545000Y-125316904D01*
X78192619Y-125583571D02*
X78192619Y-126116904D01*
X77849761Y-125583571D02*
X77849761Y-126002619D01*
X77887857Y-126078809D01*
X77964047Y-126116904D01*
X78078333Y-126116904D01*
X78154523Y-126078809D01*
X78192619Y-126040714D01*
X78535476Y-126078809D02*
X78611666Y-126116904D01*
X78764047Y-126116904D01*
X78840238Y-126078809D01*
X78878333Y-126002619D01*
X78878333Y-125964523D01*
X78840238Y-125888333D01*
X78764047Y-125850238D01*
X78649761Y-125850238D01*
X78573571Y-125812142D01*
X78535476Y-125735952D01*
X78535476Y-125697857D01*
X78573571Y-125621666D01*
X78649761Y-125583571D01*
X78764047Y-125583571D01*
X78840238Y-125621666D01*
X79525952Y-126078809D02*
X79449761Y-126116904D01*
X79297380Y-126116904D01*
X79221190Y-126078809D01*
X79183095Y-126002619D01*
X79183095Y-125697857D01*
X79221190Y-125621666D01*
X79297380Y-125583571D01*
X79449761Y-125583571D01*
X79525952Y-125621666D01*
X79564047Y-125697857D01*
X79564047Y-125774047D01*
X79183095Y-125850238D01*
%TO.C,HS2*%
X108888809Y-49513809D02*
X108926904Y-49399523D01*
X108926904Y-49209047D01*
X108888809Y-49132857D01*
X108850714Y-49094761D01*
X108774523Y-49056666D01*
X108698333Y-49056666D01*
X108622142Y-49094761D01*
X108584047Y-49132857D01*
X108545952Y-49209047D01*
X108507857Y-49361428D01*
X108469761Y-49437619D01*
X108431666Y-49475714D01*
X108355476Y-49513809D01*
X108279285Y-49513809D01*
X108203095Y-49475714D01*
X108165000Y-49437619D01*
X108126904Y-49361428D01*
X108126904Y-49170952D01*
X108165000Y-49056666D01*
X108393571Y-48713809D02*
X108926904Y-48713809D01*
X108469761Y-48713809D02*
X108431666Y-48675714D01*
X108393571Y-48599523D01*
X108393571Y-48485238D01*
X108431666Y-48409047D01*
X108507857Y-48370952D01*
X108926904Y-48370952D01*
X108393571Y-47647142D02*
X108926904Y-47647142D01*
X108393571Y-47990000D02*
X108812619Y-47990000D01*
X108888809Y-47951904D01*
X108926904Y-47875714D01*
X108926904Y-47761428D01*
X108888809Y-47685238D01*
X108850714Y-47647142D01*
X108926904Y-47266190D02*
X108126904Y-47266190D01*
X108431666Y-47266190D02*
X108393571Y-47190000D01*
X108393571Y-47037619D01*
X108431666Y-46961428D01*
X108469761Y-46923333D01*
X108545952Y-46885238D01*
X108774523Y-46885238D01*
X108850714Y-46923333D01*
X108888809Y-46961428D01*
X108926904Y-47037619D01*
X108926904Y-47190000D01*
X108888809Y-47266190D01*
X108926904Y-46542380D02*
X108126904Y-46542380D01*
X108431666Y-46542380D02*
X108393571Y-46466190D01*
X108393571Y-46313809D01*
X108431666Y-46237619D01*
X108469761Y-46199523D01*
X108545952Y-46161428D01*
X108774523Y-46161428D01*
X108850714Y-46199523D01*
X108888809Y-46237619D01*
X108926904Y-46313809D01*
X108926904Y-46466190D01*
X108888809Y-46542380D01*
X108888809Y-45513809D02*
X108926904Y-45590000D01*
X108926904Y-45742380D01*
X108888809Y-45818571D01*
X108812619Y-45856666D01*
X108507857Y-45856666D01*
X108431666Y-45818571D01*
X108393571Y-45742380D01*
X108393571Y-45590000D01*
X108431666Y-45513809D01*
X108507857Y-45475714D01*
X108584047Y-45475714D01*
X108660238Y-45856666D01*
X108926904Y-45132857D02*
X108393571Y-45132857D01*
X108545952Y-45132857D02*
X108469761Y-45094761D01*
X108431666Y-45056666D01*
X108393571Y-44980476D01*
X108393571Y-44904285D01*
X108926904Y-44028095D02*
X108126904Y-44028095D01*
X108507857Y-44028095D02*
X108507857Y-43570952D01*
X108926904Y-43570952D02*
X108126904Y-43570952D01*
X108888809Y-42885238D02*
X108926904Y-42961428D01*
X108926904Y-43113809D01*
X108888809Y-43190000D01*
X108812619Y-43228095D01*
X108507857Y-43228095D01*
X108431666Y-43190000D01*
X108393571Y-43113809D01*
X108393571Y-42961428D01*
X108431666Y-42885238D01*
X108507857Y-42847142D01*
X108584047Y-42847142D01*
X108660238Y-43228095D01*
X108926904Y-42161428D02*
X108507857Y-42161428D01*
X108431666Y-42199523D01*
X108393571Y-42275714D01*
X108393571Y-42428095D01*
X108431666Y-42504285D01*
X108888809Y-42161428D02*
X108926904Y-42237619D01*
X108926904Y-42428095D01*
X108888809Y-42504285D01*
X108812619Y-42542380D01*
X108736428Y-42542380D01*
X108660238Y-42504285D01*
X108622142Y-42428095D01*
X108622142Y-42237619D01*
X108584047Y-42161428D01*
X108393571Y-41894761D02*
X108393571Y-41590000D01*
X108126904Y-41780476D02*
X108812619Y-41780476D01*
X108888809Y-41742380D01*
X108926904Y-41666190D01*
X108926904Y-41590000D01*
X108888809Y-41361428D02*
X108926904Y-41285238D01*
X108926904Y-41132857D01*
X108888809Y-41056666D01*
X108812619Y-41018571D01*
X108774523Y-41018571D01*
X108698333Y-41056666D01*
X108660238Y-41132857D01*
X108660238Y-41247142D01*
X108622142Y-41323333D01*
X108545952Y-41361428D01*
X108507857Y-41361428D01*
X108431666Y-41323333D01*
X108393571Y-41247142D01*
X108393571Y-41132857D01*
X108431666Y-41056666D01*
X108926904Y-40675714D02*
X108393571Y-40675714D01*
X108126904Y-40675714D02*
X108165000Y-40713809D01*
X108203095Y-40675714D01*
X108165000Y-40637619D01*
X108126904Y-40675714D01*
X108203095Y-40675714D01*
X108393571Y-40294761D02*
X108926904Y-40294761D01*
X108469761Y-40294761D02*
X108431666Y-40256666D01*
X108393571Y-40180476D01*
X108393571Y-40066190D01*
X108431666Y-39990000D01*
X108507857Y-39951904D01*
X108926904Y-39951904D01*
X108926904Y-39570952D02*
X108126904Y-39570952D01*
X108622142Y-39494761D02*
X108926904Y-39266190D01*
X108393571Y-39266190D02*
X108698333Y-39570952D01*
X95426904Y-45380476D02*
X94626904Y-45380476D01*
X95007857Y-45380476D02*
X95007857Y-44923333D01*
X95426904Y-44923333D02*
X94626904Y-44923333D01*
X95388809Y-44580476D02*
X95426904Y-44466190D01*
X95426904Y-44275714D01*
X95388809Y-44199523D01*
X95350714Y-44161428D01*
X95274523Y-44123333D01*
X95198333Y-44123333D01*
X95122142Y-44161428D01*
X95084047Y-44199523D01*
X95045952Y-44275714D01*
X95007857Y-44428095D01*
X94969761Y-44504285D01*
X94931666Y-44542380D01*
X94855476Y-44580476D01*
X94779285Y-44580476D01*
X94703095Y-44542380D01*
X94665000Y-44504285D01*
X94626904Y-44428095D01*
X94626904Y-44237619D01*
X94665000Y-44123333D01*
X94703095Y-43818571D02*
X94665000Y-43780476D01*
X94626904Y-43704285D01*
X94626904Y-43513809D01*
X94665000Y-43437619D01*
X94703095Y-43399523D01*
X94779285Y-43361428D01*
X94855476Y-43361428D01*
X94969761Y-43399523D01*
X95426904Y-43856666D01*
X95426904Y-43361428D01*
%TO.C,J1*%
X50004404Y-152670714D02*
X49966309Y-152708809D01*
X49852023Y-152746904D01*
X49775833Y-152746904D01*
X49661547Y-152708809D01*
X49585357Y-152632619D01*
X49547261Y-152556428D01*
X49509166Y-152404047D01*
X49509166Y-152289761D01*
X49547261Y-152137380D01*
X49585357Y-152061190D01*
X49661547Y-151985000D01*
X49775833Y-151946904D01*
X49852023Y-151946904D01*
X49966309Y-151985000D01*
X50004404Y-152023095D01*
X50690119Y-152746904D02*
X50690119Y-152327857D01*
X50652023Y-152251666D01*
X50575833Y-152213571D01*
X50423452Y-152213571D01*
X50347261Y-152251666D01*
X50690119Y-152708809D02*
X50613928Y-152746904D01*
X50423452Y-152746904D01*
X50347261Y-152708809D01*
X50309166Y-152632619D01*
X50309166Y-152556428D01*
X50347261Y-152480238D01*
X50423452Y-152442142D01*
X50613928Y-152442142D01*
X50690119Y-152404047D01*
X51071071Y-152746904D02*
X51071071Y-152213571D01*
X51071071Y-152365952D02*
X51109166Y-152289761D01*
X51147261Y-152251666D01*
X51223452Y-152213571D01*
X51299642Y-152213571D01*
X52175833Y-152746904D02*
X52175833Y-151946904D01*
X52480595Y-151946904D01*
X52556785Y-151985000D01*
X52594880Y-152023095D01*
X52632976Y-152099285D01*
X52632976Y-152213571D01*
X52594880Y-152289761D01*
X52556785Y-152327857D01*
X52480595Y-152365952D01*
X52175833Y-152365952D01*
X53090119Y-152746904D02*
X53013928Y-152708809D01*
X52975833Y-152670714D01*
X52937738Y-152594523D01*
X52937738Y-152365952D01*
X52975833Y-152289761D01*
X53013928Y-152251666D01*
X53090119Y-152213571D01*
X53204404Y-152213571D01*
X53280595Y-152251666D01*
X53318690Y-152289761D01*
X53356785Y-152365952D01*
X53356785Y-152594523D01*
X53318690Y-152670714D01*
X53280595Y-152708809D01*
X53204404Y-152746904D01*
X53090119Y-152746904D01*
X53623452Y-152213571D02*
X53775833Y-152746904D01*
X53928214Y-152365952D01*
X54080595Y-152746904D01*
X54232976Y-152213571D01*
X54842500Y-152708809D02*
X54766309Y-152746904D01*
X54613928Y-152746904D01*
X54537738Y-152708809D01*
X54499642Y-152632619D01*
X54499642Y-152327857D01*
X54537738Y-152251666D01*
X54613928Y-152213571D01*
X54766309Y-152213571D01*
X54842500Y-152251666D01*
X54880595Y-152327857D01*
X54880595Y-152404047D01*
X54499642Y-152480238D01*
X55223452Y-152746904D02*
X55223452Y-152213571D01*
X55223452Y-152365952D02*
X55261547Y-152289761D01*
X55299642Y-152251666D01*
X55375833Y-152213571D01*
X55452023Y-152213571D01*
X52175833Y-155246904D02*
X52175833Y-155818333D01*
X52137738Y-155932619D01*
X52061547Y-156008809D01*
X51947261Y-156046904D01*
X51871071Y-156046904D01*
X52975833Y-156046904D02*
X52518690Y-156046904D01*
X52747261Y-156046904D02*
X52747261Y-155246904D01*
X52671071Y-155361190D01*
X52594880Y-155437380D01*
X52518690Y-155475476D01*
%TO.C,U2*%
X35995000Y-122266904D02*
X35995000Y-121466904D01*
X36261666Y-122038333D01*
X36528333Y-121466904D01*
X36528333Y-122266904D01*
X37366428Y-122190714D02*
X37328333Y-122228809D01*
X37214047Y-122266904D01*
X37137857Y-122266904D01*
X37023571Y-122228809D01*
X36947380Y-122152619D01*
X36909285Y-122076428D01*
X36871190Y-121924047D01*
X36871190Y-121809761D01*
X36909285Y-121657380D01*
X36947380Y-121581190D01*
X37023571Y-121505000D01*
X37137857Y-121466904D01*
X37214047Y-121466904D01*
X37328333Y-121505000D01*
X37366428Y-121543095D01*
X37709285Y-121466904D02*
X37709285Y-122114523D01*
X37747380Y-122190714D01*
X37785476Y-122228809D01*
X37861666Y-122266904D01*
X38014047Y-122266904D01*
X38090238Y-122228809D01*
X38128333Y-122190714D01*
X38166428Y-122114523D01*
X38166428Y-121466904D01*
X38356904Y-122343095D02*
X38966428Y-122343095D01*
X39156904Y-122266904D02*
X39156904Y-121466904D01*
X39614047Y-122266904D01*
X39614047Y-121466904D01*
X40337857Y-121733571D02*
X40337857Y-122266904D01*
X39994999Y-121733571D02*
X39994999Y-122152619D01*
X40033095Y-122228809D01*
X40109285Y-122266904D01*
X40223571Y-122266904D01*
X40299761Y-122228809D01*
X40337857Y-122190714D01*
X41061666Y-122228809D02*
X40985476Y-122266904D01*
X40833095Y-122266904D01*
X40756904Y-122228809D01*
X40718809Y-122190714D01*
X40680714Y-122114523D01*
X40680714Y-121885952D01*
X40718809Y-121809761D01*
X40756904Y-121771666D01*
X40833095Y-121733571D01*
X40985476Y-121733571D01*
X41061666Y-121771666D01*
X41518809Y-122266904D02*
X41442619Y-122228809D01*
X41404523Y-122152619D01*
X41404523Y-121466904D01*
X42128333Y-122228809D02*
X42052142Y-122266904D01*
X41899761Y-122266904D01*
X41823571Y-122228809D01*
X41785476Y-122152619D01*
X41785476Y-121847857D01*
X41823571Y-121771666D01*
X41899761Y-121733571D01*
X42052142Y-121733571D01*
X42128333Y-121771666D01*
X42166428Y-121847857D01*
X42166428Y-121924047D01*
X41785476Y-122000238D01*
X42623571Y-122266904D02*
X42547380Y-122228809D01*
X42509285Y-122190714D01*
X42471190Y-122114523D01*
X42471190Y-121885952D01*
X42509285Y-121809761D01*
X42547380Y-121771666D01*
X42623571Y-121733571D01*
X42737857Y-121733571D01*
X42814047Y-121771666D01*
X42852142Y-121809761D01*
X42890238Y-121885952D01*
X42890238Y-122114523D01*
X42852142Y-122190714D01*
X42814047Y-122228809D01*
X42737857Y-122266904D01*
X42623571Y-122266904D01*
X43042619Y-122343095D02*
X43652142Y-122343095D01*
X44223571Y-122266904D02*
X43842619Y-122266904D01*
X43842619Y-121466904D01*
X44833095Y-121733571D02*
X44833095Y-122266904D01*
X44642619Y-121428809D02*
X44452142Y-122000238D01*
X44947380Y-122000238D01*
X45175952Y-121466904D02*
X45671190Y-121466904D01*
X45404523Y-121771666D01*
X45518809Y-121771666D01*
X45594999Y-121809761D01*
X45633095Y-121847857D01*
X45671190Y-121924047D01*
X45671190Y-122114523D01*
X45633095Y-122190714D01*
X45594999Y-122228809D01*
X45518809Y-122266904D01*
X45290238Y-122266904D01*
X45214047Y-122228809D01*
X45175952Y-122190714D01*
X45975952Y-121543095D02*
X46014047Y-121505000D01*
X46090238Y-121466904D01*
X46280714Y-121466904D01*
X46356904Y-121505000D01*
X46394999Y-121543095D01*
X46433095Y-121619285D01*
X46433095Y-121695476D01*
X46394999Y-121809761D01*
X45937857Y-122266904D01*
X46433095Y-122266904D01*
X46775952Y-122266904D02*
X46775952Y-121466904D01*
X47233095Y-122266904D02*
X46890238Y-121809761D01*
X47233095Y-121466904D02*
X46775952Y-121924047D01*
X48033095Y-122190714D02*
X47994999Y-122228809D01*
X47880714Y-122266904D01*
X47804523Y-122266904D01*
X47690238Y-122228809D01*
X47614047Y-122152619D01*
X47575952Y-122076428D01*
X47537857Y-121924047D01*
X47537857Y-121809761D01*
X47575952Y-121657380D01*
X47614047Y-121581190D01*
X47690238Y-121505000D01*
X47804523Y-121466904D01*
X47880714Y-121466904D01*
X47994999Y-121505000D01*
X48033095Y-121543095D01*
%TO.C,R5*%
X102661904Y-44197380D02*
X102280952Y-44464047D01*
X102661904Y-44654523D02*
X101861904Y-44654523D01*
X101861904Y-44349761D01*
X101900000Y-44273571D01*
X101938095Y-44235476D01*
X102014285Y-44197380D01*
X102128571Y-44197380D01*
X102204761Y-44235476D01*
X102242857Y-44273571D01*
X102280952Y-44349761D01*
X102280952Y-44654523D01*
X95891904Y-44578333D02*
X95510952Y-44845000D01*
X95891904Y-45035476D02*
X95091904Y-45035476D01*
X95091904Y-44730714D01*
X95130000Y-44654523D01*
X95168095Y-44616428D01*
X95244285Y-44578333D01*
X95358571Y-44578333D01*
X95434761Y-44616428D01*
X95472857Y-44654523D01*
X95510952Y-44730714D01*
X95510952Y-45035476D01*
X95091904Y-43854523D02*
X95091904Y-44235476D01*
X95472857Y-44273571D01*
X95434761Y-44235476D01*
X95396666Y-44159285D01*
X95396666Y-43968809D01*
X95434761Y-43892619D01*
X95472857Y-43854523D01*
X95549047Y-43816428D01*
X95739523Y-43816428D01*
X95815714Y-43854523D01*
X95853809Y-43892619D01*
X95891904Y-43968809D01*
X95891904Y-44159285D01*
X95853809Y-44235476D01*
X95815714Y-44273571D01*
%TO.C,LED5*%
X21122857Y-94236904D02*
X21122857Y-93436904D01*
X21122857Y-93817857D02*
X21580000Y-93817857D01*
X21580000Y-94236904D02*
X21580000Y-93436904D01*
X22265714Y-94198809D02*
X22189523Y-94236904D01*
X22037142Y-94236904D01*
X21960952Y-94198809D01*
X21922857Y-94122619D01*
X21922857Y-93817857D01*
X21960952Y-93741666D01*
X22037142Y-93703571D01*
X22189523Y-93703571D01*
X22265714Y-93741666D01*
X22303809Y-93817857D01*
X22303809Y-93894047D01*
X21922857Y-93970238D01*
X22989523Y-94236904D02*
X22989523Y-93817857D01*
X22951428Y-93741666D01*
X22875238Y-93703571D01*
X22722857Y-93703571D01*
X22646666Y-93741666D01*
X22989523Y-94198809D02*
X22913333Y-94236904D01*
X22722857Y-94236904D01*
X22646666Y-94198809D01*
X22608571Y-94122619D01*
X22608571Y-94046428D01*
X22646666Y-93970238D01*
X22722857Y-93932142D01*
X22913333Y-93932142D01*
X22989523Y-93894047D01*
X23370476Y-94236904D02*
X23370476Y-93703571D01*
X23370476Y-93855952D02*
X23408571Y-93779761D01*
X23446666Y-93741666D01*
X23522857Y-93703571D01*
X23599047Y-93703571D01*
X23751428Y-93703571D02*
X24056190Y-93703571D01*
X23865714Y-93436904D02*
X23865714Y-94122619D01*
X23903809Y-94198809D01*
X23980000Y-94236904D01*
X24056190Y-94236904D01*
X24322857Y-94236904D02*
X24322857Y-93436904D01*
X24322857Y-93741666D02*
X24399047Y-93703571D01*
X24551428Y-93703571D01*
X24627619Y-93741666D01*
X24665714Y-93779761D01*
X24703809Y-93855952D01*
X24703809Y-94084523D01*
X24665714Y-94160714D01*
X24627619Y-94198809D01*
X24551428Y-94236904D01*
X24399047Y-94236904D01*
X24322857Y-94198809D01*
X25351428Y-94198809D02*
X25275238Y-94236904D01*
X25122857Y-94236904D01*
X25046666Y-94198809D01*
X25008571Y-94122619D01*
X25008571Y-93817857D01*
X25046666Y-93741666D01*
X25122857Y-93703571D01*
X25275238Y-93703571D01*
X25351428Y-93741666D01*
X25389523Y-93817857D01*
X25389523Y-93894047D01*
X25008571Y-93970238D01*
X26075238Y-94236904D02*
X26075238Y-93817857D01*
X26037142Y-93741666D01*
X25960952Y-93703571D01*
X25808571Y-93703571D01*
X25732380Y-93741666D01*
X26075238Y-94198809D02*
X25999047Y-94236904D01*
X25808571Y-94236904D01*
X25732380Y-94198809D01*
X25694285Y-94122619D01*
X25694285Y-94046428D01*
X25732380Y-93970238D01*
X25808571Y-93932142D01*
X25999047Y-93932142D01*
X26075238Y-93894047D01*
X26341904Y-93703571D02*
X26646666Y-93703571D01*
X26456190Y-93436904D02*
X26456190Y-94122619D01*
X26494285Y-94198809D01*
X26570476Y-94236904D01*
X26646666Y-94236904D01*
X27751428Y-94541666D02*
X27713333Y-94503571D01*
X27637142Y-94389285D01*
X27599047Y-94313095D01*
X27560952Y-94198809D01*
X27522857Y-94008333D01*
X27522857Y-93855952D01*
X27560952Y-93665476D01*
X27599047Y-93551190D01*
X27637142Y-93475000D01*
X27713333Y-93360714D01*
X27751428Y-93322619D01*
X28322857Y-93817857D02*
X28437142Y-93855952D01*
X28475238Y-93894047D01*
X28513333Y-93970238D01*
X28513333Y-94084523D01*
X28475238Y-94160714D01*
X28437142Y-94198809D01*
X28360952Y-94236904D01*
X28056190Y-94236904D01*
X28056190Y-93436904D01*
X28322857Y-93436904D01*
X28399047Y-93475000D01*
X28437142Y-93513095D01*
X28475238Y-93589285D01*
X28475238Y-93665476D01*
X28437142Y-93741666D01*
X28399047Y-93779761D01*
X28322857Y-93817857D01*
X28056190Y-93817857D01*
X28970476Y-94236904D02*
X28894285Y-94198809D01*
X28856190Y-94122619D01*
X28856190Y-93436904D01*
X29618095Y-93703571D02*
X29618095Y-94236904D01*
X29275238Y-93703571D02*
X29275238Y-94122619D01*
X29313333Y-94198809D01*
X29389523Y-94236904D01*
X29503809Y-94236904D01*
X29580000Y-94198809D01*
X29618095Y-94160714D01*
X30303809Y-94198809D02*
X30227619Y-94236904D01*
X30075238Y-94236904D01*
X29999047Y-94198809D01*
X29960952Y-94122619D01*
X29960952Y-93817857D01*
X29999047Y-93741666D01*
X30075238Y-93703571D01*
X30227619Y-93703571D01*
X30303809Y-93741666D01*
X30341904Y-93817857D01*
X30341904Y-93894047D01*
X29960952Y-93970238D01*
X30608571Y-94541666D02*
X30646666Y-94503571D01*
X30722857Y-94389285D01*
X30760952Y-94313095D01*
X30799047Y-94198809D01*
X30837142Y-94008333D01*
X30837142Y-93855952D01*
X30799047Y-93665476D01*
X30760952Y-93551190D01*
X30722857Y-93475000D01*
X30646666Y-93360714D01*
X30608571Y-93322619D01*
X25084761Y-95886904D02*
X24703809Y-95886904D01*
X24703809Y-95086904D01*
X25351428Y-95467857D02*
X25618095Y-95467857D01*
X25732380Y-95886904D02*
X25351428Y-95886904D01*
X25351428Y-95086904D01*
X25732380Y-95086904D01*
X26075238Y-95886904D02*
X26075238Y-95086904D01*
X26265714Y-95086904D01*
X26380000Y-95125000D01*
X26456190Y-95201190D01*
X26494285Y-95277380D01*
X26532380Y-95429761D01*
X26532380Y-95544047D01*
X26494285Y-95696428D01*
X26456190Y-95772619D01*
X26380000Y-95848809D01*
X26265714Y-95886904D01*
X26075238Y-95886904D01*
X27256190Y-95086904D02*
X26875238Y-95086904D01*
X26837142Y-95467857D01*
X26875238Y-95429761D01*
X26951428Y-95391666D01*
X27141904Y-95391666D01*
X27218095Y-95429761D01*
X27256190Y-95467857D01*
X27294285Y-95544047D01*
X27294285Y-95734523D01*
X27256190Y-95810714D01*
X27218095Y-95848809D01*
X27141904Y-95886904D01*
X26951428Y-95886904D01*
X26875238Y-95848809D01*
X26837142Y-95810714D01*
%TO.C,LED10*%
X22009642Y-99592857D02*
X22276309Y-99592857D01*
X22390595Y-100011904D02*
X22009642Y-100011904D01*
X22009642Y-99211904D01*
X22390595Y-99211904D01*
X22733452Y-100011904D02*
X22733452Y-99478571D01*
X22733452Y-99630952D02*
X22771547Y-99554761D01*
X22809642Y-99516666D01*
X22885833Y-99478571D01*
X22962023Y-99478571D01*
X23228690Y-100011904D02*
X23228690Y-99478571D01*
X23228690Y-99630952D02*
X23266785Y-99554761D01*
X23304880Y-99516666D01*
X23381071Y-99478571D01*
X23457261Y-99478571D01*
X23838214Y-100011904D02*
X23762023Y-99973809D01*
X23723928Y-99935714D01*
X23685833Y-99859523D01*
X23685833Y-99630952D01*
X23723928Y-99554761D01*
X23762023Y-99516666D01*
X23838214Y-99478571D01*
X23952500Y-99478571D01*
X24028690Y-99516666D01*
X24066785Y-99554761D01*
X24104880Y-99630952D01*
X24104880Y-99859523D01*
X24066785Y-99935714D01*
X24028690Y-99973809D01*
X23952500Y-100011904D01*
X23838214Y-100011904D01*
X24447738Y-100011904D02*
X24447738Y-99478571D01*
X24447738Y-99630952D02*
X24485833Y-99554761D01*
X24523928Y-99516666D01*
X24600119Y-99478571D01*
X24676309Y-99478571D01*
X25781071Y-100316666D02*
X25742976Y-100278571D01*
X25666785Y-100164285D01*
X25628690Y-100088095D01*
X25590595Y-99973809D01*
X25552500Y-99783333D01*
X25552500Y-99630952D01*
X25590595Y-99440476D01*
X25628690Y-99326190D01*
X25666785Y-99250000D01*
X25742976Y-99135714D01*
X25781071Y-99097619D01*
X26047738Y-99783333D02*
X26428690Y-99783333D01*
X25971547Y-100011904D02*
X26238214Y-99211904D01*
X26504880Y-100011904D01*
X26771547Y-100011904D02*
X26771547Y-99478571D01*
X26771547Y-99554761D02*
X26809642Y-99516666D01*
X26885833Y-99478571D01*
X27000119Y-99478571D01*
X27076309Y-99516666D01*
X27114404Y-99592857D01*
X27114404Y-100011904D01*
X27114404Y-99592857D02*
X27152500Y-99516666D01*
X27228690Y-99478571D01*
X27342976Y-99478571D01*
X27419166Y-99516666D01*
X27457261Y-99592857D01*
X27457261Y-100011904D01*
X27838214Y-100011904D02*
X27838214Y-99211904D01*
X27838214Y-99516666D02*
X27914404Y-99478571D01*
X28066785Y-99478571D01*
X28142976Y-99516666D01*
X28181071Y-99554761D01*
X28219166Y-99630952D01*
X28219166Y-99859523D01*
X28181071Y-99935714D01*
X28142976Y-99973809D01*
X28066785Y-100011904D01*
X27914404Y-100011904D01*
X27838214Y-99973809D01*
X28866785Y-99973809D02*
X28790595Y-100011904D01*
X28638214Y-100011904D01*
X28562023Y-99973809D01*
X28523928Y-99897619D01*
X28523928Y-99592857D01*
X28562023Y-99516666D01*
X28638214Y-99478571D01*
X28790595Y-99478571D01*
X28866785Y-99516666D01*
X28904880Y-99592857D01*
X28904880Y-99669047D01*
X28523928Y-99745238D01*
X29247738Y-100011904D02*
X29247738Y-99478571D01*
X29247738Y-99630952D02*
X29285833Y-99554761D01*
X29323928Y-99516666D01*
X29400119Y-99478571D01*
X29476309Y-99478571D01*
X29666785Y-100316666D02*
X29704880Y-100278571D01*
X29781071Y-100164285D01*
X29819166Y-100088095D01*
X29857261Y-99973809D01*
X29895357Y-99783333D01*
X29895357Y-99630952D01*
X29857261Y-99440476D01*
X29819166Y-99326190D01*
X29781071Y-99250000D01*
X29704880Y-99135714D01*
X29666785Y-99097619D01*
X24676309Y-101661904D02*
X24295357Y-101661904D01*
X24295357Y-100861904D01*
X24942976Y-101242857D02*
X25209642Y-101242857D01*
X25323928Y-101661904D02*
X24942976Y-101661904D01*
X24942976Y-100861904D01*
X25323928Y-100861904D01*
X25666785Y-101661904D02*
X25666785Y-100861904D01*
X25857261Y-100861904D01*
X25971547Y-100900000D01*
X26047738Y-100976190D01*
X26085833Y-101052380D01*
X26123928Y-101204761D01*
X26123928Y-101319047D01*
X26085833Y-101471428D01*
X26047738Y-101547619D01*
X25971547Y-101623809D01*
X25857261Y-101661904D01*
X25666785Y-101661904D01*
X26885833Y-101661904D02*
X26428690Y-101661904D01*
X26657261Y-101661904D02*
X26657261Y-100861904D01*
X26581071Y-100976190D01*
X26504880Y-101052380D01*
X26428690Y-101090476D01*
X27381071Y-100861904D02*
X27457261Y-100861904D01*
X27533452Y-100900000D01*
X27571547Y-100938095D01*
X27609642Y-101014285D01*
X27647738Y-101166666D01*
X27647738Y-101357142D01*
X27609642Y-101509523D01*
X27571547Y-101585714D01*
X27533452Y-101623809D01*
X27457261Y-101661904D01*
X27381071Y-101661904D01*
X27304880Y-101623809D01*
X27266785Y-101585714D01*
X27228690Y-101509523D01*
X27190595Y-101357142D01*
X27190595Y-101166666D01*
X27228690Y-101014285D01*
X27266785Y-100938095D01*
X27304880Y-100900000D01*
X27381071Y-100861904D01*
%TO.C,U9*%
X27878333Y-130763333D02*
X27878333Y-130382380D01*
X28106904Y-130839523D02*
X27306904Y-130572857D01*
X28106904Y-130306190D01*
X28106904Y-130039523D02*
X27306904Y-130039523D01*
X27306904Y-129849047D01*
X27345000Y-129734761D01*
X27421190Y-129658571D01*
X27497380Y-129620476D01*
X27649761Y-129582380D01*
X27764047Y-129582380D01*
X27916428Y-129620476D01*
X27992619Y-129658571D01*
X28068809Y-129734761D01*
X28106904Y-129849047D01*
X28106904Y-130039523D01*
X28106904Y-129239523D02*
X27306904Y-129239523D01*
X27878333Y-128972857D01*
X27306904Y-128706190D01*
X28106904Y-128706190D01*
X27306904Y-128401428D02*
X27306904Y-127906190D01*
X27611666Y-128172857D01*
X27611666Y-128058571D01*
X27649761Y-127982380D01*
X27687857Y-127944285D01*
X27764047Y-127906190D01*
X27954523Y-127906190D01*
X28030714Y-127944285D01*
X28068809Y-127982380D01*
X28106904Y-128058571D01*
X28106904Y-128287142D01*
X28068809Y-128363333D01*
X28030714Y-128401428D01*
X27306904Y-127410952D02*
X27306904Y-127334761D01*
X27345000Y-127258571D01*
X27383095Y-127220476D01*
X27459285Y-127182380D01*
X27611666Y-127144285D01*
X27802142Y-127144285D01*
X27954523Y-127182380D01*
X28030714Y-127220476D01*
X28068809Y-127258571D01*
X28106904Y-127334761D01*
X28106904Y-127410952D01*
X28068809Y-127487142D01*
X28030714Y-127525238D01*
X27954523Y-127563333D01*
X27802142Y-127601428D01*
X27611666Y-127601428D01*
X27459285Y-127563333D01*
X27383095Y-127525238D01*
X27345000Y-127487142D01*
X27306904Y-127410952D01*
X27306904Y-126420476D02*
X27306904Y-126801428D01*
X27687857Y-126839523D01*
X27649761Y-126801428D01*
X27611666Y-126725238D01*
X27611666Y-126534761D01*
X27649761Y-126458571D01*
X27687857Y-126420476D01*
X27764047Y-126382380D01*
X27954523Y-126382380D01*
X28030714Y-126420476D01*
X28068809Y-126458571D01*
X28106904Y-126534761D01*
X28106904Y-126725238D01*
X28068809Y-126801428D01*
X28030714Y-126839523D01*
X27306904Y-125658571D02*
X27306904Y-126039523D01*
X27687857Y-126077619D01*
X27649761Y-126039523D01*
X27611666Y-125963333D01*
X27611666Y-125772857D01*
X27649761Y-125696666D01*
X27687857Y-125658571D01*
X27764047Y-125620476D01*
X27954523Y-125620476D01*
X28030714Y-125658571D01*
X28068809Y-125696666D01*
X28106904Y-125772857D01*
X28106904Y-125963333D01*
X28068809Y-126039523D01*
X28030714Y-126077619D01*
X27687857Y-125277619D02*
X27687857Y-125010952D01*
X28106904Y-124896666D02*
X28106904Y-125277619D01*
X27306904Y-125277619D01*
X27306904Y-124896666D01*
%TO.C,L4*%
X45026904Y-138628452D02*
X45026904Y-139085595D01*
X45026904Y-138857023D02*
X44226904Y-138857023D01*
X44341190Y-138933214D01*
X44417380Y-139009404D01*
X44455476Y-139085595D01*
X44950714Y-138285595D02*
X44988809Y-138247500D01*
X45026904Y-138285595D01*
X44988809Y-138323690D01*
X44950714Y-138285595D01*
X45026904Y-138285595D01*
X44569761Y-137790357D02*
X44531666Y-137866547D01*
X44493571Y-137904642D01*
X44417380Y-137942738D01*
X44379285Y-137942738D01*
X44303095Y-137904642D01*
X44265000Y-137866547D01*
X44226904Y-137790357D01*
X44226904Y-137637976D01*
X44265000Y-137561785D01*
X44303095Y-137523690D01*
X44379285Y-137485595D01*
X44417380Y-137485595D01*
X44493571Y-137523690D01*
X44531666Y-137561785D01*
X44569761Y-137637976D01*
X44569761Y-137790357D01*
X44607857Y-137866547D01*
X44645952Y-137904642D01*
X44722142Y-137942738D01*
X44874523Y-137942738D01*
X44950714Y-137904642D01*
X44988809Y-137866547D01*
X45026904Y-137790357D01*
X45026904Y-137637976D01*
X44988809Y-137561785D01*
X44950714Y-137523690D01*
X44874523Y-137485595D01*
X44722142Y-137485595D01*
X44645952Y-137523690D01*
X44607857Y-137561785D01*
X44569761Y-137637976D01*
X45026904Y-137142738D02*
X44226904Y-137142738D01*
X44722142Y-137066547D02*
X45026904Y-136837976D01*
X44493571Y-136837976D02*
X44798333Y-137142738D01*
X44226904Y-136342738D02*
X44226904Y-136190357D01*
X44265000Y-136114166D01*
X44341190Y-136037976D01*
X44493571Y-135999880D01*
X44760238Y-135999880D01*
X44912619Y-136037976D01*
X44988809Y-136114166D01*
X45026904Y-136190357D01*
X45026904Y-136342738D01*
X44988809Y-136418928D01*
X44912619Y-136495119D01*
X44760238Y-136533214D01*
X44493571Y-136533214D01*
X44341190Y-136495119D01*
X44265000Y-136418928D01*
X44226904Y-136342738D01*
X45026904Y-135657023D02*
X44226904Y-135657023D01*
X45026904Y-135314166D02*
X44607857Y-135314166D01*
X44531666Y-135352261D01*
X44493571Y-135428452D01*
X44493571Y-135542738D01*
X44531666Y-135618928D01*
X44569761Y-135657023D01*
X45026904Y-134933214D02*
X44493571Y-134933214D01*
X44569761Y-134933214D02*
X44531666Y-134895119D01*
X44493571Y-134818928D01*
X44493571Y-134704642D01*
X44531666Y-134628452D01*
X44607857Y-134590357D01*
X45026904Y-134590357D01*
X44607857Y-134590357D02*
X44531666Y-134552261D01*
X44493571Y-134476071D01*
X44493571Y-134361785D01*
X44531666Y-134285595D01*
X44607857Y-134247500D01*
X45026904Y-134247500D01*
X43476904Y-136780833D02*
X43476904Y-137161785D01*
X42676904Y-137161785D01*
X42943571Y-136171309D02*
X43476904Y-136171309D01*
X42638809Y-136361785D02*
X43210238Y-136552261D01*
X43210238Y-136057023D01*
%TO.C,LED8*%
X22269761Y-108765714D02*
X22231666Y-108803809D01*
X22117380Y-108841904D01*
X22041190Y-108841904D01*
X21926904Y-108803809D01*
X21850714Y-108727619D01*
X21812619Y-108651428D01*
X21774523Y-108499047D01*
X21774523Y-108384761D01*
X21812619Y-108232380D01*
X21850714Y-108156190D01*
X21926904Y-108080000D01*
X22041190Y-108041904D01*
X22117380Y-108041904D01*
X22231666Y-108080000D01*
X22269761Y-108118095D01*
X22574523Y-108613333D02*
X22955476Y-108613333D01*
X22498333Y-108841904D02*
X22765000Y-108041904D01*
X23031666Y-108841904D01*
X23298333Y-108841904D02*
X23298333Y-108041904D01*
X23755476Y-108841904D01*
X23755476Y-108041904D01*
X23945952Y-108918095D02*
X24555476Y-108918095D01*
X25203095Y-108841904D02*
X24936428Y-108460952D01*
X24745952Y-108841904D02*
X24745952Y-108041904D01*
X25050714Y-108041904D01*
X25126904Y-108080000D01*
X25165000Y-108118095D01*
X25203095Y-108194285D01*
X25203095Y-108308571D01*
X25165000Y-108384761D01*
X25126904Y-108422857D01*
X25050714Y-108460952D01*
X24745952Y-108460952D01*
X25469761Y-108841904D02*
X25888809Y-108308571D01*
X25469761Y-108308571D02*
X25888809Y-108841904D01*
X27031666Y-109146666D02*
X26993571Y-109108571D01*
X26917380Y-108994285D01*
X26879285Y-108918095D01*
X26841190Y-108803809D01*
X26803095Y-108613333D01*
X26803095Y-108460952D01*
X26841190Y-108270476D01*
X26879285Y-108156190D01*
X26917380Y-108080000D01*
X26993571Y-107965714D01*
X27031666Y-107927619D01*
X27603095Y-108422857D02*
X27717380Y-108460952D01*
X27755476Y-108499047D01*
X27793571Y-108575238D01*
X27793571Y-108689523D01*
X27755476Y-108765714D01*
X27717380Y-108803809D01*
X27641190Y-108841904D01*
X27336428Y-108841904D01*
X27336428Y-108041904D01*
X27603095Y-108041904D01*
X27679285Y-108080000D01*
X27717380Y-108118095D01*
X27755476Y-108194285D01*
X27755476Y-108270476D01*
X27717380Y-108346666D01*
X27679285Y-108384761D01*
X27603095Y-108422857D01*
X27336428Y-108422857D01*
X28250714Y-108841904D02*
X28174523Y-108803809D01*
X28136428Y-108727619D01*
X28136428Y-108041904D01*
X28898333Y-108308571D02*
X28898333Y-108841904D01*
X28555476Y-108308571D02*
X28555476Y-108727619D01*
X28593571Y-108803809D01*
X28669761Y-108841904D01*
X28784047Y-108841904D01*
X28860238Y-108803809D01*
X28898333Y-108765714D01*
X29584047Y-108803809D02*
X29507857Y-108841904D01*
X29355476Y-108841904D01*
X29279285Y-108803809D01*
X29241190Y-108727619D01*
X29241190Y-108422857D01*
X29279285Y-108346666D01*
X29355476Y-108308571D01*
X29507857Y-108308571D01*
X29584047Y-108346666D01*
X29622142Y-108422857D01*
X29622142Y-108499047D01*
X29241190Y-108575238D01*
X29888809Y-109146666D02*
X29926904Y-109108571D01*
X30003095Y-108994285D01*
X30041190Y-108918095D01*
X30079285Y-108803809D01*
X30117380Y-108613333D01*
X30117380Y-108460952D01*
X30079285Y-108270476D01*
X30041190Y-108156190D01*
X30003095Y-108080000D01*
X29926904Y-107965714D01*
X29888809Y-107927619D01*
X25069761Y-110491904D02*
X24688809Y-110491904D01*
X24688809Y-109691904D01*
X25336428Y-110072857D02*
X25603095Y-110072857D01*
X25717380Y-110491904D02*
X25336428Y-110491904D01*
X25336428Y-109691904D01*
X25717380Y-109691904D01*
X26060238Y-110491904D02*
X26060238Y-109691904D01*
X26250714Y-109691904D01*
X26365000Y-109730000D01*
X26441190Y-109806190D01*
X26479285Y-109882380D01*
X26517380Y-110034761D01*
X26517380Y-110149047D01*
X26479285Y-110301428D01*
X26441190Y-110377619D01*
X26365000Y-110453809D01*
X26250714Y-110491904D01*
X26060238Y-110491904D01*
X26974523Y-110034761D02*
X26898333Y-109996666D01*
X26860238Y-109958571D01*
X26822142Y-109882380D01*
X26822142Y-109844285D01*
X26860238Y-109768095D01*
X26898333Y-109730000D01*
X26974523Y-109691904D01*
X27126904Y-109691904D01*
X27203095Y-109730000D01*
X27241190Y-109768095D01*
X27279285Y-109844285D01*
X27279285Y-109882380D01*
X27241190Y-109958571D01*
X27203095Y-109996666D01*
X27126904Y-110034761D01*
X26974523Y-110034761D01*
X26898333Y-110072857D01*
X26860238Y-110110952D01*
X26822142Y-110187142D01*
X26822142Y-110339523D01*
X26860238Y-110415714D01*
X26898333Y-110453809D01*
X26974523Y-110491904D01*
X27126904Y-110491904D01*
X27203095Y-110453809D01*
X27241190Y-110415714D01*
X27279285Y-110339523D01*
X27279285Y-110187142D01*
X27241190Y-110110952D01*
X27203095Y-110072857D01*
X27126904Y-110034761D01*
%TO.C,L3*%
X42801904Y-138643452D02*
X42801904Y-139100595D01*
X42801904Y-138872023D02*
X42001904Y-138872023D01*
X42116190Y-138948214D01*
X42192380Y-139024404D01*
X42230476Y-139100595D01*
X42725714Y-138300595D02*
X42763809Y-138262500D01*
X42801904Y-138300595D01*
X42763809Y-138338690D01*
X42725714Y-138300595D01*
X42801904Y-138300595D01*
X42344761Y-137805357D02*
X42306666Y-137881547D01*
X42268571Y-137919642D01*
X42192380Y-137957738D01*
X42154285Y-137957738D01*
X42078095Y-137919642D01*
X42040000Y-137881547D01*
X42001904Y-137805357D01*
X42001904Y-137652976D01*
X42040000Y-137576785D01*
X42078095Y-137538690D01*
X42154285Y-137500595D01*
X42192380Y-137500595D01*
X42268571Y-137538690D01*
X42306666Y-137576785D01*
X42344761Y-137652976D01*
X42344761Y-137805357D01*
X42382857Y-137881547D01*
X42420952Y-137919642D01*
X42497142Y-137957738D01*
X42649523Y-137957738D01*
X42725714Y-137919642D01*
X42763809Y-137881547D01*
X42801904Y-137805357D01*
X42801904Y-137652976D01*
X42763809Y-137576785D01*
X42725714Y-137538690D01*
X42649523Y-137500595D01*
X42497142Y-137500595D01*
X42420952Y-137538690D01*
X42382857Y-137576785D01*
X42344761Y-137652976D01*
X42801904Y-137157738D02*
X42001904Y-137157738D01*
X42497142Y-137081547D02*
X42801904Y-136852976D01*
X42268571Y-136852976D02*
X42573333Y-137157738D01*
X42001904Y-136357738D02*
X42001904Y-136205357D01*
X42040000Y-136129166D01*
X42116190Y-136052976D01*
X42268571Y-136014880D01*
X42535238Y-136014880D01*
X42687619Y-136052976D01*
X42763809Y-136129166D01*
X42801904Y-136205357D01*
X42801904Y-136357738D01*
X42763809Y-136433928D01*
X42687619Y-136510119D01*
X42535238Y-136548214D01*
X42268571Y-136548214D01*
X42116190Y-136510119D01*
X42040000Y-136433928D01*
X42001904Y-136357738D01*
X42801904Y-135672023D02*
X42001904Y-135672023D01*
X42801904Y-135329166D02*
X42382857Y-135329166D01*
X42306666Y-135367261D01*
X42268571Y-135443452D01*
X42268571Y-135557738D01*
X42306666Y-135633928D01*
X42344761Y-135672023D01*
X42801904Y-134948214D02*
X42268571Y-134948214D01*
X42344761Y-134948214D02*
X42306666Y-134910119D01*
X42268571Y-134833928D01*
X42268571Y-134719642D01*
X42306666Y-134643452D01*
X42382857Y-134605357D01*
X42801904Y-134605357D01*
X42382857Y-134605357D02*
X42306666Y-134567261D01*
X42268571Y-134491071D01*
X42268571Y-134376785D01*
X42306666Y-134300595D01*
X42382857Y-134262500D01*
X42801904Y-134262500D01*
X41251904Y-136795833D02*
X41251904Y-137176785D01*
X40451904Y-137176785D01*
X40451904Y-136605357D02*
X40451904Y-136110119D01*
X40756666Y-136376785D01*
X40756666Y-136262500D01*
X40794761Y-136186309D01*
X40832857Y-136148214D01*
X40909047Y-136110119D01*
X41099523Y-136110119D01*
X41175714Y-136148214D01*
X41213809Y-136186309D01*
X41251904Y-136262500D01*
X41251904Y-136491071D01*
X41213809Y-136567261D01*
X41175714Y-136605357D01*
%TO.C,LED7*%
X22688809Y-102966904D02*
X22688809Y-102166904D01*
X22993571Y-102166904D01*
X23069761Y-102205000D01*
X23107857Y-102243095D01*
X23145952Y-102319285D01*
X23145952Y-102433571D01*
X23107857Y-102509761D01*
X23069761Y-102547857D01*
X22993571Y-102585952D01*
X22688809Y-102585952D01*
X23412619Y-102166904D02*
X23603095Y-102966904D01*
X23755476Y-102395476D01*
X23907857Y-102966904D01*
X24098333Y-102166904D01*
X24403095Y-102966904D02*
X24403095Y-102166904D01*
X24669761Y-102738333D01*
X24936428Y-102166904D01*
X24936428Y-102966904D01*
X26155476Y-103271666D02*
X26117380Y-103233571D01*
X26041190Y-103119285D01*
X26003095Y-103043095D01*
X25965000Y-102928809D01*
X25926904Y-102738333D01*
X25926904Y-102585952D01*
X25965000Y-102395476D01*
X26003095Y-102281190D01*
X26041190Y-102205000D01*
X26117380Y-102090714D01*
X26155476Y-102052619D01*
X26726904Y-102547857D02*
X26841190Y-102585952D01*
X26879285Y-102624047D01*
X26917380Y-102700238D01*
X26917380Y-102814523D01*
X26879285Y-102890714D01*
X26841190Y-102928809D01*
X26765000Y-102966904D01*
X26460238Y-102966904D01*
X26460238Y-102166904D01*
X26726904Y-102166904D01*
X26803095Y-102205000D01*
X26841190Y-102243095D01*
X26879285Y-102319285D01*
X26879285Y-102395476D01*
X26841190Y-102471666D01*
X26803095Y-102509761D01*
X26726904Y-102547857D01*
X26460238Y-102547857D01*
X27374523Y-102966904D02*
X27298333Y-102928809D01*
X27260238Y-102852619D01*
X27260238Y-102166904D01*
X28022142Y-102433571D02*
X28022142Y-102966904D01*
X27679285Y-102433571D02*
X27679285Y-102852619D01*
X27717380Y-102928809D01*
X27793571Y-102966904D01*
X27907857Y-102966904D01*
X27984047Y-102928809D01*
X28022142Y-102890714D01*
X28707857Y-102928809D02*
X28631666Y-102966904D01*
X28479285Y-102966904D01*
X28403095Y-102928809D01*
X28365000Y-102852619D01*
X28365000Y-102547857D01*
X28403095Y-102471666D01*
X28479285Y-102433571D01*
X28631666Y-102433571D01*
X28707857Y-102471666D01*
X28745952Y-102547857D01*
X28745952Y-102624047D01*
X28365000Y-102700238D01*
X29012619Y-103271666D02*
X29050714Y-103233571D01*
X29126904Y-103119285D01*
X29165000Y-103043095D01*
X29203095Y-102928809D01*
X29241190Y-102738333D01*
X29241190Y-102585952D01*
X29203095Y-102395476D01*
X29165000Y-102281190D01*
X29126904Y-102205000D01*
X29050714Y-102090714D01*
X29012619Y-102052619D01*
X25069761Y-104616904D02*
X24688809Y-104616904D01*
X24688809Y-103816904D01*
X25336428Y-104197857D02*
X25603095Y-104197857D01*
X25717380Y-104616904D02*
X25336428Y-104616904D01*
X25336428Y-103816904D01*
X25717380Y-103816904D01*
X26060238Y-104616904D02*
X26060238Y-103816904D01*
X26250714Y-103816904D01*
X26365000Y-103855000D01*
X26441190Y-103931190D01*
X26479285Y-104007380D01*
X26517380Y-104159761D01*
X26517380Y-104274047D01*
X26479285Y-104426428D01*
X26441190Y-104502619D01*
X26365000Y-104578809D01*
X26250714Y-104616904D01*
X26060238Y-104616904D01*
X26784047Y-103816904D02*
X27317380Y-103816904D01*
X26974523Y-104616904D01*
%TO.C,U4*%
X56591428Y-136053095D02*
X56591428Y-136853095D01*
X56210476Y-136472142D02*
X55943809Y-136472142D01*
X55829523Y-136053095D02*
X56210476Y-136053095D01*
X56210476Y-136853095D01*
X55829523Y-136853095D01*
X55524761Y-136091190D02*
X55410476Y-136053095D01*
X55220000Y-136053095D01*
X55143809Y-136091190D01*
X55105714Y-136129285D01*
X55067619Y-136205476D01*
X55067619Y-136281666D01*
X55105714Y-136357857D01*
X55143809Y-136395952D01*
X55220000Y-136434047D01*
X55372380Y-136472142D01*
X55448571Y-136510238D01*
X55486666Y-136548333D01*
X55524761Y-136624523D01*
X55524761Y-136700714D01*
X55486666Y-136776904D01*
X55448571Y-136815000D01*
X55372380Y-136853095D01*
X55181904Y-136853095D01*
X55067619Y-136815000D01*
X54572380Y-136853095D02*
X54496190Y-136853095D01*
X54420000Y-136815000D01*
X54381904Y-136776904D01*
X54343809Y-136700714D01*
X54305714Y-136548333D01*
X54305714Y-136357857D01*
X54343809Y-136205476D01*
X54381904Y-136129285D01*
X54420000Y-136091190D01*
X54496190Y-136053095D01*
X54572380Y-136053095D01*
X54648571Y-136091190D01*
X54686666Y-136129285D01*
X54724761Y-136205476D01*
X54762857Y-136357857D01*
X54762857Y-136548333D01*
X54724761Y-136700714D01*
X54686666Y-136776904D01*
X54648571Y-136815000D01*
X54572380Y-136853095D01*
X53543809Y-136053095D02*
X54000952Y-136053095D01*
X53772380Y-136053095D02*
X53772380Y-136853095D01*
X53848571Y-136738809D01*
X53924761Y-136662619D01*
X54000952Y-136624523D01*
X53391428Y-135976904D02*
X52781904Y-135976904D01*
X52591428Y-136053095D02*
X52591428Y-136853095D01*
X52286666Y-136853095D01*
X52210476Y-136815000D01*
X52172380Y-136776904D01*
X52134285Y-136700714D01*
X52134285Y-136586428D01*
X52172380Y-136510238D01*
X52210476Y-136472142D01*
X52286666Y-136434047D01*
X52591428Y-136434047D01*
X51791428Y-136053095D02*
X51791428Y-136853095D01*
X51600952Y-136853095D01*
X51486666Y-136815000D01*
X51410476Y-136738809D01*
X51372380Y-136662619D01*
X51334285Y-136510238D01*
X51334285Y-136395952D01*
X51372380Y-136243571D01*
X51410476Y-136167380D01*
X51486666Y-136091190D01*
X51600952Y-136053095D01*
X51791428Y-136053095D01*
X51029523Y-136091190D02*
X50915238Y-136053095D01*
X50724761Y-136053095D01*
X50648571Y-136091190D01*
X50610476Y-136129285D01*
X50572380Y-136205476D01*
X50572380Y-136281666D01*
X50610476Y-136357857D01*
X50648571Y-136395952D01*
X50724761Y-136434047D01*
X50877142Y-136472142D01*
X50953333Y-136510238D01*
X50991428Y-136548333D01*
X51029523Y-136624523D01*
X51029523Y-136700714D01*
X50991428Y-136776904D01*
X50953333Y-136815000D01*
X50877142Y-136853095D01*
X50686666Y-136853095D01*
X50572380Y-136815000D01*
X49810476Y-136053095D02*
X50267619Y-136053095D01*
X50039047Y-136053095D02*
X50039047Y-136853095D01*
X50115238Y-136738809D01*
X50191428Y-136662619D01*
X50267619Y-136624523D01*
%TO.C,HS1*%
X81391904Y-49318333D02*
X80591904Y-49318333D01*
X81163333Y-49051666D01*
X80591904Y-48785000D01*
X81391904Y-48785000D01*
X80591904Y-48251666D02*
X80591904Y-48099285D01*
X80630000Y-48023095D01*
X80706190Y-47946904D01*
X80858571Y-47908809D01*
X81125238Y-47908809D01*
X81277619Y-47946904D01*
X81353809Y-48023095D01*
X81391904Y-48099285D01*
X81391904Y-48251666D01*
X81353809Y-48327857D01*
X81277619Y-48404047D01*
X81125238Y-48442142D01*
X80858571Y-48442142D01*
X80706190Y-48404047D01*
X80630000Y-48327857D01*
X80591904Y-48251666D01*
X81353809Y-47604047D02*
X81391904Y-47489761D01*
X81391904Y-47299285D01*
X81353809Y-47223095D01*
X81315714Y-47185000D01*
X81239523Y-47146904D01*
X81163333Y-47146904D01*
X81087142Y-47185000D01*
X81049047Y-47223095D01*
X81010952Y-47299285D01*
X80972857Y-47451666D01*
X80934761Y-47527857D01*
X80896666Y-47565952D01*
X80820476Y-47604047D01*
X80744285Y-47604047D01*
X80668095Y-47565952D01*
X80630000Y-47527857D01*
X80591904Y-47451666D01*
X80591904Y-47261190D01*
X80630000Y-47146904D01*
X80972857Y-46537380D02*
X80972857Y-46804047D01*
X81391904Y-46804047D02*
X80591904Y-46804047D01*
X80591904Y-46423095D01*
X80972857Y-46118333D02*
X80972857Y-45851666D01*
X81391904Y-45737380D02*
X81391904Y-46118333D01*
X80591904Y-46118333D01*
X80591904Y-45737380D01*
X80591904Y-45508809D02*
X80591904Y-45051666D01*
X81391904Y-45280238D02*
X80591904Y-45280238D01*
X81391904Y-44175476D02*
X80591904Y-44175476D01*
X80972857Y-44175476D02*
X80972857Y-43718333D01*
X81391904Y-43718333D02*
X80591904Y-43718333D01*
X81353809Y-43032619D02*
X81391904Y-43108809D01*
X81391904Y-43261190D01*
X81353809Y-43337380D01*
X81277619Y-43375476D01*
X80972857Y-43375476D01*
X80896666Y-43337380D01*
X80858571Y-43261190D01*
X80858571Y-43108809D01*
X80896666Y-43032619D01*
X80972857Y-42994523D01*
X81049047Y-42994523D01*
X81125238Y-43375476D01*
X81391904Y-42308809D02*
X80972857Y-42308809D01*
X80896666Y-42346904D01*
X80858571Y-42423095D01*
X80858571Y-42575476D01*
X80896666Y-42651666D01*
X81353809Y-42308809D02*
X81391904Y-42385000D01*
X81391904Y-42575476D01*
X81353809Y-42651666D01*
X81277619Y-42689761D01*
X81201428Y-42689761D01*
X81125238Y-42651666D01*
X81087142Y-42575476D01*
X81087142Y-42385000D01*
X81049047Y-42308809D01*
X80858571Y-42042142D02*
X80858571Y-41737380D01*
X80591904Y-41927857D02*
X81277619Y-41927857D01*
X81353809Y-41889761D01*
X81391904Y-41813571D01*
X81391904Y-41737380D01*
X81353809Y-41508809D02*
X81391904Y-41432619D01*
X81391904Y-41280238D01*
X81353809Y-41204047D01*
X81277619Y-41165952D01*
X81239523Y-41165952D01*
X81163333Y-41204047D01*
X81125238Y-41280238D01*
X81125238Y-41394523D01*
X81087142Y-41470714D01*
X81010952Y-41508809D01*
X80972857Y-41508809D01*
X80896666Y-41470714D01*
X80858571Y-41394523D01*
X80858571Y-41280238D01*
X80896666Y-41204047D01*
X81391904Y-40823095D02*
X80858571Y-40823095D01*
X80591904Y-40823095D02*
X80630000Y-40861190D01*
X80668095Y-40823095D01*
X80630000Y-40785000D01*
X80591904Y-40823095D01*
X80668095Y-40823095D01*
X80858571Y-40442142D02*
X81391904Y-40442142D01*
X80934761Y-40442142D02*
X80896666Y-40404047D01*
X80858571Y-40327857D01*
X80858571Y-40213571D01*
X80896666Y-40137380D01*
X80972857Y-40099285D01*
X81391904Y-40099285D01*
X81391904Y-39718333D02*
X80591904Y-39718333D01*
X81087142Y-39642142D02*
X81391904Y-39413571D01*
X80858571Y-39413571D02*
X81163333Y-39718333D01*
X67891904Y-45375476D02*
X67091904Y-45375476D01*
X67472857Y-45375476D02*
X67472857Y-44918333D01*
X67891904Y-44918333D02*
X67091904Y-44918333D01*
X67853809Y-44575476D02*
X67891904Y-44461190D01*
X67891904Y-44270714D01*
X67853809Y-44194523D01*
X67815714Y-44156428D01*
X67739523Y-44118333D01*
X67663333Y-44118333D01*
X67587142Y-44156428D01*
X67549047Y-44194523D01*
X67510952Y-44270714D01*
X67472857Y-44423095D01*
X67434761Y-44499285D01*
X67396666Y-44537380D01*
X67320476Y-44575476D01*
X67244285Y-44575476D01*
X67168095Y-44537380D01*
X67130000Y-44499285D01*
X67091904Y-44423095D01*
X67091904Y-44232619D01*
X67130000Y-44118333D01*
X67891904Y-43356428D02*
X67891904Y-43813571D01*
X67891904Y-43585000D02*
X67091904Y-43585000D01*
X67206190Y-43661190D01*
X67282380Y-43737380D01*
X67320476Y-43813571D01*
%TO.C,JP1*%
X44256904Y-143353333D02*
X44828333Y-143353333D01*
X44942619Y-143391428D01*
X45018809Y-143467619D01*
X45056904Y-143581904D01*
X45056904Y-143658095D01*
X44523571Y-142629523D02*
X45056904Y-142629523D01*
X44523571Y-142972380D02*
X44942619Y-142972380D01*
X45018809Y-142934285D01*
X45056904Y-142858095D01*
X45056904Y-142743809D01*
X45018809Y-142667619D01*
X44980714Y-142629523D01*
X45056904Y-142248571D02*
X44523571Y-142248571D01*
X44599761Y-142248571D02*
X44561666Y-142210476D01*
X44523571Y-142134285D01*
X44523571Y-142020000D01*
X44561666Y-141943809D01*
X44637857Y-141905714D01*
X45056904Y-141905714D01*
X44637857Y-141905714D02*
X44561666Y-141867619D01*
X44523571Y-141791428D01*
X44523571Y-141677142D01*
X44561666Y-141600952D01*
X44637857Y-141562857D01*
X45056904Y-141562857D01*
X44523571Y-141181904D02*
X45323571Y-141181904D01*
X44561666Y-141181904D02*
X44523571Y-141105714D01*
X44523571Y-140953333D01*
X44561666Y-140877142D01*
X44599761Y-140839047D01*
X44675952Y-140800952D01*
X44904523Y-140800952D01*
X44980714Y-140839047D01*
X45018809Y-140877142D01*
X45056904Y-140953333D01*
X45056904Y-141105714D01*
X45018809Y-141181904D01*
X45018809Y-140153333D02*
X45056904Y-140229523D01*
X45056904Y-140381904D01*
X45018809Y-140458095D01*
X44942619Y-140496190D01*
X44637857Y-140496190D01*
X44561666Y-140458095D01*
X44523571Y-140381904D01*
X44523571Y-140229523D01*
X44561666Y-140153333D01*
X44637857Y-140115238D01*
X44714047Y-140115238D01*
X44790238Y-140496190D01*
X45056904Y-139772380D02*
X44523571Y-139772380D01*
X44675952Y-139772380D02*
X44599761Y-139734285D01*
X44561666Y-139696190D01*
X44523571Y-139620000D01*
X44523571Y-139543809D01*
X40428333Y-141181904D02*
X40428333Y-141753333D01*
X40390238Y-141867619D01*
X40314047Y-141943809D01*
X40199761Y-141981904D01*
X40123571Y-141981904D01*
X40809285Y-141981904D02*
X40809285Y-141181904D01*
X41114047Y-141181904D01*
X41190238Y-141220000D01*
X41228333Y-141258095D01*
X41266428Y-141334285D01*
X41266428Y-141448571D01*
X41228333Y-141524761D01*
X41190238Y-141562857D01*
X41114047Y-141600952D01*
X40809285Y-141600952D01*
X42028333Y-141981904D02*
X41571190Y-141981904D01*
X41799761Y-141981904D02*
X41799761Y-141181904D01*
X41723571Y-141296190D01*
X41647380Y-141372380D01*
X41571190Y-141410476D01*
%TO.C,LED3*%
X134571904Y-149510071D02*
X134571904Y-149357690D01*
X134533809Y-149281500D01*
X134495714Y-149243404D01*
X134381428Y-149167214D01*
X134229047Y-149129119D01*
X133924285Y-149129119D01*
X133848095Y-149167214D01*
X133810000Y-149205309D01*
X133771904Y-149281500D01*
X133771904Y-149433880D01*
X133810000Y-149510071D01*
X133848095Y-149548166D01*
X133924285Y-149586261D01*
X134114761Y-149586261D01*
X134190952Y-149548166D01*
X134229047Y-149510071D01*
X134267142Y-149433880D01*
X134267142Y-149281500D01*
X134229047Y-149205309D01*
X134190952Y-149167214D01*
X134114761Y-149129119D01*
X133771904Y-148900547D02*
X134571904Y-148633880D01*
X133771904Y-148367214D01*
X134876666Y-147262452D02*
X134838571Y-147300547D01*
X134724285Y-147376738D01*
X134648095Y-147414833D01*
X134533809Y-147452928D01*
X134343333Y-147491023D01*
X134190952Y-147491023D01*
X134000476Y-147452928D01*
X133886190Y-147414833D01*
X133810000Y-147376738D01*
X133695714Y-147300547D01*
X133657619Y-147262452D01*
X133810000Y-146538642D02*
X133771904Y-146614833D01*
X133771904Y-146729119D01*
X133810000Y-146843404D01*
X133886190Y-146919595D01*
X133962380Y-146957690D01*
X134114761Y-146995785D01*
X134229047Y-146995785D01*
X134381428Y-146957690D01*
X134457619Y-146919595D01*
X134533809Y-146843404D01*
X134571904Y-146729119D01*
X134571904Y-146652928D01*
X134533809Y-146538642D01*
X134495714Y-146500547D01*
X134229047Y-146500547D01*
X134229047Y-146652928D01*
X134571904Y-146157690D02*
X134038571Y-146157690D01*
X134190952Y-146157690D02*
X134114761Y-146119595D01*
X134076666Y-146081500D01*
X134038571Y-146005309D01*
X134038571Y-145929119D01*
X134533809Y-145357690D02*
X134571904Y-145433880D01*
X134571904Y-145586261D01*
X134533809Y-145662452D01*
X134457619Y-145700547D01*
X134152857Y-145700547D01*
X134076666Y-145662452D01*
X134038571Y-145586261D01*
X134038571Y-145433880D01*
X134076666Y-145357690D01*
X134152857Y-145319595D01*
X134229047Y-145319595D01*
X134305238Y-145700547D01*
X134533809Y-144671976D02*
X134571904Y-144748166D01*
X134571904Y-144900547D01*
X134533809Y-144976738D01*
X134457619Y-145014833D01*
X134152857Y-145014833D01*
X134076666Y-144976738D01*
X134038571Y-144900547D01*
X134038571Y-144748166D01*
X134076666Y-144671976D01*
X134152857Y-144633880D01*
X134229047Y-144633880D01*
X134305238Y-145014833D01*
X134038571Y-144291023D02*
X134571904Y-144291023D01*
X134114761Y-144291023D02*
X134076666Y-144252928D01*
X134038571Y-144176738D01*
X134038571Y-144062452D01*
X134076666Y-143986261D01*
X134152857Y-143948166D01*
X134571904Y-143948166D01*
X134876666Y-143643404D02*
X134838571Y-143605309D01*
X134724285Y-143529119D01*
X134648095Y-143491023D01*
X134533809Y-143452928D01*
X134343333Y-143414833D01*
X134190952Y-143414833D01*
X134000476Y-143452928D01*
X133886190Y-143491023D01*
X133810000Y-143529119D01*
X133695714Y-143605309D01*
X133657619Y-143643404D01*
X136221904Y-147376738D02*
X136221904Y-147757690D01*
X135421904Y-147757690D01*
X135802857Y-147110071D02*
X135802857Y-146843404D01*
X136221904Y-146729119D02*
X136221904Y-147110071D01*
X135421904Y-147110071D01*
X135421904Y-146729119D01*
X136221904Y-146386261D02*
X135421904Y-146386261D01*
X135421904Y-146195785D01*
X135460000Y-146081500D01*
X135536190Y-146005309D01*
X135612380Y-145967214D01*
X135764761Y-145929119D01*
X135879047Y-145929119D01*
X136031428Y-145967214D01*
X136107619Y-146005309D01*
X136183809Y-146081500D01*
X136221904Y-146195785D01*
X136221904Y-146386261D01*
X135421904Y-145662452D02*
X135421904Y-145167214D01*
X135726666Y-145433880D01*
X135726666Y-145319595D01*
X135764761Y-145243404D01*
X135802857Y-145205309D01*
X135879047Y-145167214D01*
X136069523Y-145167214D01*
X136145714Y-145205309D01*
X136183809Y-145243404D01*
X136221904Y-145319595D01*
X136221904Y-145548166D01*
X136183809Y-145624357D01*
X136145714Y-145662452D01*
%TO.C,C9*%
X117979761Y-46360714D02*
X117941666Y-46398809D01*
X117827380Y-46436904D01*
X117751190Y-46436904D01*
X117636904Y-46398809D01*
X117560714Y-46322619D01*
X117522619Y-46246428D01*
X117484523Y-46094047D01*
X117484523Y-45979761D01*
X117522619Y-45827380D01*
X117560714Y-45751190D01*
X117636904Y-45675000D01*
X117751190Y-45636904D01*
X117827380Y-45636904D01*
X117941666Y-45675000D01*
X117979761Y-45713095D01*
X118322619Y-46436904D02*
X118322619Y-45636904D01*
X118627380Y-45636904D01*
X118703571Y-45675000D01*
X118741666Y-45713095D01*
X118779761Y-45789285D01*
X118779761Y-45903571D01*
X118741666Y-45979761D01*
X118703571Y-46017857D01*
X118627380Y-46055952D01*
X118322619Y-46055952D01*
X119236904Y-46360714D02*
X119275000Y-46398809D01*
X119236904Y-46436904D01*
X119198809Y-46398809D01*
X119236904Y-46360714D01*
X119236904Y-46436904D01*
X119084523Y-45675000D02*
X119160714Y-45636904D01*
X119351190Y-45636904D01*
X119427380Y-45675000D01*
X119465476Y-45751190D01*
X119465476Y-45827380D01*
X119427380Y-45903571D01*
X119389285Y-45941666D01*
X119313095Y-45979761D01*
X119275000Y-46017857D01*
X119236904Y-46094047D01*
X119236904Y-46132142D01*
X118341666Y-41610714D02*
X118303571Y-41648809D01*
X118189285Y-41686904D01*
X118113095Y-41686904D01*
X117998809Y-41648809D01*
X117922619Y-41572619D01*
X117884523Y-41496428D01*
X117846428Y-41344047D01*
X117846428Y-41229761D01*
X117884523Y-41077380D01*
X117922619Y-41001190D01*
X117998809Y-40925000D01*
X118113095Y-40886904D01*
X118189285Y-40886904D01*
X118303571Y-40925000D01*
X118341666Y-40963095D01*
X118722619Y-41686904D02*
X118875000Y-41686904D01*
X118951190Y-41648809D01*
X118989285Y-41610714D01*
X119065476Y-41496428D01*
X119103571Y-41344047D01*
X119103571Y-41039285D01*
X119065476Y-40963095D01*
X119027380Y-40925000D01*
X118951190Y-40886904D01*
X118798809Y-40886904D01*
X118722619Y-40925000D01*
X118684523Y-40963095D01*
X118646428Y-41039285D01*
X118646428Y-41229761D01*
X118684523Y-41305952D01*
X118722619Y-41344047D01*
X118798809Y-41382142D01*
X118951190Y-41382142D01*
X119027380Y-41344047D01*
X119065476Y-41305952D01*
X119103571Y-41229761D01*
%TO.C,CP1*%
X118950952Y-94546904D02*
X118493809Y-94546904D01*
X118722380Y-94546904D02*
X118722380Y-93746904D01*
X118646190Y-93861190D01*
X118570000Y-93937380D01*
X118493809Y-93975476D01*
X119446190Y-93746904D02*
X119522380Y-93746904D01*
X119598571Y-93785000D01*
X119636666Y-93823095D01*
X119674761Y-93899285D01*
X119712857Y-94051666D01*
X119712857Y-94242142D01*
X119674761Y-94394523D01*
X119636666Y-94470714D01*
X119598571Y-94508809D01*
X119522380Y-94546904D01*
X119446190Y-94546904D01*
X119370000Y-94508809D01*
X119331904Y-94470714D01*
X119293809Y-94394523D01*
X119255714Y-94242142D01*
X119255714Y-94051666D01*
X119293809Y-93899285D01*
X119331904Y-93823095D01*
X119370000Y-93785000D01*
X119446190Y-93746904D01*
X120208095Y-93746904D02*
X120284285Y-93746904D01*
X120360476Y-93785000D01*
X120398571Y-93823095D01*
X120436666Y-93899285D01*
X120474761Y-94051666D01*
X120474761Y-94242142D01*
X120436666Y-94394523D01*
X120398571Y-94470714D01*
X120360476Y-94508809D01*
X120284285Y-94546904D01*
X120208095Y-94546904D01*
X120131904Y-94508809D01*
X120093809Y-94470714D01*
X120055714Y-94394523D01*
X120017619Y-94242142D01*
X120017619Y-94051666D01*
X120055714Y-93899285D01*
X120093809Y-93823095D01*
X120131904Y-93785000D01*
X120208095Y-93746904D01*
X120970000Y-93746904D02*
X121046190Y-93746904D01*
X121122380Y-93785000D01*
X121160476Y-93823095D01*
X121198571Y-93899285D01*
X121236666Y-94051666D01*
X121236666Y-94242142D01*
X121198571Y-94394523D01*
X121160476Y-94470714D01*
X121122380Y-94508809D01*
X121046190Y-94546904D01*
X120970000Y-94546904D01*
X120893809Y-94508809D01*
X120855714Y-94470714D01*
X120817619Y-94394523D01*
X120779523Y-94242142D01*
X120779523Y-94051666D01*
X120817619Y-93899285D01*
X120855714Y-93823095D01*
X120893809Y-93785000D01*
X120970000Y-93746904D01*
X121922380Y-94013571D02*
X121922380Y-94546904D01*
X121579523Y-94013571D02*
X121579523Y-94432619D01*
X121617619Y-94508809D01*
X121693809Y-94546904D01*
X121808095Y-94546904D01*
X121884285Y-94508809D01*
X121922380Y-94470714D01*
X122570000Y-94127857D02*
X122303333Y-94127857D01*
X122303333Y-94546904D02*
X122303333Y-93746904D01*
X122684285Y-93746904D01*
X120036666Y-110720714D02*
X119998571Y-110758809D01*
X119884285Y-110796904D01*
X119808095Y-110796904D01*
X119693809Y-110758809D01*
X119617619Y-110682619D01*
X119579523Y-110606428D01*
X119541428Y-110454047D01*
X119541428Y-110339761D01*
X119579523Y-110187380D01*
X119617619Y-110111190D01*
X119693809Y-110035000D01*
X119808095Y-109996904D01*
X119884285Y-109996904D01*
X119998571Y-110035000D01*
X120036666Y-110073095D01*
X120379523Y-110796904D02*
X120379523Y-109996904D01*
X120684285Y-109996904D01*
X120760476Y-110035000D01*
X120798571Y-110073095D01*
X120836666Y-110149285D01*
X120836666Y-110263571D01*
X120798571Y-110339761D01*
X120760476Y-110377857D01*
X120684285Y-110415952D01*
X120379523Y-110415952D01*
X121598571Y-110796904D02*
X121141428Y-110796904D01*
X121370000Y-110796904D02*
X121370000Y-109996904D01*
X121293809Y-110111190D01*
X121217619Y-110187380D01*
X121141428Y-110225476D01*
%TO.C,SW2*%
X27703809Y-90516428D02*
X27741904Y-90402142D01*
X27741904Y-90211666D01*
X27703809Y-90135476D01*
X27665714Y-90097380D01*
X27589523Y-90059285D01*
X27513333Y-90059285D01*
X27437142Y-90097380D01*
X27399047Y-90135476D01*
X27360952Y-90211666D01*
X27322857Y-90364047D01*
X27284761Y-90440238D01*
X27246666Y-90478333D01*
X27170476Y-90516428D01*
X27094285Y-90516428D01*
X27018095Y-90478333D01*
X26980000Y-90440238D01*
X26941904Y-90364047D01*
X26941904Y-90173571D01*
X26980000Y-90059285D01*
X26941904Y-89792619D02*
X27741904Y-89602142D01*
X27170476Y-89449761D01*
X27741904Y-89297380D01*
X26941904Y-89106904D01*
X27818095Y-88992619D02*
X27818095Y-88383095D01*
X27741904Y-88192619D02*
X26941904Y-88192619D01*
X26941904Y-88002142D01*
X26980000Y-87887857D01*
X27056190Y-87811666D01*
X27132380Y-87773571D01*
X27284761Y-87735476D01*
X27399047Y-87735476D01*
X27551428Y-87773571D01*
X27627619Y-87811666D01*
X27703809Y-87887857D01*
X27741904Y-88002142D01*
X27741904Y-88192619D01*
X27741904Y-87392619D02*
X26941904Y-87392619D01*
X27741904Y-87011666D02*
X26941904Y-87011666D01*
X26941904Y-86706904D01*
X26980000Y-86630714D01*
X27018095Y-86592619D01*
X27094285Y-86554523D01*
X27208571Y-86554523D01*
X27284761Y-86592619D01*
X27322857Y-86630714D01*
X27360952Y-86706904D01*
X27360952Y-87011666D01*
X27818095Y-86402142D02*
X27818095Y-85792619D01*
X27741904Y-85678333D02*
X27208571Y-85259285D01*
X27208571Y-85678333D02*
X27741904Y-85259285D01*
X26941904Y-84802142D02*
X26941904Y-84725952D01*
X26980000Y-84649761D01*
X27018095Y-84611666D01*
X27094285Y-84573571D01*
X27246666Y-84535476D01*
X27437142Y-84535476D01*
X27589523Y-84573571D01*
X27665714Y-84611666D01*
X27703809Y-84649761D01*
X27741904Y-84725952D01*
X27741904Y-84802142D01*
X27703809Y-84878333D01*
X27665714Y-84916428D01*
X27589523Y-84954523D01*
X27437142Y-84992619D01*
X27246666Y-84992619D01*
X27094285Y-84954523D01*
X27018095Y-84916428D01*
X26980000Y-84878333D01*
X26941904Y-84802142D01*
X27018095Y-84230714D02*
X26980000Y-84192619D01*
X26941904Y-84116428D01*
X26941904Y-83925952D01*
X26980000Y-83849761D01*
X27018095Y-83811666D01*
X27094285Y-83773571D01*
X27170476Y-83773571D01*
X27284761Y-83811666D01*
X27741904Y-84268809D01*
X27741904Y-83773571D01*
%TO.C,LED9*%
X22370000Y-105770714D02*
X22331904Y-105808809D01*
X22217619Y-105846904D01*
X22141428Y-105846904D01*
X22027142Y-105808809D01*
X21950952Y-105732619D01*
X21912857Y-105656428D01*
X21874761Y-105504047D01*
X21874761Y-105389761D01*
X21912857Y-105237380D01*
X21950952Y-105161190D01*
X22027142Y-105085000D01*
X22141428Y-105046904D01*
X22217619Y-105046904D01*
X22331904Y-105085000D01*
X22370000Y-105123095D01*
X22674761Y-105618333D02*
X23055714Y-105618333D01*
X22598571Y-105846904D02*
X22865238Y-105046904D01*
X23131904Y-105846904D01*
X23398571Y-105846904D02*
X23398571Y-105046904D01*
X23855714Y-105846904D01*
X23855714Y-105046904D01*
X24046190Y-105923095D02*
X24655714Y-105923095D01*
X24731904Y-105046904D02*
X25189047Y-105046904D01*
X24960476Y-105846904D02*
X24960476Y-105046904D01*
X25379523Y-105846904D02*
X25798571Y-105313571D01*
X25379523Y-105313571D02*
X25798571Y-105846904D01*
X26941428Y-106151666D02*
X26903333Y-106113571D01*
X26827142Y-105999285D01*
X26789047Y-105923095D01*
X26750952Y-105808809D01*
X26712857Y-105618333D01*
X26712857Y-105465952D01*
X26750952Y-105275476D01*
X26789047Y-105161190D01*
X26827142Y-105085000D01*
X26903333Y-104970714D01*
X26941428Y-104932619D01*
X27512857Y-105427857D02*
X27627142Y-105465952D01*
X27665238Y-105504047D01*
X27703333Y-105580238D01*
X27703333Y-105694523D01*
X27665238Y-105770714D01*
X27627142Y-105808809D01*
X27550952Y-105846904D01*
X27246190Y-105846904D01*
X27246190Y-105046904D01*
X27512857Y-105046904D01*
X27589047Y-105085000D01*
X27627142Y-105123095D01*
X27665238Y-105199285D01*
X27665238Y-105275476D01*
X27627142Y-105351666D01*
X27589047Y-105389761D01*
X27512857Y-105427857D01*
X27246190Y-105427857D01*
X28160476Y-105846904D02*
X28084285Y-105808809D01*
X28046190Y-105732619D01*
X28046190Y-105046904D01*
X28808095Y-105313571D02*
X28808095Y-105846904D01*
X28465238Y-105313571D02*
X28465238Y-105732619D01*
X28503333Y-105808809D01*
X28579523Y-105846904D01*
X28693809Y-105846904D01*
X28770000Y-105808809D01*
X28808095Y-105770714D01*
X29493809Y-105808809D02*
X29417619Y-105846904D01*
X29265238Y-105846904D01*
X29189047Y-105808809D01*
X29150952Y-105732619D01*
X29150952Y-105427857D01*
X29189047Y-105351666D01*
X29265238Y-105313571D01*
X29417619Y-105313571D01*
X29493809Y-105351666D01*
X29531904Y-105427857D01*
X29531904Y-105504047D01*
X29150952Y-105580238D01*
X29798571Y-106151666D02*
X29836666Y-106113571D01*
X29912857Y-105999285D01*
X29950952Y-105923095D01*
X29989047Y-105808809D01*
X30027142Y-105618333D01*
X30027142Y-105465952D01*
X29989047Y-105275476D01*
X29950952Y-105161190D01*
X29912857Y-105085000D01*
X29836666Y-104970714D01*
X29798571Y-104932619D01*
X25074761Y-107496904D02*
X24693809Y-107496904D01*
X24693809Y-106696904D01*
X25341428Y-107077857D02*
X25608095Y-107077857D01*
X25722380Y-107496904D02*
X25341428Y-107496904D01*
X25341428Y-106696904D01*
X25722380Y-106696904D01*
X26065238Y-107496904D02*
X26065238Y-106696904D01*
X26255714Y-106696904D01*
X26370000Y-106735000D01*
X26446190Y-106811190D01*
X26484285Y-106887380D01*
X26522380Y-107039761D01*
X26522380Y-107154047D01*
X26484285Y-107306428D01*
X26446190Y-107382619D01*
X26370000Y-107458809D01*
X26255714Y-107496904D01*
X26065238Y-107496904D01*
X26903333Y-107496904D02*
X27055714Y-107496904D01*
X27131904Y-107458809D01*
X27170000Y-107420714D01*
X27246190Y-107306428D01*
X27284285Y-107154047D01*
X27284285Y-106849285D01*
X27246190Y-106773095D01*
X27208095Y-106735000D01*
X27131904Y-106696904D01*
X26979523Y-106696904D01*
X26903333Y-106735000D01*
X26865238Y-106773095D01*
X26827142Y-106849285D01*
X26827142Y-107039761D01*
X26865238Y-107115952D01*
X26903333Y-107154047D01*
X26979523Y-107192142D01*
X27131904Y-107192142D01*
X27208095Y-107154047D01*
X27246190Y-107115952D01*
X27284285Y-107039761D01*
%TO.C,LED1*%
X53329285Y-142356904D02*
X52948333Y-142356904D01*
X52910238Y-142737857D01*
X52948333Y-142699761D01*
X53024523Y-142661666D01*
X53215000Y-142661666D01*
X53291190Y-142699761D01*
X53329285Y-142737857D01*
X53367380Y-142814047D01*
X53367380Y-143004523D01*
X53329285Y-143080714D01*
X53291190Y-143118809D01*
X53215000Y-143156904D01*
X53024523Y-143156904D01*
X52948333Y-143118809D01*
X52910238Y-143080714D01*
X53595952Y-142356904D02*
X53862619Y-143156904D01*
X54129285Y-142356904D01*
X55234047Y-143461666D02*
X55195952Y-143423571D01*
X55119761Y-143309285D01*
X55081666Y-143233095D01*
X55043571Y-143118809D01*
X55005476Y-142928333D01*
X55005476Y-142775952D01*
X55043571Y-142585476D01*
X55081666Y-142471190D01*
X55119761Y-142395000D01*
X55195952Y-142280714D01*
X55234047Y-142242619D01*
X55957857Y-142395000D02*
X55881666Y-142356904D01*
X55767380Y-142356904D01*
X55653095Y-142395000D01*
X55576904Y-142471190D01*
X55538809Y-142547380D01*
X55500714Y-142699761D01*
X55500714Y-142814047D01*
X55538809Y-142966428D01*
X55576904Y-143042619D01*
X55653095Y-143118809D01*
X55767380Y-143156904D01*
X55843571Y-143156904D01*
X55957857Y-143118809D01*
X55995952Y-143080714D01*
X55995952Y-142814047D01*
X55843571Y-142814047D01*
X56338809Y-143156904D02*
X56338809Y-142623571D01*
X56338809Y-142775952D02*
X56376904Y-142699761D01*
X56415000Y-142661666D01*
X56491190Y-142623571D01*
X56567380Y-142623571D01*
X57138809Y-143118809D02*
X57062619Y-143156904D01*
X56910238Y-143156904D01*
X56834047Y-143118809D01*
X56795952Y-143042619D01*
X56795952Y-142737857D01*
X56834047Y-142661666D01*
X56910238Y-142623571D01*
X57062619Y-142623571D01*
X57138809Y-142661666D01*
X57176904Y-142737857D01*
X57176904Y-142814047D01*
X56795952Y-142890238D01*
X57824523Y-143118809D02*
X57748333Y-143156904D01*
X57595952Y-143156904D01*
X57519761Y-143118809D01*
X57481666Y-143042619D01*
X57481666Y-142737857D01*
X57519761Y-142661666D01*
X57595952Y-142623571D01*
X57748333Y-142623571D01*
X57824523Y-142661666D01*
X57862619Y-142737857D01*
X57862619Y-142814047D01*
X57481666Y-142890238D01*
X58205476Y-142623571D02*
X58205476Y-143156904D01*
X58205476Y-142699761D02*
X58243571Y-142661666D01*
X58319761Y-142623571D01*
X58434047Y-142623571D01*
X58510238Y-142661666D01*
X58548333Y-142737857D01*
X58548333Y-143156904D01*
X58853095Y-143461666D02*
X58891190Y-143423571D01*
X58967380Y-143309285D01*
X59005476Y-143233095D01*
X59043571Y-143118809D01*
X59081666Y-142928333D01*
X59081666Y-142775952D01*
X59043571Y-142585476D01*
X59005476Y-142471190D01*
X58967380Y-142395000D01*
X58891190Y-142280714D01*
X58853095Y-142242619D01*
X55119761Y-141506904D02*
X54738809Y-141506904D01*
X54738809Y-140706904D01*
X55386428Y-141087857D02*
X55653095Y-141087857D01*
X55767380Y-141506904D02*
X55386428Y-141506904D01*
X55386428Y-140706904D01*
X55767380Y-140706904D01*
X56110238Y-141506904D02*
X56110238Y-140706904D01*
X56300714Y-140706904D01*
X56415000Y-140745000D01*
X56491190Y-140821190D01*
X56529285Y-140897380D01*
X56567380Y-141049761D01*
X56567380Y-141164047D01*
X56529285Y-141316428D01*
X56491190Y-141392619D01*
X56415000Y-141468809D01*
X56300714Y-141506904D01*
X56110238Y-141506904D01*
X57329285Y-141506904D02*
X56872142Y-141506904D01*
X57100714Y-141506904D02*
X57100714Y-140706904D01*
X57024523Y-140821190D01*
X56948333Y-140897380D01*
X56872142Y-140935476D01*
%TO.C,U1*%
X53453690Y-152421904D02*
X53187023Y-152040952D01*
X52996547Y-152421904D02*
X52996547Y-151621904D01*
X53301309Y-151621904D01*
X53377500Y-151660000D01*
X53415595Y-151698095D01*
X53453690Y-151774285D01*
X53453690Y-151888571D01*
X53415595Y-151964761D01*
X53377500Y-152002857D01*
X53301309Y-152040952D01*
X52996547Y-152040952D01*
X53796547Y-152421904D02*
X53796547Y-151621904D01*
X54101309Y-151621904D02*
X54596547Y-151621904D01*
X54329880Y-151926666D01*
X54444166Y-151926666D01*
X54520357Y-151964761D01*
X54558452Y-152002857D01*
X54596547Y-152079047D01*
X54596547Y-152269523D01*
X54558452Y-152345714D01*
X54520357Y-152383809D01*
X54444166Y-152421904D01*
X54215595Y-152421904D01*
X54139404Y-152383809D01*
X54101309Y-152345714D01*
X54939404Y-152117142D02*
X55548928Y-152117142D01*
X56348928Y-152421904D02*
X55891785Y-152421904D01*
X56120357Y-152421904D02*
X56120357Y-151621904D01*
X56044166Y-151736190D01*
X55967976Y-151812380D01*
X55891785Y-151850476D01*
X56653690Y-151698095D02*
X56691785Y-151660000D01*
X56767976Y-151621904D01*
X56958452Y-151621904D01*
X57034642Y-151660000D01*
X57072738Y-151698095D01*
X57110833Y-151774285D01*
X57110833Y-151850476D01*
X57072738Y-151964761D01*
X56615595Y-152421904D01*
X57110833Y-152421904D01*
X57606071Y-151621904D02*
X57682261Y-151621904D01*
X57758452Y-151660000D01*
X57796547Y-151698095D01*
X57834642Y-151774285D01*
X57872738Y-151926666D01*
X57872738Y-152117142D01*
X57834642Y-152269523D01*
X57796547Y-152345714D01*
X57758452Y-152383809D01*
X57682261Y-152421904D01*
X57606071Y-152421904D01*
X57529880Y-152383809D01*
X57491785Y-152345714D01*
X57453690Y-152269523D01*
X57415595Y-152117142D01*
X57415595Y-151926666D01*
X57453690Y-151774285D01*
X57491785Y-151698095D01*
X57529880Y-151660000D01*
X57606071Y-151621904D01*
X58596547Y-151621904D02*
X58215595Y-151621904D01*
X58177500Y-152002857D01*
X58215595Y-151964761D01*
X58291785Y-151926666D01*
X58482261Y-151926666D01*
X58558452Y-151964761D01*
X58596547Y-152002857D01*
X58634642Y-152079047D01*
X58634642Y-152269523D01*
X58596547Y-152345714D01*
X58558452Y-152383809D01*
X58482261Y-152421904D01*
X58291785Y-152421904D01*
X58215595Y-152383809D01*
X58177500Y-152345714D01*
X58939404Y-152383809D02*
X59053690Y-152421904D01*
X59244166Y-152421904D01*
X59320357Y-152383809D01*
X59358452Y-152345714D01*
X59396547Y-152269523D01*
X59396547Y-152193333D01*
X59358452Y-152117142D01*
X59320357Y-152079047D01*
X59244166Y-152040952D01*
X59091785Y-152002857D01*
X59015595Y-151964761D01*
X58977500Y-151926666D01*
X58939404Y-151850476D01*
X58939404Y-151774285D01*
X58977500Y-151698095D01*
X59015595Y-151660000D01*
X59091785Y-151621904D01*
X59282261Y-151621904D01*
X59396547Y-151660000D01*
%TO.C,LED2*%
X48581428Y-123206904D02*
X48733809Y-123206904D01*
X48810000Y-123168809D01*
X48848095Y-123130714D01*
X48924285Y-123016428D01*
X48962380Y-122864047D01*
X48962380Y-122559285D01*
X48924285Y-122483095D01*
X48886190Y-122445000D01*
X48810000Y-122406904D01*
X48657619Y-122406904D01*
X48581428Y-122445000D01*
X48543333Y-122483095D01*
X48505238Y-122559285D01*
X48505238Y-122749761D01*
X48543333Y-122825952D01*
X48581428Y-122864047D01*
X48657619Y-122902142D01*
X48810000Y-122902142D01*
X48886190Y-122864047D01*
X48924285Y-122825952D01*
X48962380Y-122749761D01*
X49190952Y-122406904D02*
X49457619Y-123206904D01*
X49724285Y-122406904D01*
X50829047Y-123511666D02*
X50790952Y-123473571D01*
X50714761Y-123359285D01*
X50676666Y-123283095D01*
X50638571Y-123168809D01*
X50600476Y-122978333D01*
X50600476Y-122825952D01*
X50638571Y-122635476D01*
X50676666Y-122521190D01*
X50714761Y-122445000D01*
X50790952Y-122330714D01*
X50829047Y-122292619D01*
X51552857Y-122445000D02*
X51476666Y-122406904D01*
X51362380Y-122406904D01*
X51248095Y-122445000D01*
X51171904Y-122521190D01*
X51133809Y-122597380D01*
X51095714Y-122749761D01*
X51095714Y-122864047D01*
X51133809Y-123016428D01*
X51171904Y-123092619D01*
X51248095Y-123168809D01*
X51362380Y-123206904D01*
X51438571Y-123206904D01*
X51552857Y-123168809D01*
X51590952Y-123130714D01*
X51590952Y-122864047D01*
X51438571Y-122864047D01*
X51933809Y-123206904D02*
X51933809Y-122673571D01*
X51933809Y-122825952D02*
X51971904Y-122749761D01*
X52010000Y-122711666D01*
X52086190Y-122673571D01*
X52162380Y-122673571D01*
X52733809Y-123168809D02*
X52657619Y-123206904D01*
X52505238Y-123206904D01*
X52429047Y-123168809D01*
X52390952Y-123092619D01*
X52390952Y-122787857D01*
X52429047Y-122711666D01*
X52505238Y-122673571D01*
X52657619Y-122673571D01*
X52733809Y-122711666D01*
X52771904Y-122787857D01*
X52771904Y-122864047D01*
X52390952Y-122940238D01*
X53419523Y-123168809D02*
X53343333Y-123206904D01*
X53190952Y-123206904D01*
X53114761Y-123168809D01*
X53076666Y-123092619D01*
X53076666Y-122787857D01*
X53114761Y-122711666D01*
X53190952Y-122673571D01*
X53343333Y-122673571D01*
X53419523Y-122711666D01*
X53457619Y-122787857D01*
X53457619Y-122864047D01*
X53076666Y-122940238D01*
X53800476Y-122673571D02*
X53800476Y-123206904D01*
X53800476Y-122749761D02*
X53838571Y-122711666D01*
X53914761Y-122673571D01*
X54029047Y-122673571D01*
X54105238Y-122711666D01*
X54143333Y-122787857D01*
X54143333Y-123206904D01*
X54448095Y-123511666D02*
X54486190Y-123473571D01*
X54562380Y-123359285D01*
X54600476Y-123283095D01*
X54638571Y-123168809D01*
X54676666Y-122978333D01*
X54676666Y-122825952D01*
X54638571Y-122635476D01*
X54600476Y-122521190D01*
X54562380Y-122445000D01*
X54486190Y-122330714D01*
X54448095Y-122292619D01*
X50714761Y-121556904D02*
X50333809Y-121556904D01*
X50333809Y-120756904D01*
X50981428Y-121137857D02*
X51248095Y-121137857D01*
X51362380Y-121556904D02*
X50981428Y-121556904D01*
X50981428Y-120756904D01*
X51362380Y-120756904D01*
X51705238Y-121556904D02*
X51705238Y-120756904D01*
X51895714Y-120756904D01*
X52010000Y-120795000D01*
X52086190Y-120871190D01*
X52124285Y-120947380D01*
X52162380Y-121099761D01*
X52162380Y-121214047D01*
X52124285Y-121366428D01*
X52086190Y-121442619D01*
X52010000Y-121518809D01*
X51895714Y-121556904D01*
X51705238Y-121556904D01*
X52467142Y-120833095D02*
X52505238Y-120795000D01*
X52581428Y-120756904D01*
X52771904Y-120756904D01*
X52848095Y-120795000D01*
X52886190Y-120833095D01*
X52924285Y-120909285D01*
X52924285Y-120985476D01*
X52886190Y-121099761D01*
X52429047Y-121556904D01*
X52924285Y-121556904D01*
%TO.C,Q1*%
X59936904Y-45865714D02*
X59136904Y-45865714D01*
X59936904Y-45408571D01*
X59136904Y-45408571D01*
X59936904Y-45027619D02*
X59136904Y-45027619D01*
X59708333Y-44760952D01*
X59136904Y-44494285D01*
X59936904Y-44494285D01*
X59136904Y-43960952D02*
X59136904Y-43808571D01*
X59175000Y-43732380D01*
X59251190Y-43656190D01*
X59403571Y-43618095D01*
X59670238Y-43618095D01*
X59822619Y-43656190D01*
X59898809Y-43732380D01*
X59936904Y-43808571D01*
X59936904Y-43960952D01*
X59898809Y-44037142D01*
X59822619Y-44113333D01*
X59670238Y-44151428D01*
X59403571Y-44151428D01*
X59251190Y-44113333D01*
X59175000Y-44037142D01*
X59136904Y-43960952D01*
X59898809Y-43313333D02*
X59936904Y-43199047D01*
X59936904Y-43008571D01*
X59898809Y-42932380D01*
X59860714Y-42894285D01*
X59784523Y-42856190D01*
X59708333Y-42856190D01*
X59632142Y-42894285D01*
X59594047Y-42932380D01*
X59555952Y-43008571D01*
X59517857Y-43160952D01*
X59479761Y-43237142D01*
X59441666Y-43275238D01*
X59365476Y-43313333D01*
X59289285Y-43313333D01*
X59213095Y-43275238D01*
X59175000Y-43237142D01*
X59136904Y-43160952D01*
X59136904Y-42970476D01*
X59175000Y-42856190D01*
X67413095Y-44456190D02*
X67375000Y-44532380D01*
X67298809Y-44608571D01*
X67184523Y-44722857D01*
X67146428Y-44799047D01*
X67146428Y-44875238D01*
X67336904Y-44837142D02*
X67298809Y-44913333D01*
X67222619Y-44989523D01*
X67070238Y-45027619D01*
X66803571Y-45027619D01*
X66651190Y-44989523D01*
X66575000Y-44913333D01*
X66536904Y-44837142D01*
X66536904Y-44684761D01*
X66575000Y-44608571D01*
X66651190Y-44532380D01*
X66803571Y-44494285D01*
X67070238Y-44494285D01*
X67222619Y-44532380D01*
X67298809Y-44608571D01*
X67336904Y-44684761D01*
X67336904Y-44837142D01*
X67336904Y-43732380D02*
X67336904Y-44189523D01*
X67336904Y-43960952D02*
X66536904Y-43960952D01*
X66651190Y-44037142D01*
X66727380Y-44113333D01*
X66765476Y-44189523D01*
%TO.C,D4*%
X88093809Y-46825952D02*
X88131904Y-46711666D01*
X88131904Y-46521190D01*
X88093809Y-46445000D01*
X88055714Y-46406904D01*
X87979523Y-46368809D01*
X87903333Y-46368809D01*
X87827142Y-46406904D01*
X87789047Y-46445000D01*
X87750952Y-46521190D01*
X87712857Y-46673571D01*
X87674761Y-46749761D01*
X87636666Y-46787857D01*
X87560476Y-46825952D01*
X87484285Y-46825952D01*
X87408095Y-46787857D01*
X87370000Y-46749761D01*
X87331904Y-46673571D01*
X87331904Y-46483095D01*
X87370000Y-46368809D01*
X88093809Y-45683095D02*
X88131904Y-45759285D01*
X88131904Y-45911666D01*
X88093809Y-45987857D01*
X88055714Y-46025952D01*
X87979523Y-46064047D01*
X87750952Y-46064047D01*
X87674761Y-46025952D01*
X87636666Y-45987857D01*
X87598571Y-45911666D01*
X87598571Y-45759285D01*
X87636666Y-45683095D01*
X88131904Y-45340238D02*
X87331904Y-45340238D01*
X88131904Y-44997380D02*
X87712857Y-44997380D01*
X87636666Y-45035476D01*
X87598571Y-45111666D01*
X87598571Y-45225952D01*
X87636666Y-45302142D01*
X87674761Y-45340238D01*
X88131904Y-44502142D02*
X88093809Y-44578333D01*
X88055714Y-44616428D01*
X87979523Y-44654523D01*
X87750952Y-44654523D01*
X87674761Y-44616428D01*
X87636666Y-44578333D01*
X87598571Y-44502142D01*
X87598571Y-44387857D01*
X87636666Y-44311666D01*
X87674761Y-44273571D01*
X87750952Y-44235476D01*
X87979523Y-44235476D01*
X88055714Y-44273571D01*
X88093809Y-44311666D01*
X88131904Y-44387857D01*
X88131904Y-44502142D01*
X87598571Y-44006904D02*
X87598571Y-43702142D01*
X87331904Y-43892619D02*
X88017619Y-43892619D01*
X88093809Y-43854523D01*
X88131904Y-43778333D01*
X88131904Y-43702142D01*
X87598571Y-43549761D02*
X87598571Y-43245000D01*
X87331904Y-43435476D02*
X88017619Y-43435476D01*
X88093809Y-43397380D01*
X88131904Y-43321190D01*
X88131904Y-43245000D01*
X88131904Y-42978333D02*
X87331904Y-42978333D01*
X87827142Y-42902142D02*
X88131904Y-42673571D01*
X87598571Y-42673571D02*
X87903333Y-42978333D01*
X87598571Y-42406904D02*
X88131904Y-42216428D01*
X87598571Y-42025952D02*
X88131904Y-42216428D01*
X88322380Y-42292619D01*
X88360476Y-42330714D01*
X88398571Y-42406904D01*
X94901904Y-45035476D02*
X94101904Y-45035476D01*
X94101904Y-44845000D01*
X94140000Y-44730714D01*
X94216190Y-44654523D01*
X94292380Y-44616428D01*
X94444761Y-44578333D01*
X94559047Y-44578333D01*
X94711428Y-44616428D01*
X94787619Y-44654523D01*
X94863809Y-44730714D01*
X94901904Y-44845000D01*
X94901904Y-45035476D01*
X94368571Y-43892619D02*
X94901904Y-43892619D01*
X94063809Y-44083095D02*
X94635238Y-44273571D01*
X94635238Y-43778333D01*
%TO.C,Q2*%
X75746904Y-45835714D02*
X74946904Y-45835714D01*
X75746904Y-45378571D01*
X74946904Y-45378571D01*
X75746904Y-44997619D02*
X74946904Y-44997619D01*
X75518333Y-44730952D01*
X74946904Y-44464285D01*
X75746904Y-44464285D01*
X74946904Y-43930952D02*
X74946904Y-43778571D01*
X74985000Y-43702380D01*
X75061190Y-43626190D01*
X75213571Y-43588095D01*
X75480238Y-43588095D01*
X75632619Y-43626190D01*
X75708809Y-43702380D01*
X75746904Y-43778571D01*
X75746904Y-43930952D01*
X75708809Y-44007142D01*
X75632619Y-44083333D01*
X75480238Y-44121428D01*
X75213571Y-44121428D01*
X75061190Y-44083333D01*
X74985000Y-44007142D01*
X74946904Y-43930952D01*
X75708809Y-43283333D02*
X75746904Y-43169047D01*
X75746904Y-42978571D01*
X75708809Y-42902380D01*
X75670714Y-42864285D01*
X75594523Y-42826190D01*
X75518333Y-42826190D01*
X75442142Y-42864285D01*
X75404047Y-42902380D01*
X75365952Y-42978571D01*
X75327857Y-43130952D01*
X75289761Y-43207142D01*
X75251666Y-43245238D01*
X75175476Y-43283333D01*
X75099285Y-43283333D01*
X75023095Y-43245238D01*
X74985000Y-43207142D01*
X74946904Y-43130952D01*
X74946904Y-42940476D01*
X74985000Y-42826190D01*
X68423095Y-44426190D02*
X68385000Y-44502380D01*
X68308809Y-44578571D01*
X68194523Y-44692857D01*
X68156428Y-44769047D01*
X68156428Y-44845238D01*
X68346904Y-44807142D02*
X68308809Y-44883333D01*
X68232619Y-44959523D01*
X68080238Y-44997619D01*
X67813571Y-44997619D01*
X67661190Y-44959523D01*
X67585000Y-44883333D01*
X67546904Y-44807142D01*
X67546904Y-44654761D01*
X67585000Y-44578571D01*
X67661190Y-44502380D01*
X67813571Y-44464285D01*
X68080238Y-44464285D01*
X68232619Y-44502380D01*
X68308809Y-44578571D01*
X68346904Y-44654761D01*
X68346904Y-44807142D01*
X67623095Y-44159523D02*
X67585000Y-44121428D01*
X67546904Y-44045238D01*
X67546904Y-43854761D01*
X67585000Y-43778571D01*
X67623095Y-43740476D01*
X67699285Y-43702380D01*
X67775476Y-43702380D01*
X67889761Y-43740476D01*
X68346904Y-44197619D01*
X68346904Y-43702380D01*
%TO.C,LED4*%
X96236904Y-149313571D02*
X96236904Y-149161190D01*
X96198809Y-149085000D01*
X96160714Y-149046904D01*
X96046428Y-148970714D01*
X95894047Y-148932619D01*
X95589285Y-148932619D01*
X95513095Y-148970714D01*
X95475000Y-149008809D01*
X95436904Y-149085000D01*
X95436904Y-149237380D01*
X95475000Y-149313571D01*
X95513095Y-149351666D01*
X95589285Y-149389761D01*
X95779761Y-149389761D01*
X95855952Y-149351666D01*
X95894047Y-149313571D01*
X95932142Y-149237380D01*
X95932142Y-149085000D01*
X95894047Y-149008809D01*
X95855952Y-148970714D01*
X95779761Y-148932619D01*
X95436904Y-148704047D02*
X96236904Y-148437380D01*
X95436904Y-148170714D01*
X96541666Y-147065952D02*
X96503571Y-147104047D01*
X96389285Y-147180238D01*
X96313095Y-147218333D01*
X96198809Y-147256428D01*
X96008333Y-147294523D01*
X95855952Y-147294523D01*
X95665476Y-147256428D01*
X95551190Y-147218333D01*
X95475000Y-147180238D01*
X95360714Y-147104047D01*
X95322619Y-147065952D01*
X95475000Y-146342142D02*
X95436904Y-146418333D01*
X95436904Y-146532619D01*
X95475000Y-146646904D01*
X95551190Y-146723095D01*
X95627380Y-146761190D01*
X95779761Y-146799285D01*
X95894047Y-146799285D01*
X96046428Y-146761190D01*
X96122619Y-146723095D01*
X96198809Y-146646904D01*
X96236904Y-146532619D01*
X96236904Y-146456428D01*
X96198809Y-146342142D01*
X96160714Y-146304047D01*
X95894047Y-146304047D01*
X95894047Y-146456428D01*
X96236904Y-145961190D02*
X95703571Y-145961190D01*
X95855952Y-145961190D02*
X95779761Y-145923095D01*
X95741666Y-145885000D01*
X95703571Y-145808809D01*
X95703571Y-145732619D01*
X96198809Y-145161190D02*
X96236904Y-145237380D01*
X96236904Y-145389761D01*
X96198809Y-145465952D01*
X96122619Y-145504047D01*
X95817857Y-145504047D01*
X95741666Y-145465952D01*
X95703571Y-145389761D01*
X95703571Y-145237380D01*
X95741666Y-145161190D01*
X95817857Y-145123095D01*
X95894047Y-145123095D01*
X95970238Y-145504047D01*
X96198809Y-144475476D02*
X96236904Y-144551666D01*
X96236904Y-144704047D01*
X96198809Y-144780238D01*
X96122619Y-144818333D01*
X95817857Y-144818333D01*
X95741666Y-144780238D01*
X95703571Y-144704047D01*
X95703571Y-144551666D01*
X95741666Y-144475476D01*
X95817857Y-144437380D01*
X95894047Y-144437380D01*
X95970238Y-144818333D01*
X95703571Y-144094523D02*
X96236904Y-144094523D01*
X95779761Y-144094523D02*
X95741666Y-144056428D01*
X95703571Y-143980238D01*
X95703571Y-143865952D01*
X95741666Y-143789761D01*
X95817857Y-143751666D01*
X96236904Y-143751666D01*
X96541666Y-143446904D02*
X96503571Y-143408809D01*
X96389285Y-143332619D01*
X96313095Y-143294523D01*
X96198809Y-143256428D01*
X96008333Y-143218333D01*
X95855952Y-143218333D01*
X95665476Y-143256428D01*
X95551190Y-143294523D01*
X95475000Y-143332619D01*
X95360714Y-143408809D01*
X95322619Y-143446904D01*
X97886904Y-147180238D02*
X97886904Y-147561190D01*
X97086904Y-147561190D01*
X97467857Y-146913571D02*
X97467857Y-146646904D01*
X97886904Y-146532619D02*
X97886904Y-146913571D01*
X97086904Y-146913571D01*
X97086904Y-146532619D01*
X97886904Y-146189761D02*
X97086904Y-146189761D01*
X97086904Y-145999285D01*
X97125000Y-145885000D01*
X97201190Y-145808809D01*
X97277380Y-145770714D01*
X97429761Y-145732619D01*
X97544047Y-145732619D01*
X97696428Y-145770714D01*
X97772619Y-145808809D01*
X97848809Y-145885000D01*
X97886904Y-145999285D01*
X97886904Y-146189761D01*
X97353571Y-145046904D02*
X97886904Y-145046904D01*
X97048809Y-145237380D02*
X97620238Y-145427857D01*
X97620238Y-144932619D01*
%TO.C,F1*%
X113455714Y-138016857D02*
X113189047Y-138016857D01*
X113189047Y-138435904D02*
X113189047Y-137635904D01*
X113570000Y-137635904D01*
X114217619Y-137902571D02*
X114217619Y-138435904D01*
X113874761Y-137902571D02*
X113874761Y-138321619D01*
X113912857Y-138397809D01*
X113989047Y-138435904D01*
X114103333Y-138435904D01*
X114179523Y-138397809D01*
X114217619Y-138359714D01*
X114560476Y-138397809D02*
X114636666Y-138435904D01*
X114789047Y-138435904D01*
X114865238Y-138397809D01*
X114903333Y-138321619D01*
X114903333Y-138283523D01*
X114865238Y-138207333D01*
X114789047Y-138169238D01*
X114674761Y-138169238D01*
X114598571Y-138131142D01*
X114560476Y-138054952D01*
X114560476Y-138016857D01*
X114598571Y-137940666D01*
X114674761Y-137902571D01*
X114789047Y-137902571D01*
X114865238Y-137940666D01*
X115550952Y-138397809D02*
X115474761Y-138435904D01*
X115322380Y-138435904D01*
X115246190Y-138397809D01*
X115208095Y-138321619D01*
X115208095Y-138016857D01*
X115246190Y-137940666D01*
X115322380Y-137902571D01*
X115474761Y-137902571D01*
X115550952Y-137940666D01*
X115589047Y-138016857D01*
X115589047Y-138093047D01*
X115208095Y-138169238D01*
%TO.C,U3*%
X58291904Y-79803333D02*
X58939523Y-79803333D01*
X59015714Y-79765238D01*
X59053809Y-79727142D01*
X59091904Y-79650952D01*
X59091904Y-79498571D01*
X59053809Y-79422380D01*
X59015714Y-79384285D01*
X58939523Y-79346190D01*
X58291904Y-79346190D01*
X59015714Y-78508095D02*
X59053809Y-78546190D01*
X59091904Y-78660476D01*
X59091904Y-78736666D01*
X59053809Y-78850952D01*
X58977619Y-78927142D01*
X58901428Y-78965238D01*
X58749047Y-79003333D01*
X58634761Y-79003333D01*
X58482380Y-78965238D01*
X58406190Y-78927142D01*
X58330000Y-78850952D01*
X58291904Y-78736666D01*
X58291904Y-78660476D01*
X58330000Y-78546190D01*
X58368095Y-78508095D01*
X59015714Y-77708095D02*
X59053809Y-77746190D01*
X59091904Y-77860476D01*
X59091904Y-77936666D01*
X59053809Y-78050952D01*
X58977619Y-78127142D01*
X58901428Y-78165238D01*
X58749047Y-78203333D01*
X58634761Y-78203333D01*
X58482380Y-78165238D01*
X58406190Y-78127142D01*
X58330000Y-78050952D01*
X58291904Y-77936666D01*
X58291904Y-77860476D01*
X58330000Y-77746190D01*
X58368095Y-77708095D01*
X58291904Y-77441428D02*
X58291904Y-76946190D01*
X58596666Y-77212857D01*
X58596666Y-77098571D01*
X58634761Y-77022380D01*
X58672857Y-76984285D01*
X58749047Y-76946190D01*
X58939523Y-76946190D01*
X59015714Y-76984285D01*
X59053809Y-77022380D01*
X59091904Y-77098571D01*
X59091904Y-77327142D01*
X59053809Y-77403333D01*
X59015714Y-77441428D01*
X58291904Y-76679523D02*
X58291904Y-76146190D01*
X59091904Y-76489047D01*
X58291904Y-75917619D02*
X58291904Y-75422380D01*
X58596666Y-75689047D01*
X58596666Y-75574761D01*
X58634761Y-75498571D01*
X58672857Y-75460476D01*
X58749047Y-75422380D01*
X58939523Y-75422380D01*
X59015714Y-75460476D01*
X59053809Y-75498571D01*
X59091904Y-75574761D01*
X59091904Y-75803333D01*
X59053809Y-75879523D01*
X59015714Y-75917619D01*
X58368095Y-75117619D02*
X58330000Y-75079523D01*
X58291904Y-75003333D01*
X58291904Y-74812857D01*
X58330000Y-74736666D01*
X58368095Y-74698571D01*
X58444285Y-74660476D01*
X58520476Y-74660476D01*
X58634761Y-74698571D01*
X59091904Y-75155714D01*
X59091904Y-74660476D01*
X59091904Y-73898571D02*
X59091904Y-74355714D01*
X59091904Y-74127142D02*
X58291904Y-74127142D01*
X58406190Y-74203333D01*
X58482380Y-74279523D01*
X58520476Y-74355714D01*
X54891904Y-77479523D02*
X55539523Y-77479523D01*
X55615714Y-77441428D01*
X55653809Y-77403333D01*
X55691904Y-77327142D01*
X55691904Y-77174761D01*
X55653809Y-77098571D01*
X55615714Y-77060476D01*
X55539523Y-77022380D01*
X54891904Y-77022380D01*
X54891904Y-76717619D02*
X54891904Y-76222380D01*
X55196666Y-76489047D01*
X55196666Y-76374761D01*
X55234761Y-76298571D01*
X55272857Y-76260476D01*
X55349047Y-76222380D01*
X55539523Y-76222380D01*
X55615714Y-76260476D01*
X55653809Y-76298571D01*
X55691904Y-76374761D01*
X55691904Y-76603333D01*
X55653809Y-76679523D01*
X55615714Y-76717619D01*
%TO.C,LED6*%
X21398571Y-96331904D02*
X21855714Y-96331904D01*
X21627142Y-97131904D02*
X21627142Y-96331904D01*
X22122380Y-97131904D02*
X22122380Y-96598571D01*
X22122380Y-96750952D02*
X22160476Y-96674761D01*
X22198571Y-96636666D01*
X22274761Y-96598571D01*
X22350952Y-96598571D01*
X22960476Y-97131904D02*
X22960476Y-96712857D01*
X22922380Y-96636666D01*
X22846190Y-96598571D01*
X22693809Y-96598571D01*
X22617619Y-96636666D01*
X22960476Y-97093809D02*
X22884285Y-97131904D01*
X22693809Y-97131904D01*
X22617619Y-97093809D01*
X22579523Y-97017619D01*
X22579523Y-96941428D01*
X22617619Y-96865238D01*
X22693809Y-96827142D01*
X22884285Y-96827142D01*
X22960476Y-96789047D01*
X23684285Y-97093809D02*
X23608095Y-97131904D01*
X23455714Y-97131904D01*
X23379523Y-97093809D01*
X23341428Y-97055714D01*
X23303333Y-96979523D01*
X23303333Y-96750952D01*
X23341428Y-96674761D01*
X23379523Y-96636666D01*
X23455714Y-96598571D01*
X23608095Y-96598571D01*
X23684285Y-96636666D01*
X24027142Y-97131904D02*
X24027142Y-96331904D01*
X24103333Y-96827142D02*
X24331904Y-97131904D01*
X24331904Y-96598571D02*
X24027142Y-96903333D01*
X24674761Y-97131904D02*
X24674761Y-96598571D01*
X24674761Y-96331904D02*
X24636666Y-96370000D01*
X24674761Y-96408095D01*
X24712857Y-96370000D01*
X24674761Y-96331904D01*
X24674761Y-96408095D01*
X25055714Y-96598571D02*
X25055714Y-97131904D01*
X25055714Y-96674761D02*
X25093809Y-96636666D01*
X25170000Y-96598571D01*
X25284285Y-96598571D01*
X25360476Y-96636666D01*
X25398571Y-96712857D01*
X25398571Y-97131904D01*
X26122380Y-96598571D02*
X26122380Y-97246190D01*
X26084285Y-97322380D01*
X26046190Y-97360476D01*
X25970000Y-97398571D01*
X25855714Y-97398571D01*
X25779523Y-97360476D01*
X26122380Y-97093809D02*
X26046190Y-97131904D01*
X25893809Y-97131904D01*
X25817619Y-97093809D01*
X25779523Y-97055714D01*
X25741428Y-96979523D01*
X25741428Y-96750952D01*
X25779523Y-96674761D01*
X25817619Y-96636666D01*
X25893809Y-96598571D01*
X26046190Y-96598571D01*
X26122380Y-96636666D01*
X27341428Y-97436666D02*
X27303333Y-97398571D01*
X27227142Y-97284285D01*
X27189047Y-97208095D01*
X27150952Y-97093809D01*
X27112857Y-96903333D01*
X27112857Y-96750952D01*
X27150952Y-96560476D01*
X27189047Y-96446190D01*
X27227142Y-96370000D01*
X27303333Y-96255714D01*
X27341428Y-96217619D01*
X27912857Y-96712857D02*
X28027142Y-96750952D01*
X28065238Y-96789047D01*
X28103333Y-96865238D01*
X28103333Y-96979523D01*
X28065238Y-97055714D01*
X28027142Y-97093809D01*
X27950952Y-97131904D01*
X27646190Y-97131904D01*
X27646190Y-96331904D01*
X27912857Y-96331904D01*
X27989047Y-96370000D01*
X28027142Y-96408095D01*
X28065238Y-96484285D01*
X28065238Y-96560476D01*
X28027142Y-96636666D01*
X27989047Y-96674761D01*
X27912857Y-96712857D01*
X27646190Y-96712857D01*
X28560476Y-97131904D02*
X28484285Y-97093809D01*
X28446190Y-97017619D01*
X28446190Y-96331904D01*
X29208095Y-96598571D02*
X29208095Y-97131904D01*
X28865238Y-96598571D02*
X28865238Y-97017619D01*
X28903333Y-97093809D01*
X28979523Y-97131904D01*
X29093809Y-97131904D01*
X29170000Y-97093809D01*
X29208095Y-97055714D01*
X29893809Y-97093809D02*
X29817619Y-97131904D01*
X29665238Y-97131904D01*
X29589047Y-97093809D01*
X29550952Y-97017619D01*
X29550952Y-96712857D01*
X29589047Y-96636666D01*
X29665238Y-96598571D01*
X29817619Y-96598571D01*
X29893809Y-96636666D01*
X29931904Y-96712857D01*
X29931904Y-96789047D01*
X29550952Y-96865238D01*
X30198571Y-97436666D02*
X30236666Y-97398571D01*
X30312857Y-97284285D01*
X30350952Y-97208095D01*
X30389047Y-97093809D01*
X30427142Y-96903333D01*
X30427142Y-96750952D01*
X30389047Y-96560476D01*
X30350952Y-96446190D01*
X30312857Y-96370000D01*
X30236666Y-96255714D01*
X30198571Y-96217619D01*
X25074761Y-98781904D02*
X24693809Y-98781904D01*
X24693809Y-97981904D01*
X25341428Y-98362857D02*
X25608095Y-98362857D01*
X25722380Y-98781904D02*
X25341428Y-98781904D01*
X25341428Y-97981904D01*
X25722380Y-97981904D01*
X26065238Y-98781904D02*
X26065238Y-97981904D01*
X26255714Y-97981904D01*
X26370000Y-98020000D01*
X26446190Y-98096190D01*
X26484285Y-98172380D01*
X26522380Y-98324761D01*
X26522380Y-98439047D01*
X26484285Y-98591428D01*
X26446190Y-98667619D01*
X26370000Y-98743809D01*
X26255714Y-98781904D01*
X26065238Y-98781904D01*
X27208095Y-97981904D02*
X27055714Y-97981904D01*
X26979523Y-98020000D01*
X26941428Y-98058095D01*
X26865238Y-98172380D01*
X26827142Y-98324761D01*
X26827142Y-98629523D01*
X26865238Y-98705714D01*
X26903333Y-98743809D01*
X26979523Y-98781904D01*
X27131904Y-98781904D01*
X27208095Y-98743809D01*
X27246190Y-98705714D01*
X27284285Y-98629523D01*
X27284285Y-98439047D01*
X27246190Y-98362857D01*
X27208095Y-98324761D01*
X27131904Y-98286666D01*
X26979523Y-98286666D01*
X26903333Y-98324761D01*
X26865238Y-98362857D01*
X26827142Y-98439047D01*
%TO.C,CP2*%
X77605952Y-94256904D02*
X77148809Y-94256904D01*
X77377380Y-94256904D02*
X77377380Y-93456904D01*
X77301190Y-93571190D01*
X77225000Y-93647380D01*
X77148809Y-93685476D01*
X78101190Y-93456904D02*
X78177380Y-93456904D01*
X78253571Y-93495000D01*
X78291666Y-93533095D01*
X78329761Y-93609285D01*
X78367857Y-93761666D01*
X78367857Y-93952142D01*
X78329761Y-94104523D01*
X78291666Y-94180714D01*
X78253571Y-94218809D01*
X78177380Y-94256904D01*
X78101190Y-94256904D01*
X78025000Y-94218809D01*
X77986904Y-94180714D01*
X77948809Y-94104523D01*
X77910714Y-93952142D01*
X77910714Y-93761666D01*
X77948809Y-93609285D01*
X77986904Y-93533095D01*
X78025000Y-93495000D01*
X78101190Y-93456904D01*
X78863095Y-93456904D02*
X78939285Y-93456904D01*
X79015476Y-93495000D01*
X79053571Y-93533095D01*
X79091666Y-93609285D01*
X79129761Y-93761666D01*
X79129761Y-93952142D01*
X79091666Y-94104523D01*
X79053571Y-94180714D01*
X79015476Y-94218809D01*
X78939285Y-94256904D01*
X78863095Y-94256904D01*
X78786904Y-94218809D01*
X78748809Y-94180714D01*
X78710714Y-94104523D01*
X78672619Y-93952142D01*
X78672619Y-93761666D01*
X78710714Y-93609285D01*
X78748809Y-93533095D01*
X78786904Y-93495000D01*
X78863095Y-93456904D01*
X79625000Y-93456904D02*
X79701190Y-93456904D01*
X79777380Y-93495000D01*
X79815476Y-93533095D01*
X79853571Y-93609285D01*
X79891666Y-93761666D01*
X79891666Y-93952142D01*
X79853571Y-94104523D01*
X79815476Y-94180714D01*
X79777380Y-94218809D01*
X79701190Y-94256904D01*
X79625000Y-94256904D01*
X79548809Y-94218809D01*
X79510714Y-94180714D01*
X79472619Y-94104523D01*
X79434523Y-93952142D01*
X79434523Y-93761666D01*
X79472619Y-93609285D01*
X79510714Y-93533095D01*
X79548809Y-93495000D01*
X79625000Y-93456904D01*
X80577380Y-93723571D02*
X80577380Y-94256904D01*
X80234523Y-93723571D02*
X80234523Y-94142619D01*
X80272619Y-94218809D01*
X80348809Y-94256904D01*
X80463095Y-94256904D01*
X80539285Y-94218809D01*
X80577380Y-94180714D01*
X81225000Y-93837857D02*
X80958333Y-93837857D01*
X80958333Y-94256904D02*
X80958333Y-93456904D01*
X81339285Y-93456904D01*
X81571666Y-110431714D02*
X81533571Y-110469809D01*
X81419285Y-110507904D01*
X81343095Y-110507904D01*
X81228809Y-110469809D01*
X81152619Y-110393619D01*
X81114523Y-110317428D01*
X81076428Y-110165047D01*
X81076428Y-110050761D01*
X81114523Y-109898380D01*
X81152619Y-109822190D01*
X81228809Y-109746000D01*
X81343095Y-109707904D01*
X81419285Y-109707904D01*
X81533571Y-109746000D01*
X81571666Y-109784095D01*
X81914523Y-110507904D02*
X81914523Y-109707904D01*
X82219285Y-109707904D01*
X82295476Y-109746000D01*
X82333571Y-109784095D01*
X82371666Y-109860285D01*
X82371666Y-109974571D01*
X82333571Y-110050761D01*
X82295476Y-110088857D01*
X82219285Y-110126952D01*
X81914523Y-110126952D01*
X82676428Y-109784095D02*
X82714523Y-109746000D01*
X82790714Y-109707904D01*
X82981190Y-109707904D01*
X83057380Y-109746000D01*
X83095476Y-109784095D01*
X83133571Y-109860285D01*
X83133571Y-109936476D01*
X83095476Y-110050761D01*
X82638333Y-110507904D01*
X83133571Y-110507904D01*
D11*
%TO.C,J2*%
X20775000Y-68035000D02*
X25145000Y-68035000D01*
X20775000Y-66835000D02*
X20775000Y-68035000D01*
X21982107Y-64710000D02*
X21275000Y-64210000D01*
X25145000Y-63910000D02*
X26545000Y-63910000D01*
X21905000Y-58385000D02*
X21275000Y-59585000D01*
X21275000Y-59585000D02*
X21275000Y-66835000D01*
X21275000Y-65210000D02*
X21982107Y-64710000D01*
X26545000Y-62510000D02*
X25145000Y-62510000D01*
X20775000Y-58385000D02*
X20775000Y-59585000D01*
X25145000Y-58385000D02*
X20775000Y-58385000D01*
X21905000Y-68035000D02*
X21275000Y-66835000D01*
X20775000Y-59585000D02*
X21275000Y-59585000D01*
X21275000Y-66835000D02*
X20775000Y-66835000D01*
X25145000Y-68035000D02*
X25145000Y-58385000D01*
X26545000Y-63910000D02*
X26545000Y-62510000D01*
%TO.C,J6*%
X29670000Y-150637500D02*
X29670000Y-150137500D01*
X44120000Y-146267500D02*
X28470000Y-146267500D01*
X40795000Y-149430393D02*
X40295000Y-150137500D01*
X35595000Y-144867500D02*
X35595000Y-146267500D01*
X29670000Y-150137500D02*
X42920000Y-150137500D01*
X28470000Y-149507500D02*
X29670000Y-150137500D01*
X42920000Y-150137500D02*
X42920000Y-150637500D01*
X42920000Y-150637500D02*
X44120000Y-150637500D01*
X44120000Y-149507500D02*
X42920000Y-150137500D01*
X28470000Y-150637500D02*
X29670000Y-150637500D01*
X36995000Y-144867500D02*
X35595000Y-144867500D01*
X36995000Y-146267500D02*
X36995000Y-144867500D01*
X28470000Y-146267500D02*
X28470000Y-150637500D01*
X44120000Y-150637500D02*
X44120000Y-146267500D01*
X41295000Y-150137500D02*
X40795000Y-149430393D01*
%TO.C,SW1*%
X20260000Y-72240000D02*
X26260000Y-72240000D01*
X20260000Y-78240000D02*
X20260000Y-75240000D01*
X26260000Y-72240000D02*
X26260000Y-78240000D01*
X20260000Y-75240000D02*
X20260000Y-72240000D01*
X26260000Y-78240000D02*
X20260000Y-78240000D01*
X25275564Y-75240000D02*
G75*
G03*
X25275564Y-75240000I-2015564J0D01*
G01*
%TO.C,HS3*%
X77985000Y-92475000D02*
X77985000Y-81475000D01*
X84735000Y-79475000D02*
X84735000Y-79725000D01*
X95975000Y-92565000D02*
X96775000Y-87655000D01*
X65685000Y-73875000D02*
X72945000Y-79465000D01*
X88235000Y-79475000D02*
X88235000Y-79725000D01*
X73985000Y-73725000D02*
X70885000Y-68175000D01*
X76995000Y-92565000D02*
X76195000Y-87655000D01*
X103285000Y-74225000D02*
X106935000Y-72975000D01*
X70335000Y-71675000D02*
X66285000Y-68075000D01*
X65685000Y-87075000D02*
X72945000Y-81485000D01*
X88235000Y-81225000D02*
X88235000Y-81475000D01*
X102985000Y-68475000D02*
X102235000Y-71425000D01*
X102985000Y-92475000D02*
X102235000Y-89525000D01*
X107285000Y-73875000D02*
X100025000Y-79465000D01*
X69685000Y-74225000D02*
X66035000Y-72975000D01*
X98985000Y-73725000D02*
X102085000Y-68175000D01*
X102635000Y-71675000D02*
X106685000Y-68075000D01*
X102635000Y-89275000D02*
X106685000Y-92875000D01*
X70335000Y-89275000D02*
X66285000Y-92875000D01*
X86485000Y-81475000D02*
X94985000Y-81475000D01*
X73985000Y-87225000D02*
X70885000Y-92775000D01*
X103035000Y-87125000D02*
X107285000Y-92075000D01*
X69935000Y-73825000D02*
X65685000Y-68875000D01*
X98985000Y-87225000D02*
X102085000Y-92775000D01*
X103285000Y-86725000D02*
X106935000Y-87975000D01*
X103035000Y-73825000D02*
X107285000Y-68875000D01*
X94985000Y-68475000D02*
X94985000Y-79475000D01*
X95975000Y-68385000D02*
X96775000Y-73295000D01*
X69985000Y-92475000D02*
X70735000Y-89525000D01*
X88235000Y-80225000D02*
X88235000Y-80725000D01*
X86485000Y-79475000D02*
X77985000Y-79475000D01*
X69985000Y-68475000D02*
X70735000Y-71425000D01*
X107285000Y-87075000D02*
X100025000Y-81485000D01*
X86485000Y-79475000D02*
X94985000Y-79475000D01*
X84735000Y-81475000D02*
X84735000Y-81225000D01*
X94985000Y-92475000D02*
X94985000Y-81475000D01*
X69685000Y-86725000D02*
X66035000Y-87975000D01*
X86485000Y-81475000D02*
X77985000Y-81475000D01*
X77985000Y-68475000D02*
X77985000Y-79475000D01*
X84735000Y-80225000D02*
X84735000Y-80725000D01*
X69935000Y-87125000D02*
X65685000Y-92075000D01*
X76995000Y-68385000D02*
X76195000Y-73295000D01*
X107285000Y-73875000D02*
G75*
G03*
X107385000Y-73175000I-299999J400000D01*
G01*
X66285000Y-68075000D02*
G75*
G03*
X65585000Y-68175000I-300000J-399999D01*
G01*
X69935000Y-74125000D02*
G75*
G03*
X69885000Y-73775000I-200001J150000D01*
G01*
X70485000Y-67975000D02*
G75*
G03*
X69985000Y-68475000I1J-500001D01*
G01*
X106935000Y-87975000D02*
G75*
G03*
X107485000Y-87525000I50000J500000D01*
G01*
X102985000Y-68475000D02*
G75*
G03*
X102485000Y-67975000I-500001J-1D01*
G01*
X102785000Y-68075000D02*
G75*
G03*
X102085000Y-68175000I-300000J-399999D01*
G01*
X65585000Y-73175000D02*
G75*
G03*
X65685000Y-73875000I399999J-300000D01*
G01*
X102285000Y-71625000D02*
G75*
G03*
X102635000Y-71675000I200000J150001D01*
G01*
X75735000Y-86975000D02*
G75*
G03*
X73985000Y-87225000I-750000J-999999D01*
G01*
X102485000Y-92975000D02*
G75*
G03*
X102985000Y-92475000I-1J500001D01*
G01*
X102435000Y-89225000D02*
G75*
G03*
X102235000Y-89525000I49999J-249999D01*
G01*
X65485000Y-87525000D02*
G75*
G03*
X66035000Y-87975000I500000J50000D01*
G01*
X96769425Y-73266336D02*
G75*
G03*
X97985000Y-74225000I1215576J291337D01*
G01*
X70685000Y-89325000D02*
G75*
G03*
X70335000Y-89275000I-200000J-150001D01*
G01*
X107485000Y-73425000D02*
G75*
G03*
X106935000Y-72975000I-500000J-50000D01*
G01*
X69985000Y-92475000D02*
G75*
G03*
X70485000Y-92975000I500001J1D01*
G01*
X94985000Y-92475000D02*
G75*
G03*
X95485000Y-92975000I500001J1D01*
G01*
X72944990Y-81484992D02*
G75*
G03*
X72945000Y-79465000I840010J1009992D01*
G01*
X100025010Y-79465008D02*
G75*
G03*
X100025000Y-81485000I-840010J-1009992D01*
G01*
X103285000Y-86725000D02*
G75*
G03*
X102985000Y-86925000I-49998J-250003D01*
G01*
X69685000Y-74225000D02*
G75*
G03*
X69985000Y-74025000I49998J250003D01*
G01*
X95978467Y-68394435D02*
G75*
G03*
X95485000Y-67975000I-493467J-80566D01*
G01*
X70185000Y-92875000D02*
G75*
G03*
X70885000Y-92775000I300000J399999D01*
G01*
X103035000Y-86825000D02*
G75*
G03*
X103085000Y-87175000I200001J-150000D01*
G01*
X102985000Y-74025000D02*
G75*
G03*
X103285000Y-74225000I249999J49999D01*
G01*
X73985000Y-73725000D02*
G75*
G03*
X75735000Y-73975000I1000000J749999D01*
G01*
X70885000Y-68175000D02*
G75*
G03*
X70185000Y-68075000I-400000J-299999D01*
G01*
X95485000Y-67975000D02*
G75*
G03*
X94985000Y-68475000I1J-500001D01*
G01*
X66035000Y-72975000D02*
G75*
G03*
X65485000Y-73425000I-50000J-500000D01*
G01*
X65585000Y-68175000D02*
G75*
G03*
X65685000Y-68875000I399999J-300000D01*
G01*
X95485000Y-92975000D02*
G75*
G03*
X95978428Y-92555802I1J499999D01*
G01*
X77485000Y-92975000D02*
G75*
G03*
X77985000Y-92475000I-1J500001D01*
G01*
X69885000Y-87175000D02*
G75*
G03*
X69935000Y-86825000I-150001J200000D01*
G01*
X97235000Y-73975000D02*
G75*
G03*
X98985000Y-73725000I750000J999999D01*
G01*
X74985000Y-74225000D02*
G75*
G03*
X76200462Y-73266807I-1J1250001D01*
G01*
X70735000Y-89525000D02*
G75*
G03*
X70535000Y-89225000I-250003J49998D01*
G01*
X77485000Y-67975000D02*
G75*
G03*
X76991572Y-68394198I-1J-499999D01*
G01*
X106685000Y-92875000D02*
G75*
G03*
X107385000Y-92775000I300000J399999D01*
G01*
X65585000Y-92775000D02*
G75*
G03*
X66285000Y-92875000I400000J299999D01*
G01*
X77985000Y-68475000D02*
G75*
G03*
X77485000Y-67975000I-500001J-1D01*
G01*
X107385000Y-68175000D02*
G75*
G03*
X106685000Y-68075000I-400000J-299999D01*
G01*
X69985000Y-86925000D02*
G75*
G03*
X69685000Y-86725000I-249999J-49999D01*
G01*
X70335000Y-71675000D02*
G75*
G03*
X70685000Y-71625000I150000J200001D01*
G01*
X107385000Y-87775000D02*
G75*
G03*
X107285000Y-87075000I-399999J300000D01*
G01*
X107285000Y-68875000D02*
G75*
G03*
X107385000Y-68175000I-299999J400000D01*
G01*
X76200575Y-87683664D02*
G75*
G03*
X74985000Y-86725000I-1215576J-291337D01*
G01*
X102085000Y-92775000D02*
G75*
G03*
X102785000Y-92875000I400000J299999D01*
G01*
X102635000Y-89275000D02*
G75*
G03*
X102285000Y-89325000I-150000J-200001D01*
G01*
X107385000Y-92775000D02*
G75*
G03*
X107285000Y-92075000I-399999J300000D01*
G01*
X97985000Y-86725000D02*
G75*
G03*
X96769538Y-87683193I1J-1250001D01*
G01*
X70535000Y-71725000D02*
G75*
G03*
X70735000Y-71425000I-49999J249999D01*
G01*
X102235000Y-71425000D02*
G75*
G03*
X102435000Y-71725000I250003J-49998D01*
G01*
X98985000Y-87225000D02*
G75*
G03*
X97235000Y-86975000I-1000000J-749999D01*
G01*
X103085000Y-73775000D02*
G75*
G03*
X103035000Y-74125000I150001J-200000D01*
G01*
X65685000Y-87075000D02*
G75*
G03*
X65585000Y-87775000I299999J-400000D01*
G01*
X76991533Y-92555565D02*
G75*
G03*
X77485000Y-92975000I493467J80566D01*
G01*
X65685000Y-92075000D02*
G75*
G03*
X65585000Y-92775000I299999J-400000D01*
G01*
%TO.C,U10*%
X31950000Y-142202500D02*
X31950000Y-140902500D01*
X34850000Y-141227500D02*
X34850000Y-142202500D01*
X34525000Y-140902500D02*
X34850000Y-141227500D01*
X34850000Y-142202500D02*
X31950000Y-142202500D01*
X31950000Y-140902500D02*
X34525000Y-140902500D01*
%TO.C,D6*%
X88340000Y-78860000D02*
X88340000Y-77590000D01*
X91490000Y-78860000D02*
X91490000Y-74460000D01*
X84640000Y-78860000D02*
X84640000Y-77590000D01*
X91490000Y-77590000D02*
X81490000Y-77590000D01*
X81490000Y-74460000D02*
X81490000Y-78860000D01*
X91490000Y-74460000D02*
X81490000Y-74460000D01*
X81490000Y-78860000D02*
X91490000Y-78860000D01*
%TO.C,J5*%
X36990000Y-153667500D02*
X35590000Y-153667500D01*
X42915000Y-158937500D02*
X42915000Y-159437500D01*
X29665000Y-159437500D02*
X29665000Y-158937500D01*
X44115000Y-155067500D02*
X28465000Y-155067500D01*
X29665000Y-158937500D02*
X42915000Y-158937500D01*
X35590000Y-153667500D02*
X35590000Y-155067500D01*
X28465000Y-155067500D02*
X28465000Y-159437500D01*
X28465000Y-158307500D02*
X29665000Y-158937500D01*
X41290000Y-158937500D02*
X40790000Y-158230393D01*
X44115000Y-158307500D02*
X42915000Y-158937500D01*
X44115000Y-159437500D02*
X44115000Y-155067500D01*
X28465000Y-159437500D02*
X29665000Y-159437500D01*
X40790000Y-158230393D02*
X40290000Y-158937500D01*
X36990000Y-155067500D02*
X36990000Y-153667500D01*
X42915000Y-159437500D02*
X44115000Y-159437500D01*
%TO.C,R2*%
X54205000Y-71587500D02*
X52955000Y-71587500D01*
X54205000Y-69587500D02*
X54205000Y-71587500D01*
X52955000Y-71587500D02*
X52955000Y-69587500D01*
X52955000Y-69587500D02*
X54205000Y-69587500D01*
%TO.C,D5*%
X81490000Y-83375000D02*
X91490000Y-83375000D01*
X84640000Y-82105000D02*
X84640000Y-83375000D01*
X81490000Y-86505000D02*
X91490000Y-86505000D01*
X81490000Y-82105000D02*
X81490000Y-86505000D01*
X91490000Y-82105000D02*
X81490000Y-82105000D01*
X88340000Y-82105000D02*
X88340000Y-83375000D01*
X91490000Y-86505000D02*
X91490000Y-82105000D01*
%TO.C,HS2*%
X96065000Y-46140000D02*
X95815000Y-46140000D01*
X101715000Y-27840000D02*
X106665000Y-23590000D01*
X88815000Y-27590000D02*
X87565000Y-23940000D01*
X88465000Y-23590000D02*
X94055000Y-30850000D01*
X88815000Y-61190000D02*
X87565000Y-64840000D01*
X96065000Y-44390000D02*
X96065000Y-52890000D01*
X101315000Y-61190000D02*
X102565000Y-64840000D01*
X107065000Y-52890000D02*
X96065000Y-52890000D01*
X103865000Y-60540000D02*
X107465000Y-64590000D01*
X88315000Y-31890000D02*
X82765000Y-28790000D01*
X83065000Y-27890000D02*
X86015000Y-28640000D01*
X101665000Y-65190000D02*
X96075000Y-57930000D01*
X83065000Y-60890000D02*
X86015000Y-60140000D01*
X107155000Y-34900000D02*
X102245000Y-34100000D01*
X95815000Y-42640000D02*
X96065000Y-42640000D01*
X86265000Y-28240000D02*
X82665000Y-24190000D01*
X103865000Y-28240000D02*
X107465000Y-24190000D01*
X88415000Y-60940000D02*
X83465000Y-65190000D01*
X101815000Y-56890000D02*
X107365000Y-59990000D01*
X88465000Y-65190000D02*
X94055000Y-57930000D01*
X107065000Y-60890000D02*
X104115000Y-60140000D01*
X101315000Y-27590000D02*
X102565000Y-23940000D01*
X94815000Y-46140000D02*
X95315000Y-46140000D01*
X94815000Y-42640000D02*
X95315000Y-42640000D01*
X107065000Y-27890000D02*
X104115000Y-28640000D01*
X107155000Y-53880000D02*
X102245000Y-54680000D01*
X88415000Y-27840000D02*
X83465000Y-23590000D01*
X88315000Y-56890000D02*
X82765000Y-59990000D01*
X101715000Y-60940000D02*
X106665000Y-65190000D01*
X101665000Y-23590000D02*
X96075000Y-30850000D01*
X94065000Y-44390000D02*
X94065000Y-52890000D01*
X107065000Y-35890000D02*
X96065000Y-35890000D01*
X94065000Y-42640000D02*
X94315000Y-42640000D01*
X94065000Y-46140000D02*
X94315000Y-46140000D01*
X82975000Y-53880000D02*
X87885000Y-54680000D01*
X83065000Y-35890000D02*
X94065000Y-35890000D01*
X96065000Y-44390000D02*
X96065000Y-35890000D01*
X86265000Y-60540000D02*
X82665000Y-64590000D01*
X94065000Y-44390000D02*
X94065000Y-35890000D01*
X82975000Y-34900000D02*
X87885000Y-34100000D01*
X101815000Y-31890000D02*
X107365000Y-28790000D01*
X83065000Y-52890000D02*
X94065000Y-52890000D01*
X102115000Y-65390000D02*
G75*
G03*
X102565000Y-64840000I-50000J500000D01*
G01*
X83065000Y-52890000D02*
G75*
G03*
X82565000Y-53390000I1J-500001D01*
G01*
X101815000Y-31890000D02*
G75*
G03*
X101565000Y-33640000I749999J-1000000D01*
G01*
X88565000Y-33640000D02*
G75*
G03*
X88315000Y-31890000I-999999J750000D01*
G01*
X82765000Y-59990000D02*
G75*
G03*
X82665000Y-60690000I299999J-400000D01*
G01*
X101765000Y-60990000D02*
G75*
G03*
X101415000Y-60940000I-200000J-150001D01*
G01*
X88615000Y-27890000D02*
G75*
G03*
X88815000Y-27590000I-49999J249999D01*
G01*
X107565000Y-28390000D02*
G75*
G03*
X107065000Y-27890000I-500001J-1D01*
G01*
X107565000Y-53390000D02*
G75*
G03*
X107065000Y-52890000I-500001J-1D01*
G01*
X96074992Y-57930010D02*
G75*
G03*
X94055000Y-57930000I-1009992J840010D01*
G01*
X107465000Y-24190000D02*
G75*
G03*
X107365000Y-23490000I-399999J300000D01*
G01*
X104115000Y-60140000D02*
G75*
G03*
X103815000Y-60340000I-49998J-250003D01*
G01*
X103915000Y-60190000D02*
G75*
G03*
X103865000Y-60540000I150001J-200000D01*
G01*
X86265000Y-60540000D02*
G75*
G03*
X86215000Y-60190000I-200001J150000D01*
G01*
X88365000Y-27790000D02*
G75*
G03*
X88715000Y-27840000I200000J150001D01*
G01*
X94055008Y-30849990D02*
G75*
G03*
X96075000Y-30850000I1009992J-840010D01*
G01*
X106665000Y-65190000D02*
G75*
G03*
X107365000Y-65290000I400000J299999D01*
G01*
X88715000Y-60940000D02*
G75*
G03*
X88365000Y-60990000I-150000J-200001D01*
G01*
X87856336Y-34105575D02*
G75*
G03*
X88815000Y-32890000I-291337J1215576D01*
G01*
X82565000Y-53390000D02*
G75*
G03*
X82984198Y-53883428I499999J-1D01*
G01*
X107465000Y-60690000D02*
G75*
G03*
X107365000Y-59990000I-399999J300000D01*
G01*
X101665000Y-65190000D02*
G75*
G03*
X102365000Y-65290000I400000J299999D01*
G01*
X86315000Y-60340000D02*
G75*
G03*
X86015000Y-60140000I-249999J-49999D01*
G01*
X87765000Y-65290000D02*
G75*
G03*
X88465000Y-65190000I300000J399999D01*
G01*
X82984435Y-34896533D02*
G75*
G03*
X82565000Y-35390000I80566J-493467D01*
G01*
X107365000Y-65290000D02*
G75*
G03*
X107465000Y-64590000I-299999J400000D01*
G01*
X102273664Y-54674425D02*
G75*
G03*
X101315000Y-55890000I291337J-1215576D01*
G01*
X107065000Y-60890000D02*
G75*
G03*
X107565000Y-60390000I-1J500001D01*
G01*
X86215000Y-28590000D02*
G75*
G03*
X86265000Y-28240000I-150001J200000D01*
G01*
X83065000Y-27890000D02*
G75*
G03*
X82565000Y-28390000I1J-500001D01*
G01*
X107565000Y-35390000D02*
G75*
G03*
X107145802Y-34896572I-499999J1D01*
G01*
X87565000Y-64840000D02*
G75*
G03*
X88015000Y-65390000I500000J-50000D01*
G01*
X82665000Y-64590000D02*
G75*
G03*
X82765000Y-65290000I399999J-300000D01*
G01*
X101315000Y-27590000D02*
G75*
G03*
X101515000Y-27890000I250003J-49998D01*
G01*
X88815000Y-55890000D02*
G75*
G03*
X87856807Y-54674538I-1250001J-1D01*
G01*
X88815000Y-61190000D02*
G75*
G03*
X88615000Y-60890000I-250003J49998D01*
G01*
X102365000Y-23490000D02*
G75*
G03*
X101665000Y-23590000I-300000J-399999D01*
G01*
X103865000Y-28240000D02*
G75*
G03*
X103915000Y-28590000I200001J-150000D01*
G01*
X82765000Y-65290000D02*
G75*
G03*
X83465000Y-65190000I300000J399999D01*
G01*
X101565000Y-55140000D02*
G75*
G03*
X101815000Y-56890000I999999J-750000D01*
G01*
X103815000Y-28440000D02*
G75*
G03*
X104115000Y-28640000I249999J49999D01*
G01*
X82665000Y-28090000D02*
G75*
G03*
X82765000Y-28790000I399999J-300000D01*
G01*
X88465000Y-23590000D02*
G75*
G03*
X87765000Y-23490000I-400000J-299999D01*
G01*
X101515000Y-60890000D02*
G75*
G03*
X101315000Y-61190000I49999J-249999D01*
G01*
X88315000Y-56890000D02*
G75*
G03*
X88565000Y-55140000I-749999J1000000D01*
G01*
X107365000Y-28790000D02*
G75*
G03*
X107465000Y-28090000I-299999J400000D01*
G01*
X82565000Y-35390000D02*
G75*
G03*
X83065000Y-35890000I500001J1D01*
G01*
X107365000Y-23490000D02*
G75*
G03*
X106665000Y-23590000I-300000J-399999D01*
G01*
X86015000Y-28640000D02*
G75*
G03*
X86315000Y-28440000I49998J250003D01*
G01*
X82765000Y-23490000D02*
G75*
G03*
X82665000Y-24190000I299999J-400000D01*
G01*
X82565000Y-60390000D02*
G75*
G03*
X83065000Y-60890000I500001J1D01*
G01*
X88015000Y-23390000D02*
G75*
G03*
X87565000Y-23940000I50000J-500000D01*
G01*
X107065000Y-35890000D02*
G75*
G03*
X107565000Y-35390000I-1J500001D01*
G01*
X102565000Y-23940000D02*
G75*
G03*
X102115000Y-23390000I-500000J50000D01*
G01*
X107145565Y-53883467D02*
G75*
G03*
X107565000Y-53390000I-80566J493467D01*
G01*
X101415000Y-27840000D02*
G75*
G03*
X101765000Y-27790000I150000J200001D01*
G01*
X101315000Y-32890000D02*
G75*
G03*
X102273193Y-34105462I1250001J1D01*
G01*
X83465000Y-23590000D02*
G75*
G03*
X82765000Y-23490000I-400000J-299999D01*
G01*
%TO.C,J1*%
X47617500Y-158225000D02*
X48817500Y-158855000D01*
X48817500Y-159355000D02*
X48817500Y-158855000D01*
X48817500Y-158855000D02*
X56067500Y-158855000D01*
X57267500Y-154985000D02*
X47617500Y-154985000D01*
X56067500Y-159355000D02*
X57267500Y-159355000D01*
X53142500Y-153585000D02*
X51742500Y-153585000D01*
X54442500Y-158855000D02*
X53942500Y-158147893D01*
X51742500Y-153585000D02*
X51742500Y-154985000D01*
X53142500Y-154985000D02*
X53142500Y-153585000D01*
X47617500Y-154985000D02*
X47617500Y-159355000D01*
X56067500Y-158855000D02*
X56067500Y-159355000D01*
X57267500Y-159355000D02*
X57267500Y-154985000D01*
X53942500Y-158147893D02*
X53442500Y-158855000D01*
X47617500Y-159355000D02*
X48817500Y-159355000D01*
X57267500Y-158225000D02*
X56067500Y-158855000D01*
D12*
%TO.C,U2*%
X28915000Y-70725000D02*
X47455000Y-70725000D01*
X47455000Y-121015000D02*
X28915000Y-121015000D01*
X47455000Y-70725000D02*
X47455000Y-121015000D01*
X28915000Y-121015000D02*
X28915000Y-70725000D01*
D13*
X28285000Y-79370000D02*
G75*
G03*
X28285000Y-79370000I-100000J0D01*
G01*
D11*
%TO.C,R5*%
X96650000Y-39445000D02*
X96650000Y-49445000D01*
X97920000Y-49445000D02*
X97920000Y-39445000D01*
X96650000Y-46295000D02*
X97920000Y-46295000D01*
X96650000Y-42595000D02*
X97920000Y-42595000D01*
X101050000Y-49445000D02*
X101050000Y-39445000D01*
X96650000Y-49445000D02*
X101050000Y-49445000D01*
X101050000Y-39445000D02*
X96650000Y-39445000D01*
%TO.C,LED5*%
X24980000Y-96125000D02*
X26680000Y-96125000D01*
X24980000Y-94925000D02*
X24980000Y-96125000D01*
X26980000Y-94925000D02*
X24980000Y-94925000D01*
X26980000Y-95825000D02*
X26980000Y-94925000D01*
X26680000Y-96125000D02*
X26980000Y-95825000D01*
%TO.C,LED10*%
X26652500Y-101900000D02*
X26952500Y-101600000D01*
X24952500Y-100700000D02*
X24952500Y-101900000D01*
X26952500Y-101600000D02*
X26952500Y-100700000D01*
X24952500Y-101900000D02*
X26652500Y-101900000D01*
X26952500Y-100700000D02*
X24952500Y-100700000D01*
%TO.C,L4*%
X43565000Y-135647500D02*
X43565000Y-137647500D01*
X43565000Y-137647500D02*
X42665000Y-137647500D01*
X42665000Y-135647500D02*
X43565000Y-135647500D01*
X42665000Y-137647500D02*
X42665000Y-135647500D01*
%TO.C,LED8*%
X26665000Y-110730000D02*
X26965000Y-110430000D01*
X26965000Y-109530000D02*
X24965000Y-109530000D01*
X26965000Y-110430000D02*
X26965000Y-109530000D01*
X24965000Y-109530000D02*
X24965000Y-110730000D01*
X24965000Y-110730000D02*
X26665000Y-110730000D01*
%TO.C,L3*%
X40440000Y-137662500D02*
X40440000Y-135662500D01*
X41340000Y-135662500D02*
X41340000Y-137662500D01*
X41340000Y-137662500D02*
X40440000Y-137662500D01*
X40440000Y-135662500D02*
X41340000Y-135662500D01*
%TO.C,LED7*%
X24965000Y-104855000D02*
X26665000Y-104855000D01*
X26665000Y-104855000D02*
X26965000Y-104555000D01*
X24965000Y-103655000D02*
X24965000Y-104855000D01*
X26965000Y-103655000D02*
X24965000Y-103655000D01*
X26965000Y-104555000D02*
X26965000Y-103655000D01*
%TO.C,HS1*%
X79530000Y-27885000D02*
X76580000Y-28635000D01*
X76330000Y-28235000D02*
X79930000Y-24185000D01*
X58730000Y-60535000D02*
X55130000Y-64585000D01*
X61280000Y-27585000D02*
X60030000Y-23935000D01*
X66530000Y-44385000D02*
X66530000Y-35885000D01*
X60780000Y-31885000D02*
X55230000Y-28785000D01*
X55530000Y-27885000D02*
X58480000Y-28635000D01*
X79620000Y-53875000D02*
X74710000Y-54675000D01*
X74130000Y-65185000D02*
X68540000Y-57925000D01*
X55440000Y-53875000D02*
X60350000Y-54675000D01*
X73780000Y-27585000D02*
X75030000Y-23935000D01*
X74180000Y-60935000D02*
X79130000Y-65185000D01*
X67280000Y-46135000D02*
X67780000Y-46135000D01*
X66530000Y-44385000D02*
X66530000Y-52885000D01*
X60780000Y-56885000D02*
X55230000Y-59985000D01*
X73780000Y-61185000D02*
X75030000Y-64835000D01*
X67280000Y-42635000D02*
X67780000Y-42635000D01*
X79530000Y-52885000D02*
X68530000Y-52885000D01*
X68530000Y-44385000D02*
X68530000Y-52885000D01*
X68530000Y-44385000D02*
X68530000Y-35885000D01*
X55530000Y-60885000D02*
X58480000Y-60135000D01*
X61280000Y-61185000D02*
X60030000Y-64835000D01*
X79530000Y-60885000D02*
X76580000Y-60135000D01*
X74180000Y-27835000D02*
X79130000Y-23585000D01*
X74280000Y-56885000D02*
X79830000Y-59985000D01*
X55440000Y-34895000D02*
X60350000Y-34095000D01*
X55530000Y-52885000D02*
X66530000Y-52885000D01*
X68530000Y-46135000D02*
X68280000Y-46135000D01*
X66530000Y-46135000D02*
X66780000Y-46135000D01*
X68280000Y-42635000D02*
X68530000Y-42635000D01*
X58730000Y-28235000D02*
X55130000Y-24185000D01*
X76330000Y-60535000D02*
X79930000Y-64585000D01*
X60930000Y-23585000D02*
X66520000Y-30845000D01*
X55530000Y-35885000D02*
X66530000Y-35885000D01*
X60930000Y-65185000D02*
X66520000Y-57925000D01*
X79530000Y-35885000D02*
X68530000Y-35885000D01*
X74130000Y-23585000D02*
X68540000Y-30845000D01*
X60880000Y-27835000D02*
X55930000Y-23585000D01*
X74280000Y-31885000D02*
X79830000Y-28785000D01*
X60880000Y-60935000D02*
X55930000Y-65185000D01*
X79620000Y-34895000D02*
X74710000Y-34095000D01*
X66530000Y-42635000D02*
X66780000Y-42635000D01*
X74280000Y-31885000D02*
G75*
G03*
X74030000Y-33635000I749999J-1000000D01*
G01*
X79830000Y-65285000D02*
G75*
G03*
X79930000Y-64585000I-299999J400000D01*
G01*
X55230000Y-23485000D02*
G75*
G03*
X55130000Y-24185000I299999J-400000D01*
G01*
X79830000Y-28785000D02*
G75*
G03*
X79930000Y-28085000I-299999J400000D01*
G01*
X79130000Y-65185000D02*
G75*
G03*
X79830000Y-65285000I400000J299999D01*
G01*
X79610565Y-53878467D02*
G75*
G03*
X80030000Y-53385000I-80566J493467D01*
G01*
X55130000Y-64585000D02*
G75*
G03*
X55230000Y-65285000I399999J-300000D01*
G01*
X55530000Y-27885000D02*
G75*
G03*
X55030000Y-28385000I1J-500001D01*
G01*
X60030000Y-64835000D02*
G75*
G03*
X60480000Y-65385000I500000J-50000D01*
G01*
X61180000Y-60935000D02*
G75*
G03*
X60830000Y-60985000I-150000J-200001D01*
G01*
X55030000Y-35385000D02*
G75*
G03*
X55530000Y-35885000I500001J1D01*
G01*
X73780000Y-27585000D02*
G75*
G03*
X73980000Y-27885000I250003J-49998D01*
G01*
X80030000Y-35385000D02*
G75*
G03*
X79610802Y-34891572I-499999J1D01*
G01*
X58730000Y-60535000D02*
G75*
G03*
X58680000Y-60185000I-200001J150000D01*
G01*
X74130000Y-65185000D02*
G75*
G03*
X74830000Y-65285000I400000J299999D01*
G01*
X61030000Y-33635000D02*
G75*
G03*
X60780000Y-31885000I-999999J750000D01*
G01*
X61080000Y-27885000D02*
G75*
G03*
X61280000Y-27585000I-49999J249999D01*
G01*
X76380000Y-60185000D02*
G75*
G03*
X76330000Y-60535000I150001J-200000D01*
G01*
X74580000Y-65385000D02*
G75*
G03*
X75030000Y-64835000I-50000J500000D01*
G01*
X80030000Y-28385000D02*
G75*
G03*
X79530000Y-27885000I-500001J-1D01*
G01*
X66520008Y-30844990D02*
G75*
G03*
X68540000Y-30845000I1009992J-840010D01*
G01*
X76280000Y-28435000D02*
G75*
G03*
X76580000Y-28635000I249999J49999D01*
G01*
X61280000Y-61185000D02*
G75*
G03*
X61080000Y-60885000I-250003J49998D01*
G01*
X73980000Y-60885000D02*
G75*
G03*
X73780000Y-61185000I49999J-249999D01*
G01*
X55030000Y-53385000D02*
G75*
G03*
X55449198Y-53878428I499999J-1D01*
G01*
X55449435Y-34891533D02*
G75*
G03*
X55030000Y-35385000I80566J-493467D01*
G01*
X75030000Y-23935000D02*
G75*
G03*
X74580000Y-23385000I-500000J50000D01*
G01*
X74738664Y-54669425D02*
G75*
G03*
X73780000Y-55885000I291337J-1215576D01*
G01*
X79530000Y-60885000D02*
G75*
G03*
X80030000Y-60385000I-1J500001D01*
G01*
X74830000Y-23485000D02*
G75*
G03*
X74130000Y-23585000I-300000J-399999D01*
G01*
X79930000Y-24185000D02*
G75*
G03*
X79830000Y-23485000I-399999J300000D01*
G01*
X73780000Y-32885000D02*
G75*
G03*
X74738193Y-34100462I1250001J1D01*
G01*
X55230000Y-59985000D02*
G75*
G03*
X55130000Y-60685000I299999J-400000D01*
G01*
X61280000Y-55885000D02*
G75*
G03*
X60321807Y-54669538I-1250001J-1D01*
G01*
X58680000Y-28585000D02*
G75*
G03*
X58730000Y-28235000I-150001J200000D01*
G01*
X55530000Y-52885000D02*
G75*
G03*
X55030000Y-53385000I1J-500001D01*
G01*
X55930000Y-23585000D02*
G75*
G03*
X55230000Y-23485000I-400000J-299999D01*
G01*
X55130000Y-28085000D02*
G75*
G03*
X55230000Y-28785000I399999J-300000D01*
G01*
X74230000Y-60985000D02*
G75*
G03*
X73880000Y-60935000I-200000J-150001D01*
G01*
X68539992Y-57925010D02*
G75*
G03*
X66520000Y-57925000I-1009992J840010D01*
G01*
X79530000Y-35885000D02*
G75*
G03*
X80030000Y-35385000I-1J500001D01*
G01*
X60780000Y-56885000D02*
G75*
G03*
X61030000Y-55135000I-749999J1000000D01*
G01*
X60930000Y-23585000D02*
G75*
G03*
X60230000Y-23485000I-400000J-299999D01*
G01*
X73880000Y-27835000D02*
G75*
G03*
X74230000Y-27785000I150000J200001D01*
G01*
X58480000Y-28635000D02*
G75*
G03*
X58780000Y-28435000I49998J250003D01*
G01*
X74030000Y-55135000D02*
G75*
G03*
X74280000Y-56885000I999999J-750000D01*
G01*
X60321336Y-34100575D02*
G75*
G03*
X61280000Y-32885000I-291337J1215576D01*
G01*
X79930000Y-60685000D02*
G75*
G03*
X79830000Y-59985000I-399999J300000D01*
G01*
X76330000Y-28235000D02*
G75*
G03*
X76380000Y-28585000I200001J-150000D01*
G01*
X60480000Y-23385000D02*
G75*
G03*
X60030000Y-23935000I50000J-500000D01*
G01*
X80030000Y-53385000D02*
G75*
G03*
X79530000Y-52885000I-500001J-1D01*
G01*
X76580000Y-60135000D02*
G75*
G03*
X76280000Y-60335000I-49998J-250003D01*
G01*
X60830000Y-27785000D02*
G75*
G03*
X61180000Y-27835000I200000J150001D01*
G01*
X60230000Y-65285000D02*
G75*
G03*
X60930000Y-65185000I300000J399999D01*
G01*
X55230000Y-65285000D02*
G75*
G03*
X55930000Y-65185000I300000J399999D01*
G01*
X55030000Y-60385000D02*
G75*
G03*
X55530000Y-60885000I500001J1D01*
G01*
X58780000Y-60335000D02*
G75*
G03*
X58480000Y-60135000I-249999J-49999D01*
G01*
X79830000Y-23485000D02*
G75*
G03*
X79130000Y-23585000I-300000J-399999D01*
G01*
%TO.C,JP1*%
X43635000Y-140350000D02*
X43635000Y-142890000D01*
X43635000Y-142890000D02*
X39190000Y-142890000D01*
X38555000Y-142255000D02*
X38555000Y-140350000D01*
X39190000Y-142890000D02*
X38555000Y-142255000D01*
X38555000Y-140350000D02*
X43635000Y-140350000D01*
%TO.C,LED3*%
X135260000Y-145481500D02*
X135260000Y-147481500D01*
X136160000Y-145481500D02*
X135260000Y-145481500D01*
X136460000Y-145781500D02*
X136160000Y-145481500D01*
X135260000Y-147481500D02*
X136460000Y-147481500D01*
X136460000Y-147481500D02*
X136460000Y-145781500D01*
%TO.C,C9*%
X126725000Y-37825000D02*
X110225000Y-37825000D01*
X110225000Y-44825000D02*
X126725000Y-44825000D01*
X126725000Y-44825000D02*
X126725000Y-37825000D01*
X110225000Y-37825000D02*
X110225000Y-44825000D01*
%TO.C,CP1*%
X133479885Y-117022500D02*
X130479885Y-117022500D01*
X131979885Y-118522500D02*
X131979885Y-115522500D01*
X135570000Y-110435000D02*
G75*
G03*
X135570000Y-110435000I-15000000J0D01*
G01*
%TO.C,LED9*%
X26670000Y-107735000D02*
X26970000Y-107435000D01*
X26970000Y-107435000D02*
X26970000Y-106535000D01*
X24970000Y-106535000D02*
X24970000Y-107735000D01*
X24970000Y-107735000D02*
X26670000Y-107735000D01*
X26970000Y-106535000D02*
X24970000Y-106535000D01*
%TO.C,LED1*%
X57015000Y-141745000D02*
X57015000Y-140545000D01*
X57015000Y-140545000D02*
X55315000Y-140545000D01*
X55015000Y-140845000D02*
X55015000Y-141745000D01*
X55315000Y-140545000D02*
X55015000Y-140845000D01*
X55015000Y-141745000D02*
X57015000Y-141745000D01*
D12*
%TO.C,U1*%
X58847500Y-150965000D02*
X58847500Y-143365000D01*
X58847500Y-143365000D02*
X47347500Y-143365000D01*
X47347500Y-150965000D02*
X58847500Y-150965000D01*
X47347500Y-143365000D02*
X47347500Y-150965000D01*
D13*
X46397500Y-149855000D02*
G75*
G03*
X46397500Y-149855000I-100000J0D01*
G01*
D11*
%TO.C,LED2*%
X50610000Y-121795000D02*
X52610000Y-121795000D01*
X50910000Y-120595000D02*
X50610000Y-120895000D01*
X52610000Y-121795000D02*
X52610000Y-120595000D01*
X52610000Y-120595000D02*
X50910000Y-120595000D01*
X50610000Y-120895000D02*
X50610000Y-121795000D01*
%TO.C,Q1*%
X65855000Y-42575000D02*
X60825000Y-42575000D01*
X65855000Y-52330000D02*
X65855000Y-36430000D01*
X65855000Y-46185000D02*
X60825000Y-46185000D01*
X60825000Y-36430000D02*
X60825000Y-52330000D01*
X65855000Y-36430000D02*
X60825000Y-36430000D01*
X60825000Y-52330000D02*
X65855000Y-52330000D01*
%TO.C,D4*%
X93420000Y-42595000D02*
X92150000Y-42595000D01*
X92150000Y-39445000D02*
X92150000Y-49445000D01*
X93420000Y-39445000D02*
X89020000Y-39445000D01*
X93420000Y-46295000D02*
X92150000Y-46295000D01*
X89020000Y-49445000D02*
X93420000Y-49445000D01*
X89020000Y-39445000D02*
X89020000Y-49445000D01*
X93420000Y-49445000D02*
X93420000Y-39445000D01*
%TO.C,Q2*%
X74135000Y-36400000D02*
X69105000Y-36400000D01*
X69105000Y-46155000D02*
X74135000Y-46155000D01*
X69105000Y-52300000D02*
X74135000Y-52300000D01*
X69105000Y-42545000D02*
X74135000Y-42545000D01*
X74135000Y-52300000D02*
X74135000Y-36400000D01*
X69105000Y-36400000D02*
X69105000Y-52300000D01*
%TO.C,L2*%
X113140000Y-46795000D02*
X113140000Y-92795000D01*
X132240000Y-69795000D02*
X113140000Y-72095000D01*
X132240000Y-78995000D02*
X113140000Y-81295000D01*
X132240000Y-46795000D02*
X113140000Y-46795000D01*
X132240000Y-55995000D02*
X113140000Y-58295000D01*
X132240000Y-60595000D02*
X113140000Y-62895000D01*
X132240000Y-46795000D02*
X113140000Y-49095000D01*
X132240000Y-88195000D02*
X113140000Y-90495000D01*
X132240000Y-74395000D02*
X113140000Y-76695000D01*
X132240000Y-92795000D02*
X132240000Y-46795000D01*
X132240000Y-51395000D02*
X113140000Y-53695000D01*
X132240000Y-83595000D02*
X113140000Y-85895000D01*
X113140000Y-92795000D02*
X132240000Y-92795000D01*
X132240000Y-65195000D02*
X113140000Y-67495000D01*
%TO.C,LED4*%
X98125000Y-147285000D02*
X98125000Y-145585000D01*
X96925000Y-145285000D02*
X96925000Y-147285000D01*
X98125000Y-145585000D02*
X97825000Y-145285000D01*
X97825000Y-145285000D02*
X96925000Y-145285000D01*
X96925000Y-147285000D02*
X98125000Y-147285000D01*
%TO.C,U3*%
X52880000Y-74920000D02*
X57780000Y-74920000D01*
X53855000Y-78820000D02*
X52880000Y-77845000D01*
X52880000Y-77845000D02*
X52880000Y-74920000D01*
X57780000Y-74920000D02*
X57780000Y-78820000D01*
X57780000Y-78820000D02*
X53855000Y-78820000D01*
%TO.C,LED6*%
X26670000Y-99020000D02*
X26970000Y-98720000D01*
X26970000Y-98720000D02*
X26970000Y-97820000D01*
X26970000Y-97820000D02*
X24970000Y-97820000D01*
X24970000Y-99020000D02*
X26670000Y-99020000D01*
X24970000Y-97820000D02*
X24970000Y-99020000D01*
%TO.C,CP2*%
X90634885Y-118232500D02*
X90634885Y-115232500D01*
X92134885Y-116732500D02*
X89134885Y-116732500D01*
X94225000Y-110145000D02*
G75*
G03*
X94225000Y-110145000I-15000000J0D01*
G01*
%TD*%
M02*
