%TF.GenerationSoftware,KiCad,Pcbnew,(6.0.1)*%
%TF.CreationDate,2022-02-04T14:14:18-06:00*%
%TF.ProjectId,MPPT,4d505054-2e6b-4696-9361-645f70636258,1.3.0*%
%TF.SameCoordinates,Original*%
%TF.FileFunction,Legend,Bot*%
%TF.FilePolarity,Positive*%
%FSLAX46Y46*%
G04 Gerber Fmt 4.6, Leading zero omitted, Abs format (unit mm)*
G04 Created by KiCad (PCBNEW (6.0.1)) date 2022-02-04 14:14:18*
%MOMM*%
%LPD*%
G01*
G04 APERTURE LIST*
%ADD10C,0.150000*%
%ADD11C,0.300000*%
%ADD12C,0.120000*%
G04 APERTURE END LIST*
D10*
X39429523Y-111637142D02*
X38820000Y-111637142D01*
X39124761Y-111941904D02*
X39124761Y-111332380D01*
X38515238Y-111141904D02*
X38020000Y-111141904D01*
X38286666Y-111446666D01*
X38172380Y-111446666D01*
X38096190Y-111484761D01*
X38058095Y-111522857D01*
X38020000Y-111599047D01*
X38020000Y-111789523D01*
X38058095Y-111865714D01*
X38096190Y-111903809D01*
X38172380Y-111941904D01*
X38400952Y-111941904D01*
X38477142Y-111903809D01*
X38515238Y-111865714D01*
X37791428Y-111141904D02*
X37524761Y-111941904D01*
X37258095Y-111141904D01*
X37067619Y-111141904D02*
X36572380Y-111141904D01*
X36839047Y-111446666D01*
X36724761Y-111446666D01*
X36648571Y-111484761D01*
X36610476Y-111522857D01*
X36572380Y-111599047D01*
X36572380Y-111789523D01*
X36610476Y-111865714D01*
X36648571Y-111903809D01*
X36724761Y-111941904D01*
X36953333Y-111941904D01*
X37029523Y-111903809D01*
X37067619Y-111865714D01*
X116695714Y-43341904D02*
X116695714Y-42541904D01*
X116429047Y-43113333D01*
X116162380Y-42541904D01*
X116162380Y-43341904D01*
X115819523Y-43303809D02*
X115705238Y-43341904D01*
X115514761Y-43341904D01*
X115438571Y-43303809D01*
X115400476Y-43265714D01*
X115362380Y-43189523D01*
X115362380Y-43113333D01*
X115400476Y-43037142D01*
X115438571Y-42999047D01*
X115514761Y-42960952D01*
X115667142Y-42922857D01*
X115743333Y-42884761D01*
X115781428Y-42846666D01*
X115819523Y-42770476D01*
X115819523Y-42694285D01*
X115781428Y-42618095D01*
X115743333Y-42580000D01*
X115667142Y-42541904D01*
X115476666Y-42541904D01*
X115362380Y-42580000D01*
X115019523Y-43341904D02*
X115019523Y-42541904D01*
X114562380Y-43341904D01*
X114562380Y-42541904D01*
X114181428Y-42541904D02*
X114181428Y-43189523D01*
X114143333Y-43265714D01*
X114105238Y-43303809D01*
X114029047Y-43341904D01*
X113876666Y-43341904D01*
X113800476Y-43303809D01*
X113762380Y-43265714D01*
X113724285Y-43189523D01*
X113724285Y-42541904D01*
X113076666Y-42922857D02*
X112962380Y-42960952D01*
X112924285Y-42999047D01*
X112886190Y-43075238D01*
X112886190Y-43189523D01*
X112924285Y-43265714D01*
X112962380Y-43303809D01*
X113038571Y-43341904D01*
X113343333Y-43341904D01*
X113343333Y-42541904D01*
X113076666Y-42541904D01*
X113000476Y-42580000D01*
X112962380Y-42618095D01*
X112924285Y-42694285D01*
X112924285Y-42770476D01*
X112962380Y-42846666D01*
X113000476Y-42884761D01*
X113076666Y-42922857D01*
X113343333Y-42922857D01*
X108322619Y-123787142D02*
X107713095Y-123787142D01*
X108017857Y-124091904D02*
X108017857Y-123482380D01*
X107370238Y-123863333D02*
X106989285Y-123863333D01*
X107446428Y-124091904D02*
X107179761Y-123291904D01*
X106913095Y-124091904D01*
X106189285Y-124091904D02*
X106455952Y-123710952D01*
X106646428Y-124091904D02*
X106646428Y-123291904D01*
X106341666Y-123291904D01*
X106265476Y-123330000D01*
X106227380Y-123368095D01*
X106189285Y-123444285D01*
X106189285Y-123558571D01*
X106227380Y-123634761D01*
X106265476Y-123672857D01*
X106341666Y-123710952D01*
X106646428Y-123710952D01*
X105389285Y-124091904D02*
X105655952Y-123710952D01*
X105846428Y-124091904D02*
X105846428Y-123291904D01*
X105541666Y-123291904D01*
X105465476Y-123330000D01*
X105427380Y-123368095D01*
X105389285Y-123444285D01*
X105389285Y-123558571D01*
X105427380Y-123634761D01*
X105465476Y-123672857D01*
X105541666Y-123710952D01*
X105846428Y-123710952D01*
X123953809Y-43057142D02*
X123344285Y-43057142D01*
X123001428Y-43323809D02*
X122887142Y-43361904D01*
X122696666Y-43361904D01*
X122620476Y-43323809D01*
X122582380Y-43285714D01*
X122544285Y-43209523D01*
X122544285Y-43133333D01*
X122582380Y-43057142D01*
X122620476Y-43019047D01*
X122696666Y-42980952D01*
X122849047Y-42942857D01*
X122925238Y-42904761D01*
X122963333Y-42866666D01*
X123001428Y-42790476D01*
X123001428Y-42714285D01*
X122963333Y-42638095D01*
X122925238Y-42600000D01*
X122849047Y-42561904D01*
X122658571Y-42561904D01*
X122544285Y-42600000D01*
X122201428Y-43361904D02*
X122201428Y-42561904D01*
X121744285Y-43361904D01*
X121744285Y-42561904D01*
X121363333Y-42561904D02*
X121363333Y-43209523D01*
X121325238Y-43285714D01*
X121287142Y-43323809D01*
X121210952Y-43361904D01*
X121058571Y-43361904D01*
X120982380Y-43323809D01*
X120944285Y-43285714D01*
X120906190Y-43209523D01*
X120906190Y-42561904D01*
X120258571Y-42942857D02*
X120144285Y-42980952D01*
X120106190Y-43019047D01*
X120068095Y-43095238D01*
X120068095Y-43209523D01*
X120106190Y-43285714D01*
X120144285Y-43323809D01*
X120220476Y-43361904D01*
X120525238Y-43361904D01*
X120525238Y-42561904D01*
X120258571Y-42561904D01*
X120182380Y-42600000D01*
X120144285Y-42638095D01*
X120106190Y-42714285D01*
X120106190Y-42790476D01*
X120144285Y-42866666D01*
X120182380Y-42904761D01*
X120258571Y-42942857D01*
X120525238Y-42942857D01*
X31805000Y-119875714D02*
X31843095Y-119913809D01*
X31957380Y-119951904D01*
X32033571Y-119951904D01*
X32147857Y-119913809D01*
X32224047Y-119837619D01*
X32262142Y-119761428D01*
X32300238Y-119609047D01*
X32300238Y-119494761D01*
X32262142Y-119342380D01*
X32224047Y-119266190D01*
X32147857Y-119190000D01*
X32033571Y-119151904D01*
X31957380Y-119151904D01*
X31843095Y-119190000D01*
X31805000Y-119228095D01*
X31500238Y-119723333D02*
X31119285Y-119723333D01*
X31576428Y-119951904D02*
X31309761Y-119151904D01*
X31043095Y-119951904D01*
X30776428Y-119951904D02*
X30776428Y-119151904D01*
X30319285Y-119951904D01*
X30319285Y-119151904D01*
X30052619Y-119151904D02*
X29595476Y-119151904D01*
X29824047Y-119951904D02*
X29824047Y-119151904D01*
X29405000Y-119151904D02*
X28871666Y-119951904D01*
X28871666Y-119151904D02*
X29405000Y-119951904D01*
X54919047Y-67531904D02*
X54919047Y-66731904D01*
X54728571Y-66731904D01*
X54614285Y-66770000D01*
X54538095Y-66846190D01*
X54500000Y-66922380D01*
X54461904Y-67074761D01*
X54461904Y-67189047D01*
X54500000Y-67341428D01*
X54538095Y-67417619D01*
X54614285Y-67493809D01*
X54728571Y-67531904D01*
X54919047Y-67531904D01*
X53661904Y-67531904D02*
X53928571Y-67150952D01*
X54119047Y-67531904D02*
X54119047Y-66731904D01*
X53814285Y-66731904D01*
X53738095Y-66770000D01*
X53700000Y-66808095D01*
X53661904Y-66884285D01*
X53661904Y-66998571D01*
X53700000Y-67074761D01*
X53738095Y-67112857D01*
X53814285Y-67150952D01*
X54119047Y-67150952D01*
X53319047Y-67531904D02*
X53319047Y-66731904D01*
X53052380Y-66731904D02*
X52785714Y-67531904D01*
X52519047Y-66731904D01*
X52252380Y-67112857D02*
X51985714Y-67112857D01*
X51871428Y-67531904D02*
X52252380Y-67531904D01*
X52252380Y-66731904D01*
X51871428Y-66731904D01*
X51528571Y-67531904D02*
X51528571Y-66731904D01*
X51223809Y-66731904D01*
X51147619Y-66770000D01*
X51109523Y-66808095D01*
X51071428Y-66884285D01*
X51071428Y-66998571D01*
X51109523Y-67074761D01*
X51147619Y-67112857D01*
X51223809Y-67150952D01*
X51528571Y-67150952D01*
X50804761Y-66731904D02*
X50614285Y-67531904D01*
X50461904Y-66960476D01*
X50309523Y-67531904D01*
X50119047Y-66731904D01*
X49814285Y-67531904D02*
X49814285Y-66731904D01*
X49547619Y-67303333D01*
X49280952Y-66731904D01*
X49280952Y-67531904D01*
X107068809Y-48982142D02*
X106459285Y-48982142D01*
X106764047Y-49286904D02*
X106764047Y-48677380D01*
X106116428Y-49248809D02*
X106002142Y-49286904D01*
X105811666Y-49286904D01*
X105735476Y-49248809D01*
X105697380Y-49210714D01*
X105659285Y-49134523D01*
X105659285Y-49058333D01*
X105697380Y-48982142D01*
X105735476Y-48944047D01*
X105811666Y-48905952D01*
X105964047Y-48867857D01*
X106040238Y-48829761D01*
X106078333Y-48791666D01*
X106116428Y-48715476D01*
X106116428Y-48639285D01*
X106078333Y-48563095D01*
X106040238Y-48525000D01*
X105964047Y-48486904D01*
X105773571Y-48486904D01*
X105659285Y-48525000D01*
X105316428Y-49286904D02*
X105316428Y-48486904D01*
X104859285Y-49286904D01*
X104859285Y-48486904D01*
X104478333Y-48486904D02*
X104478333Y-49134523D01*
X104440238Y-49210714D01*
X104402142Y-49248809D01*
X104325952Y-49286904D01*
X104173571Y-49286904D01*
X104097380Y-49248809D01*
X104059285Y-49210714D01*
X104021190Y-49134523D01*
X104021190Y-48486904D01*
X103373571Y-48867857D02*
X103259285Y-48905952D01*
X103221190Y-48944047D01*
X103183095Y-49020238D01*
X103183095Y-49134523D01*
X103221190Y-49210714D01*
X103259285Y-49248809D01*
X103335476Y-49286904D01*
X103640238Y-49286904D01*
X103640238Y-48486904D01*
X103373571Y-48486904D01*
X103297380Y-48525000D01*
X103259285Y-48563095D01*
X103221190Y-48639285D01*
X103221190Y-48715476D01*
X103259285Y-48791666D01*
X103297380Y-48829761D01*
X103373571Y-48867857D01*
X103640238Y-48867857D01*
X54808809Y-87526904D02*
X54808809Y-86726904D01*
X54504047Y-86726904D01*
X54427857Y-86765000D01*
X54389761Y-86803095D01*
X54351666Y-86879285D01*
X54351666Y-86993571D01*
X54389761Y-87069761D01*
X54427857Y-87107857D01*
X54504047Y-87145952D01*
X54808809Y-87145952D01*
X54085000Y-86726904D02*
X53894523Y-87526904D01*
X53742142Y-86955476D01*
X53589761Y-87526904D01*
X53399285Y-86726904D01*
X53094523Y-87526904D02*
X53094523Y-86726904D01*
X52827857Y-87298333D01*
X52561190Y-86726904D01*
X52561190Y-87526904D01*
D11*
X102975000Y-115218928D02*
X102832142Y-115361785D01*
X102975000Y-115504642D01*
X103117857Y-115361785D01*
X102975000Y-115218928D01*
X102975000Y-115504642D01*
D10*
X49261428Y-71292142D02*
X48651904Y-71292142D01*
X48956666Y-71596904D02*
X48956666Y-70987380D01*
X48232857Y-71596904D02*
X48080476Y-71596904D01*
X48004285Y-71558809D01*
X47966190Y-71520714D01*
X47890000Y-71406428D01*
X47851904Y-71254047D01*
X47851904Y-70949285D01*
X47890000Y-70873095D01*
X47928095Y-70835000D01*
X48004285Y-70796904D01*
X48156666Y-70796904D01*
X48232857Y-70835000D01*
X48270952Y-70873095D01*
X48309047Y-70949285D01*
X48309047Y-71139761D01*
X48270952Y-71215952D01*
X48232857Y-71254047D01*
X48156666Y-71292142D01*
X48004285Y-71292142D01*
X47928095Y-71254047D01*
X47890000Y-71215952D01*
X47851904Y-71139761D01*
X47623333Y-70796904D02*
X47356666Y-71596904D01*
X47090000Y-70796904D01*
X46861428Y-71368333D02*
X46480476Y-71368333D01*
X46937619Y-71596904D02*
X46670952Y-70796904D01*
X46404285Y-71596904D01*
D11*
X75920000Y-130467428D02*
X75777142Y-130610285D01*
X75920000Y-130753142D01*
X76062857Y-130610285D01*
X75920000Y-130467428D01*
X75920000Y-130753142D01*
D10*
X31750238Y-117600714D02*
X31788333Y-117638809D01*
X31902619Y-117676904D01*
X31978809Y-117676904D01*
X32093095Y-117638809D01*
X32169285Y-117562619D01*
X32207380Y-117486428D01*
X32245476Y-117334047D01*
X32245476Y-117219761D01*
X32207380Y-117067380D01*
X32169285Y-116991190D01*
X32093095Y-116915000D01*
X31978809Y-116876904D01*
X31902619Y-116876904D01*
X31788333Y-116915000D01*
X31750238Y-116953095D01*
X31445476Y-117448333D02*
X31064523Y-117448333D01*
X31521666Y-117676904D02*
X31255000Y-116876904D01*
X30988333Y-117676904D01*
X30721666Y-117676904D02*
X30721666Y-116876904D01*
X30264523Y-117676904D01*
X30264523Y-116876904D01*
X29426428Y-117676904D02*
X29693095Y-117295952D01*
X29883571Y-117676904D02*
X29883571Y-116876904D01*
X29578809Y-116876904D01*
X29502619Y-116915000D01*
X29464523Y-116953095D01*
X29426428Y-117029285D01*
X29426428Y-117143571D01*
X29464523Y-117219761D01*
X29502619Y-117257857D01*
X29578809Y-117295952D01*
X29883571Y-117295952D01*
X29159761Y-116876904D02*
X28626428Y-117676904D01*
X28626428Y-116876904D02*
X29159761Y-117676904D01*
X119324523Y-127635000D02*
X119400714Y-127596904D01*
X119515000Y-127596904D01*
X119629285Y-127635000D01*
X119705476Y-127711190D01*
X119743571Y-127787380D01*
X119781666Y-127939761D01*
X119781666Y-128054047D01*
X119743571Y-128206428D01*
X119705476Y-128282619D01*
X119629285Y-128358809D01*
X119515000Y-128396904D01*
X119438809Y-128396904D01*
X119324523Y-128358809D01*
X119286428Y-128320714D01*
X119286428Y-128054047D01*
X119438809Y-128054047D01*
X118943571Y-128396904D02*
X118943571Y-127596904D01*
X118486428Y-128396904D01*
X118486428Y-127596904D01*
X118105476Y-128396904D02*
X118105476Y-127596904D01*
X117915000Y-127596904D01*
X117800714Y-127635000D01*
X117724523Y-127711190D01*
X117686428Y-127787380D01*
X117648333Y-127939761D01*
X117648333Y-128054047D01*
X117686428Y-128206428D01*
X117724523Y-128282619D01*
X117800714Y-128358809D01*
X117915000Y-128396904D01*
X118105476Y-128396904D01*
X36959047Y-131920000D02*
X37035238Y-131881904D01*
X37149523Y-131881904D01*
X37263809Y-131920000D01*
X37340000Y-131996190D01*
X37378095Y-132072380D01*
X37416190Y-132224761D01*
X37416190Y-132339047D01*
X37378095Y-132491428D01*
X37340000Y-132567619D01*
X37263809Y-132643809D01*
X37149523Y-132681904D01*
X37073333Y-132681904D01*
X36959047Y-132643809D01*
X36920952Y-132605714D01*
X36920952Y-132339047D01*
X37073333Y-132339047D01*
X36578095Y-132681904D02*
X36578095Y-131881904D01*
X36120952Y-132681904D01*
X36120952Y-131881904D01*
X35740000Y-132681904D02*
X35740000Y-131881904D01*
X35549523Y-131881904D01*
X35435238Y-131920000D01*
X35359047Y-131996190D01*
X35320952Y-132072380D01*
X35282857Y-132224761D01*
X35282857Y-132339047D01*
X35320952Y-132491428D01*
X35359047Y-132567619D01*
X35435238Y-132643809D01*
X35549523Y-132681904D01*
X35740000Y-132681904D01*
X34940000Y-132681904D02*
X34940000Y-131881904D01*
X34559047Y-132681904D02*
X34559047Y-131881904D01*
X34101904Y-132681904D01*
X34101904Y-131881904D01*
X100798333Y-118678333D02*
X100417380Y-118678333D01*
X100874523Y-118906904D02*
X100607857Y-118106904D01*
X100341190Y-118906904D01*
X99617380Y-118906904D02*
X99884047Y-118525952D01*
X100074523Y-118906904D02*
X100074523Y-118106904D01*
X99769761Y-118106904D01*
X99693571Y-118145000D01*
X99655476Y-118183095D01*
X99617380Y-118259285D01*
X99617380Y-118373571D01*
X99655476Y-118449761D01*
X99693571Y-118487857D01*
X99769761Y-118525952D01*
X100074523Y-118525952D01*
X98817380Y-118906904D02*
X99084047Y-118525952D01*
X99274523Y-118906904D02*
X99274523Y-118106904D01*
X98969761Y-118106904D01*
X98893571Y-118145000D01*
X98855476Y-118183095D01*
X98817380Y-118259285D01*
X98817380Y-118373571D01*
X98855476Y-118449761D01*
X98893571Y-118487857D01*
X98969761Y-118525952D01*
X99274523Y-118525952D01*
X98588809Y-118106904D02*
X98322142Y-118906904D01*
X98055476Y-118106904D01*
X49881666Y-138135000D02*
X49957857Y-138096904D01*
X50072142Y-138096904D01*
X50186428Y-138135000D01*
X50262619Y-138211190D01*
X50300714Y-138287380D01*
X50338809Y-138439761D01*
X50338809Y-138554047D01*
X50300714Y-138706428D01*
X50262619Y-138782619D01*
X50186428Y-138858809D01*
X50072142Y-138896904D01*
X49995952Y-138896904D01*
X49881666Y-138858809D01*
X49843571Y-138820714D01*
X49843571Y-138554047D01*
X49995952Y-138554047D01*
X49500714Y-138896904D02*
X49500714Y-138096904D01*
X49043571Y-138896904D01*
X49043571Y-138096904D01*
X48662619Y-138896904D02*
X48662619Y-138096904D01*
X48472142Y-138096904D01*
X48357857Y-138135000D01*
X48281666Y-138211190D01*
X48243571Y-138287380D01*
X48205476Y-138439761D01*
X48205476Y-138554047D01*
X48243571Y-138706428D01*
X48281666Y-138782619D01*
X48357857Y-138858809D01*
X48472142Y-138896904D01*
X48662619Y-138896904D01*
X47862619Y-138896904D02*
X47862619Y-138096904D01*
X47557857Y-138096904D01*
X47481666Y-138135000D01*
X47443571Y-138173095D01*
X47405476Y-138249285D01*
X47405476Y-138363571D01*
X47443571Y-138439761D01*
X47481666Y-138477857D01*
X47557857Y-138515952D01*
X47862619Y-138515952D01*
X47138809Y-138096904D02*
X46948333Y-138896904D01*
X46795952Y-138325476D01*
X46643571Y-138896904D01*
X46453095Y-138096904D01*
X45691190Y-138896904D02*
X45957857Y-138515952D01*
X46148333Y-138896904D02*
X46148333Y-138096904D01*
X45843571Y-138096904D01*
X45767380Y-138135000D01*
X45729285Y-138173095D01*
X45691190Y-138249285D01*
X45691190Y-138363571D01*
X45729285Y-138439761D01*
X45767380Y-138477857D01*
X45843571Y-138515952D01*
X46148333Y-138515952D01*
X63993095Y-117577857D02*
X63878809Y-117615952D01*
X63840714Y-117654047D01*
X63802619Y-117730238D01*
X63802619Y-117844523D01*
X63840714Y-117920714D01*
X63878809Y-117958809D01*
X63955000Y-117996904D01*
X64259761Y-117996904D01*
X64259761Y-117196904D01*
X63993095Y-117196904D01*
X63916904Y-117235000D01*
X63878809Y-117273095D01*
X63840714Y-117349285D01*
X63840714Y-117425476D01*
X63878809Y-117501666D01*
X63916904Y-117539761D01*
X63993095Y-117577857D01*
X64259761Y-117577857D01*
X63497857Y-117768333D02*
X63116904Y-117768333D01*
X63574047Y-117996904D02*
X63307380Y-117196904D01*
X63040714Y-117996904D01*
X62888333Y-117196904D02*
X62431190Y-117196904D01*
X62659761Y-117996904D02*
X62659761Y-117196904D01*
X62278809Y-117196904D02*
X61821666Y-117196904D01*
X62050238Y-117996904D02*
X62050238Y-117196904D01*
X61669285Y-117196904D02*
X61402619Y-117996904D01*
X61135952Y-117196904D01*
D11*
X77955000Y-117607428D02*
X77812142Y-117750285D01*
X77955000Y-117893142D01*
X78097857Y-117750285D01*
X77955000Y-117607428D01*
X77955000Y-117893142D01*
D10*
X43779523Y-130901904D02*
X43512857Y-131701904D01*
X43246190Y-130901904D01*
X42827142Y-130901904D02*
X42674761Y-130901904D01*
X42598571Y-130940000D01*
X42522380Y-131016190D01*
X42484285Y-131168571D01*
X42484285Y-131435238D01*
X42522380Y-131587619D01*
X42598571Y-131663809D01*
X42674761Y-131701904D01*
X42827142Y-131701904D01*
X42903333Y-131663809D01*
X42979523Y-131587619D01*
X43017619Y-131435238D01*
X43017619Y-131168571D01*
X42979523Y-131016190D01*
X42903333Y-130940000D01*
X42827142Y-130901904D01*
X42141428Y-130901904D02*
X42141428Y-131549523D01*
X42103333Y-131625714D01*
X42065238Y-131663809D01*
X41989047Y-131701904D01*
X41836666Y-131701904D01*
X41760476Y-131663809D01*
X41722380Y-131625714D01*
X41684285Y-131549523D01*
X41684285Y-130901904D01*
X41417619Y-130901904D02*
X40960476Y-130901904D01*
X41189047Y-131701904D02*
X41189047Y-130901904D01*
X61038571Y-138642142D02*
X60429047Y-138642142D01*
X60733809Y-138946904D02*
X60733809Y-138337380D01*
X59667142Y-138146904D02*
X60048095Y-138146904D01*
X60086190Y-138527857D01*
X60048095Y-138489761D01*
X59971904Y-138451666D01*
X59781428Y-138451666D01*
X59705238Y-138489761D01*
X59667142Y-138527857D01*
X59629047Y-138604047D01*
X59629047Y-138794523D01*
X59667142Y-138870714D01*
X59705238Y-138908809D01*
X59781428Y-138946904D01*
X59971904Y-138946904D01*
X60048095Y-138908809D01*
X60086190Y-138870714D01*
X59400476Y-138146904D02*
X59133809Y-138946904D01*
X58867142Y-138146904D01*
X29463571Y-69272142D02*
X28854047Y-69272142D01*
X29158809Y-69576904D02*
X29158809Y-68967380D01*
X28435000Y-69576904D02*
X28282619Y-69576904D01*
X28206428Y-69538809D01*
X28168333Y-69500714D01*
X28092142Y-69386428D01*
X28054047Y-69234047D01*
X28054047Y-68929285D01*
X28092142Y-68853095D01*
X28130238Y-68815000D01*
X28206428Y-68776904D01*
X28358809Y-68776904D01*
X28435000Y-68815000D01*
X28473095Y-68853095D01*
X28511190Y-68929285D01*
X28511190Y-69119761D01*
X28473095Y-69195952D01*
X28435000Y-69234047D01*
X28358809Y-69272142D01*
X28206428Y-69272142D01*
X28130238Y-69234047D01*
X28092142Y-69195952D01*
X28054047Y-69119761D01*
X27825476Y-68776904D02*
X27558809Y-69576904D01*
X27292142Y-68776904D01*
X53604523Y-138667142D02*
X52995000Y-138667142D01*
X53299761Y-138971904D02*
X53299761Y-138362380D01*
X52195000Y-138971904D02*
X52652142Y-138971904D01*
X52423571Y-138971904D02*
X52423571Y-138171904D01*
X52499761Y-138286190D01*
X52575952Y-138362380D01*
X52652142Y-138400476D01*
X51890238Y-138248095D02*
X51852142Y-138210000D01*
X51775952Y-138171904D01*
X51585476Y-138171904D01*
X51509285Y-138210000D01*
X51471190Y-138248095D01*
X51433095Y-138324285D01*
X51433095Y-138400476D01*
X51471190Y-138514761D01*
X51928333Y-138971904D01*
X51433095Y-138971904D01*
X51204523Y-138171904D02*
X50937857Y-138971904D01*
X50671190Y-138171904D01*
D11*
X110175000Y-130181428D02*
X110032142Y-130324285D01*
X110175000Y-130467142D01*
X110317857Y-130324285D01*
X110175000Y-130181428D01*
X110175000Y-130467142D01*
D10*
X32523095Y-132605714D02*
X32561190Y-132643809D01*
X32675476Y-132681904D01*
X32751666Y-132681904D01*
X32865952Y-132643809D01*
X32942142Y-132567619D01*
X32980238Y-132491428D01*
X33018333Y-132339047D01*
X33018333Y-132224761D01*
X32980238Y-132072380D01*
X32942142Y-131996190D01*
X32865952Y-131920000D01*
X32751666Y-131881904D01*
X32675476Y-131881904D01*
X32561190Y-131920000D01*
X32523095Y-131958095D01*
X32218333Y-132453333D02*
X31837380Y-132453333D01*
X32294523Y-132681904D02*
X32027857Y-131881904D01*
X31761190Y-132681904D01*
X31494523Y-132681904D02*
X31494523Y-131881904D01*
X31037380Y-132681904D01*
X31037380Y-131881904D01*
X30275476Y-132681904D02*
X30656428Y-132681904D01*
X30656428Y-131881904D01*
X34638333Y-131540714D02*
X34676428Y-131578809D01*
X34790714Y-131616904D01*
X34866904Y-131616904D01*
X34981190Y-131578809D01*
X35057380Y-131502619D01*
X35095476Y-131426428D01*
X35133571Y-131274047D01*
X35133571Y-131159761D01*
X35095476Y-131007380D01*
X35057380Y-130931190D01*
X34981190Y-130855000D01*
X34866904Y-130816904D01*
X34790714Y-130816904D01*
X34676428Y-130855000D01*
X34638333Y-130893095D01*
X34333571Y-131388333D02*
X33952619Y-131388333D01*
X34409761Y-131616904D02*
X34143095Y-130816904D01*
X33876428Y-131616904D01*
X33609761Y-131616904D02*
X33609761Y-130816904D01*
X33152619Y-131616904D01*
X33152619Y-130816904D01*
X32771666Y-131616904D02*
X32771666Y-130816904D01*
X32771666Y-131197857D02*
X32314523Y-131197857D01*
X32314523Y-131616904D02*
X32314523Y-130816904D01*
X84904523Y-127650000D02*
X84980714Y-127611904D01*
X85095000Y-127611904D01*
X85209285Y-127650000D01*
X85285476Y-127726190D01*
X85323571Y-127802380D01*
X85361666Y-127954761D01*
X85361666Y-128069047D01*
X85323571Y-128221428D01*
X85285476Y-128297619D01*
X85209285Y-128373809D01*
X85095000Y-128411904D01*
X85018809Y-128411904D01*
X84904523Y-128373809D01*
X84866428Y-128335714D01*
X84866428Y-128069047D01*
X85018809Y-128069047D01*
X84523571Y-128411904D02*
X84523571Y-127611904D01*
X84066428Y-128411904D01*
X84066428Y-127611904D01*
X83685476Y-128411904D02*
X83685476Y-127611904D01*
X83495000Y-127611904D01*
X83380714Y-127650000D01*
X83304523Y-127726190D01*
X83266428Y-127802380D01*
X83228333Y-127954761D01*
X83228333Y-128069047D01*
X83266428Y-128221428D01*
X83304523Y-128297619D01*
X83380714Y-128373809D01*
X83495000Y-128411904D01*
X83685476Y-128411904D01*
X55734523Y-138145000D02*
X55810714Y-138106904D01*
X55925000Y-138106904D01*
X56039285Y-138145000D01*
X56115476Y-138221190D01*
X56153571Y-138297380D01*
X56191666Y-138449761D01*
X56191666Y-138564047D01*
X56153571Y-138716428D01*
X56115476Y-138792619D01*
X56039285Y-138868809D01*
X55925000Y-138906904D01*
X55848809Y-138906904D01*
X55734523Y-138868809D01*
X55696428Y-138830714D01*
X55696428Y-138564047D01*
X55848809Y-138564047D01*
X55353571Y-138906904D02*
X55353571Y-138106904D01*
X54896428Y-138906904D01*
X54896428Y-138106904D01*
X54515476Y-138906904D02*
X54515476Y-138106904D01*
X54325000Y-138106904D01*
X54210714Y-138145000D01*
X54134523Y-138221190D01*
X54096428Y-138297380D01*
X54058333Y-138449761D01*
X54058333Y-138564047D01*
X54096428Y-138716428D01*
X54134523Y-138792619D01*
X54210714Y-138868809D01*
X54325000Y-138906904D01*
X54515476Y-138906904D01*
X120257619Y-135272142D02*
X119648095Y-135272142D01*
X119305238Y-135348333D02*
X118924285Y-135348333D01*
X119381428Y-135576904D02*
X119114761Y-134776904D01*
X118848095Y-135576904D01*
X118124285Y-135576904D02*
X118390952Y-135195952D01*
X118581428Y-135576904D02*
X118581428Y-134776904D01*
X118276666Y-134776904D01*
X118200476Y-134815000D01*
X118162380Y-134853095D01*
X118124285Y-134929285D01*
X118124285Y-135043571D01*
X118162380Y-135119761D01*
X118200476Y-135157857D01*
X118276666Y-135195952D01*
X118581428Y-135195952D01*
X117324285Y-135576904D02*
X117590952Y-135195952D01*
X117781428Y-135576904D02*
X117781428Y-134776904D01*
X117476666Y-134776904D01*
X117400476Y-134815000D01*
X117362380Y-134853095D01*
X117324285Y-134929285D01*
X117324285Y-135043571D01*
X117362380Y-135119761D01*
X117400476Y-135157857D01*
X117476666Y-135195952D01*
X117781428Y-135195952D01*
X71712142Y-122967142D02*
X71102619Y-122967142D01*
X71407380Y-123271904D02*
X71407380Y-122662380D01*
X70455000Y-122852857D02*
X70340714Y-122890952D01*
X70302619Y-122929047D01*
X70264523Y-123005238D01*
X70264523Y-123119523D01*
X70302619Y-123195714D01*
X70340714Y-123233809D01*
X70416904Y-123271904D01*
X70721666Y-123271904D01*
X70721666Y-122471904D01*
X70455000Y-122471904D01*
X70378809Y-122510000D01*
X70340714Y-122548095D01*
X70302619Y-122624285D01*
X70302619Y-122700476D01*
X70340714Y-122776666D01*
X70378809Y-122814761D01*
X70455000Y-122852857D01*
X70721666Y-122852857D01*
X69959761Y-123043333D02*
X69578809Y-123043333D01*
X70035952Y-123271904D02*
X69769285Y-122471904D01*
X69502619Y-123271904D01*
X69350238Y-122471904D02*
X68893095Y-122471904D01*
X69121666Y-123271904D02*
X69121666Y-122471904D01*
X68740714Y-122471904D02*
X68283571Y-122471904D01*
X68512142Y-123271904D02*
X68512142Y-122471904D01*
X42087380Y-131960000D02*
X42163571Y-131921904D01*
X42277857Y-131921904D01*
X42392142Y-131960000D01*
X42468333Y-132036190D01*
X42506428Y-132112380D01*
X42544523Y-132264761D01*
X42544523Y-132379047D01*
X42506428Y-132531428D01*
X42468333Y-132607619D01*
X42392142Y-132683809D01*
X42277857Y-132721904D01*
X42201666Y-132721904D01*
X42087380Y-132683809D01*
X42049285Y-132645714D01*
X42049285Y-132379047D01*
X42201666Y-132379047D01*
X41706428Y-132721904D02*
X41706428Y-131921904D01*
X41249285Y-132721904D01*
X41249285Y-131921904D01*
X40868333Y-132721904D02*
X40868333Y-131921904D01*
X40677857Y-131921904D01*
X40563571Y-131960000D01*
X40487380Y-132036190D01*
X40449285Y-132112380D01*
X40411190Y-132264761D01*
X40411190Y-132379047D01*
X40449285Y-132531428D01*
X40487380Y-132607619D01*
X40563571Y-132683809D01*
X40677857Y-132721904D01*
X40868333Y-132721904D01*
X39915952Y-131921904D02*
X39763571Y-131921904D01*
X39687380Y-131960000D01*
X39611190Y-132036190D01*
X39573095Y-132188571D01*
X39573095Y-132455238D01*
X39611190Y-132607619D01*
X39687380Y-132683809D01*
X39763571Y-132721904D01*
X39915952Y-132721904D01*
X39992142Y-132683809D01*
X40068333Y-132607619D01*
X40106428Y-132455238D01*
X40106428Y-132188571D01*
X40068333Y-132036190D01*
X39992142Y-131960000D01*
X39915952Y-131921904D01*
X39230238Y-131921904D02*
X39230238Y-132569523D01*
X39192142Y-132645714D01*
X39154047Y-132683809D01*
X39077857Y-132721904D01*
X38925476Y-132721904D01*
X38849285Y-132683809D01*
X38811190Y-132645714D01*
X38773095Y-132569523D01*
X38773095Y-131921904D01*
X38506428Y-131921904D02*
X38049285Y-131921904D01*
X38277857Y-132721904D02*
X38277857Y-131921904D01*
X86037142Y-135322142D02*
X85427619Y-135322142D01*
X84780000Y-135207857D02*
X84665714Y-135245952D01*
X84627619Y-135284047D01*
X84589523Y-135360238D01*
X84589523Y-135474523D01*
X84627619Y-135550714D01*
X84665714Y-135588809D01*
X84741904Y-135626904D01*
X85046666Y-135626904D01*
X85046666Y-134826904D01*
X84780000Y-134826904D01*
X84703809Y-134865000D01*
X84665714Y-134903095D01*
X84627619Y-134979285D01*
X84627619Y-135055476D01*
X84665714Y-135131666D01*
X84703809Y-135169761D01*
X84780000Y-135207857D01*
X85046666Y-135207857D01*
X84284761Y-135398333D02*
X83903809Y-135398333D01*
X84360952Y-135626904D02*
X84094285Y-134826904D01*
X83827619Y-135626904D01*
X83675238Y-134826904D02*
X83218095Y-134826904D01*
X83446666Y-135626904D02*
X83446666Y-134826904D01*
X83065714Y-134826904D02*
X82608571Y-134826904D01*
X82837142Y-135626904D02*
X82837142Y-134826904D01*
X77975238Y-137492857D02*
X77860952Y-137530952D01*
X77822857Y-137569047D01*
X77784761Y-137645238D01*
X77784761Y-137759523D01*
X77822857Y-137835714D01*
X77860952Y-137873809D01*
X77937142Y-137911904D01*
X78241904Y-137911904D01*
X78241904Y-137111904D01*
X77975238Y-137111904D01*
X77899047Y-137150000D01*
X77860952Y-137188095D01*
X77822857Y-137264285D01*
X77822857Y-137340476D01*
X77860952Y-137416666D01*
X77899047Y-137454761D01*
X77975238Y-137492857D01*
X78241904Y-137492857D01*
X77480000Y-137683333D02*
X77099047Y-137683333D01*
X77556190Y-137911904D02*
X77289523Y-137111904D01*
X77022857Y-137911904D01*
X76870476Y-137111904D02*
X76413333Y-137111904D01*
X76641904Y-137911904D02*
X76641904Y-137111904D01*
X76260952Y-137111904D02*
X75803809Y-137111904D01*
X76032380Y-137911904D02*
X76032380Y-137111904D01*
X75080000Y-137835714D02*
X75118095Y-137873809D01*
X75232380Y-137911904D01*
X75308571Y-137911904D01*
X75422857Y-137873809D01*
X75499047Y-137797619D01*
X75537142Y-137721428D01*
X75575238Y-137569047D01*
X75575238Y-137454761D01*
X75537142Y-137302380D01*
X75499047Y-137226190D01*
X75422857Y-137150000D01*
X75308571Y-137111904D01*
X75232380Y-137111904D01*
X75118095Y-137150000D01*
X75080000Y-137188095D01*
X112675476Y-136708333D02*
X112294523Y-136708333D01*
X112751666Y-136936904D02*
X112485000Y-136136904D01*
X112218333Y-136936904D01*
X111494523Y-136936904D02*
X111761190Y-136555952D01*
X111951666Y-136936904D02*
X111951666Y-136136904D01*
X111646904Y-136136904D01*
X111570714Y-136175000D01*
X111532619Y-136213095D01*
X111494523Y-136289285D01*
X111494523Y-136403571D01*
X111532619Y-136479761D01*
X111570714Y-136517857D01*
X111646904Y-136555952D01*
X111951666Y-136555952D01*
X110694523Y-136936904D02*
X110961190Y-136555952D01*
X111151666Y-136936904D02*
X111151666Y-136136904D01*
X110846904Y-136136904D01*
X110770714Y-136175000D01*
X110732619Y-136213095D01*
X110694523Y-136289285D01*
X110694523Y-136403571D01*
X110732619Y-136479761D01*
X110770714Y-136517857D01*
X110846904Y-136555952D01*
X111151666Y-136555952D01*
X109894523Y-136860714D02*
X109932619Y-136898809D01*
X110046904Y-136936904D01*
X110123095Y-136936904D01*
X110237380Y-136898809D01*
X110313571Y-136822619D01*
X110351666Y-136746428D01*
X110389761Y-136594047D01*
X110389761Y-136479761D01*
X110351666Y-136327380D01*
X110313571Y-136251190D01*
X110237380Y-136175000D01*
X110123095Y-136136904D01*
X110046904Y-136136904D01*
X109932619Y-136175000D01*
X109894523Y-136213095D01*
X38666190Y-130901904D02*
X38399523Y-131701904D01*
X38132857Y-130901904D01*
X37866190Y-131701904D02*
X37866190Y-130901904D01*
X37485238Y-131701904D02*
X37485238Y-130901904D01*
X37028095Y-131701904D01*
X37028095Y-130901904D01*
%TO.C,TP16*%
X112555476Y-132964904D02*
X112098333Y-132964904D01*
X112326904Y-133764904D02*
X112326904Y-132964904D01*
X111831666Y-133764904D02*
X111831666Y-132964904D01*
X111526904Y-132964904D01*
X111450714Y-133003000D01*
X111412619Y-133041095D01*
X111374523Y-133117285D01*
X111374523Y-133231571D01*
X111412619Y-133307761D01*
X111450714Y-133345857D01*
X111526904Y-133383952D01*
X111831666Y-133383952D01*
X110612619Y-133764904D02*
X111069761Y-133764904D01*
X110841190Y-133764904D02*
X110841190Y-132964904D01*
X110917380Y-133079190D01*
X110993571Y-133155380D01*
X111069761Y-133193476D01*
X109926904Y-132964904D02*
X110079285Y-132964904D01*
X110155476Y-133003000D01*
X110193571Y-133041095D01*
X110269761Y-133155380D01*
X110307857Y-133307761D01*
X110307857Y-133612523D01*
X110269761Y-133688714D01*
X110231666Y-133726809D01*
X110155476Y-133764904D01*
X110003095Y-133764904D01*
X109926904Y-133726809D01*
X109888809Y-133688714D01*
X109850714Y-133612523D01*
X109850714Y-133422047D01*
X109888809Y-133345857D01*
X109926904Y-133307761D01*
X110003095Y-133269666D01*
X110155476Y-133269666D01*
X110231666Y-133307761D01*
X110269761Y-133345857D01*
X110307857Y-133422047D01*
%TO.C,U6*%
X77614523Y-130247904D02*
X77614523Y-130895523D01*
X77576428Y-130971714D01*
X77538333Y-131009809D01*
X77462142Y-131047904D01*
X77309761Y-131047904D01*
X77233571Y-131009809D01*
X77195476Y-130971714D01*
X77157380Y-130895523D01*
X77157380Y-130247904D01*
X76433571Y-130247904D02*
X76585952Y-130247904D01*
X76662142Y-130286000D01*
X76700238Y-130324095D01*
X76776428Y-130438380D01*
X76814523Y-130590761D01*
X76814523Y-130895523D01*
X76776428Y-130971714D01*
X76738333Y-131009809D01*
X76662142Y-131047904D01*
X76509761Y-131047904D01*
X76433571Y-131009809D01*
X76395476Y-130971714D01*
X76357380Y-130895523D01*
X76357380Y-130705047D01*
X76395476Y-130628857D01*
X76433571Y-130590761D01*
X76509761Y-130552666D01*
X76662142Y-130552666D01*
X76738333Y-130590761D01*
X76776428Y-130628857D01*
X76814523Y-130705047D01*
%TO.C,D2*%
X56095476Y-81406904D02*
X56095476Y-80606904D01*
X55905000Y-80606904D01*
X55790714Y-80645000D01*
X55714523Y-80721190D01*
X55676428Y-80797380D01*
X55638333Y-80949761D01*
X55638333Y-81064047D01*
X55676428Y-81216428D01*
X55714523Y-81292619D01*
X55790714Y-81368809D01*
X55905000Y-81406904D01*
X56095476Y-81406904D01*
X55333571Y-80683095D02*
X55295476Y-80645000D01*
X55219285Y-80606904D01*
X55028809Y-80606904D01*
X54952619Y-80645000D01*
X54914523Y-80683095D01*
X54876428Y-80759285D01*
X54876428Y-80835476D01*
X54914523Y-80949761D01*
X55371666Y-81406904D01*
X54876428Y-81406904D01*
%TO.C,R10*%
X70359285Y-115986904D02*
X70625952Y-115605952D01*
X70816428Y-115986904D02*
X70816428Y-115186904D01*
X70511666Y-115186904D01*
X70435476Y-115225000D01*
X70397380Y-115263095D01*
X70359285Y-115339285D01*
X70359285Y-115453571D01*
X70397380Y-115529761D01*
X70435476Y-115567857D01*
X70511666Y-115605952D01*
X70816428Y-115605952D01*
X69597380Y-115986904D02*
X70054523Y-115986904D01*
X69825952Y-115986904D02*
X69825952Y-115186904D01*
X69902142Y-115301190D01*
X69978333Y-115377380D01*
X70054523Y-115415476D01*
X69102142Y-115186904D02*
X69025952Y-115186904D01*
X68949761Y-115225000D01*
X68911666Y-115263095D01*
X68873571Y-115339285D01*
X68835476Y-115491666D01*
X68835476Y-115682142D01*
X68873571Y-115834523D01*
X68911666Y-115910714D01*
X68949761Y-115948809D01*
X69025952Y-115986904D01*
X69102142Y-115986904D01*
X69178333Y-115948809D01*
X69216428Y-115910714D01*
X69254523Y-115834523D01*
X69292619Y-115682142D01*
X69292619Y-115491666D01*
X69254523Y-115339285D01*
X69216428Y-115263095D01*
X69178333Y-115225000D01*
X69102142Y-115186904D01*
%TO.C,C19*%
X39624285Y-138180714D02*
X39662380Y-138218809D01*
X39776666Y-138256904D01*
X39852857Y-138256904D01*
X39967142Y-138218809D01*
X40043333Y-138142619D01*
X40081428Y-138066428D01*
X40119523Y-137914047D01*
X40119523Y-137799761D01*
X40081428Y-137647380D01*
X40043333Y-137571190D01*
X39967142Y-137495000D01*
X39852857Y-137456904D01*
X39776666Y-137456904D01*
X39662380Y-137495000D01*
X39624285Y-137533095D01*
X38862380Y-138256904D02*
X39319523Y-138256904D01*
X39090952Y-138256904D02*
X39090952Y-137456904D01*
X39167142Y-137571190D01*
X39243333Y-137647380D01*
X39319523Y-137685476D01*
X38481428Y-138256904D02*
X38329047Y-138256904D01*
X38252857Y-138218809D01*
X38214761Y-138180714D01*
X38138571Y-138066428D01*
X38100476Y-137914047D01*
X38100476Y-137609285D01*
X38138571Y-137533095D01*
X38176666Y-137495000D01*
X38252857Y-137456904D01*
X38405238Y-137456904D01*
X38481428Y-137495000D01*
X38519523Y-137533095D01*
X38557619Y-137609285D01*
X38557619Y-137799761D01*
X38519523Y-137875952D01*
X38481428Y-137914047D01*
X38405238Y-137952142D01*
X38252857Y-137952142D01*
X38176666Y-137914047D01*
X38138571Y-137875952D01*
X38100476Y-137799761D01*
%TO.C,TP17*%
X85715476Y-131689904D02*
X85258333Y-131689904D01*
X85486904Y-132489904D02*
X85486904Y-131689904D01*
X84991666Y-132489904D02*
X84991666Y-131689904D01*
X84686904Y-131689904D01*
X84610714Y-131728000D01*
X84572619Y-131766095D01*
X84534523Y-131842285D01*
X84534523Y-131956571D01*
X84572619Y-132032761D01*
X84610714Y-132070857D01*
X84686904Y-132108952D01*
X84991666Y-132108952D01*
X83772619Y-132489904D02*
X84229761Y-132489904D01*
X84001190Y-132489904D02*
X84001190Y-131689904D01*
X84077380Y-131804190D01*
X84153571Y-131880380D01*
X84229761Y-131918476D01*
X83505952Y-131689904D02*
X82972619Y-131689904D01*
X83315476Y-132489904D01*
%TO.C,R6*%
X115943333Y-129506904D02*
X116210000Y-129125952D01*
X116400476Y-129506904D02*
X116400476Y-128706904D01*
X116095714Y-128706904D01*
X116019523Y-128745000D01*
X115981428Y-128783095D01*
X115943333Y-128859285D01*
X115943333Y-128973571D01*
X115981428Y-129049761D01*
X116019523Y-129087857D01*
X116095714Y-129125952D01*
X116400476Y-129125952D01*
X115257619Y-128706904D02*
X115410000Y-128706904D01*
X115486190Y-128745000D01*
X115524285Y-128783095D01*
X115600476Y-128897380D01*
X115638571Y-129049761D01*
X115638571Y-129354523D01*
X115600476Y-129430714D01*
X115562380Y-129468809D01*
X115486190Y-129506904D01*
X115333809Y-129506904D01*
X115257619Y-129468809D01*
X115219523Y-129430714D01*
X115181428Y-129354523D01*
X115181428Y-129164047D01*
X115219523Y-129087857D01*
X115257619Y-129049761D01*
X115333809Y-129011666D01*
X115486190Y-129011666D01*
X115562380Y-129049761D01*
X115600476Y-129087857D01*
X115638571Y-129164047D01*
%TO.C,TP26*%
X43230476Y-126681904D02*
X42773333Y-126681904D01*
X43001904Y-127481904D02*
X43001904Y-126681904D01*
X42506666Y-127481904D02*
X42506666Y-126681904D01*
X42201904Y-126681904D01*
X42125714Y-126720000D01*
X42087619Y-126758095D01*
X42049523Y-126834285D01*
X42049523Y-126948571D01*
X42087619Y-127024761D01*
X42125714Y-127062857D01*
X42201904Y-127100952D01*
X42506666Y-127100952D01*
X41744761Y-126758095D02*
X41706666Y-126720000D01*
X41630476Y-126681904D01*
X41440000Y-126681904D01*
X41363809Y-126720000D01*
X41325714Y-126758095D01*
X41287619Y-126834285D01*
X41287619Y-126910476D01*
X41325714Y-127024761D01*
X41782857Y-127481904D01*
X41287619Y-127481904D01*
X40601904Y-126681904D02*
X40754285Y-126681904D01*
X40830476Y-126720000D01*
X40868571Y-126758095D01*
X40944761Y-126872380D01*
X40982857Y-127024761D01*
X40982857Y-127329523D01*
X40944761Y-127405714D01*
X40906666Y-127443809D01*
X40830476Y-127481904D01*
X40678095Y-127481904D01*
X40601904Y-127443809D01*
X40563809Y-127405714D01*
X40525714Y-127329523D01*
X40525714Y-127139047D01*
X40563809Y-127062857D01*
X40601904Y-127024761D01*
X40678095Y-126986666D01*
X40830476Y-126986666D01*
X40906666Y-127024761D01*
X40944761Y-127062857D01*
X40982857Y-127139047D01*
%TO.C,C14*%
X41874285Y-115805714D02*
X41912380Y-115843809D01*
X42026666Y-115881904D01*
X42102857Y-115881904D01*
X42217142Y-115843809D01*
X42293333Y-115767619D01*
X42331428Y-115691428D01*
X42369523Y-115539047D01*
X42369523Y-115424761D01*
X42331428Y-115272380D01*
X42293333Y-115196190D01*
X42217142Y-115120000D01*
X42102857Y-115081904D01*
X42026666Y-115081904D01*
X41912380Y-115120000D01*
X41874285Y-115158095D01*
X41112380Y-115881904D02*
X41569523Y-115881904D01*
X41340952Y-115881904D02*
X41340952Y-115081904D01*
X41417142Y-115196190D01*
X41493333Y-115272380D01*
X41569523Y-115310476D01*
X40426666Y-115348571D02*
X40426666Y-115881904D01*
X40617142Y-115043809D02*
X40807619Y-115615238D01*
X40312380Y-115615238D01*
%TO.C,C15*%
X41954285Y-118945714D02*
X41992380Y-118983809D01*
X42106666Y-119021904D01*
X42182857Y-119021904D01*
X42297142Y-118983809D01*
X42373333Y-118907619D01*
X42411428Y-118831428D01*
X42449523Y-118679047D01*
X42449523Y-118564761D01*
X42411428Y-118412380D01*
X42373333Y-118336190D01*
X42297142Y-118260000D01*
X42182857Y-118221904D01*
X42106666Y-118221904D01*
X41992380Y-118260000D01*
X41954285Y-118298095D01*
X41192380Y-119021904D02*
X41649523Y-119021904D01*
X41420952Y-119021904D02*
X41420952Y-118221904D01*
X41497142Y-118336190D01*
X41573333Y-118412380D01*
X41649523Y-118450476D01*
X40468571Y-118221904D02*
X40849523Y-118221904D01*
X40887619Y-118602857D01*
X40849523Y-118564761D01*
X40773333Y-118526666D01*
X40582857Y-118526666D01*
X40506666Y-118564761D01*
X40468571Y-118602857D01*
X40430476Y-118679047D01*
X40430476Y-118869523D01*
X40468571Y-118945714D01*
X40506666Y-118983809D01*
X40582857Y-119021904D01*
X40773333Y-119021904D01*
X40849523Y-118983809D01*
X40887619Y-118945714D01*
%TO.C,R9*%
X106658333Y-112600654D02*
X106925000Y-112219702D01*
X107115476Y-112600654D02*
X107115476Y-111800654D01*
X106810714Y-111800654D01*
X106734523Y-111838750D01*
X106696428Y-111876845D01*
X106658333Y-111953035D01*
X106658333Y-112067321D01*
X106696428Y-112143511D01*
X106734523Y-112181607D01*
X106810714Y-112219702D01*
X107115476Y-112219702D01*
X106277380Y-112600654D02*
X106125000Y-112600654D01*
X106048809Y-112562559D01*
X106010714Y-112524464D01*
X105934523Y-112410178D01*
X105896428Y-112257797D01*
X105896428Y-111953035D01*
X105934523Y-111876845D01*
X105972619Y-111838750D01*
X106048809Y-111800654D01*
X106201190Y-111800654D01*
X106277380Y-111838750D01*
X106315476Y-111876845D01*
X106353571Y-111953035D01*
X106353571Y-112143511D01*
X106315476Y-112219702D01*
X106277380Y-112257797D01*
X106201190Y-112295892D01*
X106048809Y-112295892D01*
X105972619Y-112257797D01*
X105934523Y-112219702D01*
X105896428Y-112143511D01*
%TO.C,TP5*%
X60984523Y-139266904D02*
X60527380Y-139266904D01*
X60755952Y-140066904D02*
X60755952Y-139266904D01*
X60260714Y-140066904D02*
X60260714Y-139266904D01*
X59955952Y-139266904D01*
X59879761Y-139305000D01*
X59841666Y-139343095D01*
X59803571Y-139419285D01*
X59803571Y-139533571D01*
X59841666Y-139609761D01*
X59879761Y-139647857D01*
X59955952Y-139685952D01*
X60260714Y-139685952D01*
X59079761Y-139266904D02*
X59460714Y-139266904D01*
X59498809Y-139647857D01*
X59460714Y-139609761D01*
X59384523Y-139571666D01*
X59194047Y-139571666D01*
X59117857Y-139609761D01*
X59079761Y-139647857D01*
X59041666Y-139724047D01*
X59041666Y-139914523D01*
X59079761Y-139990714D01*
X59117857Y-140028809D01*
X59194047Y-140066904D01*
X59384523Y-140066904D01*
X59460714Y-140028809D01*
X59498809Y-139990714D01*
%TO.C,R3*%
X53595833Y-119906904D02*
X53862500Y-119525952D01*
X54052976Y-119906904D02*
X54052976Y-119106904D01*
X53748214Y-119106904D01*
X53672023Y-119145000D01*
X53633928Y-119183095D01*
X53595833Y-119259285D01*
X53595833Y-119373571D01*
X53633928Y-119449761D01*
X53672023Y-119487857D01*
X53748214Y-119525952D01*
X54052976Y-119525952D01*
X53329166Y-119106904D02*
X52833928Y-119106904D01*
X53100595Y-119411666D01*
X52986309Y-119411666D01*
X52910119Y-119449761D01*
X52872023Y-119487857D01*
X52833928Y-119564047D01*
X52833928Y-119754523D01*
X52872023Y-119830714D01*
X52910119Y-119868809D01*
X52986309Y-119906904D01*
X53214880Y-119906904D01*
X53291071Y-119868809D01*
X53329166Y-119830714D01*
%TO.C,C11*%
X76699285Y-127781714D02*
X76737380Y-127819809D01*
X76851666Y-127857904D01*
X76927857Y-127857904D01*
X77042142Y-127819809D01*
X77118333Y-127743619D01*
X77156428Y-127667428D01*
X77194523Y-127515047D01*
X77194523Y-127400761D01*
X77156428Y-127248380D01*
X77118333Y-127172190D01*
X77042142Y-127096000D01*
X76927857Y-127057904D01*
X76851666Y-127057904D01*
X76737380Y-127096000D01*
X76699285Y-127134095D01*
X75937380Y-127857904D02*
X76394523Y-127857904D01*
X76165952Y-127857904D02*
X76165952Y-127057904D01*
X76242142Y-127172190D01*
X76318333Y-127248380D01*
X76394523Y-127286476D01*
X75175476Y-127857904D02*
X75632619Y-127857904D01*
X75404047Y-127857904D02*
X75404047Y-127057904D01*
X75480238Y-127172190D01*
X75556428Y-127248380D01*
X75632619Y-127286476D01*
%TO.C,C7*%
X53628333Y-126190714D02*
X53666428Y-126228809D01*
X53780714Y-126266904D01*
X53856904Y-126266904D01*
X53971190Y-126228809D01*
X54047380Y-126152619D01*
X54085476Y-126076428D01*
X54123571Y-125924047D01*
X54123571Y-125809761D01*
X54085476Y-125657380D01*
X54047380Y-125581190D01*
X53971190Y-125505000D01*
X53856904Y-125466904D01*
X53780714Y-125466904D01*
X53666428Y-125505000D01*
X53628333Y-125543095D01*
X53361666Y-125466904D02*
X52828333Y-125466904D01*
X53171190Y-126266904D01*
%TO.C,TP18*%
X85680476Y-128749904D02*
X85223333Y-128749904D01*
X85451904Y-129549904D02*
X85451904Y-128749904D01*
X84956666Y-129549904D02*
X84956666Y-128749904D01*
X84651904Y-128749904D01*
X84575714Y-128788000D01*
X84537619Y-128826095D01*
X84499523Y-128902285D01*
X84499523Y-129016571D01*
X84537619Y-129092761D01*
X84575714Y-129130857D01*
X84651904Y-129168952D01*
X84956666Y-129168952D01*
X83737619Y-129549904D02*
X84194761Y-129549904D01*
X83966190Y-129549904D02*
X83966190Y-128749904D01*
X84042380Y-128864190D01*
X84118571Y-128940380D01*
X84194761Y-128978476D01*
X83280476Y-129092761D02*
X83356666Y-129054666D01*
X83394761Y-129016571D01*
X83432857Y-128940380D01*
X83432857Y-128902285D01*
X83394761Y-128826095D01*
X83356666Y-128788000D01*
X83280476Y-128749904D01*
X83128095Y-128749904D01*
X83051904Y-128788000D01*
X83013809Y-128826095D01*
X82975714Y-128902285D01*
X82975714Y-128940380D01*
X83013809Y-129016571D01*
X83051904Y-129054666D01*
X83128095Y-129092761D01*
X83280476Y-129092761D01*
X83356666Y-129130857D01*
X83394761Y-129168952D01*
X83432857Y-129245142D01*
X83432857Y-129397523D01*
X83394761Y-129473714D01*
X83356666Y-129511809D01*
X83280476Y-129549904D01*
X83128095Y-129549904D01*
X83051904Y-129511809D01*
X83013809Y-129473714D01*
X82975714Y-129397523D01*
X82975714Y-129245142D01*
X83013809Y-129168952D01*
X83051904Y-129130857D01*
X83128095Y-129092761D01*
%TO.C,TP31*%
X33155476Y-127786904D02*
X32698333Y-127786904D01*
X32926904Y-128586904D02*
X32926904Y-127786904D01*
X32431666Y-128586904D02*
X32431666Y-127786904D01*
X32126904Y-127786904D01*
X32050714Y-127825000D01*
X32012619Y-127863095D01*
X31974523Y-127939285D01*
X31974523Y-128053571D01*
X32012619Y-128129761D01*
X32050714Y-128167857D01*
X32126904Y-128205952D01*
X32431666Y-128205952D01*
X31707857Y-127786904D02*
X31212619Y-127786904D01*
X31479285Y-128091666D01*
X31365000Y-128091666D01*
X31288809Y-128129761D01*
X31250714Y-128167857D01*
X31212619Y-128244047D01*
X31212619Y-128434523D01*
X31250714Y-128510714D01*
X31288809Y-128548809D01*
X31365000Y-128586904D01*
X31593571Y-128586904D01*
X31669761Y-128548809D01*
X31707857Y-128510714D01*
X30450714Y-128586904D02*
X30907857Y-128586904D01*
X30679285Y-128586904D02*
X30679285Y-127786904D01*
X30755476Y-127901190D01*
X30831666Y-127977380D01*
X30907857Y-128015476D01*
%TO.C,TP23*%
X64020476Y-114156904D02*
X63563333Y-114156904D01*
X63791904Y-114956904D02*
X63791904Y-114156904D01*
X63296666Y-114956904D02*
X63296666Y-114156904D01*
X62991904Y-114156904D01*
X62915714Y-114195000D01*
X62877619Y-114233095D01*
X62839523Y-114309285D01*
X62839523Y-114423571D01*
X62877619Y-114499761D01*
X62915714Y-114537857D01*
X62991904Y-114575952D01*
X63296666Y-114575952D01*
X62534761Y-114233095D02*
X62496666Y-114195000D01*
X62420476Y-114156904D01*
X62230000Y-114156904D01*
X62153809Y-114195000D01*
X62115714Y-114233095D01*
X62077619Y-114309285D01*
X62077619Y-114385476D01*
X62115714Y-114499761D01*
X62572857Y-114956904D01*
X62077619Y-114956904D01*
X61810952Y-114156904D02*
X61315714Y-114156904D01*
X61582380Y-114461666D01*
X61468095Y-114461666D01*
X61391904Y-114499761D01*
X61353809Y-114537857D01*
X61315714Y-114614047D01*
X61315714Y-114804523D01*
X61353809Y-114880714D01*
X61391904Y-114918809D01*
X61468095Y-114956904D01*
X61696666Y-114956904D01*
X61772857Y-114918809D01*
X61810952Y-114880714D01*
%TO.C,D10*%
X66186428Y-111456904D02*
X66186428Y-110656904D01*
X65995952Y-110656904D01*
X65881666Y-110695000D01*
X65805476Y-110771190D01*
X65767380Y-110847380D01*
X65729285Y-110999761D01*
X65729285Y-111114047D01*
X65767380Y-111266428D01*
X65805476Y-111342619D01*
X65881666Y-111418809D01*
X65995952Y-111456904D01*
X66186428Y-111456904D01*
X64967380Y-111456904D02*
X65424523Y-111456904D01*
X65195952Y-111456904D02*
X65195952Y-110656904D01*
X65272142Y-110771190D01*
X65348333Y-110847380D01*
X65424523Y-110885476D01*
X64472142Y-110656904D02*
X64395952Y-110656904D01*
X64319761Y-110695000D01*
X64281666Y-110733095D01*
X64243571Y-110809285D01*
X64205476Y-110961666D01*
X64205476Y-111152142D01*
X64243571Y-111304523D01*
X64281666Y-111380714D01*
X64319761Y-111418809D01*
X64395952Y-111456904D01*
X64472142Y-111456904D01*
X64548333Y-111418809D01*
X64586428Y-111380714D01*
X64624523Y-111304523D01*
X64662619Y-111152142D01*
X64662619Y-110961666D01*
X64624523Y-110809285D01*
X64586428Y-110733095D01*
X64548333Y-110695000D01*
X64472142Y-110656904D01*
%TO.C,TP19*%
X77937142Y-134039904D02*
X77479999Y-134039904D01*
X77708570Y-134839904D02*
X77708570Y-134039904D01*
X77213332Y-134839904D02*
X77213332Y-134039904D01*
X76908570Y-134039904D01*
X76832380Y-134078000D01*
X76794285Y-134116095D01*
X76756189Y-134192285D01*
X76756189Y-134306571D01*
X76794285Y-134382761D01*
X76832380Y-134420857D01*
X76908570Y-134458952D01*
X77213332Y-134458952D01*
X75994285Y-134839904D02*
X76451427Y-134839904D01*
X76222856Y-134839904D02*
X76222856Y-134039904D01*
X76299046Y-134154190D01*
X76375237Y-134230380D01*
X76451427Y-134268476D01*
X75613332Y-134839904D02*
X75460951Y-134839904D01*
X75384761Y-134801809D01*
X75346666Y-134763714D01*
X75270475Y-134649428D01*
X75232380Y-134497047D01*
X75232380Y-134192285D01*
X75270475Y-134116095D01*
X75308570Y-134078000D01*
X75384761Y-134039904D01*
X75537142Y-134039904D01*
X75613332Y-134078000D01*
X75651427Y-134116095D01*
X75689523Y-134192285D01*
X75689523Y-134382761D01*
X75651427Y-134458952D01*
X75613332Y-134497047D01*
X75537142Y-134535142D01*
X75384761Y-134535142D01*
X75308570Y-134497047D01*
X75270475Y-134458952D01*
X75232380Y-134382761D01*
%TO.C,D8*%
X73740476Y-131362904D02*
X73740476Y-130562904D01*
X73550000Y-130562904D01*
X73435714Y-130601000D01*
X73359523Y-130677190D01*
X73321428Y-130753380D01*
X73283333Y-130905761D01*
X73283333Y-131020047D01*
X73321428Y-131172428D01*
X73359523Y-131248619D01*
X73435714Y-131324809D01*
X73550000Y-131362904D01*
X73740476Y-131362904D01*
X72826190Y-130905761D02*
X72902380Y-130867666D01*
X72940476Y-130829571D01*
X72978571Y-130753380D01*
X72978571Y-130715285D01*
X72940476Y-130639095D01*
X72902380Y-130601000D01*
X72826190Y-130562904D01*
X72673809Y-130562904D01*
X72597619Y-130601000D01*
X72559523Y-130639095D01*
X72521428Y-130715285D01*
X72521428Y-130753380D01*
X72559523Y-130829571D01*
X72597619Y-130867666D01*
X72673809Y-130905761D01*
X72826190Y-130905761D01*
X72902380Y-130943857D01*
X72940476Y-130981952D01*
X72978571Y-131058142D01*
X72978571Y-131210523D01*
X72940476Y-131286714D01*
X72902380Y-131324809D01*
X72826190Y-131362904D01*
X72673809Y-131362904D01*
X72597619Y-131324809D01*
X72559523Y-131286714D01*
X72521428Y-131210523D01*
X72521428Y-131058142D01*
X72559523Y-130981952D01*
X72597619Y-130943857D01*
X72673809Y-130905761D01*
%TO.C,R14*%
X32544285Y-139676904D02*
X32810952Y-139295952D01*
X33001428Y-139676904D02*
X33001428Y-138876904D01*
X32696666Y-138876904D01*
X32620476Y-138915000D01*
X32582380Y-138953095D01*
X32544285Y-139029285D01*
X32544285Y-139143571D01*
X32582380Y-139219761D01*
X32620476Y-139257857D01*
X32696666Y-139295952D01*
X33001428Y-139295952D01*
X31782380Y-139676904D02*
X32239523Y-139676904D01*
X32010952Y-139676904D02*
X32010952Y-138876904D01*
X32087142Y-138991190D01*
X32163333Y-139067380D01*
X32239523Y-139105476D01*
X31096666Y-139143571D02*
X31096666Y-139676904D01*
X31287142Y-138838809D02*
X31477619Y-139410238D01*
X30982380Y-139410238D01*
%TO.C,TP1*%
X52567023Y-139258904D02*
X52109880Y-139258904D01*
X52338452Y-140058904D02*
X52338452Y-139258904D01*
X51843214Y-140058904D02*
X51843214Y-139258904D01*
X51538452Y-139258904D01*
X51462261Y-139297000D01*
X51424166Y-139335095D01*
X51386071Y-139411285D01*
X51386071Y-139525571D01*
X51424166Y-139601761D01*
X51462261Y-139639857D01*
X51538452Y-139677952D01*
X51843214Y-139677952D01*
X50624166Y-140058904D02*
X51081309Y-140058904D01*
X50852738Y-140058904D02*
X50852738Y-139258904D01*
X50928928Y-139373190D01*
X51005119Y-139449380D01*
X51081309Y-139487476D01*
%TO.C,C18*%
X42484285Y-134345714D02*
X42522380Y-134383809D01*
X42636666Y-134421904D01*
X42712857Y-134421904D01*
X42827142Y-134383809D01*
X42903333Y-134307619D01*
X42941428Y-134231428D01*
X42979523Y-134079047D01*
X42979523Y-133964761D01*
X42941428Y-133812380D01*
X42903333Y-133736190D01*
X42827142Y-133660000D01*
X42712857Y-133621904D01*
X42636666Y-133621904D01*
X42522380Y-133660000D01*
X42484285Y-133698095D01*
X41722380Y-134421904D02*
X42179523Y-134421904D01*
X41950952Y-134421904D02*
X41950952Y-133621904D01*
X42027142Y-133736190D01*
X42103333Y-133812380D01*
X42179523Y-133850476D01*
X41265238Y-133964761D02*
X41341428Y-133926666D01*
X41379523Y-133888571D01*
X41417619Y-133812380D01*
X41417619Y-133774285D01*
X41379523Y-133698095D01*
X41341428Y-133660000D01*
X41265238Y-133621904D01*
X41112857Y-133621904D01*
X41036666Y-133660000D01*
X40998571Y-133698095D01*
X40960476Y-133774285D01*
X40960476Y-133812380D01*
X40998571Y-133888571D01*
X41036666Y-133926666D01*
X41112857Y-133964761D01*
X41265238Y-133964761D01*
X41341428Y-134002857D01*
X41379523Y-134040952D01*
X41417619Y-134117142D01*
X41417619Y-134269523D01*
X41379523Y-134345714D01*
X41341428Y-134383809D01*
X41265238Y-134421904D01*
X41112857Y-134421904D01*
X41036666Y-134383809D01*
X40998571Y-134345714D01*
X40960476Y-134269523D01*
X40960476Y-134117142D01*
X40998571Y-134040952D01*
X41036666Y-134002857D01*
X41112857Y-133964761D01*
%TO.C,C20*%
X33924285Y-138220714D02*
X33962380Y-138258809D01*
X34076666Y-138296904D01*
X34152857Y-138296904D01*
X34267142Y-138258809D01*
X34343333Y-138182619D01*
X34381428Y-138106428D01*
X34419523Y-137954047D01*
X34419523Y-137839761D01*
X34381428Y-137687380D01*
X34343333Y-137611190D01*
X34267142Y-137535000D01*
X34152857Y-137496904D01*
X34076666Y-137496904D01*
X33962380Y-137535000D01*
X33924285Y-137573095D01*
X33619523Y-137573095D02*
X33581428Y-137535000D01*
X33505238Y-137496904D01*
X33314761Y-137496904D01*
X33238571Y-137535000D01*
X33200476Y-137573095D01*
X33162380Y-137649285D01*
X33162380Y-137725476D01*
X33200476Y-137839761D01*
X33657619Y-138296904D01*
X33162380Y-138296904D01*
X32667142Y-137496904D02*
X32590952Y-137496904D01*
X32514761Y-137535000D01*
X32476666Y-137573095D01*
X32438571Y-137649285D01*
X32400476Y-137801666D01*
X32400476Y-137992142D01*
X32438571Y-138144523D01*
X32476666Y-138220714D01*
X32514761Y-138258809D01*
X32590952Y-138296904D01*
X32667142Y-138296904D01*
X32743333Y-138258809D01*
X32781428Y-138220714D01*
X32819523Y-138144523D01*
X32857619Y-137992142D01*
X32857619Y-137801666D01*
X32819523Y-137649285D01*
X32781428Y-137573095D01*
X32743333Y-137535000D01*
X32667142Y-137496904D01*
%TO.C,C6*%
X53378333Y-135825714D02*
X53416428Y-135863809D01*
X53530714Y-135901904D01*
X53606904Y-135901904D01*
X53721190Y-135863809D01*
X53797380Y-135787619D01*
X53835476Y-135711428D01*
X53873571Y-135559047D01*
X53873571Y-135444761D01*
X53835476Y-135292380D01*
X53797380Y-135216190D01*
X53721190Y-135140000D01*
X53606904Y-135101904D01*
X53530714Y-135101904D01*
X53416428Y-135140000D01*
X53378333Y-135178095D01*
X52692619Y-135101904D02*
X52845000Y-135101904D01*
X52921190Y-135140000D01*
X52959285Y-135178095D01*
X53035476Y-135292380D01*
X53073571Y-135444761D01*
X53073571Y-135749523D01*
X53035476Y-135825714D01*
X52997380Y-135863809D01*
X52921190Y-135901904D01*
X52768809Y-135901904D01*
X52692619Y-135863809D01*
X52654523Y-135825714D01*
X52616428Y-135749523D01*
X52616428Y-135559047D01*
X52654523Y-135482857D01*
X52692619Y-135444761D01*
X52768809Y-135406666D01*
X52921190Y-135406666D01*
X52997380Y-135444761D01*
X53035476Y-135482857D01*
X53073571Y-135559047D01*
%TO.C,TP7*%
X54604523Y-83901904D02*
X54147380Y-83901904D01*
X54375952Y-84701904D02*
X54375952Y-83901904D01*
X53880714Y-84701904D02*
X53880714Y-83901904D01*
X53575952Y-83901904D01*
X53499761Y-83940000D01*
X53461666Y-83978095D01*
X53423571Y-84054285D01*
X53423571Y-84168571D01*
X53461666Y-84244761D01*
X53499761Y-84282857D01*
X53575952Y-84320952D01*
X53880714Y-84320952D01*
X53156904Y-83901904D02*
X52623571Y-83901904D01*
X52966428Y-84701904D01*
%TO.C,TP25*%
X34925476Y-115313904D02*
X34468333Y-115313904D01*
X34696904Y-116113904D02*
X34696904Y-115313904D01*
X34201666Y-116113904D02*
X34201666Y-115313904D01*
X33896904Y-115313904D01*
X33820714Y-115352000D01*
X33782619Y-115390095D01*
X33744523Y-115466285D01*
X33744523Y-115580571D01*
X33782619Y-115656761D01*
X33820714Y-115694857D01*
X33896904Y-115732952D01*
X34201666Y-115732952D01*
X33439761Y-115390095D02*
X33401666Y-115352000D01*
X33325476Y-115313904D01*
X33135000Y-115313904D01*
X33058809Y-115352000D01*
X33020714Y-115390095D01*
X32982619Y-115466285D01*
X32982619Y-115542476D01*
X33020714Y-115656761D01*
X33477857Y-116113904D01*
X32982619Y-116113904D01*
X32258809Y-115313904D02*
X32639761Y-115313904D01*
X32677857Y-115694857D01*
X32639761Y-115656761D01*
X32563571Y-115618666D01*
X32373095Y-115618666D01*
X32296904Y-115656761D01*
X32258809Y-115694857D01*
X32220714Y-115771047D01*
X32220714Y-115961523D01*
X32258809Y-116037714D01*
X32296904Y-116075809D01*
X32373095Y-116113904D01*
X32563571Y-116113904D01*
X32639761Y-116075809D01*
X32677857Y-116037714D01*
%TO.C,C2*%
X56178333Y-145570714D02*
X56216428Y-145608809D01*
X56330714Y-145646904D01*
X56406904Y-145646904D01*
X56521190Y-145608809D01*
X56597380Y-145532619D01*
X56635476Y-145456428D01*
X56673571Y-145304047D01*
X56673571Y-145189761D01*
X56635476Y-145037380D01*
X56597380Y-144961190D01*
X56521190Y-144885000D01*
X56406904Y-144846904D01*
X56330714Y-144846904D01*
X56216428Y-144885000D01*
X56178333Y-144923095D01*
X55873571Y-144923095D02*
X55835476Y-144885000D01*
X55759285Y-144846904D01*
X55568809Y-144846904D01*
X55492619Y-144885000D01*
X55454523Y-144923095D01*
X55416428Y-144999285D01*
X55416428Y-145075476D01*
X55454523Y-145189761D01*
X55911666Y-145646904D01*
X55416428Y-145646904D01*
%TO.C,U8*%
X67029523Y-114081904D02*
X67029523Y-114729523D01*
X66991428Y-114805714D01*
X66953333Y-114843809D01*
X66877142Y-114881904D01*
X66724761Y-114881904D01*
X66648571Y-114843809D01*
X66610476Y-114805714D01*
X66572380Y-114729523D01*
X66572380Y-114081904D01*
X66077142Y-114424761D02*
X66153333Y-114386666D01*
X66191428Y-114348571D01*
X66229523Y-114272380D01*
X66229523Y-114234285D01*
X66191428Y-114158095D01*
X66153333Y-114120000D01*
X66077142Y-114081904D01*
X65924761Y-114081904D01*
X65848571Y-114120000D01*
X65810476Y-114158095D01*
X65772380Y-114234285D01*
X65772380Y-114272380D01*
X65810476Y-114348571D01*
X65848571Y-114386666D01*
X65924761Y-114424761D01*
X66077142Y-114424761D01*
X66153333Y-114462857D01*
X66191428Y-114500952D01*
X66229523Y-114577142D01*
X66229523Y-114729523D01*
X66191428Y-114805714D01*
X66153333Y-114843809D01*
X66077142Y-114881904D01*
X65924761Y-114881904D01*
X65848571Y-114843809D01*
X65810476Y-114805714D01*
X65772380Y-114729523D01*
X65772380Y-114577142D01*
X65810476Y-114500952D01*
X65848571Y-114462857D01*
X65924761Y-114424761D01*
%TO.C,TP27*%
X39185476Y-126661904D02*
X38728333Y-126661904D01*
X38956904Y-127461904D02*
X38956904Y-126661904D01*
X38461666Y-127461904D02*
X38461666Y-126661904D01*
X38156904Y-126661904D01*
X38080714Y-126700000D01*
X38042619Y-126738095D01*
X38004523Y-126814285D01*
X38004523Y-126928571D01*
X38042619Y-127004761D01*
X38080714Y-127042857D01*
X38156904Y-127080952D01*
X38461666Y-127080952D01*
X37699761Y-126738095D02*
X37661666Y-126700000D01*
X37585476Y-126661904D01*
X37395000Y-126661904D01*
X37318809Y-126700000D01*
X37280714Y-126738095D01*
X37242619Y-126814285D01*
X37242619Y-126890476D01*
X37280714Y-127004761D01*
X37737857Y-127461904D01*
X37242619Y-127461904D01*
X36975952Y-126661904D02*
X36442619Y-126661904D01*
X36785476Y-127461904D01*
%TO.C,R12*%
X31609285Y-134246904D02*
X31875952Y-133865952D01*
X32066428Y-134246904D02*
X32066428Y-133446904D01*
X31761666Y-133446904D01*
X31685476Y-133485000D01*
X31647380Y-133523095D01*
X31609285Y-133599285D01*
X31609285Y-133713571D01*
X31647380Y-133789761D01*
X31685476Y-133827857D01*
X31761666Y-133865952D01*
X32066428Y-133865952D01*
X30847380Y-134246904D02*
X31304523Y-134246904D01*
X31075952Y-134246904D02*
X31075952Y-133446904D01*
X31152142Y-133561190D01*
X31228333Y-133637380D01*
X31304523Y-133675476D01*
X30542619Y-133523095D02*
X30504523Y-133485000D01*
X30428333Y-133446904D01*
X30237857Y-133446904D01*
X30161666Y-133485000D01*
X30123571Y-133523095D01*
X30085476Y-133599285D01*
X30085476Y-133675476D01*
X30123571Y-133789761D01*
X30580714Y-134246904D01*
X30085476Y-134246904D01*
%TO.C,R11*%
X70379285Y-111496904D02*
X70645952Y-111115952D01*
X70836428Y-111496904D02*
X70836428Y-110696904D01*
X70531666Y-110696904D01*
X70455476Y-110735000D01*
X70417380Y-110773095D01*
X70379285Y-110849285D01*
X70379285Y-110963571D01*
X70417380Y-111039761D01*
X70455476Y-111077857D01*
X70531666Y-111115952D01*
X70836428Y-111115952D01*
X69617380Y-111496904D02*
X70074523Y-111496904D01*
X69845952Y-111496904D02*
X69845952Y-110696904D01*
X69922142Y-110811190D01*
X69998333Y-110887380D01*
X70074523Y-110925476D01*
X68855476Y-111496904D02*
X69312619Y-111496904D01*
X69084047Y-111496904D02*
X69084047Y-110696904D01*
X69160238Y-110811190D01*
X69236428Y-110887380D01*
X69312619Y-110925476D01*
%TO.C,TP24*%
X34895476Y-118271904D02*
X34438333Y-118271904D01*
X34666904Y-119071904D02*
X34666904Y-118271904D01*
X34171666Y-119071904D02*
X34171666Y-118271904D01*
X33866904Y-118271904D01*
X33790714Y-118310000D01*
X33752619Y-118348095D01*
X33714523Y-118424285D01*
X33714523Y-118538571D01*
X33752619Y-118614761D01*
X33790714Y-118652857D01*
X33866904Y-118690952D01*
X34171666Y-118690952D01*
X33409761Y-118348095D02*
X33371666Y-118310000D01*
X33295476Y-118271904D01*
X33105000Y-118271904D01*
X33028809Y-118310000D01*
X32990714Y-118348095D01*
X32952619Y-118424285D01*
X32952619Y-118500476D01*
X32990714Y-118614761D01*
X33447857Y-119071904D01*
X32952619Y-119071904D01*
X32266904Y-118538571D02*
X32266904Y-119071904D01*
X32457380Y-118233809D02*
X32647857Y-118805238D01*
X32152619Y-118805238D01*
%TO.C,D7*%
X108140476Y-130326904D02*
X108140476Y-129526904D01*
X107950000Y-129526904D01*
X107835714Y-129565000D01*
X107759523Y-129641190D01*
X107721428Y-129717380D01*
X107683333Y-129869761D01*
X107683333Y-129984047D01*
X107721428Y-130136428D01*
X107759523Y-130212619D01*
X107835714Y-130288809D01*
X107950000Y-130326904D01*
X108140476Y-130326904D01*
X107416666Y-129526904D02*
X106883333Y-129526904D01*
X107226190Y-130326904D01*
%TO.C,D3*%
X57280476Y-67536904D02*
X57280476Y-66736904D01*
X57090000Y-66736904D01*
X56975714Y-66775000D01*
X56899523Y-66851190D01*
X56861428Y-66927380D01*
X56823333Y-67079761D01*
X56823333Y-67194047D01*
X56861428Y-67346428D01*
X56899523Y-67422619D01*
X56975714Y-67498809D01*
X57090000Y-67536904D01*
X57280476Y-67536904D01*
X56556666Y-66736904D02*
X56061428Y-66736904D01*
X56328095Y-67041666D01*
X56213809Y-67041666D01*
X56137619Y-67079761D01*
X56099523Y-67117857D01*
X56061428Y-67194047D01*
X56061428Y-67384523D01*
X56099523Y-67460714D01*
X56137619Y-67498809D01*
X56213809Y-67536904D01*
X56442380Y-67536904D01*
X56518571Y-67498809D01*
X56556666Y-67460714D01*
%TO.C,L1*%
X53473333Y-129261904D02*
X53854285Y-129261904D01*
X53854285Y-128461904D01*
X52787619Y-129261904D02*
X53244761Y-129261904D01*
X53016190Y-129261904D02*
X53016190Y-128461904D01*
X53092380Y-128576190D01*
X53168571Y-128652380D01*
X53244761Y-128690476D01*
%TO.C,TP22*%
X71350476Y-119426904D02*
X70893333Y-119426904D01*
X71121904Y-120226904D02*
X71121904Y-119426904D01*
X70626666Y-120226904D02*
X70626666Y-119426904D01*
X70321904Y-119426904D01*
X70245714Y-119465000D01*
X70207619Y-119503095D01*
X70169523Y-119579285D01*
X70169523Y-119693571D01*
X70207619Y-119769761D01*
X70245714Y-119807857D01*
X70321904Y-119845952D01*
X70626666Y-119845952D01*
X69864761Y-119503095D02*
X69826666Y-119465000D01*
X69750476Y-119426904D01*
X69560000Y-119426904D01*
X69483809Y-119465000D01*
X69445714Y-119503095D01*
X69407619Y-119579285D01*
X69407619Y-119655476D01*
X69445714Y-119769761D01*
X69902857Y-120226904D01*
X69407619Y-120226904D01*
X69102857Y-119503095D02*
X69064761Y-119465000D01*
X68988571Y-119426904D01*
X68798095Y-119426904D01*
X68721904Y-119465000D01*
X68683809Y-119503095D01*
X68645714Y-119579285D01*
X68645714Y-119655476D01*
X68683809Y-119769761D01*
X69140952Y-120226904D01*
X68645714Y-120226904D01*
%TO.C,R16*%
X98009285Y-142716904D02*
X98275952Y-142335952D01*
X98466428Y-142716904D02*
X98466428Y-141916904D01*
X98161666Y-141916904D01*
X98085476Y-141955000D01*
X98047380Y-141993095D01*
X98009285Y-142069285D01*
X98009285Y-142183571D01*
X98047380Y-142259761D01*
X98085476Y-142297857D01*
X98161666Y-142335952D01*
X98466428Y-142335952D01*
X97247380Y-142716904D02*
X97704523Y-142716904D01*
X97475952Y-142716904D02*
X97475952Y-141916904D01*
X97552142Y-142031190D01*
X97628333Y-142107380D01*
X97704523Y-142145476D01*
X96561666Y-141916904D02*
X96714047Y-141916904D01*
X96790238Y-141955000D01*
X96828333Y-141993095D01*
X96904523Y-142107380D01*
X96942619Y-142259761D01*
X96942619Y-142564523D01*
X96904523Y-142640714D01*
X96866428Y-142678809D01*
X96790238Y-142716904D01*
X96637857Y-142716904D01*
X96561666Y-142678809D01*
X96523571Y-142640714D01*
X96485476Y-142564523D01*
X96485476Y-142374047D01*
X96523571Y-142297857D01*
X96561666Y-142259761D01*
X96637857Y-142221666D01*
X96790238Y-142221666D01*
X96866428Y-142259761D01*
X96904523Y-142297857D01*
X96942619Y-142374047D01*
%TO.C,R8*%
X106663333Y-117030654D02*
X106930000Y-116649702D01*
X107120476Y-117030654D02*
X107120476Y-116230654D01*
X106815714Y-116230654D01*
X106739523Y-116268750D01*
X106701428Y-116306845D01*
X106663333Y-116383035D01*
X106663333Y-116497321D01*
X106701428Y-116573511D01*
X106739523Y-116611607D01*
X106815714Y-116649702D01*
X107120476Y-116649702D01*
X106206190Y-116573511D02*
X106282380Y-116535416D01*
X106320476Y-116497321D01*
X106358571Y-116421130D01*
X106358571Y-116383035D01*
X106320476Y-116306845D01*
X106282380Y-116268750D01*
X106206190Y-116230654D01*
X106053809Y-116230654D01*
X105977619Y-116268750D01*
X105939523Y-116306845D01*
X105901428Y-116383035D01*
X105901428Y-116421130D01*
X105939523Y-116497321D01*
X105977619Y-116535416D01*
X106053809Y-116573511D01*
X106206190Y-116573511D01*
X106282380Y-116611607D01*
X106320476Y-116649702D01*
X106358571Y-116725892D01*
X106358571Y-116878273D01*
X106320476Y-116954464D01*
X106282380Y-116992559D01*
X106206190Y-117030654D01*
X106053809Y-117030654D01*
X105977619Y-116992559D01*
X105939523Y-116954464D01*
X105901428Y-116878273D01*
X105901428Y-116725892D01*
X105939523Y-116649702D01*
X105977619Y-116611607D01*
X106053809Y-116573511D01*
%TO.C,C4*%
X48858333Y-79210714D02*
X48896428Y-79248809D01*
X49010714Y-79286904D01*
X49086904Y-79286904D01*
X49201190Y-79248809D01*
X49277380Y-79172619D01*
X49315476Y-79096428D01*
X49353571Y-78944047D01*
X49353571Y-78829761D01*
X49315476Y-78677380D01*
X49277380Y-78601190D01*
X49201190Y-78525000D01*
X49086904Y-78486904D01*
X49010714Y-78486904D01*
X48896428Y-78525000D01*
X48858333Y-78563095D01*
X48172619Y-78753571D02*
X48172619Y-79286904D01*
X48363095Y-78448809D02*
X48553571Y-79020238D01*
X48058333Y-79020238D01*
%TO.C,TP30*%
X35155476Y-126661904D02*
X34698333Y-126661904D01*
X34926904Y-127461904D02*
X34926904Y-126661904D01*
X34431666Y-127461904D02*
X34431666Y-126661904D01*
X34126904Y-126661904D01*
X34050714Y-126700000D01*
X34012619Y-126738095D01*
X33974523Y-126814285D01*
X33974523Y-126928571D01*
X34012619Y-127004761D01*
X34050714Y-127042857D01*
X34126904Y-127080952D01*
X34431666Y-127080952D01*
X33707857Y-126661904D02*
X33212619Y-126661904D01*
X33479285Y-126966666D01*
X33365000Y-126966666D01*
X33288809Y-127004761D01*
X33250714Y-127042857D01*
X33212619Y-127119047D01*
X33212619Y-127309523D01*
X33250714Y-127385714D01*
X33288809Y-127423809D01*
X33365000Y-127461904D01*
X33593571Y-127461904D01*
X33669761Y-127423809D01*
X33707857Y-127385714D01*
X32717380Y-126661904D02*
X32641190Y-126661904D01*
X32565000Y-126700000D01*
X32526904Y-126738095D01*
X32488809Y-126814285D01*
X32450714Y-126966666D01*
X32450714Y-127157142D01*
X32488809Y-127309523D01*
X32526904Y-127385714D01*
X32565000Y-127423809D01*
X32641190Y-127461904D01*
X32717380Y-127461904D01*
X32793571Y-127423809D01*
X32831666Y-127385714D01*
X32869761Y-127309523D01*
X32907857Y-127157142D01*
X32907857Y-126966666D01*
X32869761Y-126814285D01*
X32831666Y-126738095D01*
X32793571Y-126700000D01*
X32717380Y-126661904D01*
%TO.C,TP8*%
X58244523Y-75081904D02*
X57787380Y-75081904D01*
X58015952Y-75881904D02*
X58015952Y-75081904D01*
X57520714Y-75881904D02*
X57520714Y-75081904D01*
X57215952Y-75081904D01*
X57139761Y-75120000D01*
X57101666Y-75158095D01*
X57063571Y-75234285D01*
X57063571Y-75348571D01*
X57101666Y-75424761D01*
X57139761Y-75462857D01*
X57215952Y-75500952D01*
X57520714Y-75500952D01*
X56606428Y-75424761D02*
X56682619Y-75386666D01*
X56720714Y-75348571D01*
X56758809Y-75272380D01*
X56758809Y-75234285D01*
X56720714Y-75158095D01*
X56682619Y-75120000D01*
X56606428Y-75081904D01*
X56454047Y-75081904D01*
X56377857Y-75120000D01*
X56339761Y-75158095D01*
X56301666Y-75234285D01*
X56301666Y-75272380D01*
X56339761Y-75348571D01*
X56377857Y-75386666D01*
X56454047Y-75424761D01*
X56606428Y-75424761D01*
X56682619Y-75462857D01*
X56720714Y-75500952D01*
X56758809Y-75577142D01*
X56758809Y-75729523D01*
X56720714Y-75805714D01*
X56682619Y-75843809D01*
X56606428Y-75881904D01*
X56454047Y-75881904D01*
X56377857Y-75843809D01*
X56339761Y-75805714D01*
X56301666Y-75729523D01*
X56301666Y-75577142D01*
X56339761Y-75500952D01*
X56377857Y-75462857D01*
X56454047Y-75424761D01*
%TO.C,C12*%
X103299285Y-120894464D02*
X103337380Y-120932559D01*
X103451666Y-120970654D01*
X103527857Y-120970654D01*
X103642142Y-120932559D01*
X103718333Y-120856369D01*
X103756428Y-120780178D01*
X103794523Y-120627797D01*
X103794523Y-120513511D01*
X103756428Y-120361130D01*
X103718333Y-120284940D01*
X103642142Y-120208750D01*
X103527857Y-120170654D01*
X103451666Y-120170654D01*
X103337380Y-120208750D01*
X103299285Y-120246845D01*
X102537380Y-120970654D02*
X102994523Y-120970654D01*
X102765952Y-120970654D02*
X102765952Y-120170654D01*
X102842142Y-120284940D01*
X102918333Y-120361130D01*
X102994523Y-120399226D01*
X102232619Y-120246845D02*
X102194523Y-120208750D01*
X102118333Y-120170654D01*
X101927857Y-120170654D01*
X101851666Y-120208750D01*
X101813571Y-120246845D01*
X101775476Y-120323035D01*
X101775476Y-120399226D01*
X101813571Y-120513511D01*
X102270714Y-120970654D01*
X101775476Y-120970654D01*
%TO.C,TP29*%
X41170476Y-127766904D02*
X40713333Y-127766904D01*
X40941904Y-128566904D02*
X40941904Y-127766904D01*
X40446666Y-128566904D02*
X40446666Y-127766904D01*
X40141904Y-127766904D01*
X40065714Y-127805000D01*
X40027619Y-127843095D01*
X39989523Y-127919285D01*
X39989523Y-128033571D01*
X40027619Y-128109761D01*
X40065714Y-128147857D01*
X40141904Y-128185952D01*
X40446666Y-128185952D01*
X39684761Y-127843095D02*
X39646666Y-127805000D01*
X39570476Y-127766904D01*
X39380000Y-127766904D01*
X39303809Y-127805000D01*
X39265714Y-127843095D01*
X39227619Y-127919285D01*
X39227619Y-127995476D01*
X39265714Y-128109761D01*
X39722857Y-128566904D01*
X39227619Y-128566904D01*
X38846666Y-128566904D02*
X38694285Y-128566904D01*
X38618095Y-128528809D01*
X38580000Y-128490714D01*
X38503809Y-128376428D01*
X38465714Y-128224047D01*
X38465714Y-127919285D01*
X38503809Y-127843095D01*
X38541904Y-127805000D01*
X38618095Y-127766904D01*
X38770476Y-127766904D01*
X38846666Y-127805000D01*
X38884761Y-127843095D01*
X38922857Y-127919285D01*
X38922857Y-128109761D01*
X38884761Y-128185952D01*
X38846666Y-128224047D01*
X38770476Y-128262142D01*
X38618095Y-128262142D01*
X38541904Y-128224047D01*
X38503809Y-128185952D01*
X38465714Y-128109761D01*
%TO.C,R13*%
X35304285Y-139656904D02*
X35570952Y-139275952D01*
X35761428Y-139656904D02*
X35761428Y-138856904D01*
X35456666Y-138856904D01*
X35380476Y-138895000D01*
X35342380Y-138933095D01*
X35304285Y-139009285D01*
X35304285Y-139123571D01*
X35342380Y-139199761D01*
X35380476Y-139237857D01*
X35456666Y-139275952D01*
X35761428Y-139275952D01*
X34542380Y-139656904D02*
X34999523Y-139656904D01*
X34770952Y-139656904D02*
X34770952Y-138856904D01*
X34847142Y-138971190D01*
X34923333Y-139047380D01*
X34999523Y-139085476D01*
X34275714Y-138856904D02*
X33780476Y-138856904D01*
X34047142Y-139161666D01*
X33932857Y-139161666D01*
X33856666Y-139199761D01*
X33818571Y-139237857D01*
X33780476Y-139314047D01*
X33780476Y-139504523D01*
X33818571Y-139580714D01*
X33856666Y-139618809D01*
X33932857Y-139656904D01*
X34161428Y-139656904D01*
X34237619Y-139618809D01*
X34275714Y-139580714D01*
%TO.C,C8*%
X53553333Y-123040714D02*
X53591428Y-123078809D01*
X53705714Y-123116904D01*
X53781904Y-123116904D01*
X53896190Y-123078809D01*
X53972380Y-123002619D01*
X54010476Y-122926428D01*
X54048571Y-122774047D01*
X54048571Y-122659761D01*
X54010476Y-122507380D01*
X53972380Y-122431190D01*
X53896190Y-122355000D01*
X53781904Y-122316904D01*
X53705714Y-122316904D01*
X53591428Y-122355000D01*
X53553333Y-122393095D01*
X53096190Y-122659761D02*
X53172380Y-122621666D01*
X53210476Y-122583571D01*
X53248571Y-122507380D01*
X53248571Y-122469285D01*
X53210476Y-122393095D01*
X53172380Y-122355000D01*
X53096190Y-122316904D01*
X52943809Y-122316904D01*
X52867619Y-122355000D01*
X52829523Y-122393095D01*
X52791428Y-122469285D01*
X52791428Y-122507380D01*
X52829523Y-122583571D01*
X52867619Y-122621666D01*
X52943809Y-122659761D01*
X53096190Y-122659761D01*
X53172380Y-122697857D01*
X53210476Y-122735952D01*
X53248571Y-122812142D01*
X53248571Y-122964523D01*
X53210476Y-123040714D01*
X53172380Y-123078809D01*
X53096190Y-123116904D01*
X52943809Y-123116904D01*
X52867619Y-123078809D01*
X52829523Y-123040714D01*
X52791428Y-122964523D01*
X52791428Y-122812142D01*
X52829523Y-122735952D01*
X52867619Y-122697857D01*
X52943809Y-122659761D01*
%TO.C,R17*%
X26489285Y-94441904D02*
X26755952Y-94060952D01*
X26946428Y-94441904D02*
X26946428Y-93641904D01*
X26641666Y-93641904D01*
X26565476Y-93680000D01*
X26527380Y-93718095D01*
X26489285Y-93794285D01*
X26489285Y-93908571D01*
X26527380Y-93984761D01*
X26565476Y-94022857D01*
X26641666Y-94060952D01*
X26946428Y-94060952D01*
X25727380Y-94441904D02*
X26184523Y-94441904D01*
X25955952Y-94441904D02*
X25955952Y-93641904D01*
X26032142Y-93756190D01*
X26108333Y-93832380D01*
X26184523Y-93870476D01*
X25460714Y-93641904D02*
X24927380Y-93641904D01*
X25270238Y-94441904D01*
%TO.C,TP4*%
X38879523Y-112258904D02*
X38422380Y-112258904D01*
X38650952Y-113058904D02*
X38650952Y-112258904D01*
X38155714Y-113058904D02*
X38155714Y-112258904D01*
X37850952Y-112258904D01*
X37774761Y-112297000D01*
X37736666Y-112335095D01*
X37698571Y-112411285D01*
X37698571Y-112525571D01*
X37736666Y-112601761D01*
X37774761Y-112639857D01*
X37850952Y-112677952D01*
X38155714Y-112677952D01*
X37012857Y-112525571D02*
X37012857Y-113058904D01*
X37203333Y-112220809D02*
X37393809Y-112792238D01*
X36898571Y-112792238D01*
%TO.C,R15*%
X136309285Y-142606904D02*
X136575952Y-142225952D01*
X136766428Y-142606904D02*
X136766428Y-141806904D01*
X136461666Y-141806904D01*
X136385476Y-141845000D01*
X136347380Y-141883095D01*
X136309285Y-141959285D01*
X136309285Y-142073571D01*
X136347380Y-142149761D01*
X136385476Y-142187857D01*
X136461666Y-142225952D01*
X136766428Y-142225952D01*
X135547380Y-142606904D02*
X136004523Y-142606904D01*
X135775952Y-142606904D02*
X135775952Y-141806904D01*
X135852142Y-141921190D01*
X135928333Y-141997380D01*
X136004523Y-142035476D01*
X134823571Y-141806904D02*
X135204523Y-141806904D01*
X135242619Y-142187857D01*
X135204523Y-142149761D01*
X135128333Y-142111666D01*
X134937857Y-142111666D01*
X134861666Y-142149761D01*
X134823571Y-142187857D01*
X134785476Y-142264047D01*
X134785476Y-142454523D01*
X134823571Y-142530714D01*
X134861666Y-142568809D01*
X134937857Y-142606904D01*
X135128333Y-142606904D01*
X135204523Y-142568809D01*
X135242619Y-142530714D01*
%TO.C,R1*%
X56258333Y-142771904D02*
X56525000Y-142390952D01*
X56715476Y-142771904D02*
X56715476Y-141971904D01*
X56410714Y-141971904D01*
X56334523Y-142010000D01*
X56296428Y-142048095D01*
X56258333Y-142124285D01*
X56258333Y-142238571D01*
X56296428Y-142314761D01*
X56334523Y-142352857D01*
X56410714Y-142390952D01*
X56715476Y-142390952D01*
X55496428Y-142771904D02*
X55953571Y-142771904D01*
X55725000Y-142771904D02*
X55725000Y-141971904D01*
X55801190Y-142086190D01*
X55877380Y-142162380D01*
X55953571Y-142200476D01*
%TO.C,TP21*%
X100785476Y-115170654D02*
X100328333Y-115170654D01*
X100556904Y-115970654D02*
X100556904Y-115170654D01*
X100061666Y-115970654D02*
X100061666Y-115170654D01*
X99756904Y-115170654D01*
X99680714Y-115208750D01*
X99642619Y-115246845D01*
X99604523Y-115323035D01*
X99604523Y-115437321D01*
X99642619Y-115513511D01*
X99680714Y-115551607D01*
X99756904Y-115589702D01*
X100061666Y-115589702D01*
X99299761Y-115246845D02*
X99261666Y-115208750D01*
X99185476Y-115170654D01*
X98995000Y-115170654D01*
X98918809Y-115208750D01*
X98880714Y-115246845D01*
X98842619Y-115323035D01*
X98842619Y-115399226D01*
X98880714Y-115513511D01*
X99337857Y-115970654D01*
X98842619Y-115970654D01*
X98080714Y-115970654D02*
X98537857Y-115970654D01*
X98309285Y-115970654D02*
X98309285Y-115170654D01*
X98385476Y-115284940D01*
X98461666Y-115361130D01*
X98537857Y-115399226D01*
%TO.C,TP2*%
X50359523Y-139283904D02*
X49902380Y-139283904D01*
X50130952Y-140083904D02*
X50130952Y-139283904D01*
X49635714Y-140083904D02*
X49635714Y-139283904D01*
X49330952Y-139283904D01*
X49254761Y-139322000D01*
X49216666Y-139360095D01*
X49178571Y-139436285D01*
X49178571Y-139550571D01*
X49216666Y-139626761D01*
X49254761Y-139664857D01*
X49330952Y-139702952D01*
X49635714Y-139702952D01*
X48873809Y-139360095D02*
X48835714Y-139322000D01*
X48759523Y-139283904D01*
X48569047Y-139283904D01*
X48492857Y-139322000D01*
X48454761Y-139360095D01*
X48416666Y-139436285D01*
X48416666Y-139512476D01*
X48454761Y-139626761D01*
X48911904Y-140083904D01*
X48416666Y-140083904D01*
%TO.C,C13*%
X66664285Y-119900714D02*
X66702380Y-119938809D01*
X66816666Y-119976904D01*
X66892857Y-119976904D01*
X67007142Y-119938809D01*
X67083333Y-119862619D01*
X67121428Y-119786428D01*
X67159523Y-119634047D01*
X67159523Y-119519761D01*
X67121428Y-119367380D01*
X67083333Y-119291190D01*
X67007142Y-119215000D01*
X66892857Y-119176904D01*
X66816666Y-119176904D01*
X66702380Y-119215000D01*
X66664285Y-119253095D01*
X65902380Y-119976904D02*
X66359523Y-119976904D01*
X66130952Y-119976904D02*
X66130952Y-119176904D01*
X66207142Y-119291190D01*
X66283333Y-119367380D01*
X66359523Y-119405476D01*
X65635714Y-119176904D02*
X65140476Y-119176904D01*
X65407142Y-119481666D01*
X65292857Y-119481666D01*
X65216666Y-119519761D01*
X65178571Y-119557857D01*
X65140476Y-119634047D01*
X65140476Y-119824523D01*
X65178571Y-119900714D01*
X65216666Y-119938809D01*
X65292857Y-119976904D01*
X65521428Y-119976904D01*
X65597619Y-119938809D01*
X65635714Y-119900714D01*
%TO.C,U7*%
X103509523Y-115155654D02*
X103509523Y-115803273D01*
X103471428Y-115879464D01*
X103433333Y-115917559D01*
X103357142Y-115955654D01*
X103204761Y-115955654D01*
X103128571Y-115917559D01*
X103090476Y-115879464D01*
X103052380Y-115803273D01*
X103052380Y-115155654D01*
X102747619Y-115155654D02*
X102214285Y-115155654D01*
X102557142Y-115955654D01*
%TO.C,C16*%
X37469285Y-115925714D02*
X37507380Y-115963809D01*
X37621666Y-116001904D01*
X37697857Y-116001904D01*
X37812142Y-115963809D01*
X37888333Y-115887619D01*
X37926428Y-115811428D01*
X37964523Y-115659047D01*
X37964523Y-115544761D01*
X37926428Y-115392380D01*
X37888333Y-115316190D01*
X37812142Y-115240000D01*
X37697857Y-115201904D01*
X37621666Y-115201904D01*
X37507380Y-115240000D01*
X37469285Y-115278095D01*
X36707380Y-116001904D02*
X37164523Y-116001904D01*
X36935952Y-116001904D02*
X36935952Y-115201904D01*
X37012142Y-115316190D01*
X37088333Y-115392380D01*
X37164523Y-115430476D01*
X36021666Y-115201904D02*
X36174047Y-115201904D01*
X36250238Y-115240000D01*
X36288333Y-115278095D01*
X36364523Y-115392380D01*
X36402619Y-115544761D01*
X36402619Y-115849523D01*
X36364523Y-115925714D01*
X36326428Y-115963809D01*
X36250238Y-116001904D01*
X36097857Y-116001904D01*
X36021666Y-115963809D01*
X35983571Y-115925714D01*
X35945476Y-115849523D01*
X35945476Y-115659047D01*
X35983571Y-115582857D01*
X36021666Y-115544761D01*
X36097857Y-115506666D01*
X36250238Y-115506666D01*
X36326428Y-115544761D01*
X36364523Y-115582857D01*
X36402619Y-115659047D01*
%TO.C,TP12*%
X116270476Y-39458904D02*
X115813333Y-39458904D01*
X116041904Y-40258904D02*
X116041904Y-39458904D01*
X115546666Y-40258904D02*
X115546666Y-39458904D01*
X115241904Y-39458904D01*
X115165714Y-39497000D01*
X115127619Y-39535095D01*
X115089523Y-39611285D01*
X115089523Y-39725571D01*
X115127619Y-39801761D01*
X115165714Y-39839857D01*
X115241904Y-39877952D01*
X115546666Y-39877952D01*
X114327619Y-40258904D02*
X114784761Y-40258904D01*
X114556190Y-40258904D02*
X114556190Y-39458904D01*
X114632380Y-39573190D01*
X114708571Y-39649380D01*
X114784761Y-39687476D01*
X114022857Y-39535095D02*
X113984761Y-39497000D01*
X113908571Y-39458904D01*
X113718095Y-39458904D01*
X113641904Y-39497000D01*
X113603809Y-39535095D01*
X113565714Y-39611285D01*
X113565714Y-39687476D01*
X113603809Y-39801761D01*
X114060952Y-40258904D01*
X113565714Y-40258904D01*
%TO.C,TP13*%
X123290476Y-39483904D02*
X122833333Y-39483904D01*
X123061904Y-40283904D02*
X123061904Y-39483904D01*
X122566666Y-40283904D02*
X122566666Y-39483904D01*
X122261904Y-39483904D01*
X122185714Y-39522000D01*
X122147619Y-39560095D01*
X122109523Y-39636285D01*
X122109523Y-39750571D01*
X122147619Y-39826761D01*
X122185714Y-39864857D01*
X122261904Y-39902952D01*
X122566666Y-39902952D01*
X121347619Y-40283904D02*
X121804761Y-40283904D01*
X121576190Y-40283904D02*
X121576190Y-39483904D01*
X121652380Y-39598190D01*
X121728571Y-39674380D01*
X121804761Y-39712476D01*
X121080952Y-39483904D02*
X120585714Y-39483904D01*
X120852380Y-39788666D01*
X120738095Y-39788666D01*
X120661904Y-39826761D01*
X120623809Y-39864857D01*
X120585714Y-39941047D01*
X120585714Y-40131523D01*
X120623809Y-40207714D01*
X120661904Y-40245809D01*
X120738095Y-40283904D01*
X120966666Y-40283904D01*
X121042857Y-40245809D01*
X121080952Y-40207714D01*
%TO.C,C1*%
X50443333Y-145610714D02*
X50481428Y-145648809D01*
X50595714Y-145686904D01*
X50671904Y-145686904D01*
X50786190Y-145648809D01*
X50862380Y-145572619D01*
X50900476Y-145496428D01*
X50938571Y-145344047D01*
X50938571Y-145229761D01*
X50900476Y-145077380D01*
X50862380Y-145001190D01*
X50786190Y-144925000D01*
X50671904Y-144886904D01*
X50595714Y-144886904D01*
X50481428Y-144925000D01*
X50443333Y-144963095D01*
X49681428Y-145686904D02*
X50138571Y-145686904D01*
X49910000Y-145686904D02*
X49910000Y-144886904D01*
X49986190Y-145001190D01*
X50062380Y-145077380D01*
X50138571Y-145115476D01*
%TO.C,TP9*%
X51689523Y-69361904D02*
X51232380Y-69361904D01*
X51460952Y-70161904D02*
X51460952Y-69361904D01*
X50965714Y-70161904D02*
X50965714Y-69361904D01*
X50660952Y-69361904D01*
X50584761Y-69400000D01*
X50546666Y-69438095D01*
X50508571Y-69514285D01*
X50508571Y-69628571D01*
X50546666Y-69704761D01*
X50584761Y-69742857D01*
X50660952Y-69780952D01*
X50965714Y-69780952D01*
X50127619Y-70161904D02*
X49975238Y-70161904D01*
X49899047Y-70123809D01*
X49860952Y-70085714D01*
X49784761Y-69971428D01*
X49746666Y-69819047D01*
X49746666Y-69514285D01*
X49784761Y-69438095D01*
X49822857Y-69400000D01*
X49899047Y-69361904D01*
X50051428Y-69361904D01*
X50127619Y-69400000D01*
X50165714Y-69438095D01*
X50203809Y-69514285D01*
X50203809Y-69704761D01*
X50165714Y-69780952D01*
X50127619Y-69819047D01*
X50051428Y-69857142D01*
X49899047Y-69857142D01*
X49822857Y-69819047D01*
X49784761Y-69780952D01*
X49746666Y-69704761D01*
%TO.C,TP11*%
X106520476Y-45433904D02*
X106063333Y-45433904D01*
X106291904Y-46233904D02*
X106291904Y-45433904D01*
X105796666Y-46233904D02*
X105796666Y-45433904D01*
X105491904Y-45433904D01*
X105415714Y-45472000D01*
X105377619Y-45510095D01*
X105339523Y-45586285D01*
X105339523Y-45700571D01*
X105377619Y-45776761D01*
X105415714Y-45814857D01*
X105491904Y-45852952D01*
X105796666Y-45852952D01*
X104577619Y-46233904D02*
X105034761Y-46233904D01*
X104806190Y-46233904D02*
X104806190Y-45433904D01*
X104882380Y-45548190D01*
X104958571Y-45624380D01*
X105034761Y-45662476D01*
X103815714Y-46233904D02*
X104272857Y-46233904D01*
X104044285Y-46233904D02*
X104044285Y-45433904D01*
X104120476Y-45548190D01*
X104196666Y-45624380D01*
X104272857Y-45662476D01*
%TO.C,TP6*%
X56087023Y-139238904D02*
X55629880Y-139238904D01*
X55858452Y-140038904D02*
X55858452Y-139238904D01*
X55363214Y-140038904D02*
X55363214Y-139238904D01*
X55058452Y-139238904D01*
X54982261Y-139277000D01*
X54944166Y-139315095D01*
X54906071Y-139391285D01*
X54906071Y-139505571D01*
X54944166Y-139581761D01*
X54982261Y-139619857D01*
X55058452Y-139657952D01*
X55363214Y-139657952D01*
X54220357Y-139238904D02*
X54372738Y-139238904D01*
X54448928Y-139277000D01*
X54487023Y-139315095D01*
X54563214Y-139429380D01*
X54601309Y-139581761D01*
X54601309Y-139886523D01*
X54563214Y-139962714D01*
X54525119Y-140000809D01*
X54448928Y-140038904D01*
X54296547Y-140038904D01*
X54220357Y-140000809D01*
X54182261Y-139962714D01*
X54144166Y-139886523D01*
X54144166Y-139696047D01*
X54182261Y-139619857D01*
X54220357Y-139581761D01*
X54296547Y-139543666D01*
X54448928Y-139543666D01*
X54525119Y-139581761D01*
X54563214Y-139619857D01*
X54601309Y-139696047D01*
%TO.C,C17*%
X37454285Y-119010714D02*
X37492380Y-119048809D01*
X37606666Y-119086904D01*
X37682857Y-119086904D01*
X37797142Y-119048809D01*
X37873333Y-118972619D01*
X37911428Y-118896428D01*
X37949523Y-118744047D01*
X37949523Y-118629761D01*
X37911428Y-118477380D01*
X37873333Y-118401190D01*
X37797142Y-118325000D01*
X37682857Y-118286904D01*
X37606666Y-118286904D01*
X37492380Y-118325000D01*
X37454285Y-118363095D01*
X36692380Y-119086904D02*
X37149523Y-119086904D01*
X36920952Y-119086904D02*
X36920952Y-118286904D01*
X36997142Y-118401190D01*
X37073333Y-118477380D01*
X37149523Y-118515476D01*
X36425714Y-118286904D02*
X35892380Y-118286904D01*
X36235238Y-119086904D01*
%TO.C,R21*%
X26471785Y-106096904D02*
X26738452Y-105715952D01*
X26928928Y-106096904D02*
X26928928Y-105296904D01*
X26624166Y-105296904D01*
X26547976Y-105335000D01*
X26509880Y-105373095D01*
X26471785Y-105449285D01*
X26471785Y-105563571D01*
X26509880Y-105639761D01*
X26547976Y-105677857D01*
X26624166Y-105715952D01*
X26928928Y-105715952D01*
X26167023Y-105373095D02*
X26128928Y-105335000D01*
X26052738Y-105296904D01*
X25862261Y-105296904D01*
X25786071Y-105335000D01*
X25747976Y-105373095D01*
X25709880Y-105449285D01*
X25709880Y-105525476D01*
X25747976Y-105639761D01*
X26205119Y-106096904D01*
X25709880Y-106096904D01*
X24947976Y-106096904D02*
X25405119Y-106096904D01*
X25176547Y-106096904D02*
X25176547Y-105296904D01*
X25252738Y-105411190D01*
X25328928Y-105487380D01*
X25405119Y-105525476D01*
%TO.C,TP15*%
X120165476Y-131624904D02*
X119708333Y-131624904D01*
X119936904Y-132424904D02*
X119936904Y-131624904D01*
X119441666Y-132424904D02*
X119441666Y-131624904D01*
X119136904Y-131624904D01*
X119060714Y-131663000D01*
X119022619Y-131701095D01*
X118984523Y-131777285D01*
X118984523Y-131891571D01*
X119022619Y-131967761D01*
X119060714Y-132005857D01*
X119136904Y-132043952D01*
X119441666Y-132043952D01*
X118222619Y-132424904D02*
X118679761Y-132424904D01*
X118451190Y-132424904D02*
X118451190Y-131624904D01*
X118527380Y-131739190D01*
X118603571Y-131815380D01*
X118679761Y-131853476D01*
X117498809Y-131624904D02*
X117879761Y-131624904D01*
X117917857Y-132005857D01*
X117879761Y-131967761D01*
X117803571Y-131929666D01*
X117613095Y-131929666D01*
X117536904Y-131967761D01*
X117498809Y-132005857D01*
X117460714Y-132082047D01*
X117460714Y-132272523D01*
X117498809Y-132348714D01*
X117536904Y-132386809D01*
X117613095Y-132424904D01*
X117803571Y-132424904D01*
X117879761Y-132386809D01*
X117917857Y-132348714D01*
%TO.C,C21*%
X36819285Y-134250714D02*
X36857380Y-134288809D01*
X36971666Y-134326904D01*
X37047857Y-134326904D01*
X37162142Y-134288809D01*
X37238333Y-134212619D01*
X37276428Y-134136428D01*
X37314523Y-133984047D01*
X37314523Y-133869761D01*
X37276428Y-133717380D01*
X37238333Y-133641190D01*
X37162142Y-133565000D01*
X37047857Y-133526904D01*
X36971666Y-133526904D01*
X36857380Y-133565000D01*
X36819285Y-133603095D01*
X36514523Y-133603095D02*
X36476428Y-133565000D01*
X36400238Y-133526904D01*
X36209761Y-133526904D01*
X36133571Y-133565000D01*
X36095476Y-133603095D01*
X36057380Y-133679285D01*
X36057380Y-133755476D01*
X36095476Y-133869761D01*
X36552619Y-134326904D01*
X36057380Y-134326904D01*
X35295476Y-134326904D02*
X35752619Y-134326904D01*
X35524047Y-134326904D02*
X35524047Y-133526904D01*
X35600238Y-133641190D01*
X35676428Y-133717380D01*
X35752619Y-133755476D01*
%TO.C,TP20*%
X107855476Y-120405654D02*
X107398333Y-120405654D01*
X107626904Y-121205654D02*
X107626904Y-120405654D01*
X107131666Y-121205654D02*
X107131666Y-120405654D01*
X106826904Y-120405654D01*
X106750714Y-120443750D01*
X106712619Y-120481845D01*
X106674523Y-120558035D01*
X106674523Y-120672321D01*
X106712619Y-120748511D01*
X106750714Y-120786607D01*
X106826904Y-120824702D01*
X107131666Y-120824702D01*
X106369761Y-120481845D02*
X106331666Y-120443750D01*
X106255476Y-120405654D01*
X106065000Y-120405654D01*
X105988809Y-120443750D01*
X105950714Y-120481845D01*
X105912619Y-120558035D01*
X105912619Y-120634226D01*
X105950714Y-120748511D01*
X106407857Y-121205654D01*
X105912619Y-121205654D01*
X105417380Y-120405654D02*
X105341190Y-120405654D01*
X105265000Y-120443750D01*
X105226904Y-120481845D01*
X105188809Y-120558035D01*
X105150714Y-120710416D01*
X105150714Y-120900892D01*
X105188809Y-121053273D01*
X105226904Y-121129464D01*
X105265000Y-121167559D01*
X105341190Y-121205654D01*
X105417380Y-121205654D01*
X105493571Y-121167559D01*
X105531666Y-121129464D01*
X105569761Y-121053273D01*
X105607857Y-120900892D01*
X105607857Y-120710416D01*
X105569761Y-120558035D01*
X105531666Y-120481845D01*
X105493571Y-120443750D01*
X105417380Y-120405654D01*
%TO.C,U5*%
X111789523Y-129986904D02*
X111789523Y-130634523D01*
X111751428Y-130710714D01*
X111713333Y-130748809D01*
X111637142Y-130786904D01*
X111484761Y-130786904D01*
X111408571Y-130748809D01*
X111370476Y-130710714D01*
X111332380Y-130634523D01*
X111332380Y-129986904D01*
X110570476Y-129986904D02*
X110951428Y-129986904D01*
X110989523Y-130367857D01*
X110951428Y-130329761D01*
X110875238Y-130291666D01*
X110684761Y-130291666D01*
X110608571Y-130329761D01*
X110570476Y-130367857D01*
X110532380Y-130444047D01*
X110532380Y-130634523D01*
X110570476Y-130710714D01*
X110608571Y-130748809D01*
X110684761Y-130786904D01*
X110875238Y-130786904D01*
X110951428Y-130748809D01*
X110989523Y-130710714D01*
%TO.C,D1*%
X51035476Y-142771904D02*
X51035476Y-141971904D01*
X50845000Y-141971904D01*
X50730714Y-142010000D01*
X50654523Y-142086190D01*
X50616428Y-142162380D01*
X50578333Y-142314761D01*
X50578333Y-142429047D01*
X50616428Y-142581428D01*
X50654523Y-142657619D01*
X50730714Y-142733809D01*
X50845000Y-142771904D01*
X51035476Y-142771904D01*
X49816428Y-142771904D02*
X50273571Y-142771904D01*
X50045000Y-142771904D02*
X50045000Y-141971904D01*
X50121190Y-142086190D01*
X50197380Y-142162380D01*
X50273571Y-142200476D01*
%TO.C,R22*%
X26461785Y-100241904D02*
X26728452Y-99860952D01*
X26918928Y-100241904D02*
X26918928Y-99441904D01*
X26614166Y-99441904D01*
X26537976Y-99480000D01*
X26499880Y-99518095D01*
X26461785Y-99594285D01*
X26461785Y-99708571D01*
X26499880Y-99784761D01*
X26537976Y-99822857D01*
X26614166Y-99860952D01*
X26918928Y-99860952D01*
X26157023Y-99518095D02*
X26118928Y-99480000D01*
X26042738Y-99441904D01*
X25852261Y-99441904D01*
X25776071Y-99480000D01*
X25737976Y-99518095D01*
X25699880Y-99594285D01*
X25699880Y-99670476D01*
X25737976Y-99784761D01*
X26195119Y-100241904D01*
X25699880Y-100241904D01*
X25395119Y-99518095D02*
X25357023Y-99480000D01*
X25280833Y-99441904D01*
X25090357Y-99441904D01*
X25014166Y-99480000D01*
X24976071Y-99518095D01*
X24937976Y-99594285D01*
X24937976Y-99670476D01*
X24976071Y-99784761D01*
X25433214Y-100241904D01*
X24937976Y-100241904D01*
%TO.C,TP28*%
X37200476Y-127786904D02*
X36743333Y-127786904D01*
X36971904Y-128586904D02*
X36971904Y-127786904D01*
X36476666Y-128586904D02*
X36476666Y-127786904D01*
X36171904Y-127786904D01*
X36095714Y-127825000D01*
X36057619Y-127863095D01*
X36019523Y-127939285D01*
X36019523Y-128053571D01*
X36057619Y-128129761D01*
X36095714Y-128167857D01*
X36171904Y-128205952D01*
X36476666Y-128205952D01*
X35714761Y-127863095D02*
X35676666Y-127825000D01*
X35600476Y-127786904D01*
X35410000Y-127786904D01*
X35333809Y-127825000D01*
X35295714Y-127863095D01*
X35257619Y-127939285D01*
X35257619Y-128015476D01*
X35295714Y-128129761D01*
X35752857Y-128586904D01*
X35257619Y-128586904D01*
X34800476Y-128129761D02*
X34876666Y-128091666D01*
X34914761Y-128053571D01*
X34952857Y-127977380D01*
X34952857Y-127939285D01*
X34914761Y-127863095D01*
X34876666Y-127825000D01*
X34800476Y-127786904D01*
X34648095Y-127786904D01*
X34571904Y-127825000D01*
X34533809Y-127863095D01*
X34495714Y-127939285D01*
X34495714Y-127977380D01*
X34533809Y-128053571D01*
X34571904Y-128091666D01*
X34648095Y-128129761D01*
X34800476Y-128129761D01*
X34876666Y-128167857D01*
X34914761Y-128205952D01*
X34952857Y-128282142D01*
X34952857Y-128434523D01*
X34914761Y-128510714D01*
X34876666Y-128548809D01*
X34800476Y-128586904D01*
X34648095Y-128586904D01*
X34571904Y-128548809D01*
X34533809Y-128510714D01*
X34495714Y-128434523D01*
X34495714Y-128282142D01*
X34533809Y-128205952D01*
X34571904Y-128167857D01*
X34648095Y-128129761D01*
%TO.C,TP14*%
X120165476Y-128684904D02*
X119708333Y-128684904D01*
X119936904Y-129484904D02*
X119936904Y-128684904D01*
X119441666Y-129484904D02*
X119441666Y-128684904D01*
X119136904Y-128684904D01*
X119060714Y-128723000D01*
X119022619Y-128761095D01*
X118984523Y-128837285D01*
X118984523Y-128951571D01*
X119022619Y-129027761D01*
X119060714Y-129065857D01*
X119136904Y-129103952D01*
X119441666Y-129103952D01*
X118222619Y-129484904D02*
X118679761Y-129484904D01*
X118451190Y-129484904D02*
X118451190Y-128684904D01*
X118527380Y-128799190D01*
X118603571Y-128875380D01*
X118679761Y-128913476D01*
X117536904Y-128951571D02*
X117536904Y-129484904D01*
X117727380Y-128646809D02*
X117917857Y-129218238D01*
X117422619Y-129218238D01*
%TO.C,R7*%
X81453333Y-129532904D02*
X81720000Y-129151952D01*
X81910476Y-129532904D02*
X81910476Y-128732904D01*
X81605714Y-128732904D01*
X81529523Y-128771000D01*
X81491428Y-128809095D01*
X81453333Y-128885285D01*
X81453333Y-128999571D01*
X81491428Y-129075761D01*
X81529523Y-129113857D01*
X81605714Y-129151952D01*
X81910476Y-129151952D01*
X81186666Y-128732904D02*
X80653333Y-128732904D01*
X80996190Y-129532904D01*
%TO.C,D9*%
X102485476Y-112665654D02*
X102485476Y-111865654D01*
X102295000Y-111865654D01*
X102180714Y-111903750D01*
X102104523Y-111979940D01*
X102066428Y-112056130D01*
X102028333Y-112208511D01*
X102028333Y-112322797D01*
X102066428Y-112475178D01*
X102104523Y-112551369D01*
X102180714Y-112627559D01*
X102295000Y-112665654D01*
X102485476Y-112665654D01*
X101647380Y-112665654D02*
X101495000Y-112665654D01*
X101418809Y-112627559D01*
X101380714Y-112589464D01*
X101304523Y-112475178D01*
X101266428Y-112322797D01*
X101266428Y-112018035D01*
X101304523Y-111941845D01*
X101342619Y-111903750D01*
X101418809Y-111865654D01*
X101571190Y-111865654D01*
X101647380Y-111903750D01*
X101685476Y-111941845D01*
X101723571Y-112018035D01*
X101723571Y-112208511D01*
X101685476Y-112284702D01*
X101647380Y-112322797D01*
X101571190Y-112360892D01*
X101418809Y-112360892D01*
X101342619Y-112322797D01*
X101304523Y-112284702D01*
X101266428Y-112208511D01*
%TO.C,TP3*%
X29324523Y-65546904D02*
X28867380Y-65546904D01*
X29095952Y-66346904D02*
X29095952Y-65546904D01*
X28600714Y-66346904D02*
X28600714Y-65546904D01*
X28295952Y-65546904D01*
X28219761Y-65585000D01*
X28181666Y-65623095D01*
X28143571Y-65699285D01*
X28143571Y-65813571D01*
X28181666Y-65889761D01*
X28219761Y-65927857D01*
X28295952Y-65965952D01*
X28600714Y-65965952D01*
X27876904Y-65546904D02*
X27381666Y-65546904D01*
X27648333Y-65851666D01*
X27534047Y-65851666D01*
X27457857Y-65889761D01*
X27419761Y-65927857D01*
X27381666Y-66004047D01*
X27381666Y-66194523D01*
X27419761Y-66270714D01*
X27457857Y-66308809D01*
X27534047Y-66346904D01*
X27762619Y-66346904D01*
X27838809Y-66308809D01*
X27876904Y-66270714D01*
%TO.C,R20*%
X26464285Y-109056904D02*
X26730952Y-108675952D01*
X26921428Y-109056904D02*
X26921428Y-108256904D01*
X26616666Y-108256904D01*
X26540476Y-108295000D01*
X26502380Y-108333095D01*
X26464285Y-108409285D01*
X26464285Y-108523571D01*
X26502380Y-108599761D01*
X26540476Y-108637857D01*
X26616666Y-108675952D01*
X26921428Y-108675952D01*
X26159523Y-108333095D02*
X26121428Y-108295000D01*
X26045238Y-108256904D01*
X25854761Y-108256904D01*
X25778571Y-108295000D01*
X25740476Y-108333095D01*
X25702380Y-108409285D01*
X25702380Y-108485476D01*
X25740476Y-108599761D01*
X26197619Y-109056904D01*
X25702380Y-109056904D01*
X25207142Y-108256904D02*
X25130952Y-108256904D01*
X25054761Y-108295000D01*
X25016666Y-108333095D01*
X24978571Y-108409285D01*
X24940476Y-108561666D01*
X24940476Y-108752142D01*
X24978571Y-108904523D01*
X25016666Y-108980714D01*
X25054761Y-109018809D01*
X25130952Y-109056904D01*
X25207142Y-109056904D01*
X25283333Y-109018809D01*
X25321428Y-108980714D01*
X25359523Y-108904523D01*
X25397619Y-108752142D01*
X25397619Y-108561666D01*
X25359523Y-108409285D01*
X25321428Y-108333095D01*
X25283333Y-108295000D01*
X25207142Y-108256904D01*
%TO.C,C10*%
X111299285Y-127555714D02*
X111337380Y-127593809D01*
X111451666Y-127631904D01*
X111527857Y-127631904D01*
X111642142Y-127593809D01*
X111718333Y-127517619D01*
X111756428Y-127441428D01*
X111794523Y-127289047D01*
X111794523Y-127174761D01*
X111756428Y-127022380D01*
X111718333Y-126946190D01*
X111642142Y-126870000D01*
X111527857Y-126831904D01*
X111451666Y-126831904D01*
X111337380Y-126870000D01*
X111299285Y-126908095D01*
X110537380Y-127631904D02*
X110994523Y-127631904D01*
X110765952Y-127631904D02*
X110765952Y-126831904D01*
X110842142Y-126946190D01*
X110918333Y-127022380D01*
X110994523Y-127060476D01*
X110042142Y-126831904D02*
X109965952Y-126831904D01*
X109889761Y-126870000D01*
X109851666Y-126908095D01*
X109813571Y-126984285D01*
X109775476Y-127136666D01*
X109775476Y-127327142D01*
X109813571Y-127479523D01*
X109851666Y-127555714D01*
X109889761Y-127593809D01*
X109965952Y-127631904D01*
X110042142Y-127631904D01*
X110118333Y-127593809D01*
X110156428Y-127555714D01*
X110194523Y-127479523D01*
X110232619Y-127327142D01*
X110232619Y-127136666D01*
X110194523Y-126984285D01*
X110156428Y-126908095D01*
X110118333Y-126870000D01*
X110042142Y-126831904D01*
%TO.C,C5*%
X50813333Y-73025714D02*
X50851428Y-73063809D01*
X50965714Y-73101904D01*
X51041904Y-73101904D01*
X51156190Y-73063809D01*
X51232380Y-72987619D01*
X51270476Y-72911428D01*
X51308571Y-72759047D01*
X51308571Y-72644761D01*
X51270476Y-72492380D01*
X51232380Y-72416190D01*
X51156190Y-72340000D01*
X51041904Y-72301904D01*
X50965714Y-72301904D01*
X50851428Y-72340000D01*
X50813333Y-72378095D01*
X50089523Y-72301904D02*
X50470476Y-72301904D01*
X50508571Y-72682857D01*
X50470476Y-72644761D01*
X50394285Y-72606666D01*
X50203809Y-72606666D01*
X50127619Y-72644761D01*
X50089523Y-72682857D01*
X50051428Y-72759047D01*
X50051428Y-72949523D01*
X50089523Y-73025714D01*
X50127619Y-73063809D01*
X50203809Y-73101904D01*
X50394285Y-73101904D01*
X50470476Y-73063809D01*
X50508571Y-73025714D01*
%TO.C,TP10*%
X54950476Y-67866904D02*
X54493333Y-67866904D01*
X54721904Y-68666904D02*
X54721904Y-67866904D01*
X54226666Y-68666904D02*
X54226666Y-67866904D01*
X53921904Y-67866904D01*
X53845714Y-67905000D01*
X53807619Y-67943095D01*
X53769523Y-68019285D01*
X53769523Y-68133571D01*
X53807619Y-68209761D01*
X53845714Y-68247857D01*
X53921904Y-68285952D01*
X54226666Y-68285952D01*
X53007619Y-68666904D02*
X53464761Y-68666904D01*
X53236190Y-68666904D02*
X53236190Y-67866904D01*
X53312380Y-67981190D01*
X53388571Y-68057380D01*
X53464761Y-68095476D01*
X52512380Y-67866904D02*
X52436190Y-67866904D01*
X52360000Y-67905000D01*
X52321904Y-67943095D01*
X52283809Y-68019285D01*
X52245714Y-68171666D01*
X52245714Y-68362142D01*
X52283809Y-68514523D01*
X52321904Y-68590714D01*
X52360000Y-68628809D01*
X52436190Y-68666904D01*
X52512380Y-68666904D01*
X52588571Y-68628809D01*
X52626666Y-68590714D01*
X52664761Y-68514523D01*
X52702857Y-68362142D01*
X52702857Y-68171666D01*
X52664761Y-68019285D01*
X52626666Y-67943095D01*
X52588571Y-67905000D01*
X52512380Y-67866904D01*
%TO.C,R4*%
X60013333Y-68511904D02*
X60280000Y-68130952D01*
X60470476Y-68511904D02*
X60470476Y-67711904D01*
X60165714Y-67711904D01*
X60089523Y-67750000D01*
X60051428Y-67788095D01*
X60013333Y-67864285D01*
X60013333Y-67978571D01*
X60051428Y-68054761D01*
X60089523Y-68092857D01*
X60165714Y-68130952D01*
X60470476Y-68130952D01*
X59327619Y-67978571D02*
X59327619Y-68511904D01*
X59518095Y-67673809D02*
X59708571Y-68245238D01*
X59213333Y-68245238D01*
%TO.C,R19*%
X26454285Y-103236904D02*
X26720952Y-102855952D01*
X26911428Y-103236904D02*
X26911428Y-102436904D01*
X26606666Y-102436904D01*
X26530476Y-102475000D01*
X26492380Y-102513095D01*
X26454285Y-102589285D01*
X26454285Y-102703571D01*
X26492380Y-102779761D01*
X26530476Y-102817857D01*
X26606666Y-102855952D01*
X26911428Y-102855952D01*
X25692380Y-103236904D02*
X26149523Y-103236904D01*
X25920952Y-103236904D02*
X25920952Y-102436904D01*
X25997142Y-102551190D01*
X26073333Y-102627380D01*
X26149523Y-102665476D01*
X25311428Y-103236904D02*
X25159047Y-103236904D01*
X25082857Y-103198809D01*
X25044761Y-103160714D01*
X24968571Y-103046428D01*
X24930476Y-102894047D01*
X24930476Y-102589285D01*
X24968571Y-102513095D01*
X25006666Y-102475000D01*
X25082857Y-102436904D01*
X25235238Y-102436904D01*
X25311428Y-102475000D01*
X25349523Y-102513095D01*
X25387619Y-102589285D01*
X25387619Y-102779761D01*
X25349523Y-102855952D01*
X25311428Y-102894047D01*
X25235238Y-102932142D01*
X25082857Y-102932142D01*
X25006666Y-102894047D01*
X24968571Y-102855952D01*
X24930476Y-102779761D01*
%TO.C,C3*%
X28468333Y-61775714D02*
X28506428Y-61813809D01*
X28620714Y-61851904D01*
X28696904Y-61851904D01*
X28811190Y-61813809D01*
X28887380Y-61737619D01*
X28925476Y-61661428D01*
X28963571Y-61509047D01*
X28963571Y-61394761D01*
X28925476Y-61242380D01*
X28887380Y-61166190D01*
X28811190Y-61090000D01*
X28696904Y-61051904D01*
X28620714Y-61051904D01*
X28506428Y-61090000D01*
X28468333Y-61128095D01*
X28201666Y-61051904D02*
X27706428Y-61051904D01*
X27973095Y-61356666D01*
X27858809Y-61356666D01*
X27782619Y-61394761D01*
X27744523Y-61432857D01*
X27706428Y-61509047D01*
X27706428Y-61699523D01*
X27744523Y-61775714D01*
X27782619Y-61813809D01*
X27858809Y-61851904D01*
X28087380Y-61851904D01*
X28163571Y-61813809D01*
X28201666Y-61775714D01*
%TO.C,R18*%
X26501785Y-97366904D02*
X26768452Y-96985952D01*
X26958928Y-97366904D02*
X26958928Y-96566904D01*
X26654166Y-96566904D01*
X26577976Y-96605000D01*
X26539880Y-96643095D01*
X26501785Y-96719285D01*
X26501785Y-96833571D01*
X26539880Y-96909761D01*
X26577976Y-96947857D01*
X26654166Y-96985952D01*
X26958928Y-96985952D01*
X25739880Y-97366904D02*
X26197023Y-97366904D01*
X25968452Y-97366904D02*
X25968452Y-96566904D01*
X26044642Y-96681190D01*
X26120833Y-96757380D01*
X26197023Y-96795476D01*
X25282738Y-96909761D02*
X25358928Y-96871666D01*
X25397023Y-96833571D01*
X25435119Y-96757380D01*
X25435119Y-96719285D01*
X25397023Y-96643095D01*
X25358928Y-96605000D01*
X25282738Y-96566904D01*
X25130357Y-96566904D01*
X25054166Y-96605000D01*
X25016071Y-96643095D01*
X24977976Y-96719285D01*
X24977976Y-96757380D01*
X25016071Y-96833571D01*
X25054166Y-96871666D01*
X25130357Y-96909761D01*
X25282738Y-96909761D01*
X25358928Y-96947857D01*
X25397023Y-96985952D01*
X25435119Y-97062142D01*
X25435119Y-97214523D01*
X25397023Y-97290714D01*
X25358928Y-97328809D01*
X25282738Y-97366904D01*
X25130357Y-97366904D01*
X25054166Y-97328809D01*
X25016071Y-97290714D01*
X24977976Y-97214523D01*
X24977976Y-97062142D01*
X25016071Y-96985952D01*
X25054166Y-96947857D01*
X25130357Y-96909761D01*
D12*
%TO.C,TP16*%
X111865000Y-134151000D02*
X110465000Y-134151000D01*
X110465000Y-135551000D02*
X111865000Y-135551000D01*
X110465000Y-134151000D02*
X110465000Y-135551000D01*
X111865000Y-135551000D02*
X111865000Y-134151000D01*
%TO.C,U6*%
X77341666Y-132996000D02*
X76806666Y-132996000D01*
X77341666Y-132996000D02*
X77341666Y-132861000D01*
X75956666Y-132996000D02*
X75421666Y-132996000D01*
X75421666Y-132996000D02*
X75421666Y-132861000D01*
X77341666Y-131611000D02*
X77341666Y-131476000D01*
X77341666Y-131476000D02*
X76806666Y-131476000D01*
%TO.C,D2*%
X57230000Y-83680000D02*
X52930000Y-83680000D01*
X52930000Y-81680000D02*
X57230000Y-81680000D01*
X52930000Y-83680000D02*
X52930000Y-81680000D01*
%TO.C,R10*%
X70600000Y-117527936D02*
X70600000Y-117982064D01*
X69130000Y-117527936D02*
X69130000Y-117982064D01*
%TO.C,C19*%
X41728748Y-138640000D02*
X42251252Y-138640000D01*
X41728748Y-137170000D02*
X42251252Y-137170000D01*
%TO.C,TP17*%
X85025000Y-132876000D02*
X83625000Y-132876000D01*
X85025000Y-134276000D02*
X85025000Y-132876000D01*
X83625000Y-132876000D02*
X83625000Y-134276000D01*
X83625000Y-134276000D02*
X85025000Y-134276000D01*
%TO.C,R6*%
X116750000Y-132777064D02*
X116750000Y-131322936D01*
X114930000Y-132777064D02*
X114930000Y-131322936D01*
%TO.C,TP26*%
X42515000Y-128970000D02*
X41115000Y-128970000D01*
X41115000Y-128970000D02*
X41115000Y-130370000D01*
X41115000Y-130370000D02*
X42515000Y-130370000D01*
X42515000Y-130370000D02*
X42515000Y-128970000D01*
%TO.C,C14*%
X41118748Y-116380000D02*
X41641252Y-116380000D01*
X41118748Y-117850000D02*
X41641252Y-117850000D01*
%TO.C,C15*%
X41646252Y-119420000D02*
X41123748Y-119420000D01*
X41646252Y-120890000D02*
X41123748Y-120890000D01*
%TO.C,R9*%
X105785000Y-114683314D02*
X105785000Y-114229186D01*
X107255000Y-114683314D02*
X107255000Y-114229186D01*
%TO.C,TP5*%
X59230000Y-140520000D02*
X59230000Y-141920000D01*
X60630000Y-141920000D02*
X60630000Y-140520000D01*
X60630000Y-140520000D02*
X59230000Y-140520000D01*
X59230000Y-141920000D02*
X60630000Y-141920000D01*
%TO.C,R3*%
X53689564Y-121930000D02*
X53235436Y-121930000D01*
X53689564Y-120460000D02*
X53235436Y-120460000D01*
%TO.C,C11*%
X75933748Y-128406000D02*
X76456252Y-128406000D01*
X75933748Y-129876000D02*
X76456252Y-129876000D01*
%TO.C,C7*%
X53168748Y-126655000D02*
X53691252Y-126655000D01*
X53168748Y-128125000D02*
X53691252Y-128125000D01*
%TO.C,TP18*%
X84990000Y-131336000D02*
X84990000Y-129936000D01*
X83590000Y-129936000D02*
X83590000Y-131336000D01*
X83590000Y-131336000D02*
X84990000Y-131336000D01*
X84990000Y-129936000D02*
X83590000Y-129936000D01*
%TO.C,TP31*%
X32490000Y-128970000D02*
X31090000Y-128970000D01*
X31090000Y-128970000D02*
X31090000Y-130370000D01*
X32490000Y-130370000D02*
X32490000Y-128970000D01*
X31090000Y-130370000D02*
X32490000Y-130370000D01*
%TO.C,TP23*%
X62010000Y-116640000D02*
X63410000Y-116640000D01*
X63410000Y-115240000D02*
X62010000Y-115240000D01*
X62010000Y-115240000D02*
X62010000Y-116640000D01*
X63410000Y-116640000D02*
X63410000Y-115240000D01*
%TO.C,D10*%
X66995000Y-113810000D02*
X62695000Y-113810000D01*
X62695000Y-111810000D02*
X66995000Y-111810000D01*
X62695000Y-113810000D02*
X62695000Y-111810000D01*
%TO.C,TP19*%
X77246666Y-136626000D02*
X77246666Y-135226000D01*
X75846666Y-135226000D02*
X75846666Y-136626000D01*
X75846666Y-136626000D02*
X77246666Y-136626000D01*
X77246666Y-135226000D02*
X75846666Y-135226000D01*
%TO.C,D8*%
X72110000Y-136741000D02*
X72110000Y-132441000D01*
X74110000Y-132441000D02*
X74110000Y-136741000D01*
X74110000Y-136741000D02*
X72110000Y-136741000D01*
%TO.C,R14*%
X32785000Y-141739564D02*
X32785000Y-141285436D01*
X31315000Y-141739564D02*
X31315000Y-141285436D01*
%TO.C,TP1*%
X52257500Y-140445000D02*
X50857500Y-140445000D01*
X50857500Y-140445000D02*
X50857500Y-141845000D01*
X50857500Y-141845000D02*
X52257500Y-141845000D01*
X52257500Y-141845000D02*
X52257500Y-140445000D01*
%TO.C,C18*%
X41743748Y-134700000D02*
X42266252Y-134700000D01*
X41743748Y-136170000D02*
X42266252Y-136170000D01*
%TO.C,C20*%
X36038748Y-137180000D02*
X36561252Y-137180000D01*
X36038748Y-138650000D02*
X36561252Y-138650000D01*
%TO.C,C6*%
X53043748Y-137565000D02*
X53566252Y-137565000D01*
X53043748Y-136095000D02*
X53566252Y-136095000D01*
%TO.C,TP7*%
X54365000Y-84850000D02*
X52965000Y-84850000D01*
X52965000Y-84850000D02*
X52965000Y-86250000D01*
X54365000Y-86250000D02*
X54365000Y-84850000D01*
X52965000Y-86250000D02*
X54365000Y-86250000D01*
%TO.C,TP25*%
X34235000Y-117900000D02*
X34235000Y-116500000D01*
X32835000Y-116500000D02*
X32835000Y-117900000D01*
X32835000Y-117900000D02*
X34235000Y-117900000D01*
X34235000Y-116500000D02*
X32835000Y-116500000D01*
%TO.C,C2*%
X56288752Y-145995000D02*
X55766248Y-145995000D01*
X56288752Y-147465000D02*
X55766248Y-147465000D01*
%TO.C,U8*%
X64635000Y-117077382D02*
X64635000Y-117877382D01*
X64635000Y-117077382D02*
X64635000Y-115277382D01*
X67755000Y-117077382D02*
X67755000Y-116277382D01*
X67755000Y-117077382D02*
X67755000Y-117877382D01*
%TO.C,TP27*%
X38495000Y-128965000D02*
X37095000Y-128965000D01*
X37095000Y-128965000D02*
X37095000Y-130365000D01*
X38495000Y-130365000D02*
X38495000Y-128965000D01*
X37095000Y-130365000D02*
X38495000Y-130365000D01*
%TO.C,R12*%
X31317064Y-134680000D02*
X30862936Y-134680000D01*
X31317064Y-136150000D02*
X30862936Y-136150000D01*
%TO.C,R11*%
X69115000Y-113627064D02*
X69115000Y-113172936D01*
X70585000Y-113627064D02*
X70585000Y-113172936D01*
%TO.C,TP24*%
X34205000Y-119480000D02*
X32805000Y-119480000D01*
X32805000Y-119480000D02*
X32805000Y-120880000D01*
X32805000Y-120880000D02*
X34205000Y-120880000D01*
X34205000Y-120880000D02*
X34205000Y-119480000D01*
%TO.C,D7*%
X106565000Y-135646000D02*
X106565000Y-131346000D01*
X108565000Y-131346000D02*
X108565000Y-135646000D01*
X108565000Y-135646000D02*
X106565000Y-135646000D01*
%TO.C,D3*%
X55760000Y-67865000D02*
X57760000Y-67865000D01*
X57760000Y-67865000D02*
X57760000Y-71715000D01*
X55760000Y-67865000D02*
X55760000Y-71715000D01*
%TO.C,L1*%
X55860000Y-134765000D02*
X55860000Y-129665000D01*
X50760000Y-134765000D02*
X50760000Y-129665000D01*
%TO.C,TP22*%
X69255000Y-121892500D02*
X70655000Y-121892500D01*
X70655000Y-120492500D02*
X69255000Y-120492500D01*
X70655000Y-121892500D02*
X70655000Y-120492500D01*
X69255000Y-120492500D02*
X69255000Y-121892500D01*
%TO.C,R16*%
X98250000Y-146060436D02*
X98250000Y-146514564D01*
X96780000Y-146060436D02*
X96780000Y-146514564D01*
%TO.C,R8*%
X107250000Y-118564186D02*
X107250000Y-119018314D01*
X105780000Y-118564186D02*
X105780000Y-119018314D01*
%TO.C,C4*%
X49895000Y-78618748D02*
X49895000Y-79141252D01*
X51365000Y-78618748D02*
X51365000Y-79141252D01*
%TO.C,TP30*%
X33085000Y-128970000D02*
X33085000Y-130370000D01*
X34485000Y-128970000D02*
X33085000Y-128970000D01*
X33085000Y-130370000D02*
X34485000Y-130370000D01*
X34485000Y-130370000D02*
X34485000Y-128970000D01*
%TO.C,TP8*%
X57945000Y-77520000D02*
X57945000Y-76120000D01*
X56545000Y-76120000D02*
X56545000Y-77520000D01*
X57945000Y-76120000D02*
X56545000Y-76120000D01*
X56545000Y-77520000D02*
X57945000Y-77520000D01*
%TO.C,C12*%
X103096252Y-121348750D02*
X102573748Y-121348750D01*
X103096252Y-122818750D02*
X102573748Y-122818750D01*
%TO.C,TP29*%
X39105000Y-128970000D02*
X39105000Y-130370000D01*
X40505000Y-130370000D02*
X40505000Y-128970000D01*
X40505000Y-128970000D02*
X39105000Y-128970000D01*
X39105000Y-130370000D02*
X40505000Y-130370000D01*
%TO.C,R13*%
X35475000Y-141300436D02*
X35475000Y-141754564D01*
X34005000Y-141300436D02*
X34005000Y-141754564D01*
%TO.C,C8*%
X53681252Y-125170000D02*
X53158748Y-125170000D01*
X53681252Y-123700000D02*
X53158748Y-123700000D01*
%TO.C,R17*%
X26202064Y-94775000D02*
X25747936Y-94775000D01*
X26202064Y-96245000D02*
X25747936Y-96245000D01*
%TO.C,TP4*%
X37170000Y-114845000D02*
X38570000Y-114845000D01*
X38570000Y-114845000D02*
X38570000Y-113445000D01*
X38570000Y-113445000D02*
X37170000Y-113445000D01*
X37170000Y-113445000D02*
X37170000Y-114845000D01*
%TO.C,R15*%
X135135000Y-146259436D02*
X135135000Y-146713564D01*
X136605000Y-146259436D02*
X136605000Y-146713564D01*
%TO.C,R1*%
X56327064Y-144510000D02*
X55872936Y-144510000D01*
X56327064Y-143040000D02*
X55872936Y-143040000D01*
%TO.C,TP21*%
X100120000Y-117643750D02*
X100120000Y-116243750D01*
X100120000Y-116243750D02*
X98720000Y-116243750D01*
X98720000Y-117643750D02*
X100120000Y-117643750D01*
X98720000Y-116243750D02*
X98720000Y-117643750D01*
%TO.C,TP2*%
X50050000Y-141870000D02*
X50050000Y-140470000D01*
X48650000Y-141870000D02*
X50050000Y-141870000D01*
X48650000Y-140470000D02*
X48650000Y-141870000D01*
X50050000Y-140470000D02*
X48650000Y-140470000D01*
%TO.C,C13*%
X66451252Y-121880000D02*
X65928748Y-121880000D01*
X66451252Y-120410000D02*
X65928748Y-120410000D01*
%TO.C,U7*%
X101285000Y-118088750D02*
X101285000Y-118888750D01*
X104405000Y-118088750D02*
X104405000Y-117288750D01*
X101285000Y-118088750D02*
X101285000Y-116288750D01*
X104405000Y-118088750D02*
X104405000Y-118888750D01*
%TO.C,C16*%
X36668748Y-117890000D02*
X37191252Y-117890000D01*
X36668748Y-116420000D02*
X37191252Y-116420000D01*
%TO.C,TP12*%
X115580000Y-40645000D02*
X114180000Y-40645000D01*
X115580000Y-42045000D02*
X115580000Y-40645000D01*
X114180000Y-42045000D02*
X115580000Y-42045000D01*
X114180000Y-40645000D02*
X114180000Y-42045000D01*
%TO.C,TP13*%
X122600000Y-42070000D02*
X122600000Y-40670000D01*
X121200000Y-42070000D02*
X122600000Y-42070000D01*
X121200000Y-40670000D02*
X121200000Y-42070000D01*
X122600000Y-40670000D02*
X121200000Y-40670000D01*
%TO.C,C1*%
X50573752Y-146030000D02*
X50051248Y-146030000D01*
X50573752Y-147500000D02*
X50051248Y-147500000D01*
%TO.C,TP9*%
X49925000Y-70595000D02*
X49925000Y-71995000D01*
X51325000Y-70595000D02*
X49925000Y-70595000D01*
X49925000Y-71995000D02*
X51325000Y-71995000D01*
X51325000Y-71995000D02*
X51325000Y-70595000D01*
%TO.C,TP11*%
X105830000Y-48020000D02*
X105830000Y-46620000D01*
X105830000Y-46620000D02*
X104430000Y-46620000D01*
X104430000Y-46620000D02*
X104430000Y-48020000D01*
X104430000Y-48020000D02*
X105830000Y-48020000D01*
%TO.C,TP6*%
X55777500Y-141825000D02*
X55777500Y-140425000D01*
X54377500Y-140425000D02*
X54377500Y-141825000D01*
X54377500Y-141825000D02*
X55777500Y-141825000D01*
X55777500Y-140425000D02*
X54377500Y-140425000D01*
%TO.C,C17*%
X37186252Y-120910000D02*
X36663748Y-120910000D01*
X37186252Y-119440000D02*
X36663748Y-119440000D01*
%TO.C,R21*%
X26202064Y-107875000D02*
X25747936Y-107875000D01*
X26202064Y-106405000D02*
X25747936Y-106405000D01*
%TO.C,TP15*%
X118075000Y-134211000D02*
X119475000Y-134211000D01*
X118075000Y-132811000D02*
X118075000Y-134211000D01*
X119475000Y-132811000D02*
X118075000Y-132811000D01*
X119475000Y-134211000D02*
X119475000Y-132811000D01*
%TO.C,C21*%
X36561252Y-134690000D02*
X36038748Y-134690000D01*
X36561252Y-136160000D02*
X36038748Y-136160000D01*
%TO.C,TP20*%
X105805000Y-122768750D02*
X107205000Y-122768750D01*
X105805000Y-121368750D02*
X105805000Y-122768750D01*
X107205000Y-122768750D02*
X107205000Y-121368750D01*
X107205000Y-121368750D02*
X105805000Y-121368750D01*
%TO.C,U5*%
X111935000Y-132751000D02*
X111935000Y-132616000D01*
X111935000Y-131366000D02*
X111935000Y-131231000D01*
X111935000Y-131231000D02*
X111400000Y-131231000D01*
X110015000Y-132751000D02*
X110015000Y-132616000D01*
X110550000Y-132751000D02*
X110015000Y-132751000D01*
X111935000Y-132751000D02*
X111400000Y-132751000D01*
%TO.C,D1*%
X51947500Y-142945000D02*
X51947500Y-144645000D01*
X51947500Y-142945000D02*
X49397500Y-142945000D01*
X51947500Y-144645000D02*
X49397500Y-144645000D01*
%TO.C,R22*%
X26174564Y-102030000D02*
X25720436Y-102030000D01*
X26174564Y-100560000D02*
X25720436Y-100560000D01*
%TO.C,TP28*%
X36485000Y-128970000D02*
X35085000Y-128970000D01*
X35085000Y-128970000D02*
X35085000Y-130370000D01*
X35085000Y-130370000D02*
X36485000Y-130370000D01*
X36485000Y-130370000D02*
X36485000Y-128970000D01*
%TO.C,TP14*%
X118075000Y-131271000D02*
X119475000Y-131271000D01*
X118075000Y-129871000D02*
X118075000Y-131271000D01*
X119475000Y-131271000D02*
X119475000Y-129871000D01*
X119475000Y-129871000D02*
X118075000Y-129871000D01*
%TO.C,R7*%
X82270000Y-131378936D02*
X82270000Y-132833064D01*
X80450000Y-131378936D02*
X80450000Y-132833064D01*
%TO.C,D9*%
X99350000Y-112913750D02*
X103650000Y-112913750D01*
X103650000Y-114913750D02*
X99350000Y-114913750D01*
X99350000Y-114913750D02*
X99350000Y-112913750D01*
%TO.C,TP3*%
X29025000Y-68140000D02*
X29025000Y-66740000D01*
X27625000Y-68140000D02*
X29025000Y-68140000D01*
X27625000Y-66740000D02*
X27625000Y-68140000D01*
X29025000Y-66740000D02*
X27625000Y-66740000D01*
%TO.C,R20*%
X26194564Y-109395000D02*
X25740436Y-109395000D01*
X26194564Y-110865000D02*
X25740436Y-110865000D01*
%TO.C,C10*%
X110518748Y-129601000D02*
X111041252Y-129601000D01*
X110518748Y-128131000D02*
X111041252Y-128131000D01*
%TO.C,C5*%
X49875000Y-74653748D02*
X49875000Y-75176252D01*
X51345000Y-74653748D02*
X51345000Y-75176252D01*
%TO.C,TP10*%
X54270000Y-68970000D02*
X52870000Y-68970000D01*
X52870000Y-68970000D02*
X52870000Y-70370000D01*
X54270000Y-70370000D02*
X54270000Y-68970000D01*
X52870000Y-70370000D02*
X54270000Y-70370000D01*
%TO.C,R4*%
X60620000Y-70335436D02*
X60620000Y-70789564D01*
X59150000Y-70335436D02*
X59150000Y-70789564D01*
%TO.C,R19*%
X26199564Y-104985000D02*
X25745436Y-104985000D01*
X26199564Y-103515000D02*
X25745436Y-103515000D01*
%TO.C,C3*%
X27590000Y-63996252D02*
X27590000Y-63473748D01*
X29060000Y-63996252D02*
X29060000Y-63473748D01*
%TO.C,R18*%
X26202064Y-99155000D02*
X25747936Y-99155000D01*
X26202064Y-97685000D02*
X25747936Y-97685000D01*
%TD*%
M02*
