%TF.GenerationSoftware,KiCad,Pcbnew,(6.0.1)*%
%TF.CreationDate,2022-02-17T13:58:57-06:00*%
%TF.ProjectId,MPPT,4d505054-2e6b-4696-9361-645f70636258,1.4.0*%
%TF.SameCoordinates,PX10b1ae8PY9b06478*%
%TF.FileFunction,Soldermask,Top*%
%TF.FilePolarity,Negative*%
%FSLAX46Y46*%
G04 Gerber Fmt 4.6, Leading zero omitted, Abs format (unit mm)*
G04 Created by KiCad (PCBNEW (6.0.1)) date 2022-02-17 13:58:57*
%MOMM*%
%LPD*%
G01*
G04 APERTURE LIST*
G04 Aperture macros list*
%AMRoundRect*
0 Rectangle with rounded corners*
0 $1 Rounding radius*
0 $2 $3 $4 $5 $6 $7 $8 $9 X,Y pos of 4 corners*
0 Add a 4 corners polygon primitive as box body*
4,1,4,$2,$3,$4,$5,$6,$7,$8,$9,$2,$3,0*
0 Add four circle primitives for the rounded corners*
1,1,$1+$1,$2,$3*
1,1,$1+$1,$4,$5*
1,1,$1+$1,$6,$7*
1,1,$1+$1,$8,$9*
0 Add four rect primitives between the rounded corners*
20,1,$1+$1,$2,$3,$4,$5,0*
20,1,$1+$1,$4,$5,$6,$7,0*
20,1,$1+$1,$6,$7,$8,$9,0*
20,1,$1+$1,$8,$9,$2,$3,0*%
G04 Aperture macros list end*
%ADD10C,1.270000*%
%ADD11RoundRect,0.250001X0.759999X-0.499999X0.759999X0.499999X-0.759999X0.499999X-0.759999X-0.499999X0*%
%ADD12O,2.020000X1.500000*%
%ADD13C,3.200000*%
%ADD14C,2.286000*%
%ADD15RoundRect,0.250001X0.499999X0.759999X-0.499999X0.759999X-0.499999X-0.759999X0.499999X-0.759999X0*%
%ADD16O,1.500000X2.020000*%
%ADD17C,2.000000*%
%ADD18C,4.000000*%
%ADD19RoundRect,0.150000X-0.150000X0.587500X-0.150000X-0.587500X0.150000X-0.587500X0.150000X0.587500X0*%
%ADD20R,2.000000X2.000000*%
%ADD21O,2.000000X2.000000*%
%ADD22RoundRect,0.250000X0.450000X-0.262500X0.450000X0.262500X-0.450000X0.262500X-0.450000X-0.262500X0*%
%ADD23C,2.500000*%
%ADD24R,1.530000X1.530000*%
%ADD25C,1.530000*%
%ADD26RoundRect,0.243750X0.243750X0.456250X-0.243750X0.456250X-0.243750X-0.456250X0.243750X-0.456250X0*%
%ADD27R,0.650000X1.800000*%
%ADD28RoundRect,0.218750X0.381250X-0.218750X0.381250X0.218750X-0.381250X0.218750X-0.381250X-0.218750X0*%
%ADD29RoundRect,0.250000X-1.020000X0.250000X-1.020000X-0.250000X1.020000X-0.250000X1.020000X0.250000X0*%
%ADD30R,1.700000X1.700000*%
%ADD31O,1.700000X1.700000*%
%ADD32RoundRect,0.243750X0.456250X-0.243750X0.456250X0.243750X-0.456250X0.243750X-0.456250X-0.243750X0*%
%ADD33C,2.200000*%
%ADD34R,4.000000X4.000000*%
%ADD35R,1.520000X2.160000*%
%ADD36RoundRect,0.243750X-0.243750X-0.456250X0.243750X-0.456250X0.243750X0.456250X-0.243750X0.456250X0*%
%ADD37R,1.508000X1.508000*%
%ADD38C,1.508000*%
%ADD39R,4.500000X2.500000*%
%ADD40O,4.500000X2.500000*%
%ADD41C,3.800000*%
%ADD42RoundRect,0.150000X0.150000X-0.825000X0.150000X0.825000X-0.150000X0.825000X-0.150000X-0.825000X0*%
G04 APERTURE END LIST*
D10*
X3990000Y111535000D03*
X3990000Y102535000D03*
D11*
X5950000Y105535000D03*
D12*
X5950000Y108535000D03*
D13*
X110490000Y10975000D03*
X86750000Y10975000D03*
D14*
X94810000Y13775000D03*
X94810000Y16315000D03*
X94810000Y21395000D03*
X102430000Y13775000D03*
X102430000Y21395000D03*
X102430000Y16315000D03*
D13*
X120015000Y4990000D03*
X4995000Y5085000D03*
X119995000Y140085000D03*
X4995000Y140085000D03*
D10*
X16730000Y18915000D03*
X1730000Y18915000D03*
D15*
X13730000Y20875000D03*
D16*
X10730000Y20875000D03*
X7730000Y20875000D03*
X4730000Y20875000D03*
D17*
X3715000Y98255000D03*
X3715000Y91755000D03*
X8215000Y91755000D03*
X8215000Y98255000D03*
D18*
X56280000Y82080000D03*
X81680000Y82080000D03*
D19*
X7285000Y28427500D03*
X5385000Y28427500D03*
X6335000Y26552500D03*
D20*
X71525000Y86845000D03*
D21*
X66445000Y86845000D03*
D10*
X16725000Y10115000D03*
X1725000Y10115000D03*
D15*
X13725000Y12075000D03*
D16*
X10725000Y12075000D03*
X7725000Y12075000D03*
X4725000Y12075000D03*
D22*
X36075000Y91055000D03*
X36075000Y92880000D03*
D23*
X37487500Y34805000D03*
X37487500Y10705000D03*
D20*
X66445000Y77300000D03*
D21*
X71525000Y77300000D03*
D23*
X49540000Y30600000D03*
X73640000Y30600000D03*
D18*
X77560000Y130865000D03*
X77560000Y105465000D03*
D10*
X31450000Y3635000D03*
X40450000Y3635000D03*
D15*
X37450000Y5595000D03*
D16*
X34450000Y5595000D03*
D24*
X13270000Y90590000D03*
D25*
X13270000Y88050000D03*
X13270000Y85510000D03*
X13270000Y82970000D03*
X13270000Y80430000D03*
X13270000Y77890000D03*
X13270000Y75350000D03*
X13270000Y72810000D03*
X13270000Y70270000D03*
X13270000Y67730000D03*
X13270000Y65190000D03*
X13270000Y62650000D03*
X13270000Y60110000D03*
X13270000Y57570000D03*
X13270000Y55030000D03*
X28510000Y55030000D03*
X28510000Y57570000D03*
X28510000Y60110000D03*
X28510000Y62650000D03*
X28510000Y65190000D03*
X28510000Y67730000D03*
X28510000Y70270000D03*
X28510000Y72810000D03*
X28510000Y75350000D03*
X28510000Y77890000D03*
X28510000Y80430000D03*
X28510000Y82970000D03*
X28510000Y85510000D03*
X28510000Y88050000D03*
D24*
X28510000Y90590000D03*
D20*
X82295000Y115570000D03*
D21*
X82295000Y120650000D03*
D26*
X9622500Y74720000D03*
X7747500Y74720000D03*
X9595000Y68945000D03*
X7720000Y68945000D03*
D27*
X15285000Y45937500D03*
X14015000Y45937500D03*
X12745000Y45937500D03*
X11475000Y45937500D03*
X10205000Y45937500D03*
X8935000Y45937500D03*
X7665000Y45937500D03*
X6395000Y45937500D03*
X5125000Y45937500D03*
X3855000Y45937500D03*
X3855000Y36487500D03*
X5125000Y36487500D03*
X6395000Y36487500D03*
X7665000Y36487500D03*
X8935000Y36487500D03*
X10205000Y36487500D03*
X11475000Y36487500D03*
X12745000Y36487500D03*
X14015000Y36487500D03*
X15285000Y36487500D03*
D28*
X16050000Y31332500D03*
X16050000Y33457500D03*
D26*
X9607500Y60115000D03*
X7732500Y60115000D03*
D28*
X13825000Y31317500D03*
X13825000Y33442500D03*
D26*
X9607500Y65990000D03*
X7732500Y65990000D03*
D29*
X29680000Y26230000D03*
X29680000Y28770000D03*
X29680000Y33850000D03*
X19520000Y33850000D03*
X19520000Y26230000D03*
D18*
X50025000Y105470000D03*
X50025000Y130870000D03*
D30*
X12760000Y27422500D03*
D31*
X15300000Y27422500D03*
D32*
X112675000Y28822500D03*
X112675000Y30697500D03*
D33*
X93470000Y121230000D03*
X108470000Y121230000D03*
D34*
X108065000Y52120000D03*
D18*
X98065000Y52120000D03*
D35*
X6985000Y87200000D03*
X4445000Y87200000D03*
X4445000Y78940000D03*
X6985000Y78940000D03*
D26*
X9612500Y63110000D03*
X7737500Y63110000D03*
D36*
X24670000Y19370000D03*
X26545000Y19370000D03*
D37*
X20457500Y10820000D03*
D38*
X22997500Y10820000D03*
X25537500Y10820000D03*
X28077500Y10820000D03*
D36*
X21782500Y39320000D03*
X23657500Y39320000D03*
D39*
X46020000Y123625000D03*
D40*
X46020000Y118175000D03*
X46020000Y112725000D03*
D13*
X73210000Y11040000D03*
X49470000Y11040000D03*
D14*
X57530000Y16380000D03*
X57530000Y13840000D03*
X57530000Y21460000D03*
X65150000Y21460000D03*
X65150000Y13840000D03*
X65150000Y16380000D03*
D20*
X72765000Y120650000D03*
D21*
X72765000Y115570000D03*
D39*
X53930000Y112755000D03*
D40*
X53930000Y118205000D03*
X53930000Y123655000D03*
D41*
X116085000Y92760000D03*
X94285000Y92760000D03*
D32*
X77950000Y28740000D03*
X77950000Y30615000D03*
D23*
X108165000Y30681000D03*
X84065000Y30681000D03*
D42*
X35920000Y83210000D03*
X37190000Y83210000D03*
X38460000Y83210000D03*
X39730000Y83210000D03*
X39730000Y88160000D03*
X38460000Y88160000D03*
X37190000Y88160000D03*
X35920000Y88160000D03*
D26*
X9612500Y71825000D03*
X7737500Y71825000D03*
D34*
X66720000Y52410000D03*
D18*
X56720000Y52410000D03*
M02*
