M48
; DRILL file {KiCad (6.0.1)} date Thu Feb 10 23:56:58 2022
; FORMAT={-:-/ absolute / inch / decimal}
; #@! TF.CreationDate,2022-02-10T23:56:58-06:00
; #@! TF.GenerationSoftware,Kicad,Pcbnew,(6.0.1)
; #@! TF.FileFunction,Plated,1,2,PTH
FMAT,2
INCH
; #@! TA.AperFunction,Plated,PTH,ViaDrill
T1C0.0118
; #@! TA.AperFunction,Plated,PTH,ViaDrill
T2C0.0157
; #@! TA.AperFunction,Plated,PTH,ViaDrill
T3C0.0197
; #@! TA.AperFunction,Plated,PTH,ComponentDrill
T4C0.0394
; #@! TA.AperFunction,Plated,PTH,ComponentDrill
T5C0.0402
; #@! TA.AperFunction,Plated,PTH,ComponentDrill
T6C0.0433
; #@! TA.AperFunction,Plated,PTH,ComponentDrill
T7C0.0520
; #@! TA.AperFunction,Plated,PTH,ComponentDrill
T8C0.0551
; #@! TA.AperFunction,Plated,PTH,ComponentDrill
T9C0.0591
; #@! TA.AperFunction,Plated,PTH,ComponentDrill
T10C0.0748
; #@! TA.AperFunction,Plated,PTH,ComponentDrill
T11C0.0787
; #@! TA.AperFunction,Plated,PTH,ComponentDrill
T12C0.0984
%
G90
G05
T1
X0.8569Y-3.3594
X0.9567Y-3.3594
X0.9853Y-4.3358
X0.9856Y-3.988
X0.9866Y-4.1043
X0.9867Y-3.7602
X0.9867Y-3.8748
X0.9867Y-4.2181
X1.0344Y-3.6831
X1.0768Y-3.6821
X1.0892Y-3.175
X1.1118Y-3.8488
X1.1134Y-4.1866
X1.1138Y-3.9018
X1.114Y-4.1309
X1.1144Y-4.2346
X1.1144Y-4.3941
X1.1148Y-3.963
X1.1148Y-4.0195
X1.115Y-4.0864
X1.1152Y-2.5467
X1.1152Y-2.6551
X1.1881Y-5.3313
X1.2165Y-4.7333
X1.2516Y-5.1051
X1.2599Y-5.3313
X1.2776Y-5.536
X1.315Y-5.6098
X1.3191Y-4.7315
X1.3203Y-4.6142
X1.3301Y-5.1051
X1.3319Y-4.0848
X1.3524Y-5.536
X1.3659Y-4.5453
X1.3917Y-5.3317
X1.3917Y-5.4297
X1.4075Y-4.0835
X1.4089Y-5.1051
X1.4665Y-5.3317
X1.4665Y-5.4297
X1.488Y-5.1049
X1.4909Y-4.4939
X1.4911Y-4.7313
X1.4913Y-4.6124
X1.5671Y-5.1051
X1.5917Y-4.6108
X1.5919Y-4.7305
X1.5935Y-4.0825
X1.6093Y-5.3386
X1.6098Y-5.4222
X1.6177Y-4.9309
X1.6463Y-5.1051
X1.6663Y-4.9321
X1.6667Y-4.7305
X1.6835Y-4.0833
X1.6974Y-5.338
X1.6974Y-5.4217
X1.9931Y-2.8069
X2.068Y-4.7715
X2.0776Y-4.5067
X2.0785Y-4.4425
X2.0811Y-3.6264
X2.0811Y-3.8079
X2.0823Y-4.0128
X2.0844Y-3.9132
X2.1087Y-5.5569
X2.1094Y-2.7431
X2.1154Y-3.2551
X2.1825Y-5.5569
X2.2012Y-4.1303
X2.2018Y-4.4435
X2.2024Y-4.0335
X2.2024Y-4.5051
X2.2437Y-4.3892
X2.2439Y-4.5581
X2.3163Y-4.5577
X2.3169Y-4.3911
X2.3892Y-5.0374
X2.3898Y-4.94
X2.3933Y-4.4411
X2.4568Y-5.0414
X2.4581Y-4.9406
X2.5026Y-4.4452
X2.5134Y-4.8705
X2.5687Y-4.5646
X2.5687Y-4.7693
X2.6148Y-4.9295
X2.6435Y-4.6547
X2.7506Y-4.6719
X2.962Y-5.3496
X3.7585Y-5.1954
X4.139Y-1.863
X4.5228Y-1.6278
X5.1248Y-5.192
X5.1299Y-4.7659
X5.2364Y-4.7848
X5.3118Y-4.8743
T2
X1.9955Y-4.7719
X2.0904Y-0.8254
X2.0904Y-0.9829
X2.0904Y-1.1404
X2.0904Y-1.2978
X2.0904Y-1.4553
X2.0904Y-1.6128
X2.0904Y-1.7703
X2.0904Y-1.9278
X2.0904Y-2.0852
X2.0904Y-2.2427
X2.0904Y-2.4002
X2.2478Y-0.8254
X2.2478Y-0.9829
X2.2478Y-1.1404
X2.2478Y-1.2978
X2.2478Y-1.4553
X2.2478Y-1.6128
X2.2478Y-1.7703
X2.2478Y-1.9278
X2.2478Y-2.0852
X2.2478Y-2.2427
X2.2478Y-2.4002
X2.347Y-5.653
X2.3472Y-5.7713
X2.3472Y-5.8894
X2.3472Y-6.0075
X2.3472Y-6.1256
X2.4053Y-0.8254
X2.4053Y-0.9829
X2.4053Y-1.1404
X2.4053Y-1.2978
X2.4219Y-6.2039
X2.4228Y-5.125
X2.4228Y-5.2431
X2.4228Y-5.3612
X2.4228Y-5.4793
X2.423Y-5.5976
X2.423Y-5.7157
X2.423Y-5.8339
X2.423Y-5.952
X2.423Y-6.0701
X2.4252Y-4.8642
X2.4539Y-2.1122
X2.4844Y-6.1402
X2.49Y-5.1807
X2.49Y-5.2988
X2.49Y-5.4169
X2.4902Y-5.5352
X2.4902Y-5.6533
X2.4902Y-5.7715
X2.4902Y-5.8896
X2.4902Y-6.0077
X2.4923Y-5.0736
X2.5152Y-4.9344
X2.5358Y-6.0917
X2.5469Y-6.2833
X2.5512Y-6.197
X2.5628Y-0.8254
X2.5628Y-0.9829
X2.5628Y-2.4002
X2.5858Y-5.5929
X2.5858Y-5.711
X2.5864Y-5.8276
X2.5907Y-4.2724
X2.5917Y-4.3482
X2.6205Y-4.8624
X2.6234Y-6.1313
X2.6583Y-4.3504
X2.7035Y-6.1972
X2.7043Y-6.2833
X2.7203Y-0.8254
X2.7203Y-0.9829
X2.7222Y-2.5404
X2.7222Y-2.6978
X2.7222Y-2.8553
X2.7222Y-3.0128
X2.7222Y-3.1703
X2.7222Y-3.3278
X2.7222Y-3.4852
X2.7222Y-3.6427
X2.7222Y-3.8002
X2.7222Y-3.9577
X2.7222Y-4.1152
X2.7311Y-5.7858
X2.737Y-4.3504
X2.7396Y-4.9703
X2.7447Y-6.0285
X2.7516Y-4.8618
X2.7522Y-4.4291
X2.7803Y-6.1313
X2.798Y-2.113
X2.8185Y-5.0585
X2.8236Y-5.1598
X2.8262Y-4.4756
X2.8262Y-4.5543
X2.8264Y-4.6321
X2.8264Y-4.7108
X2.8329Y-4.8612
X2.8604Y-6.1972
X2.8612Y-6.028
X2.8616Y-6.2843
X2.8776Y-2.2447
X2.8778Y-0.8254
X2.8778Y-0.9829
X2.8778Y-1.1404
X2.8778Y-1.2978
X2.8791Y-2.4041
X2.8791Y-5.2953
X2.8797Y-2.5404
X2.8797Y-2.6978
X2.8797Y-2.8553
X2.8797Y-3.0128
X2.8797Y-3.3278
X2.8797Y-3.4852
X2.8797Y-3.6427
X2.8797Y-3.8002
X2.8797Y-3.9577
X2.8797Y-4.1152
X2.9116Y-4.9417
X2.9378Y-6.1313
X2.9793Y-6.028
X2.9894Y-5.0175
X3.0179Y-6.1972
X3.0191Y-6.2843
X3.0352Y-0.8254
X3.0352Y-0.9829
X3.0352Y-1.1404
X3.0352Y-1.2978
X3.0352Y-1.4553
X3.0372Y-3.3278
X3.0372Y-3.4852
X3.0372Y-3.6427
X3.0372Y-3.8002
X3.0372Y-3.9577
X3.0372Y-4.1152
X3.0671Y-5.0978
X3.0953Y-6.1313
X3.0974Y-6.028
X3.1189Y-5.1795
X3.1199Y-5.2366
X3.1754Y-6.1972
X3.1766Y-6.2843
X3.1927Y-0.8254
X3.1927Y-0.9829
X3.1927Y-1.1404
X3.1927Y-1.2978
X3.1927Y-1.4553
X3.2154Y-6.0285
X3.2528Y-6.1313
X3.3329Y-6.1972
X3.3335Y-6.0285
X3.335Y-6.2841
X3.3502Y-0.8254
X3.3502Y-0.9829
X3.3502Y-1.1404
X3.3502Y-1.2978
X3.3502Y-1.4553
X3.3502Y-1.6128
X3.3892Y-5.1309
X3.4102Y-6.1313
X3.4122Y-5.2022
X3.4252Y-5.6516
X3.4252Y-5.8091
X3.426Y-5.4122
X3.4482Y-5.1309
X3.4516Y-6.0285
X3.4904Y-6.1972
X3.4925Y-6.2841
X3.5077Y-0.8254
X3.5077Y-0.9829
X3.5077Y-1.1404
X3.5077Y-1.2978
X3.5077Y-1.4553
X3.5096Y-3.4852
X3.5096Y-3.6427
X3.5096Y-3.8002
X3.5096Y-3.9577
X3.5096Y-4.1152
X3.5096Y-4.2726
X3.5096Y-4.4291
X3.5677Y-6.1313
X3.5827Y-5.6516
X3.5827Y-5.8091
X3.5835Y-5.4122
X3.6258Y-6.1
X3.6478Y-6.1972
X3.65Y-6.2841
X3.6652Y-0.8254
X3.6652Y-0.9829
X3.6652Y-1.4553
X3.6671Y-3.4852
X3.6671Y-3.6427
X3.6671Y-3.8002
X3.6671Y-3.9577
X3.6671Y-4.1152
X3.6671Y-4.2717
X3.6671Y-4.4291
X3.6671Y-4.5866
X3.6915Y-5.8955
X3.7319Y-5.1189
X3.7339Y-6.0443
X3.7504Y-6.2305
X3.762Y-5.7051
X3.762Y-5.8232
X3.7626Y-5.4691
X3.7626Y-5.5872
X3.787Y-5.9902
X3.7909Y-5.1189
X3.7988Y-6.0998
X3.8226Y-0.8254
X3.8226Y-0.9829
X3.8226Y-1.4553
X3.8246Y-3.0128
X3.8246Y-3.3278
X3.8246Y-3.4852
X3.8246Y-3.6427
X3.8246Y-3.8002
X3.8246Y-3.9577
X3.8246Y-4.1152
X3.8246Y-4.2717
X3.8246Y-4.4291
X3.8246Y-4.5866
X3.8246Y-4.7441
X3.8331Y-6.1394
X3.8378Y-5.1581
X3.8488Y-5.0774
X3.852Y-5.9287
X3.8683Y-6.0457
X3.8734Y-5.4695
X3.8734Y-5.5876
X3.8734Y-5.7057
X3.8734Y-5.8238
X3.9079Y-6.2305
X3.9296Y-5.0696
X3.9333Y-5.0197
X3.9356Y-5.9783
X3.9415Y-5.588
X3.9421Y-5.4701
X3.9801Y-0.8254
X3.9801Y-0.9829
X3.9801Y-1.1404
X3.9801Y-1.2978
X3.9801Y-1.4553
X3.9821Y-3.0128
X3.9821Y-3.3278
X3.9821Y-3.4852
X3.9821Y-3.6427
X3.9821Y-3.8002
X3.9821Y-3.9577
X3.9821Y-4.1152
X3.9821Y-4.2717
X3.9821Y-4.4291
X3.9821Y-4.5866
X3.9821Y-4.7441
X3.9854Y-6.1396
X3.9933Y-5.773
X3.9933Y-5.8911
X4.0059Y-5.5262
X4.012Y-5.0197
X4.0583Y-5.7116
X4.0652Y-6.2315
X4.0755Y-5.569
X4.0907Y-5.0197
X4.1376Y-0.8254
X4.1376Y-0.9829
X4.1376Y-1.1404
X4.1376Y-1.2978
X4.1376Y-1.4553
X4.1396Y-3.0128
X4.1396Y-3.1703
X4.1396Y-3.3278
X4.1396Y-3.4852
X4.1396Y-3.6427
X4.1396Y-3.8002
X4.1396Y-3.9577
X4.1396Y-4.1152
X4.1396Y-4.2717
X4.1396Y-4.4291
X4.1396Y-4.5866
X4.1396Y-4.7441
X4.1396Y-5.69
X4.1396Y-5.8474
X4.1423Y-6.1396
X4.1774Y-5.0512
X4.1864Y-5.1572
X4.2226Y-6.2315
X4.2531Y-5.0844
X4.2951Y-0.8254
X4.2951Y-0.9829
X4.2951Y-1.1404
X4.2951Y-1.2978
X4.2951Y-1.4553
X4.297Y-3.0128
X4.297Y-3.1703
X4.297Y-3.3278
X4.297Y-3.4852
X4.297Y-3.6427
X4.297Y-3.8002
X4.297Y-3.9577
X4.297Y-4.1152
X4.297Y-4.2717
X4.297Y-4.4291
X4.297Y-4.5866
X4.297Y-4.7441
X4.297Y-6.0049
X4.2998Y-6.1396
X4.3319Y-5.0844
X4.3801Y-6.2315
X4.4106Y-5.0844
X4.4526Y-0.8254
X4.4526Y-0.9829
X4.4526Y-1.1404
X4.4526Y-1.2978
X4.4526Y-1.4553
X4.4526Y-1.7703
X4.4526Y-1.9278
X4.4526Y-2.0852
X4.4526Y-2.2427
X4.4526Y-2.4002
X4.4545Y-2.5404
X4.4545Y-3.0128
X4.4545Y-3.1703
X4.4545Y-3.3278
X4.4545Y-3.4852
X4.4545Y-3.6427
X4.4545Y-3.8002
X4.4545Y-3.9577
X4.4545Y-4.1152
X4.4545Y-6.0049
X4.4573Y-6.1396
X4.4835Y-5.0854
X4.5386Y-6.2313
X4.61Y-0.8254
X4.61Y-0.9829
X4.61Y-1.1404
X4.61Y-1.2978
X4.61Y-1.4553
X4.61Y-1.7703
X4.61Y-1.9278
X4.61Y-2.0852
X4.61Y-2.2427
X4.61Y-2.4002
X4.612Y-2.5404
X4.612Y-2.6978
X4.612Y-2.8553
X4.612Y-3.0128
X4.612Y-3.1703
X4.612Y-3.3278
X4.612Y-3.4852
X4.612Y-3.6427
X4.612Y-3.8002
X4.612Y-3.9577
X4.612Y-4.1152
X4.612Y-6.0049
X4.6148Y-6.1396
X4.6787Y-4.3179
X4.6961Y-6.2313
X4.7675Y-0.8254
X4.7675Y-0.9829
X4.7675Y-1.1404
X4.7675Y-1.2978
X4.7675Y-1.4553
X4.7675Y-1.7703
X4.7675Y-1.9278
X4.7675Y-2.0852
X4.7675Y-2.2427
X4.7675Y-2.4002
X4.7695Y-2.5404
X4.7695Y-2.6978
X4.7695Y-2.8553
X4.7695Y-6.0049
X4.7719Y-4.4289
X4.7719Y-4.5864
X4.7719Y-4.7439
X4.7719Y-4.9014
X4.7719Y-5.0589
X4.7722Y-6.1396
X4.8002Y-1.6297
X4.8319Y-5.375
X4.8535Y-6.2313
X4.925Y-0.8254
X4.925Y-0.9829
X4.925Y-1.1404
X4.925Y-1.2978
X4.925Y-1.4553
X4.925Y-1.7703
X4.925Y-1.9278
X4.925Y-2.0852
X4.925Y-2.2427
X4.925Y-2.4002
X4.9268Y-5.6896
X4.9268Y-5.847
X4.927Y-2.5404
X4.927Y-2.6978
X4.927Y-6.0049
X4.9297Y-6.1396
X5.011Y-6.2313
X5.013Y-5.3746
X5.0175Y-4.7661
X5.0224Y-6.1012
X5.0825Y-0.8254
X5.0825Y-0.9829
X5.0825Y-1.1404
X5.0825Y-1.2978
X5.0825Y-1.4553
X5.0825Y-1.6128
X5.0825Y-1.7703
X5.0825Y-1.9278
X5.0825Y-2.0852
X5.0825Y-2.2427
X5.0825Y-2.4002
X5.0843Y-5.5321
X5.0843Y-5.6896
X5.0843Y-5.847
X5.0844Y-2.5404
X5.1116Y-6.1514
X5.1896Y-6.1004
X5.2124Y-6.0421
X5.2276Y-6.1508
X5.24Y-0.8254
X5.24Y-0.9829
X5.24Y-1.1404
X5.24Y-1.2978
X5.24Y-1.4553
X5.24Y-1.6128
X5.24Y-1.7703
X5.24Y-1.9278
X5.24Y-2.0852
X5.24Y-2.2427
X5.24Y-2.4002
X5.2417Y-5.5321
X5.2417Y-5.6896
X5.2417Y-5.847
X5.2419Y-2.5404
X5.2419Y-3.1703
X5.2419Y-3.3278
X5.2419Y-3.4852
X5.2419Y-3.6427
X5.2419Y-3.8002
X5.2419Y-3.9577
X5.2419Y-4.1152
X5.2419Y-4.2726
X5.2419Y-4.4301
X5.2419Y-5.2175
X5.2419Y-5.375
X5.2774Y-5.9807
X5.3305Y-5.9266
X5.3376Y-6.0455
X5.3805Y-5.1081
X5.3955Y-5.8652
X5.3974Y-1.1404
X5.3974Y-1.2978
X5.3974Y-1.4553
X5.3974Y-1.6128
X5.3974Y-1.7703
X5.3974Y-1.9278
X5.3974Y-2.0852
X5.3974Y-2.2427
X5.3974Y-2.4002
X5.3994Y-2.5404
X5.3994Y-3.0128
X5.3994Y-3.1703
X5.3994Y-3.3278
X5.3994Y-3.4852
X5.3994Y-3.6427
X5.3994Y-3.8002
X5.3994Y-3.9577
X5.3994Y-4.1152
X5.3994Y-4.2726
X5.3994Y-4.4301
X5.3994Y-4.6272
X5.3994Y-4.7846
X5.4146Y-5.7679
X5.4152Y-5.1776
X5.4152Y-5.2957
X5.4152Y-5.4138
X5.4152Y-5.5319
X5.4152Y-5.65
X5.4293Y-6.0071
X5.4504Y-4.9193
X5.4888Y-5.947
X5.49Y-4.9868
X5.49Y-5.1443
X5.49Y-5.3018
X5.49Y-5.4593
X5.49Y-5.5911
X5.49Y-5.7486
X5.49Y-6.0636
T3
X1.6396Y-4.4963
X1.6398Y-4.3624
X1.9069Y-4.9872
X1.9925Y-2.912
X1.9933Y-3.1429
X2.0988Y-5.1344
X2.0988Y-5.2762
X2.1406Y-4.899
X2.2346Y-2.7033
X2.2531Y-3.2551
X2.2537Y-3.0244
X2.3069Y-5.2874
X2.3577Y-2.7421
T4
X1.5679Y-5.5756
X1.6679Y-5.5756
X1.9428Y-5.8935
X2.0428Y-5.8935
X2.1428Y-5.8935
X2.2428Y-5.8935
T5
X0.9152Y-2.4295
X0.9152Y-2.5476
X1.2033Y-3.136
X1.2033Y-3.236
X1.2033Y-3.336
X1.2033Y-3.436
X1.2033Y-3.536
X1.2033Y-3.636
X1.2033Y-3.736
X1.2033Y-3.836
X1.2033Y-3.936
X1.2033Y-4.036
X1.2033Y-4.136
X1.2033Y-4.236
X1.2033Y-4.336
X1.2033Y-4.436
X1.2033Y-4.536
X1.2516Y-6.1798
X1.2518Y-5.8334
X1.3697Y-6.1798
X1.3699Y-5.8334
X1.4878Y-6.1798
X1.488Y-5.8334
X1.6059Y-6.1798
X1.6061Y-5.8334
X1.8033Y-3.136
X1.8033Y-3.236
X1.8033Y-3.336
X1.8033Y-3.436
X1.8033Y-3.536
X1.8033Y-3.636
X1.8033Y-3.736
X1.8033Y-3.836
X1.8033Y-3.936
X1.8033Y-4.036
X1.8033Y-4.136
X1.8033Y-4.236
X1.8033Y-4.336
X1.8033Y-4.436
X1.8033Y-4.536
X2.0056Y-6.1766
X2.1237Y-6.1766
T6
X0.8272Y-2.8343
X0.8272Y-3.0902
X1.0043Y-2.8343
X1.0043Y-3.0902
X3.3051Y-2.9807
X3.3051Y-3.3565
X3.5051Y-2.9807
X3.5051Y-3.3565
X3.5539Y-1.6498
X3.5539Y-1.8498
X3.9291Y-1.6498
X3.9291Y-1.8498
X4.3691Y-1.627
X4.9596Y-1.627
T7
X2.9541Y-5.5549
X2.9541Y-5.7549
X2.9541Y-5.8549
X3.2541Y-5.5549
X3.2541Y-5.7549
X3.2541Y-5.8549
X4.4219Y-5.5575
X4.4219Y-5.7575
X4.4219Y-5.8575
X4.7219Y-5.5575
X4.7219Y-5.7575
X4.7219Y-5.8575
T8
X2.6396Y-5.1951
X3.5884Y-5.1951
X3.9988Y-5.1919
X4.9476Y-5.1919
T9
X2.501Y-1.5327
X2.501Y-1.7472
X2.501Y-1.9618
X2.8124Y-1.5315
X2.8124Y-1.7461
X2.8124Y-1.9606
T10
X4.4012Y-2.7478
X5.2594Y-2.7478
T11
X2.9222Y-4.3364
X3.3159Y-4.3364
X4.55Y-4.3478
X4.9437Y-4.3478
T12
X2.6587Y-1.2474
X2.6587Y-2.2474
X2.9049Y-3.1683
X3.7427Y-1.2476
X3.7427Y-2.2476
X3.9049Y-3.1683
T0
M30
