%TF.GenerationSoftware,KiCad,Pcbnew,(6.0.1)*%
%TF.CreationDate,2022-02-04T16:06:47-06:00*%
%TF.ProjectId,MPPT,4d505054-2e6b-4696-9361-645f70636258,1.3.0*%
%TF.SameCoordinates,Original*%
%TF.FileFunction,Other,User*%
%FSLAX46Y46*%
G04 Gerber Fmt 4.6, Leading zero omitted, Abs format (unit mm)*
G04 Created by KiCad (PCBNEW (6.0.1)) date 2022-02-04 16:06:47*
%MOMM*%
%LPD*%
G01*
G04 APERTURE LIST*
%ADD10C,0.050000*%
%ADD11C,0.150000*%
%ADD12C,0.120000*%
G04 APERTURE END LIST*
D10*
X140000000Y-19970000D02*
X20000000Y-19970000D01*
X20000000Y-159970000D02*
X20000000Y-14970000D01*
X140000000Y-159970000D02*
X140000000Y-19970000D01*
X140000000Y-159970000D02*
X20000000Y-159970000D01*
%TO.C,J2*%
X27045000Y-57890000D02*
X27045000Y-68530000D01*
X20275000Y-68530000D02*
X20275000Y-57890000D01*
X27045000Y-68530000D02*
X20275000Y-68530000D01*
X20275000Y-57890000D02*
X27045000Y-57890000D01*
D11*
%TO.C,J3*%
X131795000Y-157416000D02*
X100455000Y-157416000D01*
X100455000Y-157416000D02*
X100455000Y-138112000D01*
X131795000Y-138112000D02*
X131795000Y-157416000D01*
X100455000Y-138112000D02*
X131795000Y-138112000D01*
D10*
%TO.C,H1*%
X140950000Y-157470000D02*
G75*
G03*
X140950000Y-157470000I-3450000J0D01*
G01*
%TO.C,H2*%
X25950000Y-157470000D02*
G75*
G03*
X25950000Y-157470000I-3450000J0D01*
G01*
%TO.C,H3*%
X140950000Y-22470000D02*
G75*
G03*
X140950000Y-22470000I-3450000J0D01*
G01*
%TO.C,H4*%
X25950000Y-22470000D02*
G75*
G03*
X25950000Y-22470000I-3450000J0D01*
G01*
%TO.C,J6*%
X44615000Y-144367500D02*
X44615000Y-151137500D01*
X44615000Y-151137500D02*
X27975000Y-151137500D01*
X27975000Y-151137500D02*
X27975000Y-144367500D01*
X27975000Y-144367500D02*
X44615000Y-144367500D01*
%TO.C,SW1*%
X27010000Y-70490000D02*
X26760000Y-70490000D01*
X19510000Y-70490000D02*
X19760000Y-70490000D01*
X19760000Y-70490000D02*
X26760000Y-70490000D01*
X19510000Y-70740000D02*
X19510000Y-70490000D01*
X26760000Y-79990000D02*
X19760000Y-79990000D01*
X19760000Y-79990000D02*
X19510000Y-79990000D01*
X27010000Y-70740000D02*
X27010000Y-70490000D01*
X27010000Y-70740000D02*
X27010000Y-79740000D01*
X19510000Y-79990000D02*
X19510000Y-79740000D01*
X26760000Y-79990000D02*
X27010000Y-79990000D01*
X27010000Y-79990000D02*
X27010000Y-79740000D01*
X19510000Y-79740000D02*
X19510000Y-70740000D01*
%TO.C,HS3*%
X107735000Y-93225000D02*
X107735000Y-67725000D01*
X65235000Y-67725000D02*
X65235000Y-93225000D01*
X65235000Y-67725000D02*
X107735000Y-67725000D01*
X107735000Y-93225000D02*
X65235000Y-93225000D01*
%TO.C,U10*%
X35100000Y-143472500D02*
X35100000Y-139632500D01*
X31700000Y-143472500D02*
X35100000Y-143472500D01*
X35100000Y-139632500D02*
X31700000Y-139632500D01*
X31700000Y-139632500D02*
X31700000Y-143472500D01*
%TO.C,D6*%
X81240000Y-74200000D02*
X81240000Y-79110000D01*
X91740000Y-79110000D02*
X91740000Y-74200000D01*
X91740000Y-74200000D02*
X81240000Y-74200000D01*
X81240000Y-79110000D02*
X91740000Y-79110000D01*
%TO.C,J5*%
X27970000Y-153167500D02*
X44610000Y-153167500D01*
X44610000Y-159937500D02*
X27970000Y-159937500D01*
X44610000Y-153167500D02*
X44610000Y-159937500D01*
X27970000Y-159937500D02*
X27970000Y-153167500D01*
%TO.C,R2*%
X52630000Y-72267500D02*
X52630000Y-68907500D01*
X54530000Y-72267500D02*
X52630000Y-72267500D01*
X54530000Y-68907500D02*
X54530000Y-72267500D01*
X52630000Y-68907500D02*
X54530000Y-68907500D01*
%TO.C,D5*%
X91740000Y-86765000D02*
X91740000Y-81855000D01*
X81240000Y-86765000D02*
X91740000Y-86765000D01*
X91740000Y-81855000D02*
X81240000Y-81855000D01*
X81240000Y-81855000D02*
X81240000Y-86765000D01*
%TO.C,HS2*%
X107815000Y-23140000D02*
X82315000Y-23140000D01*
X107815000Y-23140000D02*
X107815000Y-65640000D01*
X82315000Y-65640000D02*
X82315000Y-23140000D01*
X82315000Y-65640000D02*
X107815000Y-65640000D01*
%TO.C,J1*%
X57762500Y-159855000D02*
X47122500Y-159855000D01*
X47122500Y-153085000D02*
X57762500Y-153085000D01*
X57762500Y-153085000D02*
X57762500Y-159855000D01*
X47122500Y-159855000D02*
X47122500Y-153085000D01*
%TO.C,U2*%
X47705000Y-70475000D02*
X47705000Y-121265000D01*
X47705000Y-121265000D02*
X28665000Y-121265000D01*
X28665000Y-121265000D02*
X28665000Y-70475000D01*
X28665000Y-70475000D02*
X47705000Y-70475000D01*
%TO.C,R5*%
X101310000Y-49695000D02*
X101310000Y-39195000D01*
X96400000Y-49695000D02*
X101310000Y-49695000D01*
X96400000Y-39195000D02*
X96400000Y-49695000D01*
X101310000Y-39195000D02*
X96400000Y-39195000D01*
%TO.C,LED5*%
X27660000Y-94575000D02*
X27660000Y-96475000D01*
X24300000Y-96475000D02*
X24300000Y-94575000D01*
X27660000Y-96475000D02*
X24300000Y-96475000D01*
X24300000Y-94575000D02*
X27660000Y-94575000D01*
%TO.C,LED10*%
X27632500Y-100350000D02*
X27632500Y-102250000D01*
X24272500Y-100350000D02*
X27632500Y-100350000D01*
X24272500Y-102250000D02*
X24272500Y-100350000D01*
X27632500Y-102250000D02*
X24272500Y-102250000D01*
%TO.C,L4*%
X42265000Y-134897500D02*
X43965000Y-134897500D01*
X42265000Y-138397500D02*
X42265000Y-134897500D01*
X43965000Y-134897500D02*
X43965000Y-138397500D01*
X43965000Y-138397500D02*
X42265000Y-138397500D01*
%TO.C,LED8*%
X27645000Y-109180000D02*
X27645000Y-111080000D01*
X24285000Y-111080000D02*
X24285000Y-109180000D01*
X27645000Y-111080000D02*
X24285000Y-111080000D01*
X24285000Y-109180000D02*
X27645000Y-109180000D01*
%TO.C,L3*%
X41740000Y-134912500D02*
X41740000Y-138412500D01*
X40040000Y-138412500D02*
X40040000Y-134912500D01*
X41740000Y-138412500D02*
X40040000Y-138412500D01*
X40040000Y-134912500D02*
X41740000Y-134912500D01*
%TO.C,LED7*%
X24285000Y-105205000D02*
X24285000Y-103305000D01*
X27645000Y-105205000D02*
X24285000Y-105205000D01*
X27645000Y-103305000D02*
X27645000Y-105205000D01*
X24285000Y-103305000D02*
X27645000Y-103305000D01*
D12*
%TO.C,U4*%
X60900000Y-137825000D02*
X46200000Y-137825000D01*
X46200000Y-137825000D02*
X46200000Y-123125000D01*
X46200000Y-123125000D02*
X60900000Y-123125000D01*
X60900000Y-123125000D02*
X60900000Y-137825000D01*
D10*
%TO.C,HS1*%
X80280000Y-23135000D02*
X80280000Y-65635000D01*
X80280000Y-23135000D02*
X54780000Y-23135000D01*
X54780000Y-65635000D02*
X54780000Y-23135000D01*
X54780000Y-65635000D02*
X80280000Y-65635000D01*
%TO.C,JP1*%
X44175000Y-143420000D02*
X44175000Y-139820000D01*
X44175000Y-139820000D02*
X38025000Y-139820000D01*
X38025000Y-143420000D02*
X44175000Y-143420000D01*
X38025000Y-139820000D02*
X38025000Y-143420000D01*
%TO.C,LED3*%
X134910000Y-148161500D02*
X134910000Y-144801500D01*
X136810000Y-148161500D02*
X134910000Y-148161500D01*
X134910000Y-144801500D02*
X136810000Y-144801500D01*
X136810000Y-144801500D02*
X136810000Y-148161500D01*
%TO.C,C9*%
X127325000Y-37575000D02*
X109625000Y-37575000D01*
X109625000Y-37575000D02*
X109625000Y-45075000D01*
X127325000Y-45075000D02*
X127325000Y-37575000D01*
X109625000Y-45075000D02*
X127325000Y-45075000D01*
%TO.C,CP1*%
X135820000Y-110435000D02*
G75*
G03*
X135820000Y-110435000I-15250000J0D01*
G01*
%TO.C,LED9*%
X24290000Y-106185000D02*
X27650000Y-106185000D01*
X24290000Y-108085000D02*
X24290000Y-106185000D01*
X27650000Y-108085000D02*
X24290000Y-108085000D01*
X27650000Y-106185000D02*
X27650000Y-108085000D01*
%TO.C,LED1*%
X57695000Y-142095000D02*
X54335000Y-142095000D01*
X57695000Y-140195000D02*
X57695000Y-142095000D01*
X54335000Y-140195000D02*
X57695000Y-140195000D01*
X54335000Y-142095000D02*
X54335000Y-140195000D01*
%TO.C,U1*%
X47097500Y-151215000D02*
X59097500Y-151215000D01*
X59097500Y-151215000D02*
X59097500Y-143115000D01*
X59097500Y-143115000D02*
X47097500Y-143115000D01*
X47097500Y-143115000D02*
X47097500Y-151215000D01*
%TO.C,LED2*%
X49930000Y-120245000D02*
X53290000Y-120245000D01*
X53290000Y-122145000D02*
X49930000Y-122145000D01*
X49930000Y-122145000D02*
X49930000Y-120245000D01*
X53290000Y-120245000D02*
X53290000Y-122145000D01*
%TO.C,Q1*%
X60575000Y-36180000D02*
X60575000Y-52580000D01*
X66115000Y-36180000D02*
X60575000Y-36180000D01*
X60575000Y-52580000D02*
X66115000Y-52580000D01*
X66115000Y-52580000D02*
X66115000Y-36180000D01*
D11*
%TO.C,J4*%
X63175000Y-157351000D02*
X63175000Y-138047000D01*
X63175000Y-138047000D02*
X94515000Y-138047000D01*
X94515000Y-157351000D02*
X63175000Y-157351000D01*
X94515000Y-138047000D02*
X94515000Y-157351000D01*
D10*
%TO.C,D4*%
X88760000Y-49695000D02*
X93670000Y-49695000D01*
X93670000Y-49695000D02*
X93670000Y-39195000D01*
X93670000Y-39195000D02*
X88760000Y-39195000D01*
X88760000Y-39195000D02*
X88760000Y-49695000D01*
%TO.C,Q2*%
X74385000Y-52550000D02*
X74385000Y-36150000D01*
X68845000Y-52550000D02*
X74385000Y-52550000D01*
X68845000Y-36150000D02*
X68845000Y-52550000D01*
X74385000Y-36150000D02*
X68845000Y-36150000D01*
%TO.C,L2*%
X135790000Y-93145000D02*
X135790000Y-46445000D01*
X135790000Y-46445000D02*
X109590000Y-46445000D01*
X109590000Y-46445000D02*
X109590000Y-93145000D01*
X109590000Y-93145000D02*
X135790000Y-93145000D01*
%TO.C,LED4*%
X96575000Y-147965000D02*
X96575000Y-144605000D01*
X98475000Y-147965000D02*
X96575000Y-147965000D01*
X98475000Y-144605000D02*
X98475000Y-147965000D01*
X96575000Y-144605000D02*
X98475000Y-144605000D01*
%TO.C,U3*%
X52630000Y-73170000D02*
X52630000Y-80570000D01*
X58030000Y-80570000D02*
X58030000Y-73170000D01*
X58030000Y-73170000D02*
X52630000Y-73170000D01*
X52630000Y-80570000D02*
X58030000Y-80570000D01*
%TO.C,LED6*%
X24290000Y-99370000D02*
X24290000Y-97470000D01*
X24290000Y-97470000D02*
X27650000Y-97470000D01*
X27650000Y-97470000D02*
X27650000Y-99370000D01*
X27650000Y-99370000D02*
X24290000Y-99370000D01*
%TO.C,CP2*%
X94475000Y-110145000D02*
G75*
G03*
X94475000Y-110145000I-15250000J0D01*
G01*
%TD*%
M02*
