%TF.GenerationSoftware,KiCad,Pcbnew,(6.0.1)*%
%TF.CreationDate,2022-02-04T14:08:06-06:00*%
%TF.ProjectId,MPPT,4d505054-2e6b-4696-9361-645f70636258,1.3.0*%
%TF.SameCoordinates,Original*%
%TF.FileFunction,Legend,Top*%
%TF.FilePolarity,Positive*%
%FSLAX46Y46*%
G04 Gerber Fmt 4.6, Leading zero omitted, Abs format (unit mm)*
G04 Created by KiCad (PCBNEW (6.0.1)) date 2022-02-04 14:08:06*
%MOMM*%
%LPD*%
G01*
G04 APERTURE LIST*
G04 Aperture macros list*
%AMRoundRect*
0 Rectangle with rounded corners*
0 $1 Rounding radius*
0 $2 $3 $4 $5 $6 $7 $8 $9 X,Y pos of 4 corners*
0 Add a 4 corners polygon primitive as box body*
4,1,4,$2,$3,$4,$5,$6,$7,$8,$9,$2,$3,0*
0 Add four circle primitives for the rounded corners*
1,1,$1+$1,$2,$3*
1,1,$1+$1,$4,$5*
1,1,$1+$1,$6,$7*
1,1,$1+$1,$8,$9*
0 Add four rect primitives between the rounded corners*
20,1,$1+$1,$2,$3,$4,$5,0*
20,1,$1+$1,$4,$5,$6,$7,0*
20,1,$1+$1,$6,$7,$8,$9,0*
20,1,$1+$1,$8,$9,$2,$3,0*%
G04 Aperture macros list end*
%ADD10C,0.150000*%
%ADD11C,0.300000*%
%ADD12C,0.200000*%
%ADD13C,0.127000*%
%ADD14C,0.120000*%
%ADD15C,0.152400*%
%ADD16C,1.530000*%
%ADD17R,1.530000X1.530000*%
%ADD18RoundRect,0.150000X-0.150000X0.587500X-0.150000X-0.587500X0.150000X-0.587500X0.150000X0.587500X0*%
%ADD19R,0.650000X1.800000*%
%ADD20RoundRect,0.250000X-1.020000X0.250000X-1.020000X-0.250000X1.020000X-0.250000X1.020000X0.250000X0*%
%ADD21RoundRect,0.150000X0.150000X-0.825000X0.150000X0.825000X-0.150000X0.825000X-0.150000X-0.825000X0*%
%ADD22C,1.508000*%
%ADD23R,1.508000X1.508000*%
%ADD24R,1.520000X2.160000*%
%ADD25C,2.000000*%
%ADD26O,2.000000X2.000000*%
%ADD27R,2.000000X2.000000*%
%ADD28RoundRect,0.250000X0.450000X-0.262500X0.450000X0.262500X-0.450000X0.262500X-0.450000X-0.262500X0*%
%ADD29R,4.500000X2.500000*%
%ADD30O,4.500000X2.500000*%
%ADD31RoundRect,0.243750X0.243750X0.456250X-0.243750X0.456250X-0.243750X-0.456250X0.243750X-0.456250X0*%
%ADD32RoundRect,0.243750X-0.456250X0.243750X-0.456250X-0.243750X0.456250X-0.243750X0.456250X0.243750X0*%
%ADD33RoundRect,0.243750X-0.243750X-0.456250X0.243750X-0.456250X0.243750X0.456250X-0.243750X0.456250X0*%
%ADD34RoundRect,0.218750X0.381250X-0.218750X0.381250X0.218750X-0.381250X0.218750X-0.381250X-0.218750X0*%
%ADD35C,3.800000*%
%ADD36R,1.700000X1.700000*%
%ADD37O,1.700000X1.700000*%
%ADD38C,1.270000*%
%ADD39RoundRect,0.250001X0.499999X0.759999X-0.499999X0.759999X-0.499999X-0.759999X0.499999X-0.759999X0*%
%ADD40O,1.500000X2.020000*%
%ADD41C,3.200000*%
%ADD42C,2.286000*%
%ADD43RoundRect,0.250001X0.759999X-0.499999X0.759999X0.499999X-0.759999X0.499999X-0.759999X-0.499999X0*%
%ADD44O,2.020000X1.500000*%
%ADD45C,4.000000*%
%ADD46C,2.500000*%
%ADD47R,4.000000X4.000000*%
%ADD48C,2.200000*%
G04 APERTURE END LIST*
D10*
X18418095Y-61392380D02*
X18418095Y-61544761D01*
X18456190Y-61620952D01*
X18494285Y-61659047D01*
X18608571Y-61735238D01*
X18760952Y-61773333D01*
X19065714Y-61773333D01*
X19141904Y-61735238D01*
X19180000Y-61697142D01*
X19218095Y-61620952D01*
X19218095Y-61468571D01*
X19180000Y-61392380D01*
X19141904Y-61354285D01*
X19065714Y-61316190D01*
X18875238Y-61316190D01*
X18799047Y-61354285D01*
X18760952Y-61392380D01*
X18722857Y-61468571D01*
X18722857Y-61620952D01*
X18760952Y-61697142D01*
X18799047Y-61735238D01*
X18875238Y-61773333D01*
X19218095Y-62001904D02*
X18418095Y-62268571D01*
X19218095Y-62535238D01*
X18837142Y-63411428D02*
X18837142Y-63678095D01*
X18418095Y-63792380D02*
X18418095Y-63411428D01*
X19218095Y-63411428D01*
X19218095Y-63792380D01*
X19218095Y-64059047D02*
X18418095Y-64592380D01*
X19218095Y-64592380D02*
X18418095Y-64059047D01*
X19218095Y-64782857D02*
X19218095Y-65240000D01*
X18418095Y-65011428D02*
X19218095Y-65011428D01*
X50530238Y-161350714D02*
X50492142Y-161388809D01*
X50377857Y-161426904D01*
X50301666Y-161426904D01*
X50187380Y-161388809D01*
X50111190Y-161312619D01*
X50073095Y-161236428D01*
X50035000Y-161084047D01*
X50035000Y-160969761D01*
X50073095Y-160817380D01*
X50111190Y-160741190D01*
X50187380Y-160665000D01*
X50301666Y-160626904D01*
X50377857Y-160626904D01*
X50492142Y-160665000D01*
X50530238Y-160703095D01*
X50835000Y-161198333D02*
X51215952Y-161198333D01*
X50758809Y-161426904D02*
X51025476Y-160626904D01*
X51292142Y-161426904D01*
X52015952Y-161426904D02*
X51749285Y-161045952D01*
X51558809Y-161426904D02*
X51558809Y-160626904D01*
X51863571Y-160626904D01*
X51939761Y-160665000D01*
X51977857Y-160703095D01*
X52015952Y-160779285D01*
X52015952Y-160893571D01*
X51977857Y-160969761D01*
X51939761Y-161007857D01*
X51863571Y-161045952D01*
X51558809Y-161045952D01*
X53387380Y-161426904D02*
X52930238Y-161426904D01*
X53158809Y-161426904D02*
X53158809Y-160626904D01*
X53082619Y-160741190D01*
X53006428Y-160817380D01*
X52930238Y-160855476D01*
X53692142Y-160703095D02*
X53730238Y-160665000D01*
X53806428Y-160626904D01*
X53996904Y-160626904D01*
X54073095Y-160665000D01*
X54111190Y-160703095D01*
X54149285Y-160779285D01*
X54149285Y-160855476D01*
X54111190Y-160969761D01*
X53654047Y-161426904D01*
X54149285Y-161426904D01*
X54377857Y-160626904D02*
X54644523Y-161426904D01*
X54911190Y-160626904D01*
X34283095Y-161390714D02*
X34245000Y-161428809D01*
X34130714Y-161466904D01*
X34054523Y-161466904D01*
X33940238Y-161428809D01*
X33864047Y-161352619D01*
X33825952Y-161276428D01*
X33787857Y-161124047D01*
X33787857Y-161009761D01*
X33825952Y-160857380D01*
X33864047Y-160781190D01*
X33940238Y-160705000D01*
X34054523Y-160666904D01*
X34130714Y-160666904D01*
X34245000Y-160705000D01*
X34283095Y-160743095D01*
X34587857Y-161238333D02*
X34968809Y-161238333D01*
X34511666Y-161466904D02*
X34778333Y-160666904D01*
X35045000Y-161466904D01*
X35311666Y-161466904D02*
X35311666Y-160666904D01*
X35768809Y-161466904D01*
X35768809Y-160666904D01*
X36987857Y-161771666D02*
X36949761Y-161733571D01*
X36873571Y-161619285D01*
X36835476Y-161543095D01*
X36797380Y-161428809D01*
X36759285Y-161238333D01*
X36759285Y-161085952D01*
X36797380Y-160895476D01*
X36835476Y-160781190D01*
X36873571Y-160705000D01*
X36949761Y-160590714D01*
X36987857Y-160552619D01*
X37292619Y-161466904D02*
X37292619Y-160933571D01*
X37292619Y-160666904D02*
X37254523Y-160705000D01*
X37292619Y-160743095D01*
X37330714Y-160705000D01*
X37292619Y-160666904D01*
X37292619Y-160743095D01*
X37559285Y-160933571D02*
X37864047Y-160933571D01*
X37673571Y-160666904D02*
X37673571Y-161352619D01*
X37711666Y-161428809D01*
X37787857Y-161466904D01*
X37864047Y-161466904D01*
X38130714Y-161390714D02*
X38168809Y-161428809D01*
X38130714Y-161466904D01*
X38092619Y-161428809D01*
X38130714Y-161390714D01*
X38130714Y-161466904D01*
X38130714Y-161162142D02*
X38092619Y-160705000D01*
X38130714Y-160666904D01*
X38168809Y-160705000D01*
X38130714Y-161162142D01*
X38130714Y-160666904D01*
X38435476Y-161771666D02*
X38473571Y-161733571D01*
X38549761Y-161619285D01*
X38587857Y-161543095D01*
X38625952Y-161428809D01*
X38664047Y-161238333D01*
X38664047Y-161085952D01*
X38625952Y-160895476D01*
X38587857Y-160781190D01*
X38549761Y-160705000D01*
X38473571Y-160590714D01*
X38435476Y-160552619D01*
X18859761Y-110325714D02*
X18821666Y-110363809D01*
X18707380Y-110401904D01*
X18631190Y-110401904D01*
X18516904Y-110363809D01*
X18440714Y-110287619D01*
X18402619Y-110211428D01*
X18364523Y-110059047D01*
X18364523Y-109944761D01*
X18402619Y-109792380D01*
X18440714Y-109716190D01*
X18516904Y-109640000D01*
X18631190Y-109601904D01*
X18707380Y-109601904D01*
X18821666Y-109640000D01*
X18859761Y-109678095D01*
X19164523Y-110173333D02*
X19545476Y-110173333D01*
X19088333Y-110401904D02*
X19355000Y-109601904D01*
X19621666Y-110401904D01*
X19888333Y-110401904D02*
X19888333Y-109601904D01*
X20345476Y-110401904D01*
X20345476Y-109601904D01*
X21183571Y-110401904D02*
X20916904Y-110020952D01*
X20726428Y-110401904D02*
X20726428Y-109601904D01*
X21031190Y-109601904D01*
X21107380Y-109640000D01*
X21145476Y-109678095D01*
X21183571Y-109754285D01*
X21183571Y-109868571D01*
X21145476Y-109944761D01*
X21107380Y-109982857D01*
X21031190Y-110020952D01*
X20726428Y-110020952D01*
X21450238Y-109601904D02*
X21983571Y-110401904D01*
X21983571Y-109601904D02*
X21450238Y-110401904D01*
X18955000Y-107445714D02*
X18916904Y-107483809D01*
X18802619Y-107521904D01*
X18726428Y-107521904D01*
X18612142Y-107483809D01*
X18535952Y-107407619D01*
X18497857Y-107331428D01*
X18459761Y-107179047D01*
X18459761Y-107064761D01*
X18497857Y-106912380D01*
X18535952Y-106836190D01*
X18612142Y-106760000D01*
X18726428Y-106721904D01*
X18802619Y-106721904D01*
X18916904Y-106760000D01*
X18955000Y-106798095D01*
X19259761Y-107293333D02*
X19640714Y-107293333D01*
X19183571Y-107521904D02*
X19450238Y-106721904D01*
X19716904Y-107521904D01*
X19983571Y-107521904D02*
X19983571Y-106721904D01*
X20440714Y-107521904D01*
X20440714Y-106721904D01*
X20707380Y-106721904D02*
X21164523Y-106721904D01*
X20935952Y-107521904D02*
X20935952Y-106721904D01*
X21355000Y-106721904D02*
X21888333Y-107521904D01*
X21888333Y-106721904D02*
X21355000Y-107521904D01*
X18526190Y-104531904D02*
X18526190Y-103731904D01*
X18830952Y-103731904D01*
X18907142Y-103770000D01*
X18945238Y-103808095D01*
X18983333Y-103884285D01*
X18983333Y-103998571D01*
X18945238Y-104074761D01*
X18907142Y-104112857D01*
X18830952Y-104150952D01*
X18526190Y-104150952D01*
X19250000Y-103731904D02*
X19440476Y-104531904D01*
X19592857Y-103960476D01*
X19745238Y-104531904D01*
X19935714Y-103731904D01*
X20240476Y-104531904D02*
X20240476Y-103731904D01*
X20507142Y-104303333D01*
X20773809Y-103731904D01*
X20773809Y-104531904D01*
X18424523Y-101157857D02*
X18691190Y-101157857D01*
X18805476Y-101576904D02*
X18424523Y-101576904D01*
X18424523Y-100776904D01*
X18805476Y-100776904D01*
X19605476Y-101576904D02*
X19338809Y-101195952D01*
X19148333Y-101576904D02*
X19148333Y-100776904D01*
X19453095Y-100776904D01*
X19529285Y-100815000D01*
X19567380Y-100853095D01*
X19605476Y-100929285D01*
X19605476Y-101043571D01*
X19567380Y-101119761D01*
X19529285Y-101157857D01*
X19453095Y-101195952D01*
X19148333Y-101195952D01*
X20405476Y-101576904D02*
X20138809Y-101195952D01*
X19948333Y-101576904D02*
X19948333Y-100776904D01*
X20253095Y-100776904D01*
X20329285Y-100815000D01*
X20367380Y-100853095D01*
X20405476Y-100929285D01*
X20405476Y-101043571D01*
X20367380Y-101119761D01*
X20329285Y-101157857D01*
X20253095Y-101195952D01*
X19948333Y-101195952D01*
X20900714Y-100776904D02*
X21053095Y-100776904D01*
X21129285Y-100815000D01*
X21205476Y-100891190D01*
X21243571Y-101043571D01*
X21243571Y-101310238D01*
X21205476Y-101462619D01*
X21129285Y-101538809D01*
X21053095Y-101576904D01*
X20900714Y-101576904D01*
X20824523Y-101538809D01*
X20748333Y-101462619D01*
X20710238Y-101310238D01*
X20710238Y-101043571D01*
X20748333Y-100891190D01*
X20824523Y-100815000D01*
X20900714Y-100776904D01*
X22043571Y-101576904D02*
X21776904Y-101195952D01*
X21586428Y-101576904D02*
X21586428Y-100776904D01*
X21891190Y-100776904D01*
X21967380Y-100815000D01*
X22005476Y-100853095D01*
X22043571Y-100929285D01*
X22043571Y-101043571D01*
X22005476Y-101119761D01*
X21967380Y-101157857D01*
X21891190Y-101195952D01*
X21586428Y-101195952D01*
X18379047Y-97941904D02*
X18836190Y-97941904D01*
X18607619Y-98741904D02*
X18607619Y-97941904D01*
X19560000Y-98741904D02*
X19293333Y-98360952D01*
X19102857Y-98741904D02*
X19102857Y-97941904D01*
X19407619Y-97941904D01*
X19483809Y-97980000D01*
X19521904Y-98018095D01*
X19560000Y-98094285D01*
X19560000Y-98208571D01*
X19521904Y-98284761D01*
X19483809Y-98322857D01*
X19407619Y-98360952D01*
X19102857Y-98360952D01*
X19864761Y-98513333D02*
X20245714Y-98513333D01*
X19788571Y-98741904D02*
X20055238Y-97941904D01*
X20321904Y-98741904D01*
X21045714Y-98665714D02*
X21007619Y-98703809D01*
X20893333Y-98741904D01*
X20817142Y-98741904D01*
X20702857Y-98703809D01*
X20626666Y-98627619D01*
X20588571Y-98551428D01*
X20550476Y-98399047D01*
X20550476Y-98284761D01*
X20588571Y-98132380D01*
X20626666Y-98056190D01*
X20702857Y-97980000D01*
X20817142Y-97941904D01*
X20893333Y-97941904D01*
X21007619Y-97980000D01*
X21045714Y-98018095D01*
X21388571Y-98741904D02*
X21388571Y-97941904D01*
X21845714Y-98741904D02*
X21502857Y-98284761D01*
X21845714Y-97941904D02*
X21388571Y-98399047D01*
X22188571Y-98741904D02*
X22188571Y-97941904D01*
X22569523Y-98741904D02*
X22569523Y-97941904D01*
X23026666Y-98741904D01*
X23026666Y-97941904D01*
X23826666Y-97980000D02*
X23750476Y-97941904D01*
X23636190Y-97941904D01*
X23521904Y-97980000D01*
X23445714Y-98056190D01*
X23407619Y-98132380D01*
X23369523Y-98284761D01*
X23369523Y-98399047D01*
X23407619Y-98551428D01*
X23445714Y-98627619D01*
X23521904Y-98703809D01*
X23636190Y-98741904D01*
X23712380Y-98741904D01*
X23826666Y-98703809D01*
X23864761Y-98665714D01*
X23864761Y-98399047D01*
X23712380Y-98399047D01*
X18486904Y-95916904D02*
X18486904Y-95116904D01*
X18486904Y-95497857D02*
X18944047Y-95497857D01*
X18944047Y-95916904D02*
X18944047Y-95116904D01*
X19325000Y-95497857D02*
X19591666Y-95497857D01*
X19705952Y-95916904D02*
X19325000Y-95916904D01*
X19325000Y-95116904D01*
X19705952Y-95116904D01*
X20010714Y-95688333D02*
X20391666Y-95688333D01*
X19934523Y-95916904D02*
X20201190Y-95116904D01*
X20467857Y-95916904D01*
X21191666Y-95916904D02*
X20925000Y-95535952D01*
X20734523Y-95916904D02*
X20734523Y-95116904D01*
X21039285Y-95116904D01*
X21115476Y-95155000D01*
X21153571Y-95193095D01*
X21191666Y-95269285D01*
X21191666Y-95383571D01*
X21153571Y-95459761D01*
X21115476Y-95497857D01*
X21039285Y-95535952D01*
X20734523Y-95535952D01*
X21420238Y-95116904D02*
X21877380Y-95116904D01*
X21648809Y-95916904D02*
X21648809Y-95116904D01*
X18323095Y-74073095D02*
X18704047Y-73806428D01*
X18323095Y-73615952D02*
X19123095Y-73615952D01*
X19123095Y-73920714D01*
X19085000Y-73996904D01*
X19046904Y-74035000D01*
X18970714Y-74073095D01*
X18856428Y-74073095D01*
X18780238Y-74035000D01*
X18742142Y-73996904D01*
X18704047Y-73920714D01*
X18704047Y-73615952D01*
X18742142Y-74415952D02*
X18742142Y-74682619D01*
X18323095Y-74796904D02*
X18323095Y-74415952D01*
X19123095Y-74415952D01*
X19123095Y-74796904D01*
X18361190Y-75101666D02*
X18323095Y-75215952D01*
X18323095Y-75406428D01*
X18361190Y-75482619D01*
X18399285Y-75520714D01*
X18475476Y-75558809D01*
X18551666Y-75558809D01*
X18627857Y-75520714D01*
X18665952Y-75482619D01*
X18704047Y-75406428D01*
X18742142Y-75254047D01*
X18780238Y-75177857D01*
X18818333Y-75139761D01*
X18894523Y-75101666D01*
X18970714Y-75101666D01*
X19046904Y-75139761D01*
X19085000Y-75177857D01*
X19123095Y-75254047D01*
X19123095Y-75444523D01*
X19085000Y-75558809D01*
X18742142Y-75901666D02*
X18742142Y-76168333D01*
X18323095Y-76282619D02*
X18323095Y-75901666D01*
X19123095Y-75901666D01*
X19123095Y-76282619D01*
X19123095Y-76511190D02*
X19123095Y-76968333D01*
X18323095Y-76739761D02*
X19123095Y-76739761D01*
X18156190Y-84534523D02*
X18118095Y-84648809D01*
X18118095Y-84839285D01*
X18156190Y-84915476D01*
X18194285Y-84953571D01*
X18270476Y-84991666D01*
X18346666Y-84991666D01*
X18422857Y-84953571D01*
X18460952Y-84915476D01*
X18499047Y-84839285D01*
X18537142Y-84686904D01*
X18575238Y-84610714D01*
X18613333Y-84572619D01*
X18689523Y-84534523D01*
X18765714Y-84534523D01*
X18841904Y-84572619D01*
X18880000Y-84610714D01*
X18918095Y-84686904D01*
X18918095Y-84877380D01*
X18880000Y-84991666D01*
X18537142Y-85334523D02*
X18537142Y-85601190D01*
X18118095Y-85715476D02*
X18118095Y-85334523D01*
X18918095Y-85334523D01*
X18918095Y-85715476D01*
X18918095Y-85944047D02*
X18918095Y-86401190D01*
X18118095Y-86172619D02*
X18918095Y-86172619D01*
X18918095Y-86553571D02*
X18918095Y-87010714D01*
X18118095Y-86782142D02*
X18918095Y-86782142D01*
X18118095Y-87277380D02*
X18918095Y-87277380D01*
X18118095Y-87658333D02*
X18918095Y-87658333D01*
X18118095Y-88115476D01*
X18918095Y-88115476D01*
X18880000Y-88915476D02*
X18918095Y-88839285D01*
X18918095Y-88725000D01*
X18880000Y-88610714D01*
X18803809Y-88534523D01*
X18727619Y-88496428D01*
X18575238Y-88458333D01*
X18460952Y-88458333D01*
X18308571Y-88496428D01*
X18232380Y-88534523D01*
X18156190Y-88610714D01*
X18118095Y-88725000D01*
X18118095Y-88801190D01*
X18156190Y-88915476D01*
X18194285Y-88953571D01*
X18460952Y-88953571D01*
X18460952Y-88801190D01*
X18156190Y-89258333D02*
X18118095Y-89372619D01*
X18118095Y-89563095D01*
X18156190Y-89639285D01*
X18194285Y-89677380D01*
X18270476Y-89715476D01*
X18346666Y-89715476D01*
X18422857Y-89677380D01*
X18460952Y-89639285D01*
X18499047Y-89563095D01*
X18537142Y-89410714D01*
X18575238Y-89334523D01*
X18613333Y-89296428D01*
X18689523Y-89258333D01*
X18765714Y-89258333D01*
X18841904Y-89296428D01*
X18880000Y-89334523D01*
X18918095Y-89410714D01*
X18918095Y-89601190D01*
X18880000Y-89715476D01*
D11*
X112455000Y-110361428D02*
X112597857Y-110504285D01*
X112455000Y-110647142D01*
X112312142Y-110504285D01*
X112455000Y-110361428D01*
X112455000Y-110647142D01*
X75090000Y-110102428D02*
X75232857Y-110245285D01*
X75090000Y-110388142D01*
X74947142Y-110245285D01*
X75090000Y-110102428D01*
X75090000Y-110388142D01*
X89145000Y-72841428D02*
X89287857Y-72984285D01*
X89145000Y-73127142D01*
X89002142Y-72984285D01*
X89145000Y-72841428D01*
X89145000Y-73127142D01*
X84035000Y-87666428D02*
X84177857Y-87809285D01*
X84035000Y-87952142D01*
X83892142Y-87809285D01*
X84035000Y-87666428D01*
X84035000Y-87952142D01*
X102330000Y-46766428D02*
X102472857Y-46909285D01*
X102330000Y-47052142D01*
X102187142Y-46909285D01*
X102330000Y-46766428D01*
X102330000Y-47052142D01*
X88035000Y-41691428D02*
X88177857Y-41834285D01*
X88035000Y-41977142D01*
X87892142Y-41834285D01*
X88035000Y-41691428D01*
X88035000Y-41977142D01*
X75215000Y-49601428D02*
X75357857Y-49744285D01*
X75215000Y-49887142D01*
X75072142Y-49744285D01*
X75215000Y-49601428D01*
X75215000Y-49887142D01*
X59755000Y-38866428D02*
X59897857Y-39009285D01*
X59755000Y-39152142D01*
X59612142Y-39009285D01*
X59755000Y-38866428D01*
X59755000Y-39152142D01*
X53480000Y-80901428D02*
X53622857Y-81044285D01*
X53480000Y-81187142D01*
X53337142Y-81044285D01*
X53480000Y-80901428D01*
X53480000Y-81187142D01*
X20545000Y-61381428D02*
X20687857Y-61524285D01*
X20545000Y-61667142D01*
X20402142Y-61524285D01*
X20545000Y-61381428D01*
X20545000Y-61667142D01*
X22615000Y-69416428D02*
X22757857Y-69559285D01*
X22615000Y-69702142D01*
X22472142Y-69559285D01*
X22615000Y-69416428D01*
X22615000Y-69702142D01*
X24300000Y-80906428D02*
X24442857Y-81049285D01*
X24300000Y-81192142D01*
X24157142Y-81049285D01*
X24300000Y-80906428D01*
X24300000Y-81192142D01*
X43510000Y-122941428D02*
X43652857Y-123084285D01*
X43510000Y-123227142D01*
X43367142Y-123084285D01*
X43510000Y-122941428D01*
X43510000Y-123227142D01*
X40850000Y-159491428D02*
X40992857Y-159634285D01*
X40850000Y-159777142D01*
X40707142Y-159634285D01*
X40850000Y-159491428D01*
X40850000Y-159777142D01*
X54035000Y-159431428D02*
X54177857Y-159574285D01*
X54035000Y-159717142D01*
X53892142Y-159574285D01*
X54035000Y-159431428D01*
X54035000Y-159717142D01*
X58690000Y-136151428D02*
X58832857Y-136294285D01*
X58690000Y-136437142D01*
X58547142Y-136294285D01*
X58690000Y-136151428D01*
X58690000Y-136437142D01*
X35962142Y-78721071D02*
X35962142Y-79935357D01*
X36033571Y-80078214D01*
X36105000Y-80149642D01*
X36247857Y-80221071D01*
X36533571Y-80221071D01*
X36676428Y-80149642D01*
X36747857Y-80078214D01*
X36819285Y-79935357D01*
X36819285Y-78721071D01*
X37462142Y-80149642D02*
X37676428Y-80221071D01*
X38033571Y-80221071D01*
X38176428Y-80149642D01*
X38247857Y-80078214D01*
X38319285Y-79935357D01*
X38319285Y-79792500D01*
X38247857Y-79649642D01*
X38176428Y-79578214D01*
X38033571Y-79506785D01*
X37747857Y-79435357D01*
X37605000Y-79363928D01*
X37533571Y-79292500D01*
X37462142Y-79149642D01*
X37462142Y-79006785D01*
X37533571Y-78863928D01*
X37605000Y-78792500D01*
X37747857Y-78721071D01*
X38105000Y-78721071D01*
X38319285Y-78792500D01*
X39462142Y-79435357D02*
X39676428Y-79506785D01*
X39747857Y-79578214D01*
X39819285Y-79721071D01*
X39819285Y-79935357D01*
X39747857Y-80078214D01*
X39676428Y-80149642D01*
X39533571Y-80221071D01*
X38962142Y-80221071D01*
X38962142Y-78721071D01*
X39462142Y-78721071D01*
X39605000Y-78792500D01*
X39676428Y-78863928D01*
X39747857Y-79006785D01*
X39747857Y-79149642D01*
X39676428Y-79292500D01*
X39605000Y-79363928D01*
X39462142Y-79435357D01*
X38962142Y-79435357D01*
X36712142Y-81278928D02*
X36997857Y-81064642D01*
X37283571Y-81278928D01*
X37569285Y-81278928D02*
X37855000Y-81064642D01*
X38140714Y-81278928D01*
X38426428Y-81278928D02*
X38712142Y-81064642D01*
X38997857Y-81278928D01*
D10*
X31952759Y-85389670D02*
X31952759Y-84389670D01*
X32524188Y-85389670D01*
X32524188Y-84389670D01*
X33000378Y-84389670D02*
X33000378Y-85199194D01*
X33047997Y-85294432D01*
X33095617Y-85342051D01*
X33190855Y-85389670D01*
X33381331Y-85389670D01*
X33476569Y-85342051D01*
X33524188Y-85294432D01*
X33571807Y-85199194D01*
X33571807Y-84389670D01*
X34619426Y-85294432D02*
X34571807Y-85342051D01*
X34428950Y-85389670D01*
X34333712Y-85389670D01*
X34190855Y-85342051D01*
X34095617Y-85246813D01*
X34047997Y-85151575D01*
X34000378Y-84961099D01*
X34000378Y-84818242D01*
X34047997Y-84627766D01*
X34095617Y-84532528D01*
X34190855Y-84437290D01*
X34333712Y-84389670D01*
X34428950Y-84389670D01*
X34571807Y-84437290D01*
X34619426Y-84484909D01*
X35524188Y-85389670D02*
X35047997Y-85389670D01*
X35047997Y-84389670D01*
X35857521Y-84865861D02*
X36190855Y-84865861D01*
X36333712Y-85389670D02*
X35857521Y-85389670D01*
X35857521Y-84389670D01*
X36333712Y-84389670D01*
X36952759Y-84389670D02*
X37143236Y-84389670D01*
X37238474Y-84437290D01*
X37333712Y-84532528D01*
X37381331Y-84723004D01*
X37381331Y-85056337D01*
X37333712Y-85246813D01*
X37238474Y-85342051D01*
X37143236Y-85389670D01*
X36952759Y-85389670D01*
X36857521Y-85342051D01*
X36762283Y-85246813D01*
X36714664Y-85056337D01*
X36714664Y-84723004D01*
X36762283Y-84532528D01*
X36857521Y-84437290D01*
X36952759Y-84389670D01*
X37809902Y-85008718D02*
X38571807Y-85008718D01*
X39524188Y-85389670D02*
X39047997Y-85389670D01*
X39047997Y-84389670D01*
X40286093Y-84723004D02*
X40286093Y-85389670D01*
X40047997Y-84342051D02*
X39809902Y-85056337D01*
X40428950Y-85056337D01*
X40714664Y-84389670D02*
X41333712Y-84389670D01*
X41000378Y-84770623D01*
X41143236Y-84770623D01*
X41238474Y-84818242D01*
X41286093Y-84865861D01*
X41333712Y-84961099D01*
X41333712Y-85199194D01*
X41286093Y-85294432D01*
X41238474Y-85342051D01*
X41143236Y-85389670D01*
X40857521Y-85389670D01*
X40762283Y-85342051D01*
X40714664Y-85294432D01*
X41714664Y-84484909D02*
X41762283Y-84437290D01*
X41857521Y-84389670D01*
X42095617Y-84389670D01*
X42190855Y-84437290D01*
X42238474Y-84484909D01*
X42286093Y-84580147D01*
X42286093Y-84675385D01*
X42238474Y-84818242D01*
X41667045Y-85389670D01*
X42286093Y-85389670D01*
X42714664Y-85389670D02*
X42714664Y-84389670D01*
X43286093Y-85389670D02*
X42857521Y-84818242D01*
X43286093Y-84389670D02*
X42714664Y-84961099D01*
X44286093Y-85294432D02*
X44238474Y-85342051D01*
X44095617Y-85389670D01*
X44000378Y-85389670D01*
X43857521Y-85342051D01*
X43762283Y-85246813D01*
X43714664Y-85151575D01*
X43667045Y-84961099D01*
X43667045Y-84818242D01*
X43714664Y-84627766D01*
X43762283Y-84532528D01*
X43857521Y-84437290D01*
X44000378Y-84389670D01*
X44095617Y-84389670D01*
X44238474Y-84437290D01*
X44286093Y-84484909D01*
D12*
X23296428Y-28743571D02*
X22582142Y-28743571D01*
X22582142Y-27243571D01*
X23796428Y-28743571D02*
X23796428Y-27243571D01*
X23796428Y-27957857D02*
X24653571Y-27957857D01*
X24653571Y-28743571D02*
X24653571Y-27243571D01*
X26225000Y-28743571D02*
X25725000Y-28029285D01*
X25367857Y-28743571D02*
X25367857Y-27243571D01*
X25939285Y-27243571D01*
X26082142Y-27315000D01*
X26153571Y-27386428D01*
X26225000Y-27529285D01*
X26225000Y-27743571D01*
X26153571Y-27886428D01*
X26082142Y-27957857D01*
X25939285Y-28029285D01*
X25367857Y-28029285D01*
X27939285Y-28672142D02*
X28153571Y-28743571D01*
X28510714Y-28743571D01*
X28653571Y-28672142D01*
X28725000Y-28600714D01*
X28796428Y-28457857D01*
X28796428Y-28315000D01*
X28725000Y-28172142D01*
X28653571Y-28100714D01*
X28510714Y-28029285D01*
X28225000Y-27957857D01*
X28082142Y-27886428D01*
X28010714Y-27815000D01*
X27939285Y-27672142D01*
X27939285Y-27529285D01*
X28010714Y-27386428D01*
X28082142Y-27315000D01*
X28225000Y-27243571D01*
X28582142Y-27243571D01*
X28796428Y-27315000D01*
X29653571Y-28743571D02*
X29510714Y-28672142D01*
X29439285Y-28600714D01*
X29367857Y-28457857D01*
X29367857Y-28029285D01*
X29439285Y-27886428D01*
X29510714Y-27815000D01*
X29653571Y-27743571D01*
X29867857Y-27743571D01*
X30010714Y-27815000D01*
X30082142Y-27886428D01*
X30153571Y-28029285D01*
X30153571Y-28457857D01*
X30082142Y-28600714D01*
X30010714Y-28672142D01*
X29867857Y-28743571D01*
X29653571Y-28743571D01*
X31010714Y-28743571D02*
X30867857Y-28672142D01*
X30796428Y-28529285D01*
X30796428Y-27243571D01*
X32225000Y-28743571D02*
X32225000Y-27957857D01*
X32153571Y-27815000D01*
X32010714Y-27743571D01*
X31725000Y-27743571D01*
X31582142Y-27815000D01*
X32225000Y-28672142D02*
X32082142Y-28743571D01*
X31725000Y-28743571D01*
X31582142Y-28672142D01*
X31510714Y-28529285D01*
X31510714Y-28386428D01*
X31582142Y-28243571D01*
X31725000Y-28172142D01*
X32082142Y-28172142D01*
X32225000Y-28100714D01*
X32939285Y-28743571D02*
X32939285Y-27743571D01*
X32939285Y-28029285D02*
X33010714Y-27886428D01*
X33082142Y-27815000D01*
X33225000Y-27743571D01*
X33367857Y-27743571D01*
X22510714Y-31087142D02*
X22725000Y-31158571D01*
X23082142Y-31158571D01*
X23225000Y-31087142D01*
X23296428Y-31015714D01*
X23367857Y-30872857D01*
X23367857Y-30730000D01*
X23296428Y-30587142D01*
X23225000Y-30515714D01*
X23082142Y-30444285D01*
X22796428Y-30372857D01*
X22653571Y-30301428D01*
X22582142Y-30230000D01*
X22510714Y-30087142D01*
X22510714Y-29944285D01*
X22582142Y-29801428D01*
X22653571Y-29730000D01*
X22796428Y-29658571D01*
X23153571Y-29658571D01*
X23367857Y-29730000D01*
X24653571Y-30158571D02*
X24653571Y-31158571D01*
X24010714Y-30158571D02*
X24010714Y-30944285D01*
X24082142Y-31087142D01*
X24225000Y-31158571D01*
X24439285Y-31158571D01*
X24582142Y-31087142D01*
X24653571Y-31015714D01*
X25367857Y-30158571D02*
X25367857Y-31158571D01*
X25367857Y-30301428D02*
X25439285Y-30230000D01*
X25582142Y-30158571D01*
X25796428Y-30158571D01*
X25939285Y-30230000D01*
X26010714Y-30372857D01*
X26010714Y-31158571D01*
X26653571Y-31087142D02*
X26796428Y-31158571D01*
X27082142Y-31158571D01*
X27225000Y-31087142D01*
X27296428Y-30944285D01*
X27296428Y-30872857D01*
X27225000Y-30730000D01*
X27082142Y-30658571D01*
X26867857Y-30658571D01*
X26725000Y-30587142D01*
X26653571Y-30444285D01*
X26653571Y-30372857D01*
X26725000Y-30230000D01*
X26867857Y-30158571D01*
X27082142Y-30158571D01*
X27225000Y-30230000D01*
X28582142Y-31087142D02*
X28439285Y-31158571D01*
X28153571Y-31158571D01*
X28010714Y-31087142D01*
X27939285Y-31015714D01*
X27867857Y-30872857D01*
X27867857Y-30444285D01*
X27939285Y-30301428D01*
X28010714Y-30230000D01*
X28153571Y-30158571D01*
X28439285Y-30158571D01*
X28582142Y-30230000D01*
X29867857Y-31158571D02*
X29867857Y-30372857D01*
X29796428Y-30230000D01*
X29653571Y-30158571D01*
X29367857Y-30158571D01*
X29225000Y-30230000D01*
X29867857Y-31087142D02*
X29725000Y-31158571D01*
X29367857Y-31158571D01*
X29225000Y-31087142D01*
X29153571Y-30944285D01*
X29153571Y-30801428D01*
X29225000Y-30658571D01*
X29367857Y-30587142D01*
X29725000Y-30587142D01*
X29867857Y-30515714D01*
X30367857Y-30158571D02*
X30939285Y-30158571D01*
X30582142Y-29658571D02*
X30582142Y-30944285D01*
X30653571Y-31087142D01*
X30796428Y-31158571D01*
X30939285Y-31158571D01*
X31225000Y-30158571D02*
X31796428Y-30158571D01*
X31439285Y-29658571D02*
X31439285Y-30944285D01*
X31510714Y-31087142D01*
X31653571Y-31158571D01*
X31796428Y-31158571D01*
X32867857Y-31087142D02*
X32725000Y-31158571D01*
X32439285Y-31158571D01*
X32296428Y-31087142D01*
X32225000Y-30944285D01*
X32225000Y-30372857D01*
X32296428Y-30230000D01*
X32439285Y-30158571D01*
X32725000Y-30158571D01*
X32867857Y-30230000D01*
X32939285Y-30372857D01*
X32939285Y-30515714D01*
X32225000Y-30658571D01*
X33582142Y-31158571D02*
X33582142Y-30158571D01*
X33582142Y-30444285D02*
X33653571Y-30301428D01*
X33725000Y-30230000D01*
X33867857Y-30158571D01*
X34010714Y-30158571D01*
X35653571Y-31158571D02*
X35653571Y-29658571D01*
X36153571Y-30730000D01*
X36653571Y-29658571D01*
X36653571Y-31158571D01*
X37367857Y-31158571D02*
X37367857Y-29658571D01*
X37939285Y-29658571D01*
X38082142Y-29730000D01*
X38153571Y-29801428D01*
X38225000Y-29944285D01*
X38225000Y-30158571D01*
X38153571Y-30301428D01*
X38082142Y-30372857D01*
X37939285Y-30444285D01*
X37367857Y-30444285D01*
X38867857Y-31158571D02*
X38867857Y-29658571D01*
X39439285Y-29658571D01*
X39582142Y-29730000D01*
X39653571Y-29801428D01*
X39725000Y-29944285D01*
X39725000Y-30158571D01*
X39653571Y-30301428D01*
X39582142Y-30372857D01*
X39439285Y-30444285D01*
X38867857Y-30444285D01*
X40153571Y-29658571D02*
X41010714Y-29658571D01*
X40582142Y-31158571D02*
X40582142Y-29658571D01*
X22439285Y-32573571D02*
X22796428Y-33573571D01*
X23153571Y-32573571D01*
X24510714Y-33573571D02*
X23653571Y-33573571D01*
X24082142Y-33573571D02*
X24082142Y-32073571D01*
X23939285Y-32287857D01*
X23796428Y-32430714D01*
X23653571Y-32502142D01*
X25153571Y-33430714D02*
X25225000Y-33502142D01*
X25153571Y-33573571D01*
X25082142Y-33502142D01*
X25153571Y-33430714D01*
X25153571Y-33573571D01*
X26510714Y-32573571D02*
X26510714Y-33573571D01*
X26153571Y-32002142D02*
X25796428Y-33073571D01*
X26725000Y-33073571D01*
X27296428Y-33430714D02*
X27367857Y-33502142D01*
X27296428Y-33573571D01*
X27225000Y-33502142D01*
X27296428Y-33430714D01*
X27296428Y-33573571D01*
X28296428Y-32073571D02*
X28439285Y-32073571D01*
X28582142Y-32145000D01*
X28653571Y-32216428D01*
X28725000Y-32359285D01*
X28796428Y-32645000D01*
X28796428Y-33002142D01*
X28725000Y-33287857D01*
X28653571Y-33430714D01*
X28582142Y-33502142D01*
X28439285Y-33573571D01*
X28296428Y-33573571D01*
X28153571Y-33502142D01*
X28082142Y-33430714D01*
X28010714Y-33287857D01*
X27939285Y-33002142D01*
X27939285Y-32645000D01*
X28010714Y-32359285D01*
X28082142Y-32216428D01*
X28153571Y-32145000D01*
X28296428Y-32073571D01*
X22510714Y-35917142D02*
X22725000Y-35988571D01*
X23082142Y-35988571D01*
X23225000Y-35917142D01*
X23296428Y-35845714D01*
X23367857Y-35702857D01*
X23367857Y-35560000D01*
X23296428Y-35417142D01*
X23225000Y-35345714D01*
X23082142Y-35274285D01*
X22796428Y-35202857D01*
X22653571Y-35131428D01*
X22582142Y-35060000D01*
X22510714Y-34917142D01*
X22510714Y-34774285D01*
X22582142Y-34631428D01*
X22653571Y-34560000D01*
X22796428Y-34488571D01*
X23153571Y-34488571D01*
X23367857Y-34560000D01*
X24010714Y-34988571D02*
X24010714Y-36488571D01*
X24010714Y-35060000D02*
X24153571Y-34988571D01*
X24439285Y-34988571D01*
X24582142Y-35060000D01*
X24653571Y-35131428D01*
X24725000Y-35274285D01*
X24725000Y-35702857D01*
X24653571Y-35845714D01*
X24582142Y-35917142D01*
X24439285Y-35988571D01*
X24153571Y-35988571D01*
X24010714Y-35917142D01*
X25367857Y-35988571D02*
X25367857Y-34988571D01*
X25367857Y-35274285D02*
X25439285Y-35131428D01*
X25510714Y-35060000D01*
X25653571Y-34988571D01*
X25796428Y-34988571D01*
X26296428Y-35988571D02*
X26296428Y-34988571D01*
X26296428Y-34488571D02*
X26225000Y-34560000D01*
X26296428Y-34631428D01*
X26367857Y-34560000D01*
X26296428Y-34488571D01*
X26296428Y-34631428D01*
X27010714Y-34988571D02*
X27010714Y-35988571D01*
X27010714Y-35131428D02*
X27082142Y-35060000D01*
X27225000Y-34988571D01*
X27439285Y-34988571D01*
X27582142Y-35060000D01*
X27653571Y-35202857D01*
X27653571Y-35988571D01*
X29010714Y-34988571D02*
X29010714Y-36202857D01*
X28939285Y-36345714D01*
X28867857Y-36417142D01*
X28725000Y-36488571D01*
X28510714Y-36488571D01*
X28367857Y-36417142D01*
X29010714Y-35917142D02*
X28867857Y-35988571D01*
X28582142Y-35988571D01*
X28439285Y-35917142D01*
X28367857Y-35845714D01*
X28296428Y-35702857D01*
X28296428Y-35274285D01*
X28367857Y-35131428D01*
X28439285Y-35060000D01*
X28582142Y-34988571D01*
X28867857Y-34988571D01*
X29010714Y-35060000D01*
X30796428Y-34631428D02*
X30867857Y-34560000D01*
X31010714Y-34488571D01*
X31367857Y-34488571D01*
X31510714Y-34560000D01*
X31582142Y-34631428D01*
X31653571Y-34774285D01*
X31653571Y-34917142D01*
X31582142Y-35131428D01*
X30725000Y-35988571D01*
X31653571Y-35988571D01*
X32582142Y-34488571D02*
X32725000Y-34488571D01*
X32867857Y-34560000D01*
X32939285Y-34631428D01*
X33010714Y-34774285D01*
X33082142Y-35060000D01*
X33082142Y-35417142D01*
X33010714Y-35702857D01*
X32939285Y-35845714D01*
X32867857Y-35917142D01*
X32725000Y-35988571D01*
X32582142Y-35988571D01*
X32439285Y-35917142D01*
X32367857Y-35845714D01*
X32296428Y-35702857D01*
X32225000Y-35417142D01*
X32225000Y-35060000D01*
X32296428Y-34774285D01*
X32367857Y-34631428D01*
X32439285Y-34560000D01*
X32582142Y-34488571D01*
X33653571Y-34631428D02*
X33725000Y-34560000D01*
X33867857Y-34488571D01*
X34225000Y-34488571D01*
X34367857Y-34560000D01*
X34439285Y-34631428D01*
X34510714Y-34774285D01*
X34510714Y-34917142D01*
X34439285Y-35131428D01*
X33582142Y-35988571D01*
X34510714Y-35988571D01*
X35082142Y-34631428D02*
X35153571Y-34560000D01*
X35296428Y-34488571D01*
X35653571Y-34488571D01*
X35796428Y-34560000D01*
X35867857Y-34631428D01*
X35939285Y-34774285D01*
X35939285Y-34917142D01*
X35867857Y-35131428D01*
X35010714Y-35988571D01*
X35939285Y-35988571D01*
X22867857Y-37689285D02*
X22867857Y-38403571D01*
X22367857Y-36903571D02*
X22867857Y-37689285D01*
X23367857Y-36903571D01*
X24082142Y-38403571D02*
X23939285Y-38332142D01*
X23867857Y-38260714D01*
X23796428Y-38117857D01*
X23796428Y-37689285D01*
X23867857Y-37546428D01*
X23939285Y-37475000D01*
X24082142Y-37403571D01*
X24296428Y-37403571D01*
X24439285Y-37475000D01*
X24510714Y-37546428D01*
X24582142Y-37689285D01*
X24582142Y-38117857D01*
X24510714Y-38260714D01*
X24439285Y-38332142D01*
X24296428Y-38403571D01*
X24082142Y-38403571D01*
X25867857Y-37403571D02*
X25867857Y-38403571D01*
X25225000Y-37403571D02*
X25225000Y-38189285D01*
X25296428Y-38332142D01*
X25439285Y-38403571D01*
X25653571Y-38403571D01*
X25796428Y-38332142D01*
X25867857Y-38260714D01*
X26510714Y-38332142D02*
X26653571Y-38403571D01*
X26939285Y-38403571D01*
X27082142Y-38332142D01*
X27153571Y-38189285D01*
X27153571Y-38117857D01*
X27082142Y-37975000D01*
X26939285Y-37903571D01*
X26725000Y-37903571D01*
X26582142Y-37832142D01*
X26510714Y-37689285D01*
X26510714Y-37617857D01*
X26582142Y-37475000D01*
X26725000Y-37403571D01*
X26939285Y-37403571D01*
X27082142Y-37475000D01*
X27725000Y-38332142D02*
X27867857Y-38403571D01*
X28153571Y-38403571D01*
X28296428Y-38332142D01*
X28367857Y-38189285D01*
X28367857Y-38117857D01*
X28296428Y-37975000D01*
X28153571Y-37903571D01*
X27939285Y-37903571D01*
X27796428Y-37832142D01*
X27725000Y-37689285D01*
X27725000Y-37617857D01*
X27796428Y-37475000D01*
X27939285Y-37403571D01*
X28153571Y-37403571D01*
X28296428Y-37475000D01*
X29582142Y-38332142D02*
X29439285Y-38403571D01*
X29153571Y-38403571D01*
X29010714Y-38332142D01*
X28939285Y-38189285D01*
X28939285Y-37617857D01*
X29010714Y-37475000D01*
X29153571Y-37403571D01*
X29439285Y-37403571D01*
X29582142Y-37475000D01*
X29653571Y-37617857D01*
X29653571Y-37760714D01*
X28939285Y-37903571D01*
X30082142Y-37403571D02*
X30653571Y-37403571D01*
X30296428Y-38403571D02*
X30296428Y-37117857D01*
X30367857Y-36975000D01*
X30510714Y-36903571D01*
X30653571Y-36903571D01*
X32296428Y-37617857D02*
X32796428Y-37617857D01*
X33010714Y-38403571D02*
X32296428Y-38403571D01*
X32296428Y-36903571D01*
X33010714Y-36903571D01*
X33867857Y-38403571D02*
X33725000Y-38332142D01*
X33653571Y-38189285D01*
X33653571Y-36903571D01*
X34367857Y-38332142D02*
X34510714Y-38403571D01*
X34796428Y-38403571D01*
X34939285Y-38332142D01*
X35010714Y-38189285D01*
X35010714Y-38117857D01*
X34939285Y-37975000D01*
X34796428Y-37903571D01*
X34582142Y-37903571D01*
X34439285Y-37832142D01*
X34367857Y-37689285D01*
X34367857Y-37617857D01*
X34439285Y-37475000D01*
X34582142Y-37403571D01*
X34796428Y-37403571D01*
X34939285Y-37475000D01*
X35653571Y-38403571D02*
X35653571Y-36903571D01*
X36296428Y-38403571D02*
X36296428Y-37617857D01*
X36225000Y-37475000D01*
X36082142Y-37403571D01*
X35867857Y-37403571D01*
X35725000Y-37475000D01*
X35653571Y-37546428D01*
X37582142Y-38332142D02*
X37439285Y-38403571D01*
X37153571Y-38403571D01*
X37010714Y-38332142D01*
X36939285Y-38189285D01*
X36939285Y-37617857D01*
X37010714Y-37475000D01*
X37153571Y-37403571D01*
X37439285Y-37403571D01*
X37582142Y-37475000D01*
X37653571Y-37617857D01*
X37653571Y-37760714D01*
X36939285Y-37903571D01*
X38296428Y-38403571D02*
X38296428Y-37403571D01*
X38296428Y-37689285D02*
X38367857Y-37546428D01*
X38439285Y-37475000D01*
X38582142Y-37403571D01*
X38725000Y-37403571D01*
X39225000Y-38403571D02*
X39225000Y-37403571D01*
X39225000Y-36903571D02*
X39153571Y-36975000D01*
X39225000Y-37046428D01*
X39296428Y-36975000D01*
X39225000Y-36903571D01*
X39225000Y-37046428D01*
X39725000Y-37403571D02*
X40296428Y-37403571D01*
X39939285Y-38403571D02*
X39939285Y-37117857D01*
X40010714Y-36975000D01*
X40153571Y-36903571D01*
X40296428Y-36903571D01*
X23367857Y-39390000D02*
X23225000Y-39318571D01*
X23010714Y-39318571D01*
X22796428Y-39390000D01*
X22653571Y-39532857D01*
X22582142Y-39675714D01*
X22510714Y-39961428D01*
X22510714Y-40175714D01*
X22582142Y-40461428D01*
X22653571Y-40604285D01*
X22796428Y-40747142D01*
X23010714Y-40818571D01*
X23153571Y-40818571D01*
X23367857Y-40747142D01*
X23439285Y-40675714D01*
X23439285Y-40175714D01*
X23153571Y-40175714D01*
X24725000Y-40818571D02*
X24725000Y-40032857D01*
X24653571Y-39890000D01*
X24510714Y-39818571D01*
X24225000Y-39818571D01*
X24082142Y-39890000D01*
X24725000Y-40747142D02*
X24582142Y-40818571D01*
X24225000Y-40818571D01*
X24082142Y-40747142D01*
X24010714Y-40604285D01*
X24010714Y-40461428D01*
X24082142Y-40318571D01*
X24225000Y-40247142D01*
X24582142Y-40247142D01*
X24725000Y-40175714D01*
X25439285Y-40818571D02*
X25439285Y-39818571D01*
X25439285Y-40104285D02*
X25510714Y-39961428D01*
X25582142Y-39890000D01*
X25725000Y-39818571D01*
X25867857Y-39818571D01*
X26225000Y-39818571D02*
X26582142Y-40818571D01*
X26939285Y-39818571D02*
X26582142Y-40818571D01*
X26439285Y-41175714D01*
X26367857Y-41247142D01*
X26225000Y-41318571D01*
X28653571Y-40818571D02*
X28653571Y-39318571D01*
X28653571Y-40032857D02*
X29510714Y-40032857D01*
X29510714Y-40818571D02*
X29510714Y-39318571D01*
X30867857Y-40818571D02*
X30867857Y-40032857D01*
X30796428Y-39890000D01*
X30653571Y-39818571D01*
X30367857Y-39818571D01*
X30225000Y-39890000D01*
X30867857Y-40747142D02*
X30725000Y-40818571D01*
X30367857Y-40818571D01*
X30225000Y-40747142D01*
X30153571Y-40604285D01*
X30153571Y-40461428D01*
X30225000Y-40318571D01*
X30367857Y-40247142D01*
X30725000Y-40247142D01*
X30867857Y-40175714D01*
X31796428Y-40818571D02*
X31653571Y-40747142D01*
X31582142Y-40604285D01*
X31582142Y-39318571D01*
X32582142Y-40818571D02*
X32439285Y-40747142D01*
X32367857Y-40604285D01*
X32367857Y-39318571D01*
X33367857Y-40818571D02*
X33225000Y-40747142D01*
X33153571Y-40675714D01*
X33082142Y-40532857D01*
X33082142Y-40104285D01*
X33153571Y-39961428D01*
X33225000Y-39890000D01*
X33367857Y-39818571D01*
X33582142Y-39818571D01*
X33725000Y-39890000D01*
X33796428Y-39961428D01*
X33867857Y-40104285D01*
X33867857Y-40532857D01*
X33796428Y-40675714D01*
X33725000Y-40747142D01*
X33582142Y-40818571D01*
X33367857Y-40818571D01*
X35153571Y-40747142D02*
X35010714Y-40818571D01*
X34725000Y-40818571D01*
X34582142Y-40747142D01*
X34510714Y-40675714D01*
X34439285Y-40532857D01*
X34439285Y-40104285D01*
X34510714Y-39961428D01*
X34582142Y-39890000D01*
X34725000Y-39818571D01*
X35010714Y-39818571D01*
X35153571Y-39890000D01*
X35796428Y-40818571D02*
X35796428Y-39318571D01*
X35939285Y-40247142D02*
X36367857Y-40818571D01*
X36367857Y-39818571D02*
X35796428Y-40390000D01*
X22582142Y-43233571D02*
X22582142Y-41733571D01*
X23082142Y-42805000D01*
X23582142Y-41733571D01*
X23582142Y-43233571D01*
X24939285Y-43233571D02*
X24939285Y-42447857D01*
X24867857Y-42305000D01*
X24725000Y-42233571D01*
X24439285Y-42233571D01*
X24296428Y-42305000D01*
X24939285Y-43162142D02*
X24796428Y-43233571D01*
X24439285Y-43233571D01*
X24296428Y-43162142D01*
X24225000Y-43019285D01*
X24225000Y-42876428D01*
X24296428Y-42733571D01*
X24439285Y-42662142D01*
X24796428Y-42662142D01*
X24939285Y-42590714D01*
X25439285Y-42233571D02*
X26010714Y-42233571D01*
X25653571Y-41733571D02*
X25653571Y-43019285D01*
X25725000Y-43162142D01*
X25867857Y-43233571D01*
X26010714Y-43233571D01*
X26296428Y-42233571D02*
X26867857Y-42233571D01*
X26510714Y-41733571D02*
X26510714Y-43019285D01*
X26582142Y-43162142D01*
X26725000Y-43233571D01*
X26867857Y-43233571D01*
X27367857Y-43233571D02*
X27367857Y-41733571D01*
X28010714Y-43233571D02*
X28010714Y-42447857D01*
X27939285Y-42305000D01*
X27796428Y-42233571D01*
X27582142Y-42233571D01*
X27439285Y-42305000D01*
X27367857Y-42376428D01*
X29296428Y-43162142D02*
X29153571Y-43233571D01*
X28867857Y-43233571D01*
X28725000Y-43162142D01*
X28653571Y-43019285D01*
X28653571Y-42447857D01*
X28725000Y-42305000D01*
X28867857Y-42233571D01*
X29153571Y-42233571D01*
X29296428Y-42305000D01*
X29367857Y-42447857D01*
X29367857Y-42590714D01*
X28653571Y-42733571D01*
X29867857Y-42233571D02*
X30153571Y-43233571D01*
X30439285Y-42519285D01*
X30725000Y-43233571D01*
X31010714Y-42233571D01*
X33010714Y-42519285D02*
X33010714Y-43233571D01*
X32510714Y-41733571D02*
X33010714Y-42519285D01*
X33510714Y-41733571D01*
X34653571Y-42233571D02*
X34653571Y-43233571D01*
X34010714Y-42233571D02*
X34010714Y-43019285D01*
X34082142Y-43162142D01*
X34225000Y-43233571D01*
X34439285Y-43233571D01*
X34582142Y-43162142D01*
X34653571Y-43090714D01*
D10*
X100887619Y-161208333D02*
X101268571Y-161208333D01*
X100811428Y-161436904D02*
X101078095Y-160636904D01*
X101344761Y-161436904D01*
X101611428Y-161436904D02*
X101611428Y-160903571D01*
X101611428Y-161055952D02*
X101649523Y-160979761D01*
X101687619Y-160941666D01*
X101763809Y-160903571D01*
X101840000Y-160903571D01*
X102106666Y-161436904D02*
X102106666Y-160903571D01*
X102106666Y-161055952D02*
X102144761Y-160979761D01*
X102182857Y-160941666D01*
X102259047Y-160903571D01*
X102335238Y-160903571D01*
X102944761Y-161436904D02*
X102944761Y-161017857D01*
X102906666Y-160941666D01*
X102830476Y-160903571D01*
X102678095Y-160903571D01*
X102601904Y-160941666D01*
X102944761Y-161398809D02*
X102868571Y-161436904D01*
X102678095Y-161436904D01*
X102601904Y-161398809D01*
X102563809Y-161322619D01*
X102563809Y-161246428D01*
X102601904Y-161170238D01*
X102678095Y-161132142D01*
X102868571Y-161132142D01*
X102944761Y-161094047D01*
X103249523Y-160903571D02*
X103440000Y-161436904D01*
X103630476Y-160903571D02*
X103440000Y-161436904D01*
X103363809Y-161627380D01*
X103325714Y-161665476D01*
X103249523Y-161703571D01*
X63642857Y-160842857D02*
X63757142Y-160880952D01*
X63795238Y-160919047D01*
X63833333Y-160995238D01*
X63833333Y-161109523D01*
X63795238Y-161185714D01*
X63757142Y-161223809D01*
X63680952Y-161261904D01*
X63376190Y-161261904D01*
X63376190Y-160461904D01*
X63642857Y-160461904D01*
X63719047Y-160500000D01*
X63757142Y-160538095D01*
X63795238Y-160614285D01*
X63795238Y-160690476D01*
X63757142Y-160766666D01*
X63719047Y-160804761D01*
X63642857Y-160842857D01*
X63376190Y-160842857D01*
X64519047Y-161261904D02*
X64519047Y-160842857D01*
X64480952Y-160766666D01*
X64404761Y-160728571D01*
X64252380Y-160728571D01*
X64176190Y-160766666D01*
X64519047Y-161223809D02*
X64442857Y-161261904D01*
X64252380Y-161261904D01*
X64176190Y-161223809D01*
X64138095Y-161147619D01*
X64138095Y-161071428D01*
X64176190Y-160995238D01*
X64252380Y-160957142D01*
X64442857Y-160957142D01*
X64519047Y-160919047D01*
X64785714Y-160728571D02*
X65090476Y-160728571D01*
X64900000Y-160461904D02*
X64900000Y-161147619D01*
X64938095Y-161223809D01*
X65014285Y-161261904D01*
X65090476Y-161261904D01*
X65242857Y-160728571D02*
X65547619Y-160728571D01*
X65357142Y-160461904D02*
X65357142Y-161147619D01*
X65395238Y-161223809D01*
X65471428Y-161261904D01*
X65547619Y-161261904D01*
X66119047Y-161223809D02*
X66042857Y-161261904D01*
X65890476Y-161261904D01*
X65814285Y-161223809D01*
X65776190Y-161147619D01*
X65776190Y-160842857D01*
X65814285Y-160766666D01*
X65890476Y-160728571D01*
X66042857Y-160728571D01*
X66119047Y-160766666D01*
X66157142Y-160842857D01*
X66157142Y-160919047D01*
X65776190Y-160995238D01*
X66500000Y-161261904D02*
X66500000Y-160728571D01*
X66500000Y-160880952D02*
X66538095Y-160804761D01*
X66576190Y-160766666D01*
X66652380Y-160728571D01*
X66728571Y-160728571D01*
X66919047Y-160728571D02*
X67109523Y-161261904D01*
X67300000Y-160728571D02*
X67109523Y-161261904D01*
X67033333Y-161452380D01*
X66995238Y-161490476D01*
X66919047Y-161528571D01*
%TO.C,U2*%
X29330476Y-69386904D02*
X29330476Y-70034523D01*
X29368571Y-70110714D01*
X29406666Y-70148809D01*
X29482857Y-70186904D01*
X29635238Y-70186904D01*
X29711428Y-70148809D01*
X29749523Y-70110714D01*
X29787619Y-70034523D01*
X29787619Y-69386904D01*
X30130476Y-69463095D02*
X30168571Y-69425000D01*
X30244761Y-69386904D01*
X30435238Y-69386904D01*
X30511428Y-69425000D01*
X30549523Y-69463095D01*
X30587619Y-69539285D01*
X30587619Y-69615476D01*
X30549523Y-69729761D01*
X30092380Y-70186904D01*
X30587619Y-70186904D01*
%TO.C,U10*%
X31719523Y-138471904D02*
X31719523Y-139119523D01*
X31757619Y-139195714D01*
X31795714Y-139233809D01*
X31871904Y-139271904D01*
X32024285Y-139271904D01*
X32100476Y-139233809D01*
X32138571Y-139195714D01*
X32176666Y-139119523D01*
X32176666Y-138471904D01*
X32976666Y-139271904D02*
X32519523Y-139271904D01*
X32748095Y-139271904D02*
X32748095Y-138471904D01*
X32671904Y-138586190D01*
X32595714Y-138662380D01*
X32519523Y-138700476D01*
X33471904Y-138471904D02*
X33548095Y-138471904D01*
X33624285Y-138510000D01*
X33662380Y-138548095D01*
X33700476Y-138624285D01*
X33738571Y-138776666D01*
X33738571Y-138967142D01*
X33700476Y-139119523D01*
X33662380Y-139195714D01*
X33624285Y-139233809D01*
X33548095Y-139271904D01*
X33471904Y-139271904D01*
X33395714Y-139233809D01*
X33357619Y-139195714D01*
X33319523Y-139119523D01*
X33281428Y-138967142D01*
X33281428Y-138776666D01*
X33319523Y-138624285D01*
X33357619Y-138548095D01*
X33395714Y-138510000D01*
X33471904Y-138471904D01*
%TO.C,U9*%
X28830476Y-122841904D02*
X28830476Y-123489523D01*
X28868571Y-123565714D01*
X28906666Y-123603809D01*
X28982857Y-123641904D01*
X29135238Y-123641904D01*
X29211428Y-123603809D01*
X29249523Y-123565714D01*
X29287619Y-123489523D01*
X29287619Y-122841904D01*
X29706666Y-123641904D02*
X29859047Y-123641904D01*
X29935238Y-123603809D01*
X29973333Y-123565714D01*
X30049523Y-123451428D01*
X30087619Y-123299047D01*
X30087619Y-122994285D01*
X30049523Y-122918095D01*
X30011428Y-122880000D01*
X29935238Y-122841904D01*
X29782857Y-122841904D01*
X29706666Y-122880000D01*
X29668571Y-122918095D01*
X29630476Y-122994285D01*
X29630476Y-123184761D01*
X29668571Y-123260952D01*
X29706666Y-123299047D01*
X29782857Y-123337142D01*
X29935238Y-123337142D01*
X30011428Y-123299047D01*
X30049523Y-123260952D01*
X30087619Y-123184761D01*
%TO.C,U4*%
X49830476Y-122866904D02*
X49830476Y-123514523D01*
X49868571Y-123590714D01*
X49906666Y-123628809D01*
X49982857Y-123666904D01*
X50135238Y-123666904D01*
X50211428Y-123628809D01*
X50249523Y-123590714D01*
X50287619Y-123514523D01*
X50287619Y-122866904D01*
X51011428Y-123133571D02*
X51011428Y-123666904D01*
X50820952Y-122828809D02*
X50630476Y-123400238D01*
X51125714Y-123400238D01*
%TO.C,U3*%
X51255476Y-72536904D02*
X51255476Y-73184523D01*
X51293571Y-73260714D01*
X51331666Y-73298809D01*
X51407857Y-73336904D01*
X51560238Y-73336904D01*
X51636428Y-73298809D01*
X51674523Y-73260714D01*
X51712619Y-73184523D01*
X51712619Y-72536904D01*
X52017380Y-72536904D02*
X52512619Y-72536904D01*
X52245952Y-72841666D01*
X52360238Y-72841666D01*
X52436428Y-72879761D01*
X52474523Y-72917857D01*
X52512619Y-72994047D01*
X52512619Y-73184523D01*
X52474523Y-73260714D01*
X52436428Y-73298809D01*
X52360238Y-73336904D01*
X52131666Y-73336904D01*
X52055476Y-73298809D01*
X52017380Y-73260714D01*
%TO.C,U1*%
X47375476Y-142011904D02*
X47375476Y-142659523D01*
X47413571Y-142735714D01*
X47451666Y-142773809D01*
X47527857Y-142811904D01*
X47680238Y-142811904D01*
X47756428Y-142773809D01*
X47794523Y-142735714D01*
X47832619Y-142659523D01*
X47832619Y-142011904D01*
X48632619Y-142811904D02*
X48175476Y-142811904D01*
X48404047Y-142811904D02*
X48404047Y-142011904D01*
X48327857Y-142126190D01*
X48251666Y-142202380D01*
X48175476Y-142240476D01*
%TO.C,SW2*%
X19593333Y-81458809D02*
X19707619Y-81496904D01*
X19898095Y-81496904D01*
X19974285Y-81458809D01*
X20012380Y-81420714D01*
X20050476Y-81344523D01*
X20050476Y-81268333D01*
X20012380Y-81192142D01*
X19974285Y-81154047D01*
X19898095Y-81115952D01*
X19745714Y-81077857D01*
X19669523Y-81039761D01*
X19631428Y-81001666D01*
X19593333Y-80925476D01*
X19593333Y-80849285D01*
X19631428Y-80773095D01*
X19669523Y-80735000D01*
X19745714Y-80696904D01*
X19936190Y-80696904D01*
X20050476Y-80735000D01*
X20317142Y-80696904D02*
X20507619Y-81496904D01*
X20660000Y-80925476D01*
X20812380Y-81496904D01*
X21002857Y-80696904D01*
X21269523Y-80773095D02*
X21307619Y-80735000D01*
X21383809Y-80696904D01*
X21574285Y-80696904D01*
X21650476Y-80735000D01*
X21688571Y-80773095D01*
X21726666Y-80849285D01*
X21726666Y-80925476D01*
X21688571Y-81039761D01*
X21231428Y-81496904D01*
X21726666Y-81496904D01*
X26665714Y-82745000D02*
X26703809Y-82706904D01*
X26741904Y-82745000D01*
X26703809Y-82783095D01*
X26665714Y-82745000D01*
X26741904Y-82745000D01*
%TO.C,SW1*%
X19813333Y-69973809D02*
X19927619Y-70011904D01*
X20118095Y-70011904D01*
X20194285Y-69973809D01*
X20232380Y-69935714D01*
X20270476Y-69859523D01*
X20270476Y-69783333D01*
X20232380Y-69707142D01*
X20194285Y-69669047D01*
X20118095Y-69630952D01*
X19965714Y-69592857D01*
X19889523Y-69554761D01*
X19851428Y-69516666D01*
X19813333Y-69440476D01*
X19813333Y-69364285D01*
X19851428Y-69288095D01*
X19889523Y-69250000D01*
X19965714Y-69211904D01*
X20156190Y-69211904D01*
X20270476Y-69250000D01*
X20537142Y-69211904D02*
X20727619Y-70011904D01*
X20880000Y-69440476D01*
X21032380Y-70011904D01*
X21222857Y-69211904D01*
X21946666Y-70011904D02*
X21489523Y-70011904D01*
X21718095Y-70011904D02*
X21718095Y-69211904D01*
X21641904Y-69326190D01*
X21565714Y-69402380D01*
X21489523Y-69440476D01*
%TO.C,R5*%
X97116666Y-38821904D02*
X96850000Y-38440952D01*
X96659523Y-38821904D02*
X96659523Y-38021904D01*
X96964285Y-38021904D01*
X97040476Y-38060000D01*
X97078571Y-38098095D01*
X97116666Y-38174285D01*
X97116666Y-38288571D01*
X97078571Y-38364761D01*
X97040476Y-38402857D01*
X96964285Y-38440952D01*
X96659523Y-38440952D01*
X97840476Y-38021904D02*
X97459523Y-38021904D01*
X97421428Y-38402857D01*
X97459523Y-38364761D01*
X97535714Y-38326666D01*
X97726190Y-38326666D01*
X97802380Y-38364761D01*
X97840476Y-38402857D01*
X97878571Y-38479047D01*
X97878571Y-38669523D01*
X97840476Y-38745714D01*
X97802380Y-38783809D01*
X97726190Y-38821904D01*
X97535714Y-38821904D01*
X97459523Y-38783809D01*
X97421428Y-38745714D01*
%TO.C,R2*%
X53351666Y-68436904D02*
X53085000Y-68055952D01*
X52894523Y-68436904D02*
X52894523Y-67636904D01*
X53199285Y-67636904D01*
X53275476Y-67675000D01*
X53313571Y-67713095D01*
X53351666Y-67789285D01*
X53351666Y-67903571D01*
X53313571Y-67979761D01*
X53275476Y-68017857D01*
X53199285Y-68055952D01*
X52894523Y-68055952D01*
X53656428Y-67713095D02*
X53694523Y-67675000D01*
X53770714Y-67636904D01*
X53961190Y-67636904D01*
X54037380Y-67675000D01*
X54075476Y-67713095D01*
X54113571Y-67789285D01*
X54113571Y-67865476D01*
X54075476Y-67979761D01*
X53618333Y-68436904D01*
X54113571Y-68436904D01*
%TO.C,Q2*%
X75248809Y-37598095D02*
X75172619Y-37560000D01*
X75096428Y-37483809D01*
X74982142Y-37369523D01*
X74905952Y-37331428D01*
X74829761Y-37331428D01*
X74867857Y-37521904D02*
X74791666Y-37483809D01*
X74715476Y-37407619D01*
X74677380Y-37255238D01*
X74677380Y-36988571D01*
X74715476Y-36836190D01*
X74791666Y-36760000D01*
X74867857Y-36721904D01*
X75020238Y-36721904D01*
X75096428Y-36760000D01*
X75172619Y-36836190D01*
X75210714Y-36988571D01*
X75210714Y-37255238D01*
X75172619Y-37407619D01*
X75096428Y-37483809D01*
X75020238Y-37521904D01*
X74867857Y-37521904D01*
X75515476Y-36798095D02*
X75553571Y-36760000D01*
X75629761Y-36721904D01*
X75820238Y-36721904D01*
X75896428Y-36760000D01*
X75934523Y-36798095D01*
X75972619Y-36874285D01*
X75972619Y-36950476D01*
X75934523Y-37064761D01*
X75477380Y-37521904D01*
X75972619Y-37521904D01*
%TO.C,Q1*%
X59628809Y-52298095D02*
X59552619Y-52260000D01*
X59476428Y-52183809D01*
X59362142Y-52069523D01*
X59285952Y-52031428D01*
X59209761Y-52031428D01*
X59247857Y-52221904D02*
X59171666Y-52183809D01*
X59095476Y-52107619D01*
X59057380Y-51955238D01*
X59057380Y-51688571D01*
X59095476Y-51536190D01*
X59171666Y-51460000D01*
X59247857Y-51421904D01*
X59400238Y-51421904D01*
X59476428Y-51460000D01*
X59552619Y-51536190D01*
X59590714Y-51688571D01*
X59590714Y-51955238D01*
X59552619Y-52107619D01*
X59476428Y-52183809D01*
X59400238Y-52221904D01*
X59247857Y-52221904D01*
X60352619Y-52221904D02*
X59895476Y-52221904D01*
X60124047Y-52221904D02*
X60124047Y-51421904D01*
X60047857Y-51536190D01*
X59971666Y-51612380D01*
X59895476Y-51650476D01*
%TO.C,LED10*%
X24743809Y-100271904D02*
X24362857Y-100271904D01*
X24362857Y-99471904D01*
X25010476Y-99852857D02*
X25277142Y-99852857D01*
X25391428Y-100271904D02*
X25010476Y-100271904D01*
X25010476Y-99471904D01*
X25391428Y-99471904D01*
X25734285Y-100271904D02*
X25734285Y-99471904D01*
X25924761Y-99471904D01*
X26039047Y-99510000D01*
X26115238Y-99586190D01*
X26153333Y-99662380D01*
X26191428Y-99814761D01*
X26191428Y-99929047D01*
X26153333Y-100081428D01*
X26115238Y-100157619D01*
X26039047Y-100233809D01*
X25924761Y-100271904D01*
X25734285Y-100271904D01*
X26953333Y-100271904D02*
X26496190Y-100271904D01*
X26724761Y-100271904D02*
X26724761Y-99471904D01*
X26648571Y-99586190D01*
X26572380Y-99662380D01*
X26496190Y-99700476D01*
X27448571Y-99471904D02*
X27524761Y-99471904D01*
X27600952Y-99510000D01*
X27639047Y-99548095D01*
X27677142Y-99624285D01*
X27715238Y-99776666D01*
X27715238Y-99967142D01*
X27677142Y-100119523D01*
X27639047Y-100195714D01*
X27600952Y-100233809D01*
X27524761Y-100271904D01*
X27448571Y-100271904D01*
X27372380Y-100233809D01*
X27334285Y-100195714D01*
X27296190Y-100119523D01*
X27258095Y-99967142D01*
X27258095Y-99776666D01*
X27296190Y-99624285D01*
X27334285Y-99548095D01*
X27372380Y-99510000D01*
X27448571Y-99471904D01*
%TO.C,LED9*%
X25087261Y-106076904D02*
X24706309Y-106076904D01*
X24706309Y-105276904D01*
X25353928Y-105657857D02*
X25620595Y-105657857D01*
X25734880Y-106076904D02*
X25353928Y-106076904D01*
X25353928Y-105276904D01*
X25734880Y-105276904D01*
X26077738Y-106076904D02*
X26077738Y-105276904D01*
X26268214Y-105276904D01*
X26382500Y-105315000D01*
X26458690Y-105391190D01*
X26496785Y-105467380D01*
X26534880Y-105619761D01*
X26534880Y-105734047D01*
X26496785Y-105886428D01*
X26458690Y-105962619D01*
X26382500Y-106038809D01*
X26268214Y-106076904D01*
X26077738Y-106076904D01*
X26915833Y-106076904D02*
X27068214Y-106076904D01*
X27144404Y-106038809D01*
X27182500Y-106000714D01*
X27258690Y-105886428D01*
X27296785Y-105734047D01*
X27296785Y-105429285D01*
X27258690Y-105353095D01*
X27220595Y-105315000D01*
X27144404Y-105276904D01*
X26992023Y-105276904D01*
X26915833Y-105315000D01*
X26877738Y-105353095D01*
X26839642Y-105429285D01*
X26839642Y-105619761D01*
X26877738Y-105695952D01*
X26915833Y-105734047D01*
X26992023Y-105772142D01*
X27144404Y-105772142D01*
X27220595Y-105734047D01*
X27258690Y-105695952D01*
X27296785Y-105619761D01*
%TO.C,LED8*%
X25109761Y-109076904D02*
X24728809Y-109076904D01*
X24728809Y-108276904D01*
X25376428Y-108657857D02*
X25643095Y-108657857D01*
X25757380Y-109076904D02*
X25376428Y-109076904D01*
X25376428Y-108276904D01*
X25757380Y-108276904D01*
X26100238Y-109076904D02*
X26100238Y-108276904D01*
X26290714Y-108276904D01*
X26405000Y-108315000D01*
X26481190Y-108391190D01*
X26519285Y-108467380D01*
X26557380Y-108619761D01*
X26557380Y-108734047D01*
X26519285Y-108886428D01*
X26481190Y-108962619D01*
X26405000Y-109038809D01*
X26290714Y-109076904D01*
X26100238Y-109076904D01*
X27014523Y-108619761D02*
X26938333Y-108581666D01*
X26900238Y-108543571D01*
X26862142Y-108467380D01*
X26862142Y-108429285D01*
X26900238Y-108353095D01*
X26938333Y-108315000D01*
X27014523Y-108276904D01*
X27166904Y-108276904D01*
X27243095Y-108315000D01*
X27281190Y-108353095D01*
X27319285Y-108429285D01*
X27319285Y-108467380D01*
X27281190Y-108543571D01*
X27243095Y-108581666D01*
X27166904Y-108619761D01*
X27014523Y-108619761D01*
X26938333Y-108657857D01*
X26900238Y-108695952D01*
X26862142Y-108772142D01*
X26862142Y-108924523D01*
X26900238Y-109000714D01*
X26938333Y-109038809D01*
X27014523Y-109076904D01*
X27166904Y-109076904D01*
X27243095Y-109038809D01*
X27281190Y-109000714D01*
X27319285Y-108924523D01*
X27319285Y-108772142D01*
X27281190Y-108695952D01*
X27243095Y-108657857D01*
X27166904Y-108619761D01*
%TO.C,LED7*%
X25084761Y-103181904D02*
X24703809Y-103181904D01*
X24703809Y-102381904D01*
X25351428Y-102762857D02*
X25618095Y-102762857D01*
X25732380Y-103181904D02*
X25351428Y-103181904D01*
X25351428Y-102381904D01*
X25732380Y-102381904D01*
X26075238Y-103181904D02*
X26075238Y-102381904D01*
X26265714Y-102381904D01*
X26380000Y-102420000D01*
X26456190Y-102496190D01*
X26494285Y-102572380D01*
X26532380Y-102724761D01*
X26532380Y-102839047D01*
X26494285Y-102991428D01*
X26456190Y-103067619D01*
X26380000Y-103143809D01*
X26265714Y-103181904D01*
X26075238Y-103181904D01*
X26799047Y-102381904D02*
X27332380Y-102381904D01*
X26989523Y-103181904D01*
%TO.C,LED6*%
X25102261Y-97356904D02*
X24721309Y-97356904D01*
X24721309Y-96556904D01*
X25368928Y-96937857D02*
X25635595Y-96937857D01*
X25749880Y-97356904D02*
X25368928Y-97356904D01*
X25368928Y-96556904D01*
X25749880Y-96556904D01*
X26092738Y-97356904D02*
X26092738Y-96556904D01*
X26283214Y-96556904D01*
X26397500Y-96595000D01*
X26473690Y-96671190D01*
X26511785Y-96747380D01*
X26549880Y-96899761D01*
X26549880Y-97014047D01*
X26511785Y-97166428D01*
X26473690Y-97242619D01*
X26397500Y-97318809D01*
X26283214Y-97356904D01*
X26092738Y-97356904D01*
X27235595Y-96556904D02*
X27083214Y-96556904D01*
X27007023Y-96595000D01*
X26968928Y-96633095D01*
X26892738Y-96747380D01*
X26854642Y-96899761D01*
X26854642Y-97204523D01*
X26892738Y-97280714D01*
X26930833Y-97318809D01*
X27007023Y-97356904D01*
X27159404Y-97356904D01*
X27235595Y-97318809D01*
X27273690Y-97280714D01*
X27311785Y-97204523D01*
X27311785Y-97014047D01*
X27273690Y-96937857D01*
X27235595Y-96899761D01*
X27159404Y-96861666D01*
X27007023Y-96861666D01*
X26930833Y-96899761D01*
X26892738Y-96937857D01*
X26854642Y-97014047D01*
%TO.C,LED5*%
X25102261Y-94451904D02*
X24721309Y-94451904D01*
X24721309Y-93651904D01*
X25368928Y-94032857D02*
X25635595Y-94032857D01*
X25749880Y-94451904D02*
X25368928Y-94451904D01*
X25368928Y-93651904D01*
X25749880Y-93651904D01*
X26092738Y-94451904D02*
X26092738Y-93651904D01*
X26283214Y-93651904D01*
X26397500Y-93690000D01*
X26473690Y-93766190D01*
X26511785Y-93842380D01*
X26549880Y-93994761D01*
X26549880Y-94109047D01*
X26511785Y-94261428D01*
X26473690Y-94337619D01*
X26397500Y-94413809D01*
X26283214Y-94451904D01*
X26092738Y-94451904D01*
X27273690Y-93651904D02*
X26892738Y-93651904D01*
X26854642Y-94032857D01*
X26892738Y-93994761D01*
X26968928Y-93956666D01*
X27159404Y-93956666D01*
X27235595Y-93994761D01*
X27273690Y-94032857D01*
X27311785Y-94109047D01*
X27311785Y-94299523D01*
X27273690Y-94375714D01*
X27235595Y-94413809D01*
X27159404Y-94451904D01*
X26968928Y-94451904D01*
X26892738Y-94413809D01*
X26854642Y-94375714D01*
%TO.C,LED4*%
X96659761Y-142611904D02*
X96278809Y-142611904D01*
X96278809Y-141811904D01*
X96926428Y-142192857D02*
X97193095Y-142192857D01*
X97307380Y-142611904D02*
X96926428Y-142611904D01*
X96926428Y-141811904D01*
X97307380Y-141811904D01*
X97650238Y-142611904D02*
X97650238Y-141811904D01*
X97840714Y-141811904D01*
X97955000Y-141850000D01*
X98031190Y-141926190D01*
X98069285Y-142002380D01*
X98107380Y-142154761D01*
X98107380Y-142269047D01*
X98069285Y-142421428D01*
X98031190Y-142497619D01*
X97955000Y-142573809D01*
X97840714Y-142611904D01*
X97650238Y-142611904D01*
X98793095Y-142078571D02*
X98793095Y-142611904D01*
X98602619Y-141773809D02*
X98412142Y-142345238D01*
X98907380Y-142345238D01*
%TO.C,LED3*%
X134869761Y-142546904D02*
X134488809Y-142546904D01*
X134488809Y-141746904D01*
X135136428Y-142127857D02*
X135403095Y-142127857D01*
X135517380Y-142546904D02*
X135136428Y-142546904D01*
X135136428Y-141746904D01*
X135517380Y-141746904D01*
X135860238Y-142546904D02*
X135860238Y-141746904D01*
X136050714Y-141746904D01*
X136165000Y-141785000D01*
X136241190Y-141861190D01*
X136279285Y-141937380D01*
X136317380Y-142089761D01*
X136317380Y-142204047D01*
X136279285Y-142356428D01*
X136241190Y-142432619D01*
X136165000Y-142508809D01*
X136050714Y-142546904D01*
X135860238Y-142546904D01*
X136584047Y-141746904D02*
X137079285Y-141746904D01*
X136812619Y-142051666D01*
X136926904Y-142051666D01*
X137003095Y-142089761D01*
X137041190Y-142127857D01*
X137079285Y-142204047D01*
X137079285Y-142394523D01*
X137041190Y-142470714D01*
X137003095Y-142508809D01*
X136926904Y-142546904D01*
X136698333Y-142546904D01*
X136622142Y-142508809D01*
X136584047Y-142470714D01*
%TO.C,LED2*%
X50679761Y-123291904D02*
X50298809Y-123291904D01*
X50298809Y-122491904D01*
X50946428Y-122872857D02*
X51213095Y-122872857D01*
X51327380Y-123291904D02*
X50946428Y-123291904D01*
X50946428Y-122491904D01*
X51327380Y-122491904D01*
X51670238Y-123291904D02*
X51670238Y-122491904D01*
X51860714Y-122491904D01*
X51975000Y-122530000D01*
X52051190Y-122606190D01*
X52089285Y-122682380D01*
X52127380Y-122834761D01*
X52127380Y-122949047D01*
X52089285Y-123101428D01*
X52051190Y-123177619D01*
X51975000Y-123253809D01*
X51860714Y-123291904D01*
X51670238Y-123291904D01*
X52432142Y-122568095D02*
X52470238Y-122530000D01*
X52546428Y-122491904D01*
X52736904Y-122491904D01*
X52813095Y-122530000D01*
X52851190Y-122568095D01*
X52889285Y-122644285D01*
X52889285Y-122720476D01*
X52851190Y-122834761D01*
X52394047Y-123291904D01*
X52889285Y-123291904D01*
%TO.C,LED1*%
X55119761Y-139856904D02*
X54738809Y-139856904D01*
X54738809Y-139056904D01*
X55386428Y-139437857D02*
X55653095Y-139437857D01*
X55767380Y-139856904D02*
X55386428Y-139856904D01*
X55386428Y-139056904D01*
X55767380Y-139056904D01*
X56110238Y-139856904D02*
X56110238Y-139056904D01*
X56300714Y-139056904D01*
X56415000Y-139095000D01*
X56491190Y-139171190D01*
X56529285Y-139247380D01*
X56567380Y-139399761D01*
X56567380Y-139514047D01*
X56529285Y-139666428D01*
X56491190Y-139742619D01*
X56415000Y-139818809D01*
X56300714Y-139856904D01*
X56110238Y-139856904D01*
X57329285Y-139856904D02*
X56872142Y-139856904D01*
X57100714Y-139856904D02*
X57100714Y-139056904D01*
X57024523Y-139171190D01*
X56948333Y-139247380D01*
X56872142Y-139285476D01*
%TO.C,L4*%
X43081666Y-134511904D02*
X42700714Y-134511904D01*
X42700714Y-133711904D01*
X43691190Y-133978571D02*
X43691190Y-134511904D01*
X43500714Y-133673809D02*
X43310238Y-134245238D01*
X43805476Y-134245238D01*
%TO.C,L3*%
X40746666Y-134541904D02*
X40365714Y-134541904D01*
X40365714Y-133741904D01*
X40937142Y-133741904D02*
X41432380Y-133741904D01*
X41165714Y-134046666D01*
X41280000Y-134046666D01*
X41356190Y-134084761D01*
X41394285Y-134122857D01*
X41432380Y-134199047D01*
X41432380Y-134389523D01*
X41394285Y-134465714D01*
X41356190Y-134503809D01*
X41280000Y-134541904D01*
X41051428Y-134541904D01*
X40975238Y-134503809D01*
X40937142Y-134465714D01*
%TO.C,L2*%
X111196666Y-48071904D02*
X110815714Y-48071904D01*
X110815714Y-47271904D01*
X111425238Y-47348095D02*
X111463333Y-47310000D01*
X111539523Y-47271904D01*
X111730000Y-47271904D01*
X111806190Y-47310000D01*
X111844285Y-47348095D01*
X111882380Y-47424285D01*
X111882380Y-47500476D01*
X111844285Y-47614761D01*
X111387142Y-48071904D01*
X111882380Y-48071904D01*
%TO.C,JP1*%
X38463333Y-138701904D02*
X38463333Y-139273333D01*
X38425238Y-139387619D01*
X38349047Y-139463809D01*
X38234761Y-139501904D01*
X38158571Y-139501904D01*
X38844285Y-139501904D02*
X38844285Y-138701904D01*
X39149047Y-138701904D01*
X39225238Y-138740000D01*
X39263333Y-138778095D01*
X39301428Y-138854285D01*
X39301428Y-138968571D01*
X39263333Y-139044761D01*
X39225238Y-139082857D01*
X39149047Y-139120952D01*
X38844285Y-139120952D01*
X40063333Y-139501904D02*
X39606190Y-139501904D01*
X39834761Y-139501904D02*
X39834761Y-138701904D01*
X39758571Y-138816190D01*
X39682380Y-138892380D01*
X39606190Y-138930476D01*
%TO.C,J6*%
X28723333Y-144771904D02*
X28723333Y-145343333D01*
X28685238Y-145457619D01*
X28609047Y-145533809D01*
X28494761Y-145571904D01*
X28418571Y-145571904D01*
X29447142Y-144771904D02*
X29294761Y-144771904D01*
X29218571Y-144810000D01*
X29180476Y-144848095D01*
X29104285Y-144962380D01*
X29066190Y-145114761D01*
X29066190Y-145419523D01*
X29104285Y-145495714D01*
X29142380Y-145533809D01*
X29218571Y-145571904D01*
X29370952Y-145571904D01*
X29447142Y-145533809D01*
X29485238Y-145495714D01*
X29523333Y-145419523D01*
X29523333Y-145229047D01*
X29485238Y-145152857D01*
X29447142Y-145114761D01*
X29370952Y-145076666D01*
X29218571Y-145076666D01*
X29142380Y-145114761D01*
X29104285Y-145152857D01*
X29066190Y-145229047D01*
%TO.C,J5*%
X28768333Y-153741904D02*
X28768333Y-154313333D01*
X28730238Y-154427619D01*
X28654047Y-154503809D01*
X28539761Y-154541904D01*
X28463571Y-154541904D01*
X29530238Y-153741904D02*
X29149285Y-153741904D01*
X29111190Y-154122857D01*
X29149285Y-154084761D01*
X29225476Y-154046666D01*
X29415952Y-154046666D01*
X29492142Y-154084761D01*
X29530238Y-154122857D01*
X29568333Y-154199047D01*
X29568333Y-154389523D01*
X29530238Y-154465714D01*
X29492142Y-154503809D01*
X29415952Y-154541904D01*
X29225476Y-154541904D01*
X29149285Y-154503809D01*
X29111190Y-154465714D01*
%TO.C,J4*%
X63758333Y-157828404D02*
X63758333Y-158399833D01*
X63720238Y-158514119D01*
X63644047Y-158590309D01*
X63529761Y-158628404D01*
X63453571Y-158628404D01*
X64482142Y-158095071D02*
X64482142Y-158628404D01*
X64291666Y-157790309D02*
X64101190Y-158361738D01*
X64596428Y-158361738D01*
%TO.C,J3*%
X100953333Y-157930904D02*
X100953333Y-158502333D01*
X100915238Y-158616619D01*
X100839047Y-158692809D01*
X100724761Y-158730904D01*
X100648571Y-158730904D01*
X101258095Y-157930904D02*
X101753333Y-157930904D01*
X101486666Y-158235666D01*
X101600952Y-158235666D01*
X101677142Y-158273761D01*
X101715238Y-158311857D01*
X101753333Y-158388047D01*
X101753333Y-158578523D01*
X101715238Y-158654714D01*
X101677142Y-158692809D01*
X101600952Y-158730904D01*
X101372380Y-158730904D01*
X101296190Y-158692809D01*
X101258095Y-158654714D01*
%TO.C,J2*%
X25943333Y-66986904D02*
X25943333Y-67558333D01*
X25905238Y-67672619D01*
X25829047Y-67748809D01*
X25714761Y-67786904D01*
X25638571Y-67786904D01*
X26286190Y-67063095D02*
X26324285Y-67025000D01*
X26400476Y-66986904D01*
X26590952Y-66986904D01*
X26667142Y-67025000D01*
X26705238Y-67063095D01*
X26743333Y-67139285D01*
X26743333Y-67215476D01*
X26705238Y-67329761D01*
X26248095Y-67786904D01*
X26743333Y-67786904D01*
%TO.C,J1*%
X48158333Y-153651904D02*
X48158333Y-154223333D01*
X48120238Y-154337619D01*
X48044047Y-154413809D01*
X47929761Y-154451904D01*
X47853571Y-154451904D01*
X48958333Y-154451904D02*
X48501190Y-154451904D01*
X48729761Y-154451904D02*
X48729761Y-153651904D01*
X48653571Y-153766190D01*
X48577380Y-153842380D01*
X48501190Y-153880476D01*
%TO.C,HS3*%
X66059523Y-83751904D02*
X66059523Y-82951904D01*
X66059523Y-83332857D02*
X66516666Y-83332857D01*
X66516666Y-83751904D02*
X66516666Y-82951904D01*
X66859523Y-83713809D02*
X66973809Y-83751904D01*
X67164285Y-83751904D01*
X67240476Y-83713809D01*
X67278571Y-83675714D01*
X67316666Y-83599523D01*
X67316666Y-83523333D01*
X67278571Y-83447142D01*
X67240476Y-83409047D01*
X67164285Y-83370952D01*
X67011904Y-83332857D01*
X66935714Y-83294761D01*
X66897619Y-83256666D01*
X66859523Y-83180476D01*
X66859523Y-83104285D01*
X66897619Y-83028095D01*
X66935714Y-82990000D01*
X67011904Y-82951904D01*
X67202380Y-82951904D01*
X67316666Y-82990000D01*
X67583333Y-82951904D02*
X68078571Y-82951904D01*
X67811904Y-83256666D01*
X67926190Y-83256666D01*
X68002380Y-83294761D01*
X68040476Y-83332857D01*
X68078571Y-83409047D01*
X68078571Y-83599523D01*
X68040476Y-83675714D01*
X68002380Y-83713809D01*
X67926190Y-83751904D01*
X67697619Y-83751904D01*
X67621428Y-83713809D01*
X67583333Y-83675714D01*
%TO.C,HS2*%
X82794523Y-33581904D02*
X82794523Y-32781904D01*
X82794523Y-33162857D02*
X83251666Y-33162857D01*
X83251666Y-33581904D02*
X83251666Y-32781904D01*
X83594523Y-33543809D02*
X83708809Y-33581904D01*
X83899285Y-33581904D01*
X83975476Y-33543809D01*
X84013571Y-33505714D01*
X84051666Y-33429523D01*
X84051666Y-33353333D01*
X84013571Y-33277142D01*
X83975476Y-33239047D01*
X83899285Y-33200952D01*
X83746904Y-33162857D01*
X83670714Y-33124761D01*
X83632619Y-33086666D01*
X83594523Y-33010476D01*
X83594523Y-32934285D01*
X83632619Y-32858095D01*
X83670714Y-32820000D01*
X83746904Y-32781904D01*
X83937380Y-32781904D01*
X84051666Y-32820000D01*
X84356428Y-32858095D02*
X84394523Y-32820000D01*
X84470714Y-32781904D01*
X84661190Y-32781904D01*
X84737380Y-32820000D01*
X84775476Y-32858095D01*
X84813571Y-32934285D01*
X84813571Y-33010476D01*
X84775476Y-33124761D01*
X84318333Y-33581904D01*
X84813571Y-33581904D01*
%TO.C,HS1*%
X55884523Y-33401904D02*
X55884523Y-32601904D01*
X55884523Y-32982857D02*
X56341666Y-32982857D01*
X56341666Y-33401904D02*
X56341666Y-32601904D01*
X56684523Y-33363809D02*
X56798809Y-33401904D01*
X56989285Y-33401904D01*
X57065476Y-33363809D01*
X57103571Y-33325714D01*
X57141666Y-33249523D01*
X57141666Y-33173333D01*
X57103571Y-33097142D01*
X57065476Y-33059047D01*
X56989285Y-33020952D01*
X56836904Y-32982857D01*
X56760714Y-32944761D01*
X56722619Y-32906666D01*
X56684523Y-32830476D01*
X56684523Y-32754285D01*
X56722619Y-32678095D01*
X56760714Y-32640000D01*
X56836904Y-32601904D01*
X57027380Y-32601904D01*
X57141666Y-32640000D01*
X57903571Y-33401904D02*
X57446428Y-33401904D01*
X57675000Y-33401904D02*
X57675000Y-32601904D01*
X57598809Y-32716190D01*
X57522619Y-32792380D01*
X57446428Y-32830476D01*
%TO.C,F2*%
X66433333Y-126088857D02*
X66166666Y-126088857D01*
X66166666Y-126507904D02*
X66166666Y-125707904D01*
X66547619Y-125707904D01*
X66814285Y-125784095D02*
X66852380Y-125746000D01*
X66928571Y-125707904D01*
X67119047Y-125707904D01*
X67195238Y-125746000D01*
X67233333Y-125784095D01*
X67271428Y-125860285D01*
X67271428Y-125936476D01*
X67233333Y-126050761D01*
X66776190Y-126507904D01*
X67271428Y-126507904D01*
%TO.C,F1*%
X101083333Y-125672857D02*
X100816666Y-125672857D01*
X100816666Y-126091904D02*
X100816666Y-125291904D01*
X101197619Y-125291904D01*
X101921428Y-126091904D02*
X101464285Y-126091904D01*
X101692857Y-126091904D02*
X101692857Y-125291904D01*
X101616666Y-125406190D01*
X101540476Y-125482380D01*
X101464285Y-125520476D01*
%TO.C,D6*%
X79889523Y-78836904D02*
X79889523Y-78036904D01*
X80080000Y-78036904D01*
X80194285Y-78075000D01*
X80270476Y-78151190D01*
X80308571Y-78227380D01*
X80346666Y-78379761D01*
X80346666Y-78494047D01*
X80308571Y-78646428D01*
X80270476Y-78722619D01*
X80194285Y-78798809D01*
X80080000Y-78836904D01*
X79889523Y-78836904D01*
X81032380Y-78036904D02*
X80880000Y-78036904D01*
X80803809Y-78075000D01*
X80765714Y-78113095D01*
X80689523Y-78227380D01*
X80651428Y-78379761D01*
X80651428Y-78684523D01*
X80689523Y-78760714D01*
X80727619Y-78798809D01*
X80803809Y-78836904D01*
X80956190Y-78836904D01*
X81032380Y-78798809D01*
X81070476Y-78760714D01*
X81108571Y-78684523D01*
X81108571Y-78494047D01*
X81070476Y-78417857D01*
X81032380Y-78379761D01*
X80956190Y-78341666D01*
X80803809Y-78341666D01*
X80727619Y-78379761D01*
X80689523Y-78417857D01*
X80651428Y-78494047D01*
%TO.C,D5*%
X79949523Y-86431904D02*
X79949523Y-85631904D01*
X80140000Y-85631904D01*
X80254285Y-85670000D01*
X80330476Y-85746190D01*
X80368571Y-85822380D01*
X80406666Y-85974761D01*
X80406666Y-86089047D01*
X80368571Y-86241428D01*
X80330476Y-86317619D01*
X80254285Y-86393809D01*
X80140000Y-86431904D01*
X79949523Y-86431904D01*
X81130476Y-85631904D02*
X80749523Y-85631904D01*
X80711428Y-86012857D01*
X80749523Y-85974761D01*
X80825714Y-85936666D01*
X81016190Y-85936666D01*
X81092380Y-85974761D01*
X81130476Y-86012857D01*
X81168571Y-86089047D01*
X81168571Y-86279523D01*
X81130476Y-86355714D01*
X81092380Y-86393809D01*
X81016190Y-86431904D01*
X80825714Y-86431904D01*
X80749523Y-86393809D01*
X80711428Y-86355714D01*
%TO.C,D4*%
X88829523Y-38756904D02*
X88829523Y-37956904D01*
X89020000Y-37956904D01*
X89134285Y-37995000D01*
X89210476Y-38071190D01*
X89248571Y-38147380D01*
X89286666Y-38299761D01*
X89286666Y-38414047D01*
X89248571Y-38566428D01*
X89210476Y-38642619D01*
X89134285Y-38718809D01*
X89020000Y-38756904D01*
X88829523Y-38756904D01*
X89972380Y-38223571D02*
X89972380Y-38756904D01*
X89781904Y-37918809D02*
X89591428Y-38490238D01*
X90086666Y-38490238D01*
%TO.C,CP2*%
X81571666Y-126681714D02*
X81533571Y-126719809D01*
X81419285Y-126757904D01*
X81343095Y-126757904D01*
X81228809Y-126719809D01*
X81152619Y-126643619D01*
X81114523Y-126567428D01*
X81076428Y-126415047D01*
X81076428Y-126300761D01*
X81114523Y-126148380D01*
X81152619Y-126072190D01*
X81228809Y-125996000D01*
X81343095Y-125957904D01*
X81419285Y-125957904D01*
X81533571Y-125996000D01*
X81571666Y-126034095D01*
X81914523Y-126757904D02*
X81914523Y-125957904D01*
X82219285Y-125957904D01*
X82295476Y-125996000D01*
X82333571Y-126034095D01*
X82371666Y-126110285D01*
X82371666Y-126224571D01*
X82333571Y-126300761D01*
X82295476Y-126338857D01*
X82219285Y-126376952D01*
X81914523Y-126376952D01*
X82676428Y-126034095D02*
X82714523Y-125996000D01*
X82790714Y-125957904D01*
X82981190Y-125957904D01*
X83057380Y-125996000D01*
X83095476Y-126034095D01*
X83133571Y-126110285D01*
X83133571Y-126186476D01*
X83095476Y-126300761D01*
X82638333Y-126757904D01*
X83133571Y-126757904D01*
%TO.C,CP1*%
X120036666Y-126970714D02*
X119998571Y-127008809D01*
X119884285Y-127046904D01*
X119808095Y-127046904D01*
X119693809Y-127008809D01*
X119617619Y-126932619D01*
X119579523Y-126856428D01*
X119541428Y-126704047D01*
X119541428Y-126589761D01*
X119579523Y-126437380D01*
X119617619Y-126361190D01*
X119693809Y-126285000D01*
X119808095Y-126246904D01*
X119884285Y-126246904D01*
X119998571Y-126285000D01*
X120036666Y-126323095D01*
X120379523Y-127046904D02*
X120379523Y-126246904D01*
X120684285Y-126246904D01*
X120760476Y-126285000D01*
X120798571Y-126323095D01*
X120836666Y-126399285D01*
X120836666Y-126513571D01*
X120798571Y-126589761D01*
X120760476Y-126627857D01*
X120684285Y-126665952D01*
X120379523Y-126665952D01*
X121598571Y-127046904D02*
X121141428Y-127046904D01*
X121370000Y-127046904D02*
X121370000Y-126246904D01*
X121293809Y-126361190D01*
X121217619Y-126437380D01*
X121141428Y-126475476D01*
%TO.C,C9*%
X118341666Y-36860714D02*
X118303571Y-36898809D01*
X118189285Y-36936904D01*
X118113095Y-36936904D01*
X117998809Y-36898809D01*
X117922619Y-36822619D01*
X117884523Y-36746428D01*
X117846428Y-36594047D01*
X117846428Y-36479761D01*
X117884523Y-36327380D01*
X117922619Y-36251190D01*
X117998809Y-36175000D01*
X118113095Y-36136904D01*
X118189285Y-36136904D01*
X118303571Y-36175000D01*
X118341666Y-36213095D01*
X118722619Y-36936904D02*
X118875000Y-36936904D01*
X118951190Y-36898809D01*
X118989285Y-36860714D01*
X119065476Y-36746428D01*
X119103571Y-36594047D01*
X119103571Y-36289285D01*
X119065476Y-36213095D01*
X119027380Y-36175000D01*
X118951190Y-36136904D01*
X118798809Y-36136904D01*
X118722619Y-36175000D01*
X118684523Y-36213095D01*
X118646428Y-36289285D01*
X118646428Y-36479761D01*
X118684523Y-36555952D01*
X118722619Y-36594047D01*
X118798809Y-36632142D01*
X118951190Y-36632142D01*
X119027380Y-36594047D01*
X119065476Y-36555952D01*
X119103571Y-36479761D01*
D12*
%TO.C,U2*%
X28285000Y-79370000D02*
G75*
G03*
X28285000Y-79370000I-100000J0D01*
G01*
D13*
X47455000Y-121015000D02*
X28915000Y-121015000D01*
X47455000Y-70725000D02*
X47455000Y-121015000D01*
X28915000Y-121015000D02*
X28915000Y-70725000D01*
X28915000Y-70725000D02*
X47455000Y-70725000D01*
D14*
%TO.C,U10*%
X34960000Y-141552500D02*
X34960000Y-142202500D01*
X31840000Y-141552500D02*
X31840000Y-142202500D01*
X34960000Y-141552500D02*
X34960000Y-139877500D01*
X31840000Y-141552500D02*
X31840000Y-140902500D01*
D15*
%TO.C,U9*%
X43720691Y-124830000D02*
G75*
G03*
X43720691Y-124830000I-385691J0D01*
G01*
D14*
X44235000Y-124030000D02*
X44235000Y-131530000D01*
X28935000Y-124030000D02*
X28935000Y-131530000D01*
X44235000Y-131530000D02*
X28935000Y-131530000D01*
X28935000Y-124030000D02*
X44235000Y-124030000D01*
%TO.C,U4*%
X57300000Y-136825000D02*
X49680000Y-136825000D01*
X49680000Y-136825000D02*
X49680000Y-124125000D01*
X49680000Y-124125000D02*
X57300000Y-124125000D01*
X57300000Y-124125000D02*
X57300000Y-136825000D01*
%TO.C,U3*%
X52770000Y-76870000D02*
X52770000Y-74920000D01*
X57890000Y-76870000D02*
X57890000Y-74920000D01*
X52770000Y-76870000D02*
X52770000Y-80320000D01*
X57890000Y-76870000D02*
X57890000Y-78820000D01*
D13*
%TO.C,U1*%
X58847500Y-143365000D02*
X47347500Y-143365000D01*
X58847500Y-150965000D02*
X58847500Y-143365000D01*
X47347500Y-150965000D02*
X58847500Y-150965000D01*
X47347500Y-143365000D02*
X47347500Y-150965000D01*
D12*
X46397500Y-149855000D02*
G75*
G03*
X46397500Y-149855000I-100000J0D01*
G01*
D14*
%TO.C,SW2*%
X19380000Y-92445000D02*
X26880000Y-92445000D01*
X26880000Y-92445000D02*
X26880000Y-82045000D01*
X26880000Y-82045000D02*
X19280000Y-82045000D01*
X19280000Y-82045000D02*
X19280000Y-92445000D01*
X19280000Y-92445000D02*
X19380000Y-92445000D01*
%TO.C,SW1*%
X24010000Y-71740000D02*
X22510000Y-71740000D01*
X20010000Y-72990000D02*
X20010000Y-77490000D01*
X22510000Y-78740000D02*
X24010000Y-78740000D01*
X26510000Y-77490000D02*
X26510000Y-72990000D01*
%TO.C,R5*%
X96530000Y-49565000D02*
X96530000Y-39325000D01*
X96530000Y-39325000D02*
X101171000Y-39325000D01*
X96530000Y-49565000D02*
X101171000Y-49565000D01*
X96530000Y-42594000D02*
X98040000Y-42594000D01*
X101171000Y-49565000D02*
X101171000Y-39325000D01*
X96530000Y-46295000D02*
X98040000Y-46295000D01*
X98040000Y-49565000D02*
X98040000Y-39325000D01*
%TO.C,R2*%
X54315000Y-70814564D02*
X54315000Y-70360436D01*
X52845000Y-70814564D02*
X52845000Y-70360436D01*
%TO.C,Q2*%
X68984000Y-42545000D02*
X74255000Y-42545000D01*
X74255000Y-52420000D02*
X74255000Y-36280000D01*
X68984000Y-52420000D02*
X68984000Y-36280000D01*
X68984000Y-36280000D02*
X74255000Y-36280000D01*
X68984000Y-46154000D02*
X74255000Y-46154000D01*
X68984000Y-52420000D02*
X74255000Y-52420000D01*
%TO.C,Q1*%
X65976000Y-46185000D02*
X60705000Y-46185000D01*
X60705000Y-36310000D02*
X60705000Y-52450000D01*
X65976000Y-36310000D02*
X65976000Y-52450000D01*
X65976000Y-52450000D02*
X60705000Y-52450000D01*
X65976000Y-42576000D02*
X60705000Y-42576000D01*
X65976000Y-36310000D02*
X60705000Y-36310000D01*
%TO.C,LED10*%
X27637500Y-100340000D02*
X24952500Y-100340000D01*
X27637500Y-102260000D02*
X27637500Y-100340000D01*
X24952500Y-102260000D02*
X27637500Y-102260000D01*
%TO.C,LED9*%
X27655000Y-106175000D02*
X24970000Y-106175000D01*
X27655000Y-108095000D02*
X27655000Y-106175000D01*
X24970000Y-108095000D02*
X27655000Y-108095000D01*
%TO.C,LED8*%
X27650000Y-109170000D02*
X24965000Y-109170000D01*
X27650000Y-111090000D02*
X27650000Y-109170000D01*
X24965000Y-111090000D02*
X27650000Y-111090000D01*
%TO.C,LED7*%
X27650000Y-103295000D02*
X24965000Y-103295000D01*
X27650000Y-105215000D02*
X27650000Y-103295000D01*
X24965000Y-105215000D02*
X27650000Y-105215000D01*
%TO.C,LED6*%
X27655000Y-97460000D02*
X24970000Y-97460000D01*
X27655000Y-99380000D02*
X27655000Y-97460000D01*
X24970000Y-99380000D02*
X27655000Y-99380000D01*
%TO.C,LED5*%
X27665000Y-94565000D02*
X24980000Y-94565000D01*
X27665000Y-96485000D02*
X27665000Y-94565000D01*
X24980000Y-96485000D02*
X27665000Y-96485000D01*
%TO.C,LED4*%
X98485000Y-147285000D02*
X98485000Y-144600000D01*
X98485000Y-144600000D02*
X96565000Y-144600000D01*
X96565000Y-144600000D02*
X96565000Y-147285000D01*
%TO.C,LED3*%
X134900000Y-144796500D02*
X134900000Y-147481500D01*
X136820000Y-144796500D02*
X134900000Y-144796500D01*
X136820000Y-147481500D02*
X136820000Y-144796500D01*
%TO.C,LED2*%
X49925000Y-122155000D02*
X52610000Y-122155000D01*
X49925000Y-120235000D02*
X49925000Y-122155000D01*
X52610000Y-120235000D02*
X49925000Y-120235000D01*
%TO.C,LED1*%
X57015000Y-140185000D02*
X54330000Y-140185000D01*
X54330000Y-140185000D02*
X54330000Y-142105000D01*
X54330000Y-142105000D02*
X57015000Y-142105000D01*
%TO.C,L4*%
X42555000Y-137047122D02*
X42555000Y-136247878D01*
X43675000Y-137047122D02*
X43675000Y-136247878D01*
%TO.C,L3*%
X40330000Y-137062122D02*
X40330000Y-136262878D01*
X41450000Y-137062122D02*
X41450000Y-136262878D01*
%TO.C,L2*%
X132301000Y-92855000D02*
X113079000Y-92855000D01*
X132301000Y-46735000D02*
X113079000Y-46735000D01*
X113079000Y-71612000D02*
X113079000Y-92855000D01*
X113079000Y-46735000D02*
X113079000Y-67978000D01*
X132301000Y-71612000D02*
X132301000Y-92855000D01*
X132301000Y-46735000D02*
X132301000Y-67978000D01*
%TO.C,JP1*%
X39825000Y-142950000D02*
X38495000Y-142950000D01*
X43695000Y-142950000D02*
X43695000Y-140290000D01*
X41095000Y-142950000D02*
X43695000Y-142950000D01*
X41095000Y-142950000D02*
X41095000Y-140290000D01*
X38495000Y-142950000D02*
X38495000Y-141620000D01*
X41095000Y-140290000D02*
X43695000Y-140290000D01*
%TO.C,J6*%
X44230000Y-146157500D02*
X28360000Y-146157500D01*
X28360000Y-146157500D02*
X28360000Y-149232500D01*
X42810000Y-150747500D02*
X42810000Y-150247500D01*
X42790000Y-150747500D02*
X42810000Y-150747500D01*
X42810000Y-150247500D02*
X29780000Y-150247500D01*
X29780000Y-150747500D02*
X29800000Y-150747500D01*
X44230000Y-149232500D02*
X44230000Y-146157500D01*
X29780000Y-150247500D02*
X29780000Y-150747500D01*
%TO.C,J5*%
X44225000Y-154957500D02*
X28355000Y-154957500D01*
X28355000Y-154957500D02*
X28355000Y-158032500D01*
X42805000Y-159547500D02*
X42805000Y-159047500D01*
X42785000Y-159547500D02*
X42805000Y-159547500D01*
X42805000Y-159047500D02*
X29775000Y-159047500D01*
X29775000Y-159547500D02*
X29795000Y-159547500D01*
X44225000Y-158032500D02*
X44225000Y-154957500D01*
X29775000Y-159047500D02*
X29775000Y-159547500D01*
D10*
%TO.C,J4*%
X63175000Y-138047000D02*
X94515000Y-138047000D01*
X94515000Y-138047000D02*
X94515000Y-157351000D01*
X94515000Y-157351000D02*
X63175000Y-157351000D01*
X63175000Y-157351000D02*
X63175000Y-138047000D01*
%TO.C,J3*%
X100455000Y-138112000D02*
X131795000Y-138112000D01*
X131795000Y-138112000D02*
X131795000Y-157416000D01*
X131795000Y-157416000D02*
X100455000Y-157416000D01*
X100455000Y-157416000D02*
X100455000Y-138112000D01*
D14*
%TO.C,J2*%
X20665000Y-66705000D02*
X20665000Y-66725000D01*
X20665000Y-66725000D02*
X21165000Y-66725000D01*
X20665000Y-59695000D02*
X20665000Y-59715000D01*
X21165000Y-66725000D02*
X21165000Y-59695000D01*
X21165000Y-59695000D02*
X20665000Y-59695000D01*
X25255000Y-58275000D02*
X22180000Y-58275000D01*
X25255000Y-68145000D02*
X25255000Y-58275000D01*
X22180000Y-68145000D02*
X25255000Y-68145000D01*
%TO.C,J1*%
X57377500Y-157950000D02*
X57377500Y-154875000D01*
X57377500Y-154875000D02*
X47507500Y-154875000D01*
X47507500Y-154875000D02*
X47507500Y-157950000D01*
X48927500Y-158965000D02*
X48927500Y-159465000D01*
X55957500Y-158965000D02*
X48927500Y-158965000D01*
X48927500Y-159465000D02*
X48947500Y-159465000D01*
X55957500Y-159465000D02*
X55957500Y-158965000D01*
X55937500Y-159465000D02*
X55957500Y-159465000D01*
%TO.C,HS3*%
X76905000Y-92635000D02*
X76095000Y-87675000D01*
X103295000Y-74105000D02*
X106855000Y-72885000D01*
X78075000Y-68405000D02*
X78085000Y-79365000D01*
X102595000Y-89375000D02*
X106625000Y-92965000D01*
X69675000Y-86845000D02*
X66115000Y-88065000D01*
X65595000Y-92045000D02*
X69845000Y-87065000D01*
X94895000Y-92545000D02*
X94885000Y-81585000D01*
X103295000Y-86845000D02*
X106855000Y-88065000D01*
X76905000Y-68315000D02*
X76095000Y-73275000D01*
X69875000Y-92515000D02*
X70625000Y-89525000D01*
X96065000Y-68315000D02*
X96875000Y-73275000D01*
X94885000Y-79365000D02*
X86485000Y-79365000D01*
X107375000Y-68905000D02*
X103125000Y-73885000D01*
X65595000Y-68905000D02*
X69845000Y-73885000D01*
X103095000Y-68435000D02*
X102345000Y-71425000D01*
X69875000Y-68435000D02*
X70625000Y-71425000D01*
X107375000Y-87005000D02*
X100865000Y-81995000D01*
X65595000Y-87005000D02*
X72105000Y-81995000D01*
X78085000Y-79365000D02*
X86485000Y-79365000D01*
X78085000Y-81585000D02*
X86485000Y-81585000D01*
X96065000Y-92635000D02*
X96875000Y-87675000D01*
X70375000Y-89375000D02*
X66345000Y-92965000D01*
X74055000Y-73675000D02*
X70965000Y-68105000D01*
X98915000Y-87275000D02*
X102005000Y-92845000D01*
X94885000Y-81585000D02*
X86485000Y-81585000D01*
X70375000Y-71575000D02*
X66345000Y-67985000D01*
X107375000Y-73945000D02*
X100865000Y-78955000D01*
X98915000Y-73675000D02*
X102005000Y-68105000D01*
X103095000Y-92515000D02*
X102345000Y-89525000D01*
X74055000Y-87275000D02*
X70965000Y-92845000D01*
X94895000Y-68405000D02*
X94885000Y-79365000D01*
X102595000Y-71575000D02*
X106625000Y-67985000D01*
X78075000Y-92545000D02*
X78085000Y-81585000D01*
X69675000Y-74105000D02*
X66115000Y-72885000D01*
X107375000Y-92045000D02*
X103125000Y-87065000D01*
X65595000Y-73945000D02*
X72105000Y-78955000D01*
X96863489Y-73235662D02*
G75*
G03*
X98915000Y-73665000I1131511J290662D01*
G01*
X106605001Y-92944999D02*
G75*
G03*
X107368567Y-92044995I369999J459999D01*
G01*
X70622262Y-89548206D02*
G75*
G03*
X70375000Y-89365000I-137262J73206D01*
G01*
X70974999Y-68115001D02*
G75*
G03*
X69877747Y-68444286I-489999J-360000D01*
G01*
X102595000Y-89365000D02*
G75*
G03*
X102347646Y-89548033I-110000J-110000D01*
G01*
X65601639Y-92044810D02*
G75*
G03*
X66365000Y-92945000I393361J-440190D01*
G01*
X74055000Y-73665000D02*
G75*
G03*
X76106275Y-73236577I920000J720000D01*
G01*
X102347738Y-71401794D02*
G75*
G03*
X102595000Y-71585000I137262J-73206D01*
G01*
X76106511Y-87714338D02*
G75*
G03*
X74055000Y-87285000I-1131511J-290662D01*
G01*
X106845000Y-88065000D02*
G75*
G03*
X107367010Y-87004077I140000J590000D01*
G01*
X107368361Y-68905190D02*
G75*
G03*
X106605000Y-68005000I-393361J440190D01*
G01*
X101995001Y-92834999D02*
G75*
G03*
X103092253Y-92505714I489999J360000D01*
G01*
X96063495Y-68337341D02*
G75*
G03*
X94895000Y-68435000I-578495J-117659D01*
G01*
X107366246Y-73946541D02*
G75*
G03*
X106845000Y-72885000I-381245J471542D01*
G01*
X76906505Y-92612659D02*
G75*
G03*
X78075000Y-92515000I578495J117659D01*
G01*
X65603754Y-87003459D02*
G75*
G03*
X66125000Y-88065000I381245J-471542D01*
G01*
X66364999Y-68005001D02*
G75*
G03*
X65601433Y-68905005I-369999J-459999D01*
G01*
X103295000Y-86845000D02*
G75*
G03*
X103126005Y-87067844I-60000J-130000D01*
G01*
X103092296Y-68445134D02*
G75*
G03*
X101995000Y-68115000I-607296J-29867D01*
G01*
X70375000Y-71585000D02*
G75*
G03*
X70622354Y-71401967I110000J110000D01*
G01*
X69843994Y-87067846D02*
G75*
G03*
X69675000Y-86845000I-108994J92846D01*
G01*
X66125000Y-72885000D02*
G75*
G03*
X65602990Y-73945923I-140000J-590000D01*
G01*
X69877704Y-92504866D02*
G75*
G03*
X70975000Y-92835000I607296J29867D01*
G01*
X69675000Y-74105000D02*
G75*
G03*
X69843995Y-73882156I60000J130000D01*
G01*
X98915000Y-87285000D02*
G75*
G03*
X96863725Y-87713423I-920000J-720000D01*
G01*
X78075000Y-68435000D02*
G75*
G03*
X76906633Y-68336715I-590000J-20000D01*
G01*
X103126006Y-73882154D02*
G75*
G03*
X103295000Y-74105000I108994J-92846D01*
G01*
X94895000Y-92515000D02*
G75*
G03*
X96063367Y-92613285I590000J20000D01*
G01*
%TO.C,HS2*%
X107105000Y-35980000D02*
G75*
G03*
X107203285Y-34811633I-20000J590000D01*
G01*
X88472154Y-27748994D02*
G75*
G03*
X88695000Y-27580000I92846J108994D01*
G01*
X83025000Y-52800000D02*
G75*
G03*
X82926715Y-53968367I20000J-590000D01*
G01*
X101875000Y-31960000D02*
G75*
G03*
X102303423Y-34011275I720000J-920000D01*
G01*
X88695000Y-61200000D02*
G75*
G03*
X88472156Y-61031005I-130000J60000D01*
G01*
X107094866Y-60997296D02*
G75*
G03*
X107425000Y-59900000I-29867J607296D01*
G01*
X87475000Y-64750000D02*
G75*
G03*
X88535923Y-65272010I590000J-140000D01*
G01*
X101657846Y-61031006D02*
G75*
G03*
X101435000Y-61200000I-92846J-108994D01*
G01*
X86175000Y-60500000D02*
G75*
G03*
X85991967Y-60252646I-110000J110000D01*
G01*
X83035134Y-27782704D02*
G75*
G03*
X82705000Y-28880000I29867J-607296D01*
G01*
X101435000Y-27580000D02*
G75*
G03*
X101657844Y-27748995I130000J-60000D01*
G01*
X82595001Y-64510001D02*
G75*
G03*
X83495005Y-65273567I459999J-369999D01*
G01*
X101593459Y-65271246D02*
G75*
G03*
X102655000Y-64750000I471542J381245D01*
G01*
X107202659Y-53968495D02*
G75*
G03*
X107105000Y-52800000I-117659J578495D01*
G01*
X88536541Y-23508754D02*
G75*
G03*
X87475000Y-24030000I-471542J-381245D01*
G01*
X82927341Y-34811505D02*
G75*
G03*
X83025000Y-35980000I117659J-578495D01*
G01*
X107424999Y-28879999D02*
G75*
G03*
X107095714Y-27782747I-360000J489999D01*
G01*
X83495190Y-23506639D02*
G75*
G03*
X82595000Y-24270000I-440190J-393361D01*
G01*
X102655000Y-24030000D02*
G75*
G03*
X101594077Y-23507990I-590000J140000D01*
G01*
X102304338Y-54768489D02*
G75*
G03*
X101875000Y-56820000I290662J-1131511D01*
G01*
X85991794Y-28527262D02*
G75*
G03*
X86175000Y-28280000I73206J137262D01*
G01*
X88255000Y-56820000D02*
G75*
G03*
X87826577Y-54768725I-720000J920000D01*
G01*
X106634810Y-65273361D02*
G75*
G03*
X107535000Y-64510000I440190J393361D01*
G01*
X103955000Y-28280000D02*
G75*
G03*
X104138033Y-28527354I110000J-110000D01*
G01*
X82705001Y-59900001D02*
G75*
G03*
X83034286Y-60997253I360000J-489999D01*
G01*
X104138206Y-60252738D02*
G75*
G03*
X103955000Y-60500000I-73206J-137262D01*
G01*
X107534999Y-24269999D02*
G75*
G03*
X106634995Y-23506433I-459999J369999D01*
G01*
X87825662Y-34011511D02*
G75*
G03*
X88255000Y-31960000I-290662J1131511D01*
G01*
X88535000Y-65280000D02*
X93545000Y-58770000D01*
X106635000Y-23500000D02*
X101655000Y-27750000D01*
X88695000Y-61200000D02*
X87475000Y-64760000D01*
X107135000Y-52800000D02*
X96175000Y-52790000D01*
X86165000Y-28280000D02*
X82575000Y-24250000D01*
X82995000Y-35980000D02*
X93955000Y-35990000D01*
X101865000Y-56820000D02*
X107435000Y-59910000D01*
X107105000Y-27780000D02*
X104115000Y-28530000D01*
X88265000Y-31960000D02*
X82695000Y-28870000D01*
X88535000Y-23500000D02*
X93545000Y-30010000D01*
X86165000Y-60500000D02*
X82575000Y-64530000D01*
X96175000Y-35990000D02*
X96175000Y-44390000D01*
X101865000Y-31960000D02*
X107435000Y-28870000D01*
X88265000Y-56820000D02*
X82695000Y-59910000D01*
X103965000Y-60500000D02*
X107555000Y-64530000D01*
X107225000Y-34810000D02*
X102265000Y-34000000D01*
X96175000Y-52790000D02*
X96175000Y-44390000D01*
X93955000Y-52790000D02*
X93955000Y-44390000D01*
X101595000Y-65280000D02*
X96585000Y-58770000D01*
X101595000Y-23500000D02*
X96585000Y-30010000D01*
X83025000Y-61000000D02*
X86015000Y-60250000D01*
X83025000Y-27780000D02*
X86015000Y-28530000D01*
X83495000Y-65280000D02*
X88475000Y-61030000D01*
X83495000Y-23500000D02*
X88475000Y-27750000D01*
X93955000Y-35990000D02*
X93955000Y-44390000D01*
X82905000Y-34810000D02*
X87865000Y-34000000D01*
X107105000Y-61000000D02*
X104115000Y-60250000D01*
X82905000Y-53970000D02*
X87865000Y-54780000D01*
X101435000Y-27580000D02*
X102655000Y-24020000D01*
X107135000Y-35980000D02*
X96175000Y-35990000D01*
X106635000Y-65280000D02*
X101655000Y-61030000D01*
X101435000Y-61200000D02*
X102655000Y-64760000D01*
X103965000Y-28280000D02*
X107555000Y-24250000D01*
X82995000Y-52800000D02*
X93955000Y-52790000D01*
X88695000Y-27580000D02*
X87475000Y-24020000D01*
X107225000Y-53970000D02*
X102265000Y-54780000D01*
%TO.C,HS1*%
X79690000Y-53965000D02*
X74730000Y-54775000D01*
X61160000Y-27575000D02*
X59940000Y-24015000D01*
X55460000Y-52795000D02*
X66420000Y-52785000D01*
X76430000Y-28275000D02*
X80020000Y-24245000D01*
X73900000Y-61195000D02*
X75120000Y-64755000D01*
X79100000Y-65275000D02*
X74120000Y-61025000D01*
X79600000Y-35975000D02*
X68640000Y-35985000D01*
X73900000Y-27575000D02*
X75120000Y-24015000D01*
X55370000Y-53965000D02*
X60330000Y-54775000D01*
X79570000Y-60995000D02*
X76580000Y-60245000D01*
X55370000Y-34805000D02*
X60330000Y-33995000D01*
X66420000Y-35985000D02*
X66420000Y-44385000D01*
X55960000Y-23495000D02*
X60940000Y-27745000D01*
X55960000Y-65275000D02*
X60940000Y-61025000D01*
X55490000Y-27775000D02*
X58480000Y-28525000D01*
X55490000Y-60995000D02*
X58480000Y-60245000D01*
X74060000Y-23495000D02*
X69050000Y-30005000D01*
X74060000Y-65275000D02*
X69050000Y-58765000D01*
X66420000Y-52785000D02*
X66420000Y-44385000D01*
X68640000Y-52785000D02*
X68640000Y-44385000D01*
X79690000Y-34805000D02*
X74730000Y-33995000D01*
X76430000Y-60495000D02*
X80020000Y-64525000D01*
X60730000Y-56815000D02*
X55160000Y-59905000D01*
X74330000Y-31955000D02*
X79900000Y-28865000D01*
X68640000Y-35985000D02*
X68640000Y-44385000D01*
X58630000Y-60495000D02*
X55040000Y-64525000D01*
X61000000Y-23495000D02*
X66010000Y-30005000D01*
X60730000Y-31955000D02*
X55160000Y-28865000D01*
X79570000Y-27775000D02*
X76580000Y-28525000D01*
X74330000Y-56815000D02*
X79900000Y-59905000D01*
X55460000Y-35975000D02*
X66420000Y-35985000D01*
X58630000Y-28275000D02*
X55040000Y-24245000D01*
X79600000Y-52795000D02*
X68640000Y-52785000D01*
X61160000Y-61195000D02*
X59940000Y-64755000D01*
X79100000Y-23495000D02*
X74120000Y-27745000D01*
X61000000Y-65275000D02*
X66010000Y-58765000D01*
X60290662Y-34006511D02*
G75*
G03*
X60720000Y-31955000I-290662J1131511D01*
G01*
X79999999Y-24264999D02*
G75*
G03*
X79099995Y-23501433I-459999J369999D01*
G01*
X76603206Y-60247738D02*
G75*
G03*
X76420000Y-60495000I-73206J-137262D01*
G01*
X55170001Y-59895001D02*
G75*
G03*
X55499286Y-60992253I360000J-489999D01*
G01*
X76420000Y-28275000D02*
G75*
G03*
X76603033Y-28522354I110000J-110000D01*
G01*
X79099810Y-65268361D02*
G75*
G03*
X80000000Y-64505000I440190J393361D01*
G01*
X60720000Y-56815000D02*
G75*
G03*
X60291577Y-54763725I-720000J920000D01*
G01*
X58456794Y-28522262D02*
G75*
G03*
X58640000Y-28275000I73206J137262D01*
G01*
X74769338Y-54763489D02*
G75*
G03*
X74340000Y-56815000I290662J-1131511D01*
G01*
X75120000Y-24025000D02*
G75*
G03*
X74059077Y-23502990I-590000J140000D01*
G01*
X55960190Y-23501639D02*
G75*
G03*
X55060000Y-24265000I-440190J-393361D01*
G01*
X79889999Y-28874999D02*
G75*
G03*
X79560714Y-27777747I-360000J489999D01*
G01*
X55392341Y-34806505D02*
G75*
G03*
X55490000Y-35975000I117659J-578495D01*
G01*
X61001541Y-23503754D02*
G75*
G03*
X59940000Y-24025000I-471542J-381245D01*
G01*
X79667659Y-53963495D02*
G75*
G03*
X79570000Y-52795000I-117659J578495D01*
G01*
X74058459Y-65266246D02*
G75*
G03*
X75120000Y-64745000I471542J381245D01*
G01*
X55060001Y-64505001D02*
G75*
G03*
X55960005Y-65268567I459999J-369999D01*
G01*
X73900000Y-27575000D02*
G75*
G03*
X74122844Y-27743995I130000J-60000D01*
G01*
X55500134Y-27777704D02*
G75*
G03*
X55170000Y-28875000I29867J-607296D01*
G01*
X58640000Y-60495000D02*
G75*
G03*
X58456967Y-60247646I-110000J110000D01*
G01*
X74122846Y-61026006D02*
G75*
G03*
X73900000Y-61195000I-92846J-108994D01*
G01*
X59940000Y-64745000D02*
G75*
G03*
X61000923Y-65267010I590000J-140000D01*
G01*
X79559866Y-60992296D02*
G75*
G03*
X79890000Y-59895000I-29867J607296D01*
G01*
X61160000Y-61195000D02*
G75*
G03*
X60937156Y-61026005I-130000J60000D01*
G01*
X74340000Y-31955000D02*
G75*
G03*
X74768423Y-34006275I720000J-920000D01*
G01*
X55490000Y-52795000D02*
G75*
G03*
X55391715Y-53963367I20000J-590000D01*
G01*
X60937154Y-27743994D02*
G75*
G03*
X61160000Y-27575000I92846J108994D01*
G01*
X79570000Y-35975000D02*
G75*
G03*
X79668285Y-34806633I-20000J590000D01*
G01*
%TO.C,F2*%
X66045000Y-137055000D02*
X66045000Y-126855000D01*
X92245000Y-137055000D02*
X66045000Y-137055000D01*
X92245000Y-126855000D02*
X92245000Y-137055000D01*
X66045000Y-126855000D02*
X92245000Y-126855000D01*
%TO.C,F1*%
X126670000Y-136974000D02*
X100470000Y-136974000D01*
X100470000Y-136974000D02*
X100470000Y-126774000D01*
X100470000Y-126774000D02*
X126670000Y-126774000D01*
X126670000Y-126774000D02*
X126670000Y-136974000D01*
%TO.C,D6*%
X91610000Y-77470000D02*
X81370000Y-77470000D01*
X88340000Y-78980000D02*
X88340000Y-77470000D01*
X91610000Y-74339000D02*
X81370000Y-74339000D01*
X84639000Y-78980000D02*
X84639000Y-77470000D01*
X91610000Y-78980000D02*
X91610000Y-74339000D01*
X81370000Y-78980000D02*
X81370000Y-74339000D01*
X91610000Y-78980000D02*
X81370000Y-78980000D01*
%TO.C,D5*%
X81370000Y-83495000D02*
X91610000Y-83495000D01*
X84640000Y-81985000D02*
X84640000Y-83495000D01*
X81370000Y-86626000D02*
X91610000Y-86626000D01*
X88341000Y-81985000D02*
X88341000Y-83495000D01*
X81370000Y-81985000D02*
X81370000Y-86626000D01*
X91610000Y-81985000D02*
X91610000Y-86626000D01*
X81370000Y-81985000D02*
X91610000Y-81985000D01*
%TO.C,D4*%
X93540000Y-39325000D02*
X93540000Y-49565000D01*
X93540000Y-49565000D02*
X88899000Y-49565000D01*
X93540000Y-39325000D02*
X88899000Y-39325000D01*
X93540000Y-46296000D02*
X92030000Y-46296000D01*
X88899000Y-39325000D02*
X88899000Y-49565000D01*
X93540000Y-42595000D02*
X92030000Y-42595000D01*
X92030000Y-39325000D02*
X92030000Y-49565000D01*
%TO.C,CP2*%
X64185000Y-111659000D02*
X64185000Y-108631000D01*
X65745000Y-116954000D02*
X65745000Y-103336000D01*
X68505000Y-120768000D02*
X68505000Y-99522000D01*
X70905000Y-122731000D02*
X70905000Y-97559000D01*
X65705000Y-116875000D02*
X65705000Y-103415000D01*
X74544000Y-107905000D02*
X74544000Y-95807000D01*
X64545000Y-113727000D02*
X64545000Y-106563000D01*
X73264000Y-124001000D02*
X73264000Y-112385000D01*
X65505000Y-116460000D02*
X65505000Y-103830000D01*
X75664000Y-107905000D02*
X75664000Y-95490000D01*
X73344000Y-124035000D02*
X73344000Y-112385000D01*
X72784000Y-107905000D02*
X72784000Y-96505000D01*
X76944000Y-125053000D02*
X76944000Y-95237000D01*
X79105000Y-125225000D02*
X79105000Y-95065000D01*
X75584000Y-124781000D02*
X75584000Y-112385000D01*
X69745000Y-121884000D02*
X69745000Y-98406000D01*
X65665000Y-116794000D02*
X65665000Y-103496000D01*
X74424000Y-107905000D02*
X74424000Y-95847000D01*
X76864000Y-125040000D02*
X76864000Y-95250000D01*
X71784000Y-123268000D02*
X71784000Y-97022000D01*
X75224000Y-124687000D02*
X75224000Y-112385000D01*
X76384000Y-107905000D02*
X76384000Y-95334000D01*
X76384000Y-124956000D02*
X76384000Y-112385000D01*
X72704000Y-107905000D02*
X72704000Y-96543000D01*
X75824000Y-107905000D02*
X75824000Y-95452000D01*
X74864000Y-124583000D02*
X74864000Y-112385000D01*
X73784000Y-107905000D02*
X73784000Y-96077000D01*
X72544000Y-123670000D02*
X72544000Y-112385000D01*
X71424000Y-123058000D02*
X71424000Y-97232000D01*
X79225000Y-125226000D02*
X79225000Y-95064000D01*
X73704000Y-124182000D02*
X73704000Y-112385000D01*
X77864000Y-125164000D02*
X77864000Y-95126000D01*
X68865000Y-121118000D02*
X68865000Y-99172000D01*
X78865000Y-125221000D02*
X78865000Y-95069000D01*
X66145000Y-117690000D02*
X66145000Y-102600000D01*
X75944000Y-107905000D02*
X75944000Y-95425000D01*
X77584000Y-125136000D02*
X77584000Y-95154000D01*
X78384000Y-125202000D02*
X78384000Y-95088000D01*
X76304000Y-124941000D02*
X76304000Y-112385000D01*
X73984000Y-107905000D02*
X73984000Y-96002000D01*
X75904000Y-124856000D02*
X75904000Y-112385000D01*
X72664000Y-107905000D02*
X72664000Y-96562000D01*
X72744000Y-107905000D02*
X72744000Y-96523000D01*
X70825000Y-122677000D02*
X70825000Y-97613000D01*
X71864000Y-123313000D02*
X71864000Y-96977000D01*
X74504000Y-124470000D02*
X74504000Y-112385000D01*
X68425000Y-120687000D02*
X68425000Y-99603000D01*
X71664000Y-123200000D02*
X71664000Y-97090000D01*
X75584000Y-107905000D02*
X75584000Y-95509000D01*
X68265000Y-120521000D02*
X68265000Y-99769000D01*
X78104000Y-125184000D02*
X78104000Y-95106000D01*
X78344000Y-125200000D02*
X78344000Y-95090000D01*
X65945000Y-117334000D02*
X65945000Y-102956000D01*
X73304000Y-107905000D02*
X73304000Y-96272000D01*
X70385000Y-122372000D02*
X70385000Y-97918000D01*
X73464000Y-107905000D02*
X73464000Y-96205000D01*
X77944000Y-125171000D02*
X77944000Y-95119000D01*
X70945000Y-122757000D02*
X70945000Y-97533000D01*
X72344000Y-107905000D02*
X72344000Y-96720000D01*
X75464000Y-107905000D02*
X75464000Y-95539000D01*
X74024000Y-124303000D02*
X74024000Y-112385000D01*
X76464000Y-124971000D02*
X76464000Y-112385000D01*
X67545000Y-119707000D02*
X67545000Y-100583000D01*
X68665000Y-120927000D02*
X68665000Y-99363000D01*
X78464000Y-125206000D02*
X78464000Y-95084000D01*
X73184000Y-123967000D02*
X73184000Y-112385000D01*
X70025000Y-122104000D02*
X70025000Y-98186000D01*
X73624000Y-107905000D02*
X73624000Y-96140000D01*
X75424000Y-107905000D02*
X75424000Y-95550000D01*
X71984000Y-123379000D02*
X71984000Y-96911000D01*
X69185000Y-121411000D02*
X69185000Y-98879000D01*
X75984000Y-124874000D02*
X75984000Y-112385000D01*
X66065000Y-117551000D02*
X66065000Y-102739000D01*
X65825000Y-117109000D02*
X65825000Y-103181000D01*
X69265000Y-121481000D02*
X69265000Y-98809000D01*
X65425000Y-116284000D02*
X65425000Y-104006000D01*
X65385000Y-116194000D02*
X65385000Y-104096000D01*
X71824000Y-123291000D02*
X71824000Y-96999000D01*
X78424000Y-125204000D02*
X78424000Y-95086000D01*
X75264000Y-107905000D02*
X75264000Y-95592000D01*
X68385000Y-120646000D02*
X68385000Y-99644000D01*
X77464000Y-125123000D02*
X77464000Y-95167000D01*
X74464000Y-107905000D02*
X74464000Y-95833000D01*
X69625000Y-121787000D02*
X69625000Y-98503000D01*
X69865000Y-121980000D02*
X69865000Y-98310000D01*
X74304000Y-107905000D02*
X74304000Y-95887000D01*
X71944000Y-123358000D02*
X71944000Y-96932000D01*
X70105000Y-122165000D02*
X70105000Y-98125000D01*
X76104000Y-107905000D02*
X76104000Y-95390000D01*
X75024000Y-124630000D02*
X75024000Y-112385000D01*
X73584000Y-124134000D02*
X73584000Y-112385000D01*
X65545000Y-116545000D02*
X65545000Y-103745000D01*
X78825000Y-125220000D02*
X78825000Y-95070000D01*
X73024000Y-107905000D02*
X73024000Y-96394000D01*
X75984000Y-107905000D02*
X75984000Y-95416000D01*
X72184000Y-107905000D02*
X72184000Y-96803000D01*
X77384000Y-125113000D02*
X77384000Y-95177000D01*
X78064000Y-125181000D02*
X78064000Y-95109000D01*
X71744000Y-123246000D02*
X71744000Y-97044000D01*
X76544000Y-124986000D02*
X76544000Y-95304000D01*
X70785000Y-122651000D02*
X70785000Y-97639000D01*
X75864000Y-124847000D02*
X75864000Y-112385000D01*
X74424000Y-124443000D02*
X74424000Y-112385000D01*
X78224000Y-125192000D02*
X78224000Y-95098000D01*
X75864000Y-107905000D02*
X75864000Y-95443000D01*
X67585000Y-119756000D02*
X67585000Y-100534000D01*
X65105000Y-115513000D02*
X65105000Y-104777000D01*
X70985000Y-122783000D02*
X70985000Y-97507000D01*
X66225000Y-117827000D02*
X66225000Y-102463000D01*
X76424000Y-124964000D02*
X76424000Y-112385000D01*
X76064000Y-124892000D02*
X76064000Y-112385000D01*
X79145000Y-125225000D02*
X79145000Y-95065000D01*
X69665000Y-121820000D02*
X69665000Y-98470000D01*
X68945000Y-121193000D02*
X68945000Y-99097000D01*
X78184000Y-125190000D02*
X78184000Y-95100000D01*
X73024000Y-123896000D02*
X73024000Y-112385000D01*
X67665000Y-119851000D02*
X67665000Y-100439000D01*
X66345000Y-118025000D02*
X66345000Y-102265000D01*
X75944000Y-124865000D02*
X75944000Y-112385000D01*
X72744000Y-123767000D02*
X72744000Y-112385000D01*
X73224000Y-107905000D02*
X73224000Y-96306000D01*
X70265000Y-122285000D02*
X70265000Y-98005000D01*
X76584000Y-124993000D02*
X76584000Y-95297000D01*
X67905000Y-120129000D02*
X67905000Y-100161000D01*
X77704000Y-125149000D02*
X77704000Y-95141000D01*
X66705000Y-118583000D02*
X66705000Y-101707000D01*
X66825000Y-118757000D02*
X66825000Y-101533000D01*
X72704000Y-123747000D02*
X72704000Y-112385000D01*
X67745000Y-119945000D02*
X67745000Y-100345000D01*
X66585000Y-118403000D02*
X66585000Y-101887000D01*
X67985000Y-120219000D02*
X67985000Y-100071000D01*
X67225000Y-119304000D02*
X67225000Y-100986000D01*
X74504000Y-107905000D02*
X74504000Y-95820000D01*
X78785000Y-125219000D02*
X78785000Y-95071000D01*
X75344000Y-124719000D02*
X75344000Y-112385000D01*
X77744000Y-125153000D02*
X77744000Y-95137000D01*
X75144000Y-107905000D02*
X75144000Y-95625000D01*
X72024000Y-107905000D02*
X72024000Y-96889000D01*
X74584000Y-107905000D02*
X74584000Y-95794000D01*
X66025000Y-117479000D02*
X66025000Y-102811000D01*
X74264000Y-107905000D02*
X74264000Y-95901000D01*
X75744000Y-107905000D02*
X75744000Y-95470000D01*
X66665000Y-118523000D02*
X66665000Y-101767000D01*
X67825000Y-120038000D02*
X67825000Y-100252000D01*
X74824000Y-107905000D02*
X74824000Y-95719000D01*
X66265000Y-117893000D02*
X66265000Y-102397000D01*
X64505000Y-113560000D02*
X64505000Y-106730000D01*
X70305000Y-122314000D02*
X70305000Y-97976000D01*
X73464000Y-124085000D02*
X73464000Y-112385000D01*
X72824000Y-107905000D02*
X72824000Y-96486000D01*
X64825000Y-114716000D02*
X64825000Y-105574000D01*
X69705000Y-121852000D02*
X69705000Y-98438000D01*
X66385000Y-118090000D02*
X66385000Y-102200000D01*
X73424000Y-107905000D02*
X73424000Y-96221000D01*
X75544000Y-107905000D02*
X75544000Y-95519000D01*
X65465000Y-116373000D02*
X65465000Y-103917000D01*
X75104000Y-124653000D02*
X75104000Y-112385000D01*
X73144000Y-107905000D02*
X73144000Y-96341000D01*
X68585000Y-120848000D02*
X68585000Y-99442000D01*
X71144000Y-122885000D02*
X71144000Y-97405000D01*
X72344000Y-123570000D02*
X72344000Y-112385000D01*
X64985000Y-115188000D02*
X64985000Y-105102000D01*
X67705000Y-119899000D02*
X67705000Y-100391000D01*
X74064000Y-124318000D02*
X74064000Y-112385000D01*
X70185000Y-122225000D02*
X70185000Y-98065000D01*
X74304000Y-124403000D02*
X74304000Y-112385000D01*
X69225000Y-121446000D02*
X69225000Y-98844000D01*
X75464000Y-124751000D02*
X75464000Y-112385000D01*
X65225000Y-115816000D02*
X65225000Y-104474000D01*
X77024000Y-125065000D02*
X77024000Y-95225000D01*
X71504000Y-123106000D02*
X71504000Y-97184000D01*
X69305000Y-121516000D02*
X69305000Y-98774000D01*
X72584000Y-123689000D02*
X72584000Y-112385000D01*
X67265000Y-119356000D02*
X67265000Y-100934000D01*
X73864000Y-124244000D02*
X73864000Y-112385000D01*
X72624000Y-107905000D02*
X72624000Y-96581000D01*
X67785000Y-119992000D02*
X67785000Y-100298000D01*
X78705000Y-125217000D02*
X78705000Y-95073000D01*
X65985000Y-117407000D02*
X65985000Y-102883000D01*
X74104000Y-124332000D02*
X74104000Y-112385000D01*
X74224000Y-124375000D02*
X74224000Y-112385000D01*
X76024000Y-124883000D02*
X76024000Y-112385000D01*
X76224000Y-124925000D02*
X76224000Y-112385000D01*
X70745000Y-122624000D02*
X70745000Y-97666000D01*
X77664000Y-125145000D02*
X77664000Y-95145000D01*
X71184000Y-122911000D02*
X71184000Y-97379000D01*
X76904000Y-125046000D02*
X76904000Y-95244000D01*
X72424000Y-123610000D02*
X72424000Y-112385000D01*
X78745000Y-125218000D02*
X78745000Y-95072000D01*
X69945000Y-122043000D02*
X69945000Y-98247000D01*
X65625000Y-116713000D02*
X65625000Y-103577000D01*
X71624000Y-123177000D02*
X71624000Y-97113000D01*
X66185000Y-117759000D02*
X66185000Y-102531000D01*
X64625000Y-114037000D02*
X64625000Y-106253000D01*
X72544000Y-107905000D02*
X72544000Y-96620000D01*
X73104000Y-123932000D02*
X73104000Y-112385000D01*
X64305000Y-112557000D02*
X64305000Y-107733000D01*
X73704000Y-107905000D02*
X73704000Y-96108000D01*
X71064000Y-122835000D02*
X71064000Y-97455000D01*
X74784000Y-124559000D02*
X74784000Y-112385000D01*
X65785000Y-117032000D02*
X65785000Y-103258000D01*
X75624000Y-124791000D02*
X75624000Y-112385000D01*
X66425000Y-118154000D02*
X66425000Y-102136000D01*
X73424000Y-124069000D02*
X73424000Y-112385000D01*
X75824000Y-124838000D02*
X75824000Y-112385000D01*
X73824000Y-124228000D02*
X73824000Y-112385000D01*
X66105000Y-117621000D02*
X66105000Y-102669000D01*
X73544000Y-124118000D02*
X73544000Y-112385000D01*
X73504000Y-124102000D02*
X73504000Y-112385000D01*
X73904000Y-107905000D02*
X73904000Y-96031000D01*
X65065000Y-115407000D02*
X65065000Y-104883000D01*
X75904000Y-107905000D02*
X75904000Y-95434000D01*
X69985000Y-122074000D02*
X69985000Y-98216000D01*
X67065000Y-119092000D02*
X67065000Y-101198000D01*
X74904000Y-107905000D02*
X74904000Y-95695000D01*
X64145000Y-111205000D02*
X64145000Y-109085000D01*
X76264000Y-107905000D02*
X76264000Y-95357000D01*
X73264000Y-107905000D02*
X73264000Y-96289000D01*
X64345000Y-112789000D02*
X64345000Y-107501000D01*
X64665000Y-114182000D02*
X64665000Y-106108000D01*
X70585000Y-122514000D02*
X70585000Y-97776000D01*
X70345000Y-122343000D02*
X70345000Y-97947000D01*
X68305000Y-120563000D02*
X68305000Y-99727000D01*
X77144000Y-125082000D02*
X77144000Y-95208000D01*
X73944000Y-107905000D02*
X73944000Y-96016000D01*
X64745000Y-114458000D02*
X64745000Y-105832000D01*
X73064000Y-107905000D02*
X73064000Y-96376000D01*
X68025000Y-120263000D02*
X68025000Y-100027000D01*
X71904000Y-123335000D02*
X71904000Y-96955000D01*
X73064000Y-123914000D02*
X73064000Y-112385000D01*
X66545000Y-118342000D02*
X66545000Y-101948000D01*
X73664000Y-107905000D02*
X73664000Y-96124000D01*
X71025000Y-122809000D02*
X71025000Y-97481000D01*
X76984000Y-125059000D02*
X76984000Y-95231000D01*
X74064000Y-107905000D02*
X74064000Y-95972000D01*
X72944000Y-123860000D02*
X72944000Y-112385000D01*
X73864000Y-107905000D02*
X73864000Y-96046000D01*
X74344000Y-107905000D02*
X74344000Y-95874000D01*
X66785000Y-118700000D02*
X66785000Y-101590000D01*
X74784000Y-107905000D02*
X74784000Y-95731000D01*
X74384000Y-107905000D02*
X74384000Y-95860000D01*
X70705000Y-122596000D02*
X70705000Y-97694000D01*
X73304000Y-124018000D02*
X73304000Y-112385000D01*
X68785000Y-121043000D02*
X68785000Y-99247000D01*
X73824000Y-107905000D02*
X73824000Y-96062000D01*
X78264000Y-125195000D02*
X78264000Y-95095000D01*
X64105000Y-110185000D02*
X64105000Y-110105000D01*
X74144000Y-107905000D02*
X74144000Y-95943000D01*
X74144000Y-124347000D02*
X74144000Y-112385000D01*
X73144000Y-123949000D02*
X73144000Y-112385000D01*
X75024000Y-107905000D02*
X75024000Y-95660000D01*
X75744000Y-124820000D02*
X75744000Y-112385000D01*
X65025000Y-115299000D02*
X65025000Y-104991000D01*
X76624000Y-125000000D02*
X76624000Y-95290000D01*
X77984000Y-125175000D02*
X77984000Y-95115000D01*
X69465000Y-121654000D02*
X69465000Y-98636000D01*
X77544000Y-125132000D02*
X77544000Y-95158000D01*
X75784000Y-124829000D02*
X75784000Y-112385000D01*
X75064000Y-124642000D02*
X75064000Y-112385000D01*
X71224000Y-122936000D02*
X71224000Y-97354000D01*
X74584000Y-124496000D02*
X74584000Y-112385000D01*
X66945000Y-118927000D02*
X66945000Y-101363000D01*
X72024000Y-123401000D02*
X72024000Y-112385000D01*
X76504000Y-124979000D02*
X76504000Y-95311000D01*
X70065000Y-122135000D02*
X70065000Y-98155000D01*
X71104000Y-122860000D02*
X71104000Y-97430000D01*
X72864000Y-107905000D02*
X72864000Y-96467000D01*
X70465000Y-122429000D02*
X70465000Y-97861000D01*
X74904000Y-124595000D02*
X74904000Y-112385000D01*
X73384000Y-124052000D02*
X73384000Y-112385000D01*
X73664000Y-124166000D02*
X73664000Y-112385000D01*
X71544000Y-123130000D02*
X71544000Y-97160000D01*
X75184000Y-124676000D02*
X75184000Y-112385000D01*
X70225000Y-122255000D02*
X70225000Y-98035000D01*
X77104000Y-125076000D02*
X77104000Y-95214000D01*
X72224000Y-107905000D02*
X72224000Y-96782000D01*
X74944000Y-124607000D02*
X74944000Y-112385000D01*
X66465000Y-118217000D02*
X66465000Y-102073000D01*
X72464000Y-107905000D02*
X72464000Y-96660000D01*
X77064000Y-125070000D02*
X77064000Y-95220000D01*
X73344000Y-107905000D02*
X73344000Y-96255000D01*
X73784000Y-124213000D02*
X73784000Y-112385000D01*
X78024000Y-125178000D02*
X78024000Y-95112000D01*
X75304000Y-124709000D02*
X75304000Y-112385000D01*
X72384000Y-123590000D02*
X72384000Y-112385000D01*
X68545000Y-120808000D02*
X68545000Y-99482000D01*
X74944000Y-107905000D02*
X74944000Y-95683000D01*
X65185000Y-115717000D02*
X65185000Y-104573000D01*
X72984000Y-107905000D02*
X72984000Y-96412000D01*
X72864000Y-123823000D02*
X72864000Y-112385000D01*
X72144000Y-107905000D02*
X72144000Y-96825000D01*
X73744000Y-107905000D02*
X73744000Y-96093000D01*
X74544000Y-124483000D02*
X74544000Y-112385000D01*
X75704000Y-107905000D02*
X75704000Y-95480000D01*
X68105000Y-120350000D02*
X68105000Y-99940000D01*
X72504000Y-107905000D02*
X72504000Y-96640000D01*
X76184000Y-124917000D02*
X76184000Y-112385000D01*
X75384000Y-107905000D02*
X75384000Y-95560000D01*
X74224000Y-107905000D02*
X74224000Y-95915000D01*
X69425000Y-121620000D02*
X69425000Y-98670000D01*
X78585000Y-125212000D02*
X78585000Y-95078000D01*
X76224000Y-107905000D02*
X76224000Y-95365000D01*
X77424000Y-125118000D02*
X77424000Y-95172000D01*
X74744000Y-107905000D02*
X74744000Y-95743000D01*
X79065000Y-125225000D02*
X79065000Y-95065000D01*
X69065000Y-121303000D02*
X69065000Y-98987000D01*
X68225000Y-120479000D02*
X68225000Y-99811000D01*
X64385000Y-113002000D02*
X64385000Y-107288000D01*
X69585000Y-121754000D02*
X69585000Y-98536000D01*
X69825000Y-121948000D02*
X69825000Y-98342000D01*
X72584000Y-107905000D02*
X72584000Y-96601000D01*
X67345000Y-119459000D02*
X67345000Y-100831000D01*
X73904000Y-124259000D02*
X73904000Y-112385000D01*
X76704000Y-125014000D02*
X76704000Y-95276000D01*
X67185000Y-119252000D02*
X67185000Y-101038000D01*
X66745000Y-118642000D02*
X66745000Y-101648000D01*
X68985000Y-121230000D02*
X68985000Y-99060000D01*
X66625000Y-118463000D02*
X66625000Y-101827000D01*
X75424000Y-124740000D02*
X75424000Y-112385000D01*
X72904000Y-123841000D02*
X72904000Y-112385000D01*
X67625000Y-119804000D02*
X67625000Y-100486000D01*
X68705000Y-120966000D02*
X68705000Y-99324000D01*
X74864000Y-107905000D02*
X74864000Y-95707000D01*
X76144000Y-107905000D02*
X76144000Y-95382000D01*
X75344000Y-107905000D02*
X75344000Y-95571000D01*
X66505000Y-118280000D02*
X66505000Y-102010000D01*
X75704000Y-124810000D02*
X75704000Y-112385000D01*
X64465000Y-113385000D02*
X64465000Y-106905000D01*
X74264000Y-124389000D02*
X74264000Y-112385000D01*
X67145000Y-119199000D02*
X67145000Y-101091000D01*
X72064000Y-123423000D02*
X72064000Y-112385000D01*
X72264000Y-123528000D02*
X72264000Y-112385000D01*
X72104000Y-123444000D02*
X72104000Y-112385000D01*
X64945000Y-115075000D02*
X64945000Y-105215000D01*
X74984000Y-124619000D02*
X74984000Y-112385000D01*
X74824000Y-124571000D02*
X74824000Y-112385000D01*
X79025000Y-125224000D02*
X79025000Y-95066000D01*
X67105000Y-119145000D02*
X67105000Y-101145000D01*
X78625000Y-125214000D02*
X78625000Y-95076000D01*
X73744000Y-124197000D02*
X73744000Y-112385000D01*
X76464000Y-107905000D02*
X76464000Y-95319000D01*
X67025000Y-119037000D02*
X67025000Y-101253000D01*
X74184000Y-124361000D02*
X74184000Y-112385000D01*
X72064000Y-107905000D02*
X72064000Y-96867000D01*
X68065000Y-120307000D02*
X68065000Y-99983000D01*
X72424000Y-107905000D02*
X72424000Y-96680000D01*
X73544000Y-107905000D02*
X73544000Y-96172000D01*
X70545000Y-122486000D02*
X70545000Y-97804000D01*
X69545000Y-121721000D02*
X69545000Y-98569000D01*
X74464000Y-124457000D02*
X74464000Y-112385000D01*
X76744000Y-125021000D02*
X76744000Y-95269000D01*
X64705000Y-114323000D02*
X64705000Y-105967000D01*
X71264000Y-122961000D02*
X71264000Y-97329000D01*
X66985000Y-118982000D02*
X66985000Y-101308000D01*
X72184000Y-123487000D02*
X72184000Y-112385000D01*
X74024000Y-107905000D02*
X74024000Y-95987000D01*
X67385000Y-119509000D02*
X67385000Y-100781000D01*
X75224000Y-107905000D02*
X75224000Y-95603000D01*
X75144000Y-124665000D02*
X75144000Y-112385000D01*
X65345000Y-116102000D02*
X65345000Y-104188000D01*
X74344000Y-124416000D02*
X74344000Y-112385000D01*
X72224000Y-123508000D02*
X72224000Y-112385000D01*
X64865000Y-114839000D02*
X64865000Y-105451000D01*
X74664000Y-124521000D02*
X74664000Y-112385000D01*
X72384000Y-107905000D02*
X72384000Y-96700000D01*
X74744000Y-124547000D02*
X74744000Y-112385000D01*
X68185000Y-120437000D02*
X68185000Y-99853000D01*
X64585000Y-113885000D02*
X64585000Y-106405000D01*
X75504000Y-107905000D02*
X75504000Y-95529000D01*
X72624000Y-123709000D02*
X72624000Y-112385000D01*
X77784000Y-125157000D02*
X77784000Y-95133000D01*
X69785000Y-121917000D02*
X69785000Y-98373000D01*
X67425000Y-119559000D02*
X67425000Y-100731000D01*
X77824000Y-125161000D02*
X77824000Y-95129000D01*
X68745000Y-121004000D02*
X68745000Y-99286000D01*
X68345000Y-120605000D02*
X68345000Y-99685000D01*
X65305000Y-116009000D02*
X65305000Y-104281000D01*
X95404131Y-118620000D02*
X92404131Y-118620000D01*
X68465000Y-120728000D02*
X68465000Y-99562000D01*
X71584000Y-123153000D02*
X71584000Y-97137000D01*
X72264000Y-107905000D02*
X72264000Y-96762000D01*
X70865000Y-122704000D02*
X70865000Y-97586000D01*
X77344000Y-125108000D02*
X77344000Y-95182000D01*
X74624000Y-124509000D02*
X74624000Y-112385000D01*
X69025000Y-121267000D02*
X69025000Y-99023000D01*
X64425000Y-113200000D02*
X64425000Y-107090000D01*
X66905000Y-118871000D02*
X66905000Y-101419000D01*
X72104000Y-107905000D02*
X72104000Y-96846000D01*
X65905000Y-117260000D02*
X65905000Y-103030000D01*
X75304000Y-107905000D02*
X75304000Y-95581000D01*
X78545000Y-125210000D02*
X78545000Y-95080000D01*
X72984000Y-123878000D02*
X72984000Y-112385000D01*
X69345000Y-121551000D02*
X69345000Y-98739000D01*
X74704000Y-124534000D02*
X74704000Y-112385000D01*
X69105000Y-121339000D02*
X69105000Y-98951000D01*
X72144000Y-123465000D02*
X72144000Y-112385000D01*
X72304000Y-107905000D02*
X72304000Y-96741000D01*
X75384000Y-124730000D02*
X75384000Y-112385000D01*
X77264000Y-125098000D02*
X77264000Y-95192000D01*
X73184000Y-107905000D02*
X73184000Y-96323000D01*
X66865000Y-118814000D02*
X66865000Y-101476000D01*
X75184000Y-107905000D02*
X75184000Y-95614000D01*
X75544000Y-124771000D02*
X75544000Y-112385000D01*
X71304000Y-122985000D02*
X71304000Y-97305000D01*
X76264000Y-124933000D02*
X76264000Y-112385000D01*
X69905000Y-122011000D02*
X69905000Y-98279000D01*
X79185000Y-125225000D02*
X79185000Y-95065000D01*
X75664000Y-124800000D02*
X75664000Y-112385000D01*
X64265000Y-112299000D02*
X64265000Y-107991000D01*
X77504000Y-125127000D02*
X77504000Y-95163000D01*
X72504000Y-123650000D02*
X72504000Y-112385000D01*
X76064000Y-107905000D02*
X76064000Y-95398000D01*
X74984000Y-107905000D02*
X74984000Y-95671000D01*
X72944000Y-107905000D02*
X72944000Y-96430000D01*
X76784000Y-125027000D02*
X76784000Y-95263000D01*
X72664000Y-123728000D02*
X72664000Y-112385000D01*
X72464000Y-123630000D02*
X72464000Y-112385000D01*
X76184000Y-107905000D02*
X76184000Y-95373000D01*
X77184000Y-125087000D02*
X77184000Y-95203000D01*
X70425000Y-122401000D02*
X70425000Y-97889000D01*
X74664000Y-107905000D02*
X74664000Y-95769000D01*
X64785000Y-114589000D02*
X64785000Y-105701000D01*
X73384000Y-107905000D02*
X73384000Y-96238000D01*
X75784000Y-107905000D02*
X75784000Y-95461000D01*
X72784000Y-123785000D02*
X72784000Y-112385000D01*
X68145000Y-120394000D02*
X68145000Y-99896000D01*
X93904131Y-120120000D02*
X93904131Y-117120000D01*
X72304000Y-123549000D02*
X72304000Y-112385000D01*
X75064000Y-107905000D02*
X75064000Y-95648000D01*
X73984000Y-124288000D02*
X73984000Y-112385000D01*
X67465000Y-119609000D02*
X67465000Y-100681000D01*
X64905000Y-114959000D02*
X64905000Y-105331000D01*
X78144000Y-125187000D02*
X78144000Y-95103000D01*
X69505000Y-121687000D02*
X69505000Y-98603000D01*
X65865000Y-117185000D02*
X65865000Y-103105000D01*
X76664000Y-125007000D02*
X76664000Y-95283000D01*
X76824000Y-125034000D02*
X76824000Y-95256000D01*
X77304000Y-125103000D02*
X77304000Y-95187000D01*
X69145000Y-121375000D02*
X69145000Y-98915000D01*
X65265000Y-115913000D02*
X65265000Y-104377000D01*
X73624000Y-124150000D02*
X73624000Y-112385000D01*
X67945000Y-120174000D02*
X67945000Y-100116000D01*
X70665000Y-122569000D02*
X70665000Y-97721000D01*
X74624000Y-107905000D02*
X74624000Y-95781000D01*
X68625000Y-120888000D02*
X68625000Y-99402000D01*
X64225000Y-112007000D02*
X64225000Y-108283000D01*
X76424000Y-107905000D02*
X76424000Y-95326000D01*
X70625000Y-122542000D02*
X70625000Y-97748000D01*
X78945000Y-125223000D02*
X78945000Y-95067000D01*
X74384000Y-124430000D02*
X74384000Y-112385000D01*
X77624000Y-125141000D02*
X77624000Y-95149000D01*
X73944000Y-124274000D02*
X73944000Y-112385000D01*
X78905000Y-125222000D02*
X78905000Y-95068000D01*
X78304000Y-125197000D02*
X78304000Y-95093000D01*
X72824000Y-123804000D02*
X72824000Y-112385000D01*
X70145000Y-122195000D02*
X70145000Y-98095000D01*
X68825000Y-121081000D02*
X68825000Y-99209000D01*
X65585000Y-116630000D02*
X65585000Y-103660000D01*
X76024000Y-107905000D02*
X76024000Y-95407000D01*
X68905000Y-121156000D02*
X68905000Y-99134000D01*
X75624000Y-107905000D02*
X75624000Y-95499000D01*
X69385000Y-121585000D02*
X69385000Y-98705000D01*
X78985000Y-125224000D02*
X78985000Y-95066000D01*
X73504000Y-107905000D02*
X73504000Y-96188000D01*
X66305000Y-117960000D02*
X66305000Y-102330000D01*
X74184000Y-107905000D02*
X74184000Y-95929000D01*
X76344000Y-124949000D02*
X76344000Y-112385000D01*
X71704000Y-123223000D02*
X71704000Y-97067000D01*
X76344000Y-107905000D02*
X76344000Y-95341000D01*
X78504000Y-125208000D02*
X78504000Y-95082000D01*
X75264000Y-124698000D02*
X75264000Y-112385000D01*
X76304000Y-107905000D02*
X76304000Y-95349000D01*
X67305000Y-119408000D02*
X67305000Y-100882000D01*
X74104000Y-107905000D02*
X74104000Y-95958000D01*
X77224000Y-125093000D02*
X77224000Y-95197000D01*
X73584000Y-107905000D02*
X73584000Y-96156000D01*
X75104000Y-107905000D02*
X75104000Y-95637000D01*
X67865000Y-120084000D02*
X67865000Y-100206000D01*
X73224000Y-123984000D02*
X73224000Y-112385000D01*
X75504000Y-124761000D02*
X75504000Y-112385000D01*
X70505000Y-122458000D02*
X70505000Y-97832000D01*
X72904000Y-107905000D02*
X72904000Y-96449000D01*
X76144000Y-124908000D02*
X76144000Y-112385000D01*
X71344000Y-123010000D02*
X71344000Y-97280000D01*
X78665000Y-125215000D02*
X78665000Y-95075000D01*
X71384000Y-123034000D02*
X71384000Y-97256000D01*
X67505000Y-119658000D02*
X67505000Y-100632000D01*
X74704000Y-107905000D02*
X74704000Y-95756000D01*
X65145000Y-115616000D02*
X65145000Y-104674000D01*
X77904000Y-125168000D02*
X77904000Y-95122000D01*
X76104000Y-124900000D02*
X76104000Y-112385000D01*
X71464000Y-123082000D02*
X71464000Y-97208000D01*
X73104000Y-107905000D02*
X73104000Y-96358000D01*
X94345000Y-110145000D02*
G75*
G03*
X94345000Y-110145000I-15120000J0D01*
G01*
%TO.C,CP1*%
X135690000Y-110435000D02*
G75*
G03*
X135690000Y-110435000I-15120000J0D01*
G01*
X114449000Y-108195000D02*
X114449000Y-96648000D01*
X112809000Y-123372000D02*
X112809000Y-97498000D01*
X117449000Y-125190000D02*
X117449000Y-112675000D01*
X119249000Y-125458000D02*
X119249000Y-95412000D01*
X106490000Y-115906000D02*
X106490000Y-104964000D01*
X116049000Y-108195000D02*
X116049000Y-96046000D01*
X108850000Y-119948000D02*
X108850000Y-100922000D01*
X112729000Y-123324000D02*
X112729000Y-97546000D01*
X120010000Y-125505000D02*
X120010000Y-95365000D01*
X112689000Y-123300000D02*
X112689000Y-97570000D01*
X117489000Y-125198000D02*
X117489000Y-112675000D01*
X114249000Y-108195000D02*
X114249000Y-96739000D01*
X111850000Y-122748000D02*
X111850000Y-98122000D01*
X116849000Y-125051000D02*
X116849000Y-112675000D01*
X114569000Y-124274000D02*
X114569000Y-112675000D01*
X109210000Y-120374000D02*
X109210000Y-100496000D01*
X116449000Y-108195000D02*
X116449000Y-95927000D01*
X114929000Y-108195000D02*
X114929000Y-96446000D01*
X118569000Y-125383000D02*
X118569000Y-95487000D01*
X115449000Y-108195000D02*
X115449000Y-96248000D01*
X108650000Y-119698000D02*
X108650000Y-101172000D01*
X117649000Y-108195000D02*
X117649000Y-95639000D01*
X116609000Y-124988000D02*
X116609000Y-112675000D01*
X119849000Y-125498000D02*
X119849000Y-95372000D01*
X117689000Y-108195000D02*
X117689000Y-95631000D01*
X113049000Y-123513000D02*
X113049000Y-97357000D01*
X117689000Y-125239000D02*
X117689000Y-112675000D01*
X115529000Y-108195000D02*
X115529000Y-96219000D01*
X107650000Y-118250000D02*
X107650000Y-102620000D01*
X114849000Y-108195000D02*
X114849000Y-96478000D01*
X120330000Y-125514000D02*
X120330000Y-95356000D01*
X110730000Y-121875000D02*
X110730000Y-98995000D01*
X116969000Y-108195000D02*
X116969000Y-95789000D01*
X110250000Y-121446000D02*
X110250000Y-99424000D01*
X117369000Y-108195000D02*
X117369000Y-95697000D01*
X106930000Y-116920000D02*
X106930000Y-103950000D01*
X110170000Y-121371000D02*
X110170000Y-99499000D01*
X111490000Y-122485000D02*
X111490000Y-98385000D01*
X114169000Y-124094000D02*
X114169000Y-112675000D01*
X119649000Y-125487000D02*
X119649000Y-95383000D01*
X120250000Y-125512000D02*
X120250000Y-95358000D01*
X115289000Y-124564000D02*
X115289000Y-112675000D01*
X118969000Y-125431000D02*
X118969000Y-95439000D01*
X115729000Y-124720000D02*
X115729000Y-112675000D01*
X120290000Y-125513000D02*
X120290000Y-95357000D01*
X111970000Y-122832000D02*
X111970000Y-98038000D01*
X117769000Y-108195000D02*
X117769000Y-95616000D01*
X105570000Y-112297000D02*
X105570000Y-108573000D01*
X109970000Y-121178000D02*
X109970000Y-99692000D01*
X115969000Y-108195000D02*
X115969000Y-96071000D01*
X112010000Y-122859000D02*
X112010000Y-98011000D01*
X109290000Y-120464000D02*
X109290000Y-100406000D01*
X114969000Y-124440000D02*
X114969000Y-112675000D01*
X106610000Y-116203000D02*
X106610000Y-104667000D01*
X110490000Y-121665000D02*
X110490000Y-99205000D01*
X118649000Y-125393000D02*
X118649000Y-95477000D01*
X118169000Y-125324000D02*
X118169000Y-95546000D01*
X118009000Y-125297000D02*
X118009000Y-95573000D01*
X107210000Y-117475000D02*
X107210000Y-103395000D01*
X110850000Y-121977000D02*
X110850000Y-98893000D01*
X119489000Y-125477000D02*
X119489000Y-95393000D01*
X106250000Y-115249000D02*
X106250000Y-105621000D01*
X108810000Y-119899000D02*
X108810000Y-100971000D01*
X115329000Y-124578000D02*
X115329000Y-112675000D01*
X116409000Y-108195000D02*
X116409000Y-95938000D01*
X113649000Y-123839000D02*
X113649000Y-112675000D01*
X135249131Y-120410000D02*
X135249131Y-117410000D01*
X109490000Y-120684000D02*
X109490000Y-100186000D01*
X114129000Y-124075000D02*
X114129000Y-112675000D01*
X117129000Y-108195000D02*
X117129000Y-95751000D01*
X114729000Y-108195000D02*
X114729000Y-96528000D01*
X106130000Y-114879000D02*
X106130000Y-105991000D01*
X116009000Y-108195000D02*
X116009000Y-96059000D01*
X111770000Y-122691000D02*
X111770000Y-98179000D01*
X118529000Y-125377000D02*
X118529000Y-95493000D01*
X117529000Y-108195000D02*
X117529000Y-95663000D01*
X113809000Y-123920000D02*
X113809000Y-112675000D01*
X114009000Y-124018000D02*
X114009000Y-112675000D01*
X118129000Y-125317000D02*
X118129000Y-95553000D01*
X114289000Y-108195000D02*
X114289000Y-96720000D01*
X116329000Y-108195000D02*
X116329000Y-95961000D01*
X117409000Y-108195000D02*
X117409000Y-95688000D01*
X113849000Y-123940000D02*
X113849000Y-112675000D01*
X118849000Y-125417000D02*
X118849000Y-95453000D01*
X105610000Y-112589000D02*
X105610000Y-108281000D01*
X117009000Y-125090000D02*
X117009000Y-112675000D01*
X120530000Y-125515000D02*
X120530000Y-95355000D01*
X111250000Y-122301000D02*
X111250000Y-98569000D01*
X117609000Y-125223000D02*
X117609000Y-112675000D01*
X112649000Y-123275000D02*
X112649000Y-97595000D01*
X116889000Y-125061000D02*
X116889000Y-112675000D01*
X116529000Y-108195000D02*
X116529000Y-95904000D01*
X108210000Y-119104000D02*
X108210000Y-101766000D01*
X114529000Y-108195000D02*
X114529000Y-96613000D01*
X118609000Y-125388000D02*
X118609000Y-95482000D01*
X116729000Y-125020000D02*
X116729000Y-112675000D01*
X113649000Y-108195000D02*
X113649000Y-97031000D01*
X113489000Y-123755000D02*
X113489000Y-112675000D01*
X110450000Y-121629000D02*
X110450000Y-99241000D01*
X116049000Y-124824000D02*
X116049000Y-112675000D01*
X110690000Y-121841000D02*
X110690000Y-99029000D01*
X114329000Y-124168000D02*
X114329000Y-112675000D01*
X119890000Y-125500000D02*
X119890000Y-95370000D01*
X116649000Y-108195000D02*
X116649000Y-95871000D01*
X107250000Y-117550000D02*
X107250000Y-103320000D01*
X113449000Y-108195000D02*
X113449000Y-97136000D01*
X108250000Y-119161000D02*
X108250000Y-101709000D01*
X105770000Y-113490000D02*
X105770000Y-107380000D01*
X110370000Y-121557000D02*
X110370000Y-99313000D01*
X115969000Y-124799000D02*
X115969000Y-112675000D01*
X118689000Y-125398000D02*
X118689000Y-95472000D01*
X112210000Y-122994000D02*
X112210000Y-97876000D01*
X113609000Y-108195000D02*
X113609000Y-97052000D01*
X112929000Y-123443000D02*
X112929000Y-97427000D01*
X109810000Y-121018000D02*
X109810000Y-99852000D01*
X136749131Y-118910000D02*
X133749131Y-118910000D01*
X106650000Y-116299000D02*
X106650000Y-104571000D01*
X109690000Y-120895000D02*
X109690000Y-99975000D01*
X110090000Y-121294000D02*
X110090000Y-99576000D01*
X119169000Y-125451000D02*
X119169000Y-95419000D01*
X108770000Y-119849000D02*
X108770000Y-101021000D01*
X111130000Y-122207000D02*
X111130000Y-98663000D01*
X119129000Y-125447000D02*
X119129000Y-95423000D01*
X113969000Y-123999000D02*
X113969000Y-112675000D01*
X116849000Y-108195000D02*
X116849000Y-95819000D01*
X105930000Y-114175000D02*
X105930000Y-106695000D01*
X109530000Y-120727000D02*
X109530000Y-100143000D01*
X116089000Y-124837000D02*
X116089000Y-112675000D01*
X113729000Y-108195000D02*
X113729000Y-96990000D01*
X116009000Y-124811000D02*
X116009000Y-112675000D01*
X106210000Y-115129000D02*
X106210000Y-105741000D01*
X113569000Y-123798000D02*
X113569000Y-112675000D01*
X115689000Y-124706000D02*
X115689000Y-112675000D01*
X106690000Y-116392000D02*
X106690000Y-104478000D01*
X116489000Y-124955000D02*
X116489000Y-112675000D01*
X116569000Y-108195000D02*
X116569000Y-95893000D01*
X108730000Y-119799000D02*
X108730000Y-101071000D01*
X115369000Y-108195000D02*
X115369000Y-96277000D01*
X113529000Y-123777000D02*
X113529000Y-112675000D01*
X108330000Y-119272000D02*
X108330000Y-101598000D01*
X112609000Y-123251000D02*
X112609000Y-97619000D01*
X106050000Y-114613000D02*
X106050000Y-106257000D01*
X118089000Y-125311000D02*
X118089000Y-95559000D01*
X115809000Y-124747000D02*
X115809000Y-112675000D01*
X110890000Y-122011000D02*
X110890000Y-98859000D01*
X111890000Y-122776000D02*
X111890000Y-98094000D01*
X114889000Y-108195000D02*
X114889000Y-96462000D01*
X113769000Y-108195000D02*
X113769000Y-96970000D01*
X109410000Y-120597000D02*
X109410000Y-100273000D01*
X113409000Y-108195000D02*
X113409000Y-97157000D01*
X115529000Y-124651000D02*
X115529000Y-112675000D01*
X108370000Y-119327000D02*
X108370000Y-101543000D01*
X117809000Y-108195000D02*
X117809000Y-95609000D01*
X115089000Y-124487000D02*
X115089000Y-112675000D01*
X119970000Y-125504000D02*
X119970000Y-95366000D01*
X108450000Y-119435000D02*
X108450000Y-101435000D01*
X120370000Y-125514000D02*
X120370000Y-95356000D01*
X116169000Y-124861000D02*
X116169000Y-112675000D01*
X116329000Y-124909000D02*
X116329000Y-112675000D01*
X106290000Y-115365000D02*
X106290000Y-105505000D01*
X113449000Y-123734000D02*
X113449000Y-112675000D01*
X113609000Y-123818000D02*
X113609000Y-112675000D01*
X113409000Y-123713000D02*
X113409000Y-112675000D01*
X108490000Y-119489000D02*
X108490000Y-101381000D01*
X115609000Y-124679000D02*
X115609000Y-112675000D01*
X105810000Y-113675000D02*
X105810000Y-107195000D01*
X117049000Y-125100000D02*
X117049000Y-112675000D01*
X107850000Y-118570000D02*
X107850000Y-102300000D01*
X116689000Y-108195000D02*
X116689000Y-95861000D01*
X117489000Y-108195000D02*
X117489000Y-95672000D01*
X116209000Y-108195000D02*
X116209000Y-95997000D01*
X110050000Y-121256000D02*
X110050000Y-99614000D01*
X108970000Y-120094000D02*
X108970000Y-100776000D01*
X114249000Y-124131000D02*
X114249000Y-112675000D01*
X116769000Y-125030000D02*
X116769000Y-112675000D01*
X107970000Y-118753000D02*
X107970000Y-102117000D01*
X110330000Y-121520000D02*
X110330000Y-99350000D01*
X108090000Y-118932000D02*
X108090000Y-101938000D01*
X108530000Y-119542000D02*
X108530000Y-101328000D01*
X118049000Y-125304000D02*
X118049000Y-95566000D01*
X115249000Y-124549000D02*
X115249000Y-112675000D01*
X108690000Y-119749000D02*
X108690000Y-101121000D01*
X113929000Y-108195000D02*
X113929000Y-96891000D01*
X111170000Y-122238000D02*
X111170000Y-98632000D01*
X110930000Y-122044000D02*
X110930000Y-98826000D01*
X105730000Y-113292000D02*
X105730000Y-107578000D01*
X109570000Y-120769000D02*
X109570000Y-100101000D01*
X110410000Y-121593000D02*
X110410000Y-99277000D01*
X120410000Y-125515000D02*
X120410000Y-95355000D01*
X116089000Y-108195000D02*
X116089000Y-96033000D01*
X118769000Y-125408000D02*
X118769000Y-95462000D01*
X117569000Y-108195000D02*
X117569000Y-95655000D01*
X119930000Y-125502000D02*
X119930000Y-95368000D01*
X110770000Y-121910000D02*
X110770000Y-98960000D01*
X115569000Y-108195000D02*
X115569000Y-96205000D01*
X116729000Y-108195000D02*
X116729000Y-95850000D01*
X117529000Y-125207000D02*
X117529000Y-112675000D01*
X113849000Y-108195000D02*
X113849000Y-96930000D01*
X109450000Y-120640000D02*
X109450000Y-100230000D01*
X117049000Y-108195000D02*
X117049000Y-95770000D01*
X115889000Y-124773000D02*
X115889000Y-112675000D01*
X115089000Y-108195000D02*
X115089000Y-96383000D01*
X113489000Y-108195000D02*
X113489000Y-97115000D01*
X114209000Y-124113000D02*
X114209000Y-112675000D01*
X114329000Y-108195000D02*
X114329000Y-96702000D01*
X106530000Y-116007000D02*
X106530000Y-104863000D01*
X116289000Y-108195000D02*
X116289000Y-95973000D01*
X109890000Y-121098000D02*
X109890000Y-99772000D01*
X113729000Y-123880000D02*
X113729000Y-112675000D01*
X116649000Y-124999000D02*
X116649000Y-112675000D01*
X119369000Y-125468000D02*
X119369000Y-95402000D01*
X115129000Y-124503000D02*
X115129000Y-112675000D01*
X114689000Y-108195000D02*
X114689000Y-96545000D01*
X118409000Y-125360000D02*
X118409000Y-95510000D01*
X113809000Y-108195000D02*
X113809000Y-96950000D01*
X107810000Y-118507000D02*
X107810000Y-102363000D01*
X116289000Y-124897000D02*
X116289000Y-112675000D01*
X113569000Y-108195000D02*
X113569000Y-97072000D01*
X118449000Y-125366000D02*
X118449000Y-95504000D01*
X111570000Y-122545000D02*
X111570000Y-98325000D01*
X116529000Y-124966000D02*
X116529000Y-112675000D01*
X112889000Y-123420000D02*
X112889000Y-97450000D01*
X115009000Y-124456000D02*
X115009000Y-112675000D01*
X114729000Y-124342000D02*
X114729000Y-112675000D01*
X116249000Y-124885000D02*
X116249000Y-112675000D01*
X111810000Y-122719000D02*
X111810000Y-98151000D01*
X114209000Y-108195000D02*
X114209000Y-96757000D01*
X112449000Y-123150000D02*
X112449000Y-97720000D01*
X111410000Y-122425000D02*
X111410000Y-98445000D01*
X117849000Y-125269000D02*
X117849000Y-95601000D01*
X113369000Y-123691000D02*
X113369000Y-112675000D01*
X108290000Y-119217000D02*
X108290000Y-101653000D01*
X115929000Y-124786000D02*
X115929000Y-112675000D01*
X112569000Y-123226000D02*
X112569000Y-97644000D01*
X116409000Y-124932000D02*
X116409000Y-112675000D01*
X117129000Y-125119000D02*
X117129000Y-112675000D01*
X118889000Y-125422000D02*
X118889000Y-95448000D01*
X110810000Y-121944000D02*
X110810000Y-98926000D01*
X119329000Y-125465000D02*
X119329000Y-95405000D01*
X117969000Y-125290000D02*
X117969000Y-95580000D01*
X106370000Y-115589000D02*
X106370000Y-105281000D01*
X117089000Y-125110000D02*
X117089000Y-112675000D01*
X116369000Y-108195000D02*
X116369000Y-95950000D01*
X114489000Y-124239000D02*
X114489000Y-112675000D01*
X115489000Y-124637000D02*
X115489000Y-112675000D01*
X115489000Y-108195000D02*
X115489000Y-96233000D01*
X105450000Y-110475000D02*
X105450000Y-110395000D01*
X119609000Y-125485000D02*
X119609000Y-95385000D01*
X115169000Y-108195000D02*
X115169000Y-96352000D01*
X110130000Y-121333000D02*
X110130000Y-99537000D01*
X114649000Y-124308000D02*
X114649000Y-112675000D01*
X112050000Y-122886000D02*
X112050000Y-97984000D01*
X115729000Y-108195000D02*
X115729000Y-96150000D01*
X116129000Y-108195000D02*
X116129000Y-96021000D01*
X108130000Y-118990000D02*
X108130000Y-101880000D01*
X115689000Y-108195000D02*
X115689000Y-96164000D01*
X115209000Y-108195000D02*
X115209000Y-96336000D01*
X114289000Y-124150000D02*
X114289000Y-112675000D01*
X115409000Y-108195000D02*
X115409000Y-96262000D01*
X118329000Y-125349000D02*
X118329000Y-95521000D01*
X112370000Y-123099000D02*
X112370000Y-97771000D01*
X115009000Y-108195000D02*
X115009000Y-96414000D01*
X107890000Y-118632000D02*
X107890000Y-102238000D01*
X114409000Y-124204000D02*
X114409000Y-112675000D01*
X113249000Y-123625000D02*
X113249000Y-97245000D01*
X109370000Y-120553000D02*
X109370000Y-100317000D01*
X114409000Y-108195000D02*
X114409000Y-96666000D01*
X106090000Y-114748000D02*
X106090000Y-106122000D01*
X115289000Y-108195000D02*
X115289000Y-96306000D01*
X118489000Y-125372000D02*
X118489000Y-95498000D01*
X109650000Y-120853000D02*
X109650000Y-100017000D01*
X111690000Y-122633000D02*
X111690000Y-98237000D01*
X111930000Y-122804000D02*
X111930000Y-98066000D01*
X106010000Y-114472000D02*
X106010000Y-106398000D01*
X105690000Y-113079000D02*
X105690000Y-107791000D01*
X114609000Y-108195000D02*
X114609000Y-96579000D01*
X117609000Y-108195000D02*
X117609000Y-95647000D01*
X105490000Y-111495000D02*
X105490000Y-109375000D01*
X116249000Y-108195000D02*
X116249000Y-95985000D01*
X108410000Y-119382000D02*
X108410000Y-101488000D01*
X111330000Y-122364000D02*
X111330000Y-98506000D01*
X117249000Y-108195000D02*
X117249000Y-95724000D01*
X106410000Y-115697000D02*
X106410000Y-105173000D01*
X115249000Y-108195000D02*
X115249000Y-96321000D01*
X114849000Y-124392000D02*
X114849000Y-112675000D01*
X114889000Y-124408000D02*
X114889000Y-112675000D01*
X107450000Y-117911000D02*
X107450000Y-102959000D01*
X115169000Y-124518000D02*
X115169000Y-112675000D01*
X117169000Y-125128000D02*
X117169000Y-112675000D01*
X114769000Y-124359000D02*
X114769000Y-112675000D01*
X107770000Y-118444000D02*
X107770000Y-102426000D01*
X116969000Y-125081000D02*
X116969000Y-112675000D01*
X107130000Y-117322000D02*
X107130000Y-103548000D01*
X116129000Y-124849000D02*
X116129000Y-112675000D01*
X112409000Y-123125000D02*
X112409000Y-97745000D01*
X115049000Y-108195000D02*
X115049000Y-96398000D01*
X105650000Y-112847000D02*
X105650000Y-108023000D01*
X114449000Y-124222000D02*
X114449000Y-112675000D01*
X113889000Y-108195000D02*
X113889000Y-96910000D01*
X105970000Y-114327000D02*
X105970000Y-106543000D01*
X107530000Y-118049000D02*
X107530000Y-102821000D01*
X112969000Y-123467000D02*
X112969000Y-97403000D01*
X106970000Y-117003000D02*
X106970000Y-103867000D01*
X111290000Y-122333000D02*
X111290000Y-98537000D01*
X120090000Y-125508000D02*
X120090000Y-95362000D01*
X113769000Y-123900000D02*
X113769000Y-112675000D01*
X118249000Y-125336000D02*
X118249000Y-95534000D01*
X112529000Y-123201000D02*
X112529000Y-97669000D01*
X119009000Y-125435000D02*
X119009000Y-95435000D01*
X112090000Y-122914000D02*
X112090000Y-97956000D01*
X117569000Y-125215000D02*
X117569000Y-112675000D01*
X117369000Y-125173000D02*
X117369000Y-112675000D01*
X115569000Y-124665000D02*
X115569000Y-112675000D01*
X115449000Y-124622000D02*
X115449000Y-112675000D01*
X107330000Y-117697000D02*
X107330000Y-103173000D01*
X120050000Y-125507000D02*
X120050000Y-95363000D01*
X109130000Y-120282000D02*
X109130000Y-100588000D01*
X113969000Y-108195000D02*
X113969000Y-96871000D01*
X115209000Y-124534000D02*
X115209000Y-112675000D01*
X108610000Y-119646000D02*
X108610000Y-101224000D01*
X113929000Y-123979000D02*
X113929000Y-112675000D01*
X110650000Y-121806000D02*
X110650000Y-99064000D01*
X112849000Y-123396000D02*
X112849000Y-97474000D01*
X118369000Y-125355000D02*
X118369000Y-95515000D01*
X106570000Y-116106000D02*
X106570000Y-104764000D01*
X116809000Y-125041000D02*
X116809000Y-112675000D01*
X110570000Y-121736000D02*
X110570000Y-99134000D01*
X115649000Y-124693000D02*
X115649000Y-112675000D01*
X111530000Y-122515000D02*
X111530000Y-98355000D01*
X115409000Y-124608000D02*
X115409000Y-112675000D01*
X109050000Y-120189000D02*
X109050000Y-100681000D01*
X106330000Y-115478000D02*
X106330000Y-105392000D01*
X113689000Y-123860000D02*
X113689000Y-112675000D01*
X112489000Y-123175000D02*
X112489000Y-97695000D01*
X109930000Y-121138000D02*
X109930000Y-99732000D01*
X114489000Y-108195000D02*
X114489000Y-96631000D01*
X116449000Y-124943000D02*
X116449000Y-112675000D01*
X106810000Y-116663000D02*
X106810000Y-104207000D01*
X116889000Y-108195000D02*
X116889000Y-95809000D01*
X114769000Y-108195000D02*
X114769000Y-96511000D01*
X107730000Y-118380000D02*
X107730000Y-102490000D01*
X111050000Y-122142000D02*
X111050000Y-98728000D01*
X106170000Y-115006000D02*
X106170000Y-105864000D01*
X114169000Y-108195000D02*
X114169000Y-96776000D01*
X114809000Y-124375000D02*
X114809000Y-112675000D01*
X111650000Y-122604000D02*
X111650000Y-98266000D01*
X105850000Y-113850000D02*
X105850000Y-107020000D01*
X107610000Y-118183000D02*
X107610000Y-102687000D01*
X116169000Y-108195000D02*
X116169000Y-96009000D01*
X109170000Y-120328000D02*
X109170000Y-100542000D01*
X108010000Y-118813000D02*
X108010000Y-102057000D01*
X117089000Y-108195000D02*
X117089000Y-95760000D01*
X115609000Y-108195000D02*
X115609000Y-96191000D01*
X107370000Y-117769000D02*
X107370000Y-103101000D01*
X115929000Y-108195000D02*
X115929000Y-96084000D01*
X113369000Y-108195000D02*
X113369000Y-97179000D01*
X116489000Y-108195000D02*
X116489000Y-95915000D01*
X119089000Y-125443000D02*
X119089000Y-95427000D01*
X116689000Y-125009000D02*
X116689000Y-112675000D01*
X120130000Y-125509000D02*
X120130000Y-95361000D01*
X115849000Y-108195000D02*
X115849000Y-96110000D01*
X108570000Y-119594000D02*
X108570000Y-101276000D01*
X109330000Y-120509000D02*
X109330000Y-100361000D01*
X107930000Y-118693000D02*
X107930000Y-102177000D01*
X109090000Y-120235000D02*
X109090000Y-100635000D01*
X114049000Y-124037000D02*
X114049000Y-112675000D01*
X108170000Y-119047000D02*
X108170000Y-101823000D01*
X108050000Y-118873000D02*
X108050000Y-101997000D01*
X119049000Y-125439000D02*
X119049000Y-95431000D01*
X109250000Y-120419000D02*
X109250000Y-100451000D01*
X117929000Y-125283000D02*
X117929000Y-95587000D01*
X111610000Y-122575000D02*
X111610000Y-98295000D01*
X114569000Y-108195000D02*
X114569000Y-96596000D01*
X114089000Y-124057000D02*
X114089000Y-112675000D01*
X117289000Y-125155000D02*
X117289000Y-112675000D01*
X107690000Y-118315000D02*
X107690000Y-102555000D01*
X109010000Y-120141000D02*
X109010000Y-100729000D01*
X114369000Y-124186000D02*
X114369000Y-112675000D01*
X119529000Y-125480000D02*
X119529000Y-95390000D01*
X110290000Y-121483000D02*
X110290000Y-99387000D01*
X111010000Y-122110000D02*
X111010000Y-98760000D01*
X120490000Y-125515000D02*
X120490000Y-95355000D01*
X117409000Y-125182000D02*
X117409000Y-112675000D01*
X117769000Y-125254000D02*
X117769000Y-112675000D01*
X107570000Y-118117000D02*
X107570000Y-102753000D01*
X112330000Y-123073000D02*
X112330000Y-97797000D01*
X106450000Y-115803000D02*
X106450000Y-105067000D01*
X108930000Y-120046000D02*
X108930000Y-100824000D01*
X117209000Y-108195000D02*
X117209000Y-95733000D01*
X119569000Y-125482000D02*
X119569000Y-95388000D01*
X115769000Y-124733000D02*
X115769000Y-112675000D01*
X117209000Y-125137000D02*
X117209000Y-112675000D01*
X112130000Y-122941000D02*
X112130000Y-97929000D01*
X117889000Y-125276000D02*
X117889000Y-95594000D01*
X113089000Y-123536000D02*
X113089000Y-97334000D01*
X119409000Y-125471000D02*
X119409000Y-95399000D01*
X118729000Y-125403000D02*
X118729000Y-95467000D01*
X113529000Y-108195000D02*
X113529000Y-97093000D01*
X117329000Y-108195000D02*
X117329000Y-95706000D01*
X114369000Y-108195000D02*
X114369000Y-96684000D01*
X120170000Y-125510000D02*
X120170000Y-95360000D01*
X106890000Y-116835000D02*
X106890000Y-104035000D01*
X114929000Y-124424000D02*
X114929000Y-112675000D01*
X116369000Y-124920000D02*
X116369000Y-112675000D01*
X117449000Y-108195000D02*
X117449000Y-95680000D01*
X111450000Y-122455000D02*
X111450000Y-98415000D01*
X113289000Y-123648000D02*
X113289000Y-97222000D01*
X115649000Y-108195000D02*
X115649000Y-96177000D01*
X111210000Y-122270000D02*
X111210000Y-98600000D01*
X110970000Y-122077000D02*
X110970000Y-98793000D01*
X115809000Y-108195000D02*
X115809000Y-96123000D01*
X118809000Y-125413000D02*
X118809000Y-95457000D01*
X109730000Y-120936000D02*
X109730000Y-99934000D01*
X116609000Y-108195000D02*
X116609000Y-95882000D01*
X119769000Y-125494000D02*
X119769000Y-95376000D01*
X113169000Y-123581000D02*
X113169000Y-97289000D01*
X106730000Y-116484000D02*
X106730000Y-104386000D01*
X106770000Y-116574000D02*
X106770000Y-104296000D01*
X110610000Y-121771000D02*
X110610000Y-99099000D01*
X107170000Y-117399000D02*
X107170000Y-103471000D01*
X107410000Y-117841000D02*
X107410000Y-103029000D01*
X117329000Y-125164000D02*
X117329000Y-112675000D01*
X110530000Y-121701000D02*
X110530000Y-99169000D01*
X113329000Y-123669000D02*
X113329000Y-97201000D01*
X116769000Y-108195000D02*
X116769000Y-95840000D01*
X114969000Y-108195000D02*
X114969000Y-96430000D01*
X111370000Y-122394000D02*
X111370000Y-98476000D01*
X114529000Y-124257000D02*
X114529000Y-112675000D01*
X119809000Y-125496000D02*
X119809000Y-95374000D01*
X110010000Y-121217000D02*
X110010000Y-99653000D01*
X108890000Y-119997000D02*
X108890000Y-100873000D01*
X117809000Y-125261000D02*
X117809000Y-112675000D01*
X115369000Y-124593000D02*
X115369000Y-112675000D01*
X116809000Y-108195000D02*
X116809000Y-95829000D01*
X113689000Y-108195000D02*
X113689000Y-97010000D01*
X112290000Y-123047000D02*
X112290000Y-97823000D01*
X119289000Y-125461000D02*
X119289000Y-95409000D01*
X114809000Y-108195000D02*
X114809000Y-96495000D01*
X111730000Y-122662000D02*
X111730000Y-98208000D01*
X114649000Y-108195000D02*
X114649000Y-96562000D01*
X107290000Y-117624000D02*
X107290000Y-103246000D01*
X119689000Y-125490000D02*
X119689000Y-95380000D01*
X119449000Y-125474000D02*
X119449000Y-95396000D01*
X109610000Y-120811000D02*
X109610000Y-100059000D01*
X116929000Y-108195000D02*
X116929000Y-95799000D01*
X113009000Y-123490000D02*
X113009000Y-97380000D01*
X109770000Y-120977000D02*
X109770000Y-99893000D01*
X115849000Y-124760000D02*
X115849000Y-112675000D01*
X113209000Y-123603000D02*
X113209000Y-97267000D01*
X112170000Y-122967000D02*
X112170000Y-97903000D01*
X114089000Y-108195000D02*
X114089000Y-96813000D01*
X114009000Y-108195000D02*
X114009000Y-96852000D01*
X117249000Y-125146000D02*
X117249000Y-112675000D01*
X115329000Y-108195000D02*
X115329000Y-96292000D01*
X117649000Y-125231000D02*
X117649000Y-112675000D01*
X119729000Y-125492000D02*
X119729000Y-95378000D01*
X118929000Y-125426000D02*
X118929000Y-95444000D01*
X117289000Y-108195000D02*
X117289000Y-95715000D01*
X107490000Y-117980000D02*
X107490000Y-102890000D01*
X120210000Y-125511000D02*
X120210000Y-95359000D01*
X110210000Y-121408000D02*
X110210000Y-99462000D01*
X119209000Y-125454000D02*
X119209000Y-95416000D01*
X115049000Y-124472000D02*
X115049000Y-112675000D01*
X120570000Y-125516000D02*
X120570000Y-95354000D01*
X112769000Y-123348000D02*
X112769000Y-97522000D01*
X113889000Y-123960000D02*
X113889000Y-112675000D01*
X115129000Y-108195000D02*
X115129000Y-96367000D01*
X116209000Y-124873000D02*
X116209000Y-112675000D01*
X117169000Y-108195000D02*
X117169000Y-95742000D01*
X114049000Y-108195000D02*
X114049000Y-96833000D01*
X117729000Y-125246000D02*
X117729000Y-112675000D01*
X117729000Y-108195000D02*
X117729000Y-95624000D01*
X116569000Y-124977000D02*
X116569000Y-112675000D01*
X113129000Y-123558000D02*
X113129000Y-97312000D01*
X118209000Y-125330000D02*
X118209000Y-95540000D01*
X115769000Y-108195000D02*
X115769000Y-96137000D01*
X107010000Y-117084000D02*
X107010000Y-103786000D01*
X111090000Y-122174000D02*
X111090000Y-98696000D01*
X116929000Y-125071000D02*
X116929000Y-112675000D01*
X120450000Y-125515000D02*
X120450000Y-95355000D01*
X118289000Y-125343000D02*
X118289000Y-95527000D01*
X114129000Y-108195000D02*
X114129000Y-96795000D01*
X114689000Y-124325000D02*
X114689000Y-112675000D01*
X117009000Y-108195000D02*
X117009000Y-95780000D01*
X106850000Y-116750000D02*
X106850000Y-104120000D01*
X114609000Y-124291000D02*
X114609000Y-112675000D01*
X105890000Y-114017000D02*
X105890000Y-106853000D01*
X115889000Y-108195000D02*
X115889000Y-96097000D01*
X107050000Y-117165000D02*
X107050000Y-103705000D01*
X112250000Y-123021000D02*
X112250000Y-97849000D01*
X109850000Y-121058000D02*
X109850000Y-99812000D01*
X107090000Y-117244000D02*
X107090000Y-103626000D01*
X105530000Y-111949000D02*
X105530000Y-108921000D01*
%TO.C,C9*%
X110105000Y-37705000D02*
X110105000Y-40221000D01*
X110105000Y-44945000D02*
X126845000Y-44945000D01*
X126845000Y-42429000D02*
X126845000Y-44945000D01*
X110105000Y-37705000D02*
X126845000Y-37705000D01*
X110105000Y-42429000D02*
X110105000Y-44945000D01*
X126845000Y-37705000D02*
X126845000Y-40221000D01*
%TD*%
%LPC*%
D16*
%TO.C,U2*%
X30565000Y-115215000D03*
X30565000Y-112675000D03*
X30565000Y-110135000D03*
X30565000Y-107595000D03*
X30565000Y-105055000D03*
X30565000Y-102515000D03*
X30565000Y-99975000D03*
X30565000Y-97435000D03*
X30565000Y-94895000D03*
X30565000Y-92355000D03*
X30565000Y-89815000D03*
X30565000Y-87275000D03*
X30565000Y-84735000D03*
X30565000Y-82195000D03*
D17*
X30565000Y-79655000D03*
D16*
X45805000Y-115215000D03*
X45805000Y-112675000D03*
X45805000Y-110135000D03*
X45805000Y-107595000D03*
X45805000Y-105055000D03*
X45805000Y-102515000D03*
X45805000Y-99975000D03*
X45805000Y-97435000D03*
X45805000Y-94895000D03*
X45805000Y-92355000D03*
X45805000Y-89815000D03*
X45805000Y-87275000D03*
X45805000Y-84735000D03*
X45805000Y-82195000D03*
D17*
X45805000Y-79655000D03*
%TD*%
D18*
%TO.C,U10*%
X34350000Y-140615000D03*
X32450000Y-140615000D03*
X33400000Y-142490000D03*
%TD*%
D19*
%TO.C,U9*%
X42350000Y-123105000D03*
X41080000Y-123105000D03*
X39810000Y-123105000D03*
X38540000Y-123105000D03*
X37270000Y-123105000D03*
X36000000Y-123105000D03*
X34730000Y-123105000D03*
X33460000Y-123105000D03*
X32190000Y-123105000D03*
X30920000Y-123105000D03*
X30920000Y-132555000D03*
X32190000Y-132555000D03*
X33460000Y-132555000D03*
X34730000Y-132555000D03*
X36000000Y-132555000D03*
X37270000Y-132555000D03*
X38540000Y-132555000D03*
X39810000Y-132555000D03*
X41080000Y-132555000D03*
X42350000Y-132555000D03*
%TD*%
D20*
%TO.C,U4*%
X58570000Y-134285000D03*
X58570000Y-131745000D03*
X58570000Y-126665000D03*
X48410000Y-126665000D03*
X48410000Y-134285000D03*
%TD*%
D21*
%TO.C,U3*%
X53425000Y-79345000D03*
X54695000Y-79345000D03*
X55965000Y-79345000D03*
X57235000Y-79345000D03*
X57235000Y-74395000D03*
X55965000Y-74395000D03*
X54695000Y-74395000D03*
X53425000Y-74395000D03*
%TD*%
D22*
%TO.C,U1*%
X54427500Y-149695000D03*
X56967500Y-149695000D03*
X51887500Y-149695000D03*
D23*
X49347500Y-149695000D03*
%TD*%
D24*
%TO.C,SW2*%
X24280000Y-83045000D03*
X21740000Y-83045000D03*
X24280000Y-91305000D03*
X21740000Y-91305000D03*
%TD*%
D25*
%TO.C,SW1*%
X21010000Y-71990000D03*
X21010000Y-78490000D03*
X25510000Y-71990000D03*
X25510000Y-78490000D03*
%TD*%
D26*
%TO.C,R5*%
X99800000Y-41905000D03*
D27*
X99800000Y-46985000D03*
%TD*%
D28*
%TO.C,R2*%
X53580000Y-69675000D03*
X53580000Y-71500000D03*
%TD*%
D29*
%TO.C,Q2*%
X71435000Y-49800000D03*
D30*
X71435000Y-44350000D03*
X71435000Y-38900000D03*
%TD*%
D29*
%TO.C,Q1*%
X63525000Y-38930000D03*
D30*
X63525000Y-44380000D03*
X63525000Y-49830000D03*
%TD*%
D31*
%TO.C,LED10*%
X26890000Y-101300000D03*
X25015000Y-101300000D03*
%TD*%
%TO.C,LED9*%
X26907500Y-107135000D03*
X25032500Y-107135000D03*
%TD*%
%TO.C,LED8*%
X26902500Y-110130000D03*
X25027500Y-110130000D03*
%TD*%
%TO.C,LED7*%
X26902500Y-104255000D03*
X25027500Y-104255000D03*
%TD*%
%TO.C,LED6*%
X26907500Y-98420000D03*
X25032500Y-98420000D03*
%TD*%
%TO.C,LED5*%
X26917500Y-95525000D03*
X25042500Y-95525000D03*
%TD*%
D32*
%TO.C,LED4*%
X97525000Y-147222500D03*
X97525000Y-145347500D03*
%TD*%
%TO.C,LED3*%
X135860000Y-145544000D03*
X135860000Y-147419000D03*
%TD*%
D33*
%TO.C,LED2*%
X50672500Y-121195000D03*
X52547500Y-121195000D03*
%TD*%
%TO.C,LED1*%
X56952500Y-141145000D03*
X55077500Y-141145000D03*
%TD*%
D34*
%TO.C,L4*%
X43115000Y-137710000D03*
X43115000Y-135585000D03*
%TD*%
%TO.C,L3*%
X40890000Y-137725000D03*
X40890000Y-135600000D03*
%TD*%
D35*
%TO.C,L2*%
X133590000Y-69795000D03*
X111790000Y-69795000D03*
%TD*%
D36*
%TO.C,JP1*%
X39825000Y-141620000D03*
D37*
X42365000Y-141620000D03*
%TD*%
D38*
%TO.C,J6*%
X43795000Y-150127500D03*
X28795000Y-150127500D03*
D39*
X40795000Y-148167500D03*
D40*
X37795000Y-148167500D03*
X34795000Y-148167500D03*
X31795000Y-148167500D03*
%TD*%
D38*
%TO.C,J5*%
X43790000Y-158927500D03*
X28790000Y-158927500D03*
D39*
X40790000Y-156967500D03*
D40*
X37790000Y-156967500D03*
X34790000Y-156967500D03*
X31790000Y-156967500D03*
%TD*%
D41*
%TO.C,J4*%
X90715000Y-151515000D03*
X66975000Y-151515000D03*
D42*
X82655000Y-148715000D03*
X82655000Y-146175000D03*
X75035000Y-148715000D03*
X75035000Y-146175000D03*
X82655000Y-141095000D03*
X75035000Y-141095000D03*
%TD*%
D41*
%TO.C,J3*%
X127995000Y-151580000D03*
X104255000Y-151580000D03*
D42*
X119935000Y-148780000D03*
X119935000Y-146240000D03*
X112315000Y-148780000D03*
X112315000Y-146240000D03*
X119935000Y-141160000D03*
X112315000Y-141160000D03*
%TD*%
D38*
%TO.C,J2*%
X21285000Y-67710000D03*
X21285000Y-58710000D03*
D43*
X23245000Y-64710000D03*
D44*
X23245000Y-61710000D03*
%TD*%
D40*
%TO.C,J1*%
X50942500Y-156885000D03*
D39*
X53942500Y-156885000D03*
D38*
X47942500Y-158845000D03*
X56942500Y-158845000D03*
%TD*%
D45*
%TO.C,HS3*%
X99185000Y-80475000D03*
X73785000Y-80475000D03*
%TD*%
%TO.C,HS2*%
X95065000Y-57090000D03*
X95065000Y-31690000D03*
%TD*%
%TO.C,HS1*%
X67530000Y-31685000D03*
X67530000Y-57085000D03*
%TD*%
D46*
%TO.C,F2*%
X67045000Y-131955000D03*
X91145000Y-131955000D03*
%TD*%
%TO.C,F1*%
X101570000Y-131874000D03*
X125670000Y-131874000D03*
%TD*%
D27*
%TO.C,D6*%
X89030000Y-75710000D03*
D26*
X83950000Y-75710000D03*
%TD*%
D27*
%TO.C,D5*%
X83950000Y-85255000D03*
D26*
X89030000Y-85255000D03*
%TD*%
%TO.C,D4*%
X90270000Y-46985000D03*
D27*
X90270000Y-41905000D03*
%TD*%
D47*
%TO.C,CP2*%
X84225000Y-110145000D03*
D45*
X74225000Y-110145000D03*
%TD*%
%TO.C,CP1*%
X115570000Y-110435000D03*
D47*
X125570000Y-110435000D03*
%TD*%
D48*
%TO.C,C9*%
X125975000Y-41325000D03*
X110975000Y-41325000D03*
%TD*%
D41*
%TO.C,H2*%
X22500000Y-157470000D03*
%TD*%
%TO.C,H1*%
X137520000Y-157565000D03*
%TD*%
%TO.C,H3*%
X137500000Y-22470000D03*
%TD*%
%TO.C,H4*%
X22500000Y-22470000D03*
%TD*%
M02*
