M48
; DRILL file {KiCad (6.0.1)} date Thu Feb 17 13:59:41 2022
; FORMAT={-:-/ absolute / metric / decimal}
; #@! TF.CreationDate,2022-02-17T13:59:41-06:00
; #@! TF.GenerationSoftware,Kicad,Pcbnew,(6.0.1)
; #@! TF.FileFunction,Plated,1,2,PTH
FMAT,2
METRIC
; #@! TA.AperFunction,Plated,PTH,ViaDrill
T1C0.300
; #@! TA.AperFunction,Plated,PTH,ViaDrill
T2C0.400
; #@! TA.AperFunction,Plated,PTH,ViaDrill
T3C0.500
; #@! TA.AperFunction,Plated,PTH,ComponentDrill
T4C1.000
; #@! TA.AperFunction,Plated,PTH,ComponentDrill
T5C1.020
; #@! TA.AperFunction,Plated,PTH,ComponentDrill
T6C1.100
; #@! TA.AperFunction,Plated,PTH,ComponentDrill
T7C1.321
; #@! TA.AperFunction,Plated,PTH,ComponentDrill
T8C1.400
; #@! TA.AperFunction,Plated,PTH,ComponentDrill
T9C1.500
; #@! TA.AperFunction,Plated,PTH,ComponentDrill
T10C1.900
; #@! TA.AperFunction,Plated,PTH,ComponentDrill
T11C2.000
; #@! TA.AperFunction,Plated,PTH,ComponentDrill
T12C2.500
%
G90
G05
T1
X3.112Y33.627
X3.84Y43.81
X4.47Y84.915
X4.725Y39.372
X4.938Y33.627
X5.385Y28.427
X6.335Y26.552
X6.72Y39.372
X7.005Y84.915
X7.285Y28.427
X7.732Y60.115
X7.74Y68.95
X7.765Y65.995
X7.768Y74.735
X7.768Y71.825
X7.768Y63.105
X8.285Y33.617
X8.285Y31.127
X8.72Y39.372
X8.98Y76.695
X10.055Y76.72
X10.185Y33.617
X10.185Y31.127
X10.37Y89.6
X10.73Y39.377
X10.945Y72.485
X10.985Y63.905
X10.995Y71.14
X11.0Y65.32
X11.01Y62.685
X11.01Y58.635
X11.02Y69.585
X11.02Y68.15
X11.025Y66.45
X11.03Y105.56
X11.03Y102.805
X12.07Y49.23
X12.74Y39.372
X13.81Y33.442
X13.825Y31.317
X13.855Y50.965
X14.025Y43.797
X14.75Y39.372
X15.26Y43.767
X16.05Y33.457
X16.05Y31.332
X16.21Y50.065
X16.24Y53.045
X16.535Y66.49
X17.4Y54.795
X18.455Y66.525
X20.575Y56.1
X20.58Y50.07
X20.585Y53.09
X23.135Y53.13
X23.14Y50.09
X23.18Y66.55
X23.637Y39.32
X24.67Y19.37
X25.465Y66.53
X26.545Y19.37
X28.077Y19.332
X28.077Y16.752
X28.077Y13.817
X31.27Y75.37
X31.275Y70.3
X31.28Y65.205
X31.295Y72.855
X31.3Y77.885
X33.12Y91.26
X34.91Y65.19
X35.0Y77.89
X35.02Y70.3
X35.055Y72.83
X35.1Y75.37
X36.075Y92.88
X36.12Y68.97
X37.665Y79.93
X40.56Y76.885
X43.2Y40.755
X43.2Y35.46
X43.285Y49.75
X44.89Y40.74
X44.91Y35.46
X46.06Y49.646
X46.59Y39.475
X47.74Y46.615
X47.74Y41.415
X48.75Y39.46
X49.64Y44.325
X52.36Y43.887
X57.73Y26.676
X77.96Y30.592
X87.625Y115.235
X97.375Y121.21
X112.665Y30.677
X112.795Y41.5
X115.5Y41.02
X117.415Y38.747
X119.16Y32.81
T2
X21.795Y39.31
X54.215Y31.496
X61.715Y30.995
X61.74Y29.546
X74.59Y7.615
X78.985Y7.62
X79.975Y31.54
X82.306Y33.788
X86.013Y21.102
X88.83Y31.562
X109.94Y41.495
X110.065Y7.585
X114.31Y7.605
X120.935Y37.605
T3
X2.555Y132.445
X2.555Y124.945
X2.555Y117.445
X2.555Y87.445
X2.555Y79.945
X2.555Y72.445
X2.555Y64.945
X2.555Y57.445
X2.555Y49.945
X2.555Y42.445
X2.735Y23.36
X10.055Y139.945
X10.055Y117.445
X10.055Y109.945
X10.055Y57.445
X10.055Y42.445
X12.45Y5.485
X15.685Y71.785
X15.695Y61.33
X17.47Y2.55
X17.555Y139.945
X17.555Y94.945
X17.555Y87.445
X17.555Y42.445
X17.625Y106.775
X18.655Y50.005
X19.04Y82.185
X19.545Y33.84
X19.71Y23.36
X20.91Y62.15
X20.925Y76.91
X20.925Y69.41
X24.35Y56.04
X24.355Y59.44
X24.42Y30.1
X24.42Y26.5
X24.97Y2.55
X25.055Y139.945
X25.055Y132.445
X25.055Y124.945
X25.055Y94.945
X25.055Y87.445
X25.055Y49.945
X25.055Y42.445
X25.125Y106.775
X25.48Y36.08
X26.22Y78.67
X26.22Y71.17
X26.25Y61.425
X29.675Y26.24
X32.555Y94.945
X32.89Y27.445
X33.105Y88.59
X33.125Y82.725
X35.65Y63.215
X35.65Y55.715
X35.65Y48.215
X35.65Y40.715
X38.555Y42.5
X39.255Y93.89
X39.74Y85.735
X40.055Y139.945
X40.055Y132.445
X40.055Y124.945
X40.055Y117.445
X40.055Y109.945
X40.055Y102.445
X41.165Y79.93
X41.32Y31.19
X41.32Y23.69
X41.32Y16.19
X41.32Y8.69
X42.38Y92.905
X47.47Y2.55
X47.555Y139.945
X47.555Y102.445
X47.555Y94.945
X47.555Y87.445
X47.555Y79.945
X47.555Y72.445
X47.555Y64.945
X47.555Y57.445
X47.555Y49.945
X49.11Y34.405
X50.69Y16.17
X53.725Y34.61
X54.415Y40.275
X54.43Y42.63
X54.435Y47.12
X54.435Y45.12
X54.48Y49.42
X54.83Y38.06
X54.97Y2.55
X55.055Y139.945
X55.055Y132.445
X55.055Y102.445
X55.055Y94.945
X55.055Y87.445
X55.055Y72.445
X55.055Y64.945
X55.055Y57.445
X56.2Y36.705
X57.54Y35.375
X58.93Y33.995
X59.585Y110.75
X60.27Y32.665
X61.53Y9.575
X62.47Y2.55
X62.555Y139.945
X62.555Y132.445
X62.555Y124.945
X62.555Y102.445
X62.555Y94.945
X62.555Y87.445
X62.555Y79.945
X62.555Y72.445
X62.555Y64.945
X62.555Y57.445
X62.555Y49.945
X62.555Y42.445
X69.265Y31.88
X69.97Y2.55
X70.055Y139.945
X70.055Y132.445
X70.055Y124.945
X70.055Y19.945
X70.055Y12.445
X71.34Y25.87
X77.47Y2.55
X77.555Y139.945
X77.555Y72.445
X77.555Y64.945
X77.555Y57.445
X77.555Y49.945
X77.555Y42.445
X77.755Y19.97
X77.78Y13.435
X78.375Y32.535
X79.705Y33.875
X81.085Y35.245
X82.235Y22.46
X83.39Y35.325
X84.97Y2.55
X84.99Y110.545
X85.055Y139.945
X85.055Y132.445
X85.055Y124.945
X85.055Y102.445
X85.055Y79.945
X85.055Y72.445
X85.055Y64.945
X85.055Y57.445
X85.055Y49.945
X85.055Y42.445
X85.525Y35.31
X86.63Y16.27
X87.88Y35.31
X89.25Y33.93
X90.59Y32.6
X92.405Y32.575
X92.47Y2.55
X92.555Y139.945
X92.555Y132.445
X92.555Y124.945
X92.555Y117.445
X92.555Y109.945
X92.555Y102.445
X92.555Y79.945
X92.555Y72.445
X92.555Y64.945
X92.555Y57.445
X92.555Y49.945
X92.555Y42.445
X94.405Y32.575
X96.405Y32.575
X98.875Y9.825
X99.97Y2.55
X100.055Y139.945
X100.055Y132.445
X100.055Y124.945
X100.055Y117.445
X100.055Y109.945
X100.055Y102.445
X100.055Y94.945
X100.055Y87.445
X100.055Y79.945
X100.055Y72.445
X100.055Y64.945
X100.055Y57.445
X100.055Y42.445
X100.055Y34.945
X103.87Y32.0
X107.105Y25.93
X107.47Y2.55
X107.555Y139.945
X107.555Y132.445
X107.555Y124.945
X107.555Y117.445
X107.555Y109.945
X107.555Y102.445
X107.555Y94.945
X107.555Y19.945
X107.555Y12.445
X114.97Y2.55
X115.05Y13.605
X115.055Y139.945
X115.055Y132.445
X115.055Y124.945
X115.055Y117.445
X115.055Y109.945
X115.055Y102.445
X115.055Y79.945
X115.055Y72.445
X115.055Y64.945
X115.055Y57.445
X115.055Y49.945
X115.055Y27.445
X115.055Y19.945
X115.495Y43.875
X115.63Y35.56
X122.555Y132.445
X122.555Y124.945
X122.555Y117.445
X122.555Y109.945
X122.555Y102.445
X122.555Y94.945
X122.555Y87.445
X122.555Y79.945
X122.555Y72.445
X122.555Y64.945
X122.555Y57.445
X122.555Y49.945
X122.555Y42.445
X122.555Y34.945
X122.555Y27.445
X122.555Y19.945
X122.555Y12.445
T4
X12.76Y27.422
X15.3Y27.422
X20.457Y10.82
X22.997Y10.82
X25.537Y10.82
X28.077Y10.82
T5
X4.725Y12.075
X4.73Y20.875
X5.95Y108.535
X5.95Y105.535
X7.725Y12.075
X7.73Y20.875
X10.725Y12.075
X10.73Y20.875
X13.27Y90.59
X13.27Y88.05
X13.27Y85.51
X13.27Y82.97
X13.27Y80.43
X13.27Y77.89
X13.27Y75.35
X13.27Y72.81
X13.27Y70.27
X13.27Y67.73
X13.27Y65.19
X13.27Y62.65
X13.27Y60.11
X13.27Y57.57
X13.27Y55.03
X13.725Y12.075
X13.73Y20.875
X28.51Y90.59
X28.51Y88.05
X28.51Y85.51
X28.51Y82.97
X28.51Y80.43
X28.51Y77.89
X28.51Y75.35
X28.51Y72.81
X28.51Y70.27
X28.51Y67.73
X28.51Y65.19
X28.51Y62.65
X28.51Y60.11
X28.51Y57.57
X28.51Y55.03
X34.45Y5.595
X37.45Y5.595
T6
X3.715Y98.255
X3.715Y91.755
X8.215Y98.255
X8.215Y91.755
X66.445Y86.845
X66.445Y77.3
X71.525Y86.845
X71.525Y77.3
X72.765Y120.65
X72.765Y115.57
X82.295Y120.65
X82.295Y115.57
X93.47Y121.23
X108.47Y121.23
T7
X57.53Y21.46
X57.53Y16.38
X57.53Y13.84
X65.15Y21.46
X65.15Y16.38
X65.15Y13.84
X94.81Y21.395
X94.81Y16.315
X94.81Y13.775
X102.43Y21.395
X102.43Y16.315
X102.43Y13.775
T8
X37.487Y34.805
X37.487Y10.705
X49.54Y30.6
X73.64Y30.6
X84.065Y30.681
X108.165Y30.681
T9
X46.02Y123.625
X46.02Y118.175
X46.02Y112.725
X53.93Y123.655
X53.93Y118.205
X53.93Y112.755
T10
X94.285Y92.76
X116.085Y92.76
T11
X56.72Y52.41
X66.72Y52.41
X98.065Y52.12
X108.065Y52.12
T12
X50.025Y130.87
X50.025Y105.47
X56.28Y82.08
X77.56Y130.865
X77.56Y105.465
X81.68Y82.08
T0
M30
