%TF.GenerationSoftware,KiCad,Pcbnew,(6.0.1)*%
%TF.CreationDate,2022-02-04T16:06:47-06:00*%
%TF.ProjectId,MPPT,4d505054-2e6b-4696-9361-645f70636258,1.3.0*%
%TF.SameCoordinates,Original*%
%TF.FileFunction,Soldermask,Bot*%
%TF.FilePolarity,Negative*%
%FSLAX46Y46*%
G04 Gerber Fmt 4.6, Leading zero omitted, Abs format (unit mm)*
G04 Created by KiCad (PCBNEW (6.0.1)) date 2022-02-04 16:06:47*
%MOMM*%
%LPD*%
G01*
G04 APERTURE LIST*
G04 Aperture macros list*
%AMRoundRect*
0 Rectangle with rounded corners*
0 $1 Rounding radius*
0 $2 $3 $4 $5 $6 $7 $8 $9 X,Y pos of 4 corners*
0 Add a 4 corners polygon primitive as box body*
4,1,4,$2,$3,$4,$5,$6,$7,$8,$9,$2,$3,0*
0 Add four circle primitives for the rounded corners*
1,1,$1+$1,$2,$3*
1,1,$1+$1,$4,$5*
1,1,$1+$1,$6,$7*
1,1,$1+$1,$8,$9*
0 Add four rect primitives between the rounded corners*
20,1,$1+$1,$2,$3,$4,$5,0*
20,1,$1+$1,$4,$5,$6,$7,0*
20,1,$1+$1,$6,$7,$8,$9,0*
20,1,$1+$1,$8,$9,$2,$3,0*%
G04 Aperture macros list end*
%ADD10C,1.270000*%
%ADD11RoundRect,0.250001X0.759999X-0.499999X0.759999X0.499999X-0.759999X0.499999X-0.759999X-0.499999X0*%
%ADD12O,2.020000X1.500000*%
%ADD13C,3.200000*%
%ADD14C,2.286000*%
%ADD15RoundRect,0.250001X0.499999X0.759999X-0.499999X0.759999X-0.499999X-0.759999X0.499999X-0.759999X0*%
%ADD16O,1.500000X2.020000*%
%ADD17C,2.000000*%
%ADD18C,4.000000*%
%ADD19R,2.000000X2.000000*%
%ADD20O,2.000000X2.000000*%
%ADD21C,2.500000*%
%ADD22R,1.530000X1.530000*%
%ADD23C,1.530000*%
%ADD24R,1.700000X1.700000*%
%ADD25O,1.700000X1.700000*%
%ADD26C,2.200000*%
%ADD27R,4.000000X4.000000*%
%ADD28R,1.508000X1.508000*%
%ADD29C,1.508000*%
%ADD30R,4.500000X2.500000*%
%ADD31O,4.500000X2.500000*%
%ADD32C,3.800000*%
%ADD33R,1.000000X1.000000*%
%ADD34RoundRect,0.100000X-0.112500X0.331500X-0.112500X-0.331500X0.112500X-0.331500X0.112500X0.331500X0*%
%ADD35RoundRect,0.100000X-0.112500X0.281500X-0.112500X-0.281500X0.112500X-0.281500X0.112500X0.281500X0*%
%ADD36RoundRect,0.100000X-0.281500X0.112500X-0.281500X-0.112500X0.281500X-0.112500X0.281500X0.112500X0*%
%ADD37R,1.300000X1.700000*%
%ADD38RoundRect,0.250000X-0.450000X0.262500X-0.450000X-0.262500X0.450000X-0.262500X0.450000X0.262500X0*%
%ADD39RoundRect,0.250000X-0.250000X-0.475000X0.250000X-0.475000X0.250000X0.475000X-0.250000X0.475000X0*%
%ADD40RoundRect,0.250000X0.625000X-0.312500X0.625000X0.312500X-0.625000X0.312500X-0.625000X-0.312500X0*%
%ADD41RoundRect,0.250000X0.250000X0.475000X-0.250000X0.475000X-0.250000X-0.475000X0.250000X-0.475000X0*%
%ADD42RoundRect,0.250000X0.450000X-0.262500X0.450000X0.262500X-0.450000X0.262500X-0.450000X-0.262500X0*%
%ADD43RoundRect,0.250000X0.262500X0.450000X-0.262500X0.450000X-0.262500X-0.450000X0.262500X-0.450000X0*%
%ADD44R,1.700000X1.300000*%
%ADD45RoundRect,0.150000X-0.150000X0.512500X-0.150000X-0.512500X0.150000X-0.512500X0.150000X0.512500X0*%
%ADD46R,1.100000X1.100000*%
%ADD47R,4.000000X1.500000*%
%ADD48RoundRect,0.250000X-0.475000X0.250000X-0.475000X-0.250000X0.475000X-0.250000X0.475000X0.250000X0*%
%ADD49R,0.500000X0.500000*%
%ADD50RoundRect,0.250000X-0.625000X0.312500X-0.625000X-0.312500X0.625000X-0.312500X0.625000X0.312500X0*%
%ADD51RoundRect,0.250000X0.475000X-0.250000X0.475000X0.250000X-0.475000X0.250000X-0.475000X-0.250000X0*%
G04 APERTURE END LIST*
D10*
%TO.C,J2*%
X21285000Y-58710000D03*
X21285000Y-67710000D03*
D11*
X23245000Y-64710000D03*
D12*
X23245000Y-61710000D03*
%TD*%
D13*
%TO.C,J3*%
X127995000Y-151580000D03*
X104255000Y-151580000D03*
D14*
X112315000Y-141160000D03*
X112315000Y-146240000D03*
X112315000Y-148780000D03*
X119935000Y-146240000D03*
X119935000Y-141160000D03*
X119935000Y-148780000D03*
%TD*%
D13*
%TO.C,H1*%
X137520000Y-157565000D03*
%TD*%
%TO.C,H2*%
X22500000Y-157470000D03*
%TD*%
%TO.C,H3*%
X137500000Y-22470000D03*
%TD*%
%TO.C,H4*%
X22500000Y-22470000D03*
%TD*%
D10*
%TO.C,J6*%
X43795000Y-150127500D03*
X28795000Y-150127500D03*
D15*
X40795000Y-148167500D03*
D16*
X37795000Y-148167500D03*
X34795000Y-148167500D03*
X31795000Y-148167500D03*
%TD*%
D17*
%TO.C,SW1*%
X21010000Y-71990000D03*
X21010000Y-78490000D03*
X25510000Y-78490000D03*
X25510000Y-71990000D03*
%TD*%
D18*
%TO.C,HS3*%
X73785000Y-80475000D03*
X99185000Y-80475000D03*
%TD*%
D19*
%TO.C,D6*%
X89030000Y-75710000D03*
D20*
X83950000Y-75710000D03*
%TD*%
D10*
%TO.C,J5*%
X43790000Y-158927500D03*
X28790000Y-158927500D03*
D15*
X40790000Y-156967500D03*
D16*
X37790000Y-156967500D03*
X34790000Y-156967500D03*
X31790000Y-156967500D03*
%TD*%
D19*
%TO.C,D5*%
X83950000Y-85255000D03*
D20*
X89030000Y-85255000D03*
%TD*%
D21*
%TO.C,F2*%
X67045000Y-131955000D03*
X91145000Y-131955000D03*
%TD*%
D18*
%TO.C,HS2*%
X95065000Y-31690000D03*
X95065000Y-57090000D03*
%TD*%
D10*
%TO.C,J1*%
X47942500Y-158845000D03*
X56942500Y-158845000D03*
D15*
X53942500Y-156885000D03*
D16*
X50942500Y-156885000D03*
%TD*%
D22*
%TO.C,U2*%
X30565000Y-79655000D03*
D23*
X30565000Y-82195000D03*
X30565000Y-84735000D03*
X30565000Y-87275000D03*
X30565000Y-89815000D03*
X30565000Y-92355000D03*
X30565000Y-94895000D03*
X30565000Y-97435000D03*
X30565000Y-99975000D03*
X30565000Y-102515000D03*
X30565000Y-105055000D03*
X30565000Y-107595000D03*
X30565000Y-110135000D03*
X30565000Y-112675000D03*
X30565000Y-115215000D03*
X45805000Y-115215000D03*
X45805000Y-112675000D03*
X45805000Y-110135000D03*
X45805000Y-107595000D03*
X45805000Y-105055000D03*
X45805000Y-102515000D03*
X45805000Y-99975000D03*
X45805000Y-97435000D03*
X45805000Y-94895000D03*
X45805000Y-92355000D03*
X45805000Y-89815000D03*
X45805000Y-87275000D03*
X45805000Y-84735000D03*
X45805000Y-82195000D03*
D22*
X45805000Y-79655000D03*
%TD*%
D19*
%TO.C,R5*%
X99800000Y-46985000D03*
D20*
X99800000Y-41905000D03*
%TD*%
D18*
%TO.C,HS1*%
X67530000Y-57085000D03*
X67530000Y-31685000D03*
%TD*%
D24*
%TO.C,JP1*%
X39825000Y-141620000D03*
D25*
X42365000Y-141620000D03*
%TD*%
D26*
%TO.C,C9*%
X110975000Y-41325000D03*
X125975000Y-41325000D03*
%TD*%
D27*
%TO.C,CP1*%
X125570000Y-110435000D03*
D18*
X115570000Y-110435000D03*
%TD*%
D28*
%TO.C,U1*%
X49347500Y-149695000D03*
D29*
X51887500Y-149695000D03*
X54427500Y-149695000D03*
X56967500Y-149695000D03*
%TD*%
D30*
%TO.C,Q1*%
X63525000Y-38930000D03*
D31*
X63525000Y-44380000D03*
X63525000Y-49830000D03*
%TD*%
D13*
%TO.C,J4*%
X90715000Y-151515000D03*
X66975000Y-151515000D03*
D14*
X75035000Y-148715000D03*
X75035000Y-146175000D03*
X75035000Y-141095000D03*
X82655000Y-148715000D03*
X82655000Y-146175000D03*
X82655000Y-141095000D03*
%TD*%
D19*
%TO.C,D4*%
X90270000Y-41905000D03*
D20*
X90270000Y-46985000D03*
%TD*%
D30*
%TO.C,Q2*%
X71435000Y-49800000D03*
D31*
X71435000Y-44350000D03*
X71435000Y-38900000D03*
%TD*%
D32*
%TO.C,L2*%
X133590000Y-69795000D03*
X111790000Y-69795000D03*
%TD*%
D21*
%TO.C,F1*%
X125670000Y-131874000D03*
X101570000Y-131874000D03*
%TD*%
D27*
%TO.C,CP2*%
X84225000Y-110145000D03*
D18*
X74225000Y-110145000D03*
%TD*%
D33*
%TO.C,TP16*%
X111165000Y-134851000D03*
%TD*%
D34*
%TO.C,U6*%
X76181666Y-131717500D03*
D35*
X76581666Y-131667500D03*
D36*
X77150166Y-131836000D03*
X77150166Y-132236000D03*
X77150166Y-132636000D03*
D35*
X76581666Y-132804500D03*
X76181666Y-132804500D03*
D36*
X75613166Y-132636000D03*
X75613166Y-132236000D03*
X75613166Y-131836000D03*
%TD*%
D37*
%TO.C,D2*%
X53730000Y-82680000D03*
X57230000Y-82680000D03*
%TD*%
D38*
%TO.C,R10*%
X69865000Y-116842500D03*
X69865000Y-118667500D03*
%TD*%
D39*
%TO.C,C19*%
X41040000Y-137905000D03*
X42940000Y-137905000D03*
%TD*%
D33*
%TO.C,TP17*%
X84325000Y-133576000D03*
%TD*%
D40*
%TO.C,R6*%
X115840000Y-133512500D03*
X115840000Y-130587500D03*
%TD*%
D33*
%TO.C,TP26*%
X41815000Y-129670000D03*
%TD*%
D39*
%TO.C,C14*%
X40430000Y-117115000D03*
X42330000Y-117115000D03*
%TD*%
D41*
%TO.C,C15*%
X42335000Y-120155000D03*
X40435000Y-120155000D03*
%TD*%
D42*
%TO.C,R9*%
X106520000Y-115368750D03*
X106520000Y-113543750D03*
%TD*%
D33*
%TO.C,TP5*%
X59930000Y-141220000D03*
%TD*%
D43*
%TO.C,R3*%
X54375000Y-121195000D03*
X52550000Y-121195000D03*
%TD*%
D39*
%TO.C,C11*%
X75245000Y-129141000D03*
X77145000Y-129141000D03*
%TD*%
%TO.C,C7*%
X52480000Y-127390000D03*
X54380000Y-127390000D03*
%TD*%
D33*
%TO.C,TP18*%
X84290000Y-130636000D03*
%TD*%
%TO.C,TP31*%
X31790000Y-129670000D03*
%TD*%
%TO.C,TP23*%
X62710000Y-115940000D03*
%TD*%
D37*
%TO.C,D10*%
X63495000Y-112810000D03*
X66995000Y-112810000D03*
%TD*%
D33*
%TO.C,TP19*%
X76546666Y-135926000D03*
%TD*%
D44*
%TO.C,D8*%
X73110000Y-135941000D03*
X73110000Y-132441000D03*
%TD*%
D42*
%TO.C,R14*%
X32050000Y-142425000D03*
X32050000Y-140600000D03*
%TD*%
D33*
%TO.C,TP1*%
X51557500Y-141145000D03*
%TD*%
D39*
%TO.C,C18*%
X41055000Y-135435000D03*
X42955000Y-135435000D03*
%TD*%
%TO.C,C20*%
X35350000Y-137915000D03*
X37250000Y-137915000D03*
%TD*%
%TO.C,C6*%
X52355000Y-136830000D03*
X54255000Y-136830000D03*
%TD*%
D33*
%TO.C,TP7*%
X53665000Y-85550000D03*
%TD*%
%TO.C,TP25*%
X33535000Y-117200000D03*
%TD*%
D41*
%TO.C,C2*%
X56977500Y-146730000D03*
X55077500Y-146730000D03*
%TD*%
D45*
%TO.C,U8*%
X65245000Y-115939882D03*
X66195000Y-115939882D03*
X67145000Y-115939882D03*
X67145000Y-118214882D03*
X66195000Y-118214882D03*
X65245000Y-118214882D03*
%TD*%
D33*
%TO.C,TP27*%
X37795000Y-129665000D03*
%TD*%
D43*
%TO.C,R12*%
X32002500Y-135415000D03*
X30177500Y-135415000D03*
%TD*%
D42*
%TO.C,R11*%
X69850000Y-114312500D03*
X69850000Y-112487500D03*
%TD*%
D33*
%TO.C,TP24*%
X33505000Y-120180000D03*
%TD*%
D44*
%TO.C,D7*%
X107565000Y-134846000D03*
X107565000Y-131346000D03*
%TD*%
D46*
%TO.C,D3*%
X56760000Y-68665000D03*
X56760000Y-71465000D03*
%TD*%
D47*
%TO.C,L1*%
X53310000Y-134015000D03*
X53310000Y-130415000D03*
%TD*%
D33*
%TO.C,TP22*%
X69955000Y-121192500D03*
%TD*%
D38*
%TO.C,R16*%
X97515000Y-145375000D03*
X97515000Y-147200000D03*
%TD*%
%TO.C,R8*%
X106515000Y-117878750D03*
X106515000Y-119703750D03*
%TD*%
D48*
%TO.C,C4*%
X50630000Y-77930000D03*
X50630000Y-79830000D03*
%TD*%
D33*
%TO.C,TP30*%
X33785000Y-129670000D03*
%TD*%
%TO.C,TP8*%
X57245000Y-76820000D03*
%TD*%
D41*
%TO.C,C12*%
X103785000Y-122083750D03*
X101885000Y-122083750D03*
%TD*%
D33*
%TO.C,TP29*%
X39805000Y-129670000D03*
%TD*%
D38*
%TO.C,R13*%
X34740000Y-140615000D03*
X34740000Y-142440000D03*
%TD*%
D41*
%TO.C,C8*%
X54370000Y-124435000D03*
X52470000Y-124435000D03*
%TD*%
D43*
%TO.C,R17*%
X26887500Y-95510000D03*
X25062500Y-95510000D03*
%TD*%
D33*
%TO.C,TP4*%
X37870000Y-114145000D03*
%TD*%
D38*
%TO.C,R15*%
X135870000Y-145574000D03*
X135870000Y-147399000D03*
%TD*%
D43*
%TO.C,R1*%
X57012500Y-143775000D03*
X55187500Y-143775000D03*
%TD*%
D33*
%TO.C,TP21*%
X99420000Y-116943750D03*
%TD*%
%TO.C,TP2*%
X49350000Y-141170000D03*
%TD*%
D41*
%TO.C,C13*%
X67140000Y-121145000D03*
X65240000Y-121145000D03*
%TD*%
D45*
%TO.C,U7*%
X101895000Y-116951250D03*
X102845000Y-116951250D03*
X103795000Y-116951250D03*
X103795000Y-119226250D03*
X102845000Y-119226250D03*
X101895000Y-119226250D03*
%TD*%
D39*
%TO.C,C16*%
X35980000Y-117155000D03*
X37880000Y-117155000D03*
%TD*%
D33*
%TO.C,TP12*%
X114880000Y-41345000D03*
%TD*%
%TO.C,TP13*%
X121900000Y-41370000D03*
%TD*%
D41*
%TO.C,C1*%
X51262500Y-146765000D03*
X49362500Y-146765000D03*
%TD*%
D33*
%TO.C,TP9*%
X50625000Y-71295000D03*
%TD*%
%TO.C,TP11*%
X105130000Y-47320000D03*
%TD*%
%TO.C,TP6*%
X55077500Y-141125000D03*
%TD*%
D41*
%TO.C,C17*%
X37875000Y-120175000D03*
X35975000Y-120175000D03*
%TD*%
D43*
%TO.C,R21*%
X26887500Y-107140000D03*
X25062500Y-107140000D03*
%TD*%
D33*
%TO.C,TP15*%
X118775000Y-133511000D03*
%TD*%
D41*
%TO.C,C21*%
X37250000Y-135425000D03*
X35350000Y-135425000D03*
%TD*%
D33*
%TO.C,TP20*%
X106505000Y-122068750D03*
%TD*%
D34*
%TO.C,U5*%
X110775000Y-131472500D03*
D35*
X111175000Y-131422500D03*
D36*
X111743500Y-131591000D03*
X111743500Y-131991000D03*
X111743500Y-132391000D03*
D35*
X111175000Y-132559500D03*
X110775000Y-132559500D03*
D36*
X110206500Y-132391000D03*
X110206500Y-131991000D03*
X110206500Y-131591000D03*
%TD*%
D49*
%TO.C,D1*%
X51547500Y-143795000D03*
X49347500Y-143795000D03*
%TD*%
D43*
%TO.C,R22*%
X26860000Y-101295000D03*
X25035000Y-101295000D03*
%TD*%
D33*
%TO.C,TP28*%
X35785000Y-129670000D03*
%TD*%
%TO.C,TP14*%
X118775000Y-130571000D03*
%TD*%
D50*
%TO.C,R7*%
X81360000Y-130643500D03*
X81360000Y-133568500D03*
%TD*%
D37*
%TO.C,D9*%
X100150000Y-113913750D03*
X103650000Y-113913750D03*
%TD*%
D33*
%TO.C,TP3*%
X28325000Y-67440000D03*
%TD*%
D43*
%TO.C,R20*%
X26880000Y-110130000D03*
X25055000Y-110130000D03*
%TD*%
D39*
%TO.C,C10*%
X109830000Y-128866000D03*
X111730000Y-128866000D03*
%TD*%
D48*
%TO.C,C5*%
X50610000Y-73965000D03*
X50610000Y-75865000D03*
%TD*%
D33*
%TO.C,TP10*%
X53570000Y-69670000D03*
%TD*%
D38*
%TO.C,R4*%
X59885000Y-69650000D03*
X59885000Y-71475000D03*
%TD*%
D43*
%TO.C,R19*%
X26885000Y-104250000D03*
X25060000Y-104250000D03*
%TD*%
D51*
%TO.C,C3*%
X28325000Y-64685000D03*
X28325000Y-62785000D03*
%TD*%
D43*
%TO.C,R18*%
X26887500Y-98420000D03*
X25062500Y-98420000D03*
%TD*%
M02*
