G04 #@! TF.GenerationSoftware,KiCad,Pcbnew,(6.0.1)*
G04 #@! TF.CreationDate,2022-03-10T17:03:53-06:00*
G04 #@! TF.ProjectId,MPPT,4d505054-2e6b-4696-9361-645f70636258,1.4.0*
G04 #@! TF.SameCoordinates,PX10b1ae8PY9b06478*
G04 #@! TF.FileFunction,Paste,Top*
G04 #@! TF.FilePolarity,Positive*
%FSLAX46Y46*%
G04 Gerber Fmt 4.6, Leading zero omitted, Abs format (unit mm)*
G04 Created by KiCad (PCBNEW (6.0.1)) date 2022-03-10 17:03:53*
%MOMM*%
%LPD*%
G01*
G04 APERTURE LIST*
%ADD10R,0.650000X1.800000*%
%ADD11R,1.520000X2.160000*%
G04 APERTURE END LIST*
G36*
G01*
X7135000Y29165000D02*
X7435000Y29165000D01*
G75*
G02*
X7585000Y29015000I0J-150000D01*
G01*
X7585000Y27840000D01*
G75*
G02*
X7435000Y27690000I-150000J0D01*
G01*
X7135000Y27690000D01*
G75*
G02*
X6985000Y27840000I0J150000D01*
G01*
X6985000Y29015000D01*
G75*
G02*
X7135000Y29165000I150000J0D01*
G01*
G37*
G36*
G01*
X5235000Y29165000D02*
X5535000Y29165000D01*
G75*
G02*
X5685000Y29015000I0J-150000D01*
G01*
X5685000Y27840000D01*
G75*
G02*
X5535000Y27690000I-150000J0D01*
G01*
X5235000Y27690000D01*
G75*
G02*
X5085000Y27840000I0J150000D01*
G01*
X5085000Y29015000D01*
G75*
G02*
X5235000Y29165000I150000J0D01*
G01*
G37*
G36*
G01*
X6185000Y27290000D02*
X6485000Y27290000D01*
G75*
G02*
X6635000Y27140000I0J-150000D01*
G01*
X6635000Y25965000D01*
G75*
G02*
X6485000Y25815000I-150000J0D01*
G01*
X6185000Y25815000D01*
G75*
G02*
X6035000Y25965000I0J150000D01*
G01*
X6035000Y27140000D01*
G75*
G02*
X6185000Y27290000I150000J0D01*
G01*
G37*
G36*
G01*
X36525000Y90542500D02*
X35625000Y90542500D01*
G75*
G02*
X35375000Y90792500I0J250000D01*
G01*
X35375000Y91317500D01*
G75*
G02*
X35625000Y91567500I250000J0D01*
G01*
X36525000Y91567500D01*
G75*
G02*
X36775000Y91317500I0J-250000D01*
G01*
X36775000Y90792500D01*
G75*
G02*
X36525000Y90542500I-250000J0D01*
G01*
G37*
G36*
G01*
X36525000Y92367500D02*
X35625000Y92367500D01*
G75*
G02*
X35375000Y92617500I0J250000D01*
G01*
X35375000Y93142500D01*
G75*
G02*
X35625000Y93392500I250000J0D01*
G01*
X36525000Y93392500D01*
G75*
G02*
X36775000Y93142500I0J-250000D01*
G01*
X36775000Y92617500D01*
G75*
G02*
X36525000Y92367500I-250000J0D01*
G01*
G37*
G36*
G01*
X10110000Y75176250D02*
X10110000Y74263750D01*
G75*
G02*
X9866250Y74020000I-243750J0D01*
G01*
X9378750Y74020000D01*
G75*
G02*
X9135000Y74263750I0J243750D01*
G01*
X9135000Y75176250D01*
G75*
G02*
X9378750Y75420000I243750J0D01*
G01*
X9866250Y75420000D01*
G75*
G02*
X10110000Y75176250I0J-243750D01*
G01*
G37*
G36*
G01*
X8235000Y75176250D02*
X8235000Y74263750D01*
G75*
G02*
X7991250Y74020000I-243750J0D01*
G01*
X7503750Y74020000D01*
G75*
G02*
X7260000Y74263750I0J243750D01*
G01*
X7260000Y75176250D01*
G75*
G02*
X7503750Y75420000I243750J0D01*
G01*
X7991250Y75420000D01*
G75*
G02*
X8235000Y75176250I0J-243750D01*
G01*
G37*
G36*
G01*
X10082500Y69401250D02*
X10082500Y68488750D01*
G75*
G02*
X9838750Y68245000I-243750J0D01*
G01*
X9351250Y68245000D01*
G75*
G02*
X9107500Y68488750I0J243750D01*
G01*
X9107500Y69401250D01*
G75*
G02*
X9351250Y69645000I243750J0D01*
G01*
X9838750Y69645000D01*
G75*
G02*
X10082500Y69401250I0J-243750D01*
G01*
G37*
G36*
G01*
X8207500Y69401250D02*
X8207500Y68488750D01*
G75*
G02*
X7963750Y68245000I-243750J0D01*
G01*
X7476250Y68245000D01*
G75*
G02*
X7232500Y68488750I0J243750D01*
G01*
X7232500Y69401250D01*
G75*
G02*
X7476250Y69645000I243750J0D01*
G01*
X7963750Y69645000D01*
G75*
G02*
X8207500Y69401250I0J-243750D01*
G01*
G37*
D10*
X15285000Y45937500D03*
X14015000Y45937500D03*
X12745000Y45937500D03*
X11475000Y45937500D03*
X10205000Y45937500D03*
X8935000Y45937500D03*
X7665000Y45937500D03*
X6395000Y45937500D03*
X5125000Y45937500D03*
X3855000Y45937500D03*
X3855000Y36487500D03*
X5125000Y36487500D03*
X6395000Y36487500D03*
X7665000Y36487500D03*
X8935000Y36487500D03*
X10205000Y36487500D03*
X11475000Y36487500D03*
X12745000Y36487500D03*
X14015000Y36487500D03*
X15285000Y36487500D03*
G36*
G01*
X16431250Y30895000D02*
X15668750Y30895000D01*
G75*
G02*
X15450000Y31113750I0J218750D01*
G01*
X15450000Y31551250D01*
G75*
G02*
X15668750Y31770000I218750J0D01*
G01*
X16431250Y31770000D01*
G75*
G02*
X16650000Y31551250I0J-218750D01*
G01*
X16650000Y31113750D01*
G75*
G02*
X16431250Y30895000I-218750J0D01*
G01*
G37*
G36*
G01*
X16431250Y33020000D02*
X15668750Y33020000D01*
G75*
G02*
X15450000Y33238750I0J218750D01*
G01*
X15450000Y33676250D01*
G75*
G02*
X15668750Y33895000I218750J0D01*
G01*
X16431250Y33895000D01*
G75*
G02*
X16650000Y33676250I0J-218750D01*
G01*
X16650000Y33238750D01*
G75*
G02*
X16431250Y33020000I-218750J0D01*
G01*
G37*
G36*
G01*
X10095000Y60571250D02*
X10095000Y59658750D01*
G75*
G02*
X9851250Y59415000I-243750J0D01*
G01*
X9363750Y59415000D01*
G75*
G02*
X9120000Y59658750I0J243750D01*
G01*
X9120000Y60571250D01*
G75*
G02*
X9363750Y60815000I243750J0D01*
G01*
X9851250Y60815000D01*
G75*
G02*
X10095000Y60571250I0J-243750D01*
G01*
G37*
G36*
G01*
X8220000Y60571250D02*
X8220000Y59658750D01*
G75*
G02*
X7976250Y59415000I-243750J0D01*
G01*
X7488750Y59415000D01*
G75*
G02*
X7245000Y59658750I0J243750D01*
G01*
X7245000Y60571250D01*
G75*
G02*
X7488750Y60815000I243750J0D01*
G01*
X7976250Y60815000D01*
G75*
G02*
X8220000Y60571250I0J-243750D01*
G01*
G37*
G36*
G01*
X14206250Y30880000D02*
X13443750Y30880000D01*
G75*
G02*
X13225000Y31098750I0J218750D01*
G01*
X13225000Y31536250D01*
G75*
G02*
X13443750Y31755000I218750J0D01*
G01*
X14206250Y31755000D01*
G75*
G02*
X14425000Y31536250I0J-218750D01*
G01*
X14425000Y31098750D01*
G75*
G02*
X14206250Y30880000I-218750J0D01*
G01*
G37*
G36*
G01*
X14206250Y33005000D02*
X13443750Y33005000D01*
G75*
G02*
X13225000Y33223750I0J218750D01*
G01*
X13225000Y33661250D01*
G75*
G02*
X13443750Y33880000I218750J0D01*
G01*
X14206250Y33880000D01*
G75*
G02*
X14425000Y33661250I0J-218750D01*
G01*
X14425000Y33223750D01*
G75*
G02*
X14206250Y33005000I-218750J0D01*
G01*
G37*
G36*
G01*
X10095000Y66446250D02*
X10095000Y65533750D01*
G75*
G02*
X9851250Y65290000I-243750J0D01*
G01*
X9363750Y65290000D01*
G75*
G02*
X9120000Y65533750I0J243750D01*
G01*
X9120000Y66446250D01*
G75*
G02*
X9363750Y66690000I243750J0D01*
G01*
X9851250Y66690000D01*
G75*
G02*
X10095000Y66446250I0J-243750D01*
G01*
G37*
G36*
G01*
X8220000Y66446250D02*
X8220000Y65533750D01*
G75*
G02*
X7976250Y65290000I-243750J0D01*
G01*
X7488750Y65290000D01*
G75*
G02*
X7245000Y65533750I0J243750D01*
G01*
X7245000Y66446250D01*
G75*
G02*
X7488750Y66690000I243750J0D01*
G01*
X7976250Y66690000D01*
G75*
G02*
X8220000Y66446250I0J-243750D01*
G01*
G37*
G36*
G01*
X28660000Y26730000D02*
X30700000Y26730000D01*
G75*
G02*
X30950000Y26480000I0J-250000D01*
G01*
X30950000Y25980000D01*
G75*
G02*
X30700000Y25730000I-250000J0D01*
G01*
X28660000Y25730000D01*
G75*
G02*
X28410000Y25980000I0J250000D01*
G01*
X28410000Y26480000D01*
G75*
G02*
X28660000Y26730000I250000J0D01*
G01*
G37*
G36*
G01*
X28660000Y29270000D02*
X30700000Y29270000D01*
G75*
G02*
X30950000Y29020000I0J-250000D01*
G01*
X30950000Y28520000D01*
G75*
G02*
X30700000Y28270000I-250000J0D01*
G01*
X28660000Y28270000D01*
G75*
G02*
X28410000Y28520000I0J250000D01*
G01*
X28410000Y29020000D01*
G75*
G02*
X28660000Y29270000I250000J0D01*
G01*
G37*
G36*
G01*
X28660000Y34350000D02*
X30700000Y34350000D01*
G75*
G02*
X30950000Y34100000I0J-250000D01*
G01*
X30950000Y33600000D01*
G75*
G02*
X30700000Y33350000I-250000J0D01*
G01*
X28660000Y33350000D01*
G75*
G02*
X28410000Y33600000I0J250000D01*
G01*
X28410000Y34100000D01*
G75*
G02*
X28660000Y34350000I250000J0D01*
G01*
G37*
G36*
G01*
X18500000Y34350000D02*
X20540000Y34350000D01*
G75*
G02*
X20790000Y34100000I0J-250000D01*
G01*
X20790000Y33600000D01*
G75*
G02*
X20540000Y33350000I-250000J0D01*
G01*
X18500000Y33350000D01*
G75*
G02*
X18250000Y33600000I0J250000D01*
G01*
X18250000Y34100000D01*
G75*
G02*
X18500000Y34350000I250000J0D01*
G01*
G37*
G36*
G01*
X18500000Y26730000D02*
X20540000Y26730000D01*
G75*
G02*
X20790000Y26480000I0J-250000D01*
G01*
X20790000Y25980000D01*
G75*
G02*
X20540000Y25730000I-250000J0D01*
G01*
X18500000Y25730000D01*
G75*
G02*
X18250000Y25980000I0J250000D01*
G01*
X18250000Y26480000D01*
G75*
G02*
X18500000Y26730000I250000J0D01*
G01*
G37*
G36*
G01*
X113131250Y28335000D02*
X112218750Y28335000D01*
G75*
G02*
X111975000Y28578750I0J243750D01*
G01*
X111975000Y29066250D01*
G75*
G02*
X112218750Y29310000I243750J0D01*
G01*
X113131250Y29310000D01*
G75*
G02*
X113375000Y29066250I0J-243750D01*
G01*
X113375000Y28578750D01*
G75*
G02*
X113131250Y28335000I-243750J0D01*
G01*
G37*
G36*
G01*
X113131250Y30210000D02*
X112218750Y30210000D01*
G75*
G02*
X111975000Y30453750I0J243750D01*
G01*
X111975000Y30941250D01*
G75*
G02*
X112218750Y31185000I243750J0D01*
G01*
X113131250Y31185000D01*
G75*
G02*
X113375000Y30941250I0J-243750D01*
G01*
X113375000Y30453750D01*
G75*
G02*
X113131250Y30210000I-243750J0D01*
G01*
G37*
D11*
X6985000Y87200000D03*
X4445000Y87200000D03*
X4445000Y78940000D03*
X6985000Y78940000D03*
G36*
G01*
X10100000Y63566250D02*
X10100000Y62653750D01*
G75*
G02*
X9856250Y62410000I-243750J0D01*
G01*
X9368750Y62410000D01*
G75*
G02*
X9125000Y62653750I0J243750D01*
G01*
X9125000Y63566250D01*
G75*
G02*
X9368750Y63810000I243750J0D01*
G01*
X9856250Y63810000D01*
G75*
G02*
X10100000Y63566250I0J-243750D01*
G01*
G37*
G36*
G01*
X8225000Y63566250D02*
X8225000Y62653750D01*
G75*
G02*
X7981250Y62410000I-243750J0D01*
G01*
X7493750Y62410000D01*
G75*
G02*
X7250000Y62653750I0J243750D01*
G01*
X7250000Y63566250D01*
G75*
G02*
X7493750Y63810000I243750J0D01*
G01*
X7981250Y63810000D01*
G75*
G02*
X8225000Y63566250I0J-243750D01*
G01*
G37*
G36*
G01*
X24182500Y18913750D02*
X24182500Y19826250D01*
G75*
G02*
X24426250Y20070000I243750J0D01*
G01*
X24913750Y20070000D01*
G75*
G02*
X25157500Y19826250I0J-243750D01*
G01*
X25157500Y18913750D01*
G75*
G02*
X24913750Y18670000I-243750J0D01*
G01*
X24426250Y18670000D01*
G75*
G02*
X24182500Y18913750I0J243750D01*
G01*
G37*
G36*
G01*
X26057500Y18913750D02*
X26057500Y19826250D01*
G75*
G02*
X26301250Y20070000I243750J0D01*
G01*
X26788750Y20070000D01*
G75*
G02*
X27032500Y19826250I0J-243750D01*
G01*
X27032500Y18913750D01*
G75*
G02*
X26788750Y18670000I-243750J0D01*
G01*
X26301250Y18670000D01*
G75*
G02*
X26057500Y18913750I0J243750D01*
G01*
G37*
G36*
G01*
X21295000Y38863750D02*
X21295000Y39776250D01*
G75*
G02*
X21538750Y40020000I243750J0D01*
G01*
X22026250Y40020000D01*
G75*
G02*
X22270000Y39776250I0J-243750D01*
G01*
X22270000Y38863750D01*
G75*
G02*
X22026250Y38620000I-243750J0D01*
G01*
X21538750Y38620000D01*
G75*
G02*
X21295000Y38863750I0J243750D01*
G01*
G37*
G36*
G01*
X23170000Y38863750D02*
X23170000Y39776250D01*
G75*
G02*
X23413750Y40020000I243750J0D01*
G01*
X23901250Y40020000D01*
G75*
G02*
X24145000Y39776250I0J-243750D01*
G01*
X24145000Y38863750D01*
G75*
G02*
X23901250Y38620000I-243750J0D01*
G01*
X23413750Y38620000D01*
G75*
G02*
X23170000Y38863750I0J243750D01*
G01*
G37*
G36*
G01*
X78406250Y28252500D02*
X77493750Y28252500D01*
G75*
G02*
X77250000Y28496250I0J243750D01*
G01*
X77250000Y28983750D01*
G75*
G02*
X77493750Y29227500I243750J0D01*
G01*
X78406250Y29227500D01*
G75*
G02*
X78650000Y28983750I0J-243750D01*
G01*
X78650000Y28496250D01*
G75*
G02*
X78406250Y28252500I-243750J0D01*
G01*
G37*
G36*
G01*
X78406250Y30127500D02*
X77493750Y30127500D01*
G75*
G02*
X77250000Y30371250I0J243750D01*
G01*
X77250000Y30858750D01*
G75*
G02*
X77493750Y31102500I243750J0D01*
G01*
X78406250Y31102500D01*
G75*
G02*
X78650000Y30858750I0J-243750D01*
G01*
X78650000Y30371250D01*
G75*
G02*
X78406250Y30127500I-243750J0D01*
G01*
G37*
G36*
G01*
X36070000Y82235000D02*
X35770000Y82235000D01*
G75*
G02*
X35620000Y82385000I0J150000D01*
G01*
X35620000Y84035000D01*
G75*
G02*
X35770000Y84185000I150000J0D01*
G01*
X36070000Y84185000D01*
G75*
G02*
X36220000Y84035000I0J-150000D01*
G01*
X36220000Y82385000D01*
G75*
G02*
X36070000Y82235000I-150000J0D01*
G01*
G37*
G36*
G01*
X37340000Y82235000D02*
X37040000Y82235000D01*
G75*
G02*
X36890000Y82385000I0J150000D01*
G01*
X36890000Y84035000D01*
G75*
G02*
X37040000Y84185000I150000J0D01*
G01*
X37340000Y84185000D01*
G75*
G02*
X37490000Y84035000I0J-150000D01*
G01*
X37490000Y82385000D01*
G75*
G02*
X37340000Y82235000I-150000J0D01*
G01*
G37*
G36*
G01*
X38610000Y82235000D02*
X38310000Y82235000D01*
G75*
G02*
X38160000Y82385000I0J150000D01*
G01*
X38160000Y84035000D01*
G75*
G02*
X38310000Y84185000I150000J0D01*
G01*
X38610000Y84185000D01*
G75*
G02*
X38760000Y84035000I0J-150000D01*
G01*
X38760000Y82385000D01*
G75*
G02*
X38610000Y82235000I-150000J0D01*
G01*
G37*
G36*
G01*
X39880000Y82235000D02*
X39580000Y82235000D01*
G75*
G02*
X39430000Y82385000I0J150000D01*
G01*
X39430000Y84035000D01*
G75*
G02*
X39580000Y84185000I150000J0D01*
G01*
X39880000Y84185000D01*
G75*
G02*
X40030000Y84035000I0J-150000D01*
G01*
X40030000Y82385000D01*
G75*
G02*
X39880000Y82235000I-150000J0D01*
G01*
G37*
G36*
G01*
X39880000Y87185000D02*
X39580000Y87185000D01*
G75*
G02*
X39430000Y87335000I0J150000D01*
G01*
X39430000Y88985000D01*
G75*
G02*
X39580000Y89135000I150000J0D01*
G01*
X39880000Y89135000D01*
G75*
G02*
X40030000Y88985000I0J-150000D01*
G01*
X40030000Y87335000D01*
G75*
G02*
X39880000Y87185000I-150000J0D01*
G01*
G37*
G36*
G01*
X38610000Y87185000D02*
X38310000Y87185000D01*
G75*
G02*
X38160000Y87335000I0J150000D01*
G01*
X38160000Y88985000D01*
G75*
G02*
X38310000Y89135000I150000J0D01*
G01*
X38610000Y89135000D01*
G75*
G02*
X38760000Y88985000I0J-150000D01*
G01*
X38760000Y87335000D01*
G75*
G02*
X38610000Y87185000I-150000J0D01*
G01*
G37*
G36*
G01*
X37340000Y87185000D02*
X37040000Y87185000D01*
G75*
G02*
X36890000Y87335000I0J150000D01*
G01*
X36890000Y88985000D01*
G75*
G02*
X37040000Y89135000I150000J0D01*
G01*
X37340000Y89135000D01*
G75*
G02*
X37490000Y88985000I0J-150000D01*
G01*
X37490000Y87335000D01*
G75*
G02*
X37340000Y87185000I-150000J0D01*
G01*
G37*
G36*
G01*
X36070000Y87185000D02*
X35770000Y87185000D01*
G75*
G02*
X35620000Y87335000I0J150000D01*
G01*
X35620000Y88985000D01*
G75*
G02*
X35770000Y89135000I150000J0D01*
G01*
X36070000Y89135000D01*
G75*
G02*
X36220000Y88985000I0J-150000D01*
G01*
X36220000Y87335000D01*
G75*
G02*
X36070000Y87185000I-150000J0D01*
G01*
G37*
G36*
G01*
X10100000Y72281250D02*
X10100000Y71368750D01*
G75*
G02*
X9856250Y71125000I-243750J0D01*
G01*
X9368750Y71125000D01*
G75*
G02*
X9125000Y71368750I0J243750D01*
G01*
X9125000Y72281250D01*
G75*
G02*
X9368750Y72525000I243750J0D01*
G01*
X9856250Y72525000D01*
G75*
G02*
X10100000Y72281250I0J-243750D01*
G01*
G37*
G36*
G01*
X8225000Y72281250D02*
X8225000Y71368750D01*
G75*
G02*
X7981250Y71125000I-243750J0D01*
G01*
X7493750Y71125000D01*
G75*
G02*
X7250000Y71368750I0J243750D01*
G01*
X7250000Y72281250D01*
G75*
G02*
X7493750Y72525000I243750J0D01*
G01*
X7981250Y72525000D01*
G75*
G02*
X8225000Y72281250I0J-243750D01*
G01*
G37*
M02*
