%TF.GenerationSoftware,KiCad,Pcbnew,(6.0.1)*%
%TF.CreationDate,2022-02-04T16:06:47-06:00*%
%TF.ProjectId,MPPT,4d505054-2e6b-4696-9361-645f70636258,1.3.0*%
%TF.SameCoordinates,Original*%
%TF.FileFunction,AssemblyDrawing,Bot*%
%FSLAX46Y46*%
G04 Gerber Fmt 4.6, Leading zero omitted, Abs format (unit mm)*
G04 Created by KiCad (PCBNEW (6.0.1)) date 2022-02-04 16:06:47*
%MOMM*%
%LPD*%
G01*
G04 APERTURE LIST*
%ADD10C,0.150000*%
%ADD11C,0.100000*%
G04 APERTURE END LIST*
D10*
%TO.C,TP16*%
X115012619Y-136534333D02*
X114631666Y-136534333D01*
X115088809Y-136762904D02*
X114822142Y-135962904D01*
X114555476Y-136762904D01*
X114288809Y-136762904D02*
X114288809Y-136229571D01*
X114288809Y-136381952D02*
X114250714Y-136305761D01*
X114212619Y-136267666D01*
X114136428Y-136229571D01*
X114060238Y-136229571D01*
X113793571Y-136762904D02*
X113793571Y-136229571D01*
X113793571Y-136381952D02*
X113755476Y-136305761D01*
X113717380Y-136267666D01*
X113641190Y-136229571D01*
X113565000Y-136229571D01*
X112955476Y-136762904D02*
X112955476Y-136343857D01*
X112993571Y-136267666D01*
X113069761Y-136229571D01*
X113222142Y-136229571D01*
X113298333Y-136267666D01*
X112955476Y-136724809D02*
X113031666Y-136762904D01*
X113222142Y-136762904D01*
X113298333Y-136724809D01*
X113336428Y-136648619D01*
X113336428Y-136572428D01*
X113298333Y-136496238D01*
X113222142Y-136458142D01*
X113031666Y-136458142D01*
X112955476Y-136420047D01*
X112650714Y-136229571D02*
X112460238Y-136762904D01*
X112269761Y-136229571D02*
X112460238Y-136762904D01*
X112536428Y-136953380D01*
X112574523Y-136991476D01*
X112650714Y-137029571D01*
X110898333Y-136686714D02*
X110936428Y-136724809D01*
X111050714Y-136762904D01*
X111126904Y-136762904D01*
X111241190Y-136724809D01*
X111317380Y-136648619D01*
X111355476Y-136572428D01*
X111393571Y-136420047D01*
X111393571Y-136305761D01*
X111355476Y-136153380D01*
X111317380Y-136077190D01*
X111241190Y-136001000D01*
X111126904Y-135962904D01*
X111050714Y-135962904D01*
X110936428Y-136001000D01*
X110898333Y-136039095D01*
X110212619Y-136229571D02*
X110212619Y-136762904D01*
X110555476Y-136229571D02*
X110555476Y-136648619D01*
X110517380Y-136724809D01*
X110441190Y-136762904D01*
X110326904Y-136762904D01*
X110250714Y-136724809D01*
X110212619Y-136686714D01*
X109831666Y-136762904D02*
X109831666Y-136229571D01*
X109831666Y-136381952D02*
X109793571Y-136305761D01*
X109755476Y-136267666D01*
X109679285Y-136229571D01*
X109603095Y-136229571D01*
X109336428Y-136762904D02*
X109336428Y-136229571D01*
X109336428Y-136381952D02*
X109298333Y-136305761D01*
X109260238Y-136267666D01*
X109184047Y-136229571D01*
X109107857Y-136229571D01*
X108536428Y-136724809D02*
X108612619Y-136762904D01*
X108765000Y-136762904D01*
X108841190Y-136724809D01*
X108879285Y-136648619D01*
X108879285Y-136343857D01*
X108841190Y-136267666D01*
X108765000Y-136229571D01*
X108612619Y-136229571D01*
X108536428Y-136267666D01*
X108498333Y-136343857D01*
X108498333Y-136420047D01*
X108879285Y-136496238D01*
X108155476Y-136229571D02*
X108155476Y-136762904D01*
X108155476Y-136305761D02*
X108117380Y-136267666D01*
X108041190Y-136229571D01*
X107926904Y-136229571D01*
X107850714Y-136267666D01*
X107812619Y-136343857D01*
X107812619Y-136762904D01*
X107545952Y-136229571D02*
X107241190Y-136229571D01*
X107431666Y-135962904D02*
X107431666Y-136648619D01*
X107393571Y-136724809D01*
X107317380Y-136762904D01*
X107241190Y-136762904D01*
X112555476Y-132962904D02*
X112098333Y-132962904D01*
X112326904Y-133762904D02*
X112326904Y-132962904D01*
X111831666Y-133762904D02*
X111831666Y-132962904D01*
X111526904Y-132962904D01*
X111450714Y-133001000D01*
X111412619Y-133039095D01*
X111374523Y-133115285D01*
X111374523Y-133229571D01*
X111412619Y-133305761D01*
X111450714Y-133343857D01*
X111526904Y-133381952D01*
X111831666Y-133381952D01*
X110612619Y-133762904D02*
X111069761Y-133762904D01*
X110841190Y-133762904D02*
X110841190Y-132962904D01*
X110917380Y-133077190D01*
X110993571Y-133153380D01*
X111069761Y-133191476D01*
X109926904Y-132962904D02*
X110079285Y-132962904D01*
X110155476Y-133001000D01*
X110193571Y-133039095D01*
X110269761Y-133153380D01*
X110307857Y-133305761D01*
X110307857Y-133610523D01*
X110269761Y-133686714D01*
X110231666Y-133724809D01*
X110155476Y-133762904D01*
X110003095Y-133762904D01*
X109926904Y-133724809D01*
X109888809Y-133686714D01*
X109850714Y-133610523D01*
X109850714Y-133420047D01*
X109888809Y-133343857D01*
X109926904Y-133305761D01*
X110003095Y-133267666D01*
X110155476Y-133267666D01*
X110231666Y-133305761D01*
X110269761Y-133343857D01*
X110307857Y-133420047D01*
%TO.C,U6*%
X78743570Y-130331238D02*
X77943570Y-130331238D01*
X78743570Y-130712190D02*
X77943570Y-130712190D01*
X78743570Y-131169333D01*
X77943570Y-131169333D01*
X78514999Y-131512190D02*
X78514999Y-131893142D01*
X78743570Y-131436000D02*
X77943570Y-131702666D01*
X78743570Y-131969333D01*
X78019761Y-132197904D02*
X77981666Y-132236000D01*
X77943570Y-132312190D01*
X77943570Y-132502666D01*
X77981666Y-132578857D01*
X78019761Y-132616952D01*
X78095951Y-132655047D01*
X78172142Y-132655047D01*
X78286427Y-132616952D01*
X78743570Y-132159809D01*
X78743570Y-132655047D01*
X78743570Y-133416952D02*
X78743570Y-132959809D01*
X78743570Y-133188380D02*
X77943570Y-133188380D01*
X78057856Y-133112190D01*
X78134046Y-133036000D01*
X78172142Y-132959809D01*
X77943570Y-133912190D02*
X77943570Y-133988380D01*
X77981666Y-134064571D01*
X78019761Y-134102666D01*
X78095951Y-134140761D01*
X78248332Y-134178857D01*
X78438808Y-134178857D01*
X78591189Y-134140761D01*
X78667380Y-134102666D01*
X78705475Y-134064571D01*
X78743570Y-133988380D01*
X78743570Y-133912190D01*
X78705475Y-133836000D01*
X78667380Y-133797904D01*
X78591189Y-133759809D01*
X78438808Y-133721714D01*
X78248332Y-133721714D01*
X78095951Y-133759809D01*
X78019761Y-133797904D01*
X77981666Y-133836000D01*
X77943570Y-133912190D01*
X75943570Y-131626476D02*
X76591189Y-131626476D01*
X76667380Y-131664571D01*
X76705475Y-131702666D01*
X76743570Y-131778857D01*
X76743570Y-131931238D01*
X76705475Y-132007428D01*
X76667380Y-132045523D01*
X76591189Y-132083619D01*
X75943570Y-132083619D01*
X75943570Y-132807428D02*
X75943570Y-132655047D01*
X75981666Y-132578857D01*
X76019761Y-132540761D01*
X76134046Y-132464571D01*
X76286427Y-132426476D01*
X76591189Y-132426476D01*
X76667380Y-132464571D01*
X76705475Y-132502666D01*
X76743570Y-132578857D01*
X76743570Y-132731238D01*
X76705475Y-132807428D01*
X76667380Y-132845523D01*
X76591189Y-132883619D01*
X76400713Y-132883619D01*
X76324523Y-132845523D01*
X76286427Y-132807428D01*
X76248332Y-132731238D01*
X76248332Y-132578857D01*
X76286427Y-132502666D01*
X76324523Y-132464571D01*
X76400713Y-132426476D01*
%TO.C,D2*%
X58641904Y-80491904D02*
X58146666Y-80491904D01*
X58413333Y-80796666D01*
X58299047Y-80796666D01*
X58222857Y-80834761D01*
X58184761Y-80872857D01*
X58146666Y-80949047D01*
X58146666Y-81139523D01*
X58184761Y-81215714D01*
X58222857Y-81253809D01*
X58299047Y-81291904D01*
X58527619Y-81291904D01*
X58603809Y-81253809D01*
X58641904Y-81215714D01*
X57803809Y-81215714D02*
X57765714Y-81253809D01*
X57803809Y-81291904D01*
X57841904Y-81253809D01*
X57803809Y-81215714D01*
X57803809Y-81291904D01*
X57499047Y-80491904D02*
X57003809Y-80491904D01*
X57270476Y-80796666D01*
X57156190Y-80796666D01*
X57080000Y-80834761D01*
X57041904Y-80872857D01*
X57003809Y-80949047D01*
X57003809Y-81139523D01*
X57041904Y-81215714D01*
X57080000Y-81253809D01*
X57156190Y-81291904D01*
X57384761Y-81291904D01*
X57460952Y-81253809D01*
X57499047Y-81215714D01*
X56775238Y-80491904D02*
X56508571Y-81291904D01*
X56241904Y-80491904D01*
X55441904Y-80491904D02*
X54908571Y-80491904D01*
X55441904Y-81291904D01*
X54908571Y-81291904D01*
X54299047Y-81253809D02*
X54375238Y-81291904D01*
X54527619Y-81291904D01*
X54603809Y-81253809D01*
X54641904Y-81177619D01*
X54641904Y-80872857D01*
X54603809Y-80796666D01*
X54527619Y-80758571D01*
X54375238Y-80758571D01*
X54299047Y-80796666D01*
X54260952Y-80872857D01*
X54260952Y-80949047D01*
X54641904Y-81025238D01*
X53918095Y-80758571D02*
X53918095Y-81291904D01*
X53918095Y-80834761D02*
X53880000Y-80796666D01*
X53803809Y-80758571D01*
X53689523Y-80758571D01*
X53613333Y-80796666D01*
X53575238Y-80872857D01*
X53575238Y-81291904D01*
X52889523Y-81253809D02*
X52965714Y-81291904D01*
X53118095Y-81291904D01*
X53194285Y-81253809D01*
X53232380Y-81177619D01*
X53232380Y-80872857D01*
X53194285Y-80796666D01*
X53118095Y-80758571D01*
X52965714Y-80758571D01*
X52889523Y-80796666D01*
X52851428Y-80872857D01*
X52851428Y-80949047D01*
X53232380Y-81025238D01*
X52508571Y-81291904D02*
X52508571Y-80758571D01*
X52508571Y-80910952D02*
X52470476Y-80834761D01*
X52432380Y-80796666D01*
X52356190Y-80758571D01*
X52280000Y-80758571D01*
X56070476Y-85041904D02*
X56070476Y-84241904D01*
X55880000Y-84241904D01*
X55765714Y-84280000D01*
X55689523Y-84356190D01*
X55651428Y-84432380D01*
X55613333Y-84584761D01*
X55613333Y-84699047D01*
X55651428Y-84851428D01*
X55689523Y-84927619D01*
X55765714Y-85003809D01*
X55880000Y-85041904D01*
X56070476Y-85041904D01*
X55308571Y-84318095D02*
X55270476Y-84280000D01*
X55194285Y-84241904D01*
X55003809Y-84241904D01*
X54927619Y-84280000D01*
X54889523Y-84318095D01*
X54851428Y-84394285D01*
X54851428Y-84470476D01*
X54889523Y-84584761D01*
X55346666Y-85041904D01*
X54851428Y-85041904D01*
%TO.C,R10*%
X71876904Y-116897857D02*
X71876904Y-116440714D01*
X71876904Y-116669285D02*
X71076904Y-116669285D01*
X71191190Y-116593095D01*
X71267380Y-116516904D01*
X71305476Y-116440714D01*
X71076904Y-117393095D02*
X71076904Y-117469285D01*
X71115000Y-117545476D01*
X71153095Y-117583571D01*
X71229285Y-117621666D01*
X71381666Y-117659761D01*
X71572142Y-117659761D01*
X71724523Y-117621666D01*
X71800714Y-117583571D01*
X71838809Y-117545476D01*
X71876904Y-117469285D01*
X71876904Y-117393095D01*
X71838809Y-117316904D01*
X71800714Y-117278809D01*
X71724523Y-117240714D01*
X71572142Y-117202619D01*
X71381666Y-117202619D01*
X71229285Y-117240714D01*
X71153095Y-117278809D01*
X71115000Y-117316904D01*
X71076904Y-117393095D01*
X71076904Y-118155000D02*
X71076904Y-118231190D01*
X71115000Y-118307380D01*
X71153095Y-118345476D01*
X71229285Y-118383571D01*
X71381666Y-118421666D01*
X71572142Y-118421666D01*
X71724523Y-118383571D01*
X71800714Y-118345476D01*
X71838809Y-118307380D01*
X71876904Y-118231190D01*
X71876904Y-118155000D01*
X71838809Y-118078809D01*
X71800714Y-118040714D01*
X71724523Y-118002619D01*
X71572142Y-117964523D01*
X71381666Y-117964523D01*
X71229285Y-118002619D01*
X71153095Y-118040714D01*
X71115000Y-118078809D01*
X71076904Y-118155000D01*
X71876904Y-118764523D02*
X71076904Y-118764523D01*
X71572142Y-118840714D02*
X71876904Y-119069285D01*
X71343571Y-119069285D02*
X71648333Y-118764523D01*
X70226904Y-117240714D02*
X69845952Y-116974047D01*
X70226904Y-116783571D02*
X69426904Y-116783571D01*
X69426904Y-117088333D01*
X69465000Y-117164523D01*
X69503095Y-117202619D01*
X69579285Y-117240714D01*
X69693571Y-117240714D01*
X69769761Y-117202619D01*
X69807857Y-117164523D01*
X69845952Y-117088333D01*
X69845952Y-116783571D01*
X70226904Y-118002619D02*
X70226904Y-117545476D01*
X70226904Y-117774047D02*
X69426904Y-117774047D01*
X69541190Y-117697857D01*
X69617380Y-117621666D01*
X69655476Y-117545476D01*
X69426904Y-118497857D02*
X69426904Y-118574047D01*
X69465000Y-118650238D01*
X69503095Y-118688333D01*
X69579285Y-118726428D01*
X69731666Y-118764523D01*
X69922142Y-118764523D01*
X70074523Y-118726428D01*
X70150714Y-118688333D01*
X70188809Y-118650238D01*
X70226904Y-118574047D01*
X70226904Y-118497857D01*
X70188809Y-118421666D01*
X70150714Y-118383571D01*
X70074523Y-118345476D01*
X69922142Y-118307380D01*
X69731666Y-118307380D01*
X69579285Y-118345476D01*
X69503095Y-118383571D01*
X69465000Y-118421666D01*
X69426904Y-118497857D01*
%TO.C,C19*%
X42847142Y-136586904D02*
X43304285Y-136586904D01*
X43075714Y-136586904D02*
X43075714Y-135786904D01*
X43151904Y-135901190D01*
X43228095Y-135977380D01*
X43304285Y-136015476D01*
X42351904Y-135786904D02*
X42275714Y-135786904D01*
X42199523Y-135825000D01*
X42161428Y-135863095D01*
X42123333Y-135939285D01*
X42085238Y-136091666D01*
X42085238Y-136282142D01*
X42123333Y-136434523D01*
X42161428Y-136510714D01*
X42199523Y-136548809D01*
X42275714Y-136586904D01*
X42351904Y-136586904D01*
X42428095Y-136548809D01*
X42466190Y-136510714D01*
X42504285Y-136434523D01*
X42542380Y-136282142D01*
X42542380Y-136091666D01*
X42504285Y-135939285D01*
X42466190Y-135863095D01*
X42428095Y-135825000D01*
X42351904Y-135786904D01*
X41399523Y-136053571D02*
X41399523Y-136586904D01*
X41742380Y-136053571D02*
X41742380Y-136472619D01*
X41704285Y-136548809D01*
X41628095Y-136586904D01*
X41513809Y-136586904D01*
X41437619Y-136548809D01*
X41399523Y-136510714D01*
X40751904Y-136167857D02*
X41018571Y-136167857D01*
X41018571Y-136586904D02*
X41018571Y-135786904D01*
X40637619Y-135786904D01*
X42504285Y-138190714D02*
X42542380Y-138228809D01*
X42656666Y-138266904D01*
X42732857Y-138266904D01*
X42847142Y-138228809D01*
X42923333Y-138152619D01*
X42961428Y-138076428D01*
X42999523Y-137924047D01*
X42999523Y-137809761D01*
X42961428Y-137657380D01*
X42923333Y-137581190D01*
X42847142Y-137505000D01*
X42732857Y-137466904D01*
X42656666Y-137466904D01*
X42542380Y-137505000D01*
X42504285Y-137543095D01*
X41742380Y-138266904D02*
X42199523Y-138266904D01*
X41970952Y-138266904D02*
X41970952Y-137466904D01*
X42047142Y-137581190D01*
X42123333Y-137657380D01*
X42199523Y-137695476D01*
X41361428Y-138266904D02*
X41209047Y-138266904D01*
X41132857Y-138228809D01*
X41094761Y-138190714D01*
X41018571Y-138076428D01*
X40980476Y-137924047D01*
X40980476Y-137619285D01*
X41018571Y-137543095D01*
X41056666Y-137505000D01*
X41132857Y-137466904D01*
X41285238Y-137466904D01*
X41361428Y-137505000D01*
X41399523Y-137543095D01*
X41437619Y-137619285D01*
X41437619Y-137809761D01*
X41399523Y-137885952D01*
X41361428Y-137924047D01*
X41285238Y-137962142D01*
X41132857Y-137962142D01*
X41056666Y-137924047D01*
X41018571Y-137885952D01*
X40980476Y-137809761D01*
%TO.C,TP17*%
X85982142Y-135183142D02*
X85372619Y-135183142D01*
X84725000Y-135068857D02*
X84610714Y-135106952D01*
X84572619Y-135145047D01*
X84534523Y-135221238D01*
X84534523Y-135335523D01*
X84572619Y-135411714D01*
X84610714Y-135449809D01*
X84686904Y-135487904D01*
X84991666Y-135487904D01*
X84991666Y-134687904D01*
X84725000Y-134687904D01*
X84648809Y-134726000D01*
X84610714Y-134764095D01*
X84572619Y-134840285D01*
X84572619Y-134916476D01*
X84610714Y-134992666D01*
X84648809Y-135030761D01*
X84725000Y-135068857D01*
X84991666Y-135068857D01*
X84229761Y-135259333D02*
X83848809Y-135259333D01*
X84305952Y-135487904D02*
X84039285Y-134687904D01*
X83772619Y-135487904D01*
X83620238Y-134687904D02*
X83163095Y-134687904D01*
X83391666Y-135487904D02*
X83391666Y-134687904D01*
X83010714Y-134687904D02*
X82553571Y-134687904D01*
X82782142Y-135487904D02*
X82782142Y-134687904D01*
X85715476Y-131687904D02*
X85258333Y-131687904D01*
X85486904Y-132487904D02*
X85486904Y-131687904D01*
X84991666Y-132487904D02*
X84991666Y-131687904D01*
X84686904Y-131687904D01*
X84610714Y-131726000D01*
X84572619Y-131764095D01*
X84534523Y-131840285D01*
X84534523Y-131954571D01*
X84572619Y-132030761D01*
X84610714Y-132068857D01*
X84686904Y-132106952D01*
X84991666Y-132106952D01*
X83772619Y-132487904D02*
X84229761Y-132487904D01*
X84001190Y-132487904D02*
X84001190Y-131687904D01*
X84077380Y-131802190D01*
X84153571Y-131878380D01*
X84229761Y-131916476D01*
X83505952Y-131687904D02*
X82972619Y-131687904D01*
X83315476Y-132487904D01*
%TO.C,R6*%
X113658095Y-131288095D02*
X113620000Y-131326190D01*
X113581904Y-131402380D01*
X113581904Y-131592857D01*
X113620000Y-131669047D01*
X113658095Y-131707142D01*
X113734285Y-131745238D01*
X113810476Y-131745238D01*
X113924761Y-131707142D01*
X114381904Y-131250000D01*
X114381904Y-131745238D01*
X114381904Y-132088095D02*
X113848571Y-132088095D01*
X113924761Y-132088095D02*
X113886666Y-132126190D01*
X113848571Y-132202380D01*
X113848571Y-132316666D01*
X113886666Y-132392857D01*
X113962857Y-132430952D01*
X114381904Y-132430952D01*
X113962857Y-132430952D02*
X113886666Y-132469047D01*
X113848571Y-132545238D01*
X113848571Y-132659523D01*
X113886666Y-132735714D01*
X113962857Y-132773809D01*
X114381904Y-132773809D01*
X116201904Y-131916666D02*
X115820952Y-131650000D01*
X116201904Y-131459523D02*
X115401904Y-131459523D01*
X115401904Y-131764285D01*
X115440000Y-131840476D01*
X115478095Y-131878571D01*
X115554285Y-131916666D01*
X115668571Y-131916666D01*
X115744761Y-131878571D01*
X115782857Y-131840476D01*
X115820952Y-131764285D01*
X115820952Y-131459523D01*
X115401904Y-132602380D02*
X115401904Y-132450000D01*
X115440000Y-132373809D01*
X115478095Y-132335714D01*
X115592380Y-132259523D01*
X115744761Y-132221428D01*
X116049523Y-132221428D01*
X116125714Y-132259523D01*
X116163809Y-132297619D01*
X116201904Y-132373809D01*
X116201904Y-132526190D01*
X116163809Y-132602380D01*
X116125714Y-132640476D01*
X116049523Y-132678571D01*
X115859047Y-132678571D01*
X115782857Y-132640476D01*
X115744761Y-132602380D01*
X115706666Y-132526190D01*
X115706666Y-132373809D01*
X115744761Y-132297619D01*
X115782857Y-132259523D01*
X115859047Y-132221428D01*
%TO.C,TP26*%
X45224523Y-128405714D02*
X45262619Y-128443809D01*
X45376904Y-128481904D01*
X45453095Y-128481904D01*
X45567380Y-128443809D01*
X45643571Y-128367619D01*
X45681666Y-128291428D01*
X45719761Y-128139047D01*
X45719761Y-128024761D01*
X45681666Y-127872380D01*
X45643571Y-127796190D01*
X45567380Y-127720000D01*
X45453095Y-127681904D01*
X45376904Y-127681904D01*
X45262619Y-127720000D01*
X45224523Y-127758095D01*
X44919761Y-128253333D02*
X44538809Y-128253333D01*
X44995952Y-128481904D02*
X44729285Y-127681904D01*
X44462619Y-128481904D01*
X44195952Y-128481904D02*
X44195952Y-127681904D01*
X43738809Y-128481904D01*
X43738809Y-127681904D01*
X43548333Y-128558095D02*
X42938809Y-128558095D01*
X42748333Y-128481904D02*
X42748333Y-127681904D01*
X42405476Y-128443809D02*
X42291190Y-128481904D01*
X42100714Y-128481904D01*
X42024523Y-128443809D01*
X41986428Y-128405714D01*
X41948333Y-128329523D01*
X41948333Y-128253333D01*
X41986428Y-128177142D01*
X42024523Y-128139047D01*
X42100714Y-128100952D01*
X42253095Y-128062857D01*
X42329285Y-128024761D01*
X42367380Y-127986666D01*
X42405476Y-127910476D01*
X42405476Y-127834285D01*
X42367380Y-127758095D01*
X42329285Y-127720000D01*
X42253095Y-127681904D01*
X42062619Y-127681904D01*
X41948333Y-127720000D01*
X41453095Y-127681904D02*
X41300714Y-127681904D01*
X41224523Y-127720000D01*
X41148333Y-127796190D01*
X41110238Y-127948571D01*
X41110238Y-128215238D01*
X41148333Y-128367619D01*
X41224523Y-128443809D01*
X41300714Y-128481904D01*
X41453095Y-128481904D01*
X41529285Y-128443809D01*
X41605476Y-128367619D01*
X41643571Y-128215238D01*
X41643571Y-127948571D01*
X41605476Y-127796190D01*
X41529285Y-127720000D01*
X41453095Y-127681904D01*
X40957857Y-128558095D02*
X40348333Y-128558095D01*
X40272142Y-127681904D02*
X40005476Y-128481904D01*
X39738809Y-127681904D01*
X39357857Y-128481904D02*
X39434047Y-128443809D01*
X39472142Y-128405714D01*
X39510238Y-128329523D01*
X39510238Y-128100952D01*
X39472142Y-128024761D01*
X39434047Y-127986666D01*
X39357857Y-127948571D01*
X39243571Y-127948571D01*
X39167380Y-127986666D01*
X39129285Y-128024761D01*
X39091190Y-128100952D01*
X39091190Y-128329523D01*
X39129285Y-128405714D01*
X39167380Y-128443809D01*
X39243571Y-128481904D01*
X39357857Y-128481904D01*
X38405476Y-127948571D02*
X38405476Y-128481904D01*
X38748333Y-127948571D02*
X38748333Y-128367619D01*
X38710238Y-128443809D01*
X38634047Y-128481904D01*
X38519761Y-128481904D01*
X38443571Y-128443809D01*
X38405476Y-128405714D01*
X38138809Y-127948571D02*
X37834047Y-127948571D01*
X38024523Y-127681904D02*
X38024523Y-128367619D01*
X37986428Y-128443809D01*
X37910238Y-128481904D01*
X37834047Y-128481904D01*
X43205476Y-130681904D02*
X42748333Y-130681904D01*
X42976904Y-131481904D02*
X42976904Y-130681904D01*
X42481666Y-131481904D02*
X42481666Y-130681904D01*
X42176904Y-130681904D01*
X42100714Y-130720000D01*
X42062619Y-130758095D01*
X42024523Y-130834285D01*
X42024523Y-130948571D01*
X42062619Y-131024761D01*
X42100714Y-131062857D01*
X42176904Y-131100952D01*
X42481666Y-131100952D01*
X41719761Y-130758095D02*
X41681666Y-130720000D01*
X41605476Y-130681904D01*
X41415000Y-130681904D01*
X41338809Y-130720000D01*
X41300714Y-130758095D01*
X41262619Y-130834285D01*
X41262619Y-130910476D01*
X41300714Y-131024761D01*
X41757857Y-131481904D01*
X41262619Y-131481904D01*
X40576904Y-130681904D02*
X40729285Y-130681904D01*
X40805476Y-130720000D01*
X40843571Y-130758095D01*
X40919761Y-130872380D01*
X40957857Y-131024761D01*
X40957857Y-131329523D01*
X40919761Y-131405714D01*
X40881666Y-131443809D01*
X40805476Y-131481904D01*
X40653095Y-131481904D01*
X40576904Y-131443809D01*
X40538809Y-131405714D01*
X40500714Y-131329523D01*
X40500714Y-131139047D01*
X40538809Y-131062857D01*
X40576904Y-131024761D01*
X40653095Y-130986666D01*
X40805476Y-130986666D01*
X40881666Y-131024761D01*
X40919761Y-131062857D01*
X40957857Y-131139047D01*
%TO.C,C14*%
X42237142Y-115796904D02*
X42694285Y-115796904D01*
X42465714Y-115796904D02*
X42465714Y-114996904D01*
X42541904Y-115111190D01*
X42618095Y-115187380D01*
X42694285Y-115225476D01*
X41741904Y-114996904D02*
X41665714Y-114996904D01*
X41589523Y-115035000D01*
X41551428Y-115073095D01*
X41513333Y-115149285D01*
X41475238Y-115301666D01*
X41475238Y-115492142D01*
X41513333Y-115644523D01*
X41551428Y-115720714D01*
X41589523Y-115758809D01*
X41665714Y-115796904D01*
X41741904Y-115796904D01*
X41818095Y-115758809D01*
X41856190Y-115720714D01*
X41894285Y-115644523D01*
X41932380Y-115492142D01*
X41932380Y-115301666D01*
X41894285Y-115149285D01*
X41856190Y-115073095D01*
X41818095Y-115035000D01*
X41741904Y-114996904D01*
X40789523Y-115263571D02*
X40789523Y-115796904D01*
X41132380Y-115263571D02*
X41132380Y-115682619D01*
X41094285Y-115758809D01*
X41018095Y-115796904D01*
X40903809Y-115796904D01*
X40827619Y-115758809D01*
X40789523Y-115720714D01*
X40141904Y-115377857D02*
X40408571Y-115377857D01*
X40408571Y-115796904D02*
X40408571Y-114996904D01*
X40027619Y-114996904D01*
X41894285Y-117400714D02*
X41932380Y-117438809D01*
X42046666Y-117476904D01*
X42122857Y-117476904D01*
X42237142Y-117438809D01*
X42313333Y-117362619D01*
X42351428Y-117286428D01*
X42389523Y-117134047D01*
X42389523Y-117019761D01*
X42351428Y-116867380D01*
X42313333Y-116791190D01*
X42237142Y-116715000D01*
X42122857Y-116676904D01*
X42046666Y-116676904D01*
X41932380Y-116715000D01*
X41894285Y-116753095D01*
X41132380Y-117476904D02*
X41589523Y-117476904D01*
X41360952Y-117476904D02*
X41360952Y-116676904D01*
X41437142Y-116791190D01*
X41513333Y-116867380D01*
X41589523Y-116905476D01*
X40446666Y-116943571D02*
X40446666Y-117476904D01*
X40637142Y-116638809D02*
X40827619Y-117210238D01*
X40332380Y-117210238D01*
%TO.C,C15*%
X42623095Y-122196904D02*
X43080238Y-122196904D01*
X42851666Y-122196904D02*
X42851666Y-121396904D01*
X42927857Y-121511190D01*
X43004047Y-121587380D01*
X43080238Y-121625476D01*
X42127857Y-121396904D02*
X42051666Y-121396904D01*
X41975476Y-121435000D01*
X41937380Y-121473095D01*
X41899285Y-121549285D01*
X41861190Y-121701666D01*
X41861190Y-121892142D01*
X41899285Y-122044523D01*
X41937380Y-122120714D01*
X41975476Y-122158809D01*
X42051666Y-122196904D01*
X42127857Y-122196904D01*
X42204047Y-122158809D01*
X42242142Y-122120714D01*
X42280238Y-122044523D01*
X42318333Y-121892142D01*
X42318333Y-121701666D01*
X42280238Y-121549285D01*
X42242142Y-121473095D01*
X42204047Y-121435000D01*
X42127857Y-121396904D01*
X41365952Y-121396904D02*
X41289761Y-121396904D01*
X41213571Y-121435000D01*
X41175476Y-121473095D01*
X41137380Y-121549285D01*
X41099285Y-121701666D01*
X41099285Y-121892142D01*
X41137380Y-122044523D01*
X41175476Y-122120714D01*
X41213571Y-122158809D01*
X41289761Y-122196904D01*
X41365952Y-122196904D01*
X41442142Y-122158809D01*
X41480238Y-122120714D01*
X41518333Y-122044523D01*
X41556428Y-121892142D01*
X41556428Y-121701666D01*
X41518333Y-121549285D01*
X41480238Y-121473095D01*
X41442142Y-121435000D01*
X41365952Y-121396904D01*
X40756428Y-121663571D02*
X40756428Y-122196904D01*
X40756428Y-121739761D02*
X40718333Y-121701666D01*
X40642142Y-121663571D01*
X40527857Y-121663571D01*
X40451666Y-121701666D01*
X40413571Y-121777857D01*
X40413571Y-122196904D01*
X39765952Y-121777857D02*
X40032619Y-121777857D01*
X40032619Y-122196904D02*
X40032619Y-121396904D01*
X39651666Y-121396904D01*
X41899285Y-120440714D02*
X41937380Y-120478809D01*
X42051666Y-120516904D01*
X42127857Y-120516904D01*
X42242142Y-120478809D01*
X42318333Y-120402619D01*
X42356428Y-120326428D01*
X42394523Y-120174047D01*
X42394523Y-120059761D01*
X42356428Y-119907380D01*
X42318333Y-119831190D01*
X42242142Y-119755000D01*
X42127857Y-119716904D01*
X42051666Y-119716904D01*
X41937380Y-119755000D01*
X41899285Y-119793095D01*
X41137380Y-120516904D02*
X41594523Y-120516904D01*
X41365952Y-120516904D02*
X41365952Y-119716904D01*
X41442142Y-119831190D01*
X41518333Y-119907380D01*
X41594523Y-119945476D01*
X40413571Y-119716904D02*
X40794523Y-119716904D01*
X40832619Y-120097857D01*
X40794523Y-120059761D01*
X40718333Y-120021666D01*
X40527857Y-120021666D01*
X40451666Y-120059761D01*
X40413571Y-120097857D01*
X40375476Y-120174047D01*
X40375476Y-120364523D01*
X40413571Y-120440714D01*
X40451666Y-120478809D01*
X40527857Y-120516904D01*
X40718333Y-120516904D01*
X40794523Y-120478809D01*
X40832619Y-120440714D01*
%TO.C,R9*%
X104431904Y-113865773D02*
X104431904Y-114361011D01*
X104736666Y-114094345D01*
X104736666Y-114208630D01*
X104774761Y-114284821D01*
X104812857Y-114322916D01*
X104889047Y-114361011D01*
X105079523Y-114361011D01*
X105155714Y-114322916D01*
X105193809Y-114284821D01*
X105231904Y-114208630D01*
X105231904Y-113980059D01*
X105193809Y-113903869D01*
X105155714Y-113865773D01*
X105231904Y-114703869D02*
X104431904Y-114703869D01*
X104927142Y-114780059D02*
X105231904Y-115008630D01*
X104698571Y-115008630D02*
X105003333Y-114703869D01*
X106881904Y-114322916D02*
X106500952Y-114056250D01*
X106881904Y-113865773D02*
X106081904Y-113865773D01*
X106081904Y-114170535D01*
X106120000Y-114246726D01*
X106158095Y-114284821D01*
X106234285Y-114322916D01*
X106348571Y-114322916D01*
X106424761Y-114284821D01*
X106462857Y-114246726D01*
X106500952Y-114170535D01*
X106500952Y-113865773D01*
X106881904Y-114703869D02*
X106881904Y-114856250D01*
X106843809Y-114932440D01*
X106805714Y-114970535D01*
X106691428Y-115046726D01*
X106539047Y-115084821D01*
X106234285Y-115084821D01*
X106158095Y-115046726D01*
X106120000Y-115008630D01*
X106081904Y-114932440D01*
X106081904Y-114780059D01*
X106120000Y-114703869D01*
X106158095Y-114665773D01*
X106234285Y-114627678D01*
X106424761Y-114627678D01*
X106500952Y-114665773D01*
X106539047Y-114703869D01*
X106577142Y-114780059D01*
X106577142Y-114932440D01*
X106539047Y-115008630D01*
X106500952Y-115046726D01*
X106424761Y-115084821D01*
%TO.C,TP5*%
X60958571Y-142827142D02*
X60349047Y-142827142D01*
X60653809Y-143131904D02*
X60653809Y-142522380D01*
X59587142Y-142331904D02*
X59968095Y-142331904D01*
X60006190Y-142712857D01*
X59968095Y-142674761D01*
X59891904Y-142636666D01*
X59701428Y-142636666D01*
X59625238Y-142674761D01*
X59587142Y-142712857D01*
X59549047Y-142789047D01*
X59549047Y-142979523D01*
X59587142Y-143055714D01*
X59625238Y-143093809D01*
X59701428Y-143131904D01*
X59891904Y-143131904D01*
X59968095Y-143093809D01*
X60006190Y-143055714D01*
X59320476Y-142331904D02*
X59053809Y-143131904D01*
X58787142Y-142331904D01*
X60939523Y-139331904D02*
X60482380Y-139331904D01*
X60710952Y-140131904D02*
X60710952Y-139331904D01*
X60215714Y-140131904D02*
X60215714Y-139331904D01*
X59910952Y-139331904D01*
X59834761Y-139370000D01*
X59796666Y-139408095D01*
X59758571Y-139484285D01*
X59758571Y-139598571D01*
X59796666Y-139674761D01*
X59834761Y-139712857D01*
X59910952Y-139750952D01*
X60215714Y-139750952D01*
X59034761Y-139331904D02*
X59415714Y-139331904D01*
X59453809Y-139712857D01*
X59415714Y-139674761D01*
X59339523Y-139636666D01*
X59149047Y-139636666D01*
X59072857Y-139674761D01*
X59034761Y-139712857D01*
X58996666Y-139789047D01*
X58996666Y-139979523D01*
X59034761Y-140055714D01*
X59072857Y-140093809D01*
X59149047Y-140131904D01*
X59339523Y-140131904D01*
X59415714Y-140093809D01*
X59453809Y-140055714D01*
%TO.C,R3*%
X54491071Y-122406904D02*
X53995833Y-122406904D01*
X54262500Y-122711666D01*
X54148214Y-122711666D01*
X54072023Y-122749761D01*
X54033928Y-122787857D01*
X53995833Y-122864047D01*
X53995833Y-123054523D01*
X54033928Y-123130714D01*
X54072023Y-123168809D01*
X54148214Y-123206904D01*
X54376785Y-123206904D01*
X54452976Y-123168809D01*
X54491071Y-123130714D01*
X53729166Y-122406904D02*
X53233928Y-122406904D01*
X53500595Y-122711666D01*
X53386309Y-122711666D01*
X53310119Y-122749761D01*
X53272023Y-122787857D01*
X53233928Y-122864047D01*
X53233928Y-123054523D01*
X53272023Y-123130714D01*
X53310119Y-123168809D01*
X53386309Y-123206904D01*
X53614880Y-123206904D01*
X53691071Y-123168809D01*
X53729166Y-123130714D01*
X52738690Y-122406904D02*
X52662500Y-122406904D01*
X52586309Y-122445000D01*
X52548214Y-122483095D01*
X52510119Y-122559285D01*
X52472023Y-122711666D01*
X52472023Y-122902142D01*
X52510119Y-123054523D01*
X52548214Y-123130714D01*
X52586309Y-123168809D01*
X52662500Y-123206904D01*
X52738690Y-123206904D01*
X52814880Y-123168809D01*
X52852976Y-123130714D01*
X52891071Y-123054523D01*
X52929166Y-122902142D01*
X52929166Y-122711666D01*
X52891071Y-122559285D01*
X52852976Y-122483095D01*
X52814880Y-122445000D01*
X52738690Y-122406904D01*
X53595833Y-121556904D02*
X53862500Y-121175952D01*
X54052976Y-121556904D02*
X54052976Y-120756904D01*
X53748214Y-120756904D01*
X53672023Y-120795000D01*
X53633928Y-120833095D01*
X53595833Y-120909285D01*
X53595833Y-121023571D01*
X53633928Y-121099761D01*
X53672023Y-121137857D01*
X53748214Y-121175952D01*
X54052976Y-121175952D01*
X53329166Y-120756904D02*
X52833928Y-120756904D01*
X53100595Y-121061666D01*
X52986309Y-121061666D01*
X52910119Y-121099761D01*
X52872023Y-121137857D01*
X52833928Y-121214047D01*
X52833928Y-121404523D01*
X52872023Y-121480714D01*
X52910119Y-121518809D01*
X52986309Y-121556904D01*
X53214880Y-121556904D01*
X53291071Y-121518809D01*
X53329166Y-121480714D01*
%TO.C,C11*%
X77433095Y-127822904D02*
X77890238Y-127822904D01*
X77661666Y-127822904D02*
X77661666Y-127022904D01*
X77737857Y-127137190D01*
X77814047Y-127213380D01*
X77890238Y-127251476D01*
X76937857Y-127022904D02*
X76861666Y-127022904D01*
X76785476Y-127061000D01*
X76747380Y-127099095D01*
X76709285Y-127175285D01*
X76671190Y-127327666D01*
X76671190Y-127518142D01*
X76709285Y-127670523D01*
X76747380Y-127746714D01*
X76785476Y-127784809D01*
X76861666Y-127822904D01*
X76937857Y-127822904D01*
X77014047Y-127784809D01*
X77052142Y-127746714D01*
X77090238Y-127670523D01*
X77128333Y-127518142D01*
X77128333Y-127327666D01*
X77090238Y-127175285D01*
X77052142Y-127099095D01*
X77014047Y-127061000D01*
X76937857Y-127022904D01*
X76175952Y-127022904D02*
X76099761Y-127022904D01*
X76023571Y-127061000D01*
X75985476Y-127099095D01*
X75947380Y-127175285D01*
X75909285Y-127327666D01*
X75909285Y-127518142D01*
X75947380Y-127670523D01*
X75985476Y-127746714D01*
X76023571Y-127784809D01*
X76099761Y-127822904D01*
X76175952Y-127822904D01*
X76252142Y-127784809D01*
X76290238Y-127746714D01*
X76328333Y-127670523D01*
X76366428Y-127518142D01*
X76366428Y-127327666D01*
X76328333Y-127175285D01*
X76290238Y-127099095D01*
X76252142Y-127061000D01*
X76175952Y-127022904D01*
X75566428Y-127289571D02*
X75566428Y-127822904D01*
X75566428Y-127365761D02*
X75528333Y-127327666D01*
X75452142Y-127289571D01*
X75337857Y-127289571D01*
X75261666Y-127327666D01*
X75223571Y-127403857D01*
X75223571Y-127822904D01*
X74575952Y-127403857D02*
X74842619Y-127403857D01*
X74842619Y-127822904D02*
X74842619Y-127022904D01*
X74461666Y-127022904D01*
X76709285Y-129426714D02*
X76747380Y-129464809D01*
X76861666Y-129502904D01*
X76937857Y-129502904D01*
X77052142Y-129464809D01*
X77128333Y-129388619D01*
X77166428Y-129312428D01*
X77204523Y-129160047D01*
X77204523Y-129045761D01*
X77166428Y-128893380D01*
X77128333Y-128817190D01*
X77052142Y-128741000D01*
X76937857Y-128702904D01*
X76861666Y-128702904D01*
X76747380Y-128741000D01*
X76709285Y-128779095D01*
X75947380Y-129502904D02*
X76404523Y-129502904D01*
X76175952Y-129502904D02*
X76175952Y-128702904D01*
X76252142Y-128817190D01*
X76328333Y-128893380D01*
X76404523Y-128931476D01*
X75185476Y-129502904D02*
X75642619Y-129502904D01*
X75414047Y-129502904D02*
X75414047Y-128702904D01*
X75490238Y-128817190D01*
X75566428Y-128893380D01*
X75642619Y-128931476D01*
%TO.C,C7*%
X54553809Y-125538571D02*
X54553809Y-126071904D01*
X54744285Y-125233809D02*
X54934761Y-125805238D01*
X54439523Y-125805238D01*
X54134761Y-125995714D02*
X54096666Y-126033809D01*
X54134761Y-126071904D01*
X54172857Y-126033809D01*
X54134761Y-125995714D01*
X54134761Y-126071904D01*
X53830000Y-125271904D02*
X53296666Y-125271904D01*
X53639523Y-126071904D01*
X52649047Y-125538571D02*
X52649047Y-126071904D01*
X52991904Y-125538571D02*
X52991904Y-125957619D01*
X52953809Y-126033809D01*
X52877619Y-126071904D01*
X52763333Y-126071904D01*
X52687142Y-126033809D01*
X52649047Y-125995714D01*
X52001428Y-125652857D02*
X52268095Y-125652857D01*
X52268095Y-126071904D02*
X52268095Y-125271904D01*
X51887142Y-125271904D01*
X53563333Y-127675714D02*
X53601428Y-127713809D01*
X53715714Y-127751904D01*
X53791904Y-127751904D01*
X53906190Y-127713809D01*
X53982380Y-127637619D01*
X54020476Y-127561428D01*
X54058571Y-127409047D01*
X54058571Y-127294761D01*
X54020476Y-127142380D01*
X53982380Y-127066190D01*
X53906190Y-126990000D01*
X53791904Y-126951904D01*
X53715714Y-126951904D01*
X53601428Y-126990000D01*
X53563333Y-127028095D01*
X53296666Y-126951904D02*
X52763333Y-126951904D01*
X53106190Y-127751904D01*
%TO.C,TP18*%
X84899523Y-131786000D02*
X84975714Y-131747904D01*
X85090000Y-131747904D01*
X85204285Y-131786000D01*
X85280476Y-131862190D01*
X85318571Y-131938380D01*
X85356666Y-132090761D01*
X85356666Y-132205047D01*
X85318571Y-132357428D01*
X85280476Y-132433619D01*
X85204285Y-132509809D01*
X85090000Y-132547904D01*
X85013809Y-132547904D01*
X84899523Y-132509809D01*
X84861428Y-132471714D01*
X84861428Y-132205047D01*
X85013809Y-132205047D01*
X84518571Y-132547904D02*
X84518571Y-131747904D01*
X84061428Y-132547904D01*
X84061428Y-131747904D01*
X83680476Y-132547904D02*
X83680476Y-131747904D01*
X83490000Y-131747904D01*
X83375714Y-131786000D01*
X83299523Y-131862190D01*
X83261428Y-131938380D01*
X83223333Y-132090761D01*
X83223333Y-132205047D01*
X83261428Y-132357428D01*
X83299523Y-132433619D01*
X83375714Y-132509809D01*
X83490000Y-132547904D01*
X83680476Y-132547904D01*
X85680476Y-128747904D02*
X85223333Y-128747904D01*
X85451904Y-129547904D02*
X85451904Y-128747904D01*
X84956666Y-129547904D02*
X84956666Y-128747904D01*
X84651904Y-128747904D01*
X84575714Y-128786000D01*
X84537619Y-128824095D01*
X84499523Y-128900285D01*
X84499523Y-129014571D01*
X84537619Y-129090761D01*
X84575714Y-129128857D01*
X84651904Y-129166952D01*
X84956666Y-129166952D01*
X83737619Y-129547904D02*
X84194761Y-129547904D01*
X83966190Y-129547904D02*
X83966190Y-128747904D01*
X84042380Y-128862190D01*
X84118571Y-128938380D01*
X84194761Y-128976476D01*
X83280476Y-129090761D02*
X83356666Y-129052666D01*
X83394761Y-129014571D01*
X83432857Y-128938380D01*
X83432857Y-128900285D01*
X83394761Y-128824095D01*
X83356666Y-128786000D01*
X83280476Y-128747904D01*
X83128095Y-128747904D01*
X83051904Y-128786000D01*
X83013809Y-128824095D01*
X82975714Y-128900285D01*
X82975714Y-128938380D01*
X83013809Y-129014571D01*
X83051904Y-129052666D01*
X83128095Y-129090761D01*
X83280476Y-129090761D01*
X83356666Y-129128857D01*
X83394761Y-129166952D01*
X83432857Y-129243142D01*
X83432857Y-129395523D01*
X83394761Y-129471714D01*
X83356666Y-129509809D01*
X83280476Y-129547904D01*
X83128095Y-129547904D01*
X83051904Y-129509809D01*
X83013809Y-129471714D01*
X82975714Y-129395523D01*
X82975714Y-129243142D01*
X83013809Y-129166952D01*
X83051904Y-129128857D01*
X83128095Y-129090761D01*
%TO.C,TP31*%
X32932857Y-128405714D02*
X32970952Y-128443809D01*
X33085238Y-128481904D01*
X33161428Y-128481904D01*
X33275714Y-128443809D01*
X33351904Y-128367619D01*
X33390000Y-128291428D01*
X33428095Y-128139047D01*
X33428095Y-128024761D01*
X33390000Y-127872380D01*
X33351904Y-127796190D01*
X33275714Y-127720000D01*
X33161428Y-127681904D01*
X33085238Y-127681904D01*
X32970952Y-127720000D01*
X32932857Y-127758095D01*
X32628095Y-128253333D02*
X32247142Y-128253333D01*
X32704285Y-128481904D02*
X32437619Y-127681904D01*
X32170952Y-128481904D01*
X31904285Y-128481904D02*
X31904285Y-127681904D01*
X31447142Y-128481904D01*
X31447142Y-127681904D01*
X31256666Y-128558095D02*
X30647142Y-128558095D01*
X30075714Y-128481904D02*
X30456666Y-128481904D01*
X30456666Y-127681904D01*
X33180476Y-130681904D02*
X32723333Y-130681904D01*
X32951904Y-131481904D02*
X32951904Y-130681904D01*
X32456666Y-131481904D02*
X32456666Y-130681904D01*
X32151904Y-130681904D01*
X32075714Y-130720000D01*
X32037619Y-130758095D01*
X31999523Y-130834285D01*
X31999523Y-130948571D01*
X32037619Y-131024761D01*
X32075714Y-131062857D01*
X32151904Y-131100952D01*
X32456666Y-131100952D01*
X31732857Y-130681904D02*
X31237619Y-130681904D01*
X31504285Y-130986666D01*
X31390000Y-130986666D01*
X31313809Y-131024761D01*
X31275714Y-131062857D01*
X31237619Y-131139047D01*
X31237619Y-131329523D01*
X31275714Y-131405714D01*
X31313809Y-131443809D01*
X31390000Y-131481904D01*
X31618571Y-131481904D01*
X31694761Y-131443809D01*
X31732857Y-131405714D01*
X30475714Y-131481904D02*
X30932857Y-131481904D01*
X30704285Y-131481904D02*
X30704285Y-130681904D01*
X30780476Y-130796190D01*
X30856666Y-130872380D01*
X30932857Y-130910476D01*
%TO.C,TP23*%
X64202857Y-114530476D02*
X64240952Y-114644761D01*
X64279047Y-114682857D01*
X64355238Y-114720952D01*
X64469523Y-114720952D01*
X64545714Y-114682857D01*
X64583809Y-114644761D01*
X64621904Y-114568571D01*
X64621904Y-114263809D01*
X63821904Y-114263809D01*
X63821904Y-114530476D01*
X63860000Y-114606666D01*
X63898095Y-114644761D01*
X63974285Y-114682857D01*
X64050476Y-114682857D01*
X64126666Y-114644761D01*
X64164761Y-114606666D01*
X64202857Y-114530476D01*
X64202857Y-114263809D01*
X64621904Y-115406666D02*
X64202857Y-115406666D01*
X64126666Y-115368571D01*
X64088571Y-115292380D01*
X64088571Y-115140000D01*
X64126666Y-115063809D01*
X64583809Y-115406666D02*
X64621904Y-115330476D01*
X64621904Y-115140000D01*
X64583809Y-115063809D01*
X64507619Y-115025714D01*
X64431428Y-115025714D01*
X64355238Y-115063809D01*
X64317142Y-115140000D01*
X64317142Y-115330476D01*
X64279047Y-115406666D01*
X64088571Y-115673333D02*
X64088571Y-115978095D01*
X63821904Y-115787619D02*
X64507619Y-115787619D01*
X64583809Y-115825714D01*
X64621904Y-115901904D01*
X64621904Y-115978095D01*
X64088571Y-116130476D02*
X64088571Y-116435238D01*
X63821904Y-116244761D02*
X64507619Y-116244761D01*
X64583809Y-116282857D01*
X64621904Y-116359047D01*
X64621904Y-116435238D01*
X64698095Y-116511428D02*
X64698095Y-117120952D01*
X63821904Y-117197142D02*
X64621904Y-117463809D01*
X63821904Y-117730476D01*
X60821904Y-114549523D02*
X60821904Y-115006666D01*
X61621904Y-114778095D02*
X60821904Y-114778095D01*
X61621904Y-115273333D02*
X60821904Y-115273333D01*
X60821904Y-115578095D01*
X60860000Y-115654285D01*
X60898095Y-115692380D01*
X60974285Y-115730476D01*
X61088571Y-115730476D01*
X61164761Y-115692380D01*
X61202857Y-115654285D01*
X61240952Y-115578095D01*
X61240952Y-115273333D01*
X60898095Y-116035238D02*
X60860000Y-116073333D01*
X60821904Y-116149523D01*
X60821904Y-116340000D01*
X60860000Y-116416190D01*
X60898095Y-116454285D01*
X60974285Y-116492380D01*
X61050476Y-116492380D01*
X61164761Y-116454285D01*
X61621904Y-115997142D01*
X61621904Y-116492380D01*
X60821904Y-116759047D02*
X60821904Y-117254285D01*
X61126666Y-116987619D01*
X61126666Y-117101904D01*
X61164761Y-117178095D01*
X61202857Y-117216190D01*
X61279047Y-117254285D01*
X61469523Y-117254285D01*
X61545714Y-117216190D01*
X61583809Y-117178095D01*
X61621904Y-117101904D01*
X61621904Y-116873333D01*
X61583809Y-116797142D01*
X61545714Y-116759047D01*
%TO.C,D10*%
X68406904Y-110621904D02*
X67911666Y-110621904D01*
X68178333Y-110926666D01*
X68064047Y-110926666D01*
X67987857Y-110964761D01*
X67949761Y-111002857D01*
X67911666Y-111079047D01*
X67911666Y-111269523D01*
X67949761Y-111345714D01*
X67987857Y-111383809D01*
X68064047Y-111421904D01*
X68292619Y-111421904D01*
X68368809Y-111383809D01*
X68406904Y-111345714D01*
X67568809Y-111345714D02*
X67530714Y-111383809D01*
X67568809Y-111421904D01*
X67606904Y-111383809D01*
X67568809Y-111345714D01*
X67568809Y-111421904D01*
X67264047Y-110621904D02*
X66768809Y-110621904D01*
X67035476Y-110926666D01*
X66921190Y-110926666D01*
X66845000Y-110964761D01*
X66806904Y-111002857D01*
X66768809Y-111079047D01*
X66768809Y-111269523D01*
X66806904Y-111345714D01*
X66845000Y-111383809D01*
X66921190Y-111421904D01*
X67149761Y-111421904D01*
X67225952Y-111383809D01*
X67264047Y-111345714D01*
X66540238Y-110621904D02*
X66273571Y-111421904D01*
X66006904Y-110621904D01*
X65206904Y-110621904D02*
X64673571Y-110621904D01*
X65206904Y-111421904D01*
X64673571Y-111421904D01*
X64064047Y-111383809D02*
X64140238Y-111421904D01*
X64292619Y-111421904D01*
X64368809Y-111383809D01*
X64406904Y-111307619D01*
X64406904Y-111002857D01*
X64368809Y-110926666D01*
X64292619Y-110888571D01*
X64140238Y-110888571D01*
X64064047Y-110926666D01*
X64025952Y-111002857D01*
X64025952Y-111079047D01*
X64406904Y-111155238D01*
X63683095Y-110888571D02*
X63683095Y-111421904D01*
X63683095Y-110964761D02*
X63645000Y-110926666D01*
X63568809Y-110888571D01*
X63454523Y-110888571D01*
X63378333Y-110926666D01*
X63340238Y-111002857D01*
X63340238Y-111421904D01*
X62654523Y-111383809D02*
X62730714Y-111421904D01*
X62883095Y-111421904D01*
X62959285Y-111383809D01*
X62997380Y-111307619D01*
X62997380Y-111002857D01*
X62959285Y-110926666D01*
X62883095Y-110888571D01*
X62730714Y-110888571D01*
X62654523Y-110926666D01*
X62616428Y-111002857D01*
X62616428Y-111079047D01*
X62997380Y-111155238D01*
X62273571Y-111421904D02*
X62273571Y-110888571D01*
X62273571Y-111040952D02*
X62235476Y-110964761D01*
X62197380Y-110926666D01*
X62121190Y-110888571D01*
X62045000Y-110888571D01*
X66216428Y-115171904D02*
X66216428Y-114371904D01*
X66025952Y-114371904D01*
X65911666Y-114410000D01*
X65835476Y-114486190D01*
X65797380Y-114562380D01*
X65759285Y-114714761D01*
X65759285Y-114829047D01*
X65797380Y-114981428D01*
X65835476Y-115057619D01*
X65911666Y-115133809D01*
X66025952Y-115171904D01*
X66216428Y-115171904D01*
X64997380Y-115171904D02*
X65454523Y-115171904D01*
X65225952Y-115171904D02*
X65225952Y-114371904D01*
X65302142Y-114486190D01*
X65378333Y-114562380D01*
X65454523Y-114600476D01*
X64502142Y-114371904D02*
X64425952Y-114371904D01*
X64349761Y-114410000D01*
X64311666Y-114448095D01*
X64273571Y-114524285D01*
X64235476Y-114676666D01*
X64235476Y-114867142D01*
X64273571Y-115019523D01*
X64311666Y-115095714D01*
X64349761Y-115133809D01*
X64425952Y-115171904D01*
X64502142Y-115171904D01*
X64578333Y-115133809D01*
X64616428Y-115095714D01*
X64654523Y-115019523D01*
X64692619Y-114867142D01*
X64692619Y-114676666D01*
X64654523Y-114524285D01*
X64616428Y-114448095D01*
X64578333Y-114410000D01*
X64502142Y-114371904D01*
%TO.C,TP19*%
X80699046Y-137418857D02*
X80584761Y-137456952D01*
X80546666Y-137495047D01*
X80508570Y-137571238D01*
X80508570Y-137685523D01*
X80546666Y-137761714D01*
X80584761Y-137799809D01*
X80660951Y-137837904D01*
X80965713Y-137837904D01*
X80965713Y-137037904D01*
X80699046Y-137037904D01*
X80622856Y-137076000D01*
X80584761Y-137114095D01*
X80546666Y-137190285D01*
X80546666Y-137266476D01*
X80584761Y-137342666D01*
X80622856Y-137380761D01*
X80699046Y-137418857D01*
X80965713Y-137418857D01*
X79822856Y-137837904D02*
X79822856Y-137418857D01*
X79860951Y-137342666D01*
X79937142Y-137304571D01*
X80089523Y-137304571D01*
X80165713Y-137342666D01*
X79822856Y-137799809D02*
X79899046Y-137837904D01*
X80089523Y-137837904D01*
X80165713Y-137799809D01*
X80203808Y-137723619D01*
X80203808Y-137647428D01*
X80165713Y-137571238D01*
X80089523Y-137533142D01*
X79899046Y-137533142D01*
X79822856Y-137495047D01*
X79556189Y-137304571D02*
X79251427Y-137304571D01*
X79441904Y-137037904D02*
X79441904Y-137723619D01*
X79403808Y-137799809D01*
X79327618Y-137837904D01*
X79251427Y-137837904D01*
X79099046Y-137304571D02*
X78794285Y-137304571D01*
X78984761Y-137037904D02*
X78984761Y-137723619D01*
X78946666Y-137799809D01*
X78870475Y-137837904D01*
X78794285Y-137837904D01*
X78222856Y-137799809D02*
X78299046Y-137837904D01*
X78451427Y-137837904D01*
X78527618Y-137799809D01*
X78565713Y-137723619D01*
X78565713Y-137418857D01*
X78527618Y-137342666D01*
X78451427Y-137304571D01*
X78299046Y-137304571D01*
X78222856Y-137342666D01*
X78184761Y-137418857D01*
X78184761Y-137495047D01*
X78565713Y-137571238D01*
X77841904Y-137837904D02*
X77841904Y-137304571D01*
X77841904Y-137456952D02*
X77803808Y-137380761D01*
X77765713Y-137342666D01*
X77689523Y-137304571D01*
X77613332Y-137304571D01*
X77422856Y-137304571D02*
X77232380Y-137837904D01*
X77041904Y-137304571D02*
X77232380Y-137837904D01*
X77308570Y-138028380D01*
X77346666Y-138066476D01*
X77422856Y-138104571D01*
X75670475Y-137761714D02*
X75708570Y-137799809D01*
X75822856Y-137837904D01*
X75899046Y-137837904D01*
X76013332Y-137799809D01*
X76089523Y-137723619D01*
X76127618Y-137647428D01*
X76165713Y-137495047D01*
X76165713Y-137380761D01*
X76127618Y-137228380D01*
X76089523Y-137152190D01*
X76013332Y-137076000D01*
X75899046Y-137037904D01*
X75822856Y-137037904D01*
X75708570Y-137076000D01*
X75670475Y-137114095D01*
X74984761Y-137304571D02*
X74984761Y-137837904D01*
X75327618Y-137304571D02*
X75327618Y-137723619D01*
X75289523Y-137799809D01*
X75213332Y-137837904D01*
X75099046Y-137837904D01*
X75022856Y-137799809D01*
X74984761Y-137761714D01*
X74603808Y-137837904D02*
X74603808Y-137304571D01*
X74603808Y-137456952D02*
X74565713Y-137380761D01*
X74527618Y-137342666D01*
X74451427Y-137304571D01*
X74375237Y-137304571D01*
X74108570Y-137837904D02*
X74108570Y-137304571D01*
X74108570Y-137456952D02*
X74070475Y-137380761D01*
X74032380Y-137342666D01*
X73956189Y-137304571D01*
X73879999Y-137304571D01*
X73308570Y-137799809D02*
X73384761Y-137837904D01*
X73537142Y-137837904D01*
X73613332Y-137799809D01*
X73651427Y-137723619D01*
X73651427Y-137418857D01*
X73613332Y-137342666D01*
X73537142Y-137304571D01*
X73384761Y-137304571D01*
X73308570Y-137342666D01*
X73270475Y-137418857D01*
X73270475Y-137495047D01*
X73651427Y-137571238D01*
X72927618Y-137304571D02*
X72927618Y-137837904D01*
X72927618Y-137380761D02*
X72889523Y-137342666D01*
X72813332Y-137304571D01*
X72699046Y-137304571D01*
X72622856Y-137342666D01*
X72584761Y-137418857D01*
X72584761Y-137837904D01*
X72318094Y-137304571D02*
X72013332Y-137304571D01*
X72203808Y-137037904D02*
X72203808Y-137723619D01*
X72165713Y-137799809D01*
X72089523Y-137837904D01*
X72013332Y-137837904D01*
X77937142Y-134037904D02*
X77479999Y-134037904D01*
X77708570Y-134837904D02*
X77708570Y-134037904D01*
X77213332Y-134837904D02*
X77213332Y-134037904D01*
X76908570Y-134037904D01*
X76832380Y-134076000D01*
X76794285Y-134114095D01*
X76756189Y-134190285D01*
X76756189Y-134304571D01*
X76794285Y-134380761D01*
X76832380Y-134418857D01*
X76908570Y-134456952D01*
X77213332Y-134456952D01*
X75994285Y-134837904D02*
X76451427Y-134837904D01*
X76222856Y-134837904D02*
X76222856Y-134037904D01*
X76299046Y-134152190D01*
X76375237Y-134228380D01*
X76451427Y-134266476D01*
X75613332Y-134837904D02*
X75460951Y-134837904D01*
X75384761Y-134799809D01*
X75346666Y-134761714D01*
X75270475Y-134647428D01*
X75232380Y-134495047D01*
X75232380Y-134190285D01*
X75270475Y-134114095D01*
X75308570Y-134076000D01*
X75384761Y-134037904D01*
X75537142Y-134037904D01*
X75613332Y-134076000D01*
X75651427Y-134114095D01*
X75689523Y-134190285D01*
X75689523Y-134380761D01*
X75651427Y-134456952D01*
X75613332Y-134495047D01*
X75537142Y-134533142D01*
X75384761Y-134533142D01*
X75308570Y-134495047D01*
X75270475Y-134456952D01*
X75232380Y-134380761D01*
%TO.C,D8*%
X70921904Y-131029095D02*
X70921904Y-131524333D01*
X71226666Y-131257666D01*
X71226666Y-131371952D01*
X71264761Y-131448142D01*
X71302857Y-131486238D01*
X71379047Y-131524333D01*
X71569523Y-131524333D01*
X71645714Y-131486238D01*
X71683809Y-131448142D01*
X71721904Y-131371952D01*
X71721904Y-131143380D01*
X71683809Y-131067190D01*
X71645714Y-131029095D01*
X71645714Y-131867190D02*
X71683809Y-131905285D01*
X71721904Y-131867190D01*
X71683809Y-131829095D01*
X71645714Y-131867190D01*
X71721904Y-131867190D01*
X70921904Y-132171952D02*
X70921904Y-132667190D01*
X71226666Y-132400523D01*
X71226666Y-132514809D01*
X71264761Y-132591000D01*
X71302857Y-132629095D01*
X71379047Y-132667190D01*
X71569523Y-132667190D01*
X71645714Y-132629095D01*
X71683809Y-132591000D01*
X71721904Y-132514809D01*
X71721904Y-132286238D01*
X71683809Y-132210047D01*
X71645714Y-132171952D01*
X70921904Y-132895761D02*
X71721904Y-133162428D01*
X70921904Y-133429095D01*
X70921904Y-134229095D02*
X70921904Y-134762428D01*
X71721904Y-134229095D01*
X71721904Y-134762428D01*
X71683809Y-135371952D02*
X71721904Y-135295761D01*
X71721904Y-135143380D01*
X71683809Y-135067190D01*
X71607619Y-135029095D01*
X71302857Y-135029095D01*
X71226666Y-135067190D01*
X71188571Y-135143380D01*
X71188571Y-135295761D01*
X71226666Y-135371952D01*
X71302857Y-135410047D01*
X71379047Y-135410047D01*
X71455238Y-135029095D01*
X71188571Y-135752904D02*
X71721904Y-135752904D01*
X71264761Y-135752904D02*
X71226666Y-135791000D01*
X71188571Y-135867190D01*
X71188571Y-135981476D01*
X71226666Y-136057666D01*
X71302857Y-136095761D01*
X71721904Y-136095761D01*
X71683809Y-136781476D02*
X71721904Y-136705285D01*
X71721904Y-136552904D01*
X71683809Y-136476714D01*
X71607619Y-136438619D01*
X71302857Y-136438619D01*
X71226666Y-136476714D01*
X71188571Y-136552904D01*
X71188571Y-136705285D01*
X71226666Y-136781476D01*
X71302857Y-136819571D01*
X71379047Y-136819571D01*
X71455238Y-136438619D01*
X71721904Y-137162428D02*
X71188571Y-137162428D01*
X71340952Y-137162428D02*
X71264761Y-137200523D01*
X71226666Y-137238619D01*
X71188571Y-137314809D01*
X71188571Y-137391000D01*
X111001904Y-270055523D02*
X110201904Y-270055523D01*
X110201904Y-270246000D01*
X110240000Y-270360285D01*
X110316190Y-270436476D01*
X110392380Y-270474571D01*
X110544761Y-270512666D01*
X110659047Y-270512666D01*
X110811428Y-270474571D01*
X110887619Y-270436476D01*
X110963809Y-270360285D01*
X111001904Y-270246000D01*
X111001904Y-270055523D01*
X110544761Y-270969809D02*
X110506666Y-270893619D01*
X110468571Y-270855523D01*
X110392380Y-270817428D01*
X110354285Y-270817428D01*
X110278095Y-270855523D01*
X110240000Y-270893619D01*
X110201904Y-270969809D01*
X110201904Y-271122190D01*
X110240000Y-271198380D01*
X110278095Y-271236476D01*
X110354285Y-271274571D01*
X110392380Y-271274571D01*
X110468571Y-271236476D01*
X110506666Y-271198380D01*
X110544761Y-271122190D01*
X110544761Y-270969809D01*
X110582857Y-270893619D01*
X110620952Y-270855523D01*
X110697142Y-270817428D01*
X110849523Y-270817428D01*
X110925714Y-270855523D01*
X110963809Y-270893619D01*
X111001904Y-270969809D01*
X111001904Y-271122190D01*
X110963809Y-271198380D01*
X110925714Y-271236476D01*
X110849523Y-271274571D01*
X110697142Y-271274571D01*
X110620952Y-271236476D01*
X110582857Y-271198380D01*
X110544761Y-271122190D01*
%TO.C,R14*%
X29961904Y-140712500D02*
X29961904Y-140560119D01*
X30000000Y-140483928D01*
X30038095Y-140445833D01*
X30152380Y-140369642D01*
X30304761Y-140331547D01*
X30609523Y-140331547D01*
X30685714Y-140369642D01*
X30723809Y-140407738D01*
X30761904Y-140483928D01*
X30761904Y-140636309D01*
X30723809Y-140712500D01*
X30685714Y-140750595D01*
X30609523Y-140788690D01*
X30419047Y-140788690D01*
X30342857Y-140750595D01*
X30304761Y-140712500D01*
X30266666Y-140636309D01*
X30266666Y-140483928D01*
X30304761Y-140407738D01*
X30342857Y-140369642D01*
X30419047Y-140331547D01*
X29961904Y-141283928D02*
X29961904Y-141360119D01*
X30000000Y-141436309D01*
X30038095Y-141474404D01*
X30114285Y-141512500D01*
X30266666Y-141550595D01*
X30457142Y-141550595D01*
X30609523Y-141512500D01*
X30685714Y-141474404D01*
X30723809Y-141436309D01*
X30761904Y-141360119D01*
X30761904Y-141283928D01*
X30723809Y-141207738D01*
X30685714Y-141169642D01*
X30609523Y-141131547D01*
X30457142Y-141093452D01*
X30266666Y-141093452D01*
X30114285Y-141131547D01*
X30038095Y-141169642D01*
X30000000Y-141207738D01*
X29961904Y-141283928D01*
X30685714Y-141893452D02*
X30723809Y-141931547D01*
X30761904Y-141893452D01*
X30723809Y-141855357D01*
X30685714Y-141893452D01*
X30761904Y-141893452D01*
X30228571Y-142617261D02*
X30761904Y-142617261D01*
X29923809Y-142426785D02*
X30495238Y-142236309D01*
X30495238Y-142731547D01*
X32411904Y-140998214D02*
X32030952Y-140731547D01*
X32411904Y-140541071D02*
X31611904Y-140541071D01*
X31611904Y-140845833D01*
X31650000Y-140922023D01*
X31688095Y-140960119D01*
X31764285Y-140998214D01*
X31878571Y-140998214D01*
X31954761Y-140960119D01*
X31992857Y-140922023D01*
X32030952Y-140845833D01*
X32030952Y-140541071D01*
X32411904Y-141760119D02*
X32411904Y-141302976D01*
X32411904Y-141531547D02*
X31611904Y-141531547D01*
X31726190Y-141455357D01*
X31802380Y-141379166D01*
X31840476Y-141302976D01*
X31878571Y-142445833D02*
X32411904Y-142445833D01*
X31573809Y-142255357D02*
X32145238Y-142064880D01*
X32145238Y-142560119D01*
%TO.C,TP1*%
X52052738Y-143056904D02*
X52509880Y-143056904D01*
X52281309Y-143056904D02*
X52281309Y-142256904D01*
X52357500Y-142371190D01*
X52433690Y-142447380D01*
X52509880Y-142485476D01*
X51747976Y-142333095D02*
X51709880Y-142295000D01*
X51633690Y-142256904D01*
X51443214Y-142256904D01*
X51367023Y-142295000D01*
X51328928Y-142333095D01*
X51290833Y-142409285D01*
X51290833Y-142485476D01*
X51328928Y-142599761D01*
X51786071Y-143056904D01*
X51290833Y-143056904D01*
X51062261Y-142256904D02*
X50795595Y-143056904D01*
X50528928Y-142256904D01*
X52567023Y-139256904D02*
X52109880Y-139256904D01*
X52338452Y-140056904D02*
X52338452Y-139256904D01*
X51843214Y-140056904D02*
X51843214Y-139256904D01*
X51538452Y-139256904D01*
X51462261Y-139295000D01*
X51424166Y-139333095D01*
X51386071Y-139409285D01*
X51386071Y-139523571D01*
X51424166Y-139599761D01*
X51462261Y-139637857D01*
X51538452Y-139675952D01*
X51843214Y-139675952D01*
X50624166Y-140056904D02*
X51081309Y-140056904D01*
X50852738Y-140056904D02*
X50852738Y-139256904D01*
X50928928Y-139371190D01*
X51005119Y-139447380D01*
X51081309Y-139485476D01*
%TO.C,C18*%
X43700238Y-133393095D02*
X43662142Y-133355000D01*
X43585952Y-133316904D01*
X43395476Y-133316904D01*
X43319285Y-133355000D01*
X43281190Y-133393095D01*
X43243095Y-133469285D01*
X43243095Y-133545476D01*
X43281190Y-133659761D01*
X43738333Y-134116904D01*
X43243095Y-134116904D01*
X42938333Y-133393095D02*
X42900238Y-133355000D01*
X42824047Y-133316904D01*
X42633571Y-133316904D01*
X42557380Y-133355000D01*
X42519285Y-133393095D01*
X42481190Y-133469285D01*
X42481190Y-133545476D01*
X42519285Y-133659761D01*
X42976428Y-134116904D01*
X42481190Y-134116904D01*
X41985952Y-133316904D02*
X41909761Y-133316904D01*
X41833571Y-133355000D01*
X41795476Y-133393095D01*
X41757380Y-133469285D01*
X41719285Y-133621666D01*
X41719285Y-133812142D01*
X41757380Y-133964523D01*
X41795476Y-134040714D01*
X41833571Y-134078809D01*
X41909761Y-134116904D01*
X41985952Y-134116904D01*
X42062142Y-134078809D01*
X42100238Y-134040714D01*
X42138333Y-133964523D01*
X42176428Y-133812142D01*
X42176428Y-133621666D01*
X42138333Y-133469285D01*
X42100238Y-133393095D01*
X42062142Y-133355000D01*
X41985952Y-133316904D01*
X41376428Y-133583571D02*
X41376428Y-134116904D01*
X41376428Y-133659761D02*
X41338333Y-133621666D01*
X41262142Y-133583571D01*
X41147857Y-133583571D01*
X41071666Y-133621666D01*
X41033571Y-133697857D01*
X41033571Y-134116904D01*
X40385952Y-133697857D02*
X40652619Y-133697857D01*
X40652619Y-134116904D02*
X40652619Y-133316904D01*
X40271666Y-133316904D01*
X42519285Y-135720714D02*
X42557380Y-135758809D01*
X42671666Y-135796904D01*
X42747857Y-135796904D01*
X42862142Y-135758809D01*
X42938333Y-135682619D01*
X42976428Y-135606428D01*
X43014523Y-135454047D01*
X43014523Y-135339761D01*
X42976428Y-135187380D01*
X42938333Y-135111190D01*
X42862142Y-135035000D01*
X42747857Y-134996904D01*
X42671666Y-134996904D01*
X42557380Y-135035000D01*
X42519285Y-135073095D01*
X41757380Y-135796904D02*
X42214523Y-135796904D01*
X41985952Y-135796904D02*
X41985952Y-134996904D01*
X42062142Y-135111190D01*
X42138333Y-135187380D01*
X42214523Y-135225476D01*
X41300238Y-135339761D02*
X41376428Y-135301666D01*
X41414523Y-135263571D01*
X41452619Y-135187380D01*
X41452619Y-135149285D01*
X41414523Y-135073095D01*
X41376428Y-135035000D01*
X41300238Y-134996904D01*
X41147857Y-134996904D01*
X41071666Y-135035000D01*
X41033571Y-135073095D01*
X40995476Y-135149285D01*
X40995476Y-135187380D01*
X41033571Y-135263571D01*
X41071666Y-135301666D01*
X41147857Y-135339761D01*
X41300238Y-135339761D01*
X41376428Y-135377857D01*
X41414523Y-135415952D01*
X41452619Y-135492142D01*
X41452619Y-135644523D01*
X41414523Y-135720714D01*
X41376428Y-135758809D01*
X41300238Y-135796904D01*
X41147857Y-135796904D01*
X41071666Y-135758809D01*
X41033571Y-135720714D01*
X40995476Y-135644523D01*
X40995476Y-135492142D01*
X41033571Y-135415952D01*
X41071666Y-135377857D01*
X41147857Y-135339761D01*
%TO.C,C20*%
X37538095Y-136596904D02*
X37995238Y-136596904D01*
X37766666Y-136596904D02*
X37766666Y-135796904D01*
X37842857Y-135911190D01*
X37919047Y-135987380D01*
X37995238Y-136025476D01*
X37042857Y-135796904D02*
X36966666Y-135796904D01*
X36890476Y-135835000D01*
X36852380Y-135873095D01*
X36814285Y-135949285D01*
X36776190Y-136101666D01*
X36776190Y-136292142D01*
X36814285Y-136444523D01*
X36852380Y-136520714D01*
X36890476Y-136558809D01*
X36966666Y-136596904D01*
X37042857Y-136596904D01*
X37119047Y-136558809D01*
X37157142Y-136520714D01*
X37195238Y-136444523D01*
X37233333Y-136292142D01*
X37233333Y-136101666D01*
X37195238Y-135949285D01*
X37157142Y-135873095D01*
X37119047Y-135835000D01*
X37042857Y-135796904D01*
X36280952Y-135796904D02*
X36204761Y-135796904D01*
X36128571Y-135835000D01*
X36090476Y-135873095D01*
X36052380Y-135949285D01*
X36014285Y-136101666D01*
X36014285Y-136292142D01*
X36052380Y-136444523D01*
X36090476Y-136520714D01*
X36128571Y-136558809D01*
X36204761Y-136596904D01*
X36280952Y-136596904D01*
X36357142Y-136558809D01*
X36395238Y-136520714D01*
X36433333Y-136444523D01*
X36471428Y-136292142D01*
X36471428Y-136101666D01*
X36433333Y-135949285D01*
X36395238Y-135873095D01*
X36357142Y-135835000D01*
X36280952Y-135796904D01*
X35671428Y-136063571D02*
X35671428Y-136596904D01*
X35671428Y-136139761D02*
X35633333Y-136101666D01*
X35557142Y-136063571D01*
X35442857Y-136063571D01*
X35366666Y-136101666D01*
X35328571Y-136177857D01*
X35328571Y-136596904D01*
X34680952Y-136177857D02*
X34947619Y-136177857D01*
X34947619Y-136596904D02*
X34947619Y-135796904D01*
X34566666Y-135796904D01*
X36814285Y-138200714D02*
X36852380Y-138238809D01*
X36966666Y-138276904D01*
X37042857Y-138276904D01*
X37157142Y-138238809D01*
X37233333Y-138162619D01*
X37271428Y-138086428D01*
X37309523Y-137934047D01*
X37309523Y-137819761D01*
X37271428Y-137667380D01*
X37233333Y-137591190D01*
X37157142Y-137515000D01*
X37042857Y-137476904D01*
X36966666Y-137476904D01*
X36852380Y-137515000D01*
X36814285Y-137553095D01*
X36509523Y-137553095D02*
X36471428Y-137515000D01*
X36395238Y-137476904D01*
X36204761Y-137476904D01*
X36128571Y-137515000D01*
X36090476Y-137553095D01*
X36052380Y-137629285D01*
X36052380Y-137705476D01*
X36090476Y-137819761D01*
X36547619Y-138276904D01*
X36052380Y-138276904D01*
X35557142Y-137476904D02*
X35480952Y-137476904D01*
X35404761Y-137515000D01*
X35366666Y-137553095D01*
X35328571Y-137629285D01*
X35290476Y-137781666D01*
X35290476Y-137972142D01*
X35328571Y-138124523D01*
X35366666Y-138200714D01*
X35404761Y-138238809D01*
X35480952Y-138276904D01*
X35557142Y-138276904D01*
X35633333Y-138238809D01*
X35671428Y-138200714D01*
X35709523Y-138124523D01*
X35747619Y-137972142D01*
X35747619Y-137781666D01*
X35709523Y-137629285D01*
X35671428Y-137553095D01*
X35633333Y-137515000D01*
X35557142Y-137476904D01*
%TO.C,C6*%
X54428809Y-134978571D02*
X54428809Y-135511904D01*
X54619285Y-134673809D02*
X54809761Y-135245238D01*
X54314523Y-135245238D01*
X54009761Y-135435714D02*
X53971666Y-135473809D01*
X54009761Y-135511904D01*
X54047857Y-135473809D01*
X54009761Y-135435714D01*
X54009761Y-135511904D01*
X53705000Y-134711904D02*
X53171666Y-134711904D01*
X53514523Y-135511904D01*
X52524047Y-134978571D02*
X52524047Y-135511904D01*
X52866904Y-134978571D02*
X52866904Y-135397619D01*
X52828809Y-135473809D01*
X52752619Y-135511904D01*
X52638333Y-135511904D01*
X52562142Y-135473809D01*
X52524047Y-135435714D01*
X51876428Y-135092857D02*
X52143095Y-135092857D01*
X52143095Y-135511904D02*
X52143095Y-134711904D01*
X51762142Y-134711904D01*
X53438333Y-137115714D02*
X53476428Y-137153809D01*
X53590714Y-137191904D01*
X53666904Y-137191904D01*
X53781190Y-137153809D01*
X53857380Y-137077619D01*
X53895476Y-137001428D01*
X53933571Y-136849047D01*
X53933571Y-136734761D01*
X53895476Y-136582380D01*
X53857380Y-136506190D01*
X53781190Y-136430000D01*
X53666904Y-136391904D01*
X53590714Y-136391904D01*
X53476428Y-136430000D01*
X53438333Y-136468095D01*
X52752619Y-136391904D02*
X52905000Y-136391904D01*
X52981190Y-136430000D01*
X53019285Y-136468095D01*
X53095476Y-136582380D01*
X53133571Y-136734761D01*
X53133571Y-137039523D01*
X53095476Y-137115714D01*
X53057380Y-137153809D01*
X52981190Y-137191904D01*
X52828809Y-137191904D01*
X52752619Y-137153809D01*
X52714523Y-137115714D01*
X52676428Y-137039523D01*
X52676428Y-136849047D01*
X52714523Y-136772857D01*
X52752619Y-136734761D01*
X52828809Y-136696666D01*
X52981190Y-136696666D01*
X53057380Y-136734761D01*
X53095476Y-136772857D01*
X53133571Y-136849047D01*
%TO.C,TP7*%
X55576904Y-84426190D02*
X54776904Y-84426190D01*
X54776904Y-84730952D01*
X54815000Y-84807142D01*
X54853095Y-84845238D01*
X54929285Y-84883333D01*
X55043571Y-84883333D01*
X55119761Y-84845238D01*
X55157857Y-84807142D01*
X55195952Y-84730952D01*
X55195952Y-84426190D01*
X54776904Y-85150000D02*
X55576904Y-85340476D01*
X55005476Y-85492857D01*
X55576904Y-85645238D01*
X54776904Y-85835714D01*
X55576904Y-86140476D02*
X54776904Y-86140476D01*
X55348333Y-86407142D01*
X54776904Y-86673809D01*
X55576904Y-86673809D01*
X51776904Y-84540476D02*
X51776904Y-84997619D01*
X52576904Y-84769047D02*
X51776904Y-84769047D01*
X52576904Y-85264285D02*
X51776904Y-85264285D01*
X51776904Y-85569047D01*
X51815000Y-85645238D01*
X51853095Y-85683333D01*
X51929285Y-85721428D01*
X52043571Y-85721428D01*
X52119761Y-85683333D01*
X52157857Y-85645238D01*
X52195952Y-85569047D01*
X52195952Y-85264285D01*
X51776904Y-85988095D02*
X51776904Y-86521428D01*
X52576904Y-86178571D01*
%TO.C,TP25*%
X35077857Y-119035714D02*
X35115952Y-119073809D01*
X35230238Y-119111904D01*
X35306428Y-119111904D01*
X35420714Y-119073809D01*
X35496904Y-118997619D01*
X35535000Y-118921428D01*
X35573095Y-118769047D01*
X35573095Y-118654761D01*
X35535000Y-118502380D01*
X35496904Y-118426190D01*
X35420714Y-118350000D01*
X35306428Y-118311904D01*
X35230238Y-118311904D01*
X35115952Y-118350000D01*
X35077857Y-118388095D01*
X34773095Y-118883333D02*
X34392142Y-118883333D01*
X34849285Y-119111904D02*
X34582619Y-118311904D01*
X34315952Y-119111904D01*
X34049285Y-119111904D02*
X34049285Y-118311904D01*
X33592142Y-119111904D01*
X33592142Y-118311904D01*
X33401666Y-119188095D02*
X32792142Y-119188095D01*
X32144523Y-119111904D02*
X32411190Y-118730952D01*
X32601666Y-119111904D02*
X32601666Y-118311904D01*
X32296904Y-118311904D01*
X32220714Y-118350000D01*
X32182619Y-118388095D01*
X32144523Y-118464285D01*
X32144523Y-118578571D01*
X32182619Y-118654761D01*
X32220714Y-118692857D01*
X32296904Y-118730952D01*
X32601666Y-118730952D01*
X31877857Y-119111904D02*
X31458809Y-118578571D01*
X31877857Y-118578571D02*
X31458809Y-119111904D01*
X34925476Y-115311904D02*
X34468333Y-115311904D01*
X34696904Y-116111904D02*
X34696904Y-115311904D01*
X34201666Y-116111904D02*
X34201666Y-115311904D01*
X33896904Y-115311904D01*
X33820714Y-115350000D01*
X33782619Y-115388095D01*
X33744523Y-115464285D01*
X33744523Y-115578571D01*
X33782619Y-115654761D01*
X33820714Y-115692857D01*
X33896904Y-115730952D01*
X34201666Y-115730952D01*
X33439761Y-115388095D02*
X33401666Y-115350000D01*
X33325476Y-115311904D01*
X33135000Y-115311904D01*
X33058809Y-115350000D01*
X33020714Y-115388095D01*
X32982619Y-115464285D01*
X32982619Y-115540476D01*
X33020714Y-115654761D01*
X33477857Y-116111904D01*
X32982619Y-116111904D01*
X32258809Y-115311904D02*
X32639761Y-115311904D01*
X32677857Y-115692857D01*
X32639761Y-115654761D01*
X32563571Y-115616666D01*
X32373095Y-115616666D01*
X32296904Y-115654761D01*
X32258809Y-115692857D01*
X32220714Y-115769047D01*
X32220714Y-115959523D01*
X32258809Y-116035714D01*
X32296904Y-116073809D01*
X32373095Y-116111904D01*
X32563571Y-116111904D01*
X32639761Y-116073809D01*
X32677857Y-116035714D01*
%TO.C,C2*%
X56884642Y-148771904D02*
X57341785Y-148771904D01*
X57113214Y-148771904D02*
X57113214Y-147971904D01*
X57189404Y-148086190D01*
X57265595Y-148162380D01*
X57341785Y-148200476D01*
X56389404Y-147971904D02*
X56313214Y-147971904D01*
X56237023Y-148010000D01*
X56198928Y-148048095D01*
X56160833Y-148124285D01*
X56122738Y-148276666D01*
X56122738Y-148467142D01*
X56160833Y-148619523D01*
X56198928Y-148695714D01*
X56237023Y-148733809D01*
X56313214Y-148771904D01*
X56389404Y-148771904D01*
X56465595Y-148733809D01*
X56503690Y-148695714D01*
X56541785Y-148619523D01*
X56579880Y-148467142D01*
X56579880Y-148276666D01*
X56541785Y-148124285D01*
X56503690Y-148048095D01*
X56465595Y-148010000D01*
X56389404Y-147971904D01*
X55437023Y-148238571D02*
X55437023Y-148771904D01*
X55779880Y-148238571D02*
X55779880Y-148657619D01*
X55741785Y-148733809D01*
X55665595Y-148771904D01*
X55551309Y-148771904D01*
X55475119Y-148733809D01*
X55437023Y-148695714D01*
X54789404Y-148352857D02*
X55056071Y-148352857D01*
X55056071Y-148771904D02*
X55056071Y-147971904D01*
X54675119Y-147971904D01*
X56160833Y-147015714D02*
X56198928Y-147053809D01*
X56313214Y-147091904D01*
X56389404Y-147091904D01*
X56503690Y-147053809D01*
X56579880Y-146977619D01*
X56617976Y-146901428D01*
X56656071Y-146749047D01*
X56656071Y-146634761D01*
X56617976Y-146482380D01*
X56579880Y-146406190D01*
X56503690Y-146330000D01*
X56389404Y-146291904D01*
X56313214Y-146291904D01*
X56198928Y-146330000D01*
X56160833Y-146368095D01*
X55856071Y-146368095D02*
X55817976Y-146330000D01*
X55741785Y-146291904D01*
X55551309Y-146291904D01*
X55475119Y-146330000D01*
X55437023Y-146368095D01*
X55398928Y-146444285D01*
X55398928Y-146520476D01*
X55437023Y-146634761D01*
X55894166Y-147091904D01*
X55398928Y-147091904D01*
%TO.C,U8*%
X68956904Y-114182143D02*
X68156904Y-114182143D01*
X68728333Y-114448810D01*
X68156904Y-114715477D01*
X68956904Y-114715477D01*
X68728333Y-115058334D02*
X68728333Y-115439286D01*
X68956904Y-114982143D02*
X68156904Y-115248810D01*
X68956904Y-115515477D01*
X68156904Y-115705953D02*
X68956904Y-116239286D01*
X68156904Y-116239286D02*
X68956904Y-115705953D01*
X68423571Y-116886905D02*
X68956904Y-116886905D01*
X68118809Y-116696429D02*
X68690238Y-116505953D01*
X68690238Y-117001191D01*
X68156904Y-117458334D02*
X68156904Y-117534524D01*
X68195000Y-117610715D01*
X68233095Y-117648810D01*
X68309285Y-117686905D01*
X68461666Y-117725001D01*
X68652142Y-117725001D01*
X68804523Y-117686905D01*
X68880714Y-117648810D01*
X68918809Y-117610715D01*
X68956904Y-117534524D01*
X68956904Y-117458334D01*
X68918809Y-117382143D01*
X68880714Y-117344048D01*
X68804523Y-117305953D01*
X68652142Y-117267858D01*
X68461666Y-117267858D01*
X68309285Y-117305953D01*
X68233095Y-117344048D01*
X68195000Y-117382143D01*
X68156904Y-117458334D01*
X68156904Y-118220239D02*
X68156904Y-118296429D01*
X68195000Y-118372620D01*
X68233095Y-118410715D01*
X68309285Y-118448810D01*
X68461666Y-118486905D01*
X68652142Y-118486905D01*
X68804523Y-118448810D01*
X68880714Y-118410715D01*
X68918809Y-118372620D01*
X68956904Y-118296429D01*
X68956904Y-118220239D01*
X68918809Y-118144048D01*
X68880714Y-118105953D01*
X68804523Y-118067858D01*
X68652142Y-118029762D01*
X68461666Y-118029762D01*
X68309285Y-118067858D01*
X68233095Y-118105953D01*
X68195000Y-118144048D01*
X68156904Y-118220239D01*
X68156904Y-118753572D02*
X68156904Y-119286905D01*
X68956904Y-118944048D01*
X68156904Y-119972620D02*
X68156904Y-119591667D01*
X68537857Y-119553572D01*
X68499761Y-119591667D01*
X68461666Y-119667858D01*
X68461666Y-119858334D01*
X68499761Y-119934524D01*
X68537857Y-119972620D01*
X68614047Y-120010715D01*
X68804523Y-120010715D01*
X68880714Y-119972620D01*
X68918809Y-119934524D01*
X68956904Y-119858334D01*
X68956904Y-119667858D01*
X68918809Y-119591667D01*
X68880714Y-119553572D01*
X65756904Y-116467858D02*
X66404523Y-116467858D01*
X66480714Y-116505953D01*
X66518809Y-116544048D01*
X66556904Y-116620239D01*
X66556904Y-116772620D01*
X66518809Y-116848810D01*
X66480714Y-116886905D01*
X66404523Y-116925001D01*
X65756904Y-116925001D01*
X66099761Y-117420239D02*
X66061666Y-117344048D01*
X66023571Y-117305953D01*
X65947380Y-117267858D01*
X65909285Y-117267858D01*
X65833095Y-117305953D01*
X65795000Y-117344048D01*
X65756904Y-117420239D01*
X65756904Y-117572620D01*
X65795000Y-117648810D01*
X65833095Y-117686905D01*
X65909285Y-117725001D01*
X65947380Y-117725001D01*
X66023571Y-117686905D01*
X66061666Y-117648810D01*
X66099761Y-117572620D01*
X66099761Y-117420239D01*
X66137857Y-117344048D01*
X66175952Y-117305953D01*
X66252142Y-117267858D01*
X66404523Y-117267858D01*
X66480714Y-117305953D01*
X66518809Y-117344048D01*
X66556904Y-117420239D01*
X66556904Y-117572620D01*
X66518809Y-117648810D01*
X66480714Y-117686905D01*
X66404523Y-117725001D01*
X66252142Y-117725001D01*
X66175952Y-117686905D01*
X66137857Y-117648810D01*
X66099761Y-117572620D01*
%TO.C,TP27*%
X40804523Y-128400714D02*
X40842619Y-128438809D01*
X40956904Y-128476904D01*
X41033095Y-128476904D01*
X41147380Y-128438809D01*
X41223571Y-128362619D01*
X41261666Y-128286428D01*
X41299761Y-128134047D01*
X41299761Y-128019761D01*
X41261666Y-127867380D01*
X41223571Y-127791190D01*
X41147380Y-127715000D01*
X41033095Y-127676904D01*
X40956904Y-127676904D01*
X40842619Y-127715000D01*
X40804523Y-127753095D01*
X40499761Y-128248333D02*
X40118809Y-128248333D01*
X40575952Y-128476904D02*
X40309285Y-127676904D01*
X40042619Y-128476904D01*
X39775952Y-128476904D02*
X39775952Y-127676904D01*
X39318809Y-128476904D01*
X39318809Y-127676904D01*
X39128333Y-128553095D02*
X38518809Y-128553095D01*
X38328333Y-128476904D02*
X38328333Y-127676904D01*
X37985476Y-128438809D02*
X37871190Y-128476904D01*
X37680714Y-128476904D01*
X37604523Y-128438809D01*
X37566428Y-128400714D01*
X37528333Y-128324523D01*
X37528333Y-128248333D01*
X37566428Y-128172142D01*
X37604523Y-128134047D01*
X37680714Y-128095952D01*
X37833095Y-128057857D01*
X37909285Y-128019761D01*
X37947380Y-127981666D01*
X37985476Y-127905476D01*
X37985476Y-127829285D01*
X37947380Y-127753095D01*
X37909285Y-127715000D01*
X37833095Y-127676904D01*
X37642619Y-127676904D01*
X37528333Y-127715000D01*
X37033095Y-127676904D02*
X36880714Y-127676904D01*
X36804523Y-127715000D01*
X36728333Y-127791190D01*
X36690238Y-127943571D01*
X36690238Y-128210238D01*
X36728333Y-128362619D01*
X36804523Y-128438809D01*
X36880714Y-128476904D01*
X37033095Y-128476904D01*
X37109285Y-128438809D01*
X37185476Y-128362619D01*
X37223571Y-128210238D01*
X37223571Y-127943571D01*
X37185476Y-127791190D01*
X37109285Y-127715000D01*
X37033095Y-127676904D01*
X36537857Y-128553095D02*
X35928333Y-128553095D01*
X35852142Y-127676904D02*
X35585476Y-128476904D01*
X35318809Y-127676904D01*
X35052142Y-128476904D02*
X35052142Y-127943571D01*
X35052142Y-127676904D02*
X35090238Y-127715000D01*
X35052142Y-127753095D01*
X35014047Y-127715000D01*
X35052142Y-127676904D01*
X35052142Y-127753095D01*
X34671190Y-127943571D02*
X34671190Y-128476904D01*
X34671190Y-128019761D02*
X34633095Y-127981666D01*
X34556904Y-127943571D01*
X34442619Y-127943571D01*
X34366428Y-127981666D01*
X34328333Y-128057857D01*
X34328333Y-128476904D01*
X39185476Y-130676904D02*
X38728333Y-130676904D01*
X38956904Y-131476904D02*
X38956904Y-130676904D01*
X38461666Y-131476904D02*
X38461666Y-130676904D01*
X38156904Y-130676904D01*
X38080714Y-130715000D01*
X38042619Y-130753095D01*
X38004523Y-130829285D01*
X38004523Y-130943571D01*
X38042619Y-131019761D01*
X38080714Y-131057857D01*
X38156904Y-131095952D01*
X38461666Y-131095952D01*
X37699761Y-130753095D02*
X37661666Y-130715000D01*
X37585476Y-130676904D01*
X37395000Y-130676904D01*
X37318809Y-130715000D01*
X37280714Y-130753095D01*
X37242619Y-130829285D01*
X37242619Y-130905476D01*
X37280714Y-131019761D01*
X37737857Y-131476904D01*
X37242619Y-131476904D01*
X36975952Y-130676904D02*
X36442619Y-130676904D01*
X36785476Y-131476904D01*
%TO.C,R12*%
X31128095Y-136626904D02*
X31051904Y-136626904D01*
X30975714Y-136665000D01*
X30937619Y-136703095D01*
X30899523Y-136779285D01*
X30861428Y-136931666D01*
X30861428Y-137122142D01*
X30899523Y-137274523D01*
X30937619Y-137350714D01*
X30975714Y-137388809D01*
X31051904Y-137426904D01*
X31128095Y-137426904D01*
X31204285Y-137388809D01*
X31242380Y-137350714D01*
X31280476Y-137274523D01*
X31318571Y-137122142D01*
X31318571Y-136931666D01*
X31280476Y-136779285D01*
X31242380Y-136703095D01*
X31204285Y-136665000D01*
X31128095Y-136626904D01*
X31604285Y-135776904D02*
X31870952Y-135395952D01*
X32061428Y-135776904D02*
X32061428Y-134976904D01*
X31756666Y-134976904D01*
X31680476Y-135015000D01*
X31642380Y-135053095D01*
X31604285Y-135129285D01*
X31604285Y-135243571D01*
X31642380Y-135319761D01*
X31680476Y-135357857D01*
X31756666Y-135395952D01*
X32061428Y-135395952D01*
X30842380Y-135776904D02*
X31299523Y-135776904D01*
X31070952Y-135776904D02*
X31070952Y-134976904D01*
X31147142Y-135091190D01*
X31223333Y-135167380D01*
X31299523Y-135205476D01*
X30537619Y-135053095D02*
X30499523Y-135015000D01*
X30423333Y-134976904D01*
X30232857Y-134976904D01*
X30156666Y-135015000D01*
X30118571Y-135053095D01*
X30080476Y-135129285D01*
X30080476Y-135205476D01*
X30118571Y-135319761D01*
X30575714Y-135776904D01*
X30080476Y-135776904D01*
%TO.C,R11*%
X67838095Y-112847619D02*
X67800000Y-112885714D01*
X67761904Y-112961904D01*
X67761904Y-113152380D01*
X67800000Y-113228571D01*
X67838095Y-113266666D01*
X67914285Y-113304761D01*
X67990476Y-113304761D01*
X68104761Y-113266666D01*
X68561904Y-112809523D01*
X68561904Y-113304761D01*
X68561904Y-113647619D02*
X67761904Y-113647619D01*
X68257142Y-113723809D02*
X68561904Y-113952380D01*
X68028571Y-113952380D02*
X68333333Y-113647619D01*
X70211904Y-112885714D02*
X69830952Y-112619047D01*
X70211904Y-112428571D02*
X69411904Y-112428571D01*
X69411904Y-112733333D01*
X69450000Y-112809523D01*
X69488095Y-112847619D01*
X69564285Y-112885714D01*
X69678571Y-112885714D01*
X69754761Y-112847619D01*
X69792857Y-112809523D01*
X69830952Y-112733333D01*
X69830952Y-112428571D01*
X70211904Y-113647619D02*
X70211904Y-113190476D01*
X70211904Y-113419047D02*
X69411904Y-113419047D01*
X69526190Y-113342857D01*
X69602380Y-113266666D01*
X69640476Y-113190476D01*
X70211904Y-114409523D02*
X70211904Y-113952380D01*
X70211904Y-114180952D02*
X69411904Y-114180952D01*
X69526190Y-114104761D01*
X69602380Y-114028571D01*
X69640476Y-113952380D01*
%TO.C,TP24*%
X34952619Y-122015714D02*
X34990714Y-122053809D01*
X35105000Y-122091904D01*
X35181190Y-122091904D01*
X35295476Y-122053809D01*
X35371666Y-121977619D01*
X35409761Y-121901428D01*
X35447857Y-121749047D01*
X35447857Y-121634761D01*
X35409761Y-121482380D01*
X35371666Y-121406190D01*
X35295476Y-121330000D01*
X35181190Y-121291904D01*
X35105000Y-121291904D01*
X34990714Y-121330000D01*
X34952619Y-121368095D01*
X34647857Y-121863333D02*
X34266904Y-121863333D01*
X34724047Y-122091904D02*
X34457380Y-121291904D01*
X34190714Y-122091904D01*
X33924047Y-122091904D02*
X33924047Y-121291904D01*
X33466904Y-122091904D01*
X33466904Y-121291904D01*
X33276428Y-122168095D02*
X32666904Y-122168095D01*
X32590714Y-121291904D02*
X32133571Y-121291904D01*
X32362142Y-122091904D02*
X32362142Y-121291904D01*
X31943095Y-122091904D02*
X31524047Y-121558571D01*
X31943095Y-121558571D02*
X31524047Y-122091904D01*
X34895476Y-118291904D02*
X34438333Y-118291904D01*
X34666904Y-119091904D02*
X34666904Y-118291904D01*
X34171666Y-119091904D02*
X34171666Y-118291904D01*
X33866904Y-118291904D01*
X33790714Y-118330000D01*
X33752619Y-118368095D01*
X33714523Y-118444285D01*
X33714523Y-118558571D01*
X33752619Y-118634761D01*
X33790714Y-118672857D01*
X33866904Y-118710952D01*
X34171666Y-118710952D01*
X33409761Y-118368095D02*
X33371666Y-118330000D01*
X33295476Y-118291904D01*
X33105000Y-118291904D01*
X33028809Y-118330000D01*
X32990714Y-118368095D01*
X32952619Y-118444285D01*
X32952619Y-118520476D01*
X32990714Y-118634761D01*
X33447857Y-119091904D01*
X32952619Y-119091904D01*
X32266904Y-118558571D02*
X32266904Y-119091904D01*
X32457380Y-118253809D02*
X32647857Y-118825238D01*
X32152619Y-118825238D01*
%TO.C,D7*%
X105376904Y-129934095D02*
X105376904Y-130429333D01*
X105681666Y-130162666D01*
X105681666Y-130276952D01*
X105719761Y-130353142D01*
X105757857Y-130391238D01*
X105834047Y-130429333D01*
X106024523Y-130429333D01*
X106100714Y-130391238D01*
X106138809Y-130353142D01*
X106176904Y-130276952D01*
X106176904Y-130048380D01*
X106138809Y-129972190D01*
X106100714Y-129934095D01*
X106100714Y-130772190D02*
X106138809Y-130810285D01*
X106176904Y-130772190D01*
X106138809Y-130734095D01*
X106100714Y-130772190D01*
X106176904Y-130772190D01*
X105376904Y-131076952D02*
X105376904Y-131572190D01*
X105681666Y-131305523D01*
X105681666Y-131419809D01*
X105719761Y-131496000D01*
X105757857Y-131534095D01*
X105834047Y-131572190D01*
X106024523Y-131572190D01*
X106100714Y-131534095D01*
X106138809Y-131496000D01*
X106176904Y-131419809D01*
X106176904Y-131191238D01*
X106138809Y-131115047D01*
X106100714Y-131076952D01*
X105376904Y-131800761D02*
X106176904Y-132067428D01*
X105376904Y-132334095D01*
X105376904Y-133134095D02*
X105376904Y-133667428D01*
X106176904Y-133134095D01*
X106176904Y-133667428D01*
X106138809Y-134276952D02*
X106176904Y-134200761D01*
X106176904Y-134048380D01*
X106138809Y-133972190D01*
X106062619Y-133934095D01*
X105757857Y-133934095D01*
X105681666Y-133972190D01*
X105643571Y-134048380D01*
X105643571Y-134200761D01*
X105681666Y-134276952D01*
X105757857Y-134315047D01*
X105834047Y-134315047D01*
X105910238Y-133934095D01*
X105643571Y-134657904D02*
X106176904Y-134657904D01*
X105719761Y-134657904D02*
X105681666Y-134696000D01*
X105643571Y-134772190D01*
X105643571Y-134886476D01*
X105681666Y-134962666D01*
X105757857Y-135000761D01*
X106176904Y-135000761D01*
X106138809Y-135686476D02*
X106176904Y-135610285D01*
X106176904Y-135457904D01*
X106138809Y-135381714D01*
X106062619Y-135343619D01*
X105757857Y-135343619D01*
X105681666Y-135381714D01*
X105643571Y-135457904D01*
X105643571Y-135610285D01*
X105681666Y-135686476D01*
X105757857Y-135724571D01*
X105834047Y-135724571D01*
X105910238Y-135343619D01*
X106176904Y-136067428D02*
X105643571Y-136067428D01*
X105795952Y-136067428D02*
X105719761Y-136105523D01*
X105681666Y-136143619D01*
X105643571Y-136219809D01*
X105643571Y-136296000D01*
X109926904Y-132505523D02*
X109126904Y-132505523D01*
X109126904Y-132696000D01*
X109165000Y-132810285D01*
X109241190Y-132886476D01*
X109317380Y-132924571D01*
X109469761Y-132962666D01*
X109584047Y-132962666D01*
X109736428Y-132924571D01*
X109812619Y-132886476D01*
X109888809Y-132810285D01*
X109926904Y-132696000D01*
X109926904Y-132505523D01*
X109126904Y-133229333D02*
X109126904Y-133762666D01*
X109926904Y-133419809D01*
%TO.C,D3*%
X59221904Y-67017380D02*
X59221904Y-66560238D01*
X59221904Y-66788809D02*
X58421904Y-66788809D01*
X58536190Y-66712619D01*
X58612380Y-66636428D01*
X58650476Y-66560238D01*
X58421904Y-67703095D02*
X58421904Y-67550714D01*
X58460000Y-67474523D01*
X58498095Y-67436428D01*
X58612380Y-67360238D01*
X58764761Y-67322142D01*
X59069523Y-67322142D01*
X59145714Y-67360238D01*
X59183809Y-67398333D01*
X59221904Y-67474523D01*
X59221904Y-67626904D01*
X59183809Y-67703095D01*
X59145714Y-67741190D01*
X59069523Y-67779285D01*
X58879047Y-67779285D01*
X58802857Y-67741190D01*
X58764761Y-67703095D01*
X58726666Y-67626904D01*
X58726666Y-67474523D01*
X58764761Y-67398333D01*
X58802857Y-67360238D01*
X58879047Y-67322142D01*
X59145714Y-68122142D02*
X59183809Y-68160238D01*
X59221904Y-68122142D01*
X59183809Y-68084047D01*
X59145714Y-68122142D01*
X59221904Y-68122142D01*
X58421904Y-68426904D02*
X58421904Y-68922142D01*
X58726666Y-68655476D01*
X58726666Y-68769761D01*
X58764761Y-68845952D01*
X58802857Y-68884047D01*
X58879047Y-68922142D01*
X59069523Y-68922142D01*
X59145714Y-68884047D01*
X59183809Y-68845952D01*
X59221904Y-68769761D01*
X59221904Y-68541190D01*
X59183809Y-68465000D01*
X59145714Y-68426904D01*
X58421904Y-69150714D02*
X59221904Y-69417380D01*
X58421904Y-69684047D01*
X58421904Y-70484047D02*
X58421904Y-71017380D01*
X59221904Y-70484047D01*
X59221904Y-71017380D01*
X59183809Y-71626904D02*
X59221904Y-71550714D01*
X59221904Y-71398333D01*
X59183809Y-71322142D01*
X59107619Y-71284047D01*
X58802857Y-71284047D01*
X58726666Y-71322142D01*
X58688571Y-71398333D01*
X58688571Y-71550714D01*
X58726666Y-71626904D01*
X58802857Y-71665000D01*
X58879047Y-71665000D01*
X58955238Y-71284047D01*
X58688571Y-72007857D02*
X59221904Y-72007857D01*
X58764761Y-72007857D02*
X58726666Y-72045952D01*
X58688571Y-72122142D01*
X58688571Y-72236428D01*
X58726666Y-72312619D01*
X58802857Y-72350714D01*
X59221904Y-72350714D01*
X59183809Y-73036428D02*
X59221904Y-72960238D01*
X59221904Y-72807857D01*
X59183809Y-72731666D01*
X59107619Y-72693571D01*
X58802857Y-72693571D01*
X58726666Y-72731666D01*
X58688571Y-72807857D01*
X58688571Y-72960238D01*
X58726666Y-73036428D01*
X58802857Y-73074523D01*
X58879047Y-73074523D01*
X58955238Y-72693571D01*
X59221904Y-73417380D02*
X58688571Y-73417380D01*
X58840952Y-73417380D02*
X58764761Y-73455476D01*
X58726666Y-73493571D01*
X58688571Y-73569761D01*
X58688571Y-73645952D01*
X55216904Y-69347523D02*
X54416904Y-69347523D01*
X54416904Y-69538000D01*
X54455000Y-69652285D01*
X54531190Y-69728476D01*
X54607380Y-69766571D01*
X54759761Y-69804666D01*
X54874047Y-69804666D01*
X55026428Y-69766571D01*
X55102619Y-69728476D01*
X55178809Y-69652285D01*
X55216904Y-69538000D01*
X55216904Y-69347523D01*
X54416904Y-70071333D02*
X54416904Y-70566571D01*
X54721666Y-70299904D01*
X54721666Y-70414190D01*
X54759761Y-70490380D01*
X54797857Y-70528476D01*
X54874047Y-70566571D01*
X55064523Y-70566571D01*
X55140714Y-70528476D01*
X55178809Y-70490380D01*
X55216904Y-70414190D01*
X55216904Y-70185619D01*
X55178809Y-70109428D01*
X55140714Y-70071333D01*
%TO.C,L1*%
X48921904Y-131015000D02*
X48921904Y-130862619D01*
X48960000Y-130786428D01*
X48998095Y-130748333D01*
X49112380Y-130672142D01*
X49264761Y-130634047D01*
X49569523Y-130634047D01*
X49645714Y-130672142D01*
X49683809Y-130710238D01*
X49721904Y-130786428D01*
X49721904Y-130938809D01*
X49683809Y-131015000D01*
X49645714Y-131053095D01*
X49569523Y-131091190D01*
X49379047Y-131091190D01*
X49302857Y-131053095D01*
X49264761Y-131015000D01*
X49226666Y-130938809D01*
X49226666Y-130786428D01*
X49264761Y-130710238D01*
X49302857Y-130672142D01*
X49379047Y-130634047D01*
X49645714Y-131434047D02*
X49683809Y-131472142D01*
X49721904Y-131434047D01*
X49683809Y-131395952D01*
X49645714Y-131434047D01*
X49721904Y-131434047D01*
X49264761Y-131929285D02*
X49226666Y-131853095D01*
X49188571Y-131815000D01*
X49112380Y-131776904D01*
X49074285Y-131776904D01*
X48998095Y-131815000D01*
X48960000Y-131853095D01*
X48921904Y-131929285D01*
X48921904Y-132081666D01*
X48960000Y-132157857D01*
X48998095Y-132195952D01*
X49074285Y-132234047D01*
X49112380Y-132234047D01*
X49188571Y-132195952D01*
X49226666Y-132157857D01*
X49264761Y-132081666D01*
X49264761Y-131929285D01*
X49302857Y-131853095D01*
X49340952Y-131815000D01*
X49417142Y-131776904D01*
X49569523Y-131776904D01*
X49645714Y-131815000D01*
X49683809Y-131853095D01*
X49721904Y-131929285D01*
X49721904Y-132081666D01*
X49683809Y-132157857D01*
X49645714Y-132195952D01*
X49569523Y-132234047D01*
X49417142Y-132234047D01*
X49340952Y-132195952D01*
X49302857Y-132157857D01*
X49264761Y-132081666D01*
X49188571Y-132919761D02*
X49721904Y-132919761D01*
X49188571Y-132576904D02*
X49607619Y-132576904D01*
X49683809Y-132615000D01*
X49721904Y-132691190D01*
X49721904Y-132805476D01*
X49683809Y-132881666D01*
X49645714Y-132919761D01*
X49721904Y-133300714D02*
X48921904Y-133300714D01*
X49302857Y-133300714D02*
X49302857Y-133757857D01*
X49721904Y-133757857D02*
X48921904Y-133757857D01*
X53671904Y-132081666D02*
X53671904Y-131700714D01*
X52871904Y-131700714D01*
X53671904Y-132767380D02*
X53671904Y-132310238D01*
X53671904Y-132538809D02*
X52871904Y-132538809D01*
X52986190Y-132462619D01*
X53062380Y-132386428D01*
X53100476Y-132310238D01*
%TO.C,TP22*%
X71562142Y-119535357D02*
X71562142Y-120144880D01*
X71866904Y-119840119D02*
X71257380Y-119840119D01*
X71447857Y-120792500D02*
X71485952Y-120906785D01*
X71524047Y-120944880D01*
X71600238Y-120982976D01*
X71714523Y-120982976D01*
X71790714Y-120944880D01*
X71828809Y-120906785D01*
X71866904Y-120830595D01*
X71866904Y-120525833D01*
X71066904Y-120525833D01*
X71066904Y-120792500D01*
X71105000Y-120868690D01*
X71143095Y-120906785D01*
X71219285Y-120944880D01*
X71295476Y-120944880D01*
X71371666Y-120906785D01*
X71409761Y-120868690D01*
X71447857Y-120792500D01*
X71447857Y-120525833D01*
X71638333Y-121287738D02*
X71638333Y-121668690D01*
X71866904Y-121211547D02*
X71066904Y-121478214D01*
X71866904Y-121744880D01*
X71066904Y-121897261D02*
X71066904Y-122354404D01*
X71866904Y-122125833D02*
X71066904Y-122125833D01*
X71066904Y-122506785D02*
X71066904Y-122963928D01*
X71866904Y-122735357D02*
X71066904Y-122735357D01*
X68066904Y-119802023D02*
X68066904Y-120259166D01*
X68866904Y-120030595D02*
X68066904Y-120030595D01*
X68866904Y-120525833D02*
X68066904Y-120525833D01*
X68066904Y-120830595D01*
X68105000Y-120906785D01*
X68143095Y-120944880D01*
X68219285Y-120982976D01*
X68333571Y-120982976D01*
X68409761Y-120944880D01*
X68447857Y-120906785D01*
X68485952Y-120830595D01*
X68485952Y-120525833D01*
X68143095Y-121287738D02*
X68105000Y-121325833D01*
X68066904Y-121402023D01*
X68066904Y-121592500D01*
X68105000Y-121668690D01*
X68143095Y-121706785D01*
X68219285Y-121744880D01*
X68295476Y-121744880D01*
X68409761Y-121706785D01*
X68866904Y-121249642D01*
X68866904Y-121744880D01*
X68143095Y-122049642D02*
X68105000Y-122087738D01*
X68066904Y-122163928D01*
X68066904Y-122354404D01*
X68105000Y-122430595D01*
X68143095Y-122468690D01*
X68219285Y-122506785D01*
X68295476Y-122506785D01*
X68409761Y-122468690D01*
X68866904Y-122011547D01*
X68866904Y-122506785D01*
%TO.C,R16*%
X98803095Y-145354166D02*
X98765000Y-145392261D01*
X98726904Y-145468452D01*
X98726904Y-145658928D01*
X98765000Y-145735119D01*
X98803095Y-145773214D01*
X98879285Y-145811309D01*
X98955476Y-145811309D01*
X99069761Y-145773214D01*
X99526904Y-145316071D01*
X99526904Y-145811309D01*
X98726904Y-146077976D02*
X98726904Y-146611309D01*
X99526904Y-146268452D01*
X99526904Y-146916071D02*
X98726904Y-146916071D01*
X99222142Y-146992261D02*
X99526904Y-147220833D01*
X98993571Y-147220833D02*
X99298333Y-146916071D01*
X97876904Y-145773214D02*
X97495952Y-145506547D01*
X97876904Y-145316071D02*
X97076904Y-145316071D01*
X97076904Y-145620833D01*
X97115000Y-145697023D01*
X97153095Y-145735119D01*
X97229285Y-145773214D01*
X97343571Y-145773214D01*
X97419761Y-145735119D01*
X97457857Y-145697023D01*
X97495952Y-145620833D01*
X97495952Y-145316071D01*
X97876904Y-146535119D02*
X97876904Y-146077976D01*
X97876904Y-146306547D02*
X97076904Y-146306547D01*
X97191190Y-146230357D01*
X97267380Y-146154166D01*
X97305476Y-146077976D01*
X97076904Y-147220833D02*
X97076904Y-147068452D01*
X97115000Y-146992261D01*
X97153095Y-146954166D01*
X97267380Y-146877976D01*
X97419761Y-146839880D01*
X97724523Y-146839880D01*
X97800714Y-146877976D01*
X97838809Y-146916071D01*
X97876904Y-146992261D01*
X97876904Y-147144642D01*
X97838809Y-147220833D01*
X97800714Y-147258928D01*
X97724523Y-147297023D01*
X97534047Y-147297023D01*
X97457857Y-147258928D01*
X97419761Y-147220833D01*
X97381666Y-147144642D01*
X97381666Y-146992261D01*
X97419761Y-146916071D01*
X97457857Y-146877976D01*
X97534047Y-146839880D01*
%TO.C,R8*%
X108526904Y-117934107D02*
X108526904Y-117476964D01*
X108526904Y-117705535D02*
X107726904Y-117705535D01*
X107841190Y-117629345D01*
X107917380Y-117553154D01*
X107955476Y-117476964D01*
X107726904Y-118429345D02*
X107726904Y-118505535D01*
X107765000Y-118581726D01*
X107803095Y-118619821D01*
X107879285Y-118657916D01*
X108031666Y-118696011D01*
X108222142Y-118696011D01*
X108374523Y-118657916D01*
X108450714Y-118619821D01*
X108488809Y-118581726D01*
X108526904Y-118505535D01*
X108526904Y-118429345D01*
X108488809Y-118353154D01*
X108450714Y-118315059D01*
X108374523Y-118276964D01*
X108222142Y-118238869D01*
X108031666Y-118238869D01*
X107879285Y-118276964D01*
X107803095Y-118315059D01*
X107765000Y-118353154D01*
X107726904Y-118429345D01*
X107726904Y-119191250D02*
X107726904Y-119267440D01*
X107765000Y-119343630D01*
X107803095Y-119381726D01*
X107879285Y-119419821D01*
X108031666Y-119457916D01*
X108222142Y-119457916D01*
X108374523Y-119419821D01*
X108450714Y-119381726D01*
X108488809Y-119343630D01*
X108526904Y-119267440D01*
X108526904Y-119191250D01*
X108488809Y-119115059D01*
X108450714Y-119076964D01*
X108374523Y-119038869D01*
X108222142Y-119000773D01*
X108031666Y-119000773D01*
X107879285Y-119038869D01*
X107803095Y-119076964D01*
X107765000Y-119115059D01*
X107726904Y-119191250D01*
X108526904Y-119800773D02*
X107726904Y-119800773D01*
X108222142Y-119876964D02*
X108526904Y-120105535D01*
X107993571Y-120105535D02*
X108298333Y-119800773D01*
X106876904Y-118657916D02*
X106495952Y-118391250D01*
X106876904Y-118200773D02*
X106076904Y-118200773D01*
X106076904Y-118505535D01*
X106115000Y-118581726D01*
X106153095Y-118619821D01*
X106229285Y-118657916D01*
X106343571Y-118657916D01*
X106419761Y-118619821D01*
X106457857Y-118581726D01*
X106495952Y-118505535D01*
X106495952Y-118200773D01*
X106419761Y-119115059D02*
X106381666Y-119038869D01*
X106343571Y-119000773D01*
X106267380Y-118962678D01*
X106229285Y-118962678D01*
X106153095Y-119000773D01*
X106115000Y-119038869D01*
X106076904Y-119115059D01*
X106076904Y-119267440D01*
X106115000Y-119343630D01*
X106153095Y-119381726D01*
X106229285Y-119419821D01*
X106267380Y-119419821D01*
X106343571Y-119381726D01*
X106381666Y-119343630D01*
X106419761Y-119267440D01*
X106419761Y-119115059D01*
X106457857Y-119038869D01*
X106495952Y-119000773D01*
X106572142Y-118962678D01*
X106724523Y-118962678D01*
X106800714Y-119000773D01*
X106838809Y-119038869D01*
X106876904Y-119115059D01*
X106876904Y-119267440D01*
X106838809Y-119343630D01*
X106800714Y-119381726D01*
X106724523Y-119419821D01*
X106572142Y-119419821D01*
X106495952Y-119381726D01*
X106457857Y-119343630D01*
X106419761Y-119267440D01*
%TO.C,C4*%
X52671904Y-77641904D02*
X52671904Y-77184761D01*
X52671904Y-77413333D02*
X51871904Y-77413333D01*
X51986190Y-77337142D01*
X52062380Y-77260952D01*
X52100476Y-77184761D01*
X51871904Y-78137142D02*
X51871904Y-78213333D01*
X51910000Y-78289523D01*
X51948095Y-78327619D01*
X52024285Y-78365714D01*
X52176666Y-78403809D01*
X52367142Y-78403809D01*
X52519523Y-78365714D01*
X52595714Y-78327619D01*
X52633809Y-78289523D01*
X52671904Y-78213333D01*
X52671904Y-78137142D01*
X52633809Y-78060952D01*
X52595714Y-78022857D01*
X52519523Y-77984761D01*
X52367142Y-77946666D01*
X52176666Y-77946666D01*
X52024285Y-77984761D01*
X51948095Y-78022857D01*
X51910000Y-78060952D01*
X51871904Y-78137142D01*
X51871904Y-78899047D02*
X51871904Y-78975238D01*
X51910000Y-79051428D01*
X51948095Y-79089523D01*
X52024285Y-79127619D01*
X52176666Y-79165714D01*
X52367142Y-79165714D01*
X52519523Y-79127619D01*
X52595714Y-79089523D01*
X52633809Y-79051428D01*
X52671904Y-78975238D01*
X52671904Y-78899047D01*
X52633809Y-78822857D01*
X52595714Y-78784761D01*
X52519523Y-78746666D01*
X52367142Y-78708571D01*
X52176666Y-78708571D01*
X52024285Y-78746666D01*
X51948095Y-78784761D01*
X51910000Y-78822857D01*
X51871904Y-78899047D01*
X52138571Y-79508571D02*
X52671904Y-79508571D01*
X52214761Y-79508571D02*
X52176666Y-79546666D01*
X52138571Y-79622857D01*
X52138571Y-79737142D01*
X52176666Y-79813333D01*
X52252857Y-79851428D01*
X52671904Y-79851428D01*
X52252857Y-80499047D02*
X52252857Y-80232380D01*
X52671904Y-80232380D02*
X51871904Y-80232380D01*
X51871904Y-80613333D01*
X50915714Y-78746666D02*
X50953809Y-78708571D01*
X50991904Y-78594285D01*
X50991904Y-78518095D01*
X50953809Y-78403809D01*
X50877619Y-78327619D01*
X50801428Y-78289523D01*
X50649047Y-78251428D01*
X50534761Y-78251428D01*
X50382380Y-78289523D01*
X50306190Y-78327619D01*
X50230000Y-78403809D01*
X50191904Y-78518095D01*
X50191904Y-78594285D01*
X50230000Y-78708571D01*
X50268095Y-78746666D01*
X50458571Y-79432380D02*
X50991904Y-79432380D01*
X50153809Y-79241904D02*
X50725238Y-79051428D01*
X50725238Y-79546666D01*
%TO.C,TP30*%
X35023095Y-128405714D02*
X35061190Y-128443809D01*
X35175476Y-128481904D01*
X35251666Y-128481904D01*
X35365952Y-128443809D01*
X35442142Y-128367619D01*
X35480238Y-128291428D01*
X35518333Y-128139047D01*
X35518333Y-128024761D01*
X35480238Y-127872380D01*
X35442142Y-127796190D01*
X35365952Y-127720000D01*
X35251666Y-127681904D01*
X35175476Y-127681904D01*
X35061190Y-127720000D01*
X35023095Y-127758095D01*
X34718333Y-128253333D02*
X34337380Y-128253333D01*
X34794523Y-128481904D02*
X34527857Y-127681904D01*
X34261190Y-128481904D01*
X33994523Y-128481904D02*
X33994523Y-127681904D01*
X33537380Y-128481904D01*
X33537380Y-127681904D01*
X33346904Y-128558095D02*
X32737380Y-128558095D01*
X32546904Y-128481904D02*
X32546904Y-127681904D01*
X32546904Y-128062857D02*
X32089761Y-128062857D01*
X32089761Y-128481904D02*
X32089761Y-127681904D01*
X35175476Y-130681904D02*
X34718333Y-130681904D01*
X34946904Y-131481904D02*
X34946904Y-130681904D01*
X34451666Y-131481904D02*
X34451666Y-130681904D01*
X34146904Y-130681904D01*
X34070714Y-130720000D01*
X34032619Y-130758095D01*
X33994523Y-130834285D01*
X33994523Y-130948571D01*
X34032619Y-131024761D01*
X34070714Y-131062857D01*
X34146904Y-131100952D01*
X34451666Y-131100952D01*
X33727857Y-130681904D02*
X33232619Y-130681904D01*
X33499285Y-130986666D01*
X33385000Y-130986666D01*
X33308809Y-131024761D01*
X33270714Y-131062857D01*
X33232619Y-131139047D01*
X33232619Y-131329523D01*
X33270714Y-131405714D01*
X33308809Y-131443809D01*
X33385000Y-131481904D01*
X33613571Y-131481904D01*
X33689761Y-131443809D01*
X33727857Y-131405714D01*
X32737380Y-130681904D02*
X32661190Y-130681904D01*
X32585000Y-130720000D01*
X32546904Y-130758095D01*
X32508809Y-130834285D01*
X32470714Y-130986666D01*
X32470714Y-131177142D01*
X32508809Y-131329523D01*
X32546904Y-131405714D01*
X32585000Y-131443809D01*
X32661190Y-131481904D01*
X32737380Y-131481904D01*
X32813571Y-131443809D01*
X32851666Y-131405714D01*
X32889761Y-131329523D01*
X32927857Y-131177142D01*
X32927857Y-130986666D01*
X32889761Y-130834285D01*
X32851666Y-130758095D01*
X32813571Y-130720000D01*
X32737380Y-130681904D01*
%TO.C,TP8*%
X58928333Y-75410476D02*
X58928333Y-75791428D01*
X59156904Y-75334285D02*
X58356904Y-75600952D01*
X59156904Y-75867619D01*
X58395000Y-76553333D02*
X58356904Y-76477142D01*
X58356904Y-76362857D01*
X58395000Y-76248571D01*
X58471190Y-76172380D01*
X58547380Y-76134285D01*
X58699761Y-76096190D01*
X58814047Y-76096190D01*
X58966428Y-76134285D01*
X59042619Y-76172380D01*
X59118809Y-76248571D01*
X59156904Y-76362857D01*
X59156904Y-76439047D01*
X59118809Y-76553333D01*
X59080714Y-76591428D01*
X58814047Y-76591428D01*
X58814047Y-76439047D01*
X59156904Y-76934285D02*
X58356904Y-76934285D01*
X59156904Y-77391428D01*
X58356904Y-77391428D01*
X59156904Y-77772380D02*
X58356904Y-77772380D01*
X58356904Y-77962857D01*
X58395000Y-78077142D01*
X58471190Y-78153333D01*
X58547380Y-78191428D01*
X58699761Y-78229523D01*
X58814047Y-78229523D01*
X58966428Y-78191428D01*
X59042619Y-78153333D01*
X59118809Y-78077142D01*
X59156904Y-77962857D01*
X59156904Y-77772380D01*
X55356904Y-75810476D02*
X55356904Y-76267619D01*
X56156904Y-76039047D02*
X55356904Y-76039047D01*
X56156904Y-76534285D02*
X55356904Y-76534285D01*
X55356904Y-76839047D01*
X55395000Y-76915238D01*
X55433095Y-76953333D01*
X55509285Y-76991428D01*
X55623571Y-76991428D01*
X55699761Y-76953333D01*
X55737857Y-76915238D01*
X55775952Y-76839047D01*
X55775952Y-76534285D01*
X55699761Y-77448571D02*
X55661666Y-77372380D01*
X55623571Y-77334285D01*
X55547380Y-77296190D01*
X55509285Y-77296190D01*
X55433095Y-77334285D01*
X55395000Y-77372380D01*
X55356904Y-77448571D01*
X55356904Y-77600952D01*
X55395000Y-77677142D01*
X55433095Y-77715238D01*
X55509285Y-77753333D01*
X55547380Y-77753333D01*
X55623571Y-77715238D01*
X55661666Y-77677142D01*
X55699761Y-77600952D01*
X55699761Y-77448571D01*
X55737857Y-77372380D01*
X55775952Y-77334285D01*
X55852142Y-77296190D01*
X56004523Y-77296190D01*
X56080714Y-77334285D01*
X56118809Y-77372380D01*
X56156904Y-77448571D01*
X56156904Y-77600952D01*
X56118809Y-77677142D01*
X56080714Y-77715238D01*
X56004523Y-77753333D01*
X55852142Y-77753333D01*
X55775952Y-77715238D01*
X55737857Y-77677142D01*
X55699761Y-77600952D01*
%TO.C,C12*%
X104073095Y-124125654D02*
X104530238Y-124125654D01*
X104301666Y-124125654D02*
X104301666Y-123325654D01*
X104377857Y-123439940D01*
X104454047Y-123516130D01*
X104530238Y-123554226D01*
X103577857Y-123325654D02*
X103501666Y-123325654D01*
X103425476Y-123363750D01*
X103387380Y-123401845D01*
X103349285Y-123478035D01*
X103311190Y-123630416D01*
X103311190Y-123820892D01*
X103349285Y-123973273D01*
X103387380Y-124049464D01*
X103425476Y-124087559D01*
X103501666Y-124125654D01*
X103577857Y-124125654D01*
X103654047Y-124087559D01*
X103692142Y-124049464D01*
X103730238Y-123973273D01*
X103768333Y-123820892D01*
X103768333Y-123630416D01*
X103730238Y-123478035D01*
X103692142Y-123401845D01*
X103654047Y-123363750D01*
X103577857Y-123325654D01*
X102815952Y-123325654D02*
X102739761Y-123325654D01*
X102663571Y-123363750D01*
X102625476Y-123401845D01*
X102587380Y-123478035D01*
X102549285Y-123630416D01*
X102549285Y-123820892D01*
X102587380Y-123973273D01*
X102625476Y-124049464D01*
X102663571Y-124087559D01*
X102739761Y-124125654D01*
X102815952Y-124125654D01*
X102892142Y-124087559D01*
X102930238Y-124049464D01*
X102968333Y-123973273D01*
X103006428Y-123820892D01*
X103006428Y-123630416D01*
X102968333Y-123478035D01*
X102930238Y-123401845D01*
X102892142Y-123363750D01*
X102815952Y-123325654D01*
X102206428Y-123592321D02*
X102206428Y-124125654D01*
X102206428Y-123668511D02*
X102168333Y-123630416D01*
X102092142Y-123592321D01*
X101977857Y-123592321D01*
X101901666Y-123630416D01*
X101863571Y-123706607D01*
X101863571Y-124125654D01*
X101215952Y-123706607D02*
X101482619Y-123706607D01*
X101482619Y-124125654D02*
X101482619Y-123325654D01*
X101101666Y-123325654D01*
X103349285Y-122369464D02*
X103387380Y-122407559D01*
X103501666Y-122445654D01*
X103577857Y-122445654D01*
X103692142Y-122407559D01*
X103768333Y-122331369D01*
X103806428Y-122255178D01*
X103844523Y-122102797D01*
X103844523Y-121988511D01*
X103806428Y-121836130D01*
X103768333Y-121759940D01*
X103692142Y-121683750D01*
X103577857Y-121645654D01*
X103501666Y-121645654D01*
X103387380Y-121683750D01*
X103349285Y-121721845D01*
X102587380Y-122445654D02*
X103044523Y-122445654D01*
X102815952Y-122445654D02*
X102815952Y-121645654D01*
X102892142Y-121759940D01*
X102968333Y-121836130D01*
X103044523Y-121874226D01*
X102282619Y-121721845D02*
X102244523Y-121683750D01*
X102168333Y-121645654D01*
X101977857Y-121645654D01*
X101901666Y-121683750D01*
X101863571Y-121721845D01*
X101825476Y-121798035D01*
X101825476Y-121874226D01*
X101863571Y-121988511D01*
X102320714Y-122445654D01*
X101825476Y-122445654D01*
%TO.C,TP29*%
X44052619Y-128405714D02*
X44090714Y-128443809D01*
X44205000Y-128481904D01*
X44281190Y-128481904D01*
X44395476Y-128443809D01*
X44471666Y-128367619D01*
X44509761Y-128291428D01*
X44547857Y-128139047D01*
X44547857Y-128024761D01*
X44509761Y-127872380D01*
X44471666Y-127796190D01*
X44395476Y-127720000D01*
X44281190Y-127681904D01*
X44205000Y-127681904D01*
X44090714Y-127720000D01*
X44052619Y-127758095D01*
X43747857Y-128253333D02*
X43366904Y-128253333D01*
X43824047Y-128481904D02*
X43557380Y-127681904D01*
X43290714Y-128481904D01*
X43024047Y-128481904D02*
X43024047Y-127681904D01*
X42566904Y-128481904D01*
X42566904Y-127681904D01*
X42376428Y-128558095D02*
X41766904Y-128558095D01*
X41576428Y-128481904D02*
X41576428Y-127681904D01*
X41233571Y-128443809D02*
X41119285Y-128481904D01*
X40928809Y-128481904D01*
X40852619Y-128443809D01*
X40814523Y-128405714D01*
X40776428Y-128329523D01*
X40776428Y-128253333D01*
X40814523Y-128177142D01*
X40852619Y-128139047D01*
X40928809Y-128100952D01*
X41081190Y-128062857D01*
X41157380Y-128024761D01*
X41195476Y-127986666D01*
X41233571Y-127910476D01*
X41233571Y-127834285D01*
X41195476Y-127758095D01*
X41157380Y-127720000D01*
X41081190Y-127681904D01*
X40890714Y-127681904D01*
X40776428Y-127720000D01*
X40281190Y-127681904D02*
X40128809Y-127681904D01*
X40052619Y-127720000D01*
X39976428Y-127796190D01*
X39938333Y-127948571D01*
X39938333Y-128215238D01*
X39976428Y-128367619D01*
X40052619Y-128443809D01*
X40128809Y-128481904D01*
X40281190Y-128481904D01*
X40357380Y-128443809D01*
X40433571Y-128367619D01*
X40471666Y-128215238D01*
X40471666Y-127948571D01*
X40433571Y-127796190D01*
X40357380Y-127720000D01*
X40281190Y-127681904D01*
X39785952Y-128558095D02*
X39176428Y-128558095D01*
X38566904Y-127720000D02*
X38643095Y-127681904D01*
X38757380Y-127681904D01*
X38871666Y-127720000D01*
X38947857Y-127796190D01*
X38985952Y-127872380D01*
X39024047Y-128024761D01*
X39024047Y-128139047D01*
X38985952Y-128291428D01*
X38947857Y-128367619D01*
X38871666Y-128443809D01*
X38757380Y-128481904D01*
X38681190Y-128481904D01*
X38566904Y-128443809D01*
X38528809Y-128405714D01*
X38528809Y-128139047D01*
X38681190Y-128139047D01*
X38185952Y-127948571D02*
X38185952Y-128481904D01*
X38185952Y-128024761D02*
X38147857Y-127986666D01*
X38071666Y-127948571D01*
X37957380Y-127948571D01*
X37881190Y-127986666D01*
X37843095Y-128062857D01*
X37843095Y-128481904D01*
X37119285Y-128481904D02*
X37119285Y-127681904D01*
X37119285Y-128443809D02*
X37195476Y-128481904D01*
X37347857Y-128481904D01*
X37424047Y-128443809D01*
X37462142Y-128405714D01*
X37500238Y-128329523D01*
X37500238Y-128100952D01*
X37462142Y-128024761D01*
X37424047Y-127986666D01*
X37347857Y-127948571D01*
X37195476Y-127948571D01*
X37119285Y-127986666D01*
X36585952Y-127681904D02*
X36433571Y-127681904D01*
X36357380Y-127720000D01*
X36281190Y-127796190D01*
X36243095Y-127948571D01*
X36243095Y-128215238D01*
X36281190Y-128367619D01*
X36357380Y-128443809D01*
X36433571Y-128481904D01*
X36585952Y-128481904D01*
X36662142Y-128443809D01*
X36738333Y-128367619D01*
X36776428Y-128215238D01*
X36776428Y-127948571D01*
X36738333Y-127796190D01*
X36662142Y-127720000D01*
X36585952Y-127681904D01*
X35557380Y-127948571D02*
X35557380Y-128481904D01*
X35900238Y-127948571D02*
X35900238Y-128367619D01*
X35862142Y-128443809D01*
X35785952Y-128481904D01*
X35671666Y-128481904D01*
X35595476Y-128443809D01*
X35557380Y-128405714D01*
X35290714Y-127948571D02*
X34985952Y-127948571D01*
X35176428Y-127681904D02*
X35176428Y-128367619D01*
X35138333Y-128443809D01*
X35062142Y-128481904D01*
X34985952Y-128481904D01*
X41195476Y-130681904D02*
X40738333Y-130681904D01*
X40966904Y-131481904D02*
X40966904Y-130681904D01*
X40471666Y-131481904D02*
X40471666Y-130681904D01*
X40166904Y-130681904D01*
X40090714Y-130720000D01*
X40052619Y-130758095D01*
X40014523Y-130834285D01*
X40014523Y-130948571D01*
X40052619Y-131024761D01*
X40090714Y-131062857D01*
X40166904Y-131100952D01*
X40471666Y-131100952D01*
X39709761Y-130758095D02*
X39671666Y-130720000D01*
X39595476Y-130681904D01*
X39405000Y-130681904D01*
X39328809Y-130720000D01*
X39290714Y-130758095D01*
X39252619Y-130834285D01*
X39252619Y-130910476D01*
X39290714Y-131024761D01*
X39747857Y-131481904D01*
X39252619Y-131481904D01*
X38871666Y-131481904D02*
X38719285Y-131481904D01*
X38643095Y-131443809D01*
X38605000Y-131405714D01*
X38528809Y-131291428D01*
X38490714Y-131139047D01*
X38490714Y-130834285D01*
X38528809Y-130758095D01*
X38566904Y-130720000D01*
X38643095Y-130681904D01*
X38795476Y-130681904D01*
X38871666Y-130720000D01*
X38909761Y-130758095D01*
X38947857Y-130834285D01*
X38947857Y-131024761D01*
X38909761Y-131100952D01*
X38871666Y-131139047D01*
X38795476Y-131177142D01*
X38643095Y-131177142D01*
X38566904Y-131139047D01*
X38528809Y-131100952D01*
X38490714Y-131024761D01*
%TO.C,R13*%
X35951904Y-140727500D02*
X35951904Y-140575119D01*
X35990000Y-140498928D01*
X36028095Y-140460833D01*
X36142380Y-140384642D01*
X36294761Y-140346547D01*
X36599523Y-140346547D01*
X36675714Y-140384642D01*
X36713809Y-140422738D01*
X36751904Y-140498928D01*
X36751904Y-140651309D01*
X36713809Y-140727500D01*
X36675714Y-140765595D01*
X36599523Y-140803690D01*
X36409047Y-140803690D01*
X36332857Y-140765595D01*
X36294761Y-140727500D01*
X36256666Y-140651309D01*
X36256666Y-140498928D01*
X36294761Y-140422738D01*
X36332857Y-140384642D01*
X36409047Y-140346547D01*
X35951904Y-141298928D02*
X35951904Y-141375119D01*
X35990000Y-141451309D01*
X36028095Y-141489404D01*
X36104285Y-141527500D01*
X36256666Y-141565595D01*
X36447142Y-141565595D01*
X36599523Y-141527500D01*
X36675714Y-141489404D01*
X36713809Y-141451309D01*
X36751904Y-141375119D01*
X36751904Y-141298928D01*
X36713809Y-141222738D01*
X36675714Y-141184642D01*
X36599523Y-141146547D01*
X36447142Y-141108452D01*
X36256666Y-141108452D01*
X36104285Y-141146547D01*
X36028095Y-141184642D01*
X35990000Y-141222738D01*
X35951904Y-141298928D01*
X36675714Y-141908452D02*
X36713809Y-141946547D01*
X36751904Y-141908452D01*
X36713809Y-141870357D01*
X36675714Y-141908452D01*
X36751904Y-141908452D01*
X36218571Y-142632261D02*
X36751904Y-142632261D01*
X35913809Y-142441785D02*
X36485238Y-142251309D01*
X36485238Y-142746547D01*
X35101904Y-141013214D02*
X34720952Y-140746547D01*
X35101904Y-140556071D02*
X34301904Y-140556071D01*
X34301904Y-140860833D01*
X34340000Y-140937023D01*
X34378095Y-140975119D01*
X34454285Y-141013214D01*
X34568571Y-141013214D01*
X34644761Y-140975119D01*
X34682857Y-140937023D01*
X34720952Y-140860833D01*
X34720952Y-140556071D01*
X35101904Y-141775119D02*
X35101904Y-141317976D01*
X35101904Y-141546547D02*
X34301904Y-141546547D01*
X34416190Y-141470357D01*
X34492380Y-141394166D01*
X34530476Y-141317976D01*
X34301904Y-142041785D02*
X34301904Y-142537023D01*
X34606666Y-142270357D01*
X34606666Y-142384642D01*
X34644761Y-142460833D01*
X34682857Y-142498928D01*
X34759047Y-142537023D01*
X34949523Y-142537023D01*
X35025714Y-142498928D01*
X35063809Y-142460833D01*
X35101904Y-142384642D01*
X35101904Y-142156071D01*
X35063809Y-142079880D01*
X35025714Y-142041785D01*
%TO.C,C8*%
X54924761Y-125753095D02*
X54886666Y-125715000D01*
X54810476Y-125676904D01*
X54620000Y-125676904D01*
X54543809Y-125715000D01*
X54505714Y-125753095D01*
X54467619Y-125829285D01*
X54467619Y-125905476D01*
X54505714Y-126019761D01*
X54962857Y-126476904D01*
X54467619Y-126476904D01*
X54124761Y-126400714D02*
X54086666Y-126438809D01*
X54124761Y-126476904D01*
X54162857Y-126438809D01*
X54124761Y-126400714D01*
X54124761Y-126476904D01*
X53781904Y-125753095D02*
X53743809Y-125715000D01*
X53667619Y-125676904D01*
X53477142Y-125676904D01*
X53400952Y-125715000D01*
X53362857Y-125753095D01*
X53324761Y-125829285D01*
X53324761Y-125905476D01*
X53362857Y-126019761D01*
X53820000Y-126476904D01*
X53324761Y-126476904D01*
X52639047Y-125943571D02*
X52639047Y-126476904D01*
X52981904Y-125943571D02*
X52981904Y-126362619D01*
X52943809Y-126438809D01*
X52867619Y-126476904D01*
X52753333Y-126476904D01*
X52677142Y-126438809D01*
X52639047Y-126400714D01*
X51991428Y-126057857D02*
X52258095Y-126057857D01*
X52258095Y-126476904D02*
X52258095Y-125676904D01*
X51877142Y-125676904D01*
X53553333Y-124720714D02*
X53591428Y-124758809D01*
X53705714Y-124796904D01*
X53781904Y-124796904D01*
X53896190Y-124758809D01*
X53972380Y-124682619D01*
X54010476Y-124606428D01*
X54048571Y-124454047D01*
X54048571Y-124339761D01*
X54010476Y-124187380D01*
X53972380Y-124111190D01*
X53896190Y-124035000D01*
X53781904Y-123996904D01*
X53705714Y-123996904D01*
X53591428Y-124035000D01*
X53553333Y-124073095D01*
X53096190Y-124339761D02*
X53172380Y-124301666D01*
X53210476Y-124263571D01*
X53248571Y-124187380D01*
X53248571Y-124149285D01*
X53210476Y-124073095D01*
X53172380Y-124035000D01*
X53096190Y-123996904D01*
X52943809Y-123996904D01*
X52867619Y-124035000D01*
X52829523Y-124073095D01*
X52791428Y-124149285D01*
X52791428Y-124187380D01*
X52829523Y-124263571D01*
X52867619Y-124301666D01*
X52943809Y-124339761D01*
X53096190Y-124339761D01*
X53172380Y-124377857D01*
X53210476Y-124415952D01*
X53248571Y-124492142D01*
X53248571Y-124644523D01*
X53210476Y-124720714D01*
X53172380Y-124758809D01*
X53096190Y-124796904D01*
X52943809Y-124796904D01*
X52867619Y-124758809D01*
X52829523Y-124720714D01*
X52791428Y-124644523D01*
X52791428Y-124492142D01*
X52829523Y-124415952D01*
X52867619Y-124377857D01*
X52943809Y-124339761D01*
%TO.C,R17*%
X27003571Y-96721904D02*
X26508333Y-96721904D01*
X26775000Y-97026666D01*
X26660714Y-97026666D01*
X26584523Y-97064761D01*
X26546428Y-97102857D01*
X26508333Y-97179047D01*
X26508333Y-97369523D01*
X26546428Y-97445714D01*
X26584523Y-97483809D01*
X26660714Y-97521904D01*
X26889285Y-97521904D01*
X26965476Y-97483809D01*
X27003571Y-97445714D01*
X26241666Y-96721904D02*
X25746428Y-96721904D01*
X26013095Y-97026666D01*
X25898809Y-97026666D01*
X25822619Y-97064761D01*
X25784523Y-97102857D01*
X25746428Y-97179047D01*
X25746428Y-97369523D01*
X25784523Y-97445714D01*
X25822619Y-97483809D01*
X25898809Y-97521904D01*
X26127380Y-97521904D01*
X26203571Y-97483809D01*
X26241666Y-97445714D01*
X25251190Y-96721904D02*
X25175000Y-96721904D01*
X25098809Y-96760000D01*
X25060714Y-96798095D01*
X25022619Y-96874285D01*
X24984523Y-97026666D01*
X24984523Y-97217142D01*
X25022619Y-97369523D01*
X25060714Y-97445714D01*
X25098809Y-97483809D01*
X25175000Y-97521904D01*
X25251190Y-97521904D01*
X25327380Y-97483809D01*
X25365476Y-97445714D01*
X25403571Y-97369523D01*
X25441666Y-97217142D01*
X25441666Y-97026666D01*
X25403571Y-96874285D01*
X25365476Y-96798095D01*
X25327380Y-96760000D01*
X25251190Y-96721904D01*
X26489285Y-95871904D02*
X26755952Y-95490952D01*
X26946428Y-95871904D02*
X26946428Y-95071904D01*
X26641666Y-95071904D01*
X26565476Y-95110000D01*
X26527380Y-95148095D01*
X26489285Y-95224285D01*
X26489285Y-95338571D01*
X26527380Y-95414761D01*
X26565476Y-95452857D01*
X26641666Y-95490952D01*
X26946428Y-95490952D01*
X25727380Y-95871904D02*
X26184523Y-95871904D01*
X25955952Y-95871904D02*
X25955952Y-95071904D01*
X26032142Y-95186190D01*
X26108333Y-95262380D01*
X26184523Y-95300476D01*
X25460714Y-95071904D02*
X24927380Y-95071904D01*
X25270238Y-95871904D01*
%TO.C,TP4*%
X39279523Y-115752142D02*
X38670000Y-115752142D01*
X38974761Y-116056904D02*
X38974761Y-115447380D01*
X38365238Y-115256904D02*
X37870000Y-115256904D01*
X38136666Y-115561666D01*
X38022380Y-115561666D01*
X37946190Y-115599761D01*
X37908095Y-115637857D01*
X37870000Y-115714047D01*
X37870000Y-115904523D01*
X37908095Y-115980714D01*
X37946190Y-116018809D01*
X38022380Y-116056904D01*
X38250952Y-116056904D01*
X38327142Y-116018809D01*
X38365238Y-115980714D01*
X37641428Y-115256904D02*
X37374761Y-116056904D01*
X37108095Y-115256904D01*
X36917619Y-115256904D02*
X36422380Y-115256904D01*
X36689047Y-115561666D01*
X36574761Y-115561666D01*
X36498571Y-115599761D01*
X36460476Y-115637857D01*
X36422380Y-115714047D01*
X36422380Y-115904523D01*
X36460476Y-115980714D01*
X36498571Y-116018809D01*
X36574761Y-116056904D01*
X36803333Y-116056904D01*
X36879523Y-116018809D01*
X36917619Y-115980714D01*
X38879523Y-112256904D02*
X38422380Y-112256904D01*
X38650952Y-113056904D02*
X38650952Y-112256904D01*
X38155714Y-113056904D02*
X38155714Y-112256904D01*
X37850952Y-112256904D01*
X37774761Y-112295000D01*
X37736666Y-112333095D01*
X37698571Y-112409285D01*
X37698571Y-112523571D01*
X37736666Y-112599761D01*
X37774761Y-112637857D01*
X37850952Y-112675952D01*
X38155714Y-112675952D01*
X37012857Y-112523571D02*
X37012857Y-113056904D01*
X37203333Y-112218809D02*
X37393809Y-112790238D01*
X36898571Y-112790238D01*
%TO.C,R15*%
X137881904Y-146010309D02*
X137881904Y-145553166D01*
X137881904Y-145781738D02*
X137081904Y-145781738D01*
X137196190Y-145705547D01*
X137272380Y-145629357D01*
X137310476Y-145553166D01*
X137081904Y-146734119D02*
X137081904Y-146353166D01*
X137462857Y-146315071D01*
X137424761Y-146353166D01*
X137386666Y-146429357D01*
X137386666Y-146619833D01*
X137424761Y-146696023D01*
X137462857Y-146734119D01*
X137539047Y-146772214D01*
X137729523Y-146772214D01*
X137805714Y-146734119D01*
X137843809Y-146696023D01*
X137881904Y-146619833D01*
X137881904Y-146429357D01*
X137843809Y-146353166D01*
X137805714Y-146315071D01*
X137881904Y-147115071D02*
X137081904Y-147115071D01*
X137577142Y-147191261D02*
X137881904Y-147419833D01*
X137348571Y-147419833D02*
X137653333Y-147115071D01*
X136231904Y-145972214D02*
X135850952Y-145705547D01*
X136231904Y-145515071D02*
X135431904Y-145515071D01*
X135431904Y-145819833D01*
X135470000Y-145896023D01*
X135508095Y-145934119D01*
X135584285Y-145972214D01*
X135698571Y-145972214D01*
X135774761Y-145934119D01*
X135812857Y-145896023D01*
X135850952Y-145819833D01*
X135850952Y-145515071D01*
X136231904Y-146734119D02*
X136231904Y-146276976D01*
X136231904Y-146505547D02*
X135431904Y-146505547D01*
X135546190Y-146429357D01*
X135622380Y-146353166D01*
X135660476Y-146276976D01*
X135431904Y-147457928D02*
X135431904Y-147076976D01*
X135812857Y-147038880D01*
X135774761Y-147076976D01*
X135736666Y-147153166D01*
X135736666Y-147343642D01*
X135774761Y-147419833D01*
X135812857Y-147457928D01*
X135889047Y-147496023D01*
X136079523Y-147496023D01*
X136155714Y-147457928D01*
X136193809Y-147419833D01*
X136231904Y-147343642D01*
X136231904Y-147153166D01*
X136193809Y-147076976D01*
X136155714Y-147038880D01*
%TO.C,R1*%
X57128571Y-144986904D02*
X56633333Y-144986904D01*
X56900000Y-145291666D01*
X56785714Y-145291666D01*
X56709523Y-145329761D01*
X56671428Y-145367857D01*
X56633333Y-145444047D01*
X56633333Y-145634523D01*
X56671428Y-145710714D01*
X56709523Y-145748809D01*
X56785714Y-145786904D01*
X57014285Y-145786904D01*
X57090476Y-145748809D01*
X57128571Y-145710714D01*
X56366666Y-144986904D02*
X55871428Y-144986904D01*
X56138095Y-145291666D01*
X56023809Y-145291666D01*
X55947619Y-145329761D01*
X55909523Y-145367857D01*
X55871428Y-145444047D01*
X55871428Y-145634523D01*
X55909523Y-145710714D01*
X55947619Y-145748809D01*
X56023809Y-145786904D01*
X56252380Y-145786904D01*
X56328571Y-145748809D01*
X56366666Y-145710714D01*
X55376190Y-144986904D02*
X55300000Y-144986904D01*
X55223809Y-145025000D01*
X55185714Y-145063095D01*
X55147619Y-145139285D01*
X55109523Y-145291666D01*
X55109523Y-145482142D01*
X55147619Y-145634523D01*
X55185714Y-145710714D01*
X55223809Y-145748809D01*
X55300000Y-145786904D01*
X55376190Y-145786904D01*
X55452380Y-145748809D01*
X55490476Y-145710714D01*
X55528571Y-145634523D01*
X55566666Y-145482142D01*
X55566666Y-145291666D01*
X55528571Y-145139285D01*
X55490476Y-145063095D01*
X55452380Y-145025000D01*
X55376190Y-144986904D01*
X56233333Y-144136904D02*
X56500000Y-143755952D01*
X56690476Y-144136904D02*
X56690476Y-143336904D01*
X56385714Y-143336904D01*
X56309523Y-143375000D01*
X56271428Y-143413095D01*
X56233333Y-143489285D01*
X56233333Y-143603571D01*
X56271428Y-143679761D01*
X56309523Y-143717857D01*
X56385714Y-143755952D01*
X56690476Y-143755952D01*
X55471428Y-144136904D02*
X55928571Y-144136904D01*
X55700000Y-144136904D02*
X55700000Y-143336904D01*
X55776190Y-143451190D01*
X55852380Y-143527380D01*
X55928571Y-143565476D01*
%TO.C,TP21*%
X100753333Y-118627083D02*
X100372380Y-118627083D01*
X100829523Y-118855654D02*
X100562857Y-118055654D01*
X100296190Y-118855654D01*
X100029523Y-118855654D02*
X100029523Y-118322321D01*
X100029523Y-118474702D02*
X99991428Y-118398511D01*
X99953333Y-118360416D01*
X99877142Y-118322321D01*
X99800952Y-118322321D01*
X99534285Y-118855654D02*
X99534285Y-118322321D01*
X99534285Y-118474702D02*
X99496190Y-118398511D01*
X99458095Y-118360416D01*
X99381904Y-118322321D01*
X99305714Y-118322321D01*
X99229523Y-118931845D02*
X98620000Y-118931845D01*
X98543809Y-118055654D02*
X98277142Y-118855654D01*
X98010476Y-118055654D01*
X100810476Y-115055654D02*
X100353333Y-115055654D01*
X100581904Y-115855654D02*
X100581904Y-115055654D01*
X100086666Y-115855654D02*
X100086666Y-115055654D01*
X99781904Y-115055654D01*
X99705714Y-115093750D01*
X99667619Y-115131845D01*
X99629523Y-115208035D01*
X99629523Y-115322321D01*
X99667619Y-115398511D01*
X99705714Y-115436607D01*
X99781904Y-115474702D01*
X100086666Y-115474702D01*
X99324761Y-115131845D02*
X99286666Y-115093750D01*
X99210476Y-115055654D01*
X99020000Y-115055654D01*
X98943809Y-115093750D01*
X98905714Y-115131845D01*
X98867619Y-115208035D01*
X98867619Y-115284226D01*
X98905714Y-115398511D01*
X99362857Y-115855654D01*
X98867619Y-115855654D01*
X98105714Y-115855654D02*
X98562857Y-115855654D01*
X98334285Y-115855654D02*
X98334285Y-115055654D01*
X98410476Y-115169940D01*
X98486666Y-115246130D01*
X98562857Y-115284226D01*
%TO.C,TP2*%
X51235714Y-143005714D02*
X51273809Y-143043809D01*
X51388095Y-143081904D01*
X51464285Y-143081904D01*
X51578571Y-143043809D01*
X51654761Y-142967619D01*
X51692857Y-142891428D01*
X51730952Y-142739047D01*
X51730952Y-142624761D01*
X51692857Y-142472380D01*
X51654761Y-142396190D01*
X51578571Y-142320000D01*
X51464285Y-142281904D01*
X51388095Y-142281904D01*
X51273809Y-142320000D01*
X51235714Y-142358095D01*
X50550000Y-143081904D02*
X50550000Y-142662857D01*
X50588095Y-142586666D01*
X50664285Y-142548571D01*
X50816666Y-142548571D01*
X50892857Y-142586666D01*
X50550000Y-143043809D02*
X50626190Y-143081904D01*
X50816666Y-143081904D01*
X50892857Y-143043809D01*
X50930952Y-142967619D01*
X50930952Y-142891428D01*
X50892857Y-142815238D01*
X50816666Y-142777142D01*
X50626190Y-142777142D01*
X50550000Y-142739047D01*
X50169047Y-143081904D02*
X50169047Y-142548571D01*
X50169047Y-142700952D02*
X50130952Y-142624761D01*
X50092857Y-142586666D01*
X50016666Y-142548571D01*
X49940476Y-142548571D01*
X48645238Y-142320000D02*
X48721428Y-142281904D01*
X48835714Y-142281904D01*
X48950000Y-142320000D01*
X49026190Y-142396190D01*
X49064285Y-142472380D01*
X49102380Y-142624761D01*
X49102380Y-142739047D01*
X49064285Y-142891428D01*
X49026190Y-142967619D01*
X48950000Y-143043809D01*
X48835714Y-143081904D01*
X48759523Y-143081904D01*
X48645238Y-143043809D01*
X48607142Y-143005714D01*
X48607142Y-142739047D01*
X48759523Y-142739047D01*
X48264285Y-143081904D02*
X48264285Y-142281904D01*
X47807142Y-143081904D01*
X47807142Y-142281904D01*
X47426190Y-143081904D02*
X47426190Y-142281904D01*
X47235714Y-142281904D01*
X47121428Y-142320000D01*
X47045238Y-142396190D01*
X47007142Y-142472380D01*
X46969047Y-142624761D01*
X46969047Y-142739047D01*
X47007142Y-142891428D01*
X47045238Y-142967619D01*
X47121428Y-143043809D01*
X47235714Y-143081904D01*
X47426190Y-143081904D01*
X50359523Y-139281904D02*
X49902380Y-139281904D01*
X50130952Y-140081904D02*
X50130952Y-139281904D01*
X49635714Y-140081904D02*
X49635714Y-139281904D01*
X49330952Y-139281904D01*
X49254761Y-139320000D01*
X49216666Y-139358095D01*
X49178571Y-139434285D01*
X49178571Y-139548571D01*
X49216666Y-139624761D01*
X49254761Y-139662857D01*
X49330952Y-139700952D01*
X49635714Y-139700952D01*
X48873809Y-139358095D02*
X48835714Y-139320000D01*
X48759523Y-139281904D01*
X48569047Y-139281904D01*
X48492857Y-139320000D01*
X48454761Y-139358095D01*
X48416666Y-139434285D01*
X48416666Y-139510476D01*
X48454761Y-139624761D01*
X48911904Y-140081904D01*
X48416666Y-140081904D01*
%TO.C,C13*%
X67428095Y-123186904D02*
X67885238Y-123186904D01*
X67656666Y-123186904D02*
X67656666Y-122386904D01*
X67732857Y-122501190D01*
X67809047Y-122577380D01*
X67885238Y-122615476D01*
X66932857Y-122386904D02*
X66856666Y-122386904D01*
X66780476Y-122425000D01*
X66742380Y-122463095D01*
X66704285Y-122539285D01*
X66666190Y-122691666D01*
X66666190Y-122882142D01*
X66704285Y-123034523D01*
X66742380Y-123110714D01*
X66780476Y-123148809D01*
X66856666Y-123186904D01*
X66932857Y-123186904D01*
X67009047Y-123148809D01*
X67047142Y-123110714D01*
X67085238Y-123034523D01*
X67123333Y-122882142D01*
X67123333Y-122691666D01*
X67085238Y-122539285D01*
X67047142Y-122463095D01*
X67009047Y-122425000D01*
X66932857Y-122386904D01*
X66170952Y-122386904D02*
X66094761Y-122386904D01*
X66018571Y-122425000D01*
X65980476Y-122463095D01*
X65942380Y-122539285D01*
X65904285Y-122691666D01*
X65904285Y-122882142D01*
X65942380Y-123034523D01*
X65980476Y-123110714D01*
X66018571Y-123148809D01*
X66094761Y-123186904D01*
X66170952Y-123186904D01*
X66247142Y-123148809D01*
X66285238Y-123110714D01*
X66323333Y-123034523D01*
X66361428Y-122882142D01*
X66361428Y-122691666D01*
X66323333Y-122539285D01*
X66285238Y-122463095D01*
X66247142Y-122425000D01*
X66170952Y-122386904D01*
X65561428Y-122653571D02*
X65561428Y-123186904D01*
X65561428Y-122729761D02*
X65523333Y-122691666D01*
X65447142Y-122653571D01*
X65332857Y-122653571D01*
X65256666Y-122691666D01*
X65218571Y-122767857D01*
X65218571Y-123186904D01*
X64570952Y-122767857D02*
X64837619Y-122767857D01*
X64837619Y-123186904D02*
X64837619Y-122386904D01*
X64456666Y-122386904D01*
X66704285Y-121430714D02*
X66742380Y-121468809D01*
X66856666Y-121506904D01*
X66932857Y-121506904D01*
X67047142Y-121468809D01*
X67123333Y-121392619D01*
X67161428Y-121316428D01*
X67199523Y-121164047D01*
X67199523Y-121049761D01*
X67161428Y-120897380D01*
X67123333Y-120821190D01*
X67047142Y-120745000D01*
X66932857Y-120706904D01*
X66856666Y-120706904D01*
X66742380Y-120745000D01*
X66704285Y-120783095D01*
X65942380Y-121506904D02*
X66399523Y-121506904D01*
X66170952Y-121506904D02*
X66170952Y-120706904D01*
X66247142Y-120821190D01*
X66323333Y-120897380D01*
X66399523Y-120935476D01*
X65675714Y-120706904D02*
X65180476Y-120706904D01*
X65447142Y-121011666D01*
X65332857Y-121011666D01*
X65256666Y-121049761D01*
X65218571Y-121087857D01*
X65180476Y-121164047D01*
X65180476Y-121354523D01*
X65218571Y-121430714D01*
X65256666Y-121468809D01*
X65332857Y-121506904D01*
X65561428Y-121506904D01*
X65637619Y-121468809D01*
X65675714Y-121430714D01*
%TO.C,U7*%
X105606904Y-115193511D02*
X104806904Y-115193511D01*
X105378333Y-115460178D01*
X104806904Y-115726845D01*
X105606904Y-115726845D01*
X105378333Y-116069702D02*
X105378333Y-116450654D01*
X105606904Y-115993511D02*
X104806904Y-116260178D01*
X105606904Y-116526845D01*
X104806904Y-116717321D02*
X105606904Y-117250654D01*
X104806904Y-117250654D02*
X105606904Y-116717321D01*
X105073571Y-117898273D02*
X105606904Y-117898273D01*
X104768809Y-117707797D02*
X105340238Y-117517321D01*
X105340238Y-118012559D01*
X104806904Y-118469702D02*
X104806904Y-118545892D01*
X104845000Y-118622083D01*
X104883095Y-118660178D01*
X104959285Y-118698273D01*
X105111666Y-118736369D01*
X105302142Y-118736369D01*
X105454523Y-118698273D01*
X105530714Y-118660178D01*
X105568809Y-118622083D01*
X105606904Y-118545892D01*
X105606904Y-118469702D01*
X105568809Y-118393511D01*
X105530714Y-118355416D01*
X105454523Y-118317321D01*
X105302142Y-118279226D01*
X105111666Y-118279226D01*
X104959285Y-118317321D01*
X104883095Y-118355416D01*
X104845000Y-118393511D01*
X104806904Y-118469702D01*
X104806904Y-119231607D02*
X104806904Y-119307797D01*
X104845000Y-119383988D01*
X104883095Y-119422083D01*
X104959285Y-119460178D01*
X105111666Y-119498273D01*
X105302142Y-119498273D01*
X105454523Y-119460178D01*
X105530714Y-119422083D01*
X105568809Y-119383988D01*
X105606904Y-119307797D01*
X105606904Y-119231607D01*
X105568809Y-119155416D01*
X105530714Y-119117321D01*
X105454523Y-119079226D01*
X105302142Y-119041130D01*
X105111666Y-119041130D01*
X104959285Y-119079226D01*
X104883095Y-119117321D01*
X104845000Y-119155416D01*
X104806904Y-119231607D01*
X104806904Y-119764940D02*
X104806904Y-120298273D01*
X105606904Y-119955416D01*
X104806904Y-120983988D02*
X104806904Y-120603035D01*
X105187857Y-120564940D01*
X105149761Y-120603035D01*
X105111666Y-120679226D01*
X105111666Y-120869702D01*
X105149761Y-120945892D01*
X105187857Y-120983988D01*
X105264047Y-121022083D01*
X105454523Y-121022083D01*
X105530714Y-120983988D01*
X105568809Y-120945892D01*
X105606904Y-120869702D01*
X105606904Y-120679226D01*
X105568809Y-120603035D01*
X105530714Y-120564940D01*
X102406904Y-117479226D02*
X103054523Y-117479226D01*
X103130714Y-117517321D01*
X103168809Y-117555416D01*
X103206904Y-117631607D01*
X103206904Y-117783988D01*
X103168809Y-117860178D01*
X103130714Y-117898273D01*
X103054523Y-117936369D01*
X102406904Y-117936369D01*
X102406904Y-118241130D02*
X102406904Y-118774464D01*
X103206904Y-118431607D01*
%TO.C,C16*%
X38168095Y-115836904D02*
X38625238Y-115836904D01*
X38396666Y-115836904D02*
X38396666Y-115036904D01*
X38472857Y-115151190D01*
X38549047Y-115227380D01*
X38625238Y-115265476D01*
X37672857Y-115036904D02*
X37596666Y-115036904D01*
X37520476Y-115075000D01*
X37482380Y-115113095D01*
X37444285Y-115189285D01*
X37406190Y-115341666D01*
X37406190Y-115532142D01*
X37444285Y-115684523D01*
X37482380Y-115760714D01*
X37520476Y-115798809D01*
X37596666Y-115836904D01*
X37672857Y-115836904D01*
X37749047Y-115798809D01*
X37787142Y-115760714D01*
X37825238Y-115684523D01*
X37863333Y-115532142D01*
X37863333Y-115341666D01*
X37825238Y-115189285D01*
X37787142Y-115113095D01*
X37749047Y-115075000D01*
X37672857Y-115036904D01*
X36910952Y-115036904D02*
X36834761Y-115036904D01*
X36758571Y-115075000D01*
X36720476Y-115113095D01*
X36682380Y-115189285D01*
X36644285Y-115341666D01*
X36644285Y-115532142D01*
X36682380Y-115684523D01*
X36720476Y-115760714D01*
X36758571Y-115798809D01*
X36834761Y-115836904D01*
X36910952Y-115836904D01*
X36987142Y-115798809D01*
X37025238Y-115760714D01*
X37063333Y-115684523D01*
X37101428Y-115532142D01*
X37101428Y-115341666D01*
X37063333Y-115189285D01*
X37025238Y-115113095D01*
X36987142Y-115075000D01*
X36910952Y-115036904D01*
X36301428Y-115303571D02*
X36301428Y-115836904D01*
X36301428Y-115379761D02*
X36263333Y-115341666D01*
X36187142Y-115303571D01*
X36072857Y-115303571D01*
X35996666Y-115341666D01*
X35958571Y-115417857D01*
X35958571Y-115836904D01*
X35310952Y-115417857D02*
X35577619Y-115417857D01*
X35577619Y-115836904D02*
X35577619Y-115036904D01*
X35196666Y-115036904D01*
X37444285Y-117440714D02*
X37482380Y-117478809D01*
X37596666Y-117516904D01*
X37672857Y-117516904D01*
X37787142Y-117478809D01*
X37863333Y-117402619D01*
X37901428Y-117326428D01*
X37939523Y-117174047D01*
X37939523Y-117059761D01*
X37901428Y-116907380D01*
X37863333Y-116831190D01*
X37787142Y-116755000D01*
X37672857Y-116716904D01*
X37596666Y-116716904D01*
X37482380Y-116755000D01*
X37444285Y-116793095D01*
X36682380Y-117516904D02*
X37139523Y-117516904D01*
X36910952Y-117516904D02*
X36910952Y-116716904D01*
X36987142Y-116831190D01*
X37063333Y-116907380D01*
X37139523Y-116945476D01*
X35996666Y-116716904D02*
X36149047Y-116716904D01*
X36225238Y-116755000D01*
X36263333Y-116793095D01*
X36339523Y-116907380D01*
X36377619Y-117059761D01*
X36377619Y-117364523D01*
X36339523Y-117440714D01*
X36301428Y-117478809D01*
X36225238Y-117516904D01*
X36072857Y-117516904D01*
X35996666Y-117478809D01*
X35958571Y-117440714D01*
X35920476Y-117364523D01*
X35920476Y-117174047D01*
X35958571Y-117097857D01*
X35996666Y-117059761D01*
X36072857Y-117021666D01*
X36225238Y-117021666D01*
X36301428Y-117059761D01*
X36339523Y-117097857D01*
X36377619Y-117174047D01*
%TO.C,TP12*%
X117070476Y-43256904D02*
X117070476Y-42456904D01*
X116803809Y-43028333D01*
X116537142Y-42456904D01*
X116537142Y-43256904D01*
X116346666Y-43333095D02*
X115737142Y-43333095D01*
X115584761Y-43218809D02*
X115470476Y-43256904D01*
X115280000Y-43256904D01*
X115203809Y-43218809D01*
X115165714Y-43180714D01*
X115127619Y-43104523D01*
X115127619Y-43028333D01*
X115165714Y-42952142D01*
X115203809Y-42914047D01*
X115280000Y-42875952D01*
X115432380Y-42837857D01*
X115508571Y-42799761D01*
X115546666Y-42761666D01*
X115584761Y-42685476D01*
X115584761Y-42609285D01*
X115546666Y-42533095D01*
X115508571Y-42495000D01*
X115432380Y-42456904D01*
X115241904Y-42456904D01*
X115127619Y-42495000D01*
X114784761Y-43256904D02*
X114784761Y-42456904D01*
X114327619Y-43256904D01*
X114327619Y-42456904D01*
X113946666Y-42456904D02*
X113946666Y-43104523D01*
X113908571Y-43180714D01*
X113870476Y-43218809D01*
X113794285Y-43256904D01*
X113641904Y-43256904D01*
X113565714Y-43218809D01*
X113527619Y-43180714D01*
X113489523Y-43104523D01*
X113489523Y-42456904D01*
X112841904Y-42837857D02*
X112727619Y-42875952D01*
X112689523Y-42914047D01*
X112651428Y-42990238D01*
X112651428Y-43104523D01*
X112689523Y-43180714D01*
X112727619Y-43218809D01*
X112803809Y-43256904D01*
X113108571Y-43256904D01*
X113108571Y-42456904D01*
X112841904Y-42456904D01*
X112765714Y-42495000D01*
X112727619Y-42533095D01*
X112689523Y-42609285D01*
X112689523Y-42685476D01*
X112727619Y-42761666D01*
X112765714Y-42799761D01*
X112841904Y-42837857D01*
X113108571Y-42837857D01*
X116270476Y-39456904D02*
X115813333Y-39456904D01*
X116041904Y-40256904D02*
X116041904Y-39456904D01*
X115546666Y-40256904D02*
X115546666Y-39456904D01*
X115241904Y-39456904D01*
X115165714Y-39495000D01*
X115127619Y-39533095D01*
X115089523Y-39609285D01*
X115089523Y-39723571D01*
X115127619Y-39799761D01*
X115165714Y-39837857D01*
X115241904Y-39875952D01*
X115546666Y-39875952D01*
X114327619Y-40256904D02*
X114784761Y-40256904D01*
X114556190Y-40256904D02*
X114556190Y-39456904D01*
X114632380Y-39571190D01*
X114708571Y-39647380D01*
X114784761Y-39685476D01*
X114022857Y-39533095D02*
X113984761Y-39495000D01*
X113908571Y-39456904D01*
X113718095Y-39456904D01*
X113641904Y-39495000D01*
X113603809Y-39533095D01*
X113565714Y-39609285D01*
X113565714Y-39685476D01*
X113603809Y-39799761D01*
X114060952Y-40256904D01*
X113565714Y-40256904D01*
%TO.C,TP13*%
X123823809Y-42977142D02*
X123214285Y-42977142D01*
X122871428Y-43243809D02*
X122757142Y-43281904D01*
X122566666Y-43281904D01*
X122490476Y-43243809D01*
X122452380Y-43205714D01*
X122414285Y-43129523D01*
X122414285Y-43053333D01*
X122452380Y-42977142D01*
X122490476Y-42939047D01*
X122566666Y-42900952D01*
X122719047Y-42862857D01*
X122795238Y-42824761D01*
X122833333Y-42786666D01*
X122871428Y-42710476D01*
X122871428Y-42634285D01*
X122833333Y-42558095D01*
X122795238Y-42520000D01*
X122719047Y-42481904D01*
X122528571Y-42481904D01*
X122414285Y-42520000D01*
X122071428Y-43281904D02*
X122071428Y-42481904D01*
X121614285Y-43281904D01*
X121614285Y-42481904D01*
X121233333Y-42481904D02*
X121233333Y-43129523D01*
X121195238Y-43205714D01*
X121157142Y-43243809D01*
X121080952Y-43281904D01*
X120928571Y-43281904D01*
X120852380Y-43243809D01*
X120814285Y-43205714D01*
X120776190Y-43129523D01*
X120776190Y-42481904D01*
X120128571Y-42862857D02*
X120014285Y-42900952D01*
X119976190Y-42939047D01*
X119938095Y-43015238D01*
X119938095Y-43129523D01*
X119976190Y-43205714D01*
X120014285Y-43243809D01*
X120090476Y-43281904D01*
X120395238Y-43281904D01*
X120395238Y-42481904D01*
X120128571Y-42481904D01*
X120052380Y-42520000D01*
X120014285Y-42558095D01*
X119976190Y-42634285D01*
X119976190Y-42710476D01*
X120014285Y-42786666D01*
X120052380Y-42824761D01*
X120128571Y-42862857D01*
X120395238Y-42862857D01*
X123290476Y-39481904D02*
X122833333Y-39481904D01*
X123061904Y-40281904D02*
X123061904Y-39481904D01*
X122566666Y-40281904D02*
X122566666Y-39481904D01*
X122261904Y-39481904D01*
X122185714Y-39520000D01*
X122147619Y-39558095D01*
X122109523Y-39634285D01*
X122109523Y-39748571D01*
X122147619Y-39824761D01*
X122185714Y-39862857D01*
X122261904Y-39900952D01*
X122566666Y-39900952D01*
X121347619Y-40281904D02*
X121804761Y-40281904D01*
X121576190Y-40281904D02*
X121576190Y-39481904D01*
X121652380Y-39596190D01*
X121728571Y-39672380D01*
X121804761Y-39710476D01*
X121080952Y-39481904D02*
X120585714Y-39481904D01*
X120852380Y-39786666D01*
X120738095Y-39786666D01*
X120661904Y-39824761D01*
X120623809Y-39862857D01*
X120585714Y-39939047D01*
X120585714Y-40129523D01*
X120623809Y-40205714D01*
X120661904Y-40243809D01*
X120738095Y-40281904D01*
X120966666Y-40281904D01*
X121042857Y-40243809D01*
X121080952Y-40205714D01*
%TO.C,C1*%
X51169642Y-148806904D02*
X51626785Y-148806904D01*
X51398214Y-148806904D02*
X51398214Y-148006904D01*
X51474404Y-148121190D01*
X51550595Y-148197380D01*
X51626785Y-148235476D01*
X50674404Y-148006904D02*
X50598214Y-148006904D01*
X50522023Y-148045000D01*
X50483928Y-148083095D01*
X50445833Y-148159285D01*
X50407738Y-148311666D01*
X50407738Y-148502142D01*
X50445833Y-148654523D01*
X50483928Y-148730714D01*
X50522023Y-148768809D01*
X50598214Y-148806904D01*
X50674404Y-148806904D01*
X50750595Y-148768809D01*
X50788690Y-148730714D01*
X50826785Y-148654523D01*
X50864880Y-148502142D01*
X50864880Y-148311666D01*
X50826785Y-148159285D01*
X50788690Y-148083095D01*
X50750595Y-148045000D01*
X50674404Y-148006904D01*
X49722023Y-148273571D02*
X49722023Y-148806904D01*
X50064880Y-148273571D02*
X50064880Y-148692619D01*
X50026785Y-148768809D01*
X49950595Y-148806904D01*
X49836309Y-148806904D01*
X49760119Y-148768809D01*
X49722023Y-148730714D01*
X49074404Y-148387857D02*
X49341071Y-148387857D01*
X49341071Y-148806904D02*
X49341071Y-148006904D01*
X48960119Y-148006904D01*
X50445833Y-147050714D02*
X50483928Y-147088809D01*
X50598214Y-147126904D01*
X50674404Y-147126904D01*
X50788690Y-147088809D01*
X50864880Y-147012619D01*
X50902976Y-146936428D01*
X50941071Y-146784047D01*
X50941071Y-146669761D01*
X50902976Y-146517380D01*
X50864880Y-146441190D01*
X50788690Y-146365000D01*
X50674404Y-146326904D01*
X50598214Y-146326904D01*
X50483928Y-146365000D01*
X50445833Y-146403095D01*
X49683928Y-147126904D02*
X50141071Y-147126904D01*
X49912500Y-147126904D02*
X49912500Y-146326904D01*
X49988690Y-146441190D01*
X50064880Y-146517380D01*
X50141071Y-146555476D01*
%TO.C,TP9*%
X52536904Y-70456904D02*
X52536904Y-70609285D01*
X52498809Y-70685476D01*
X52460714Y-70723571D01*
X52346428Y-70799761D01*
X52194047Y-70837857D01*
X51889285Y-70837857D01*
X51813095Y-70799761D01*
X51775000Y-70761666D01*
X51736904Y-70685476D01*
X51736904Y-70533095D01*
X51775000Y-70456904D01*
X51813095Y-70418809D01*
X51889285Y-70380714D01*
X52079761Y-70380714D01*
X52155952Y-70418809D01*
X52194047Y-70456904D01*
X52232142Y-70533095D01*
X52232142Y-70685476D01*
X52194047Y-70761666D01*
X52155952Y-70799761D01*
X52079761Y-70837857D01*
X51736904Y-71066428D02*
X52536904Y-71333095D01*
X51736904Y-71599761D01*
X52308333Y-71828333D02*
X52308333Y-72209285D01*
X52536904Y-71752142D02*
X51736904Y-72018809D01*
X52536904Y-72285476D01*
X48736904Y-70285476D02*
X48736904Y-70742619D01*
X49536904Y-70514047D02*
X48736904Y-70514047D01*
X49536904Y-71009285D02*
X48736904Y-71009285D01*
X48736904Y-71314047D01*
X48775000Y-71390238D01*
X48813095Y-71428333D01*
X48889285Y-71466428D01*
X49003571Y-71466428D01*
X49079761Y-71428333D01*
X49117857Y-71390238D01*
X49155952Y-71314047D01*
X49155952Y-71009285D01*
X49536904Y-71847380D02*
X49536904Y-71999761D01*
X49498809Y-72075952D01*
X49460714Y-72114047D01*
X49346428Y-72190238D01*
X49194047Y-72228333D01*
X48889285Y-72228333D01*
X48813095Y-72190238D01*
X48775000Y-72152142D01*
X48736904Y-72075952D01*
X48736904Y-71923571D01*
X48775000Y-71847380D01*
X48813095Y-71809285D01*
X48889285Y-71771190D01*
X49079761Y-71771190D01*
X49155952Y-71809285D01*
X49194047Y-71847380D01*
X49232142Y-71923571D01*
X49232142Y-72075952D01*
X49194047Y-72152142D01*
X49155952Y-72190238D01*
X49079761Y-72228333D01*
%TO.C,TP11*%
X107053809Y-48927142D02*
X106444285Y-48927142D01*
X106749047Y-49231904D02*
X106749047Y-48622380D01*
X106101428Y-49193809D02*
X105987142Y-49231904D01*
X105796666Y-49231904D01*
X105720476Y-49193809D01*
X105682380Y-49155714D01*
X105644285Y-49079523D01*
X105644285Y-49003333D01*
X105682380Y-48927142D01*
X105720476Y-48889047D01*
X105796666Y-48850952D01*
X105949047Y-48812857D01*
X106025238Y-48774761D01*
X106063333Y-48736666D01*
X106101428Y-48660476D01*
X106101428Y-48584285D01*
X106063333Y-48508095D01*
X106025238Y-48470000D01*
X105949047Y-48431904D01*
X105758571Y-48431904D01*
X105644285Y-48470000D01*
X105301428Y-49231904D02*
X105301428Y-48431904D01*
X104844285Y-49231904D01*
X104844285Y-48431904D01*
X104463333Y-48431904D02*
X104463333Y-49079523D01*
X104425238Y-49155714D01*
X104387142Y-49193809D01*
X104310952Y-49231904D01*
X104158571Y-49231904D01*
X104082380Y-49193809D01*
X104044285Y-49155714D01*
X104006190Y-49079523D01*
X104006190Y-48431904D01*
X103358571Y-48812857D02*
X103244285Y-48850952D01*
X103206190Y-48889047D01*
X103168095Y-48965238D01*
X103168095Y-49079523D01*
X103206190Y-49155714D01*
X103244285Y-49193809D01*
X103320476Y-49231904D01*
X103625238Y-49231904D01*
X103625238Y-48431904D01*
X103358571Y-48431904D01*
X103282380Y-48470000D01*
X103244285Y-48508095D01*
X103206190Y-48584285D01*
X103206190Y-48660476D01*
X103244285Y-48736666D01*
X103282380Y-48774761D01*
X103358571Y-48812857D01*
X103625238Y-48812857D01*
X106520476Y-45431904D02*
X106063333Y-45431904D01*
X106291904Y-46231904D02*
X106291904Y-45431904D01*
X105796666Y-46231904D02*
X105796666Y-45431904D01*
X105491904Y-45431904D01*
X105415714Y-45470000D01*
X105377619Y-45508095D01*
X105339523Y-45584285D01*
X105339523Y-45698571D01*
X105377619Y-45774761D01*
X105415714Y-45812857D01*
X105491904Y-45850952D01*
X105796666Y-45850952D01*
X104577619Y-46231904D02*
X105034761Y-46231904D01*
X104806190Y-46231904D02*
X104806190Y-45431904D01*
X104882380Y-45546190D01*
X104958571Y-45622380D01*
X105034761Y-45660476D01*
X103815714Y-46231904D02*
X104272857Y-46231904D01*
X104044285Y-46231904D02*
X104044285Y-45431904D01*
X104120476Y-45546190D01*
X104196666Y-45622380D01*
X104272857Y-45660476D01*
%TO.C,TP6*%
X57877500Y-142617857D02*
X57763214Y-142655952D01*
X57725119Y-142694047D01*
X57687023Y-142770238D01*
X57687023Y-142884523D01*
X57725119Y-142960714D01*
X57763214Y-142998809D01*
X57839404Y-143036904D01*
X58144166Y-143036904D01*
X58144166Y-142236904D01*
X57877500Y-142236904D01*
X57801309Y-142275000D01*
X57763214Y-142313095D01*
X57725119Y-142389285D01*
X57725119Y-142465476D01*
X57763214Y-142541666D01*
X57801309Y-142579761D01*
X57877500Y-142617857D01*
X58144166Y-142617857D01*
X57229880Y-143036904D02*
X57306071Y-142998809D01*
X57344166Y-142960714D01*
X57382261Y-142884523D01*
X57382261Y-142655952D01*
X57344166Y-142579761D01*
X57306071Y-142541666D01*
X57229880Y-142503571D01*
X57115595Y-142503571D01*
X57039404Y-142541666D01*
X57001309Y-142579761D01*
X56963214Y-142655952D01*
X56963214Y-142884523D01*
X57001309Y-142960714D01*
X57039404Y-142998809D01*
X57115595Y-143036904D01*
X57229880Y-143036904D01*
X56277500Y-143036904D02*
X56277500Y-142617857D01*
X56315595Y-142541666D01*
X56391785Y-142503571D01*
X56544166Y-142503571D01*
X56620357Y-142541666D01*
X56277500Y-142998809D02*
X56353690Y-143036904D01*
X56544166Y-143036904D01*
X56620357Y-142998809D01*
X56658452Y-142922619D01*
X56658452Y-142846428D01*
X56620357Y-142770238D01*
X56544166Y-142732142D01*
X56353690Y-142732142D01*
X56277500Y-142694047D01*
X55896547Y-143036904D02*
X55896547Y-142503571D01*
X55896547Y-142655952D02*
X55858452Y-142579761D01*
X55820357Y-142541666D01*
X55744166Y-142503571D01*
X55667976Y-142503571D01*
X55058452Y-143036904D02*
X55058452Y-142236904D01*
X55058452Y-142998809D02*
X55134642Y-143036904D01*
X55287023Y-143036904D01*
X55363214Y-142998809D01*
X55401309Y-142960714D01*
X55439404Y-142884523D01*
X55439404Y-142655952D01*
X55401309Y-142579761D01*
X55363214Y-142541666D01*
X55287023Y-142503571D01*
X55134642Y-142503571D01*
X55058452Y-142541666D01*
X53648928Y-142275000D02*
X53725119Y-142236904D01*
X53839404Y-142236904D01*
X53953690Y-142275000D01*
X54029880Y-142351190D01*
X54067976Y-142427380D01*
X54106071Y-142579761D01*
X54106071Y-142694047D01*
X54067976Y-142846428D01*
X54029880Y-142922619D01*
X53953690Y-142998809D01*
X53839404Y-143036904D01*
X53763214Y-143036904D01*
X53648928Y-142998809D01*
X53610833Y-142960714D01*
X53610833Y-142694047D01*
X53763214Y-142694047D01*
X53267976Y-143036904D02*
X53267976Y-142236904D01*
X52810833Y-143036904D01*
X52810833Y-142236904D01*
X52429880Y-143036904D02*
X52429880Y-142236904D01*
X52239404Y-142236904D01*
X52125119Y-142275000D01*
X52048928Y-142351190D01*
X52010833Y-142427380D01*
X51972738Y-142579761D01*
X51972738Y-142694047D01*
X52010833Y-142846428D01*
X52048928Y-142922619D01*
X52125119Y-142998809D01*
X52239404Y-143036904D01*
X52429880Y-143036904D01*
X56087023Y-139236904D02*
X55629880Y-139236904D01*
X55858452Y-140036904D02*
X55858452Y-139236904D01*
X55363214Y-140036904D02*
X55363214Y-139236904D01*
X55058452Y-139236904D01*
X54982261Y-139275000D01*
X54944166Y-139313095D01*
X54906071Y-139389285D01*
X54906071Y-139503571D01*
X54944166Y-139579761D01*
X54982261Y-139617857D01*
X55058452Y-139655952D01*
X55363214Y-139655952D01*
X54220357Y-139236904D02*
X54372738Y-139236904D01*
X54448928Y-139275000D01*
X54487023Y-139313095D01*
X54563214Y-139427380D01*
X54601309Y-139579761D01*
X54601309Y-139884523D01*
X54563214Y-139960714D01*
X54525119Y-139998809D01*
X54448928Y-140036904D01*
X54296547Y-140036904D01*
X54220357Y-139998809D01*
X54182261Y-139960714D01*
X54144166Y-139884523D01*
X54144166Y-139694047D01*
X54182261Y-139617857D01*
X54220357Y-139579761D01*
X54296547Y-139541666D01*
X54448928Y-139541666D01*
X54525119Y-139579761D01*
X54563214Y-139617857D01*
X54601309Y-139694047D01*
%TO.C,C17*%
X37782142Y-122216904D02*
X38239285Y-122216904D01*
X38010714Y-122216904D02*
X38010714Y-121416904D01*
X38086904Y-121531190D01*
X38163095Y-121607380D01*
X38239285Y-121645476D01*
X37286904Y-121416904D02*
X37210714Y-121416904D01*
X37134523Y-121455000D01*
X37096428Y-121493095D01*
X37058333Y-121569285D01*
X37020238Y-121721666D01*
X37020238Y-121912142D01*
X37058333Y-122064523D01*
X37096428Y-122140714D01*
X37134523Y-122178809D01*
X37210714Y-122216904D01*
X37286904Y-122216904D01*
X37363095Y-122178809D01*
X37401190Y-122140714D01*
X37439285Y-122064523D01*
X37477380Y-121912142D01*
X37477380Y-121721666D01*
X37439285Y-121569285D01*
X37401190Y-121493095D01*
X37363095Y-121455000D01*
X37286904Y-121416904D01*
X36677380Y-121683571D02*
X36677380Y-122216904D01*
X36677380Y-121759761D02*
X36639285Y-121721666D01*
X36563095Y-121683571D01*
X36448809Y-121683571D01*
X36372619Y-121721666D01*
X36334523Y-121797857D01*
X36334523Y-122216904D01*
X35686904Y-121797857D02*
X35953571Y-121797857D01*
X35953571Y-122216904D02*
X35953571Y-121416904D01*
X35572619Y-121416904D01*
X37439285Y-120460714D02*
X37477380Y-120498809D01*
X37591666Y-120536904D01*
X37667857Y-120536904D01*
X37782142Y-120498809D01*
X37858333Y-120422619D01*
X37896428Y-120346428D01*
X37934523Y-120194047D01*
X37934523Y-120079761D01*
X37896428Y-119927380D01*
X37858333Y-119851190D01*
X37782142Y-119775000D01*
X37667857Y-119736904D01*
X37591666Y-119736904D01*
X37477380Y-119775000D01*
X37439285Y-119813095D01*
X36677380Y-120536904D02*
X37134523Y-120536904D01*
X36905952Y-120536904D02*
X36905952Y-119736904D01*
X36982142Y-119851190D01*
X37058333Y-119927380D01*
X37134523Y-119965476D01*
X36410714Y-119736904D02*
X35877380Y-119736904D01*
X36220238Y-120536904D01*
%TO.C,R21*%
X27003571Y-108351904D02*
X26508333Y-108351904D01*
X26775000Y-108656666D01*
X26660714Y-108656666D01*
X26584523Y-108694761D01*
X26546428Y-108732857D01*
X26508333Y-108809047D01*
X26508333Y-108999523D01*
X26546428Y-109075714D01*
X26584523Y-109113809D01*
X26660714Y-109151904D01*
X26889285Y-109151904D01*
X26965476Y-109113809D01*
X27003571Y-109075714D01*
X26241666Y-108351904D02*
X25746428Y-108351904D01*
X26013095Y-108656666D01*
X25898809Y-108656666D01*
X25822619Y-108694761D01*
X25784523Y-108732857D01*
X25746428Y-108809047D01*
X25746428Y-108999523D01*
X25784523Y-109075714D01*
X25822619Y-109113809D01*
X25898809Y-109151904D01*
X26127380Y-109151904D01*
X26203571Y-109113809D01*
X26241666Y-109075714D01*
X25251190Y-108351904D02*
X25175000Y-108351904D01*
X25098809Y-108390000D01*
X25060714Y-108428095D01*
X25022619Y-108504285D01*
X24984523Y-108656666D01*
X24984523Y-108847142D01*
X25022619Y-108999523D01*
X25060714Y-109075714D01*
X25098809Y-109113809D01*
X25175000Y-109151904D01*
X25251190Y-109151904D01*
X25327380Y-109113809D01*
X25365476Y-109075714D01*
X25403571Y-108999523D01*
X25441666Y-108847142D01*
X25441666Y-108656666D01*
X25403571Y-108504285D01*
X25365476Y-108428095D01*
X25327380Y-108390000D01*
X25251190Y-108351904D01*
X26489285Y-107501904D02*
X26755952Y-107120952D01*
X26946428Y-107501904D02*
X26946428Y-106701904D01*
X26641666Y-106701904D01*
X26565476Y-106740000D01*
X26527380Y-106778095D01*
X26489285Y-106854285D01*
X26489285Y-106968571D01*
X26527380Y-107044761D01*
X26565476Y-107082857D01*
X26641666Y-107120952D01*
X26946428Y-107120952D01*
X26184523Y-106778095D02*
X26146428Y-106740000D01*
X26070238Y-106701904D01*
X25879761Y-106701904D01*
X25803571Y-106740000D01*
X25765476Y-106778095D01*
X25727380Y-106854285D01*
X25727380Y-106930476D01*
X25765476Y-107044761D01*
X26222619Y-107501904D01*
X25727380Y-107501904D01*
X24965476Y-107501904D02*
X25422619Y-107501904D01*
X25194047Y-107501904D02*
X25194047Y-106701904D01*
X25270238Y-106816190D01*
X25346428Y-106892380D01*
X25422619Y-106930476D01*
%TO.C,TP15*%
X120222619Y-135118142D02*
X119613095Y-135118142D01*
X119270238Y-135194333D02*
X118889285Y-135194333D01*
X119346428Y-135422904D02*
X119079761Y-134622904D01*
X118813095Y-135422904D01*
X118089285Y-135422904D02*
X118355952Y-135041952D01*
X118546428Y-135422904D02*
X118546428Y-134622904D01*
X118241666Y-134622904D01*
X118165476Y-134661000D01*
X118127380Y-134699095D01*
X118089285Y-134775285D01*
X118089285Y-134889571D01*
X118127380Y-134965761D01*
X118165476Y-135003857D01*
X118241666Y-135041952D01*
X118546428Y-135041952D01*
X117289285Y-135422904D02*
X117555952Y-135041952D01*
X117746428Y-135422904D02*
X117746428Y-134622904D01*
X117441666Y-134622904D01*
X117365476Y-134661000D01*
X117327380Y-134699095D01*
X117289285Y-134775285D01*
X117289285Y-134889571D01*
X117327380Y-134965761D01*
X117365476Y-135003857D01*
X117441666Y-135041952D01*
X117746428Y-135041952D01*
X120165476Y-131622904D02*
X119708333Y-131622904D01*
X119936904Y-132422904D02*
X119936904Y-131622904D01*
X119441666Y-132422904D02*
X119441666Y-131622904D01*
X119136904Y-131622904D01*
X119060714Y-131661000D01*
X119022619Y-131699095D01*
X118984523Y-131775285D01*
X118984523Y-131889571D01*
X119022619Y-131965761D01*
X119060714Y-132003857D01*
X119136904Y-132041952D01*
X119441666Y-132041952D01*
X118222619Y-132422904D02*
X118679761Y-132422904D01*
X118451190Y-132422904D02*
X118451190Y-131622904D01*
X118527380Y-131737190D01*
X118603571Y-131813380D01*
X118679761Y-131851476D01*
X117498809Y-131622904D02*
X117879761Y-131622904D01*
X117917857Y-132003857D01*
X117879761Y-131965761D01*
X117803571Y-131927666D01*
X117613095Y-131927666D01*
X117536904Y-131965761D01*
X117498809Y-132003857D01*
X117460714Y-132080047D01*
X117460714Y-132270523D01*
X117498809Y-132346714D01*
X117536904Y-132384809D01*
X117613095Y-132422904D01*
X117803571Y-132422904D01*
X117879761Y-132384809D01*
X117917857Y-132346714D01*
%TO.C,C21*%
X37157142Y-137466904D02*
X37614285Y-137466904D01*
X37385714Y-137466904D02*
X37385714Y-136666904D01*
X37461904Y-136781190D01*
X37538095Y-136857380D01*
X37614285Y-136895476D01*
X36661904Y-136666904D02*
X36585714Y-136666904D01*
X36509523Y-136705000D01*
X36471428Y-136743095D01*
X36433333Y-136819285D01*
X36395238Y-136971666D01*
X36395238Y-137162142D01*
X36433333Y-137314523D01*
X36471428Y-137390714D01*
X36509523Y-137428809D01*
X36585714Y-137466904D01*
X36661904Y-137466904D01*
X36738095Y-137428809D01*
X36776190Y-137390714D01*
X36814285Y-137314523D01*
X36852380Y-137162142D01*
X36852380Y-136971666D01*
X36814285Y-136819285D01*
X36776190Y-136743095D01*
X36738095Y-136705000D01*
X36661904Y-136666904D01*
X36052380Y-136933571D02*
X36052380Y-137466904D01*
X36052380Y-137009761D02*
X36014285Y-136971666D01*
X35938095Y-136933571D01*
X35823809Y-136933571D01*
X35747619Y-136971666D01*
X35709523Y-137047857D01*
X35709523Y-137466904D01*
X35061904Y-137047857D02*
X35328571Y-137047857D01*
X35328571Y-137466904D02*
X35328571Y-136666904D01*
X34947619Y-136666904D01*
X36814285Y-135710714D02*
X36852380Y-135748809D01*
X36966666Y-135786904D01*
X37042857Y-135786904D01*
X37157142Y-135748809D01*
X37233333Y-135672619D01*
X37271428Y-135596428D01*
X37309523Y-135444047D01*
X37309523Y-135329761D01*
X37271428Y-135177380D01*
X37233333Y-135101190D01*
X37157142Y-135025000D01*
X37042857Y-134986904D01*
X36966666Y-134986904D01*
X36852380Y-135025000D01*
X36814285Y-135063095D01*
X36509523Y-135063095D02*
X36471428Y-135025000D01*
X36395238Y-134986904D01*
X36204761Y-134986904D01*
X36128571Y-135025000D01*
X36090476Y-135063095D01*
X36052380Y-135139285D01*
X36052380Y-135215476D01*
X36090476Y-135329761D01*
X36547619Y-135786904D01*
X36052380Y-135786904D01*
X35290476Y-135786904D02*
X35747619Y-135786904D01*
X35519047Y-135786904D02*
X35519047Y-134986904D01*
X35595238Y-135101190D01*
X35671428Y-135177380D01*
X35747619Y-135215476D01*
%TO.C,TP20*%
X107952619Y-123675892D02*
X107343095Y-123675892D01*
X107647857Y-123980654D02*
X107647857Y-123371130D01*
X107000238Y-123752083D02*
X106619285Y-123752083D01*
X107076428Y-123980654D02*
X106809761Y-123180654D01*
X106543095Y-123980654D01*
X105819285Y-123980654D02*
X106085952Y-123599702D01*
X106276428Y-123980654D02*
X106276428Y-123180654D01*
X105971666Y-123180654D01*
X105895476Y-123218750D01*
X105857380Y-123256845D01*
X105819285Y-123333035D01*
X105819285Y-123447321D01*
X105857380Y-123523511D01*
X105895476Y-123561607D01*
X105971666Y-123599702D01*
X106276428Y-123599702D01*
X105019285Y-123980654D02*
X105285952Y-123599702D01*
X105476428Y-123980654D02*
X105476428Y-123180654D01*
X105171666Y-123180654D01*
X105095476Y-123218750D01*
X105057380Y-123256845D01*
X105019285Y-123333035D01*
X105019285Y-123447321D01*
X105057380Y-123523511D01*
X105095476Y-123561607D01*
X105171666Y-123599702D01*
X105476428Y-123599702D01*
X107895476Y-120180654D02*
X107438333Y-120180654D01*
X107666904Y-120980654D02*
X107666904Y-120180654D01*
X107171666Y-120980654D02*
X107171666Y-120180654D01*
X106866904Y-120180654D01*
X106790714Y-120218750D01*
X106752619Y-120256845D01*
X106714523Y-120333035D01*
X106714523Y-120447321D01*
X106752619Y-120523511D01*
X106790714Y-120561607D01*
X106866904Y-120599702D01*
X107171666Y-120599702D01*
X106409761Y-120256845D02*
X106371666Y-120218750D01*
X106295476Y-120180654D01*
X106105000Y-120180654D01*
X106028809Y-120218750D01*
X105990714Y-120256845D01*
X105952619Y-120333035D01*
X105952619Y-120409226D01*
X105990714Y-120523511D01*
X106447857Y-120980654D01*
X105952619Y-120980654D01*
X105457380Y-120180654D02*
X105381190Y-120180654D01*
X105305000Y-120218750D01*
X105266904Y-120256845D01*
X105228809Y-120333035D01*
X105190714Y-120485416D01*
X105190714Y-120675892D01*
X105228809Y-120828273D01*
X105266904Y-120904464D01*
X105305000Y-120942559D01*
X105381190Y-120980654D01*
X105457380Y-120980654D01*
X105533571Y-120942559D01*
X105571666Y-120904464D01*
X105609761Y-120828273D01*
X105647857Y-120675892D01*
X105647857Y-120485416D01*
X105609761Y-120333035D01*
X105571666Y-120256845D01*
X105533571Y-120218750D01*
X105457380Y-120180654D01*
%TO.C,U5*%
X113336904Y-130086238D02*
X112536904Y-130086238D01*
X113336904Y-130467190D02*
X112536904Y-130467190D01*
X113336904Y-130924333D01*
X112536904Y-130924333D01*
X113108333Y-131267190D02*
X113108333Y-131648142D01*
X113336904Y-131191000D02*
X112536904Y-131457666D01*
X113336904Y-131724333D01*
X112613095Y-131952904D02*
X112575000Y-131991000D01*
X112536904Y-132067190D01*
X112536904Y-132257666D01*
X112575000Y-132333857D01*
X112613095Y-132371952D01*
X112689285Y-132410047D01*
X112765476Y-132410047D01*
X112879761Y-132371952D01*
X113336904Y-131914809D01*
X113336904Y-132410047D01*
X113336904Y-133171952D02*
X113336904Y-132714809D01*
X113336904Y-132943380D02*
X112536904Y-132943380D01*
X112651190Y-132867190D01*
X112727380Y-132791000D01*
X112765476Y-132714809D01*
X112536904Y-133667190D02*
X112536904Y-133743380D01*
X112575000Y-133819571D01*
X112613095Y-133857666D01*
X112689285Y-133895761D01*
X112841666Y-133933857D01*
X113032142Y-133933857D01*
X113184523Y-133895761D01*
X113260714Y-133857666D01*
X113298809Y-133819571D01*
X113336904Y-133743380D01*
X113336904Y-133667190D01*
X113298809Y-133591000D01*
X113260714Y-133552904D01*
X113184523Y-133514809D01*
X113032142Y-133476714D01*
X112841666Y-133476714D01*
X112689285Y-133514809D01*
X112613095Y-133552904D01*
X112575000Y-133591000D01*
X112536904Y-133667190D01*
X110536904Y-131381476D02*
X111184523Y-131381476D01*
X111260714Y-131419571D01*
X111298809Y-131457666D01*
X111336904Y-131533857D01*
X111336904Y-131686238D01*
X111298809Y-131762428D01*
X111260714Y-131800523D01*
X111184523Y-131838619D01*
X110536904Y-131838619D01*
X110536904Y-132600523D02*
X110536904Y-132219571D01*
X110917857Y-132181476D01*
X110879761Y-132219571D01*
X110841666Y-132295761D01*
X110841666Y-132486238D01*
X110879761Y-132562428D01*
X110917857Y-132600523D01*
X110994047Y-132638619D01*
X111184523Y-132638619D01*
X111260714Y-132600523D01*
X111298809Y-132562428D01*
X111336904Y-132486238D01*
X111336904Y-132295761D01*
X111298809Y-132219571D01*
X111260714Y-132181476D01*
%TO.C,D1*%
X51479166Y-145926904D02*
X51936309Y-145926904D01*
X51707738Y-145926904D02*
X51707738Y-145126904D01*
X51783928Y-145241190D01*
X51860119Y-145317380D01*
X51936309Y-145355476D01*
X51212500Y-145126904D02*
X50717261Y-145126904D01*
X50983928Y-145431666D01*
X50869642Y-145431666D01*
X50793452Y-145469761D01*
X50755357Y-145507857D01*
X50717261Y-145584047D01*
X50717261Y-145774523D01*
X50755357Y-145850714D01*
X50793452Y-145888809D01*
X50869642Y-145926904D01*
X51098214Y-145926904D01*
X51174404Y-145888809D01*
X51212500Y-145850714D01*
X50374404Y-145850714D02*
X50336309Y-145888809D01*
X50374404Y-145926904D01*
X50412500Y-145888809D01*
X50374404Y-145850714D01*
X50374404Y-145926904D01*
X50031547Y-145203095D02*
X49993452Y-145165000D01*
X49917261Y-145126904D01*
X49726785Y-145126904D01*
X49650595Y-145165000D01*
X49612500Y-145203095D01*
X49574404Y-145279285D01*
X49574404Y-145355476D01*
X49612500Y-145469761D01*
X50069642Y-145926904D01*
X49574404Y-145926904D01*
X49345833Y-145126904D02*
X49079166Y-145926904D01*
X48812500Y-145126904D01*
X51037976Y-142306904D02*
X51037976Y-141506904D01*
X50847500Y-141506904D01*
X50733214Y-141545000D01*
X50657023Y-141621190D01*
X50618928Y-141697380D01*
X50580833Y-141849761D01*
X50580833Y-141964047D01*
X50618928Y-142116428D01*
X50657023Y-142192619D01*
X50733214Y-142268809D01*
X50847500Y-142306904D01*
X51037976Y-142306904D01*
X49818928Y-142306904D02*
X50276071Y-142306904D01*
X50047500Y-142306904D02*
X50047500Y-141506904D01*
X50123690Y-141621190D01*
X50199880Y-141697380D01*
X50276071Y-141735476D01*
%TO.C,R22*%
X26976071Y-102506904D02*
X26480833Y-102506904D01*
X26747500Y-102811666D01*
X26633214Y-102811666D01*
X26557023Y-102849761D01*
X26518928Y-102887857D01*
X26480833Y-102964047D01*
X26480833Y-103154523D01*
X26518928Y-103230714D01*
X26557023Y-103268809D01*
X26633214Y-103306904D01*
X26861785Y-103306904D01*
X26937976Y-103268809D01*
X26976071Y-103230714D01*
X26214166Y-102506904D02*
X25718928Y-102506904D01*
X25985595Y-102811666D01*
X25871309Y-102811666D01*
X25795119Y-102849761D01*
X25757023Y-102887857D01*
X25718928Y-102964047D01*
X25718928Y-103154523D01*
X25757023Y-103230714D01*
X25795119Y-103268809D01*
X25871309Y-103306904D01*
X26099880Y-103306904D01*
X26176071Y-103268809D01*
X26214166Y-103230714D01*
X25223690Y-102506904D02*
X25147500Y-102506904D01*
X25071309Y-102545000D01*
X25033214Y-102583095D01*
X24995119Y-102659285D01*
X24957023Y-102811666D01*
X24957023Y-103002142D01*
X24995119Y-103154523D01*
X25033214Y-103230714D01*
X25071309Y-103268809D01*
X25147500Y-103306904D01*
X25223690Y-103306904D01*
X25299880Y-103268809D01*
X25337976Y-103230714D01*
X25376071Y-103154523D01*
X25414166Y-103002142D01*
X25414166Y-102811666D01*
X25376071Y-102659285D01*
X25337976Y-102583095D01*
X25299880Y-102545000D01*
X25223690Y-102506904D01*
X26461785Y-101656904D02*
X26728452Y-101275952D01*
X26918928Y-101656904D02*
X26918928Y-100856904D01*
X26614166Y-100856904D01*
X26537976Y-100895000D01*
X26499880Y-100933095D01*
X26461785Y-101009285D01*
X26461785Y-101123571D01*
X26499880Y-101199761D01*
X26537976Y-101237857D01*
X26614166Y-101275952D01*
X26918928Y-101275952D01*
X26157023Y-100933095D02*
X26118928Y-100895000D01*
X26042738Y-100856904D01*
X25852261Y-100856904D01*
X25776071Y-100895000D01*
X25737976Y-100933095D01*
X25699880Y-101009285D01*
X25699880Y-101085476D01*
X25737976Y-101199761D01*
X26195119Y-101656904D01*
X25699880Y-101656904D01*
X25395119Y-100933095D02*
X25357023Y-100895000D01*
X25280833Y-100856904D01*
X25090357Y-100856904D01*
X25014166Y-100895000D01*
X24976071Y-100933095D01*
X24937976Y-101009285D01*
X24937976Y-101085476D01*
X24976071Y-101199761D01*
X25433214Y-101656904D01*
X24937976Y-101656904D01*
%TO.C,TP28*%
X39575476Y-128405714D02*
X39613571Y-128443809D01*
X39727857Y-128481904D01*
X39804047Y-128481904D01*
X39918333Y-128443809D01*
X39994523Y-128367619D01*
X40032619Y-128291428D01*
X40070714Y-128139047D01*
X40070714Y-128024761D01*
X40032619Y-127872380D01*
X39994523Y-127796190D01*
X39918333Y-127720000D01*
X39804047Y-127681904D01*
X39727857Y-127681904D01*
X39613571Y-127720000D01*
X39575476Y-127758095D01*
X39270714Y-128253333D02*
X38889761Y-128253333D01*
X39346904Y-128481904D02*
X39080238Y-127681904D01*
X38813571Y-128481904D01*
X38546904Y-128481904D02*
X38546904Y-127681904D01*
X38089761Y-128481904D01*
X38089761Y-127681904D01*
X37899285Y-128558095D02*
X37289761Y-128558095D01*
X37099285Y-128481904D02*
X37099285Y-127681904D01*
X36756428Y-128443809D02*
X36642142Y-128481904D01*
X36451666Y-128481904D01*
X36375476Y-128443809D01*
X36337380Y-128405714D01*
X36299285Y-128329523D01*
X36299285Y-128253333D01*
X36337380Y-128177142D01*
X36375476Y-128139047D01*
X36451666Y-128100952D01*
X36604047Y-128062857D01*
X36680238Y-128024761D01*
X36718333Y-127986666D01*
X36756428Y-127910476D01*
X36756428Y-127834285D01*
X36718333Y-127758095D01*
X36680238Y-127720000D01*
X36604047Y-127681904D01*
X36413571Y-127681904D01*
X36299285Y-127720000D01*
X35804047Y-127681904D02*
X35651666Y-127681904D01*
X35575476Y-127720000D01*
X35499285Y-127796190D01*
X35461190Y-127948571D01*
X35461190Y-128215238D01*
X35499285Y-128367619D01*
X35575476Y-128443809D01*
X35651666Y-128481904D01*
X35804047Y-128481904D01*
X35880238Y-128443809D01*
X35956428Y-128367619D01*
X35994523Y-128215238D01*
X35994523Y-127948571D01*
X35956428Y-127796190D01*
X35880238Y-127720000D01*
X35804047Y-127681904D01*
X35308809Y-128558095D02*
X34699285Y-128558095D01*
X34089761Y-127720000D02*
X34165952Y-127681904D01*
X34280238Y-127681904D01*
X34394523Y-127720000D01*
X34470714Y-127796190D01*
X34508809Y-127872380D01*
X34546904Y-128024761D01*
X34546904Y-128139047D01*
X34508809Y-128291428D01*
X34470714Y-128367619D01*
X34394523Y-128443809D01*
X34280238Y-128481904D01*
X34204047Y-128481904D01*
X34089761Y-128443809D01*
X34051666Y-128405714D01*
X34051666Y-128139047D01*
X34204047Y-128139047D01*
X33708809Y-127948571D02*
X33708809Y-128481904D01*
X33708809Y-128024761D02*
X33670714Y-127986666D01*
X33594523Y-127948571D01*
X33480238Y-127948571D01*
X33404047Y-127986666D01*
X33365952Y-128062857D01*
X33365952Y-128481904D01*
X32642142Y-128481904D02*
X32642142Y-127681904D01*
X32642142Y-128443809D02*
X32718333Y-128481904D01*
X32870714Y-128481904D01*
X32946904Y-128443809D01*
X32985000Y-128405714D01*
X33023095Y-128329523D01*
X33023095Y-128100952D01*
X32985000Y-128024761D01*
X32946904Y-127986666D01*
X32870714Y-127948571D01*
X32718333Y-127948571D01*
X32642142Y-127986666D01*
X32261190Y-128481904D02*
X32261190Y-127681904D01*
X31880238Y-127948571D02*
X31880238Y-128481904D01*
X31880238Y-128024761D02*
X31842142Y-127986666D01*
X31765952Y-127948571D01*
X31651666Y-127948571D01*
X31575476Y-127986666D01*
X31537380Y-128062857D01*
X31537380Y-128481904D01*
X37175476Y-130681904D02*
X36718333Y-130681904D01*
X36946904Y-131481904D02*
X36946904Y-130681904D01*
X36451666Y-131481904D02*
X36451666Y-130681904D01*
X36146904Y-130681904D01*
X36070714Y-130720000D01*
X36032619Y-130758095D01*
X35994523Y-130834285D01*
X35994523Y-130948571D01*
X36032619Y-131024761D01*
X36070714Y-131062857D01*
X36146904Y-131100952D01*
X36451666Y-131100952D01*
X35689761Y-130758095D02*
X35651666Y-130720000D01*
X35575476Y-130681904D01*
X35385000Y-130681904D01*
X35308809Y-130720000D01*
X35270714Y-130758095D01*
X35232619Y-130834285D01*
X35232619Y-130910476D01*
X35270714Y-131024761D01*
X35727857Y-131481904D01*
X35232619Y-131481904D01*
X34775476Y-131024761D02*
X34851666Y-130986666D01*
X34889761Y-130948571D01*
X34927857Y-130872380D01*
X34927857Y-130834285D01*
X34889761Y-130758095D01*
X34851666Y-130720000D01*
X34775476Y-130681904D01*
X34623095Y-130681904D01*
X34546904Y-130720000D01*
X34508809Y-130758095D01*
X34470714Y-130834285D01*
X34470714Y-130872380D01*
X34508809Y-130948571D01*
X34546904Y-130986666D01*
X34623095Y-131024761D01*
X34775476Y-131024761D01*
X34851666Y-131062857D01*
X34889761Y-131100952D01*
X34927857Y-131177142D01*
X34927857Y-131329523D01*
X34889761Y-131405714D01*
X34851666Y-131443809D01*
X34775476Y-131481904D01*
X34623095Y-131481904D01*
X34546904Y-131443809D01*
X34508809Y-131405714D01*
X34470714Y-131329523D01*
X34470714Y-131177142D01*
X34508809Y-131100952D01*
X34546904Y-131062857D01*
X34623095Y-131024761D01*
%TO.C,TP14*%
X119384523Y-131721000D02*
X119460714Y-131682904D01*
X119575000Y-131682904D01*
X119689285Y-131721000D01*
X119765476Y-131797190D01*
X119803571Y-131873380D01*
X119841666Y-132025761D01*
X119841666Y-132140047D01*
X119803571Y-132292428D01*
X119765476Y-132368619D01*
X119689285Y-132444809D01*
X119575000Y-132482904D01*
X119498809Y-132482904D01*
X119384523Y-132444809D01*
X119346428Y-132406714D01*
X119346428Y-132140047D01*
X119498809Y-132140047D01*
X119003571Y-132482904D02*
X119003571Y-131682904D01*
X118546428Y-132482904D01*
X118546428Y-131682904D01*
X118165476Y-132482904D02*
X118165476Y-131682904D01*
X117975000Y-131682904D01*
X117860714Y-131721000D01*
X117784523Y-131797190D01*
X117746428Y-131873380D01*
X117708333Y-132025761D01*
X117708333Y-132140047D01*
X117746428Y-132292428D01*
X117784523Y-132368619D01*
X117860714Y-132444809D01*
X117975000Y-132482904D01*
X118165476Y-132482904D01*
X120165476Y-128682904D02*
X119708333Y-128682904D01*
X119936904Y-129482904D02*
X119936904Y-128682904D01*
X119441666Y-129482904D02*
X119441666Y-128682904D01*
X119136904Y-128682904D01*
X119060714Y-128721000D01*
X119022619Y-128759095D01*
X118984523Y-128835285D01*
X118984523Y-128949571D01*
X119022619Y-129025761D01*
X119060714Y-129063857D01*
X119136904Y-129101952D01*
X119441666Y-129101952D01*
X118222619Y-129482904D02*
X118679761Y-129482904D01*
X118451190Y-129482904D02*
X118451190Y-128682904D01*
X118527380Y-128797190D01*
X118603571Y-128873380D01*
X118679761Y-128911476D01*
X117536904Y-128949571D02*
X117536904Y-129482904D01*
X117727380Y-128644809D02*
X117917857Y-129216238D01*
X117422619Y-129216238D01*
%TO.C,R7*%
X82818095Y-131344095D02*
X82780000Y-131382190D01*
X82741904Y-131458380D01*
X82741904Y-131648857D01*
X82780000Y-131725047D01*
X82818095Y-131763142D01*
X82894285Y-131801238D01*
X82970476Y-131801238D01*
X83084761Y-131763142D01*
X83541904Y-131306000D01*
X83541904Y-131801238D01*
X83541904Y-132144095D02*
X83008571Y-132144095D01*
X83084761Y-132144095D02*
X83046666Y-132182190D01*
X83008571Y-132258380D01*
X83008571Y-132372666D01*
X83046666Y-132448857D01*
X83122857Y-132486952D01*
X83541904Y-132486952D01*
X83122857Y-132486952D02*
X83046666Y-132525047D01*
X83008571Y-132601238D01*
X83008571Y-132715523D01*
X83046666Y-132791714D01*
X83122857Y-132829809D01*
X83541904Y-132829809D01*
X81721904Y-131972666D02*
X81340952Y-131706000D01*
X81721904Y-131515523D02*
X80921904Y-131515523D01*
X80921904Y-131820285D01*
X80960000Y-131896476D01*
X80998095Y-131934571D01*
X81074285Y-131972666D01*
X81188571Y-131972666D01*
X81264761Y-131934571D01*
X81302857Y-131896476D01*
X81340952Y-131820285D01*
X81340952Y-131515523D01*
X80921904Y-132239333D02*
X80921904Y-132772666D01*
X81721904Y-132429809D01*
%TO.C,D9*%
X105061904Y-111725654D02*
X104566666Y-111725654D01*
X104833333Y-112030416D01*
X104719047Y-112030416D01*
X104642857Y-112068511D01*
X104604761Y-112106607D01*
X104566666Y-112182797D01*
X104566666Y-112373273D01*
X104604761Y-112449464D01*
X104642857Y-112487559D01*
X104719047Y-112525654D01*
X104947619Y-112525654D01*
X105023809Y-112487559D01*
X105061904Y-112449464D01*
X104223809Y-112449464D02*
X104185714Y-112487559D01*
X104223809Y-112525654D01*
X104261904Y-112487559D01*
X104223809Y-112449464D01*
X104223809Y-112525654D01*
X103919047Y-111725654D02*
X103423809Y-111725654D01*
X103690476Y-112030416D01*
X103576190Y-112030416D01*
X103500000Y-112068511D01*
X103461904Y-112106607D01*
X103423809Y-112182797D01*
X103423809Y-112373273D01*
X103461904Y-112449464D01*
X103500000Y-112487559D01*
X103576190Y-112525654D01*
X103804761Y-112525654D01*
X103880952Y-112487559D01*
X103919047Y-112449464D01*
X103195238Y-111725654D02*
X102928571Y-112525654D01*
X102661904Y-111725654D01*
X101861904Y-111725654D02*
X101328571Y-111725654D01*
X101861904Y-112525654D01*
X101328571Y-112525654D01*
X100719047Y-112487559D02*
X100795238Y-112525654D01*
X100947619Y-112525654D01*
X101023809Y-112487559D01*
X101061904Y-112411369D01*
X101061904Y-112106607D01*
X101023809Y-112030416D01*
X100947619Y-111992321D01*
X100795238Y-111992321D01*
X100719047Y-112030416D01*
X100680952Y-112106607D01*
X100680952Y-112182797D01*
X101061904Y-112258988D01*
X100338095Y-111992321D02*
X100338095Y-112525654D01*
X100338095Y-112068511D02*
X100300000Y-112030416D01*
X100223809Y-111992321D01*
X100109523Y-111992321D01*
X100033333Y-112030416D01*
X99995238Y-112106607D01*
X99995238Y-112525654D01*
X99309523Y-112487559D02*
X99385714Y-112525654D01*
X99538095Y-112525654D01*
X99614285Y-112487559D01*
X99652380Y-112411369D01*
X99652380Y-112106607D01*
X99614285Y-112030416D01*
X99538095Y-111992321D01*
X99385714Y-111992321D01*
X99309523Y-112030416D01*
X99271428Y-112106607D01*
X99271428Y-112182797D01*
X99652380Y-112258988D01*
X98928571Y-112525654D02*
X98928571Y-111992321D01*
X98928571Y-112144702D02*
X98890476Y-112068511D01*
X98852380Y-112030416D01*
X98776190Y-111992321D01*
X98700000Y-111992321D01*
X102475476Y-112643154D02*
X102475476Y-111843154D01*
X102285000Y-111843154D01*
X102170714Y-111881250D01*
X102094523Y-111957440D01*
X102056428Y-112033630D01*
X102018333Y-112186011D01*
X102018333Y-112300297D01*
X102056428Y-112452678D01*
X102094523Y-112528869D01*
X102170714Y-112605059D01*
X102285000Y-112643154D01*
X102475476Y-112643154D01*
X101637380Y-112643154D02*
X101485000Y-112643154D01*
X101408809Y-112605059D01*
X101370714Y-112566964D01*
X101294523Y-112452678D01*
X101256428Y-112300297D01*
X101256428Y-111995535D01*
X101294523Y-111919345D01*
X101332619Y-111881250D01*
X101408809Y-111843154D01*
X101561190Y-111843154D01*
X101637380Y-111881250D01*
X101675476Y-111919345D01*
X101713571Y-111995535D01*
X101713571Y-112186011D01*
X101675476Y-112262202D01*
X101637380Y-112300297D01*
X101561190Y-112338392D01*
X101408809Y-112338392D01*
X101332619Y-112300297D01*
X101294523Y-112262202D01*
X101256428Y-112186011D01*
%TO.C,TP3*%
X29932142Y-66411428D02*
X29932142Y-67020952D01*
X30236904Y-66716190D02*
X29627380Y-66716190D01*
X30236904Y-67440000D02*
X30236904Y-67592380D01*
X30198809Y-67668571D01*
X30160714Y-67706666D01*
X30046428Y-67782857D01*
X29894047Y-67820952D01*
X29589285Y-67820952D01*
X29513095Y-67782857D01*
X29475000Y-67744761D01*
X29436904Y-67668571D01*
X29436904Y-67516190D01*
X29475000Y-67440000D01*
X29513095Y-67401904D01*
X29589285Y-67363809D01*
X29779761Y-67363809D01*
X29855952Y-67401904D01*
X29894047Y-67440000D01*
X29932142Y-67516190D01*
X29932142Y-67668571D01*
X29894047Y-67744761D01*
X29855952Y-67782857D01*
X29779761Y-67820952D01*
X29436904Y-68049523D02*
X30236904Y-68316190D01*
X29436904Y-68582857D01*
X26436904Y-66430476D02*
X26436904Y-66887619D01*
X27236904Y-66659047D02*
X26436904Y-66659047D01*
X27236904Y-67154285D02*
X26436904Y-67154285D01*
X26436904Y-67459047D01*
X26475000Y-67535238D01*
X26513095Y-67573333D01*
X26589285Y-67611428D01*
X26703571Y-67611428D01*
X26779761Y-67573333D01*
X26817857Y-67535238D01*
X26855952Y-67459047D01*
X26855952Y-67154285D01*
X26436904Y-67878095D02*
X26436904Y-68373333D01*
X26741666Y-68106666D01*
X26741666Y-68220952D01*
X26779761Y-68297142D01*
X26817857Y-68335238D01*
X26894047Y-68373333D01*
X27084523Y-68373333D01*
X27160714Y-68335238D01*
X27198809Y-68297142D01*
X27236904Y-68220952D01*
X27236904Y-67992380D01*
X27198809Y-67916190D01*
X27160714Y-67878095D01*
%TO.C,R20*%
X26996071Y-111341904D02*
X26500833Y-111341904D01*
X26767500Y-111646666D01*
X26653214Y-111646666D01*
X26577023Y-111684761D01*
X26538928Y-111722857D01*
X26500833Y-111799047D01*
X26500833Y-111989523D01*
X26538928Y-112065714D01*
X26577023Y-112103809D01*
X26653214Y-112141904D01*
X26881785Y-112141904D01*
X26957976Y-112103809D01*
X26996071Y-112065714D01*
X26234166Y-111341904D02*
X25738928Y-111341904D01*
X26005595Y-111646666D01*
X25891309Y-111646666D01*
X25815119Y-111684761D01*
X25777023Y-111722857D01*
X25738928Y-111799047D01*
X25738928Y-111989523D01*
X25777023Y-112065714D01*
X25815119Y-112103809D01*
X25891309Y-112141904D01*
X26119880Y-112141904D01*
X26196071Y-112103809D01*
X26234166Y-112065714D01*
X25243690Y-111341904D02*
X25167500Y-111341904D01*
X25091309Y-111380000D01*
X25053214Y-111418095D01*
X25015119Y-111494285D01*
X24977023Y-111646666D01*
X24977023Y-111837142D01*
X25015119Y-111989523D01*
X25053214Y-112065714D01*
X25091309Y-112103809D01*
X25167500Y-112141904D01*
X25243690Y-112141904D01*
X25319880Y-112103809D01*
X25357976Y-112065714D01*
X25396071Y-111989523D01*
X25434166Y-111837142D01*
X25434166Y-111646666D01*
X25396071Y-111494285D01*
X25357976Y-111418095D01*
X25319880Y-111380000D01*
X25243690Y-111341904D01*
X26481785Y-110491904D02*
X26748452Y-110110952D01*
X26938928Y-110491904D02*
X26938928Y-109691904D01*
X26634166Y-109691904D01*
X26557976Y-109730000D01*
X26519880Y-109768095D01*
X26481785Y-109844285D01*
X26481785Y-109958571D01*
X26519880Y-110034761D01*
X26557976Y-110072857D01*
X26634166Y-110110952D01*
X26938928Y-110110952D01*
X26177023Y-109768095D02*
X26138928Y-109730000D01*
X26062738Y-109691904D01*
X25872261Y-109691904D01*
X25796071Y-109730000D01*
X25757976Y-109768095D01*
X25719880Y-109844285D01*
X25719880Y-109920476D01*
X25757976Y-110034761D01*
X26215119Y-110491904D01*
X25719880Y-110491904D01*
X25224642Y-109691904D02*
X25148452Y-109691904D01*
X25072261Y-109730000D01*
X25034166Y-109768095D01*
X24996071Y-109844285D01*
X24957976Y-109996666D01*
X24957976Y-110187142D01*
X24996071Y-110339523D01*
X25034166Y-110415714D01*
X25072261Y-110453809D01*
X25148452Y-110491904D01*
X25224642Y-110491904D01*
X25300833Y-110453809D01*
X25338928Y-110415714D01*
X25377023Y-110339523D01*
X25415119Y-110187142D01*
X25415119Y-109996666D01*
X25377023Y-109844285D01*
X25338928Y-109768095D01*
X25300833Y-109730000D01*
X25224642Y-109691904D01*
%TO.C,C10*%
X112018095Y-127547904D02*
X112475238Y-127547904D01*
X112246666Y-127547904D02*
X112246666Y-126747904D01*
X112322857Y-126862190D01*
X112399047Y-126938380D01*
X112475238Y-126976476D01*
X111522857Y-126747904D02*
X111446666Y-126747904D01*
X111370476Y-126786000D01*
X111332380Y-126824095D01*
X111294285Y-126900285D01*
X111256190Y-127052666D01*
X111256190Y-127243142D01*
X111294285Y-127395523D01*
X111332380Y-127471714D01*
X111370476Y-127509809D01*
X111446666Y-127547904D01*
X111522857Y-127547904D01*
X111599047Y-127509809D01*
X111637142Y-127471714D01*
X111675238Y-127395523D01*
X111713333Y-127243142D01*
X111713333Y-127052666D01*
X111675238Y-126900285D01*
X111637142Y-126824095D01*
X111599047Y-126786000D01*
X111522857Y-126747904D01*
X110760952Y-126747904D02*
X110684761Y-126747904D01*
X110608571Y-126786000D01*
X110570476Y-126824095D01*
X110532380Y-126900285D01*
X110494285Y-127052666D01*
X110494285Y-127243142D01*
X110532380Y-127395523D01*
X110570476Y-127471714D01*
X110608571Y-127509809D01*
X110684761Y-127547904D01*
X110760952Y-127547904D01*
X110837142Y-127509809D01*
X110875238Y-127471714D01*
X110913333Y-127395523D01*
X110951428Y-127243142D01*
X110951428Y-127052666D01*
X110913333Y-126900285D01*
X110875238Y-126824095D01*
X110837142Y-126786000D01*
X110760952Y-126747904D01*
X110151428Y-127014571D02*
X110151428Y-127547904D01*
X110151428Y-127090761D02*
X110113333Y-127052666D01*
X110037142Y-127014571D01*
X109922857Y-127014571D01*
X109846666Y-127052666D01*
X109808571Y-127128857D01*
X109808571Y-127547904D01*
X109160952Y-127128857D02*
X109427619Y-127128857D01*
X109427619Y-127547904D02*
X109427619Y-126747904D01*
X109046666Y-126747904D01*
X111294285Y-129151714D02*
X111332380Y-129189809D01*
X111446666Y-129227904D01*
X111522857Y-129227904D01*
X111637142Y-129189809D01*
X111713333Y-129113619D01*
X111751428Y-129037428D01*
X111789523Y-128885047D01*
X111789523Y-128770761D01*
X111751428Y-128618380D01*
X111713333Y-128542190D01*
X111637142Y-128466000D01*
X111522857Y-128427904D01*
X111446666Y-128427904D01*
X111332380Y-128466000D01*
X111294285Y-128504095D01*
X110532380Y-129227904D02*
X110989523Y-129227904D01*
X110760952Y-129227904D02*
X110760952Y-128427904D01*
X110837142Y-128542190D01*
X110913333Y-128618380D01*
X110989523Y-128656476D01*
X110037142Y-128427904D02*
X109960952Y-128427904D01*
X109884761Y-128466000D01*
X109846666Y-128504095D01*
X109808571Y-128580285D01*
X109770476Y-128732666D01*
X109770476Y-128923142D01*
X109808571Y-129075523D01*
X109846666Y-129151714D01*
X109884761Y-129189809D01*
X109960952Y-129227904D01*
X110037142Y-129227904D01*
X110113333Y-129189809D01*
X110151428Y-129151714D01*
X110189523Y-129075523D01*
X110227619Y-128923142D01*
X110227619Y-128732666D01*
X110189523Y-128580285D01*
X110151428Y-128504095D01*
X110113333Y-128466000D01*
X110037142Y-128427904D01*
%TO.C,C5*%
X52651904Y-74438809D02*
X52651904Y-73981666D01*
X52651904Y-74210238D02*
X51851904Y-74210238D01*
X51966190Y-74134047D01*
X52042380Y-74057857D01*
X52080476Y-73981666D01*
X52118571Y-75124523D02*
X52651904Y-75124523D01*
X52118571Y-74781666D02*
X52537619Y-74781666D01*
X52613809Y-74819761D01*
X52651904Y-74895952D01*
X52651904Y-75010238D01*
X52613809Y-75086428D01*
X52575714Y-75124523D01*
X52232857Y-75772142D02*
X52232857Y-75505476D01*
X52651904Y-75505476D02*
X51851904Y-75505476D01*
X51851904Y-75886428D01*
X50895714Y-74781666D02*
X50933809Y-74743571D01*
X50971904Y-74629285D01*
X50971904Y-74553095D01*
X50933809Y-74438809D01*
X50857619Y-74362619D01*
X50781428Y-74324523D01*
X50629047Y-74286428D01*
X50514761Y-74286428D01*
X50362380Y-74324523D01*
X50286190Y-74362619D01*
X50210000Y-74438809D01*
X50171904Y-74553095D01*
X50171904Y-74629285D01*
X50210000Y-74743571D01*
X50248095Y-74781666D01*
X50171904Y-75505476D02*
X50171904Y-75124523D01*
X50552857Y-75086428D01*
X50514761Y-75124523D01*
X50476666Y-75200714D01*
X50476666Y-75391190D01*
X50514761Y-75467380D01*
X50552857Y-75505476D01*
X50629047Y-75543571D01*
X50819523Y-75543571D01*
X50895714Y-75505476D01*
X50933809Y-75467380D01*
X50971904Y-75391190D01*
X50971904Y-75200714D01*
X50933809Y-75124523D01*
X50895714Y-75086428D01*
%TO.C,TP10*%
X51620000Y-68870000D02*
X51581904Y-68793809D01*
X51581904Y-68679523D01*
X51620000Y-68565238D01*
X51696190Y-68489047D01*
X51772380Y-68450952D01*
X51924761Y-68412857D01*
X52039047Y-68412857D01*
X52191428Y-68450952D01*
X52267619Y-68489047D01*
X52343809Y-68565238D01*
X52381904Y-68679523D01*
X52381904Y-68755714D01*
X52343809Y-68870000D01*
X52305714Y-68908095D01*
X52039047Y-68908095D01*
X52039047Y-68755714D01*
X52153333Y-69212857D02*
X52153333Y-69593809D01*
X52381904Y-69136666D02*
X51581904Y-69403333D01*
X52381904Y-69670000D01*
X51581904Y-69822380D02*
X51581904Y-70279523D01*
X52381904Y-70050952D02*
X51581904Y-70050952D01*
X51962857Y-70546190D02*
X51962857Y-70812857D01*
X52381904Y-70927142D02*
X52381904Y-70546190D01*
X51581904Y-70546190D01*
X51581904Y-70927142D01*
X54581904Y-68279523D02*
X54581904Y-68736666D01*
X55381904Y-68508095D02*
X54581904Y-68508095D01*
X55381904Y-69003333D02*
X54581904Y-69003333D01*
X54581904Y-69308095D01*
X54620000Y-69384285D01*
X54658095Y-69422380D01*
X54734285Y-69460476D01*
X54848571Y-69460476D01*
X54924761Y-69422380D01*
X54962857Y-69384285D01*
X55000952Y-69308095D01*
X55000952Y-69003333D01*
X55381904Y-70222380D02*
X55381904Y-69765238D01*
X55381904Y-69993809D02*
X54581904Y-69993809D01*
X54696190Y-69917619D01*
X54772380Y-69841428D01*
X54810476Y-69765238D01*
X54581904Y-70717619D02*
X54581904Y-70793809D01*
X54620000Y-70870000D01*
X54658095Y-70908095D01*
X54734285Y-70946190D01*
X54886666Y-70984285D01*
X55077142Y-70984285D01*
X55229523Y-70946190D01*
X55305714Y-70908095D01*
X55343809Y-70870000D01*
X55381904Y-70793809D01*
X55381904Y-70717619D01*
X55343809Y-70641428D01*
X55305714Y-70603333D01*
X55229523Y-70565238D01*
X55077142Y-70527142D01*
X54886666Y-70527142D01*
X54734285Y-70565238D01*
X54658095Y-70603333D01*
X54620000Y-70641428D01*
X54581904Y-70717619D01*
%TO.C,R4*%
X61896904Y-70086309D02*
X61896904Y-69629166D01*
X61896904Y-69857738D02*
X61096904Y-69857738D01*
X61211190Y-69781547D01*
X61287380Y-69705357D01*
X61325476Y-69629166D01*
X61096904Y-70581547D02*
X61096904Y-70657738D01*
X61135000Y-70733928D01*
X61173095Y-70772023D01*
X61249285Y-70810119D01*
X61401666Y-70848214D01*
X61592142Y-70848214D01*
X61744523Y-70810119D01*
X61820714Y-70772023D01*
X61858809Y-70733928D01*
X61896904Y-70657738D01*
X61896904Y-70581547D01*
X61858809Y-70505357D01*
X61820714Y-70467261D01*
X61744523Y-70429166D01*
X61592142Y-70391071D01*
X61401666Y-70391071D01*
X61249285Y-70429166D01*
X61173095Y-70467261D01*
X61135000Y-70505357D01*
X61096904Y-70581547D01*
X61896904Y-71191071D02*
X61096904Y-71191071D01*
X61592142Y-71267261D02*
X61896904Y-71495833D01*
X61363571Y-71495833D02*
X61668333Y-71191071D01*
X60246904Y-70429166D02*
X59865952Y-70162500D01*
X60246904Y-69972023D02*
X59446904Y-69972023D01*
X59446904Y-70276785D01*
X59485000Y-70352976D01*
X59523095Y-70391071D01*
X59599285Y-70429166D01*
X59713571Y-70429166D01*
X59789761Y-70391071D01*
X59827857Y-70352976D01*
X59865952Y-70276785D01*
X59865952Y-69972023D01*
X59713571Y-71114880D02*
X60246904Y-71114880D01*
X59408809Y-70924404D02*
X59980238Y-70733928D01*
X59980238Y-71229166D01*
%TO.C,R19*%
X27001071Y-105461904D02*
X26505833Y-105461904D01*
X26772500Y-105766666D01*
X26658214Y-105766666D01*
X26582023Y-105804761D01*
X26543928Y-105842857D01*
X26505833Y-105919047D01*
X26505833Y-106109523D01*
X26543928Y-106185714D01*
X26582023Y-106223809D01*
X26658214Y-106261904D01*
X26886785Y-106261904D01*
X26962976Y-106223809D01*
X27001071Y-106185714D01*
X26239166Y-105461904D02*
X25743928Y-105461904D01*
X26010595Y-105766666D01*
X25896309Y-105766666D01*
X25820119Y-105804761D01*
X25782023Y-105842857D01*
X25743928Y-105919047D01*
X25743928Y-106109523D01*
X25782023Y-106185714D01*
X25820119Y-106223809D01*
X25896309Y-106261904D01*
X26124880Y-106261904D01*
X26201071Y-106223809D01*
X26239166Y-106185714D01*
X25248690Y-105461904D02*
X25172500Y-105461904D01*
X25096309Y-105500000D01*
X25058214Y-105538095D01*
X25020119Y-105614285D01*
X24982023Y-105766666D01*
X24982023Y-105957142D01*
X25020119Y-106109523D01*
X25058214Y-106185714D01*
X25096309Y-106223809D01*
X25172500Y-106261904D01*
X25248690Y-106261904D01*
X25324880Y-106223809D01*
X25362976Y-106185714D01*
X25401071Y-106109523D01*
X25439166Y-105957142D01*
X25439166Y-105766666D01*
X25401071Y-105614285D01*
X25362976Y-105538095D01*
X25324880Y-105500000D01*
X25248690Y-105461904D01*
X26486785Y-104611904D02*
X26753452Y-104230952D01*
X26943928Y-104611904D02*
X26943928Y-103811904D01*
X26639166Y-103811904D01*
X26562976Y-103850000D01*
X26524880Y-103888095D01*
X26486785Y-103964285D01*
X26486785Y-104078571D01*
X26524880Y-104154761D01*
X26562976Y-104192857D01*
X26639166Y-104230952D01*
X26943928Y-104230952D01*
X25724880Y-104611904D02*
X26182023Y-104611904D01*
X25953452Y-104611904D02*
X25953452Y-103811904D01*
X26029642Y-103926190D01*
X26105833Y-104002380D01*
X26182023Y-104040476D01*
X25343928Y-104611904D02*
X25191547Y-104611904D01*
X25115357Y-104573809D01*
X25077261Y-104535714D01*
X25001071Y-104421428D01*
X24962976Y-104269047D01*
X24962976Y-103964285D01*
X25001071Y-103888095D01*
X25039166Y-103850000D01*
X25115357Y-103811904D01*
X25267738Y-103811904D01*
X25343928Y-103850000D01*
X25382023Y-103888095D01*
X25420119Y-103964285D01*
X25420119Y-104154761D01*
X25382023Y-104230952D01*
X25343928Y-104269047D01*
X25267738Y-104307142D01*
X25115357Y-104307142D01*
X25039166Y-104269047D01*
X25001071Y-104230952D01*
X24962976Y-104154761D01*
%TO.C,C3*%
X27006904Y-62496904D02*
X27006904Y-62039761D01*
X27006904Y-62268333D02*
X26206904Y-62268333D01*
X26321190Y-62192142D01*
X26397380Y-62115952D01*
X26435476Y-62039761D01*
X26206904Y-62992142D02*
X26206904Y-63068333D01*
X26245000Y-63144523D01*
X26283095Y-63182619D01*
X26359285Y-63220714D01*
X26511666Y-63258809D01*
X26702142Y-63258809D01*
X26854523Y-63220714D01*
X26930714Y-63182619D01*
X26968809Y-63144523D01*
X27006904Y-63068333D01*
X27006904Y-62992142D01*
X26968809Y-62915952D01*
X26930714Y-62877857D01*
X26854523Y-62839761D01*
X26702142Y-62801666D01*
X26511666Y-62801666D01*
X26359285Y-62839761D01*
X26283095Y-62877857D01*
X26245000Y-62915952D01*
X26206904Y-62992142D01*
X26206904Y-63754047D02*
X26206904Y-63830238D01*
X26245000Y-63906428D01*
X26283095Y-63944523D01*
X26359285Y-63982619D01*
X26511666Y-64020714D01*
X26702142Y-64020714D01*
X26854523Y-63982619D01*
X26930714Y-63944523D01*
X26968809Y-63906428D01*
X27006904Y-63830238D01*
X27006904Y-63754047D01*
X26968809Y-63677857D01*
X26930714Y-63639761D01*
X26854523Y-63601666D01*
X26702142Y-63563571D01*
X26511666Y-63563571D01*
X26359285Y-63601666D01*
X26283095Y-63639761D01*
X26245000Y-63677857D01*
X26206904Y-63754047D01*
X26473571Y-64363571D02*
X27006904Y-64363571D01*
X26549761Y-64363571D02*
X26511666Y-64401666D01*
X26473571Y-64477857D01*
X26473571Y-64592142D01*
X26511666Y-64668333D01*
X26587857Y-64706428D01*
X27006904Y-64706428D01*
X26587857Y-65354047D02*
X26587857Y-65087380D01*
X27006904Y-65087380D02*
X26206904Y-65087380D01*
X26206904Y-65468333D01*
X28610714Y-63601666D02*
X28648809Y-63563571D01*
X28686904Y-63449285D01*
X28686904Y-63373095D01*
X28648809Y-63258809D01*
X28572619Y-63182619D01*
X28496428Y-63144523D01*
X28344047Y-63106428D01*
X28229761Y-63106428D01*
X28077380Y-63144523D01*
X28001190Y-63182619D01*
X27925000Y-63258809D01*
X27886904Y-63373095D01*
X27886904Y-63449285D01*
X27925000Y-63563571D01*
X27963095Y-63601666D01*
X27886904Y-63868333D02*
X27886904Y-64363571D01*
X28191666Y-64096904D01*
X28191666Y-64211190D01*
X28229761Y-64287380D01*
X28267857Y-64325476D01*
X28344047Y-64363571D01*
X28534523Y-64363571D01*
X28610714Y-64325476D01*
X28648809Y-64287380D01*
X28686904Y-64211190D01*
X28686904Y-63982619D01*
X28648809Y-63906428D01*
X28610714Y-63868333D01*
%TO.C,R18*%
X27003571Y-99631904D02*
X26508333Y-99631904D01*
X26775000Y-99936666D01*
X26660714Y-99936666D01*
X26584523Y-99974761D01*
X26546428Y-100012857D01*
X26508333Y-100089047D01*
X26508333Y-100279523D01*
X26546428Y-100355714D01*
X26584523Y-100393809D01*
X26660714Y-100431904D01*
X26889285Y-100431904D01*
X26965476Y-100393809D01*
X27003571Y-100355714D01*
X26241666Y-99631904D02*
X25746428Y-99631904D01*
X26013095Y-99936666D01*
X25898809Y-99936666D01*
X25822619Y-99974761D01*
X25784523Y-100012857D01*
X25746428Y-100089047D01*
X25746428Y-100279523D01*
X25784523Y-100355714D01*
X25822619Y-100393809D01*
X25898809Y-100431904D01*
X26127380Y-100431904D01*
X26203571Y-100393809D01*
X26241666Y-100355714D01*
X25251190Y-99631904D02*
X25175000Y-99631904D01*
X25098809Y-99670000D01*
X25060714Y-99708095D01*
X25022619Y-99784285D01*
X24984523Y-99936666D01*
X24984523Y-100127142D01*
X25022619Y-100279523D01*
X25060714Y-100355714D01*
X25098809Y-100393809D01*
X25175000Y-100431904D01*
X25251190Y-100431904D01*
X25327380Y-100393809D01*
X25365476Y-100355714D01*
X25403571Y-100279523D01*
X25441666Y-100127142D01*
X25441666Y-99936666D01*
X25403571Y-99784285D01*
X25365476Y-99708095D01*
X25327380Y-99670000D01*
X25251190Y-99631904D01*
X26489285Y-98781904D02*
X26755952Y-98400952D01*
X26946428Y-98781904D02*
X26946428Y-97981904D01*
X26641666Y-97981904D01*
X26565476Y-98020000D01*
X26527380Y-98058095D01*
X26489285Y-98134285D01*
X26489285Y-98248571D01*
X26527380Y-98324761D01*
X26565476Y-98362857D01*
X26641666Y-98400952D01*
X26946428Y-98400952D01*
X25727380Y-98781904D02*
X26184523Y-98781904D01*
X25955952Y-98781904D02*
X25955952Y-97981904D01*
X26032142Y-98096190D01*
X26108333Y-98172380D01*
X26184523Y-98210476D01*
X25270238Y-98324761D02*
X25346428Y-98286666D01*
X25384523Y-98248571D01*
X25422619Y-98172380D01*
X25422619Y-98134285D01*
X25384523Y-98058095D01*
X25346428Y-98020000D01*
X25270238Y-97981904D01*
X25117857Y-97981904D01*
X25041666Y-98020000D01*
X25003571Y-98058095D01*
X24965476Y-98134285D01*
X24965476Y-98172380D01*
X25003571Y-98248571D01*
X25041666Y-98286666D01*
X25117857Y-98324761D01*
X25270238Y-98324761D01*
X25346428Y-98362857D01*
X25384523Y-98400952D01*
X25422619Y-98477142D01*
X25422619Y-98629523D01*
X25384523Y-98705714D01*
X25346428Y-98743809D01*
X25270238Y-98781904D01*
X25117857Y-98781904D01*
X25041666Y-98743809D01*
X25003571Y-98705714D01*
X24965476Y-98629523D01*
X24965476Y-98477142D01*
X25003571Y-98400952D01*
X25041666Y-98362857D01*
X25117857Y-98324761D01*
D11*
%TO.C,U6*%
X75481666Y-132936000D02*
X77281666Y-132936000D01*
X75481666Y-132036000D02*
X75481666Y-132936000D01*
X75981666Y-131536000D02*
X77281666Y-131536000D01*
X77281666Y-131536000D02*
X77281666Y-132936000D01*
X75481666Y-132036000D02*
X75981666Y-131536000D01*
%TO.C,D2*%
X57130000Y-83480000D02*
X57130000Y-81880000D01*
X53830000Y-81880000D02*
X53830000Y-83480000D01*
X55730000Y-83080000D02*
X55730000Y-82280000D01*
X55130000Y-82680000D02*
X55730000Y-83080000D01*
X54730000Y-82680000D02*
X55130000Y-82680000D01*
X57130000Y-81880000D02*
X53830000Y-81880000D01*
X55730000Y-82680000D02*
X56230000Y-82680000D01*
X55130000Y-82680000D02*
X55130000Y-83230000D01*
X53830000Y-83480000D02*
X57130000Y-83480000D01*
X55730000Y-82280000D02*
X55130000Y-82680000D01*
X55130000Y-82680000D02*
X55130000Y-82130000D01*
%TO.C,R10*%
X69240000Y-118755000D02*
X70490000Y-118755000D01*
X69240000Y-116755000D02*
X69240000Y-118755000D01*
X70490000Y-116755000D02*
X69240000Y-116755000D01*
X70490000Y-118755000D02*
X70490000Y-116755000D01*
%TO.C,C19*%
X40990000Y-137280000D02*
X40990000Y-138530000D01*
X42990000Y-137280000D02*
X40990000Y-137280000D01*
X42990000Y-138530000D02*
X42990000Y-137280000D01*
X40990000Y-138530000D02*
X42990000Y-138530000D01*
%TO.C,R6*%
X116640000Y-133650000D02*
X116640000Y-130450000D01*
X115040000Y-133650000D02*
X116640000Y-133650000D01*
X116640000Y-130450000D02*
X115040000Y-130450000D01*
X115040000Y-130450000D02*
X115040000Y-133650000D01*
%TO.C,C14*%
X42380000Y-116490000D02*
X40380000Y-116490000D01*
X40380000Y-116490000D02*
X40380000Y-117740000D01*
X40380000Y-117740000D02*
X42380000Y-117740000D01*
X42380000Y-117740000D02*
X42380000Y-116490000D01*
%TO.C,C15*%
X42385000Y-120780000D02*
X42385000Y-119530000D01*
X40385000Y-120780000D02*
X42385000Y-120780000D01*
X40385000Y-119530000D02*
X40385000Y-120780000D01*
X42385000Y-119530000D02*
X40385000Y-119530000D01*
%TO.C,R9*%
X105895000Y-113456250D02*
X105895000Y-115456250D01*
X105895000Y-115456250D02*
X107145000Y-115456250D01*
X107145000Y-115456250D02*
X107145000Y-113456250D01*
X107145000Y-113456250D02*
X105895000Y-113456250D01*
%TO.C,R3*%
X54462500Y-120570000D02*
X52462500Y-120570000D01*
X52462500Y-121820000D02*
X54462500Y-121820000D01*
X54462500Y-121820000D02*
X54462500Y-120570000D01*
X52462500Y-120570000D02*
X52462500Y-121820000D01*
%TO.C,C11*%
X77195000Y-128516000D02*
X75195000Y-128516000D01*
X75195000Y-128516000D02*
X75195000Y-129766000D01*
X77195000Y-129766000D02*
X77195000Y-128516000D01*
X75195000Y-129766000D02*
X77195000Y-129766000D01*
%TO.C,C7*%
X52430000Y-126765000D02*
X52430000Y-128015000D01*
X54430000Y-128015000D02*
X54430000Y-126765000D01*
X52430000Y-128015000D02*
X54430000Y-128015000D01*
X54430000Y-126765000D02*
X52430000Y-126765000D01*
%TO.C,D10*%
X65495000Y-113210000D02*
X65495000Y-112410000D01*
X65495000Y-112810000D02*
X65995000Y-112810000D01*
X64495000Y-112810000D02*
X64895000Y-112810000D01*
X64895000Y-112810000D02*
X65495000Y-113210000D01*
X66895000Y-113610000D02*
X66895000Y-112010000D01*
X63595000Y-112010000D02*
X63595000Y-113610000D01*
X64895000Y-112810000D02*
X64895000Y-112260000D01*
X65495000Y-112410000D02*
X64895000Y-112810000D01*
X66895000Y-112010000D02*
X63595000Y-112010000D01*
X63595000Y-113610000D02*
X66895000Y-113610000D01*
X64895000Y-112810000D02*
X64895000Y-113360000D01*
%TO.C,D8*%
X72710000Y-133941000D02*
X73110000Y-134541000D01*
X73510000Y-133941000D02*
X72710000Y-133941000D01*
X73910000Y-132541000D02*
X72310000Y-132541000D01*
X73110000Y-134541000D02*
X73660000Y-134541000D01*
X73110000Y-134541000D02*
X73510000Y-133941000D01*
X72310000Y-135841000D02*
X73910000Y-135841000D01*
X73910000Y-135841000D02*
X73910000Y-132541000D01*
X73110000Y-134941000D02*
X73110000Y-134541000D01*
X72310000Y-132541000D02*
X72310000Y-135841000D01*
X73110000Y-133941000D02*
X73110000Y-133441000D01*
X73110000Y-134541000D02*
X72560000Y-134541000D01*
%TO.C,R14*%
X31425000Y-142512500D02*
X32675000Y-142512500D01*
X32675000Y-140512500D02*
X31425000Y-140512500D01*
X32675000Y-142512500D02*
X32675000Y-140512500D01*
X31425000Y-140512500D02*
X31425000Y-142512500D01*
%TO.C,C18*%
X41005000Y-134810000D02*
X41005000Y-136060000D01*
X43005000Y-136060000D02*
X43005000Y-134810000D01*
X41005000Y-136060000D02*
X43005000Y-136060000D01*
X43005000Y-134810000D02*
X41005000Y-134810000D01*
%TO.C,C20*%
X35300000Y-137290000D02*
X35300000Y-138540000D01*
X37300000Y-137290000D02*
X35300000Y-137290000D01*
X35300000Y-138540000D02*
X37300000Y-138540000D01*
X37300000Y-138540000D02*
X37300000Y-137290000D01*
%TO.C,C6*%
X52305000Y-136205000D02*
X52305000Y-137455000D01*
X54305000Y-136205000D02*
X52305000Y-136205000D01*
X54305000Y-137455000D02*
X54305000Y-136205000D01*
X52305000Y-137455000D02*
X54305000Y-137455000D01*
%TO.C,C2*%
X57027500Y-147355000D02*
X57027500Y-146105000D01*
X55027500Y-147355000D02*
X57027500Y-147355000D01*
X57027500Y-146105000D02*
X55027500Y-146105000D01*
X55027500Y-146105000D02*
X55027500Y-147355000D01*
%TO.C,U8*%
X67645000Y-116277382D02*
X65145000Y-116277382D01*
X64745000Y-116677382D02*
X64745000Y-117877382D01*
X65145000Y-116277382D02*
X64745000Y-116677382D01*
X67645000Y-117877382D02*
X67645000Y-116277382D01*
X64745000Y-117877382D02*
X67645000Y-117877382D01*
%TO.C,R12*%
X32090000Y-136040000D02*
X32090000Y-134790000D01*
X32090000Y-134790000D02*
X30090000Y-134790000D01*
X30090000Y-134790000D02*
X30090000Y-136040000D01*
X30090000Y-136040000D02*
X32090000Y-136040000D01*
%TO.C,R11*%
X70475000Y-114400000D02*
X70475000Y-112400000D01*
X70475000Y-112400000D02*
X69225000Y-112400000D01*
X69225000Y-112400000D02*
X69225000Y-114400000D01*
X69225000Y-114400000D02*
X70475000Y-114400000D01*
%TO.C,D7*%
X106765000Y-131446000D02*
X106765000Y-134746000D01*
X107965000Y-132846000D02*
X107165000Y-132846000D01*
X107565000Y-133446000D02*
X107015000Y-133446000D01*
X107165000Y-132846000D02*
X107565000Y-133446000D01*
X106765000Y-134746000D02*
X108365000Y-134746000D01*
X107565000Y-133446000D02*
X107965000Y-132846000D01*
X107565000Y-133446000D02*
X108115000Y-133446000D01*
X107565000Y-133846000D02*
X107565000Y-133446000D01*
X107565000Y-132846000D02*
X107565000Y-132346000D01*
X108365000Y-134746000D02*
X108365000Y-131446000D01*
X108365000Y-131446000D02*
X106765000Y-131446000D01*
%TO.C,D3*%
X56760000Y-69715000D02*
X56210000Y-69715000D01*
X56760000Y-69315000D02*
X56760000Y-69715000D01*
X57660000Y-68665000D02*
X55860000Y-68665000D01*
X55860000Y-71465000D02*
X57660000Y-71465000D01*
X57160000Y-70315000D02*
X56760000Y-69715000D01*
X56760000Y-70315000D02*
X56760000Y-70815000D01*
X57660000Y-71465000D02*
X57660000Y-68665000D01*
X56760000Y-69715000D02*
X57310000Y-69715000D01*
X56360000Y-70315000D02*
X57160000Y-70315000D01*
X55860000Y-68665000D02*
X55860000Y-71465000D01*
X56760000Y-69715000D02*
X56360000Y-70315000D01*
%TO.C,L1*%
X54960000Y-129765000D02*
X55760000Y-130565000D01*
X55760000Y-133865000D02*
X55760000Y-130565000D01*
X51660000Y-134665000D02*
X54960000Y-134665000D01*
X51660000Y-129765000D02*
X50860000Y-130565000D01*
X54960000Y-129765000D02*
X51660000Y-129765000D01*
X50860000Y-133865000D02*
X50860000Y-130565000D01*
X51660000Y-134665000D02*
X50860000Y-133865000D01*
X54960000Y-134665000D02*
X55760000Y-133865000D01*
%TO.C,R16*%
X96890000Y-147287500D02*
X98140000Y-147287500D01*
X98140000Y-145287500D02*
X96890000Y-145287500D01*
X96890000Y-145287500D02*
X96890000Y-147287500D01*
X98140000Y-147287500D02*
X98140000Y-145287500D01*
%TO.C,R8*%
X107140000Y-117791250D02*
X105890000Y-117791250D01*
X105890000Y-117791250D02*
X105890000Y-119791250D01*
X107140000Y-119791250D02*
X107140000Y-117791250D01*
X105890000Y-119791250D02*
X107140000Y-119791250D01*
%TO.C,C4*%
X51255000Y-79880000D02*
X51255000Y-77880000D01*
X51255000Y-77880000D02*
X50005000Y-77880000D01*
X50005000Y-77880000D02*
X50005000Y-79880000D01*
X50005000Y-79880000D02*
X51255000Y-79880000D01*
%TO.C,C12*%
X103835000Y-121458750D02*
X101835000Y-121458750D01*
X101835000Y-121458750D02*
X101835000Y-122708750D01*
X101835000Y-122708750D02*
X103835000Y-122708750D01*
X103835000Y-122708750D02*
X103835000Y-121458750D01*
%TO.C,R13*%
X34115000Y-142527500D02*
X35365000Y-142527500D01*
X34115000Y-140527500D02*
X34115000Y-142527500D01*
X35365000Y-142527500D02*
X35365000Y-140527500D01*
X35365000Y-140527500D02*
X34115000Y-140527500D01*
%TO.C,C8*%
X54420000Y-125060000D02*
X54420000Y-123810000D01*
X52420000Y-123810000D02*
X52420000Y-125060000D01*
X54420000Y-123810000D02*
X52420000Y-123810000D01*
X52420000Y-125060000D02*
X54420000Y-125060000D01*
%TO.C,R17*%
X26975000Y-96135000D02*
X26975000Y-94885000D01*
X26975000Y-94885000D02*
X24975000Y-94885000D01*
X24975000Y-94885000D02*
X24975000Y-96135000D01*
X24975000Y-96135000D02*
X26975000Y-96135000D01*
%TO.C,R15*%
X135245000Y-147486500D02*
X136495000Y-147486500D01*
X136495000Y-147486500D02*
X136495000Y-145486500D01*
X136495000Y-145486500D02*
X135245000Y-145486500D01*
X135245000Y-145486500D02*
X135245000Y-147486500D01*
%TO.C,R1*%
X55100000Y-144400000D02*
X57100000Y-144400000D01*
X57100000Y-143150000D02*
X55100000Y-143150000D01*
X57100000Y-144400000D02*
X57100000Y-143150000D01*
X55100000Y-143150000D02*
X55100000Y-144400000D01*
%TO.C,C13*%
X67190000Y-120520000D02*
X65190000Y-120520000D01*
X67190000Y-121770000D02*
X67190000Y-120520000D01*
X65190000Y-121770000D02*
X67190000Y-121770000D01*
X65190000Y-120520000D02*
X65190000Y-121770000D01*
%TO.C,U7*%
X104295000Y-118888750D02*
X104295000Y-117288750D01*
X104295000Y-117288750D02*
X101795000Y-117288750D01*
X101395000Y-117688750D02*
X101395000Y-118888750D01*
X101395000Y-118888750D02*
X104295000Y-118888750D01*
X101795000Y-117288750D02*
X101395000Y-117688750D01*
%TO.C,C16*%
X35930000Y-117780000D02*
X37930000Y-117780000D01*
X37930000Y-116530000D02*
X35930000Y-116530000D01*
X37930000Y-117780000D02*
X37930000Y-116530000D01*
X35930000Y-116530000D02*
X35930000Y-117780000D01*
%TO.C,C1*%
X49312500Y-146140000D02*
X49312500Y-147390000D01*
X51312500Y-147390000D02*
X51312500Y-146140000D01*
X49312500Y-147390000D02*
X51312500Y-147390000D01*
X51312500Y-146140000D02*
X49312500Y-146140000D01*
%TO.C,C17*%
X35925000Y-120800000D02*
X37925000Y-120800000D01*
X37925000Y-119550000D02*
X35925000Y-119550000D01*
X37925000Y-120800000D02*
X37925000Y-119550000D01*
X35925000Y-119550000D02*
X35925000Y-120800000D01*
%TO.C,R21*%
X24975000Y-107765000D02*
X26975000Y-107765000D01*
X24975000Y-106515000D02*
X24975000Y-107765000D01*
X26975000Y-106515000D02*
X24975000Y-106515000D01*
X26975000Y-107765000D02*
X26975000Y-106515000D01*
%TO.C,C21*%
X35300000Y-134800000D02*
X35300000Y-136050000D01*
X37300000Y-136050000D02*
X37300000Y-134800000D01*
X37300000Y-134800000D02*
X35300000Y-134800000D01*
X35300000Y-136050000D02*
X37300000Y-136050000D01*
%TO.C,U5*%
X110075000Y-132691000D02*
X111875000Y-132691000D01*
X111875000Y-131291000D02*
X111875000Y-132691000D01*
X110075000Y-131791000D02*
X110075000Y-132691000D01*
X110575000Y-131291000D02*
X111875000Y-131291000D01*
X110075000Y-131791000D02*
X110575000Y-131291000D01*
%TO.C,D1*%
X50747500Y-143795000D02*
X50947500Y-143795000D01*
X49547500Y-143095000D02*
X49547500Y-144495000D01*
X51347500Y-144495000D02*
X51347500Y-143095000D01*
X49547500Y-144495000D02*
X51347500Y-144495000D01*
X51347500Y-143095000D02*
X49547500Y-143095000D01*
X50247500Y-144145000D02*
X50747500Y-143795000D01*
X50247500Y-143795000D02*
X49997500Y-143795000D01*
X50247500Y-143445000D02*
X50247500Y-144145000D01*
X50747500Y-143445000D02*
X50747500Y-144145000D01*
X50747500Y-143795000D02*
X50247500Y-143445000D01*
%TO.C,R22*%
X26947500Y-101920000D02*
X26947500Y-100670000D01*
X26947500Y-100670000D02*
X24947500Y-100670000D01*
X24947500Y-101920000D02*
X26947500Y-101920000D01*
X24947500Y-100670000D02*
X24947500Y-101920000D01*
%TO.C,R7*%
X80560000Y-130506000D02*
X80560000Y-133706000D01*
X80560000Y-133706000D02*
X82160000Y-133706000D01*
X82160000Y-133706000D02*
X82160000Y-130506000D01*
X82160000Y-130506000D02*
X80560000Y-130506000D01*
%TO.C,D9*%
X102150000Y-113513750D02*
X101550000Y-113913750D01*
X102150000Y-113913750D02*
X102650000Y-113913750D01*
X103550000Y-114713750D02*
X103550000Y-113113750D01*
X101550000Y-113913750D02*
X101550000Y-114463750D01*
X100250000Y-114713750D02*
X103550000Y-114713750D01*
X101550000Y-113913750D02*
X101550000Y-113363750D01*
X103550000Y-113113750D02*
X100250000Y-113113750D01*
X101150000Y-113913750D02*
X101550000Y-113913750D01*
X101550000Y-113913750D02*
X102150000Y-114313750D01*
X102150000Y-114313750D02*
X102150000Y-113513750D01*
X100250000Y-113113750D02*
X100250000Y-114713750D01*
%TO.C,R20*%
X26967500Y-110755000D02*
X26967500Y-109505000D01*
X24967500Y-109505000D02*
X24967500Y-110755000D01*
X26967500Y-109505000D02*
X24967500Y-109505000D01*
X24967500Y-110755000D02*
X26967500Y-110755000D01*
%TO.C,C10*%
X109780000Y-128241000D02*
X109780000Y-129491000D01*
X109780000Y-129491000D02*
X111780000Y-129491000D01*
X111780000Y-128241000D02*
X109780000Y-128241000D01*
X111780000Y-129491000D02*
X111780000Y-128241000D01*
%TO.C,C5*%
X49985000Y-75915000D02*
X51235000Y-75915000D01*
X51235000Y-73915000D02*
X49985000Y-73915000D01*
X51235000Y-75915000D02*
X51235000Y-73915000D01*
X49985000Y-73915000D02*
X49985000Y-75915000D01*
%TO.C,R4*%
X59260000Y-71562500D02*
X60510000Y-71562500D01*
X60510000Y-71562500D02*
X60510000Y-69562500D01*
X60510000Y-69562500D02*
X59260000Y-69562500D01*
X59260000Y-69562500D02*
X59260000Y-71562500D01*
%TO.C,R19*%
X24972500Y-103625000D02*
X24972500Y-104875000D01*
X24972500Y-104875000D02*
X26972500Y-104875000D01*
X26972500Y-103625000D02*
X24972500Y-103625000D01*
X26972500Y-104875000D02*
X26972500Y-103625000D01*
%TO.C,C3*%
X27700000Y-64735000D02*
X28950000Y-64735000D01*
X27700000Y-62735000D02*
X27700000Y-64735000D01*
X28950000Y-64735000D02*
X28950000Y-62735000D01*
X28950000Y-62735000D02*
X27700000Y-62735000D01*
%TO.C,R18*%
X26975000Y-99045000D02*
X26975000Y-97795000D01*
X24975000Y-97795000D02*
X24975000Y-99045000D01*
X26975000Y-97795000D02*
X24975000Y-97795000D01*
X24975000Y-99045000D02*
X26975000Y-99045000D01*
%TD*%
M02*
