M48
; DRILL file {KiCad (6.0.1)} date Fri Feb  4 14:14:20 2022
; FORMAT={-:-/ absolute / inch / decimal}
; #@! TF.CreationDate,2022-02-04T14:14:20-06:00
; #@! TF.GenerationSoftware,Kicad,Pcbnew,(6.0.1)
; #@! TF.FileFunction,Plated,1,2,PTH
FMAT,2
INCH
; #@! TA.AperFunction,Plated,PTH,ViaDrill
T1C0.0118
; #@! TA.AperFunction,Plated,PTH,ViaDrill
T2C0.0157
; #@! TA.AperFunction,Plated,PTH,ViaDrill
T3C0.0197
; #@! TA.AperFunction,Plated,PTH,ComponentDrill
T4C0.0394
; #@! TA.AperFunction,Plated,PTH,ComponentDrill
T5C0.0402
; #@! TA.AperFunction,Plated,PTH,ComponentDrill
T6C0.0433
; #@! TA.AperFunction,Plated,PTH,ComponentDrill
T7C0.0520
; #@! TA.AperFunction,Plated,PTH,ComponentDrill
T8C0.0551
; #@! TA.AperFunction,Plated,PTH,ComponentDrill
T9C0.0591
; #@! TA.AperFunction,Plated,PTH,ComponentDrill
T10C0.0748
; #@! TA.AperFunction,Plated,PTH,ComponentDrill
T11C0.0787
; #@! TA.AperFunction,Plated,PTH,ComponentDrill
T12C0.0984
%
G90
G05
T1
X0.8569Y-3.3594
X0.9567Y-3.3594
X0.9853Y-4.3358
X0.9856Y-3.988
X0.9866Y-4.1043
X0.9867Y-3.7602
X0.9867Y-3.8748
X0.9867Y-4.2181
X1.0344Y-3.6831
X1.0768Y-3.6821
X1.0892Y-3.175
X1.1118Y-3.8488
X1.1134Y-4.1866
X1.1138Y-3.9018
X1.114Y-4.1309
X1.1144Y-4.2346
X1.1144Y-4.3941
X1.1148Y-3.963
X1.1148Y-4.0195
X1.115Y-4.0864
X1.1881Y-5.3313
X1.2165Y-4.7333
X1.2516Y-5.1051
X1.2599Y-5.3313
X1.2776Y-5.536
X1.315Y-5.6098
X1.3191Y-4.7315
X1.3203Y-4.6142
X1.3301Y-5.1051
X1.3319Y-4.0848
X1.3524Y-5.536
X1.3659Y-4.5453
X1.3917Y-5.3317
X1.3917Y-5.4297
X1.4075Y-4.0835
X1.4089Y-5.1051
X1.4665Y-5.3317
X1.4665Y-5.4297
X1.488Y-5.1049
X1.4909Y-4.4939
X1.4911Y-4.7313
X1.4913Y-4.6124
X1.5671Y-5.1051
X1.5917Y-4.6108
X1.5919Y-4.7305
X1.5935Y-4.0825
X1.6093Y-5.3386
X1.6098Y-5.4222
X1.6177Y-4.9309
X1.6463Y-5.1051
X1.6663Y-4.9321
X1.6667Y-4.7305
X1.6835Y-4.0833
X1.6974Y-5.338
X1.6974Y-5.4217
X1.9931Y-2.8069
X1.9939Y-4.7012
X2.068Y-4.7715
X2.0778Y-4.5055
X2.0785Y-4.4425
X2.0811Y-3.6264
X2.0811Y-3.8079
X2.0823Y-4.0128
X2.0844Y-3.9132
X2.1094Y-2.7431
X2.1684Y-5.5569
X2.2012Y-4.5071
X2.2018Y-4.4435
X2.2236Y-4.1537
X2.2258Y-4.0579
X2.2422Y-5.5569
X2.2831Y-4.5683
X2.2839Y-4.4012
X2.3494Y-4.401
X2.3506Y-4.5675
X2.4281Y-4.9469
X2.4281Y-5.0368
X2.4927Y-4.9484
X2.4939Y-5.037
X2.5026Y-4.4452
X2.5222Y-4.8939
X2.5687Y-4.5646
X2.5687Y-4.7693
X2.6435Y-4.6547
X2.7506Y-4.6719
X2.7882Y-5.0388
X3.0136Y-5.3514
X3.0372Y-5.0843
X3.114Y-5.1439
X3.839Y-5.6618
X3.8392Y-5.7953
X3.9142Y-4.6041
X3.9146Y-4.9354
X3.9146Y-5.0337
X4.0116Y-4.6044
X4.0116Y-4.8061
X4.0453Y-5.5362
X4.087Y-4.6938
X4.139Y-1.863
X4.1935Y-4.7127
X4.3988Y-5.0735
X4.5228Y-1.6278
X5.3488Y-5.6596
X5.3492Y-5.8031
T2
X1.1152Y-2.5467
X1.1152Y-2.6551
X2.1154Y-3.2551
X3.0728Y-5.2758
X3.4339Y-4.9868
X3.7496Y-4.9888
T3
X1.6396Y-4.4963
X1.6398Y-4.3624
X1.9069Y-4.9872
X1.9925Y-2.912
X1.9933Y-3.1429
X2.0988Y-5.1344
X2.0988Y-5.2762
X2.1406Y-4.899
X2.2346Y-2.7033
X2.2531Y-3.2551
X2.2537Y-3.0244
X2.3069Y-5.2874
X2.3577Y-2.7421
T4
X1.5679Y-5.5756
X1.6679Y-5.5756
X1.9428Y-5.8935
X2.0428Y-5.8935
X2.1428Y-5.8935
X2.2428Y-5.8935
T5
X0.9152Y-2.4295
X0.9152Y-2.5476
X1.2033Y-3.136
X1.2033Y-3.236
X1.2033Y-3.336
X1.2033Y-3.436
X1.2033Y-3.536
X1.2033Y-3.636
X1.2033Y-3.736
X1.2033Y-3.836
X1.2033Y-3.936
X1.2033Y-4.036
X1.2033Y-4.136
X1.2033Y-4.236
X1.2033Y-4.336
X1.2033Y-4.436
X1.2033Y-4.536
X1.2516Y-6.1798
X1.2518Y-5.8334
X1.3697Y-6.1798
X1.3699Y-5.8334
X1.4878Y-6.1798
X1.488Y-5.8334
X1.6059Y-6.1798
X1.6061Y-5.8334
X1.8033Y-3.136
X1.8033Y-3.236
X1.8033Y-3.336
X1.8033Y-3.436
X1.8033Y-3.536
X1.8033Y-3.636
X1.8033Y-3.736
X1.8033Y-3.836
X1.8033Y-3.936
X1.8033Y-4.036
X1.8033Y-4.136
X1.8033Y-4.236
X1.8033Y-4.336
X1.8033Y-4.436
X1.8033Y-4.536
X2.0056Y-6.1766
X2.1237Y-6.1766
T6
X0.8272Y-2.8343
X0.8272Y-3.0902
X1.0043Y-2.8343
X1.0043Y-3.0902
X3.3051Y-2.9807
X3.3051Y-3.3565
X3.5051Y-2.9807
X3.5051Y-3.3565
X3.5539Y-1.6498
X3.5539Y-1.8498
X3.9291Y-1.6498
X3.9291Y-1.8498
X4.3691Y-1.627
X4.9596Y-1.627
T7
X2.9541Y-5.5549
X2.9541Y-5.7549
X2.9541Y-5.8549
X3.2541Y-5.5549
X3.2541Y-5.7549
X3.2541Y-5.8549
X4.4219Y-5.5575
X4.4219Y-5.7575
X4.4219Y-5.8575
X4.7219Y-5.5575
X4.7219Y-5.7575
X4.7219Y-5.8575
T8
X2.6396Y-5.1951
X3.5884Y-5.1951
X3.9988Y-5.1919
X4.9476Y-5.1919
T9
X2.501Y-1.5327
X2.501Y-1.7472
X2.501Y-1.9618
X2.8124Y-1.5315
X2.8124Y-1.7461
X2.8124Y-1.9606
T10
X4.4012Y-2.7478
X5.2594Y-2.7478
T11
X2.9222Y-4.3364
X3.3159Y-4.3364
X4.55Y-4.3478
X4.9437Y-4.3478
T12
X2.6587Y-1.2474
X2.6587Y-2.2474
X2.9049Y-3.1683
X3.7427Y-1.2476
X3.7427Y-2.2476
X3.9049Y-3.1683
T0
M30
