M48
; DRILL file {KiCad 5.1.6-c6e7f7d~87~ubuntu18.04.1} date Sat Sep  5 21:12:07 2020
; FORMAT={-:-/ absolute / metric / decimal}
; #@! TF.CreationDate,2020-09-05T21:12:07-05:00
; #@! TF.GenerationSoftware,Kicad,Pcbnew,5.1.6-c6e7f7d~87~ubuntu18.04.1
; #@! TF.FileFunction,Plated,1,2,PTH
FMAT,2
METRIC
T1C0.400
T2C0.500
T3C0.800
T4C1.000
T5C1.020
T6C1.021
T7C1.100
T8C1.200
T9C1.270
T10C1.321
T11C1.500
T12C1.600
T13C1.900
T14C2.000
T15C2.500
%
G90
G05
T1
X55.245Y-89.535
X62.865Y-88.9
X62.865Y-92.71
X62.865Y-99.06
X64.135Y-83.82
X64.135Y-88.265
X64.77Y-84.455
X64.77Y-87.63
X64.77Y-106.68
X66.04Y-85.725
X66.04Y-88.9
X66.675Y-87.63
X68.58Y-99.06
X69.85Y-57.785
X73.27Y-113.765
X80.01Y-121.285
X80.01Y-125.095
X84.455Y-113.665
X91.44Y-113.665
X98.425Y-113.665
X99.06Y-123.825
X99.06Y-131.953
X118.745Y-130.81
X125.095Y-128.905
X125.095Y-131.445
X135.255Y-124.46
X135.255Y-128.27
X138.43Y-123.19
X138.43Y-125.73
X138.43Y-130.81
X138.43Y-132.08
X144.145Y-130.81
X144.145Y-132.08
X147.955Y-122.555
X147.955Y-129.54
X147.955Y-134.62
X149.225Y-125.095
X150.495Y-130.81
X151.765Y-128.905
X151.765Y-132.08
X159.385Y-131.445
X160.655Y-125.095
T2
X56.515Y-128.905
X59.055Y-127.0
X74.93Y-51.435
X81.15Y-104.315
X81.95Y-114.44
X84.15Y-107.015
X104.05Y-111.415
X106.997Y-110.362
X107.251Y-112.016
X110.49Y-137.795
X110.49Y-140.97
X110.49Y-144.145
X116.205Y-106.68
X116.205Y-127.635
X120.015Y-115.57
X120.015Y-129.54
X121.285Y-123.19
X122.555Y-121.92
X125.095Y-127.0
X125.73Y-134.62
X127.635Y-115.57
X154.305Y-106.68
X156.21Y-83.82
X159.385Y-82.55
X160.02Y-107.95
X165.862Y-93.091
X166.37Y-110.49
T3
X87.63Y-136.779
X87.63Y-144.399
X90.17Y-136.779
X90.17Y-144.399
X92.71Y-136.779
X92.71Y-144.399
X95.25Y-136.779
X95.25Y-144.399
T4
X151.765Y-121.92
X154.305Y-121.92
X42.545Y-140.335
X45.085Y-140.335
X47.625Y-140.335
X52.705Y-140.335
X55.245Y-140.335
X57.785Y-140.335
X60.325Y-140.335
X135.255Y-50.165
X140.335Y-50.165
X179.578Y-42.799
X184.658Y-42.799
X135.255Y-42.545
X140.335Y-42.545
X175.006Y-95.711
X175.006Y-100.711
T5
X34.29Y-131.445
X34.29Y-134.445
X173.99Y-123.825
X173.99Y-126.825
X173.99Y-129.825
X173.99Y-132.825
X165.1Y-123.825
X165.1Y-126.825
X165.1Y-129.825
X165.1Y-132.825
T6
X74.93Y-117.983
X74.93Y-133.223
X77.47Y-117.983
X77.47Y-133.223
X80.01Y-117.983
X80.01Y-133.223
X82.55Y-117.983
X82.55Y-133.223
X85.09Y-117.983
X85.09Y-133.223
X87.63Y-117.983
X87.63Y-133.223
X90.17Y-117.983
X90.17Y-133.223
X92.71Y-117.983
X92.71Y-133.223
X95.25Y-117.983
X95.25Y-133.223
X97.79Y-117.983
X97.79Y-133.223
X100.33Y-117.983
X100.33Y-133.223
X102.87Y-117.983
X102.87Y-133.223
X105.41Y-117.983
X105.41Y-133.223
X107.95Y-117.983
X107.95Y-133.223
X110.49Y-117.983
X110.49Y-133.223
T7
X43.18Y-124.46
X71.12Y-137.01
X71.12Y-143.51
X75.62Y-137.01
X75.62Y-143.51
T8
X164.19Y-76.835
X186.69Y-76.835
X163.83Y-64.135
X186.23Y-64.135
T9
X57.785Y-41.275
X57.785Y-65.405
T10
X40.64Y-77.47
X40.64Y-85.09
X40.64Y-92.71
X43.18Y-77.47
X43.18Y-85.09
X43.18Y-92.71
X48.26Y-77.47
X48.26Y-85.09
X48.26Y-92.71
X40.64Y-43.815
X40.64Y-51.435
X43.18Y-43.815
X43.18Y-51.435
X48.26Y-43.815
X48.26Y-51.435
T11
X141.605Y-79.386
X141.605Y-84.836
X141.605Y-90.286
X149.225Y-79.386
X149.225Y-84.836
X149.225Y-90.286
T12
X66.04Y-60.96
X54.61Y-100.33
X102.235Y-102.87
X141.224Y-116.078
X34.29Y-123.19
X156.21Y-139.7
X54.61Y-72.39
X70.73Y-102.97
X140.97Y-139.7
X77.08Y-102.97
X88.265Y-102.87
X193.294Y-70.739
X126.365Y-118.11
X168.91Y-89.027
X95.25Y-102.87
X57.785Y-118.11
X135.89Y-139.7
X136.144Y-116.078
X121.285Y-118.11
X193.294Y-80.899
X151.13Y-139.7
X176.53Y-106.299
X66.04Y-35.56
X34.29Y-117.475
X193.294Y-75.819
X181.102Y-106.299
X179.07Y-89.027
X63.5Y-118.11
T13
X108.585Y-84.836
X130.385Y-84.836
T14
X88.265Y-77.47
X88.265Y-86.47
X100.33Y-43.07
X100.33Y-52.07
T15
X124.85Y-46.315
X145.25Y-72.115
X145.25Y-97.515
X169.35Y-46.615
X194.75Y-46.615
X150.25Y-46.315
T0
M30
