M48
; DRILL file {KiCad (5.1.9)-1} date 04/03/21 20:29:21
; FORMAT={-:-/ absolute / inch / decimal}
; #@! TF.CreationDate,2021-04-03T20:29:21-05:00
; #@! TF.GenerationSoftware,Kicad,Pcbnew,(5.1.9)-1
; #@! TF.FileFunction,Plated,1,2,PTH
FMAT,2
INCH
T1C0.0157
T2C0.0197
T3C0.0394
T4C0.0402
T5C0.0433
T6C0.0520
T7C0.0551
T8C0.0591
T9C0.0630
T10C0.0748
T11C0.0787
T12C0.0984
%
G90
G05
T1
X0.9238Y-2.365
X0.973Y-2.3689
X1.0715Y-2.6567
X1.1242Y-2.3654
X1.1738Y-2.3673
X1.2037Y-2.3461
X1.273Y-2.3705
X1.6992Y-4.8018
X1.8396Y-3.0317
X1.9045Y-3.0307
X1.9563Y-3.0325
X2.1555Y-2.8809
X2.9079Y-4.1868
X3.3711Y-5.0829
X4.2067Y-5.0813
X4.7858Y-5.0793
T2
X0.8618Y-2.7337
X0.9071Y-2.7317
X0.9557Y-2.9907
X0.9577Y-2.7319
X1.0262Y-2.7299
X1.0551Y-2.9907
X1.0941Y-4.1167
X1.0945Y-4.4018
X1.1246Y-2.7311
X1.128Y-4.727
X1.128Y-4.8435
X1.1283Y-4.9624
X1.1291Y-4.4911
X1.1291Y-4.6073
X1.1291Y-5.0797
X1.3022Y-5.5996
X1.3583Y-5.7856
X1.3622Y-6.0868
X1.6703Y-4.7266
X1.7441Y-4.7413
X1.8337Y-3.6793
X1.8376Y-3.072
X1.8406Y-3.1173
X1.9144Y-4.5878
X1.9163Y-4.4854
X1.9961Y-2.6797
X1.997Y-3.1163
X2.0Y-3.0711
X2.0264Y-2.3124
X2.0285Y-3.6793
X2.0433Y-3.0307
X2.0433Y-3.1154
X2.1055Y-2.5148
X2.1555Y-2.6827
X2.2555Y-2.5167
X2.2579Y-2.4337
X2.2862Y-2.3053
X2.3244Y-2.7935
X2.3276Y-2.9707
X2.3494Y-4.7797
X2.3967Y-3.9411
X2.4154Y-4.6429
X2.5689Y-4.5376
X2.5811Y-3.8301
X2.7161Y-3.8293
X2.7559Y-5.3998
X2.8904Y-5.3925
X2.8947Y-4.5327
X2.8947Y-4.6852
X2.9213Y-3.8301
X2.9213Y-3.9821
X3.0159Y-5.3563
X3.4724Y-5.0071
X3.4734Y-4.9638
X3.6181Y-5.5238
X4.1634Y-5.4205
X4.2372Y-5.4185
X4.3744Y-5.3935
X4.4945Y-5.3565
T3
X0.8823Y-2.2634
X0.9823Y-2.2634
X1.4667Y-5.3315
X1.5667Y-5.3315
X1.6667Y-5.3315
X1.8667Y-5.3315
X1.9667Y-5.3315
X2.0667Y-5.3315
X2.1667Y-5.3315
T4
X0.938Y-1.6945
X0.938Y-2.0031
X1.0561Y-1.6945
X1.0561Y-2.0031
X1.1742Y-1.6945
X1.1742Y-2.0031
X1.2923Y-1.6945
X1.2923Y-2.0031
X1.5274Y-6.1433
X1.5854Y-3.4791
X1.5854Y-3.5791
X1.5854Y-3.6791
X1.5854Y-3.7791
X1.5854Y-3.8791
X1.5854Y-3.9791
X1.5854Y-4.0791
X1.5854Y-4.1791
X1.5854Y-4.2791
X1.5854Y-4.3791
X1.5854Y-4.4791
X1.5854Y-4.5791
X1.5854Y-4.6791
X1.5854Y-4.7791
X1.5854Y-4.8791
X1.6455Y-6.1433
X2.1854Y-3.4791
X2.1854Y-3.5791
X2.1854Y-3.6791
X2.1854Y-3.7791
X2.1854Y-3.8791
X2.1854Y-3.9791
X2.1854Y-4.0791
X2.1854Y-4.1791
X2.1854Y-4.2791
X2.1854Y-4.3791
X2.1854Y-4.4791
X2.1854Y-4.5791
X2.1854Y-4.6791
X2.1854Y-4.7791
X2.1854Y-4.8791
T5
X1.2333Y-3.7522
X1.2333Y-4.0081
X1.4104Y-3.7522
X1.4104Y-4.0081
X3.4395Y-3.0088
X3.4395Y-3.3688
X3.6395Y-3.0088
X3.6395Y-3.3688
X3.7484Y-1.6526
X3.7484Y-1.8526
X4.1193Y-1.653
X4.1193Y-1.853
X4.6819Y-1.1124
X4.6819Y-1.703
T6
X2.9344Y-5.6559
X2.9344Y-5.8559
X2.9344Y-5.9559
X3.2344Y-5.6559
X3.2344Y-5.8559
X3.2344Y-5.9559
X4.4091Y-5.6561
X4.4091Y-5.8561
X4.4091Y-5.9561
X4.7091Y-5.6561
X4.7091Y-5.8561
X4.7091Y-5.9561
T7
X2.5065Y-5.2945
X3.4553Y-5.2945
X3.9819Y-5.2931
X4.9307Y-5.2931
T8
X2.6756Y-1.5325
X2.6756Y-1.747
X2.6756Y-1.9616
X2.9823Y-1.5325
X2.9823Y-1.747
X2.9823Y-1.9616
T9
X1.2992Y-2.9711
X1.5571Y-2.9337
X1.5587Y-2.7358
X1.56Y-1.7329
X1.561Y-2.535
X1.562Y-1.9366
X1.564Y-2.1364
X1.564Y-2.3362
X1.8494Y-5.7114
X1.9163Y-6.1752
X1.9524Y-2.8656
X2.1067Y-2.1376
X2.1829Y-5.8961
X2.1829Y-6.1776
X2.4433Y-2.7659
X2.4465Y-2.9644
X2.5073Y-3.5764
X2.6394Y-4.9415
X2.6402Y-4.197
X2.8283Y-4.3703
X2.9823Y-4.89
X3.6732Y-5.3585
X3.8209Y-6.0652
X5.0094Y-1.4006
X5.0106Y-1.6608
X5.011Y-1.1404
X5.1486Y-5.3614
X5.2963Y-5.9825
T10
X4.5654Y-2.7659
X5.4236Y-2.7659
T11
X3.4161Y-4.3959
X3.8098Y-4.3959
X4.7185Y-4.3939
X5.1122Y-4.3939
T12
X2.8307Y-1.2488
X2.8307Y-2.2488
X3.0395Y-3.1888
X3.9339Y-1.2526
X3.9339Y-2.2526
X4.0395Y-3.1888
T0
M30
