%TF.GenerationSoftware,KiCad,Pcbnew,(5.1.9)-1*%
%TF.CreationDate,2021-04-03T20:29:17-05:00*%
%TF.ProjectId,MPPT,4d505054-2e6b-4696-9361-645f70636258,1.3.0*%
%TF.SameCoordinates,Original*%
%TF.FileFunction,Legend,Bot*%
%TF.FilePolarity,Positive*%
%FSLAX46Y46*%
G04 Gerber Fmt 4.6, Leading zero omitted, Abs format (unit mm)*
G04 Created by KiCad (PCBNEW (5.1.9)-1) date 2021-04-03 20:29:17*
%MOMM*%
%LPD*%
G01*
G04 APERTURE LIST*
%ADD10C,0.300000*%
%ADD11C,0.150000*%
%ADD12C,0.010000*%
%ADD13C,0.120000*%
%ADD14R,1.100000X1.100000*%
%ADD15C,2.200000*%
%ADD16O,2.000000X2.000000*%
%ADD17R,2.000000X2.000000*%
%ADD18C,2.800000*%
%ADD19C,4.000000*%
%ADD20C,3.200000*%
%ADD21C,2.000000*%
%ADD22R,0.400000X0.700000*%
%ADD23C,1.508000*%
%ADD24R,1.508000X1.508000*%
%ADD25O,1.700000X1.700000*%
%ADD26R,1.700000X1.700000*%
%ADD27O,1.500000X2.020000*%
%ADD28C,1.270000*%
%ADD29O,4.500000X2.500000*%
%ADD30R,4.500000X2.500000*%
%ADD31C,3.800000*%
%ADD32C,2.286000*%
%ADD33R,1.530000X1.530000*%
%ADD34C,1.530000*%
%ADD35C,2.500000*%
%ADD36R,4.000000X4.000000*%
G04 APERTURE END LIST*
D10*
X52060000Y-71180714D02*
X52155238Y-71085476D01*
X52060000Y-70990238D01*
X51964761Y-71085476D01*
X52060000Y-71180714D01*
X52060000Y-70990238D01*
X53050000Y-75570714D02*
X53145238Y-75475476D01*
X53050000Y-75380238D01*
X52954761Y-75475476D01*
X53050000Y-75570714D01*
X53050000Y-75380238D01*
X67080000Y-104290714D02*
X67175238Y-104195476D01*
X67080000Y-104100238D01*
X66984761Y-104195476D01*
X67080000Y-104290714D01*
X67080000Y-104100238D01*
X63630000Y-104370714D02*
X63725238Y-104275476D01*
X63630000Y-104180238D01*
X63534761Y-104275476D01*
X63630000Y-104370714D01*
X63630000Y-104180238D01*
X67240000Y-123280714D02*
X67335238Y-123185476D01*
X67240000Y-123090238D01*
X67144761Y-123185476D01*
X67240000Y-123280714D01*
X67240000Y-123090238D01*
X63500000Y-123290714D02*
X63595238Y-123195476D01*
X63500000Y-123100238D01*
X63404761Y-123195476D01*
X63500000Y-123290714D01*
X63500000Y-123100238D01*
X111150000Y-136140714D02*
X111245238Y-136045476D01*
X111150000Y-135950238D01*
X111054761Y-136045476D01*
X111150000Y-136140714D01*
X111150000Y-135950238D01*
X73410000Y-136080714D02*
X73505238Y-135985476D01*
X73410000Y-135890238D01*
X73314761Y-135985476D01*
X73410000Y-136080714D01*
X73410000Y-135890238D01*
D11*
X74363571Y-139565714D02*
X74363571Y-138958571D01*
X74399285Y-138887142D01*
X74435000Y-138851428D01*
X74506428Y-138815714D01*
X74649285Y-138815714D01*
X74720714Y-138851428D01*
X74756428Y-138887142D01*
X74792142Y-138958571D01*
X74792142Y-139565714D01*
X75506428Y-139565714D02*
X75149285Y-139565714D01*
X75113571Y-139208571D01*
X75149285Y-139244285D01*
X75220714Y-139280000D01*
X75399285Y-139280000D01*
X75470714Y-139244285D01*
X75506428Y-139208571D01*
X75542142Y-139137142D01*
X75542142Y-138958571D01*
X75506428Y-138887142D01*
X75470714Y-138851428D01*
X75399285Y-138815714D01*
X75220714Y-138815714D01*
X75149285Y-138851428D01*
X75113571Y-138887142D01*
X112078571Y-139465714D02*
X112078571Y-138858571D01*
X112114285Y-138787142D01*
X112150000Y-138751428D01*
X112221428Y-138715714D01*
X112364285Y-138715714D01*
X112435714Y-138751428D01*
X112471428Y-138787142D01*
X112507142Y-138858571D01*
X112507142Y-139465714D01*
X113185714Y-139215714D02*
X113185714Y-138715714D01*
X113007142Y-139501428D02*
X112828571Y-138965714D01*
X113292857Y-138965714D01*
D12*
%TO.C,G\u002A\u002A\u002A*%
G36*
X32594978Y-24332039D02*
G01*
X32287332Y-24414318D01*
X31660758Y-24688482D01*
X31056490Y-25108275D01*
X30507655Y-25650341D01*
X30468230Y-25696975D01*
X30255568Y-25962321D01*
X30085188Y-26194225D01*
X29977457Y-26362853D01*
X29952740Y-26438370D01*
X29961521Y-26439302D01*
X30032702Y-26385987D01*
X30201084Y-26249039D01*
X30434831Y-26054479D01*
X30520441Y-25982442D01*
X31232867Y-25453873D01*
X31950105Y-25073433D01*
X32686574Y-24839838D01*
X33456691Y-24751807D01*
X34274873Y-24808057D01*
X35155537Y-25007308D01*
X36113103Y-25348276D01*
X36379686Y-25461400D01*
X36748483Y-25616373D01*
X36973585Y-25697557D01*
X37061145Y-25710023D01*
X37017317Y-25658842D01*
X36848254Y-25549085D01*
X36560110Y-25385824D01*
X36159038Y-25174130D01*
X35827666Y-25006458D01*
X35048536Y-24649603D01*
X34362342Y-24408189D01*
X33742445Y-24277760D01*
X33162203Y-24253863D01*
X32594978Y-24332039D01*
G37*
X32594978Y-24332039D02*
X32287332Y-24414318D01*
X31660758Y-24688482D01*
X31056490Y-25108275D01*
X30507655Y-25650341D01*
X30468230Y-25696975D01*
X30255568Y-25962321D01*
X30085188Y-26194225D01*
X29977457Y-26362853D01*
X29952740Y-26438370D01*
X29961521Y-26439302D01*
X30032702Y-26385987D01*
X30201084Y-26249039D01*
X30434831Y-26054479D01*
X30520441Y-25982442D01*
X31232867Y-25453873D01*
X31950105Y-25073433D01*
X32686574Y-24839838D01*
X33456691Y-24751807D01*
X34274873Y-24808057D01*
X35155537Y-25007308D01*
X36113103Y-25348276D01*
X36379686Y-25461400D01*
X36748483Y-25616373D01*
X36973585Y-25697557D01*
X37061145Y-25710023D01*
X37017317Y-25658842D01*
X36848254Y-25549085D01*
X36560110Y-25385824D01*
X36159038Y-25174130D01*
X35827666Y-25006458D01*
X35048536Y-24649603D01*
X34362342Y-24408189D01*
X33742445Y-24277760D01*
X33162203Y-24253863D01*
X32594978Y-24332039D01*
G36*
X36482000Y-27723171D02*
G01*
X36291456Y-27750224D01*
X36227025Y-27799973D01*
X36229409Y-27820834D01*
X36332111Y-27916847D01*
X36448132Y-27953722D01*
X36591636Y-28025816D01*
X36633156Y-28207722D01*
X36662487Y-28522587D01*
X36738927Y-28736292D01*
X36850568Y-28815663D01*
X36851425Y-28815667D01*
X36911787Y-28790620D01*
X36933041Y-28695418D01*
X36914963Y-28499973D01*
X36857327Y-28174193D01*
X36846225Y-28117167D01*
X36878456Y-27992742D01*
X36971537Y-27969000D01*
X37117642Y-27923815D01*
X37157716Y-27873517D01*
X37208831Y-27893527D01*
X37313855Y-28035276D01*
X37451098Y-28268984D01*
X37466070Y-28296851D01*
X37619682Y-28555806D01*
X37759732Y-28741760D01*
X37856620Y-28815593D01*
X37858624Y-28815667D01*
X37948170Y-28738915D01*
X38048572Y-28534296D01*
X38107659Y-28358136D01*
X38196341Y-28035851D01*
X38231640Y-27842502D01*
X38213933Y-27746449D01*
X38143594Y-27716054D01*
X38115280Y-27715000D01*
X38008358Y-27787943D01*
X37938875Y-27947834D01*
X37872079Y-28217998D01*
X37812903Y-28329036D01*
X37741520Y-28288914D01*
X37638103Y-28105599D01*
X37622833Y-28074834D01*
X37445306Y-27715000D01*
X36819931Y-27715000D01*
X36482000Y-27723171D01*
G37*
X36482000Y-27723171D02*
X36291456Y-27750224D01*
X36227025Y-27799973D01*
X36229409Y-27820834D01*
X36332111Y-27916847D01*
X36448132Y-27953722D01*
X36591636Y-28025816D01*
X36633156Y-28207722D01*
X36662487Y-28522587D01*
X36738927Y-28736292D01*
X36850568Y-28815663D01*
X36851425Y-28815667D01*
X36911787Y-28790620D01*
X36933041Y-28695418D01*
X36914963Y-28499973D01*
X36857327Y-28174193D01*
X36846225Y-28117167D01*
X36878456Y-27992742D01*
X36971537Y-27969000D01*
X37117642Y-27923815D01*
X37157716Y-27873517D01*
X37208831Y-27893527D01*
X37313855Y-28035276D01*
X37451098Y-28268984D01*
X37466070Y-28296851D01*
X37619682Y-28555806D01*
X37759732Y-28741760D01*
X37856620Y-28815593D01*
X37858624Y-28815667D01*
X37948170Y-28738915D01*
X38048572Y-28534296D01*
X38107659Y-28358136D01*
X38196341Y-28035851D01*
X38231640Y-27842502D01*
X38213933Y-27746449D01*
X38143594Y-27716054D01*
X38115280Y-27715000D01*
X38008358Y-27787943D01*
X37938875Y-27947834D01*
X37872079Y-28217998D01*
X37812903Y-28329036D01*
X37741520Y-28288914D01*
X37638103Y-28105599D01*
X37622833Y-28074834D01*
X37445306Y-27715000D01*
X36819931Y-27715000D01*
X36482000Y-27723171D01*
G36*
X39413781Y-27728596D02*
G01*
X39283756Y-27775668D01*
X39256666Y-27842000D01*
X39326950Y-27945509D01*
X39423084Y-27969000D01*
X39528805Y-28000175D01*
X39595004Y-28119676D01*
X39642166Y-28366465D01*
X39645658Y-28392334D01*
X39705134Y-28678175D01*
X39788818Y-28806210D01*
X39825852Y-28815667D01*
X39896747Y-28783698D01*
X39917907Y-28663218D01*
X39895064Y-28417366D01*
X39891666Y-28392334D01*
X39865050Y-28138201D01*
X39880819Y-28010507D01*
X39946074Y-27970076D01*
X39968388Y-27969000D01*
X40085657Y-27904644D01*
X40103333Y-27842000D01*
X40058014Y-27762135D01*
X39901106Y-27723127D01*
X39680000Y-27715000D01*
X39413781Y-27728596D01*
G37*
X39413781Y-27728596D02*
X39283756Y-27775668D01*
X39256666Y-27842000D01*
X39326950Y-27945509D01*
X39423084Y-27969000D01*
X39528805Y-28000175D01*
X39595004Y-28119676D01*
X39642166Y-28366465D01*
X39645658Y-28392334D01*
X39705134Y-28678175D01*
X39788818Y-28806210D01*
X39825852Y-28815667D01*
X39896747Y-28783698D01*
X39917907Y-28663218D01*
X39895064Y-28417366D01*
X39891666Y-28392334D01*
X39865050Y-28138201D01*
X39880819Y-28010507D01*
X39946074Y-27970076D01*
X39968388Y-27969000D01*
X40085657Y-27904644D01*
X40103333Y-27842000D01*
X40058014Y-27762135D01*
X39901106Y-27723127D01*
X39680000Y-27715000D01*
X39413781Y-27728596D01*
G36*
X38452865Y-27758696D02*
G01*
X38431588Y-27820834D01*
X38534029Y-27903619D01*
X38664000Y-27926667D01*
X38846081Y-27966982D01*
X38880729Y-28063427D01*
X38762099Y-28179247D01*
X38708526Y-28206596D01*
X38534391Y-28354319D01*
X38509657Y-28543490D01*
X38636231Y-28732372D01*
X38682839Y-28768533D01*
X38893917Y-28882544D01*
X39065081Y-28874270D01*
X39161680Y-28823836D01*
X39242317Y-28722447D01*
X39187074Y-28642410D01*
X39029008Y-28616665D01*
X38962354Y-28625225D01*
X38794282Y-28615631D01*
X38748118Y-28530169D01*
X38827770Y-28414420D01*
X38938672Y-28348910D01*
X39114951Y-28199940D01*
X39157567Y-27999311D01*
X39083958Y-27837933D01*
X38955162Y-27759772D01*
X38768073Y-27719491D01*
X38581153Y-27718621D01*
X38452865Y-27758696D01*
G37*
X38452865Y-27758696D02*
X38431588Y-27820834D01*
X38534029Y-27903619D01*
X38664000Y-27926667D01*
X38846081Y-27966982D01*
X38880729Y-28063427D01*
X38762099Y-28179247D01*
X38708526Y-28206596D01*
X38534391Y-28354319D01*
X38509657Y-28543490D01*
X38636231Y-28732372D01*
X38682839Y-28768533D01*
X38893917Y-28882544D01*
X39065081Y-28874270D01*
X39161680Y-28823836D01*
X39242317Y-28722447D01*
X39187074Y-28642410D01*
X39029008Y-28616665D01*
X38962354Y-28625225D01*
X38794282Y-28615631D01*
X38748118Y-28530169D01*
X38827770Y-28414420D01*
X38938672Y-28348910D01*
X39114951Y-28199940D01*
X39157567Y-27999311D01*
X39083958Y-27837933D01*
X38955162Y-27759772D01*
X38768073Y-27719491D01*
X38581153Y-27718621D01*
X38452865Y-27758696D01*
G36*
X40291383Y-27784315D02*
G01*
X40274686Y-27863167D01*
X40298444Y-28077794D01*
X40353594Y-28337471D01*
X40422892Y-28575123D01*
X40489093Y-28723676D01*
X40498918Y-28735361D01*
X40688991Y-28830001D01*
X40937669Y-28858677D01*
X41140500Y-28810932D01*
X41239141Y-28675585D01*
X41289599Y-28451812D01*
X41294653Y-28191811D01*
X41257081Y-27947782D01*
X41179665Y-27771923D01*
X41082142Y-27715000D01*
X41022474Y-27773109D01*
X41005290Y-27961093D01*
X41017627Y-28188009D01*
X41035826Y-28455789D01*
X41023735Y-28593448D01*
X40967317Y-28639415D01*
X40855260Y-28632509D01*
X40731007Y-28590283D01*
X40652779Y-28478762D01*
X40595202Y-28254613D01*
X40578259Y-28159500D01*
X40508605Y-27873155D01*
X40424235Y-27728690D01*
X40387759Y-27715000D01*
X40291383Y-27784315D01*
G37*
X40291383Y-27784315D02*
X40274686Y-27863167D01*
X40298444Y-28077794D01*
X40353594Y-28337471D01*
X40422892Y-28575123D01*
X40489093Y-28723676D01*
X40498918Y-28735361D01*
X40688991Y-28830001D01*
X40937669Y-28858677D01*
X41140500Y-28810932D01*
X41239141Y-28675585D01*
X41289599Y-28451812D01*
X41294653Y-28191811D01*
X41257081Y-27947782D01*
X41179665Y-27771923D01*
X41082142Y-27715000D01*
X41022474Y-27773109D01*
X41005290Y-27961093D01*
X41017627Y-28188009D01*
X41035826Y-28455789D01*
X41023735Y-28593448D01*
X40967317Y-28639415D01*
X40855260Y-28632509D01*
X40731007Y-28590283D01*
X40652779Y-28478762D01*
X40595202Y-28254613D01*
X40578259Y-28159500D01*
X40508605Y-27873155D01*
X40424235Y-27728690D01*
X40387759Y-27715000D01*
X40291383Y-27784315D01*
G36*
X36866057Y-26470662D02*
G01*
X35251699Y-26524837D01*
X33483779Y-26610813D01*
X31563471Y-26728673D01*
X31298000Y-26746663D01*
X30645054Y-26792680D01*
X29954444Y-26843602D01*
X29276667Y-26895553D01*
X28662222Y-26944655D01*
X28161607Y-26987030D01*
X28123000Y-26990458D01*
X26853000Y-27103801D01*
X28758000Y-27049567D01*
X29574920Y-27029732D01*
X30460947Y-27014324D01*
X31396118Y-27003234D01*
X32360473Y-26996357D01*
X33334050Y-26993585D01*
X34296887Y-26994811D01*
X35229022Y-26999927D01*
X36110493Y-27008828D01*
X36921340Y-27021404D01*
X37641599Y-27037551D01*
X38251310Y-27057159D01*
X38730511Y-27080123D01*
X39045000Y-27104767D01*
X40019560Y-27224425D01*
X40832254Y-27357204D01*
X41490220Y-27505644D01*
X42000594Y-27672283D01*
X42370513Y-27859661D01*
X42607114Y-28070318D01*
X42717533Y-28306793D01*
X42728000Y-28415189D01*
X42678075Y-28657824D01*
X42557500Y-28901887D01*
X42552901Y-28908430D01*
X42454737Y-29060554D01*
X42444275Y-29128634D01*
X42534724Y-29110003D01*
X42739295Y-29001997D01*
X43066666Y-28804745D01*
X43495374Y-28514938D01*
X43859208Y-28220182D01*
X44131715Y-27944932D01*
X44286441Y-27713643D01*
X44305108Y-27659878D01*
X44291021Y-27400570D01*
X44111618Y-27172240D01*
X43768074Y-26974968D01*
X43261565Y-26808839D01*
X42593266Y-26673934D01*
X41764353Y-26570336D01*
X40776000Y-26498127D01*
X39629382Y-26457390D01*
X38325677Y-26448208D01*
X36866057Y-26470662D01*
G37*
X36866057Y-26470662D02*
X35251699Y-26524837D01*
X33483779Y-26610813D01*
X31563471Y-26728673D01*
X31298000Y-26746663D01*
X30645054Y-26792680D01*
X29954444Y-26843602D01*
X29276667Y-26895553D01*
X28662222Y-26944655D01*
X28161607Y-26987030D01*
X28123000Y-26990458D01*
X26853000Y-27103801D01*
X28758000Y-27049567D01*
X29574920Y-27029732D01*
X30460947Y-27014324D01*
X31396118Y-27003234D01*
X32360473Y-26996357D01*
X33334050Y-26993585D01*
X34296887Y-26994811D01*
X35229022Y-26999927D01*
X36110493Y-27008828D01*
X36921340Y-27021404D01*
X37641599Y-27037551D01*
X38251310Y-27057159D01*
X38730511Y-27080123D01*
X39045000Y-27104767D01*
X40019560Y-27224425D01*
X40832254Y-27357204D01*
X41490220Y-27505644D01*
X42000594Y-27672283D01*
X42370513Y-27859661D01*
X42607114Y-28070318D01*
X42717533Y-28306793D01*
X42728000Y-28415189D01*
X42678075Y-28657824D01*
X42557500Y-28901887D01*
X42552901Y-28908430D01*
X42454737Y-29060554D01*
X42444275Y-29128634D01*
X42534724Y-29110003D01*
X42739295Y-29001997D01*
X43066666Y-28804745D01*
X43495374Y-28514938D01*
X43859208Y-28220182D01*
X44131715Y-27944932D01*
X44286441Y-27713643D01*
X44305108Y-27659878D01*
X44291021Y-27400570D01*
X44111618Y-27172240D01*
X43768074Y-26974968D01*
X43261565Y-26808839D01*
X42593266Y-26673934D01*
X41764353Y-26570336D01*
X40776000Y-26498127D01*
X39629382Y-26457390D01*
X38325677Y-26448208D01*
X36866057Y-26470662D01*
G36*
X31643384Y-27309884D02*
G01*
X30876905Y-27391699D01*
X30205679Y-27536139D01*
X30070333Y-27577989D01*
X29433721Y-27834973D01*
X28938334Y-28132975D01*
X28588625Y-28463364D01*
X28389048Y-28817511D01*
X28344056Y-29186786D01*
X28458103Y-29562560D01*
X28735643Y-29936203D01*
X28813941Y-30012501D01*
X29273294Y-30334800D01*
X29855672Y-30576745D01*
X30531566Y-30731518D01*
X31271469Y-30792305D01*
X32026278Y-30754577D01*
X32418741Y-30690619D01*
X32824886Y-30595150D01*
X33096958Y-30509726D01*
X33465756Y-30345908D01*
X33867258Y-30126585D01*
X34250836Y-29883294D01*
X34565862Y-29647570D01*
X34727000Y-29494358D01*
X34896333Y-29300501D01*
X34642333Y-29429686D01*
X33987245Y-29692412D01*
X33243870Y-29872303D01*
X32454552Y-29967579D01*
X31661634Y-29976459D01*
X30907458Y-29897163D01*
X30234368Y-29727909D01*
X29977861Y-29625870D01*
X29551482Y-29383059D01*
X29289786Y-29123225D01*
X29189991Y-28854425D01*
X29249314Y-28584717D01*
X29464973Y-28322160D01*
X29834185Y-28074810D01*
X30354169Y-27850726D01*
X30620666Y-27764350D01*
X31436797Y-27590229D01*
X32339602Y-27517743D01*
X33281306Y-27545587D01*
X34214134Y-27672453D01*
X35055111Y-27885601D01*
X35387390Y-27988953D01*
X35652869Y-28064913D01*
X35815026Y-28103382D01*
X35847242Y-28104647D01*
X35804995Y-28050450D01*
X35631425Y-27963737D01*
X35358765Y-27855844D01*
X35019248Y-27738111D01*
X34645106Y-27621876D01*
X34268572Y-27518478D01*
X34003343Y-27456034D01*
X33257703Y-27340467D01*
X32454017Y-27292279D01*
X31643384Y-27309884D01*
G37*
X31643384Y-27309884D02*
X30876905Y-27391699D01*
X30205679Y-27536139D01*
X30070333Y-27577989D01*
X29433721Y-27834973D01*
X28938334Y-28132975D01*
X28588625Y-28463364D01*
X28389048Y-28817511D01*
X28344056Y-29186786D01*
X28458103Y-29562560D01*
X28735643Y-29936203D01*
X28813941Y-30012501D01*
X29273294Y-30334800D01*
X29855672Y-30576745D01*
X30531566Y-30731518D01*
X31271469Y-30792305D01*
X32026278Y-30754577D01*
X32418741Y-30690619D01*
X32824886Y-30595150D01*
X33096958Y-30509726D01*
X33465756Y-30345908D01*
X33867258Y-30126585D01*
X34250836Y-29883294D01*
X34565862Y-29647570D01*
X34727000Y-29494358D01*
X34896333Y-29300501D01*
X34642333Y-29429686D01*
X33987245Y-29692412D01*
X33243870Y-29872303D01*
X32454552Y-29967579D01*
X31661634Y-29976459D01*
X30907458Y-29897163D01*
X30234368Y-29727909D01*
X29977861Y-29625870D01*
X29551482Y-29383059D01*
X29289786Y-29123225D01*
X29189991Y-28854425D01*
X29249314Y-28584717D01*
X29464973Y-28322160D01*
X29834185Y-28074810D01*
X30354169Y-27850726D01*
X30620666Y-27764350D01*
X31436797Y-27590229D01*
X32339602Y-27517743D01*
X33281306Y-27545587D01*
X34214134Y-27672453D01*
X35055111Y-27885601D01*
X35387390Y-27988953D01*
X35652869Y-28064913D01*
X35815026Y-28103382D01*
X35847242Y-28104647D01*
X35804995Y-28050450D01*
X35631425Y-27963737D01*
X35358765Y-27855844D01*
X35019248Y-27738111D01*
X34645106Y-27621876D01*
X34268572Y-27518478D01*
X34003343Y-27456034D01*
X33257703Y-27340467D01*
X32454017Y-27292279D01*
X31643384Y-27309884D01*
G36*
X34921583Y-28674313D02*
G01*
X35105010Y-28808627D01*
X35375292Y-28993048D01*
X35703442Y-29208760D01*
X36060474Y-29436948D01*
X36417401Y-29658795D01*
X36745235Y-29855486D01*
X36982379Y-29990489D01*
X37729592Y-30357640D01*
X38459034Y-30636038D01*
X39147050Y-30820144D01*
X39769988Y-30904424D01*
X40304193Y-30883339D01*
X40549657Y-30825469D01*
X41033131Y-30579277D01*
X41434541Y-30187205D01*
X41720449Y-29715429D01*
X41835497Y-29448420D01*
X41918173Y-29212845D01*
X41964075Y-29033973D01*
X41968801Y-28937074D01*
X41927950Y-28947418D01*
X41837121Y-29090274D01*
X41825551Y-29112000D01*
X41492360Y-29575842D01*
X41043612Y-29949930D01*
X40907666Y-30029921D01*
X40734575Y-30111448D01*
X40549985Y-30164418D01*
X40312995Y-30194376D01*
X39982704Y-30206869D01*
X39595333Y-30207887D01*
X39133087Y-30200070D01*
X38777723Y-30175514D01*
X38466941Y-30124661D01*
X38138442Y-30037955D01*
X37817333Y-29935125D01*
X37424308Y-29789784D01*
X36942265Y-29589941D01*
X36431207Y-29361511D01*
X35951137Y-29130408D01*
X35933500Y-29121512D01*
X35549660Y-28929671D01*
X35225966Y-28772028D01*
X34989073Y-28661240D01*
X34865636Y-28609964D01*
X34854000Y-28608923D01*
X34921583Y-28674313D01*
G37*
X34921583Y-28674313D02*
X35105010Y-28808627D01*
X35375292Y-28993048D01*
X35703442Y-29208760D01*
X36060474Y-29436948D01*
X36417401Y-29658795D01*
X36745235Y-29855486D01*
X36982379Y-29990489D01*
X37729592Y-30357640D01*
X38459034Y-30636038D01*
X39147050Y-30820144D01*
X39769988Y-30904424D01*
X40304193Y-30883339D01*
X40549657Y-30825469D01*
X41033131Y-30579277D01*
X41434541Y-30187205D01*
X41720449Y-29715429D01*
X41835497Y-29448420D01*
X41918173Y-29212845D01*
X41964075Y-29033973D01*
X41968801Y-28937074D01*
X41927950Y-28947418D01*
X41837121Y-29090274D01*
X41825551Y-29112000D01*
X41492360Y-29575842D01*
X41043612Y-29949930D01*
X40907666Y-30029921D01*
X40734575Y-30111448D01*
X40549985Y-30164418D01*
X40312995Y-30194376D01*
X39982704Y-30206869D01*
X39595333Y-30207887D01*
X39133087Y-30200070D01*
X38777723Y-30175514D01*
X38466941Y-30124661D01*
X38138442Y-30037955D01*
X37817333Y-29935125D01*
X37424308Y-29789784D01*
X36942265Y-29589941D01*
X36431207Y-29361511D01*
X35951137Y-29130408D01*
X35933500Y-29121512D01*
X35549660Y-28929671D01*
X35225966Y-28772028D01*
X34989073Y-28661240D01*
X34865636Y-28609964D01*
X34854000Y-28608923D01*
X34921583Y-28674313D01*
D13*
%TO.C,R16*%
X77995000Y-136947064D02*
X77995000Y-135492936D01*
X79815000Y-136947064D02*
X79815000Y-135492936D01*
%TO.C,R14*%
X117270000Y-135417936D02*
X117270000Y-136872064D01*
X115450000Y-135417936D02*
X115450000Y-136872064D01*
%TO.C,D2*%
X53670000Y-72055000D02*
X53670000Y-70055000D01*
X53670000Y-70055000D02*
X57520000Y-70055000D01*
X53670000Y-72055000D02*
X57520000Y-72055000D01*
%TO.C,C2*%
X54068748Y-61070000D02*
X54591252Y-61070000D01*
X54068748Y-62540000D02*
X54591252Y-62540000D01*
%TO.C,R12*%
X54122936Y-59520000D02*
X54577064Y-59520000D01*
X54122936Y-58050000D02*
X54577064Y-58050000D01*
%TO.C,D10*%
X66290000Y-122595000D02*
X64290000Y-122595000D01*
X64290000Y-122595000D02*
X64290000Y-118745000D01*
X66290000Y-122595000D02*
X66290000Y-118745000D01*
%TO.C,R26*%
X28165000Y-57337936D02*
X28165000Y-57792064D01*
X29635000Y-57337936D02*
X29635000Y-57792064D01*
%TO.C,R25*%
X31160000Y-57345436D02*
X31160000Y-57799564D01*
X32630000Y-57345436D02*
X32630000Y-57799564D01*
%TO.C,R24*%
X32722064Y-62395000D02*
X32267936Y-62395000D01*
X32722064Y-60925000D02*
X32267936Y-60925000D01*
%TO.C,R22*%
X84952064Y-130120000D02*
X84497936Y-130120000D01*
X84952064Y-131590000D02*
X84497936Y-131590000D01*
%TO.C,R21*%
X89439564Y-130170000D02*
X88985436Y-130170000D01*
X89439564Y-131640000D02*
X88985436Y-131640000D01*
%TO.C,R19*%
X120874564Y-130060000D02*
X120420436Y-130060000D01*
X120874564Y-131530000D02*
X120420436Y-131530000D01*
%TO.C,R18*%
X122195000Y-134702064D02*
X122195000Y-134247936D01*
X120725000Y-134702064D02*
X120725000Y-134247936D01*
%TO.C,R17*%
X72605000Y-124612064D02*
X72605000Y-124157936D01*
X71135000Y-124612064D02*
X71135000Y-124157936D01*
%TO.C,R15*%
X72685000Y-105632064D02*
X72685000Y-105177936D01*
X71215000Y-105632064D02*
X71215000Y-105177936D01*
%TO.C,L4*%
X28404622Y-62140000D02*
X27605378Y-62140000D01*
X28404622Y-61020000D02*
X27605378Y-61020000D01*
%TO.C,L3*%
X23814622Y-65130000D02*
X23015378Y-65130000D01*
X23814622Y-64010000D02*
X23015378Y-64010000D01*
%TO.C,D9*%
X69660000Y-122585000D02*
X67660000Y-122585000D01*
X67660000Y-122585000D02*
X67660000Y-118735000D01*
X69660000Y-122585000D02*
X69660000Y-118735000D01*
%TO.C,D8*%
X66240000Y-103645000D02*
X64240000Y-103645000D01*
X64240000Y-103645000D02*
X64240000Y-99795000D01*
X66240000Y-103645000D02*
X66240000Y-99795000D01*
%TO.C,D7*%
X69680000Y-103635000D02*
X67680000Y-103635000D01*
X67680000Y-103635000D02*
X67680000Y-99785000D01*
X69680000Y-103635000D02*
X69680000Y-99785000D01*
%TO.C,D1*%
X53660000Y-76465000D02*
X57510000Y-76465000D01*
X53660000Y-74465000D02*
X57510000Y-74465000D01*
X53660000Y-76465000D02*
X53660000Y-74465000D01*
%TO.C,C24*%
X32470000Y-65501252D02*
X32470000Y-64978748D01*
X33940000Y-65501252D02*
X33940000Y-64978748D01*
%TO.C,C23*%
X29420000Y-65451252D02*
X29420000Y-64928748D01*
X30890000Y-65451252D02*
X30890000Y-64928748D01*
%TO.C,C22*%
X26390000Y-65441252D02*
X26390000Y-64918748D01*
X27860000Y-65441252D02*
X27860000Y-64918748D01*
%TO.C,C21*%
X23123748Y-60935000D02*
X23646252Y-60935000D01*
X23123748Y-62405000D02*
X23646252Y-62405000D01*
%TO.C,C20*%
X27493748Y-75025000D02*
X28016252Y-75025000D01*
X27493748Y-73555000D02*
X28016252Y-73555000D01*
%TO.C,C19*%
X27513748Y-72005000D02*
X28036252Y-72005000D01*
X27513748Y-70535000D02*
X28036252Y-70535000D01*
%TO.C,C18*%
X23606252Y-73545000D02*
X23083748Y-73545000D01*
X23606252Y-75015000D02*
X23083748Y-75015000D01*
%TO.C,C17*%
X23646252Y-70475000D02*
X23123748Y-70475000D01*
X23646252Y-71945000D02*
X23123748Y-71945000D01*
%TO.C,C14*%
X72575000Y-120086252D02*
X72575000Y-119563748D01*
X71105000Y-120086252D02*
X71105000Y-119563748D01*
%TO.C,C13*%
X72590000Y-137031252D02*
X72590000Y-136508748D01*
X71120000Y-137031252D02*
X71120000Y-136508748D01*
%TO.C,C12*%
X72695000Y-101186252D02*
X72695000Y-100663748D01*
X71225000Y-101186252D02*
X71225000Y-100663748D01*
%TO.C,C11*%
X110325000Y-137046252D02*
X110325000Y-136523748D01*
X108855000Y-137046252D02*
X108855000Y-136523748D01*
%TO.C,R16*%
D11*
X81177380Y-135577142D02*
X80701190Y-135243809D01*
X81177380Y-135005714D02*
X80177380Y-135005714D01*
X80177380Y-135386666D01*
X80225000Y-135481904D01*
X80272619Y-135529523D01*
X80367857Y-135577142D01*
X80510714Y-135577142D01*
X80605952Y-135529523D01*
X80653571Y-135481904D01*
X80701190Y-135386666D01*
X80701190Y-135005714D01*
X81177380Y-136529523D02*
X81177380Y-135958095D01*
X81177380Y-136243809D02*
X80177380Y-136243809D01*
X80320238Y-136148571D01*
X80415476Y-136053333D01*
X80463095Y-135958095D01*
X80177380Y-137386666D02*
X80177380Y-137196190D01*
X80225000Y-137100952D01*
X80272619Y-137053333D01*
X80415476Y-136958095D01*
X80605952Y-136910476D01*
X80986904Y-136910476D01*
X81082142Y-136958095D01*
X81129761Y-137005714D01*
X81177380Y-137100952D01*
X81177380Y-137291428D01*
X81129761Y-137386666D01*
X81082142Y-137434285D01*
X80986904Y-137481904D01*
X80748809Y-137481904D01*
X80653571Y-137434285D01*
X80605952Y-137386666D01*
X80558333Y-137291428D01*
X80558333Y-137100952D01*
X80605952Y-137005714D01*
X80653571Y-136958095D01*
X80748809Y-136910476D01*
%TO.C,R14*%
X114992380Y-135502142D02*
X114516190Y-135168809D01*
X114992380Y-134930714D02*
X113992380Y-134930714D01*
X113992380Y-135311666D01*
X114040000Y-135406904D01*
X114087619Y-135454523D01*
X114182857Y-135502142D01*
X114325714Y-135502142D01*
X114420952Y-135454523D01*
X114468571Y-135406904D01*
X114516190Y-135311666D01*
X114516190Y-134930714D01*
X114992380Y-136454523D02*
X114992380Y-135883095D01*
X114992380Y-136168809D02*
X113992380Y-136168809D01*
X114135238Y-136073571D01*
X114230476Y-135978333D01*
X114278095Y-135883095D01*
X114325714Y-137311666D02*
X114992380Y-137311666D01*
X113944761Y-137073571D02*
X114659047Y-136835476D01*
X114659047Y-137454523D01*
%TO.C,D2*%
X56403571Y-73134285D02*
X56403571Y-72384285D01*
X56225000Y-72384285D01*
X56117857Y-72420000D01*
X56046428Y-72491428D01*
X56010714Y-72562857D01*
X55975000Y-72705714D01*
X55975000Y-72812857D01*
X56010714Y-72955714D01*
X56046428Y-73027142D01*
X56117857Y-73098571D01*
X56225000Y-73134285D01*
X56403571Y-73134285D01*
X55689285Y-72455714D02*
X55653571Y-72420000D01*
X55582142Y-72384285D01*
X55403571Y-72384285D01*
X55332142Y-72420000D01*
X55296428Y-72455714D01*
X55260714Y-72527142D01*
X55260714Y-72598571D01*
X55296428Y-72705714D01*
X55725000Y-73134285D01*
X55260714Y-73134285D01*
%TO.C,C2*%
X54695000Y-63772857D02*
X54730714Y-63808571D01*
X54837857Y-63844285D01*
X54909285Y-63844285D01*
X55016428Y-63808571D01*
X55087857Y-63737142D01*
X55123571Y-63665714D01*
X55159285Y-63522857D01*
X55159285Y-63415714D01*
X55123571Y-63272857D01*
X55087857Y-63201428D01*
X55016428Y-63130000D01*
X54909285Y-63094285D01*
X54837857Y-63094285D01*
X54730714Y-63130000D01*
X54695000Y-63165714D01*
X54409285Y-63165714D02*
X54373571Y-63130000D01*
X54302142Y-63094285D01*
X54123571Y-63094285D01*
X54052142Y-63130000D01*
X54016428Y-63165714D01*
X53980714Y-63237142D01*
X53980714Y-63308571D01*
X54016428Y-63415714D01*
X54445000Y-63844285D01*
X53980714Y-63844285D01*
%TO.C,R12*%
X54812142Y-60664285D02*
X55062142Y-60307142D01*
X55240714Y-60664285D02*
X55240714Y-59914285D01*
X54955000Y-59914285D01*
X54883571Y-59950000D01*
X54847857Y-59985714D01*
X54812142Y-60057142D01*
X54812142Y-60164285D01*
X54847857Y-60235714D01*
X54883571Y-60271428D01*
X54955000Y-60307142D01*
X55240714Y-60307142D01*
X54097857Y-60664285D02*
X54526428Y-60664285D01*
X54312142Y-60664285D02*
X54312142Y-59914285D01*
X54383571Y-60021428D01*
X54455000Y-60092857D01*
X54526428Y-60128571D01*
X53812142Y-59985714D02*
X53776428Y-59950000D01*
X53705000Y-59914285D01*
X53526428Y-59914285D01*
X53455000Y-59950000D01*
X53419285Y-59985714D01*
X53383571Y-60057142D01*
X53383571Y-60128571D01*
X53419285Y-60235714D01*
X53847857Y-60664285D01*
X53383571Y-60664285D01*
%TO.C,D10*%
X66185714Y-123569285D02*
X66185714Y-122819285D01*
X66007142Y-122819285D01*
X65900000Y-122855000D01*
X65828571Y-122926428D01*
X65792857Y-122997857D01*
X65757142Y-123140714D01*
X65757142Y-123247857D01*
X65792857Y-123390714D01*
X65828571Y-123462142D01*
X65900000Y-123533571D01*
X66007142Y-123569285D01*
X66185714Y-123569285D01*
X65042857Y-123569285D02*
X65471428Y-123569285D01*
X65257142Y-123569285D02*
X65257142Y-122819285D01*
X65328571Y-122926428D01*
X65400000Y-122997857D01*
X65471428Y-123033571D01*
X64578571Y-122819285D02*
X64507142Y-122819285D01*
X64435714Y-122855000D01*
X64400000Y-122890714D01*
X64364285Y-122962142D01*
X64328571Y-123105000D01*
X64328571Y-123283571D01*
X64364285Y-123426428D01*
X64400000Y-123497857D01*
X64435714Y-123533571D01*
X64507142Y-123569285D01*
X64578571Y-123569285D01*
X64650000Y-123533571D01*
X64685714Y-123497857D01*
X64721428Y-123426428D01*
X64757142Y-123283571D01*
X64757142Y-123105000D01*
X64721428Y-122962142D01*
X64685714Y-122890714D01*
X64650000Y-122855000D01*
X64578571Y-122819285D01*
%TO.C,R26*%
X30739285Y-57082857D02*
X30382142Y-56832857D01*
X30739285Y-56654285D02*
X29989285Y-56654285D01*
X29989285Y-56940000D01*
X30025000Y-57011428D01*
X30060714Y-57047142D01*
X30132142Y-57082857D01*
X30239285Y-57082857D01*
X30310714Y-57047142D01*
X30346428Y-57011428D01*
X30382142Y-56940000D01*
X30382142Y-56654285D01*
X30060714Y-57368571D02*
X30025000Y-57404285D01*
X29989285Y-57475714D01*
X29989285Y-57654285D01*
X30025000Y-57725714D01*
X30060714Y-57761428D01*
X30132142Y-57797142D01*
X30203571Y-57797142D01*
X30310714Y-57761428D01*
X30739285Y-57332857D01*
X30739285Y-57797142D01*
X29989285Y-58440000D02*
X29989285Y-58297142D01*
X30025000Y-58225714D01*
X30060714Y-58190000D01*
X30167857Y-58118571D01*
X30310714Y-58082857D01*
X30596428Y-58082857D01*
X30667857Y-58118571D01*
X30703571Y-58154285D01*
X30739285Y-58225714D01*
X30739285Y-58368571D01*
X30703571Y-58440000D01*
X30667857Y-58475714D01*
X30596428Y-58511428D01*
X30417857Y-58511428D01*
X30346428Y-58475714D01*
X30310714Y-58440000D01*
X30275000Y-58368571D01*
X30275000Y-58225714D01*
X30310714Y-58154285D01*
X30346428Y-58118571D01*
X30417857Y-58082857D01*
%TO.C,R25*%
X33689285Y-57082857D02*
X33332142Y-56832857D01*
X33689285Y-56654285D02*
X32939285Y-56654285D01*
X32939285Y-56940000D01*
X32975000Y-57011428D01*
X33010714Y-57047142D01*
X33082142Y-57082857D01*
X33189285Y-57082857D01*
X33260714Y-57047142D01*
X33296428Y-57011428D01*
X33332142Y-56940000D01*
X33332142Y-56654285D01*
X33010714Y-57368571D02*
X32975000Y-57404285D01*
X32939285Y-57475714D01*
X32939285Y-57654285D01*
X32975000Y-57725714D01*
X33010714Y-57761428D01*
X33082142Y-57797142D01*
X33153571Y-57797142D01*
X33260714Y-57761428D01*
X33689285Y-57332857D01*
X33689285Y-57797142D01*
X32939285Y-58475714D02*
X32939285Y-58118571D01*
X33296428Y-58082857D01*
X33260714Y-58118571D01*
X33225000Y-58190000D01*
X33225000Y-58368571D01*
X33260714Y-58440000D01*
X33296428Y-58475714D01*
X33367857Y-58511428D01*
X33546428Y-58511428D01*
X33617857Y-58475714D01*
X33653571Y-58440000D01*
X33689285Y-58368571D01*
X33689285Y-58190000D01*
X33653571Y-58118571D01*
X33617857Y-58082857D01*
%TO.C,R24*%
X32802142Y-63394285D02*
X33052142Y-63037142D01*
X33230714Y-63394285D02*
X33230714Y-62644285D01*
X32945000Y-62644285D01*
X32873571Y-62680000D01*
X32837857Y-62715714D01*
X32802142Y-62787142D01*
X32802142Y-62894285D01*
X32837857Y-62965714D01*
X32873571Y-63001428D01*
X32945000Y-63037142D01*
X33230714Y-63037142D01*
X32516428Y-62715714D02*
X32480714Y-62680000D01*
X32409285Y-62644285D01*
X32230714Y-62644285D01*
X32159285Y-62680000D01*
X32123571Y-62715714D01*
X32087857Y-62787142D01*
X32087857Y-62858571D01*
X32123571Y-62965714D01*
X32552142Y-63394285D01*
X32087857Y-63394285D01*
X31445000Y-62894285D02*
X31445000Y-63394285D01*
X31623571Y-62608571D02*
X31802142Y-63144285D01*
X31337857Y-63144285D01*
%TO.C,R22*%
X85182142Y-132894285D02*
X85432142Y-132537142D01*
X85610714Y-132894285D02*
X85610714Y-132144285D01*
X85325000Y-132144285D01*
X85253571Y-132180000D01*
X85217857Y-132215714D01*
X85182142Y-132287142D01*
X85182142Y-132394285D01*
X85217857Y-132465714D01*
X85253571Y-132501428D01*
X85325000Y-132537142D01*
X85610714Y-132537142D01*
X84896428Y-132215714D02*
X84860714Y-132180000D01*
X84789285Y-132144285D01*
X84610714Y-132144285D01*
X84539285Y-132180000D01*
X84503571Y-132215714D01*
X84467857Y-132287142D01*
X84467857Y-132358571D01*
X84503571Y-132465714D01*
X84932142Y-132894285D01*
X84467857Y-132894285D01*
X84182142Y-132215714D02*
X84146428Y-132180000D01*
X84075000Y-132144285D01*
X83896428Y-132144285D01*
X83825000Y-132180000D01*
X83789285Y-132215714D01*
X83753571Y-132287142D01*
X83753571Y-132358571D01*
X83789285Y-132465714D01*
X84217857Y-132894285D01*
X83753571Y-132894285D01*
%TO.C,R21*%
X90212142Y-132814285D02*
X90462142Y-132457142D01*
X90640714Y-132814285D02*
X90640714Y-132064285D01*
X90355000Y-132064285D01*
X90283571Y-132100000D01*
X90247857Y-132135714D01*
X90212142Y-132207142D01*
X90212142Y-132314285D01*
X90247857Y-132385714D01*
X90283571Y-132421428D01*
X90355000Y-132457142D01*
X90640714Y-132457142D01*
X89926428Y-132135714D02*
X89890714Y-132100000D01*
X89819285Y-132064285D01*
X89640714Y-132064285D01*
X89569285Y-132100000D01*
X89533571Y-132135714D01*
X89497857Y-132207142D01*
X89497857Y-132278571D01*
X89533571Y-132385714D01*
X89962142Y-132814285D01*
X89497857Y-132814285D01*
X88783571Y-132814285D02*
X89212142Y-132814285D01*
X88997857Y-132814285D02*
X88997857Y-132064285D01*
X89069285Y-132171428D01*
X89140714Y-132242857D01*
X89212142Y-132278571D01*
%TO.C,R19*%
X121107142Y-132619285D02*
X121357142Y-132262142D01*
X121535714Y-132619285D02*
X121535714Y-131869285D01*
X121250000Y-131869285D01*
X121178571Y-131905000D01*
X121142857Y-131940714D01*
X121107142Y-132012142D01*
X121107142Y-132119285D01*
X121142857Y-132190714D01*
X121178571Y-132226428D01*
X121250000Y-132262142D01*
X121535714Y-132262142D01*
X120392857Y-132619285D02*
X120821428Y-132619285D01*
X120607142Y-132619285D02*
X120607142Y-131869285D01*
X120678571Y-131976428D01*
X120750000Y-132047857D01*
X120821428Y-132083571D01*
X120035714Y-132619285D02*
X119892857Y-132619285D01*
X119821428Y-132583571D01*
X119785714Y-132547857D01*
X119714285Y-132440714D01*
X119678571Y-132297857D01*
X119678571Y-132012142D01*
X119714285Y-131940714D01*
X119750000Y-131905000D01*
X119821428Y-131869285D01*
X119964285Y-131869285D01*
X120035714Y-131905000D01*
X120071428Y-131940714D01*
X120107142Y-132012142D01*
X120107142Y-132190714D01*
X120071428Y-132262142D01*
X120035714Y-132297857D01*
X119964285Y-132333571D01*
X119821428Y-132333571D01*
X119750000Y-132297857D01*
X119714285Y-132262142D01*
X119678571Y-132190714D01*
%TO.C,R18*%
X123449285Y-133992857D02*
X123092142Y-133742857D01*
X123449285Y-133564285D02*
X122699285Y-133564285D01*
X122699285Y-133850000D01*
X122735000Y-133921428D01*
X122770714Y-133957142D01*
X122842142Y-133992857D01*
X122949285Y-133992857D01*
X123020714Y-133957142D01*
X123056428Y-133921428D01*
X123092142Y-133850000D01*
X123092142Y-133564285D01*
X123449285Y-134707142D02*
X123449285Y-134278571D01*
X123449285Y-134492857D02*
X122699285Y-134492857D01*
X122806428Y-134421428D01*
X122877857Y-134350000D01*
X122913571Y-134278571D01*
X123020714Y-135135714D02*
X122985000Y-135064285D01*
X122949285Y-135028571D01*
X122877857Y-134992857D01*
X122842142Y-134992857D01*
X122770714Y-135028571D01*
X122735000Y-135064285D01*
X122699285Y-135135714D01*
X122699285Y-135278571D01*
X122735000Y-135350000D01*
X122770714Y-135385714D01*
X122842142Y-135421428D01*
X122877857Y-135421428D01*
X122949285Y-135385714D01*
X122985000Y-135350000D01*
X123020714Y-135278571D01*
X123020714Y-135135714D01*
X123056428Y-135064285D01*
X123092142Y-135028571D01*
X123163571Y-134992857D01*
X123306428Y-134992857D01*
X123377857Y-135028571D01*
X123413571Y-135064285D01*
X123449285Y-135135714D01*
X123449285Y-135278571D01*
X123413571Y-135350000D01*
X123377857Y-135385714D01*
X123306428Y-135421428D01*
X123163571Y-135421428D01*
X123092142Y-135385714D01*
X123056428Y-135350000D01*
X123020714Y-135278571D01*
%TO.C,R17*%
X73749285Y-123722857D02*
X73392142Y-123472857D01*
X73749285Y-123294285D02*
X72999285Y-123294285D01*
X72999285Y-123580000D01*
X73035000Y-123651428D01*
X73070714Y-123687142D01*
X73142142Y-123722857D01*
X73249285Y-123722857D01*
X73320714Y-123687142D01*
X73356428Y-123651428D01*
X73392142Y-123580000D01*
X73392142Y-123294285D01*
X73749285Y-124437142D02*
X73749285Y-124008571D01*
X73749285Y-124222857D02*
X72999285Y-124222857D01*
X73106428Y-124151428D01*
X73177857Y-124080000D01*
X73213571Y-124008571D01*
X72999285Y-124687142D02*
X72999285Y-125187142D01*
X73749285Y-124865714D01*
%TO.C,R15*%
X73919285Y-104402857D02*
X73562142Y-104152857D01*
X73919285Y-103974285D02*
X73169285Y-103974285D01*
X73169285Y-104260000D01*
X73205000Y-104331428D01*
X73240714Y-104367142D01*
X73312142Y-104402857D01*
X73419285Y-104402857D01*
X73490714Y-104367142D01*
X73526428Y-104331428D01*
X73562142Y-104260000D01*
X73562142Y-103974285D01*
X73919285Y-105117142D02*
X73919285Y-104688571D01*
X73919285Y-104902857D02*
X73169285Y-104902857D01*
X73276428Y-104831428D01*
X73347857Y-104760000D01*
X73383571Y-104688571D01*
X73169285Y-105795714D02*
X73169285Y-105438571D01*
X73526428Y-105402857D01*
X73490714Y-105438571D01*
X73455000Y-105510000D01*
X73455000Y-105688571D01*
X73490714Y-105760000D01*
X73526428Y-105795714D01*
X73597857Y-105831428D01*
X73776428Y-105831428D01*
X73847857Y-105795714D01*
X73883571Y-105760000D01*
X73919285Y-105688571D01*
X73919285Y-105510000D01*
X73883571Y-105438571D01*
X73847857Y-105402857D01*
%TO.C,L4*%
X28085000Y-63324285D02*
X28442142Y-63324285D01*
X28442142Y-62574285D01*
X27513571Y-62824285D02*
X27513571Y-63324285D01*
X27692142Y-62538571D02*
X27870714Y-63074285D01*
X27406428Y-63074285D01*
%TO.C,L3*%
X23500000Y-66329285D02*
X23857142Y-66329285D01*
X23857142Y-65579285D01*
X23321428Y-65579285D02*
X22857142Y-65579285D01*
X23107142Y-65865000D01*
X23000000Y-65865000D01*
X22928571Y-65900714D01*
X22892857Y-65936428D01*
X22857142Y-66007857D01*
X22857142Y-66186428D01*
X22892857Y-66257857D01*
X22928571Y-66293571D01*
X23000000Y-66329285D01*
X23214285Y-66329285D01*
X23285714Y-66293571D01*
X23321428Y-66257857D01*
%TO.C,D9*%
X69203571Y-123494285D02*
X69203571Y-122744285D01*
X69025000Y-122744285D01*
X68917857Y-122780000D01*
X68846428Y-122851428D01*
X68810714Y-122922857D01*
X68775000Y-123065714D01*
X68775000Y-123172857D01*
X68810714Y-123315714D01*
X68846428Y-123387142D01*
X68917857Y-123458571D01*
X69025000Y-123494285D01*
X69203571Y-123494285D01*
X68417857Y-123494285D02*
X68275000Y-123494285D01*
X68203571Y-123458571D01*
X68167857Y-123422857D01*
X68096428Y-123315714D01*
X68060714Y-123172857D01*
X68060714Y-122887142D01*
X68096428Y-122815714D01*
X68132142Y-122780000D01*
X68203571Y-122744285D01*
X68346428Y-122744285D01*
X68417857Y-122780000D01*
X68453571Y-122815714D01*
X68489285Y-122887142D01*
X68489285Y-123065714D01*
X68453571Y-123137142D01*
X68417857Y-123172857D01*
X68346428Y-123208571D01*
X68203571Y-123208571D01*
X68132142Y-123172857D01*
X68096428Y-123137142D01*
X68060714Y-123065714D01*
%TO.C,D8*%
X65743571Y-104619285D02*
X65743571Y-103869285D01*
X65565000Y-103869285D01*
X65457857Y-103905000D01*
X65386428Y-103976428D01*
X65350714Y-104047857D01*
X65315000Y-104190714D01*
X65315000Y-104297857D01*
X65350714Y-104440714D01*
X65386428Y-104512142D01*
X65457857Y-104583571D01*
X65565000Y-104619285D01*
X65743571Y-104619285D01*
X64886428Y-104190714D02*
X64957857Y-104155000D01*
X64993571Y-104119285D01*
X65029285Y-104047857D01*
X65029285Y-104012142D01*
X64993571Y-103940714D01*
X64957857Y-103905000D01*
X64886428Y-103869285D01*
X64743571Y-103869285D01*
X64672142Y-103905000D01*
X64636428Y-103940714D01*
X64600714Y-104012142D01*
X64600714Y-104047857D01*
X64636428Y-104119285D01*
X64672142Y-104155000D01*
X64743571Y-104190714D01*
X64886428Y-104190714D01*
X64957857Y-104226428D01*
X64993571Y-104262142D01*
X65029285Y-104333571D01*
X65029285Y-104476428D01*
X64993571Y-104547857D01*
X64957857Y-104583571D01*
X64886428Y-104619285D01*
X64743571Y-104619285D01*
X64672142Y-104583571D01*
X64636428Y-104547857D01*
X64600714Y-104476428D01*
X64600714Y-104333571D01*
X64636428Y-104262142D01*
X64672142Y-104226428D01*
X64743571Y-104190714D01*
%TO.C,D7*%
X69228571Y-104594285D02*
X69228571Y-103844285D01*
X69050000Y-103844285D01*
X68942857Y-103880000D01*
X68871428Y-103951428D01*
X68835714Y-104022857D01*
X68800000Y-104165714D01*
X68800000Y-104272857D01*
X68835714Y-104415714D01*
X68871428Y-104487142D01*
X68942857Y-104558571D01*
X69050000Y-104594285D01*
X69228571Y-104594285D01*
X68550000Y-103844285D02*
X68050000Y-103844285D01*
X68371428Y-104594285D01*
%TO.C,D1*%
X56288571Y-77579285D02*
X56288571Y-76829285D01*
X56110000Y-76829285D01*
X56002857Y-76865000D01*
X55931428Y-76936428D01*
X55895714Y-77007857D01*
X55860000Y-77150714D01*
X55860000Y-77257857D01*
X55895714Y-77400714D01*
X55931428Y-77472142D01*
X56002857Y-77543571D01*
X56110000Y-77579285D01*
X56288571Y-77579285D01*
X55145714Y-77579285D02*
X55574285Y-77579285D01*
X55360000Y-77579285D02*
X55360000Y-76829285D01*
X55431428Y-76936428D01*
X55502857Y-77007857D01*
X55574285Y-77043571D01*
%TO.C,C24*%
X35017857Y-64732857D02*
X35053571Y-64697142D01*
X35089285Y-64590000D01*
X35089285Y-64518571D01*
X35053571Y-64411428D01*
X34982142Y-64340000D01*
X34910714Y-64304285D01*
X34767857Y-64268571D01*
X34660714Y-64268571D01*
X34517857Y-64304285D01*
X34446428Y-64340000D01*
X34375000Y-64411428D01*
X34339285Y-64518571D01*
X34339285Y-64590000D01*
X34375000Y-64697142D01*
X34410714Y-64732857D01*
X34410714Y-65018571D02*
X34375000Y-65054285D01*
X34339285Y-65125714D01*
X34339285Y-65304285D01*
X34375000Y-65375714D01*
X34410714Y-65411428D01*
X34482142Y-65447142D01*
X34553571Y-65447142D01*
X34660714Y-65411428D01*
X35089285Y-64982857D01*
X35089285Y-65447142D01*
X34589285Y-66090000D02*
X35089285Y-66090000D01*
X34303571Y-65911428D02*
X34839285Y-65732857D01*
X34839285Y-66197142D01*
%TO.C,C23*%
X31947857Y-64752857D02*
X31983571Y-64717142D01*
X32019285Y-64610000D01*
X32019285Y-64538571D01*
X31983571Y-64431428D01*
X31912142Y-64360000D01*
X31840714Y-64324285D01*
X31697857Y-64288571D01*
X31590714Y-64288571D01*
X31447857Y-64324285D01*
X31376428Y-64360000D01*
X31305000Y-64431428D01*
X31269285Y-64538571D01*
X31269285Y-64610000D01*
X31305000Y-64717142D01*
X31340714Y-64752857D01*
X31340714Y-65038571D02*
X31305000Y-65074285D01*
X31269285Y-65145714D01*
X31269285Y-65324285D01*
X31305000Y-65395714D01*
X31340714Y-65431428D01*
X31412142Y-65467142D01*
X31483571Y-65467142D01*
X31590714Y-65431428D01*
X32019285Y-65002857D01*
X32019285Y-65467142D01*
X31269285Y-65717142D02*
X31269285Y-66181428D01*
X31555000Y-65931428D01*
X31555000Y-66038571D01*
X31590714Y-66110000D01*
X31626428Y-66145714D01*
X31697857Y-66181428D01*
X31876428Y-66181428D01*
X31947857Y-66145714D01*
X31983571Y-66110000D01*
X32019285Y-66038571D01*
X32019285Y-65824285D01*
X31983571Y-65752857D01*
X31947857Y-65717142D01*
%TO.C,C22*%
X28947857Y-64692857D02*
X28983571Y-64657142D01*
X29019285Y-64550000D01*
X29019285Y-64478571D01*
X28983571Y-64371428D01*
X28912142Y-64300000D01*
X28840714Y-64264285D01*
X28697857Y-64228571D01*
X28590714Y-64228571D01*
X28447857Y-64264285D01*
X28376428Y-64300000D01*
X28305000Y-64371428D01*
X28269285Y-64478571D01*
X28269285Y-64550000D01*
X28305000Y-64657142D01*
X28340714Y-64692857D01*
X28340714Y-64978571D02*
X28305000Y-65014285D01*
X28269285Y-65085714D01*
X28269285Y-65264285D01*
X28305000Y-65335714D01*
X28340714Y-65371428D01*
X28412142Y-65407142D01*
X28483571Y-65407142D01*
X28590714Y-65371428D01*
X29019285Y-64942857D01*
X29019285Y-65407142D01*
X28340714Y-65692857D02*
X28305000Y-65728571D01*
X28269285Y-65800000D01*
X28269285Y-65978571D01*
X28305000Y-66050000D01*
X28340714Y-66085714D01*
X28412142Y-66121428D01*
X28483571Y-66121428D01*
X28590714Y-66085714D01*
X29019285Y-65657142D01*
X29019285Y-66121428D01*
%TO.C,C21*%
X23862142Y-63482857D02*
X23897857Y-63518571D01*
X24005000Y-63554285D01*
X24076428Y-63554285D01*
X24183571Y-63518571D01*
X24255000Y-63447142D01*
X24290714Y-63375714D01*
X24326428Y-63232857D01*
X24326428Y-63125714D01*
X24290714Y-62982857D01*
X24255000Y-62911428D01*
X24183571Y-62840000D01*
X24076428Y-62804285D01*
X24005000Y-62804285D01*
X23897857Y-62840000D01*
X23862142Y-62875714D01*
X23576428Y-62875714D02*
X23540714Y-62840000D01*
X23469285Y-62804285D01*
X23290714Y-62804285D01*
X23219285Y-62840000D01*
X23183571Y-62875714D01*
X23147857Y-62947142D01*
X23147857Y-63018571D01*
X23183571Y-63125714D01*
X23612142Y-63554285D01*
X23147857Y-63554285D01*
X22433571Y-63554285D02*
X22862142Y-63554285D01*
X22647857Y-63554285D02*
X22647857Y-62804285D01*
X22719285Y-62911428D01*
X22790714Y-62982857D01*
X22862142Y-63018571D01*
%TO.C,C20*%
X28782142Y-76162857D02*
X28817857Y-76198571D01*
X28925000Y-76234285D01*
X28996428Y-76234285D01*
X29103571Y-76198571D01*
X29175000Y-76127142D01*
X29210714Y-76055714D01*
X29246428Y-75912857D01*
X29246428Y-75805714D01*
X29210714Y-75662857D01*
X29175000Y-75591428D01*
X29103571Y-75520000D01*
X28996428Y-75484285D01*
X28925000Y-75484285D01*
X28817857Y-75520000D01*
X28782142Y-75555714D01*
X28496428Y-75555714D02*
X28460714Y-75520000D01*
X28389285Y-75484285D01*
X28210714Y-75484285D01*
X28139285Y-75520000D01*
X28103571Y-75555714D01*
X28067857Y-75627142D01*
X28067857Y-75698571D01*
X28103571Y-75805714D01*
X28532142Y-76234285D01*
X28067857Y-76234285D01*
X27603571Y-75484285D02*
X27532142Y-75484285D01*
X27460714Y-75520000D01*
X27425000Y-75555714D01*
X27389285Y-75627142D01*
X27353571Y-75770000D01*
X27353571Y-75948571D01*
X27389285Y-76091428D01*
X27425000Y-76162857D01*
X27460714Y-76198571D01*
X27532142Y-76234285D01*
X27603571Y-76234285D01*
X27675000Y-76198571D01*
X27710714Y-76162857D01*
X27746428Y-76091428D01*
X27782142Y-75948571D01*
X27782142Y-75770000D01*
X27746428Y-75627142D01*
X27710714Y-75555714D01*
X27675000Y-75520000D01*
X27603571Y-75484285D01*
%TO.C,C19*%
X28257142Y-73032857D02*
X28292857Y-73068571D01*
X28400000Y-73104285D01*
X28471428Y-73104285D01*
X28578571Y-73068571D01*
X28650000Y-72997142D01*
X28685714Y-72925714D01*
X28721428Y-72782857D01*
X28721428Y-72675714D01*
X28685714Y-72532857D01*
X28650000Y-72461428D01*
X28578571Y-72390000D01*
X28471428Y-72354285D01*
X28400000Y-72354285D01*
X28292857Y-72390000D01*
X28257142Y-72425714D01*
X27542857Y-73104285D02*
X27971428Y-73104285D01*
X27757142Y-73104285D02*
X27757142Y-72354285D01*
X27828571Y-72461428D01*
X27900000Y-72532857D01*
X27971428Y-72568571D01*
X27185714Y-73104285D02*
X27042857Y-73104285D01*
X26971428Y-73068571D01*
X26935714Y-73032857D01*
X26864285Y-72925714D01*
X26828571Y-72782857D01*
X26828571Y-72497142D01*
X26864285Y-72425714D01*
X26900000Y-72390000D01*
X26971428Y-72354285D01*
X27114285Y-72354285D01*
X27185714Y-72390000D01*
X27221428Y-72425714D01*
X27257142Y-72497142D01*
X27257142Y-72675714D01*
X27221428Y-72747142D01*
X27185714Y-72782857D01*
X27114285Y-72818571D01*
X26971428Y-72818571D01*
X26900000Y-72782857D01*
X26864285Y-72747142D01*
X26828571Y-72675714D01*
%TO.C,C18*%
X23232142Y-76152857D02*
X23267857Y-76188571D01*
X23375000Y-76224285D01*
X23446428Y-76224285D01*
X23553571Y-76188571D01*
X23625000Y-76117142D01*
X23660714Y-76045714D01*
X23696428Y-75902857D01*
X23696428Y-75795714D01*
X23660714Y-75652857D01*
X23625000Y-75581428D01*
X23553571Y-75510000D01*
X23446428Y-75474285D01*
X23375000Y-75474285D01*
X23267857Y-75510000D01*
X23232142Y-75545714D01*
X22517857Y-76224285D02*
X22946428Y-76224285D01*
X22732142Y-76224285D02*
X22732142Y-75474285D01*
X22803571Y-75581428D01*
X22875000Y-75652857D01*
X22946428Y-75688571D01*
X22089285Y-75795714D02*
X22160714Y-75760000D01*
X22196428Y-75724285D01*
X22232142Y-75652857D01*
X22232142Y-75617142D01*
X22196428Y-75545714D01*
X22160714Y-75510000D01*
X22089285Y-75474285D01*
X21946428Y-75474285D01*
X21875000Y-75510000D01*
X21839285Y-75545714D01*
X21803571Y-75617142D01*
X21803571Y-75652857D01*
X21839285Y-75724285D01*
X21875000Y-75760000D01*
X21946428Y-75795714D01*
X22089285Y-75795714D01*
X22160714Y-75831428D01*
X22196428Y-75867142D01*
X22232142Y-75938571D01*
X22232142Y-76081428D01*
X22196428Y-76152857D01*
X22160714Y-76188571D01*
X22089285Y-76224285D01*
X21946428Y-76224285D01*
X21875000Y-76188571D01*
X21839285Y-76152857D01*
X21803571Y-76081428D01*
X21803571Y-75938571D01*
X21839285Y-75867142D01*
X21875000Y-75831428D01*
X21946428Y-75795714D01*
%TO.C,C17*%
X23857142Y-73007857D02*
X23892857Y-73043571D01*
X24000000Y-73079285D01*
X24071428Y-73079285D01*
X24178571Y-73043571D01*
X24250000Y-72972142D01*
X24285714Y-72900714D01*
X24321428Y-72757857D01*
X24321428Y-72650714D01*
X24285714Y-72507857D01*
X24250000Y-72436428D01*
X24178571Y-72365000D01*
X24071428Y-72329285D01*
X24000000Y-72329285D01*
X23892857Y-72365000D01*
X23857142Y-72400714D01*
X23142857Y-73079285D02*
X23571428Y-73079285D01*
X23357142Y-73079285D02*
X23357142Y-72329285D01*
X23428571Y-72436428D01*
X23500000Y-72507857D01*
X23571428Y-72543571D01*
X22892857Y-72329285D02*
X22392857Y-72329285D01*
X22714285Y-73079285D01*
%TO.C,C14*%
X72342142Y-122412857D02*
X72377857Y-122448571D01*
X72485000Y-122484285D01*
X72556428Y-122484285D01*
X72663571Y-122448571D01*
X72735000Y-122377142D01*
X72770714Y-122305714D01*
X72806428Y-122162857D01*
X72806428Y-122055714D01*
X72770714Y-121912857D01*
X72735000Y-121841428D01*
X72663571Y-121770000D01*
X72556428Y-121734285D01*
X72485000Y-121734285D01*
X72377857Y-121770000D01*
X72342142Y-121805714D01*
X71627857Y-122484285D02*
X72056428Y-122484285D01*
X71842142Y-122484285D02*
X71842142Y-121734285D01*
X71913571Y-121841428D01*
X71985000Y-121912857D01*
X72056428Y-121948571D01*
X70985000Y-121984285D02*
X70985000Y-122484285D01*
X71163571Y-121698571D02*
X71342142Y-122234285D01*
X70877857Y-122234285D01*
%TO.C,C13*%
X72257142Y-139447857D02*
X72292857Y-139483571D01*
X72400000Y-139519285D01*
X72471428Y-139519285D01*
X72578571Y-139483571D01*
X72650000Y-139412142D01*
X72685714Y-139340714D01*
X72721428Y-139197857D01*
X72721428Y-139090714D01*
X72685714Y-138947857D01*
X72650000Y-138876428D01*
X72578571Y-138805000D01*
X72471428Y-138769285D01*
X72400000Y-138769285D01*
X72292857Y-138805000D01*
X72257142Y-138840714D01*
X71542857Y-139519285D02*
X71971428Y-139519285D01*
X71757142Y-139519285D02*
X71757142Y-138769285D01*
X71828571Y-138876428D01*
X71900000Y-138947857D01*
X71971428Y-138983571D01*
X71292857Y-138769285D02*
X70828571Y-138769285D01*
X71078571Y-139055000D01*
X70971428Y-139055000D01*
X70900000Y-139090714D01*
X70864285Y-139126428D01*
X70828571Y-139197857D01*
X70828571Y-139376428D01*
X70864285Y-139447857D01*
X70900000Y-139483571D01*
X70971428Y-139519285D01*
X71185714Y-139519285D01*
X71257142Y-139483571D01*
X71292857Y-139447857D01*
%TO.C,C12*%
X72432142Y-103432857D02*
X72467857Y-103468571D01*
X72575000Y-103504285D01*
X72646428Y-103504285D01*
X72753571Y-103468571D01*
X72825000Y-103397142D01*
X72860714Y-103325714D01*
X72896428Y-103182857D01*
X72896428Y-103075714D01*
X72860714Y-102932857D01*
X72825000Y-102861428D01*
X72753571Y-102790000D01*
X72646428Y-102754285D01*
X72575000Y-102754285D01*
X72467857Y-102790000D01*
X72432142Y-102825714D01*
X71717857Y-103504285D02*
X72146428Y-103504285D01*
X71932142Y-103504285D02*
X71932142Y-102754285D01*
X72003571Y-102861428D01*
X72075000Y-102932857D01*
X72146428Y-102968571D01*
X71432142Y-102825714D02*
X71396428Y-102790000D01*
X71325000Y-102754285D01*
X71146428Y-102754285D01*
X71075000Y-102790000D01*
X71039285Y-102825714D01*
X71003571Y-102897142D01*
X71003571Y-102968571D01*
X71039285Y-103075714D01*
X71467857Y-103504285D01*
X71003571Y-103504285D01*
%TO.C,C11*%
X110032142Y-139372857D02*
X110067857Y-139408571D01*
X110175000Y-139444285D01*
X110246428Y-139444285D01*
X110353571Y-139408571D01*
X110425000Y-139337142D01*
X110460714Y-139265714D01*
X110496428Y-139122857D01*
X110496428Y-139015714D01*
X110460714Y-138872857D01*
X110425000Y-138801428D01*
X110353571Y-138730000D01*
X110246428Y-138694285D01*
X110175000Y-138694285D01*
X110067857Y-138730000D01*
X110032142Y-138765714D01*
X109317857Y-139444285D02*
X109746428Y-139444285D01*
X109532142Y-139444285D02*
X109532142Y-138694285D01*
X109603571Y-138801428D01*
X109675000Y-138872857D01*
X109746428Y-138908571D01*
X108603571Y-139444285D02*
X109032142Y-139444285D01*
X108817857Y-139444285D02*
X108817857Y-138694285D01*
X108889285Y-138801428D01*
X108960714Y-138872857D01*
X109032142Y-138908571D01*
%TD*%
%LPC*%
%TO.C,R16*%
G36*
G01*
X79530001Y-135320000D02*
X78279999Y-135320000D01*
G75*
G02*
X78030000Y-135070001I0J249999D01*
G01*
X78030000Y-134444999D01*
G75*
G02*
X78279999Y-134195000I249999J0D01*
G01*
X79530001Y-134195000D01*
G75*
G02*
X79780000Y-134444999I0J-249999D01*
G01*
X79780000Y-135070001D01*
G75*
G02*
X79530001Y-135320000I-249999J0D01*
G01*
G37*
G36*
G01*
X79530001Y-138245000D02*
X78279999Y-138245000D01*
G75*
G02*
X78030000Y-137995001I0J249999D01*
G01*
X78030000Y-137369999D01*
G75*
G02*
X78279999Y-137120000I249999J0D01*
G01*
X79530001Y-137120000D01*
G75*
G02*
X79780000Y-137369999I0J-249999D01*
G01*
X79780000Y-137995001D01*
G75*
G02*
X79530001Y-138245000I-249999J0D01*
G01*
G37*
%TD*%
%TO.C,R14*%
G36*
G01*
X115734999Y-137045000D02*
X116985001Y-137045000D01*
G75*
G02*
X117235000Y-137294999I0J-249999D01*
G01*
X117235000Y-137920001D01*
G75*
G02*
X116985001Y-138170000I-249999J0D01*
G01*
X115734999Y-138170000D01*
G75*
G02*
X115485000Y-137920001I0J249999D01*
G01*
X115485000Y-137294999D01*
G75*
G02*
X115734999Y-137045000I249999J0D01*
G01*
G37*
G36*
G01*
X115734999Y-134120000D02*
X116985001Y-134120000D01*
G75*
G02*
X117235000Y-134369999I0J-249999D01*
G01*
X117235000Y-134995001D01*
G75*
G02*
X116985001Y-135245000I-249999J0D01*
G01*
X115734999Y-135245000D01*
G75*
G02*
X115485000Y-134995001I0J249999D01*
G01*
X115485000Y-134369999D01*
G75*
G02*
X115734999Y-134120000I249999J0D01*
G01*
G37*
%TD*%
D14*
%TO.C,D2*%
X57270000Y-71055000D03*
X54470000Y-71055000D03*
%TD*%
D15*
%TO.C,C9*%
X118920000Y-28255000D03*
X118920000Y-43255000D03*
%TD*%
%TO.C,C2*%
G36*
G01*
X54780000Y-62280000D02*
X54780000Y-61330000D01*
G75*
G02*
X55030000Y-61080000I250000J0D01*
G01*
X55530000Y-61080000D01*
G75*
G02*
X55780000Y-61330000I0J-250000D01*
G01*
X55780000Y-62280000D01*
G75*
G02*
X55530000Y-62530000I-250000J0D01*
G01*
X55030000Y-62530000D01*
G75*
G02*
X54780000Y-62280000I0J250000D01*
G01*
G37*
G36*
G01*
X52880000Y-62280000D02*
X52880000Y-61330000D01*
G75*
G02*
X53130000Y-61080000I250000J0D01*
G01*
X53630000Y-61080000D01*
G75*
G02*
X53880000Y-61330000I0J-250000D01*
G01*
X53880000Y-62280000D01*
G75*
G02*
X53630000Y-62530000I-250000J0D01*
G01*
X53130000Y-62530000D01*
G75*
G02*
X52880000Y-62280000I0J250000D01*
G01*
G37*
%TD*%
D16*
%TO.C,R13*%
X104630000Y-41985000D03*
D17*
X104630000Y-47065000D03*
%TD*%
%TO.C,R12*%
G36*
G01*
X54750000Y-59235002D02*
X54750000Y-58334998D01*
G75*
G02*
X54999998Y-58085000I249998J0D01*
G01*
X55525002Y-58085000D01*
G75*
G02*
X55775000Y-58334998I0J-249998D01*
G01*
X55775000Y-59235002D01*
G75*
G02*
X55525002Y-59485000I-249998J0D01*
G01*
X54999998Y-59485000D01*
G75*
G02*
X54750000Y-59235002I0J249998D01*
G01*
G37*
G36*
G01*
X52925000Y-59235002D02*
X52925000Y-58334998D01*
G75*
G02*
X53174998Y-58085000I249998J0D01*
G01*
X53700002Y-58085000D01*
G75*
G02*
X53950000Y-58334998I0J-249998D01*
G01*
X53950000Y-59235002D01*
G75*
G02*
X53700002Y-59485000I-249998J0D01*
G01*
X53174998Y-59485000D01*
G75*
G02*
X52925000Y-59235002I0J249998D01*
G01*
G37*
%TD*%
D18*
%TO.C,TP13*%
X53510000Y-54295000D03*
%TD*%
D19*
%TO.C,HS2*%
X99920000Y-31815000D03*
X99920000Y-57215000D03*
%TD*%
D20*
%TO.C,H4*%
X22500000Y-22470000D03*
%TD*%
%TO.C,H3*%
X137500000Y-22470000D03*
%TD*%
%TO.C,H2*%
X22500000Y-157470000D03*
%TD*%
D14*
%TO.C,D10*%
X65290000Y-118995000D03*
X65290000Y-121795000D03*
%TD*%
D21*
%TO.C,SW1*%
X35825000Y-101805000D03*
X31325000Y-101805000D03*
X35825000Y-95305000D03*
X31325000Y-95305000D03*
%TD*%
D22*
%TO.C,U5*%
X74895000Y-137960000D03*
X74245000Y-137960000D03*
X75545000Y-137960000D03*
X75545000Y-136060000D03*
X74895000Y-136060000D03*
X74245000Y-136060000D03*
%TD*%
%TO.C,U4*%
X112670000Y-137965000D03*
X112020000Y-137965000D03*
X113320000Y-137965000D03*
X113320000Y-136065000D03*
X112670000Y-136065000D03*
X112020000Y-136065000D03*
%TD*%
D23*
%TO.C,U3*%
X55035000Y-135420000D03*
X52495000Y-135420000D03*
X49955000Y-135420000D03*
X47415000Y-135420000D03*
X42335000Y-135420000D03*
X39795000Y-135420000D03*
D24*
X37255000Y-135420000D03*
%TD*%
D18*
%TO.C,TP28*%
X39625000Y-44015000D03*
%TD*%
%TO.C,TP27*%
X39675000Y-49190000D03*
%TD*%
%TO.C,TP26*%
X39590000Y-69490000D03*
%TD*%
%TO.C,TP25*%
X39725000Y-54265000D03*
%TD*%
%TO.C,TP24*%
X39725000Y-59340000D03*
%TD*%
%TO.C,TP23*%
X39650000Y-64390000D03*
%TD*%
%TO.C,TP22*%
X33000000Y-75465000D03*
%TD*%
%TO.C,TP21*%
X39550000Y-74515000D03*
%TD*%
%TO.C,TP19*%
X71840000Y-111005000D03*
%TD*%
%TO.C,TP18*%
X67040000Y-125515000D03*
%TD*%
%TO.C,TP17*%
X67060000Y-106605000D03*
%TD*%
%TO.C,TP16*%
X97050000Y-154055000D03*
%TD*%
%TO.C,TP15*%
X127280000Y-28965000D03*
%TD*%
%TO.C,TP14*%
X127240000Y-35575000D03*
%TD*%
%TO.C,TP12*%
X134525000Y-151955000D03*
%TD*%
%TO.C,TP11*%
X93300000Y-136105000D03*
%TD*%
%TO.C,TP10*%
X127270000Y-42185000D03*
%TD*%
%TO.C,TP9*%
X130775000Y-136180000D03*
%TD*%
%TO.C,TP8*%
X55445000Y-149760000D03*
%TD*%
%TO.C,TP7*%
X46975000Y-145070000D03*
%TD*%
%TO.C,TP6*%
X48675000Y-156850000D03*
%TD*%
%TO.C,TP5*%
X55445000Y-156910000D03*
%TD*%
%TO.C,TP4*%
X62060000Y-70255000D03*
%TD*%
%TO.C,TP3*%
X62140000Y-75295000D03*
%TD*%
%TO.C,TP2*%
X49590000Y-72785000D03*
%TD*%
%TO.C,TP1*%
X63685000Y-90840000D03*
%TD*%
%TO.C,R26*%
G36*
G01*
X28449998Y-57965000D02*
X29350002Y-57965000D01*
G75*
G02*
X29600000Y-58214998I0J-249998D01*
G01*
X29600000Y-58740002D01*
G75*
G02*
X29350002Y-58990000I-249998J0D01*
G01*
X28449998Y-58990000D01*
G75*
G02*
X28200000Y-58740002I0J249998D01*
G01*
X28200000Y-58214998D01*
G75*
G02*
X28449998Y-57965000I249998J0D01*
G01*
G37*
G36*
G01*
X28449998Y-56140000D02*
X29350002Y-56140000D01*
G75*
G02*
X29600000Y-56389998I0J-249998D01*
G01*
X29600000Y-56915002D01*
G75*
G02*
X29350002Y-57165000I-249998J0D01*
G01*
X28449998Y-57165000D01*
G75*
G02*
X28200000Y-56915002I0J249998D01*
G01*
X28200000Y-56389998D01*
G75*
G02*
X28449998Y-56140000I249998J0D01*
G01*
G37*
%TD*%
%TO.C,R25*%
G36*
G01*
X31444998Y-57972500D02*
X32345002Y-57972500D01*
G75*
G02*
X32595000Y-58222498I0J-249998D01*
G01*
X32595000Y-58747502D01*
G75*
G02*
X32345002Y-58997500I-249998J0D01*
G01*
X31444998Y-58997500D01*
G75*
G02*
X31195000Y-58747502I0J249998D01*
G01*
X31195000Y-58222498D01*
G75*
G02*
X31444998Y-57972500I249998J0D01*
G01*
G37*
G36*
G01*
X31444998Y-56147500D02*
X32345002Y-56147500D01*
G75*
G02*
X32595000Y-56397498I0J-249998D01*
G01*
X32595000Y-56922502D01*
G75*
G02*
X32345002Y-57172500I-249998J0D01*
G01*
X31444998Y-57172500D01*
G75*
G02*
X31195000Y-56922502I0J249998D01*
G01*
X31195000Y-56397498D01*
G75*
G02*
X31444998Y-56147500I249998J0D01*
G01*
G37*
%TD*%
%TO.C,R24*%
G36*
G01*
X33920000Y-61209998D02*
X33920000Y-62110002D01*
G75*
G02*
X33670002Y-62360000I-249998J0D01*
G01*
X33144998Y-62360000D01*
G75*
G02*
X32895000Y-62110002I0J249998D01*
G01*
X32895000Y-61209998D01*
G75*
G02*
X33144998Y-60960000I249998J0D01*
G01*
X33670002Y-60960000D01*
G75*
G02*
X33920000Y-61209998I0J-249998D01*
G01*
G37*
G36*
G01*
X32095000Y-61209998D02*
X32095000Y-62110002D01*
G75*
G02*
X31845002Y-62360000I-249998J0D01*
G01*
X31319998Y-62360000D01*
G75*
G02*
X31070000Y-62110002I0J249998D01*
G01*
X31070000Y-61209998D01*
G75*
G02*
X31319998Y-60960000I249998J0D01*
G01*
X31845002Y-60960000D01*
G75*
G02*
X32095000Y-61209998I0J-249998D01*
G01*
G37*
%TD*%
%TO.C,R22*%
G36*
G01*
X84325000Y-130404998D02*
X84325000Y-131305002D01*
G75*
G02*
X84075002Y-131555000I-249998J0D01*
G01*
X83549998Y-131555000D01*
G75*
G02*
X83300000Y-131305002I0J249998D01*
G01*
X83300000Y-130404998D01*
G75*
G02*
X83549998Y-130155000I249998J0D01*
G01*
X84075002Y-130155000D01*
G75*
G02*
X84325000Y-130404998I0J-249998D01*
G01*
G37*
G36*
G01*
X86150000Y-130404998D02*
X86150000Y-131305002D01*
G75*
G02*
X85900002Y-131555000I-249998J0D01*
G01*
X85374998Y-131555000D01*
G75*
G02*
X85125000Y-131305002I0J249998D01*
G01*
X85125000Y-130404998D01*
G75*
G02*
X85374998Y-130155000I249998J0D01*
G01*
X85900002Y-130155000D01*
G75*
G02*
X86150000Y-130404998I0J-249998D01*
G01*
G37*
%TD*%
%TO.C,R21*%
G36*
G01*
X88812500Y-130454998D02*
X88812500Y-131355002D01*
G75*
G02*
X88562502Y-131605000I-249998J0D01*
G01*
X88037498Y-131605000D01*
G75*
G02*
X87787500Y-131355002I0J249998D01*
G01*
X87787500Y-130454998D01*
G75*
G02*
X88037498Y-130205000I249998J0D01*
G01*
X88562502Y-130205000D01*
G75*
G02*
X88812500Y-130454998I0J-249998D01*
G01*
G37*
G36*
G01*
X90637500Y-130454998D02*
X90637500Y-131355002D01*
G75*
G02*
X90387502Y-131605000I-249998J0D01*
G01*
X89862498Y-131605000D01*
G75*
G02*
X89612500Y-131355002I0J249998D01*
G01*
X89612500Y-130454998D01*
G75*
G02*
X89862498Y-130205000I249998J0D01*
G01*
X90387502Y-130205000D01*
G75*
G02*
X90637500Y-130454998I0J-249998D01*
G01*
G37*
%TD*%
%TO.C,R19*%
G36*
G01*
X120247500Y-130344998D02*
X120247500Y-131245002D01*
G75*
G02*
X119997502Y-131495000I-249998J0D01*
G01*
X119472498Y-131495000D01*
G75*
G02*
X119222500Y-131245002I0J249998D01*
G01*
X119222500Y-130344998D01*
G75*
G02*
X119472498Y-130095000I249998J0D01*
G01*
X119997502Y-130095000D01*
G75*
G02*
X120247500Y-130344998I0J-249998D01*
G01*
G37*
G36*
G01*
X122072500Y-130344998D02*
X122072500Y-131245002D01*
G75*
G02*
X121822502Y-131495000I-249998J0D01*
G01*
X121297498Y-131495000D01*
G75*
G02*
X121047500Y-131245002I0J249998D01*
G01*
X121047500Y-130344998D01*
G75*
G02*
X121297498Y-130095000I249998J0D01*
G01*
X121822502Y-130095000D01*
G75*
G02*
X122072500Y-130344998I0J-249998D01*
G01*
G37*
%TD*%
%TO.C,R18*%
G36*
G01*
X121910002Y-134075000D02*
X121009998Y-134075000D01*
G75*
G02*
X120760000Y-133825002I0J249998D01*
G01*
X120760000Y-133299998D01*
G75*
G02*
X121009998Y-133050000I249998J0D01*
G01*
X121910002Y-133050000D01*
G75*
G02*
X122160000Y-133299998I0J-249998D01*
G01*
X122160000Y-133825002D01*
G75*
G02*
X121910002Y-134075000I-249998J0D01*
G01*
G37*
G36*
G01*
X121910002Y-135900000D02*
X121009998Y-135900000D01*
G75*
G02*
X120760000Y-135650002I0J249998D01*
G01*
X120760000Y-135124998D01*
G75*
G02*
X121009998Y-134875000I249998J0D01*
G01*
X121910002Y-134875000D01*
G75*
G02*
X122160000Y-135124998I0J-249998D01*
G01*
X122160000Y-135650002D01*
G75*
G02*
X121910002Y-135900000I-249998J0D01*
G01*
G37*
%TD*%
%TO.C,R17*%
G36*
G01*
X72320002Y-123985000D02*
X71419998Y-123985000D01*
G75*
G02*
X71170000Y-123735002I0J249998D01*
G01*
X71170000Y-123209998D01*
G75*
G02*
X71419998Y-122960000I249998J0D01*
G01*
X72320002Y-122960000D01*
G75*
G02*
X72570000Y-123209998I0J-249998D01*
G01*
X72570000Y-123735002D01*
G75*
G02*
X72320002Y-123985000I-249998J0D01*
G01*
G37*
G36*
G01*
X72320002Y-125810000D02*
X71419998Y-125810000D01*
G75*
G02*
X71170000Y-125560002I0J249998D01*
G01*
X71170000Y-125034998D01*
G75*
G02*
X71419998Y-124785000I249998J0D01*
G01*
X72320002Y-124785000D01*
G75*
G02*
X72570000Y-125034998I0J-249998D01*
G01*
X72570000Y-125560002D01*
G75*
G02*
X72320002Y-125810000I-249998J0D01*
G01*
G37*
%TD*%
%TO.C,R15*%
G36*
G01*
X72400002Y-105005000D02*
X71499998Y-105005000D01*
G75*
G02*
X71250000Y-104755002I0J249998D01*
G01*
X71250000Y-104229998D01*
G75*
G02*
X71499998Y-103980000I249998J0D01*
G01*
X72400002Y-103980000D01*
G75*
G02*
X72650000Y-104229998I0J-249998D01*
G01*
X72650000Y-104755002D01*
G75*
G02*
X72400002Y-105005000I-249998J0D01*
G01*
G37*
G36*
G01*
X72400002Y-106830000D02*
X71499998Y-106830000D01*
G75*
G02*
X71250000Y-106580002I0J249998D01*
G01*
X71250000Y-106054998D01*
G75*
G02*
X71499998Y-105805000I249998J0D01*
G01*
X72400002Y-105805000D01*
G75*
G02*
X72650000Y-106054998I0J-249998D01*
G01*
X72650000Y-106580002D01*
G75*
G02*
X72400002Y-106830000I-249998J0D01*
G01*
G37*
%TD*%
%TO.C,L4*%
G36*
G01*
X29505000Y-61198750D02*
X29505000Y-61961250D01*
G75*
G02*
X29286250Y-62180000I-218750J0D01*
G01*
X28848750Y-62180000D01*
G75*
G02*
X28630000Y-61961250I0J218750D01*
G01*
X28630000Y-61198750D01*
G75*
G02*
X28848750Y-60980000I218750J0D01*
G01*
X29286250Y-60980000D01*
G75*
G02*
X29505000Y-61198750I0J-218750D01*
G01*
G37*
G36*
G01*
X27380000Y-61198750D02*
X27380000Y-61961250D01*
G75*
G02*
X27161250Y-62180000I-218750J0D01*
G01*
X26723750Y-62180000D01*
G75*
G02*
X26505000Y-61961250I0J218750D01*
G01*
X26505000Y-61198750D01*
G75*
G02*
X26723750Y-60980000I218750J0D01*
G01*
X27161250Y-60980000D01*
G75*
G02*
X27380000Y-61198750I0J-218750D01*
G01*
G37*
%TD*%
%TO.C,L3*%
G36*
G01*
X24915000Y-64188750D02*
X24915000Y-64951250D01*
G75*
G02*
X24696250Y-65170000I-218750J0D01*
G01*
X24258750Y-65170000D01*
G75*
G02*
X24040000Y-64951250I0J218750D01*
G01*
X24040000Y-64188750D01*
G75*
G02*
X24258750Y-63970000I218750J0D01*
G01*
X24696250Y-63970000D01*
G75*
G02*
X24915000Y-64188750I0J-218750D01*
G01*
G37*
G36*
G01*
X22790000Y-64188750D02*
X22790000Y-64951250D01*
G75*
G02*
X22571250Y-65170000I-218750J0D01*
G01*
X22133750Y-65170000D01*
G75*
G02*
X21915000Y-64951250I0J218750D01*
G01*
X21915000Y-64188750D01*
G75*
G02*
X22133750Y-63970000I218750J0D01*
G01*
X22571250Y-63970000D01*
G75*
G02*
X22790000Y-64188750I0J-218750D01*
G01*
G37*
%TD*%
D25*
%TO.C,JP1*%
X22410000Y-57490000D03*
D26*
X24950000Y-57490000D03*
%TD*%
D27*
%TO.C,J1*%
X38795000Y-156040000D03*
G36*
G01*
X42545000Y-155280000D02*
X42545000Y-156800000D01*
G75*
G02*
X42295000Y-157050000I-250000J0D01*
G01*
X41295000Y-157050000D01*
G75*
G02*
X41045000Y-156800000I0J250000D01*
G01*
X41045000Y-155280000D01*
G75*
G02*
X41295000Y-155030000I250000J0D01*
G01*
X42295000Y-155030000D01*
G75*
G02*
X42545000Y-155280000I0J-250000D01*
G01*
G37*
D28*
X35795000Y-158000000D03*
X44795000Y-158000000D03*
%TD*%
D14*
%TO.C,D9*%
X68660000Y-118985000D03*
X68660000Y-121785000D03*
%TD*%
%TO.C,D8*%
X65240000Y-100045000D03*
X65240000Y-102845000D03*
%TD*%
%TO.C,D7*%
X68680000Y-100035000D03*
X68680000Y-102835000D03*
%TD*%
%TO.C,D1*%
X54460000Y-75465000D03*
X57260000Y-75465000D03*
%TD*%
%TO.C,C24*%
G36*
G01*
X33680000Y-66690000D02*
X32730000Y-66690000D01*
G75*
G02*
X32480000Y-66440000I0J250000D01*
G01*
X32480000Y-65940000D01*
G75*
G02*
X32730000Y-65690000I250000J0D01*
G01*
X33680000Y-65690000D01*
G75*
G02*
X33930000Y-65940000I0J-250000D01*
G01*
X33930000Y-66440000D01*
G75*
G02*
X33680000Y-66690000I-250000J0D01*
G01*
G37*
G36*
G01*
X33680000Y-64790000D02*
X32730000Y-64790000D01*
G75*
G02*
X32480000Y-64540000I0J250000D01*
G01*
X32480000Y-64040000D01*
G75*
G02*
X32730000Y-63790000I250000J0D01*
G01*
X33680000Y-63790000D01*
G75*
G02*
X33930000Y-64040000I0J-250000D01*
G01*
X33930000Y-64540000D01*
G75*
G02*
X33680000Y-64790000I-250000J0D01*
G01*
G37*
%TD*%
%TO.C,C23*%
G36*
G01*
X30630000Y-66640000D02*
X29680000Y-66640000D01*
G75*
G02*
X29430000Y-66390000I0J250000D01*
G01*
X29430000Y-65890000D01*
G75*
G02*
X29680000Y-65640000I250000J0D01*
G01*
X30630000Y-65640000D01*
G75*
G02*
X30880000Y-65890000I0J-250000D01*
G01*
X30880000Y-66390000D01*
G75*
G02*
X30630000Y-66640000I-250000J0D01*
G01*
G37*
G36*
G01*
X30630000Y-64740000D02*
X29680000Y-64740000D01*
G75*
G02*
X29430000Y-64490000I0J250000D01*
G01*
X29430000Y-63990000D01*
G75*
G02*
X29680000Y-63740000I250000J0D01*
G01*
X30630000Y-63740000D01*
G75*
G02*
X30880000Y-63990000I0J-250000D01*
G01*
X30880000Y-64490000D01*
G75*
G02*
X30630000Y-64740000I-250000J0D01*
G01*
G37*
%TD*%
%TO.C,C22*%
G36*
G01*
X27600000Y-66630000D02*
X26650000Y-66630000D01*
G75*
G02*
X26400000Y-66380000I0J250000D01*
G01*
X26400000Y-65880000D01*
G75*
G02*
X26650000Y-65630000I250000J0D01*
G01*
X27600000Y-65630000D01*
G75*
G02*
X27850000Y-65880000I0J-250000D01*
G01*
X27850000Y-66380000D01*
G75*
G02*
X27600000Y-66630000I-250000J0D01*
G01*
G37*
G36*
G01*
X27600000Y-64730000D02*
X26650000Y-64730000D01*
G75*
G02*
X26400000Y-64480000I0J250000D01*
G01*
X26400000Y-63980000D01*
G75*
G02*
X26650000Y-63730000I250000J0D01*
G01*
X27600000Y-63730000D01*
G75*
G02*
X27850000Y-63980000I0J-250000D01*
G01*
X27850000Y-64480000D01*
G75*
G02*
X27600000Y-64730000I-250000J0D01*
G01*
G37*
%TD*%
%TO.C,C21*%
G36*
G01*
X21935000Y-62145000D02*
X21935000Y-61195000D01*
G75*
G02*
X22185000Y-60945000I250000J0D01*
G01*
X22685000Y-60945000D01*
G75*
G02*
X22935000Y-61195000I0J-250000D01*
G01*
X22935000Y-62145000D01*
G75*
G02*
X22685000Y-62395000I-250000J0D01*
G01*
X22185000Y-62395000D01*
G75*
G02*
X21935000Y-62145000I0J250000D01*
G01*
G37*
G36*
G01*
X23835000Y-62145000D02*
X23835000Y-61195000D01*
G75*
G02*
X24085000Y-60945000I250000J0D01*
G01*
X24585000Y-60945000D01*
G75*
G02*
X24835000Y-61195000I0J-250000D01*
G01*
X24835000Y-62145000D01*
G75*
G02*
X24585000Y-62395000I-250000J0D01*
G01*
X24085000Y-62395000D01*
G75*
G02*
X23835000Y-62145000I0J250000D01*
G01*
G37*
%TD*%
%TO.C,C20*%
G36*
G01*
X28205000Y-74765000D02*
X28205000Y-73815000D01*
G75*
G02*
X28455000Y-73565000I250000J0D01*
G01*
X28955000Y-73565000D01*
G75*
G02*
X29205000Y-73815000I0J-250000D01*
G01*
X29205000Y-74765000D01*
G75*
G02*
X28955000Y-75015000I-250000J0D01*
G01*
X28455000Y-75015000D01*
G75*
G02*
X28205000Y-74765000I0J250000D01*
G01*
G37*
G36*
G01*
X26305000Y-74765000D02*
X26305000Y-73815000D01*
G75*
G02*
X26555000Y-73565000I250000J0D01*
G01*
X27055000Y-73565000D01*
G75*
G02*
X27305000Y-73815000I0J-250000D01*
G01*
X27305000Y-74765000D01*
G75*
G02*
X27055000Y-75015000I-250000J0D01*
G01*
X26555000Y-75015000D01*
G75*
G02*
X26305000Y-74765000I0J250000D01*
G01*
G37*
%TD*%
%TO.C,C19*%
G36*
G01*
X28225000Y-71745000D02*
X28225000Y-70795000D01*
G75*
G02*
X28475000Y-70545000I250000J0D01*
G01*
X28975000Y-70545000D01*
G75*
G02*
X29225000Y-70795000I0J-250000D01*
G01*
X29225000Y-71745000D01*
G75*
G02*
X28975000Y-71995000I-250000J0D01*
G01*
X28475000Y-71995000D01*
G75*
G02*
X28225000Y-71745000I0J250000D01*
G01*
G37*
G36*
G01*
X26325000Y-71745000D02*
X26325000Y-70795000D01*
G75*
G02*
X26575000Y-70545000I250000J0D01*
G01*
X27075000Y-70545000D01*
G75*
G02*
X27325000Y-70795000I0J-250000D01*
G01*
X27325000Y-71745000D01*
G75*
G02*
X27075000Y-71995000I-250000J0D01*
G01*
X26575000Y-71995000D01*
G75*
G02*
X26325000Y-71745000I0J250000D01*
G01*
G37*
%TD*%
%TO.C,C18*%
G36*
G01*
X22895000Y-73805000D02*
X22895000Y-74755000D01*
G75*
G02*
X22645000Y-75005000I-250000J0D01*
G01*
X22145000Y-75005000D01*
G75*
G02*
X21895000Y-74755000I0J250000D01*
G01*
X21895000Y-73805000D01*
G75*
G02*
X22145000Y-73555000I250000J0D01*
G01*
X22645000Y-73555000D01*
G75*
G02*
X22895000Y-73805000I0J-250000D01*
G01*
G37*
G36*
G01*
X24795000Y-73805000D02*
X24795000Y-74755000D01*
G75*
G02*
X24545000Y-75005000I-250000J0D01*
G01*
X24045000Y-75005000D01*
G75*
G02*
X23795000Y-74755000I0J250000D01*
G01*
X23795000Y-73805000D01*
G75*
G02*
X24045000Y-73555000I250000J0D01*
G01*
X24545000Y-73555000D01*
G75*
G02*
X24795000Y-73805000I0J-250000D01*
G01*
G37*
%TD*%
%TO.C,C17*%
G36*
G01*
X22935000Y-70735000D02*
X22935000Y-71685000D01*
G75*
G02*
X22685000Y-71935000I-250000J0D01*
G01*
X22185000Y-71935000D01*
G75*
G02*
X21935000Y-71685000I0J250000D01*
G01*
X21935000Y-70735000D01*
G75*
G02*
X22185000Y-70485000I250000J0D01*
G01*
X22685000Y-70485000D01*
G75*
G02*
X22935000Y-70735000I0J-250000D01*
G01*
G37*
G36*
G01*
X24835000Y-70735000D02*
X24835000Y-71685000D01*
G75*
G02*
X24585000Y-71935000I-250000J0D01*
G01*
X24085000Y-71935000D01*
G75*
G02*
X23835000Y-71685000I0J250000D01*
G01*
X23835000Y-70735000D01*
G75*
G02*
X24085000Y-70485000I250000J0D01*
G01*
X24585000Y-70485000D01*
G75*
G02*
X24835000Y-70735000I0J-250000D01*
G01*
G37*
%TD*%
%TO.C,C14*%
G36*
G01*
X72315000Y-119375000D02*
X71365000Y-119375000D01*
G75*
G02*
X71115000Y-119125000I0J250000D01*
G01*
X71115000Y-118625000D01*
G75*
G02*
X71365000Y-118375000I250000J0D01*
G01*
X72315000Y-118375000D01*
G75*
G02*
X72565000Y-118625000I0J-250000D01*
G01*
X72565000Y-119125000D01*
G75*
G02*
X72315000Y-119375000I-250000J0D01*
G01*
G37*
G36*
G01*
X72315000Y-121275000D02*
X71365000Y-121275000D01*
G75*
G02*
X71115000Y-121025000I0J250000D01*
G01*
X71115000Y-120525000D01*
G75*
G02*
X71365000Y-120275000I250000J0D01*
G01*
X72315000Y-120275000D01*
G75*
G02*
X72565000Y-120525000I0J-250000D01*
G01*
X72565000Y-121025000D01*
G75*
G02*
X72315000Y-121275000I-250000J0D01*
G01*
G37*
%TD*%
%TO.C,C13*%
G36*
G01*
X72330000Y-136320000D02*
X71380000Y-136320000D01*
G75*
G02*
X71130000Y-136070000I0J250000D01*
G01*
X71130000Y-135570000D01*
G75*
G02*
X71380000Y-135320000I250000J0D01*
G01*
X72330000Y-135320000D01*
G75*
G02*
X72580000Y-135570000I0J-250000D01*
G01*
X72580000Y-136070000D01*
G75*
G02*
X72330000Y-136320000I-250000J0D01*
G01*
G37*
G36*
G01*
X72330000Y-138220000D02*
X71380000Y-138220000D01*
G75*
G02*
X71130000Y-137970000I0J250000D01*
G01*
X71130000Y-137470000D01*
G75*
G02*
X71380000Y-137220000I250000J0D01*
G01*
X72330000Y-137220000D01*
G75*
G02*
X72580000Y-137470000I0J-250000D01*
G01*
X72580000Y-137970000D01*
G75*
G02*
X72330000Y-138220000I-250000J0D01*
G01*
G37*
%TD*%
%TO.C,C12*%
G36*
G01*
X72435000Y-100475000D02*
X71485000Y-100475000D01*
G75*
G02*
X71235000Y-100225000I0J250000D01*
G01*
X71235000Y-99725000D01*
G75*
G02*
X71485000Y-99475000I250000J0D01*
G01*
X72435000Y-99475000D01*
G75*
G02*
X72685000Y-99725000I0J-250000D01*
G01*
X72685000Y-100225000D01*
G75*
G02*
X72435000Y-100475000I-250000J0D01*
G01*
G37*
G36*
G01*
X72435000Y-102375000D02*
X71485000Y-102375000D01*
G75*
G02*
X71235000Y-102125000I0J250000D01*
G01*
X71235000Y-101625000D01*
G75*
G02*
X71485000Y-101375000I250000J0D01*
G01*
X72435000Y-101375000D01*
G75*
G02*
X72685000Y-101625000I0J-250000D01*
G01*
X72685000Y-102125000D01*
G75*
G02*
X72435000Y-102375000I-250000J0D01*
G01*
G37*
%TD*%
%TO.C,C11*%
G36*
G01*
X110065000Y-136335000D02*
X109115000Y-136335000D01*
G75*
G02*
X108865000Y-136085000I0J250000D01*
G01*
X108865000Y-135585000D01*
G75*
G02*
X109115000Y-135335000I250000J0D01*
G01*
X110065000Y-135335000D01*
G75*
G02*
X110315000Y-135585000I0J-250000D01*
G01*
X110315000Y-136085000D01*
G75*
G02*
X110065000Y-136335000I-250000J0D01*
G01*
G37*
G36*
G01*
X110065000Y-138235000D02*
X109115000Y-138235000D01*
G75*
G02*
X108865000Y-137985000I0J250000D01*
G01*
X108865000Y-137485000D01*
G75*
G02*
X109115000Y-137235000I250000J0D01*
G01*
X110065000Y-137235000D01*
G75*
G02*
X110315000Y-137485000I0J-250000D01*
G01*
X110315000Y-137985000D01*
G75*
G02*
X110065000Y-138235000I-250000J0D01*
G01*
G37*
%TD*%
D29*
%TO.C,Q1*%
X75750000Y-38925000D03*
X75750000Y-44375000D03*
D30*
X75750000Y-49825000D03*
%TD*%
D29*
%TO.C,Q2*%
X67960000Y-49825000D03*
X67960000Y-44375000D03*
D30*
X67960000Y-38925000D03*
%TD*%
D16*
%TO.C,D5*%
X92444000Y-85568000D03*
D17*
X87364000Y-85568000D03*
%TD*%
D19*
%TO.C,HS1*%
X77204000Y-80996000D03*
X102604000Y-80996000D03*
%TD*%
D16*
%TO.C,D6*%
X87364000Y-76424000D03*
D17*
X92444000Y-76424000D03*
%TD*%
D27*
%TO.C,J4*%
X32825000Y-50880000D03*
X29825000Y-50880000D03*
X26825000Y-50880000D03*
G36*
G01*
X23075000Y-51640000D02*
X23075000Y-50120000D01*
G75*
G02*
X23325000Y-49870000I250000J0D01*
G01*
X24325000Y-49870000D01*
G75*
G02*
X24575000Y-50120000I0J-250000D01*
G01*
X24575000Y-51640000D01*
G75*
G02*
X24325000Y-51890000I-250000J0D01*
G01*
X23325000Y-51890000D01*
G75*
G02*
X23075000Y-51640000I0J250000D01*
G01*
G37*
D28*
X35825000Y-48920000D03*
X20825000Y-48920000D03*
%TD*%
D27*
%TO.C,J5*%
X32825000Y-43040000D03*
X29825000Y-43040000D03*
X26825000Y-43040000D03*
G36*
G01*
X23075000Y-43800000D02*
X23075000Y-42280000D01*
G75*
G02*
X23325000Y-42030000I250000J0D01*
G01*
X24325000Y-42030000D01*
G75*
G02*
X24575000Y-42280000I0J-250000D01*
G01*
X24575000Y-43800000D01*
G75*
G02*
X24325000Y-44050000I-250000J0D01*
G01*
X23325000Y-44050000D01*
G75*
G02*
X23075000Y-43800000I0J250000D01*
G01*
G37*
D28*
X35825000Y-41080000D03*
X20825000Y-41080000D03*
%TD*%
D18*
%TO.C,TP20*%
X75750000Y-124205000D03*
%TD*%
D31*
%TO.C,L2*%
X137760000Y-70255000D03*
X115960000Y-70255000D03*
%TD*%
D20*
%TO.C,H1*%
X137520000Y-157565000D03*
%TD*%
%TO.C,J3*%
X90215000Y-154080000D03*
X66475000Y-154080000D03*
D32*
X82155000Y-151280000D03*
X82155000Y-148740000D03*
X74535000Y-151280000D03*
X74535000Y-148740000D03*
X82155000Y-143660000D03*
X74535000Y-143660000D03*
%TD*%
D20*
%TO.C,J2*%
X127670000Y-154085000D03*
X103930000Y-154085000D03*
D32*
X119610000Y-151285000D03*
X119610000Y-148745000D03*
X111990000Y-151285000D03*
X111990000Y-148745000D03*
X119610000Y-143665000D03*
X111990000Y-143665000D03*
%TD*%
D33*
%TO.C,U1*%
X55510000Y-88370000D03*
D34*
X55510000Y-90910000D03*
X55510000Y-93450000D03*
X55510000Y-95990000D03*
X55510000Y-98530000D03*
X55510000Y-101070000D03*
X55510000Y-103610000D03*
X55510000Y-106150000D03*
X55510000Y-108690000D03*
X55510000Y-111230000D03*
X55510000Y-113770000D03*
X55510000Y-116310000D03*
X55510000Y-118850000D03*
X55510000Y-121390000D03*
X55510000Y-123930000D03*
D33*
X40270000Y-88370000D03*
D34*
X40270000Y-90910000D03*
X40270000Y-93450000D03*
X40270000Y-95990000D03*
X40270000Y-98530000D03*
X40270000Y-101070000D03*
X40270000Y-103610000D03*
X40270000Y-106150000D03*
X40270000Y-108690000D03*
X40270000Y-111230000D03*
X40270000Y-113770000D03*
X40270000Y-116310000D03*
X40270000Y-118850000D03*
X40270000Y-121390000D03*
X40270000Y-123930000D03*
%TD*%
D19*
%TO.C,HS3*%
X71899000Y-57119000D03*
X71899000Y-31719000D03*
%TD*%
D35*
%TO.C,F2*%
X87765000Y-134480000D03*
X63665000Y-134480000D03*
%TD*%
%TO.C,F1*%
X101140000Y-134445000D03*
X125240000Y-134445000D03*
%TD*%
D16*
%TO.C,D4*%
X95210000Y-47055000D03*
D17*
X95210000Y-41975000D03*
%TD*%
D19*
%TO.C,C10*%
X96770000Y-111655000D03*
D36*
X86770000Y-111655000D03*
%TD*%
D19*
%TO.C,C8*%
X119850000Y-111605000D03*
D36*
X129850000Y-111605000D03*
%TD*%
M02*
