%TF.GenerationSoftware,KiCad,Pcbnew,5.1.7-a382d34a8~88~ubuntu18.04.1*%
%TF.CreationDate,2020-12-13T04:00:48-06:00*%
%TF.ProjectId,MPPT,4d505054-2e6b-4696-9361-645f70636258,Rev1.3*%
%TF.SameCoordinates,Original*%
%TF.FileFunction,Soldermask,Bot*%
%TF.FilePolarity,Negative*%
%FSLAX46Y46*%
G04 Gerber Fmt 4.6, Leading zero omitted, Abs format (unit mm)*
G04 Created by KiCad (PCBNEW 5.1.7-a382d34a8~88~ubuntu18.04.1) date 2020-12-13 04:00:48*
%MOMM*%
%LPD*%
G01*
G04 APERTURE LIST*
%ADD10C,2.600000*%
%ADD11O,2.400000X2.400000*%
%ADD12C,3.200000*%
%ADD13C,4.400000*%
%ADD14C,3.600000*%
%ADD15C,2.400000*%
%ADD16C,1.908000*%
%ADD17O,2.100000X2.100000*%
%ADD18C,1.670000*%
%ADD19O,1.900000X2.420000*%
%ADD20O,4.900000X2.900000*%
%ADD21C,4.200000*%
%ADD22C,2.686000*%
%ADD23C,1.930000*%
%ADD24C,2.900000*%
G04 APERTURE END LIST*
%TO.C,D2*%
G36*
G01*
X56520000Y-71605000D02*
X56520000Y-70505000D01*
G75*
G02*
X56720000Y-70305000I200000J0D01*
G01*
X57820000Y-70305000D01*
G75*
G02*
X58020000Y-70505000I0J-200000D01*
G01*
X58020000Y-71605000D01*
G75*
G02*
X57820000Y-71805000I-200000J0D01*
G01*
X56720000Y-71805000D01*
G75*
G02*
X56520000Y-71605000I0J200000D01*
G01*
G37*
G36*
G01*
X53720000Y-71605000D02*
X53720000Y-70505000D01*
G75*
G02*
X53920000Y-70305000I200000J0D01*
G01*
X55020000Y-70305000D01*
G75*
G02*
X55220000Y-70505000I0J-200000D01*
G01*
X55220000Y-71605000D01*
G75*
G02*
X55020000Y-71805000I-200000J0D01*
G01*
X53920000Y-71805000D01*
G75*
G02*
X53720000Y-71605000I0J200000D01*
G01*
G37*
%TD*%
D10*
%TO.C,C9*%
X118920000Y-28255000D03*
X118920000Y-43255000D03*
%TD*%
%TO.C,C2*%
G36*
G01*
X54580000Y-62380000D02*
X54580000Y-61230000D01*
G75*
G02*
X54930000Y-60880000I350000J0D01*
G01*
X55630000Y-60880000D01*
G75*
G02*
X55980000Y-61230000I0J-350000D01*
G01*
X55980000Y-62380000D01*
G75*
G02*
X55630000Y-62730000I-350000J0D01*
G01*
X54930000Y-62730000D01*
G75*
G02*
X54580000Y-62380000I0J350000D01*
G01*
G37*
G36*
G01*
X52680000Y-62380000D02*
X52680000Y-61230000D01*
G75*
G02*
X53030000Y-60880000I350000J0D01*
G01*
X53730000Y-60880000D01*
G75*
G02*
X54080000Y-61230000I0J-350000D01*
G01*
X54080000Y-62380000D01*
G75*
G02*
X53730000Y-62730000I-350000J0D01*
G01*
X53030000Y-62730000D01*
G75*
G02*
X52680000Y-62380000I0J350000D01*
G01*
G37*
%TD*%
D11*
%TO.C,R13*%
X104630000Y-41985000D03*
G36*
G01*
X105630000Y-48265000D02*
X103630000Y-48265000D01*
G75*
G02*
X103430000Y-48065000I0J200000D01*
G01*
X103430000Y-46065000D01*
G75*
G02*
X103630000Y-45865000I200000J0D01*
G01*
X105630000Y-45865000D01*
G75*
G02*
X105830000Y-46065000I0J-200000D01*
G01*
X105830000Y-48065000D01*
G75*
G02*
X105630000Y-48265000I-200000J0D01*
G01*
G37*
%TD*%
%TO.C,R12*%
G36*
G01*
X54550000Y-59337441D02*
X54550000Y-58232559D01*
G75*
G02*
X54897559Y-57885000I347559J0D01*
G01*
X55627441Y-57885000D01*
G75*
G02*
X55975000Y-58232559I0J-347559D01*
G01*
X55975000Y-59337441D01*
G75*
G02*
X55627441Y-59685000I-347559J0D01*
G01*
X54897559Y-59685000D01*
G75*
G02*
X54550000Y-59337441I0J347559D01*
G01*
G37*
G36*
G01*
X52725000Y-59337441D02*
X52725000Y-58232559D01*
G75*
G02*
X53072559Y-57885000I347559J0D01*
G01*
X53802441Y-57885000D01*
G75*
G02*
X54150000Y-58232559I0J-347559D01*
G01*
X54150000Y-59337441D01*
G75*
G02*
X53802441Y-59685000I-347559J0D01*
G01*
X53072559Y-59685000D01*
G75*
G02*
X52725000Y-59337441I0J347559D01*
G01*
G37*
%TD*%
D12*
%TO.C,TP13*%
X53510000Y-54295000D03*
%TD*%
D13*
%TO.C,HS2*%
X99920000Y-57215000D03*
X99920000Y-31815000D03*
%TD*%
D14*
%TO.C,H4*%
X22500000Y-22470000D03*
%TD*%
%TO.C,H3*%
X137500000Y-22470000D03*
%TD*%
%TO.C,H2*%
X22500000Y-157470000D03*
%TD*%
%TO.C,D10*%
G36*
G01*
X65840000Y-119745000D02*
X64740000Y-119745000D01*
G75*
G02*
X64540000Y-119545000I0J200000D01*
G01*
X64540000Y-118445000D01*
G75*
G02*
X64740000Y-118245000I200000J0D01*
G01*
X65840000Y-118245000D01*
G75*
G02*
X66040000Y-118445000I0J-200000D01*
G01*
X66040000Y-119545000D01*
G75*
G02*
X65840000Y-119745000I-200000J0D01*
G01*
G37*
G36*
G01*
X65840000Y-122545000D02*
X64740000Y-122545000D01*
G75*
G02*
X64540000Y-122345000I0J200000D01*
G01*
X64540000Y-121245000D01*
G75*
G02*
X64740000Y-121045000I200000J0D01*
G01*
X65840000Y-121045000D01*
G75*
G02*
X66040000Y-121245000I0J-200000D01*
G01*
X66040000Y-122345000D01*
G75*
G02*
X65840000Y-122545000I-200000J0D01*
G01*
G37*
%TD*%
D15*
%TO.C,SW1*%
X35825000Y-101805000D03*
X31325000Y-101805000D03*
X35825000Y-95305000D03*
X31325000Y-95305000D03*
%TD*%
%TO.C,U5*%
G36*
G01*
X74495000Y-138310000D02*
X74495000Y-137610000D01*
G75*
G02*
X74695000Y-137410000I200000J0D01*
G01*
X75095000Y-137410000D01*
G75*
G02*
X75295000Y-137610000I0J-200000D01*
G01*
X75295000Y-138310000D01*
G75*
G02*
X75095000Y-138510000I-200000J0D01*
G01*
X74695000Y-138510000D01*
G75*
G02*
X74495000Y-138310000I0J200000D01*
G01*
G37*
G36*
G01*
X73845000Y-138310000D02*
X73845000Y-137610000D01*
G75*
G02*
X74045000Y-137410000I200000J0D01*
G01*
X74445000Y-137410000D01*
G75*
G02*
X74645000Y-137610000I0J-200000D01*
G01*
X74645000Y-138310000D01*
G75*
G02*
X74445000Y-138510000I-200000J0D01*
G01*
X74045000Y-138510000D01*
G75*
G02*
X73845000Y-138310000I0J200000D01*
G01*
G37*
G36*
G01*
X75145000Y-138310000D02*
X75145000Y-137610000D01*
G75*
G02*
X75345000Y-137410000I200000J0D01*
G01*
X75745000Y-137410000D01*
G75*
G02*
X75945000Y-137610000I0J-200000D01*
G01*
X75945000Y-138310000D01*
G75*
G02*
X75745000Y-138510000I-200000J0D01*
G01*
X75345000Y-138510000D01*
G75*
G02*
X75145000Y-138310000I0J200000D01*
G01*
G37*
G36*
G01*
X75145000Y-136410000D02*
X75145000Y-135710000D01*
G75*
G02*
X75345000Y-135510000I200000J0D01*
G01*
X75745000Y-135510000D01*
G75*
G02*
X75945000Y-135710000I0J-200000D01*
G01*
X75945000Y-136410000D01*
G75*
G02*
X75745000Y-136610000I-200000J0D01*
G01*
X75345000Y-136610000D01*
G75*
G02*
X75145000Y-136410000I0J200000D01*
G01*
G37*
G36*
G01*
X74495000Y-136410000D02*
X74495000Y-135710000D01*
G75*
G02*
X74695000Y-135510000I200000J0D01*
G01*
X75095000Y-135510000D01*
G75*
G02*
X75295000Y-135710000I0J-200000D01*
G01*
X75295000Y-136410000D01*
G75*
G02*
X75095000Y-136610000I-200000J0D01*
G01*
X74695000Y-136610000D01*
G75*
G02*
X74495000Y-136410000I0J200000D01*
G01*
G37*
G36*
G01*
X73845000Y-136410000D02*
X73845000Y-135710000D01*
G75*
G02*
X74045000Y-135510000I200000J0D01*
G01*
X74445000Y-135510000D01*
G75*
G02*
X74645000Y-135710000I0J-200000D01*
G01*
X74645000Y-136410000D01*
G75*
G02*
X74445000Y-136610000I-200000J0D01*
G01*
X74045000Y-136610000D01*
G75*
G02*
X73845000Y-136410000I0J200000D01*
G01*
G37*
%TD*%
%TO.C,U4*%
G36*
G01*
X112270000Y-138315000D02*
X112270000Y-137615000D01*
G75*
G02*
X112470000Y-137415000I200000J0D01*
G01*
X112870000Y-137415000D01*
G75*
G02*
X113070000Y-137615000I0J-200000D01*
G01*
X113070000Y-138315000D01*
G75*
G02*
X112870000Y-138515000I-200000J0D01*
G01*
X112470000Y-138515000D01*
G75*
G02*
X112270000Y-138315000I0J200000D01*
G01*
G37*
G36*
G01*
X111620000Y-138315000D02*
X111620000Y-137615000D01*
G75*
G02*
X111820000Y-137415000I200000J0D01*
G01*
X112220000Y-137415000D01*
G75*
G02*
X112420000Y-137615000I0J-200000D01*
G01*
X112420000Y-138315000D01*
G75*
G02*
X112220000Y-138515000I-200000J0D01*
G01*
X111820000Y-138515000D01*
G75*
G02*
X111620000Y-138315000I0J200000D01*
G01*
G37*
G36*
G01*
X112920000Y-138315000D02*
X112920000Y-137615000D01*
G75*
G02*
X113120000Y-137415000I200000J0D01*
G01*
X113520000Y-137415000D01*
G75*
G02*
X113720000Y-137615000I0J-200000D01*
G01*
X113720000Y-138315000D01*
G75*
G02*
X113520000Y-138515000I-200000J0D01*
G01*
X113120000Y-138515000D01*
G75*
G02*
X112920000Y-138315000I0J200000D01*
G01*
G37*
G36*
G01*
X112920000Y-136415000D02*
X112920000Y-135715000D01*
G75*
G02*
X113120000Y-135515000I200000J0D01*
G01*
X113520000Y-135515000D01*
G75*
G02*
X113720000Y-135715000I0J-200000D01*
G01*
X113720000Y-136415000D01*
G75*
G02*
X113520000Y-136615000I-200000J0D01*
G01*
X113120000Y-136615000D01*
G75*
G02*
X112920000Y-136415000I0J200000D01*
G01*
G37*
G36*
G01*
X112270000Y-136415000D02*
X112270000Y-135715000D01*
G75*
G02*
X112470000Y-135515000I200000J0D01*
G01*
X112870000Y-135515000D01*
G75*
G02*
X113070000Y-135715000I0J-200000D01*
G01*
X113070000Y-136415000D01*
G75*
G02*
X112870000Y-136615000I-200000J0D01*
G01*
X112470000Y-136615000D01*
G75*
G02*
X112270000Y-136415000I0J200000D01*
G01*
G37*
G36*
G01*
X111620000Y-136415000D02*
X111620000Y-135715000D01*
G75*
G02*
X111820000Y-135515000I200000J0D01*
G01*
X112220000Y-135515000D01*
G75*
G02*
X112420000Y-135715000I0J-200000D01*
G01*
X112420000Y-136415000D01*
G75*
G02*
X112220000Y-136615000I-200000J0D01*
G01*
X111820000Y-136615000D01*
G75*
G02*
X111620000Y-136415000I0J200000D01*
G01*
G37*
%TD*%
D16*
%TO.C,U3*%
X55035000Y-135420000D03*
X52495000Y-135420000D03*
X49955000Y-135420000D03*
X47415000Y-135420000D03*
X42335000Y-135420000D03*
X39795000Y-135420000D03*
G36*
G01*
X36301000Y-136174000D02*
X36301000Y-134666000D01*
G75*
G02*
X36501000Y-134466000I200000J0D01*
G01*
X38009000Y-134466000D01*
G75*
G02*
X38209000Y-134666000I0J-200000D01*
G01*
X38209000Y-136174000D01*
G75*
G02*
X38009000Y-136374000I-200000J0D01*
G01*
X36501000Y-136374000D01*
G75*
G02*
X36301000Y-136174000I0J200000D01*
G01*
G37*
%TD*%
D12*
%TO.C,TP28*%
X39625000Y-44015000D03*
%TD*%
%TO.C,TP27*%
X39675000Y-49190000D03*
%TD*%
%TO.C,TP26*%
X39590000Y-69490000D03*
%TD*%
%TO.C,TP25*%
X39725000Y-54265000D03*
%TD*%
%TO.C,TP24*%
X39725000Y-59340000D03*
%TD*%
%TO.C,TP23*%
X39650000Y-64390000D03*
%TD*%
%TO.C,TP22*%
X33000000Y-75465000D03*
%TD*%
%TO.C,TP21*%
X39550000Y-74515000D03*
%TD*%
%TO.C,TP19*%
X71840000Y-111005000D03*
%TD*%
%TO.C,TP18*%
X67040000Y-125515000D03*
%TD*%
%TO.C,TP17*%
X67060000Y-106605000D03*
%TD*%
%TO.C,TP16*%
X97050000Y-154055000D03*
%TD*%
%TO.C,TP15*%
X127280000Y-28965000D03*
%TD*%
%TO.C,TP14*%
X127240000Y-35575000D03*
%TD*%
%TO.C,TP12*%
X134525000Y-151955000D03*
%TD*%
%TO.C,TP11*%
X93300000Y-136105000D03*
%TD*%
%TO.C,TP10*%
X127270000Y-42185000D03*
%TD*%
%TO.C,TP9*%
X130775000Y-136180000D03*
%TD*%
%TO.C,TP8*%
X55445000Y-149760000D03*
%TD*%
%TO.C,TP7*%
X46975000Y-145070000D03*
%TD*%
%TO.C,TP6*%
X48675000Y-156850000D03*
%TD*%
%TO.C,TP5*%
X55445000Y-156910000D03*
%TD*%
%TO.C,TP4*%
X62060000Y-70255000D03*
%TD*%
%TO.C,TP3*%
X62140000Y-75295000D03*
%TD*%
%TO.C,TP2*%
X49590000Y-72785000D03*
%TD*%
%TO.C,TP1*%
X63685000Y-90840000D03*
%TD*%
%TO.C,R26*%
G36*
G01*
X28347559Y-57765000D02*
X29452441Y-57765000D01*
G75*
G02*
X29800000Y-58112559I0J-347559D01*
G01*
X29800000Y-58842441D01*
G75*
G02*
X29452441Y-59190000I-347559J0D01*
G01*
X28347559Y-59190000D01*
G75*
G02*
X28000000Y-58842441I0J347559D01*
G01*
X28000000Y-58112559D01*
G75*
G02*
X28347559Y-57765000I347559J0D01*
G01*
G37*
G36*
G01*
X28347559Y-55940000D02*
X29452441Y-55940000D01*
G75*
G02*
X29800000Y-56287559I0J-347559D01*
G01*
X29800000Y-57017441D01*
G75*
G02*
X29452441Y-57365000I-347559J0D01*
G01*
X28347559Y-57365000D01*
G75*
G02*
X28000000Y-57017441I0J347559D01*
G01*
X28000000Y-56287559D01*
G75*
G02*
X28347559Y-55940000I347559J0D01*
G01*
G37*
%TD*%
%TO.C,R25*%
G36*
G01*
X31342559Y-57772500D02*
X32447441Y-57772500D01*
G75*
G02*
X32795000Y-58120059I0J-347559D01*
G01*
X32795000Y-58849941D01*
G75*
G02*
X32447441Y-59197500I-347559J0D01*
G01*
X31342559Y-59197500D01*
G75*
G02*
X30995000Y-58849941I0J347559D01*
G01*
X30995000Y-58120059D01*
G75*
G02*
X31342559Y-57772500I347559J0D01*
G01*
G37*
G36*
G01*
X31342559Y-55947500D02*
X32447441Y-55947500D01*
G75*
G02*
X32795000Y-56295059I0J-347559D01*
G01*
X32795000Y-57024941D01*
G75*
G02*
X32447441Y-57372500I-347559J0D01*
G01*
X31342559Y-57372500D01*
G75*
G02*
X30995000Y-57024941I0J347559D01*
G01*
X30995000Y-56295059D01*
G75*
G02*
X31342559Y-55947500I347559J0D01*
G01*
G37*
%TD*%
%TO.C,R24*%
G36*
G01*
X34120000Y-61107559D02*
X34120000Y-62212441D01*
G75*
G02*
X33772441Y-62560000I-347559J0D01*
G01*
X33042559Y-62560000D01*
G75*
G02*
X32695000Y-62212441I0J347559D01*
G01*
X32695000Y-61107559D01*
G75*
G02*
X33042559Y-60760000I347559J0D01*
G01*
X33772441Y-60760000D01*
G75*
G02*
X34120000Y-61107559I0J-347559D01*
G01*
G37*
G36*
G01*
X32295000Y-61107559D02*
X32295000Y-62212441D01*
G75*
G02*
X31947441Y-62560000I-347559J0D01*
G01*
X31217559Y-62560000D01*
G75*
G02*
X30870000Y-62212441I0J347559D01*
G01*
X30870000Y-61107559D01*
G75*
G02*
X31217559Y-60760000I347559J0D01*
G01*
X31947441Y-60760000D01*
G75*
G02*
X32295000Y-61107559I0J-347559D01*
G01*
G37*
%TD*%
%TO.C,R22*%
G36*
G01*
X84525000Y-130302559D02*
X84525000Y-131407441D01*
G75*
G02*
X84177441Y-131755000I-347559J0D01*
G01*
X83447559Y-131755000D01*
G75*
G02*
X83100000Y-131407441I0J347559D01*
G01*
X83100000Y-130302559D01*
G75*
G02*
X83447559Y-129955000I347559J0D01*
G01*
X84177441Y-129955000D01*
G75*
G02*
X84525000Y-130302559I0J-347559D01*
G01*
G37*
G36*
G01*
X86350000Y-130302559D02*
X86350000Y-131407441D01*
G75*
G02*
X86002441Y-131755000I-347559J0D01*
G01*
X85272559Y-131755000D01*
G75*
G02*
X84925000Y-131407441I0J347559D01*
G01*
X84925000Y-130302559D01*
G75*
G02*
X85272559Y-129955000I347559J0D01*
G01*
X86002441Y-129955000D01*
G75*
G02*
X86350000Y-130302559I0J-347559D01*
G01*
G37*
%TD*%
%TO.C,R21*%
G36*
G01*
X89012500Y-130352559D02*
X89012500Y-131457441D01*
G75*
G02*
X88664941Y-131805000I-347559J0D01*
G01*
X87935059Y-131805000D01*
G75*
G02*
X87587500Y-131457441I0J347559D01*
G01*
X87587500Y-130352559D01*
G75*
G02*
X87935059Y-130005000I347559J0D01*
G01*
X88664941Y-130005000D01*
G75*
G02*
X89012500Y-130352559I0J-347559D01*
G01*
G37*
G36*
G01*
X90837500Y-130352559D02*
X90837500Y-131457441D01*
G75*
G02*
X90489941Y-131805000I-347559J0D01*
G01*
X89760059Y-131805000D01*
G75*
G02*
X89412500Y-131457441I0J347559D01*
G01*
X89412500Y-130352559D01*
G75*
G02*
X89760059Y-130005000I347559J0D01*
G01*
X90489941Y-130005000D01*
G75*
G02*
X90837500Y-130352559I0J-347559D01*
G01*
G37*
%TD*%
%TO.C,R19*%
G36*
G01*
X120447500Y-130242559D02*
X120447500Y-131347441D01*
G75*
G02*
X120099941Y-131695000I-347559J0D01*
G01*
X119370059Y-131695000D01*
G75*
G02*
X119022500Y-131347441I0J347559D01*
G01*
X119022500Y-130242559D01*
G75*
G02*
X119370059Y-129895000I347559J0D01*
G01*
X120099941Y-129895000D01*
G75*
G02*
X120447500Y-130242559I0J-347559D01*
G01*
G37*
G36*
G01*
X122272500Y-130242559D02*
X122272500Y-131347441D01*
G75*
G02*
X121924941Y-131695000I-347559J0D01*
G01*
X121195059Y-131695000D01*
G75*
G02*
X120847500Y-131347441I0J347559D01*
G01*
X120847500Y-130242559D01*
G75*
G02*
X121195059Y-129895000I347559J0D01*
G01*
X121924941Y-129895000D01*
G75*
G02*
X122272500Y-130242559I0J-347559D01*
G01*
G37*
%TD*%
%TO.C,R18*%
G36*
G01*
X122012441Y-134275000D02*
X120907559Y-134275000D01*
G75*
G02*
X120560000Y-133927441I0J347559D01*
G01*
X120560000Y-133197559D01*
G75*
G02*
X120907559Y-132850000I347559J0D01*
G01*
X122012441Y-132850000D01*
G75*
G02*
X122360000Y-133197559I0J-347559D01*
G01*
X122360000Y-133927441D01*
G75*
G02*
X122012441Y-134275000I-347559J0D01*
G01*
G37*
G36*
G01*
X122012441Y-136100000D02*
X120907559Y-136100000D01*
G75*
G02*
X120560000Y-135752441I0J347559D01*
G01*
X120560000Y-135022559D01*
G75*
G02*
X120907559Y-134675000I347559J0D01*
G01*
X122012441Y-134675000D01*
G75*
G02*
X122360000Y-135022559I0J-347559D01*
G01*
X122360000Y-135752441D01*
G75*
G02*
X122012441Y-136100000I-347559J0D01*
G01*
G37*
%TD*%
%TO.C,R17*%
G36*
G01*
X72422441Y-124185000D02*
X71317559Y-124185000D01*
G75*
G02*
X70970000Y-123837441I0J347559D01*
G01*
X70970000Y-123107559D01*
G75*
G02*
X71317559Y-122760000I347559J0D01*
G01*
X72422441Y-122760000D01*
G75*
G02*
X72770000Y-123107559I0J-347559D01*
G01*
X72770000Y-123837441D01*
G75*
G02*
X72422441Y-124185000I-347559J0D01*
G01*
G37*
G36*
G01*
X72422441Y-126010000D02*
X71317559Y-126010000D01*
G75*
G02*
X70970000Y-125662441I0J347559D01*
G01*
X70970000Y-124932559D01*
G75*
G02*
X71317559Y-124585000I347559J0D01*
G01*
X72422441Y-124585000D01*
G75*
G02*
X72770000Y-124932559I0J-347559D01*
G01*
X72770000Y-125662441D01*
G75*
G02*
X72422441Y-126010000I-347559J0D01*
G01*
G37*
%TD*%
%TO.C,R16*%
G36*
G01*
X80091113Y-135520000D02*
X77718887Y-135520000D01*
G75*
G02*
X77380000Y-135181113I0J338887D01*
G01*
X77380000Y-134333887D01*
G75*
G02*
X77718887Y-133995000I338887J0D01*
G01*
X80091113Y-133995000D01*
G75*
G02*
X80430000Y-134333887I0J-338887D01*
G01*
X80430000Y-135181113D01*
G75*
G02*
X80091113Y-135520000I-338887J0D01*
G01*
G37*
G36*
G01*
X80091113Y-138445000D02*
X77718887Y-138445000D01*
G75*
G02*
X77380000Y-138106113I0J338887D01*
G01*
X77380000Y-137258887D01*
G75*
G02*
X77718887Y-136920000I338887J0D01*
G01*
X80091113Y-136920000D01*
G75*
G02*
X80430000Y-137258887I0J-338887D01*
G01*
X80430000Y-138106113D01*
G75*
G02*
X80091113Y-138445000I-338887J0D01*
G01*
G37*
%TD*%
%TO.C,R15*%
G36*
G01*
X72502441Y-105205000D02*
X71397559Y-105205000D01*
G75*
G02*
X71050000Y-104857441I0J347559D01*
G01*
X71050000Y-104127559D01*
G75*
G02*
X71397559Y-103780000I347559J0D01*
G01*
X72502441Y-103780000D01*
G75*
G02*
X72850000Y-104127559I0J-347559D01*
G01*
X72850000Y-104857441D01*
G75*
G02*
X72502441Y-105205000I-347559J0D01*
G01*
G37*
G36*
G01*
X72502441Y-107030000D02*
X71397559Y-107030000D01*
G75*
G02*
X71050000Y-106682441I0J347559D01*
G01*
X71050000Y-105952559D01*
G75*
G02*
X71397559Y-105605000I347559J0D01*
G01*
X72502441Y-105605000D01*
G75*
G02*
X72850000Y-105952559I0J-347559D01*
G01*
X72850000Y-106682441D01*
G75*
G02*
X72502441Y-107030000I-347559J0D01*
G01*
G37*
%TD*%
%TO.C,R14*%
G36*
G01*
X115173887Y-136845000D02*
X117546113Y-136845000D01*
G75*
G02*
X117885000Y-137183887I0J-338887D01*
G01*
X117885000Y-138031113D01*
G75*
G02*
X117546113Y-138370000I-338887J0D01*
G01*
X115173887Y-138370000D01*
G75*
G02*
X114835000Y-138031113I0J338887D01*
G01*
X114835000Y-137183887D01*
G75*
G02*
X115173887Y-136845000I338887J0D01*
G01*
G37*
G36*
G01*
X115173887Y-133920000D02*
X117546113Y-133920000D01*
G75*
G02*
X117885000Y-134258887I0J-338887D01*
G01*
X117885000Y-135106113D01*
G75*
G02*
X117546113Y-135445000I-338887J0D01*
G01*
X115173887Y-135445000D01*
G75*
G02*
X114835000Y-135106113I0J338887D01*
G01*
X114835000Y-134258887D01*
G75*
G02*
X115173887Y-133920000I338887J0D01*
G01*
G37*
%TD*%
%TO.C,L4*%
G36*
G01*
X29705000Y-61098750D02*
X29705000Y-62061250D01*
G75*
G02*
X29386250Y-62380000I-318750J0D01*
G01*
X28748750Y-62380000D01*
G75*
G02*
X28430000Y-62061250I0J318750D01*
G01*
X28430000Y-61098750D01*
G75*
G02*
X28748750Y-60780000I318750J0D01*
G01*
X29386250Y-60780000D01*
G75*
G02*
X29705000Y-61098750I0J-318750D01*
G01*
G37*
G36*
G01*
X27580000Y-61098750D02*
X27580000Y-62061250D01*
G75*
G02*
X27261250Y-62380000I-318750J0D01*
G01*
X26623750Y-62380000D01*
G75*
G02*
X26305000Y-62061250I0J318750D01*
G01*
X26305000Y-61098750D01*
G75*
G02*
X26623750Y-60780000I318750J0D01*
G01*
X27261250Y-60780000D01*
G75*
G02*
X27580000Y-61098750I0J-318750D01*
G01*
G37*
%TD*%
%TO.C,L3*%
G36*
G01*
X25115000Y-64088750D02*
X25115000Y-65051250D01*
G75*
G02*
X24796250Y-65370000I-318750J0D01*
G01*
X24158750Y-65370000D01*
G75*
G02*
X23840000Y-65051250I0J318750D01*
G01*
X23840000Y-64088750D01*
G75*
G02*
X24158750Y-63770000I318750J0D01*
G01*
X24796250Y-63770000D01*
G75*
G02*
X25115000Y-64088750I0J-318750D01*
G01*
G37*
G36*
G01*
X22990000Y-64088750D02*
X22990000Y-65051250D01*
G75*
G02*
X22671250Y-65370000I-318750J0D01*
G01*
X22033750Y-65370000D01*
G75*
G02*
X21715000Y-65051250I0J318750D01*
G01*
X21715000Y-64088750D01*
G75*
G02*
X22033750Y-63770000I318750J0D01*
G01*
X22671250Y-63770000D01*
G75*
G02*
X22990000Y-64088750I0J-318750D01*
G01*
G37*
%TD*%
D17*
%TO.C,JP1*%
X22410000Y-57490000D03*
G36*
G01*
X24100000Y-56440000D02*
X25800000Y-56440000D01*
G75*
G02*
X26000000Y-56640000I0J-200000D01*
G01*
X26000000Y-58340000D01*
G75*
G02*
X25800000Y-58540000I-200000J0D01*
G01*
X24100000Y-58540000D01*
G75*
G02*
X23900000Y-58340000I0J200000D01*
G01*
X23900000Y-56640000D01*
G75*
G02*
X24100000Y-56440000I200000J0D01*
G01*
G37*
%TD*%
D18*
%TO.C,J1*%
X44795000Y-158000000D03*
X35795000Y-158000000D03*
G36*
G01*
X42745000Y-155146666D02*
X42745000Y-156933334D01*
G75*
G02*
X42428334Y-157250000I-316666J0D01*
G01*
X41161666Y-157250000D01*
G75*
G02*
X40845000Y-156933334I0J316666D01*
G01*
X40845000Y-155146666D01*
G75*
G02*
X41161666Y-154830000I316666J0D01*
G01*
X42428334Y-154830000D01*
G75*
G02*
X42745000Y-155146666I0J-316666D01*
G01*
G37*
D19*
X38795000Y-156040000D03*
%TD*%
%TO.C,D9*%
G36*
G01*
X69210000Y-119735000D02*
X68110000Y-119735000D01*
G75*
G02*
X67910000Y-119535000I0J200000D01*
G01*
X67910000Y-118435000D01*
G75*
G02*
X68110000Y-118235000I200000J0D01*
G01*
X69210000Y-118235000D01*
G75*
G02*
X69410000Y-118435000I0J-200000D01*
G01*
X69410000Y-119535000D01*
G75*
G02*
X69210000Y-119735000I-200000J0D01*
G01*
G37*
G36*
G01*
X69210000Y-122535000D02*
X68110000Y-122535000D01*
G75*
G02*
X67910000Y-122335000I0J200000D01*
G01*
X67910000Y-121235000D01*
G75*
G02*
X68110000Y-121035000I200000J0D01*
G01*
X69210000Y-121035000D01*
G75*
G02*
X69410000Y-121235000I0J-200000D01*
G01*
X69410000Y-122335000D01*
G75*
G02*
X69210000Y-122535000I-200000J0D01*
G01*
G37*
%TD*%
%TO.C,D8*%
G36*
G01*
X65790000Y-100795000D02*
X64690000Y-100795000D01*
G75*
G02*
X64490000Y-100595000I0J200000D01*
G01*
X64490000Y-99495000D01*
G75*
G02*
X64690000Y-99295000I200000J0D01*
G01*
X65790000Y-99295000D01*
G75*
G02*
X65990000Y-99495000I0J-200000D01*
G01*
X65990000Y-100595000D01*
G75*
G02*
X65790000Y-100795000I-200000J0D01*
G01*
G37*
G36*
G01*
X65790000Y-103595000D02*
X64690000Y-103595000D01*
G75*
G02*
X64490000Y-103395000I0J200000D01*
G01*
X64490000Y-102295000D01*
G75*
G02*
X64690000Y-102095000I200000J0D01*
G01*
X65790000Y-102095000D01*
G75*
G02*
X65990000Y-102295000I0J-200000D01*
G01*
X65990000Y-103395000D01*
G75*
G02*
X65790000Y-103595000I-200000J0D01*
G01*
G37*
%TD*%
%TO.C,D7*%
G36*
G01*
X69230000Y-100785000D02*
X68130000Y-100785000D01*
G75*
G02*
X67930000Y-100585000I0J200000D01*
G01*
X67930000Y-99485000D01*
G75*
G02*
X68130000Y-99285000I200000J0D01*
G01*
X69230000Y-99285000D01*
G75*
G02*
X69430000Y-99485000I0J-200000D01*
G01*
X69430000Y-100585000D01*
G75*
G02*
X69230000Y-100785000I-200000J0D01*
G01*
G37*
G36*
G01*
X69230000Y-103585000D02*
X68130000Y-103585000D01*
G75*
G02*
X67930000Y-103385000I0J200000D01*
G01*
X67930000Y-102285000D01*
G75*
G02*
X68130000Y-102085000I200000J0D01*
G01*
X69230000Y-102085000D01*
G75*
G02*
X69430000Y-102285000I0J-200000D01*
G01*
X69430000Y-103385000D01*
G75*
G02*
X69230000Y-103585000I-200000J0D01*
G01*
G37*
%TD*%
%TO.C,D1*%
G36*
G01*
X53710000Y-76015000D02*
X53710000Y-74915000D01*
G75*
G02*
X53910000Y-74715000I200000J0D01*
G01*
X55010000Y-74715000D01*
G75*
G02*
X55210000Y-74915000I0J-200000D01*
G01*
X55210000Y-76015000D01*
G75*
G02*
X55010000Y-76215000I-200000J0D01*
G01*
X53910000Y-76215000D01*
G75*
G02*
X53710000Y-76015000I0J200000D01*
G01*
G37*
G36*
G01*
X56510000Y-76015000D02*
X56510000Y-74915000D01*
G75*
G02*
X56710000Y-74715000I200000J0D01*
G01*
X57810000Y-74715000D01*
G75*
G02*
X58010000Y-74915000I0J-200000D01*
G01*
X58010000Y-76015000D01*
G75*
G02*
X57810000Y-76215000I-200000J0D01*
G01*
X56710000Y-76215000D01*
G75*
G02*
X56510000Y-76015000I0J200000D01*
G01*
G37*
%TD*%
%TO.C,C24*%
G36*
G01*
X33780000Y-66890000D02*
X32630000Y-66890000D01*
G75*
G02*
X32280000Y-66540000I0J350000D01*
G01*
X32280000Y-65840000D01*
G75*
G02*
X32630000Y-65490000I350000J0D01*
G01*
X33780000Y-65490000D01*
G75*
G02*
X34130000Y-65840000I0J-350000D01*
G01*
X34130000Y-66540000D01*
G75*
G02*
X33780000Y-66890000I-350000J0D01*
G01*
G37*
G36*
G01*
X33780000Y-64990000D02*
X32630000Y-64990000D01*
G75*
G02*
X32280000Y-64640000I0J350000D01*
G01*
X32280000Y-63940000D01*
G75*
G02*
X32630000Y-63590000I350000J0D01*
G01*
X33780000Y-63590000D01*
G75*
G02*
X34130000Y-63940000I0J-350000D01*
G01*
X34130000Y-64640000D01*
G75*
G02*
X33780000Y-64990000I-350000J0D01*
G01*
G37*
%TD*%
%TO.C,C23*%
G36*
G01*
X30730000Y-66840000D02*
X29580000Y-66840000D01*
G75*
G02*
X29230000Y-66490000I0J350000D01*
G01*
X29230000Y-65790000D01*
G75*
G02*
X29580000Y-65440000I350000J0D01*
G01*
X30730000Y-65440000D01*
G75*
G02*
X31080000Y-65790000I0J-350000D01*
G01*
X31080000Y-66490000D01*
G75*
G02*
X30730000Y-66840000I-350000J0D01*
G01*
G37*
G36*
G01*
X30730000Y-64940000D02*
X29580000Y-64940000D01*
G75*
G02*
X29230000Y-64590000I0J350000D01*
G01*
X29230000Y-63890000D01*
G75*
G02*
X29580000Y-63540000I350000J0D01*
G01*
X30730000Y-63540000D01*
G75*
G02*
X31080000Y-63890000I0J-350000D01*
G01*
X31080000Y-64590000D01*
G75*
G02*
X30730000Y-64940000I-350000J0D01*
G01*
G37*
%TD*%
%TO.C,C22*%
G36*
G01*
X27700000Y-66830000D02*
X26550000Y-66830000D01*
G75*
G02*
X26200000Y-66480000I0J350000D01*
G01*
X26200000Y-65780000D01*
G75*
G02*
X26550000Y-65430000I350000J0D01*
G01*
X27700000Y-65430000D01*
G75*
G02*
X28050000Y-65780000I0J-350000D01*
G01*
X28050000Y-66480000D01*
G75*
G02*
X27700000Y-66830000I-350000J0D01*
G01*
G37*
G36*
G01*
X27700000Y-64930000D02*
X26550000Y-64930000D01*
G75*
G02*
X26200000Y-64580000I0J350000D01*
G01*
X26200000Y-63880000D01*
G75*
G02*
X26550000Y-63530000I350000J0D01*
G01*
X27700000Y-63530000D01*
G75*
G02*
X28050000Y-63880000I0J-350000D01*
G01*
X28050000Y-64580000D01*
G75*
G02*
X27700000Y-64930000I-350000J0D01*
G01*
G37*
%TD*%
%TO.C,C21*%
G36*
G01*
X21735000Y-62245000D02*
X21735000Y-61095000D01*
G75*
G02*
X22085000Y-60745000I350000J0D01*
G01*
X22785000Y-60745000D01*
G75*
G02*
X23135000Y-61095000I0J-350000D01*
G01*
X23135000Y-62245000D01*
G75*
G02*
X22785000Y-62595000I-350000J0D01*
G01*
X22085000Y-62595000D01*
G75*
G02*
X21735000Y-62245000I0J350000D01*
G01*
G37*
G36*
G01*
X23635000Y-62245000D02*
X23635000Y-61095000D01*
G75*
G02*
X23985000Y-60745000I350000J0D01*
G01*
X24685000Y-60745000D01*
G75*
G02*
X25035000Y-61095000I0J-350000D01*
G01*
X25035000Y-62245000D01*
G75*
G02*
X24685000Y-62595000I-350000J0D01*
G01*
X23985000Y-62595000D01*
G75*
G02*
X23635000Y-62245000I0J350000D01*
G01*
G37*
%TD*%
%TO.C,C20*%
G36*
G01*
X28005000Y-74865000D02*
X28005000Y-73715000D01*
G75*
G02*
X28355000Y-73365000I350000J0D01*
G01*
X29055000Y-73365000D01*
G75*
G02*
X29405000Y-73715000I0J-350000D01*
G01*
X29405000Y-74865000D01*
G75*
G02*
X29055000Y-75215000I-350000J0D01*
G01*
X28355000Y-75215000D01*
G75*
G02*
X28005000Y-74865000I0J350000D01*
G01*
G37*
G36*
G01*
X26105000Y-74865000D02*
X26105000Y-73715000D01*
G75*
G02*
X26455000Y-73365000I350000J0D01*
G01*
X27155000Y-73365000D01*
G75*
G02*
X27505000Y-73715000I0J-350000D01*
G01*
X27505000Y-74865000D01*
G75*
G02*
X27155000Y-75215000I-350000J0D01*
G01*
X26455000Y-75215000D01*
G75*
G02*
X26105000Y-74865000I0J350000D01*
G01*
G37*
%TD*%
%TO.C,C19*%
G36*
G01*
X28025000Y-71845000D02*
X28025000Y-70695000D01*
G75*
G02*
X28375000Y-70345000I350000J0D01*
G01*
X29075000Y-70345000D01*
G75*
G02*
X29425000Y-70695000I0J-350000D01*
G01*
X29425000Y-71845000D01*
G75*
G02*
X29075000Y-72195000I-350000J0D01*
G01*
X28375000Y-72195000D01*
G75*
G02*
X28025000Y-71845000I0J350000D01*
G01*
G37*
G36*
G01*
X26125000Y-71845000D02*
X26125000Y-70695000D01*
G75*
G02*
X26475000Y-70345000I350000J0D01*
G01*
X27175000Y-70345000D01*
G75*
G02*
X27525000Y-70695000I0J-350000D01*
G01*
X27525000Y-71845000D01*
G75*
G02*
X27175000Y-72195000I-350000J0D01*
G01*
X26475000Y-72195000D01*
G75*
G02*
X26125000Y-71845000I0J350000D01*
G01*
G37*
%TD*%
%TO.C,C18*%
G36*
G01*
X23095000Y-73705000D02*
X23095000Y-74855000D01*
G75*
G02*
X22745000Y-75205000I-350000J0D01*
G01*
X22045000Y-75205000D01*
G75*
G02*
X21695000Y-74855000I0J350000D01*
G01*
X21695000Y-73705000D01*
G75*
G02*
X22045000Y-73355000I350000J0D01*
G01*
X22745000Y-73355000D01*
G75*
G02*
X23095000Y-73705000I0J-350000D01*
G01*
G37*
G36*
G01*
X24995000Y-73705000D02*
X24995000Y-74855000D01*
G75*
G02*
X24645000Y-75205000I-350000J0D01*
G01*
X23945000Y-75205000D01*
G75*
G02*
X23595000Y-74855000I0J350000D01*
G01*
X23595000Y-73705000D01*
G75*
G02*
X23945000Y-73355000I350000J0D01*
G01*
X24645000Y-73355000D01*
G75*
G02*
X24995000Y-73705000I0J-350000D01*
G01*
G37*
%TD*%
%TO.C,C17*%
G36*
G01*
X23135000Y-70635000D02*
X23135000Y-71785000D01*
G75*
G02*
X22785000Y-72135000I-350000J0D01*
G01*
X22085000Y-72135000D01*
G75*
G02*
X21735000Y-71785000I0J350000D01*
G01*
X21735000Y-70635000D01*
G75*
G02*
X22085000Y-70285000I350000J0D01*
G01*
X22785000Y-70285000D01*
G75*
G02*
X23135000Y-70635000I0J-350000D01*
G01*
G37*
G36*
G01*
X25035000Y-70635000D02*
X25035000Y-71785000D01*
G75*
G02*
X24685000Y-72135000I-350000J0D01*
G01*
X23985000Y-72135000D01*
G75*
G02*
X23635000Y-71785000I0J350000D01*
G01*
X23635000Y-70635000D01*
G75*
G02*
X23985000Y-70285000I350000J0D01*
G01*
X24685000Y-70285000D01*
G75*
G02*
X25035000Y-70635000I0J-350000D01*
G01*
G37*
%TD*%
%TO.C,C14*%
G36*
G01*
X72415000Y-119575000D02*
X71265000Y-119575000D01*
G75*
G02*
X70915000Y-119225000I0J350000D01*
G01*
X70915000Y-118525000D01*
G75*
G02*
X71265000Y-118175000I350000J0D01*
G01*
X72415000Y-118175000D01*
G75*
G02*
X72765000Y-118525000I0J-350000D01*
G01*
X72765000Y-119225000D01*
G75*
G02*
X72415000Y-119575000I-350000J0D01*
G01*
G37*
G36*
G01*
X72415000Y-121475000D02*
X71265000Y-121475000D01*
G75*
G02*
X70915000Y-121125000I0J350000D01*
G01*
X70915000Y-120425000D01*
G75*
G02*
X71265000Y-120075000I350000J0D01*
G01*
X72415000Y-120075000D01*
G75*
G02*
X72765000Y-120425000I0J-350000D01*
G01*
X72765000Y-121125000D01*
G75*
G02*
X72415000Y-121475000I-350000J0D01*
G01*
G37*
%TD*%
%TO.C,C13*%
G36*
G01*
X72430000Y-136520000D02*
X71280000Y-136520000D01*
G75*
G02*
X70930000Y-136170000I0J350000D01*
G01*
X70930000Y-135470000D01*
G75*
G02*
X71280000Y-135120000I350000J0D01*
G01*
X72430000Y-135120000D01*
G75*
G02*
X72780000Y-135470000I0J-350000D01*
G01*
X72780000Y-136170000D01*
G75*
G02*
X72430000Y-136520000I-350000J0D01*
G01*
G37*
G36*
G01*
X72430000Y-138420000D02*
X71280000Y-138420000D01*
G75*
G02*
X70930000Y-138070000I0J350000D01*
G01*
X70930000Y-137370000D01*
G75*
G02*
X71280000Y-137020000I350000J0D01*
G01*
X72430000Y-137020000D01*
G75*
G02*
X72780000Y-137370000I0J-350000D01*
G01*
X72780000Y-138070000D01*
G75*
G02*
X72430000Y-138420000I-350000J0D01*
G01*
G37*
%TD*%
%TO.C,C12*%
G36*
G01*
X72535000Y-100675000D02*
X71385000Y-100675000D01*
G75*
G02*
X71035000Y-100325000I0J350000D01*
G01*
X71035000Y-99625000D01*
G75*
G02*
X71385000Y-99275000I350000J0D01*
G01*
X72535000Y-99275000D01*
G75*
G02*
X72885000Y-99625000I0J-350000D01*
G01*
X72885000Y-100325000D01*
G75*
G02*
X72535000Y-100675000I-350000J0D01*
G01*
G37*
G36*
G01*
X72535000Y-102575000D02*
X71385000Y-102575000D01*
G75*
G02*
X71035000Y-102225000I0J350000D01*
G01*
X71035000Y-101525000D01*
G75*
G02*
X71385000Y-101175000I350000J0D01*
G01*
X72535000Y-101175000D01*
G75*
G02*
X72885000Y-101525000I0J-350000D01*
G01*
X72885000Y-102225000D01*
G75*
G02*
X72535000Y-102575000I-350000J0D01*
G01*
G37*
%TD*%
%TO.C,C11*%
G36*
G01*
X110165000Y-136535000D02*
X109015000Y-136535000D01*
G75*
G02*
X108665000Y-136185000I0J350000D01*
G01*
X108665000Y-135485000D01*
G75*
G02*
X109015000Y-135135000I350000J0D01*
G01*
X110165000Y-135135000D01*
G75*
G02*
X110515000Y-135485000I0J-350000D01*
G01*
X110515000Y-136185000D01*
G75*
G02*
X110165000Y-136535000I-350000J0D01*
G01*
G37*
G36*
G01*
X110165000Y-138435000D02*
X109015000Y-138435000D01*
G75*
G02*
X108665000Y-138085000I0J350000D01*
G01*
X108665000Y-137385000D01*
G75*
G02*
X109015000Y-137035000I350000J0D01*
G01*
X110165000Y-137035000D01*
G75*
G02*
X110515000Y-137385000I0J-350000D01*
G01*
X110515000Y-138085000D01*
G75*
G02*
X110165000Y-138435000I-350000J0D01*
G01*
G37*
%TD*%
D20*
%TO.C,Q1*%
X75750000Y-38925000D03*
X75750000Y-44375000D03*
G36*
G01*
X78000000Y-51275000D02*
X73500000Y-51275000D01*
G75*
G02*
X73300000Y-51075000I0J200000D01*
G01*
X73300000Y-48575000D01*
G75*
G02*
X73500000Y-48375000I200000J0D01*
G01*
X78000000Y-48375000D01*
G75*
G02*
X78200000Y-48575000I0J-200000D01*
G01*
X78200000Y-51075000D01*
G75*
G02*
X78000000Y-51275000I-200000J0D01*
G01*
G37*
%TD*%
%TO.C,Q2*%
X67960000Y-49825000D03*
X67960000Y-44375000D03*
G36*
G01*
X65710000Y-37475000D02*
X70210000Y-37475000D01*
G75*
G02*
X70410000Y-37675000I0J-200000D01*
G01*
X70410000Y-40175000D01*
G75*
G02*
X70210000Y-40375000I-200000J0D01*
G01*
X65710000Y-40375000D01*
G75*
G02*
X65510000Y-40175000I0J200000D01*
G01*
X65510000Y-37675000D01*
G75*
G02*
X65710000Y-37475000I200000J0D01*
G01*
G37*
%TD*%
D11*
%TO.C,D5*%
X92444000Y-85568000D03*
G36*
G01*
X86164000Y-86568000D02*
X86164000Y-84568000D01*
G75*
G02*
X86364000Y-84368000I200000J0D01*
G01*
X88364000Y-84368000D01*
G75*
G02*
X88564000Y-84568000I0J-200000D01*
G01*
X88564000Y-86568000D01*
G75*
G02*
X88364000Y-86768000I-200000J0D01*
G01*
X86364000Y-86768000D01*
G75*
G02*
X86164000Y-86568000I0J200000D01*
G01*
G37*
%TD*%
D13*
%TO.C,HS1*%
X102604000Y-80996000D03*
X77204000Y-80996000D03*
%TD*%
D11*
%TO.C,D6*%
X87364000Y-76424000D03*
G36*
G01*
X93644000Y-75424000D02*
X93644000Y-77424000D01*
G75*
G02*
X93444000Y-77624000I-200000J0D01*
G01*
X91444000Y-77624000D01*
G75*
G02*
X91244000Y-77424000I0J200000D01*
G01*
X91244000Y-75424000D01*
G75*
G02*
X91444000Y-75224000I200000J0D01*
G01*
X93444000Y-75224000D01*
G75*
G02*
X93644000Y-75424000I0J-200000D01*
G01*
G37*
%TD*%
D18*
%TO.C,J4*%
X20825000Y-48920000D03*
X35825000Y-48920000D03*
G36*
G01*
X22875000Y-51773334D02*
X22875000Y-49986666D01*
G75*
G02*
X23191666Y-49670000I316666J0D01*
G01*
X24458334Y-49670000D01*
G75*
G02*
X24775000Y-49986666I0J-316666D01*
G01*
X24775000Y-51773334D01*
G75*
G02*
X24458334Y-52090000I-316666J0D01*
G01*
X23191666Y-52090000D01*
G75*
G02*
X22875000Y-51773334I0J316666D01*
G01*
G37*
D19*
X26825000Y-50880000D03*
X29825000Y-50880000D03*
X32825000Y-50880000D03*
%TD*%
D18*
%TO.C,J5*%
X20825000Y-41080000D03*
X35825000Y-41080000D03*
G36*
G01*
X22875000Y-43933334D02*
X22875000Y-42146666D01*
G75*
G02*
X23191666Y-41830000I316666J0D01*
G01*
X24458334Y-41830000D01*
G75*
G02*
X24775000Y-42146666I0J-316666D01*
G01*
X24775000Y-43933334D01*
G75*
G02*
X24458334Y-44250000I-316666J0D01*
G01*
X23191666Y-44250000D01*
G75*
G02*
X22875000Y-43933334I0J316666D01*
G01*
G37*
D19*
X26825000Y-43040000D03*
X29825000Y-43040000D03*
X32825000Y-43040000D03*
%TD*%
D12*
%TO.C,TP20*%
X75750000Y-124205000D03*
%TD*%
D21*
%TO.C,L2*%
X137760000Y-70255000D03*
X115960000Y-70255000D03*
%TD*%
D14*
%TO.C,H1*%
X137520000Y-157565000D03*
%TD*%
D22*
%TO.C,J3*%
X74535000Y-143660000D03*
X82155000Y-143660000D03*
X74535000Y-148740000D03*
X74535000Y-151280000D03*
X82155000Y-148740000D03*
X82155000Y-151280000D03*
D14*
X66475000Y-154080000D03*
X90215000Y-154080000D03*
%TD*%
D22*
%TO.C,J2*%
X111990000Y-143665000D03*
X119610000Y-143665000D03*
X111990000Y-148745000D03*
X111990000Y-151285000D03*
X119610000Y-148745000D03*
X119610000Y-151285000D03*
D14*
X103930000Y-154085000D03*
X127670000Y-154085000D03*
%TD*%
%TO.C,U1*%
G36*
G01*
X54545000Y-89135000D02*
X54545000Y-87605000D01*
G75*
G02*
X54745000Y-87405000I200000J0D01*
G01*
X56275000Y-87405000D01*
G75*
G02*
X56475000Y-87605000I0J-200000D01*
G01*
X56475000Y-89135000D01*
G75*
G02*
X56275000Y-89335000I-200000J0D01*
G01*
X54745000Y-89335000D01*
G75*
G02*
X54545000Y-89135000I0J200000D01*
G01*
G37*
D23*
X55510000Y-90910000D03*
X55510000Y-93450000D03*
X55510000Y-95990000D03*
X55510000Y-98530000D03*
X55510000Y-101070000D03*
X55510000Y-103610000D03*
X55510000Y-106150000D03*
X55510000Y-108690000D03*
X55510000Y-111230000D03*
X55510000Y-113770000D03*
X55510000Y-116310000D03*
X55510000Y-118850000D03*
X55510000Y-121390000D03*
X55510000Y-123930000D03*
G36*
G01*
X39305000Y-89135000D02*
X39305000Y-87605000D01*
G75*
G02*
X39505000Y-87405000I200000J0D01*
G01*
X41035000Y-87405000D01*
G75*
G02*
X41235000Y-87605000I0J-200000D01*
G01*
X41235000Y-89135000D01*
G75*
G02*
X41035000Y-89335000I-200000J0D01*
G01*
X39505000Y-89335000D01*
G75*
G02*
X39305000Y-89135000I0J200000D01*
G01*
G37*
X40270000Y-90910000D03*
X40270000Y-93450000D03*
X40270000Y-95990000D03*
X40270000Y-98530000D03*
X40270000Y-101070000D03*
X40270000Y-103610000D03*
X40270000Y-106150000D03*
X40270000Y-108690000D03*
X40270000Y-111230000D03*
X40270000Y-113770000D03*
X40270000Y-116310000D03*
X40270000Y-118850000D03*
X40270000Y-121390000D03*
X40270000Y-123930000D03*
%TD*%
D13*
%TO.C,HS3*%
X71899000Y-31719000D03*
X71899000Y-57119000D03*
%TD*%
D24*
%TO.C,F2*%
X87765000Y-134480000D03*
X63665000Y-134480000D03*
%TD*%
%TO.C,F1*%
X101140000Y-134445000D03*
X125240000Y-134445000D03*
%TD*%
D11*
%TO.C,D4*%
X95210000Y-47055000D03*
G36*
G01*
X94210000Y-40775000D02*
X96210000Y-40775000D01*
G75*
G02*
X96410000Y-40975000I0J-200000D01*
G01*
X96410000Y-42975000D01*
G75*
G02*
X96210000Y-43175000I-200000J0D01*
G01*
X94210000Y-43175000D01*
G75*
G02*
X94010000Y-42975000I0J200000D01*
G01*
X94010000Y-40975000D01*
G75*
G02*
X94210000Y-40775000I200000J0D01*
G01*
G37*
%TD*%
D13*
%TO.C,C10*%
X96770000Y-111655000D03*
G36*
G01*
X84570000Y-113655000D02*
X84570000Y-109655000D01*
G75*
G02*
X84770000Y-109455000I200000J0D01*
G01*
X88770000Y-109455000D01*
G75*
G02*
X88970000Y-109655000I0J-200000D01*
G01*
X88970000Y-113655000D01*
G75*
G02*
X88770000Y-113855000I-200000J0D01*
G01*
X84770000Y-113855000D01*
G75*
G02*
X84570000Y-113655000I0J200000D01*
G01*
G37*
%TD*%
%TO.C,C8*%
X119850000Y-111605000D03*
G36*
G01*
X132050000Y-109605000D02*
X132050000Y-113605000D01*
G75*
G02*
X131850000Y-113805000I-200000J0D01*
G01*
X127850000Y-113805000D01*
G75*
G02*
X127650000Y-113605000I0J200000D01*
G01*
X127650000Y-109605000D01*
G75*
G02*
X127850000Y-109405000I200000J0D01*
G01*
X131850000Y-109405000D01*
G75*
G02*
X132050000Y-109605000I0J-200000D01*
G01*
G37*
%TD*%
M02*
