%TF.GenerationSoftware,KiCad,Pcbnew,5.1.6-c6e7f7d~87~ubuntu18.04.1*%
%TF.CreationDate,2020-09-05T21:12:04-05:00*%
%TF.ProjectId,MPPT,4d505054-2e6b-4696-9361-645f70636258,Rev1.2+*%
%TF.SameCoordinates,Original*%
%TF.FileFunction,Copper,L2,Bot*%
%TF.FilePolarity,Positive*%
%FSLAX46Y46*%
G04 Gerber Fmt 4.6, Leading zero omitted, Abs format (unit mm)*
G04 Created by KiCad (PCBNEW 5.1.6-c6e7f7d~87~ubuntu18.04.1) date 2020-09-05 21:12:04*
%MOMM*%
%LPD*%
G01*
G04 APERTURE LIST*
%TA.AperFunction,ComponentPad*%
%ADD10C,4.000000*%
%TD*%
%TA.AperFunction,ComponentPad*%
%ADD11R,4.000000X4.000000*%
%TD*%
%TA.AperFunction,ComponentPad*%
%ADD12R,2.000000X2.000000*%
%TD*%
%TA.AperFunction,ComponentPad*%
%ADD13C,2.000000*%
%TD*%
%TA.AperFunction,SMDPad,CuDef*%
%ADD14R,1.500000X1.250000*%
%TD*%
%TA.AperFunction,ComponentPad*%
%ADD15R,1.800000X1.800000*%
%TD*%
%TA.AperFunction,ComponentPad*%
%ADD16O,1.800000X1.800000*%
%TD*%
%TA.AperFunction,ComponentPad*%
%ADD17R,1.700000X1.700000*%
%TD*%
%TA.AperFunction,ComponentPad*%
%ADD18O,1.700000X1.700000*%
%TD*%
%TA.AperFunction,ComponentPad*%
%ADD19C,3.800000*%
%TD*%
%TA.AperFunction,ComponentPad*%
%ADD20C,2.400000*%
%TD*%
%TA.AperFunction,ComponentPad*%
%ADD21O,2.400000X2.400000*%
%TD*%
%TA.AperFunction,ComponentPad*%
%ADD22R,1.600000X1.600000*%
%TD*%
%TA.AperFunction,ComponentPad*%
%ADD23O,1.600000X1.600000*%
%TD*%
%TA.AperFunction,ComponentPad*%
%ADD24C,2.800000*%
%TD*%
%TA.AperFunction,ComponentPad*%
%ADD25O,1.750000X2.000000*%
%TD*%
%TA.AperFunction,ComponentPad*%
%ADD26R,1.524000X1.524000*%
%TD*%
%TA.AperFunction,ComponentPad*%
%ADD27C,1.524000*%
%TD*%
%TA.AperFunction,SMDPad,CuDef*%
%ADD28R,2.700000X3.200000*%
%TD*%
%TA.AperFunction,ComponentPad*%
%ADD29C,2.286000*%
%TD*%
%TA.AperFunction,ComponentPad*%
%ADD30R,4.500000X2.500000*%
%TD*%
%TA.AperFunction,ComponentPad*%
%ADD31O,4.500000X2.500000*%
%TD*%
%TA.AperFunction,SMDPad,CuDef*%
%ADD32R,0.400000X1.000000*%
%TD*%
%TA.AperFunction,ComponentPad*%
%ADD33C,1.700000*%
%TD*%
%TA.AperFunction,ViaPad*%
%ADD34C,0.600000*%
%TD*%
%TA.AperFunction,ViaPad*%
%ADD35C,0.700000*%
%TD*%
%TA.AperFunction,ViaPad*%
%ADD36C,1.300000*%
%TD*%
%TA.AperFunction,Conductor*%
%ADD37C,0.250000*%
%TD*%
%TA.AperFunction,Conductor*%
%ADD38C,4.300000*%
%TD*%
%TA.AperFunction,Conductor*%
%ADD39C,1.000000*%
%TD*%
%TA.AperFunction,Conductor*%
%ADD40C,1.500000*%
%TD*%
%TA.AperFunction,Conductor*%
%ADD41C,0.500000*%
%TD*%
%TA.AperFunction,Conductor*%
%ADD42C,2.500000*%
%TD*%
G04 APERTURE END LIST*
D10*
%TO.P,HS2,1*%
%TO.N,N/C*%
X124850000Y-46315000D03*
X150250000Y-46315000D03*
%TD*%
%TO.P,HS1,1*%
%TO.N,N/C*%
X169350000Y-46615000D03*
X194750000Y-46615000D03*
%TD*%
%TO.P,HS3,1*%
%TO.N,N/C*%
X145250000Y-97515000D03*
X145250000Y-72115000D03*
%TD*%
D11*
%TO.P,C2,1*%
%TO.N,/+Batt*%
X100330000Y-52070000D03*
D10*
%TO.P,C2,2*%
%TO.N,GNDPWR*%
X100330000Y-43070000D03*
%TD*%
D11*
%TO.P,C1,1*%
%TO.N,/+Arr*%
X88265000Y-77470000D03*
D10*
%TO.P,C1,2*%
%TO.N,GNDPWR*%
X88265000Y-86470000D03*
%TD*%
D12*
%TO.P,C7,1*%
%TO.N,+9VA*%
X175006000Y-100711000D03*
D13*
%TO.P,C7,2*%
%TO.N,GNDPWR*%
X175006000Y-95711000D03*
%TD*%
D14*
%TO.P,C17,1*%
%TO.N,+9VA*%
X58400000Y-85725000D03*
%TO.P,C17,2*%
%TO.N,GNDPWR*%
X55900000Y-85725000D03*
%TD*%
%TO.P,C18,1*%
%TO.N,+9VA*%
X57170000Y-58420000D03*
%TO.P,C18,2*%
%TO.N,GNDPWR*%
X59670000Y-58420000D03*
%TD*%
D15*
%TO.P,D2,1*%
%TO.N,/+Batt*%
X135255000Y-50165000D03*
D16*
%TO.P,D2,2*%
%TO.N,Net-(D1-Pad2)*%
X140335000Y-50165000D03*
%TD*%
D15*
%TO.P,D3,1*%
%TO.N,/+Batt*%
X140335000Y-42545000D03*
D16*
%TO.P,D3,2*%
%TO.N,Net-(D1-Pad2)*%
X135255000Y-42545000D03*
%TD*%
D17*
%TO.P,JP1,1*%
%TO.N,Net-(JP1-Pad1)*%
X151765000Y-121920000D03*
D18*
%TO.P,JP1,2*%
%TO.N,Net-(JP1-Pad2)*%
X154305000Y-121920000D03*
%TD*%
D19*
%TO.P,L1,1*%
%TO.N,/+Arr*%
X108585000Y-84836000D03*
%TO.P,L1,2*%
%TO.N,Net-(D1-Pad2)*%
X130385000Y-84836000D03*
%TD*%
D20*
%TO.P,R1,1*%
%TO.N,Net-(D1-Pad2)*%
X163830000Y-64135000D03*
D21*
%TO.P,R1,2*%
%TO.N,Net-(C3-Pad1)*%
X186230000Y-64135000D03*
%TD*%
D13*
%TO.P,SW1,2*%
%TO.N,/Reset*%
X75620000Y-143510000D03*
%TO.P,SW1,1*%
%TO.N,GNDPWR*%
X71120000Y-143510000D03*
%TO.P,SW1,2*%
%TO.N,/Reset*%
X75620000Y-137010000D03*
%TO.P,SW1,1*%
%TO.N,GNDPWR*%
X71120000Y-137010000D03*
%TD*%
D22*
%TO.P,SW2,1*%
%TO.N,GNDPWR*%
X87630000Y-144399000D03*
D23*
%TO.P,SW2,5*%
%TO.N,Net-(SW2-Pad5)*%
X95250000Y-136779000D03*
%TO.P,SW2,2*%
%TO.N,GNDPWR*%
X90170000Y-144399000D03*
%TO.P,SW2,6*%
%TO.N,Net-(SW2-Pad6)*%
X92710000Y-136779000D03*
%TO.P,SW2,3*%
%TO.N,GNDPWR*%
X92710000Y-144399000D03*
%TO.P,SW2,7*%
%TO.N,Net-(SW2-Pad7)*%
X90170000Y-136779000D03*
%TO.P,SW2,4*%
%TO.N,GNDPWR*%
X95250000Y-144399000D03*
%TO.P,SW2,8*%
%TO.N,Net-(SW2-Pad8)*%
X87630000Y-136779000D03*
%TD*%
D24*
%TO.P,TP1,1*%
%TO.N,/+Arr*%
X54610000Y-72390000D03*
%TD*%
%TO.P,TP2,1*%
%TO.N,/-Arr*%
X54610000Y-100330000D03*
%TD*%
%TO.P,TP3,1*%
%TO.N,Net-(D1-Pad2)*%
X193294000Y-70739000D03*
%TD*%
%TO.P,TP4,1*%
%TO.N,Net-(C3-Pad1)*%
X193294000Y-75819000D03*
%TD*%
%TO.P,TP5,1*%
%TO.N,+9VA*%
X57785000Y-118110000D03*
%TD*%
%TO.P,TP6,1*%
%TO.N,GNDPWR*%
X63500000Y-118110000D03*
%TD*%
%TO.P,TP7,1*%
%TO.N,/Array_Voltage*%
X77080000Y-102970000D03*
%TD*%
%TO.P,TP8,1*%
%TO.N,/Battery_Voltage*%
X88265000Y-102870000D03*
%TD*%
%TO.P,TP9,1*%
%TO.N,/Array_Current*%
X95250000Y-102870000D03*
%TD*%
%TO.P,TP10,1*%
%TO.N,/Battery_Current*%
X102235000Y-102870000D03*
%TD*%
%TO.P,TP11,1*%
%TO.N,/PWM*%
X176530000Y-106299000D03*
%TD*%
%TO.P,TP12,1*%
%TO.N,/Drive_PWM*%
X168910000Y-89027000D03*
%TD*%
%TO.P,TP13,1*%
%TO.N,Net-(C9-Pad1)*%
X136144000Y-116078000D03*
%TD*%
%TO.P,TP14,1*%
%TO.N,Net-(C10-Pad1)*%
X135890000Y-139700000D03*
%TD*%
%TO.P,TP15,1*%
%TO.N,Net-(C10-Pad2)*%
X140970000Y-139700000D03*
%TD*%
%TO.P,TP16,1*%
%TO.N,Net-(C9-Pad2)*%
X141224000Y-116078000D03*
%TD*%
%TO.P,TP17,1*%
%TO.N,+12V*%
X34290000Y-117475000D03*
%TD*%
%TO.P,TP18,1*%
%TO.N,GNDREF*%
X34290000Y-123190000D03*
%TD*%
%TO.P,TP19,1*%
%TO.N,/CAN_Tx*%
X121285000Y-118110000D03*
%TD*%
%TO.P,TP20,1*%
%TO.N,/CAN_Rx*%
X126365000Y-118110000D03*
%TD*%
%TO.P,TP21,1*%
%TO.N,Net-(J4-Pad3)*%
X151130000Y-139700000D03*
%TD*%
%TO.P,TP22,1*%
%TO.N,Net-(J4-Pad4)*%
X156210000Y-139700000D03*
%TD*%
D25*
%TO.P,U1,1*%
%TO.N,GNDREF*%
X42545000Y-140335000D03*
%TO.P,U1,2*%
%TO.N,Net-(C4-Pad1)*%
X45085000Y-140335000D03*
%TO.P,U1,3*%
%TO.N,Net-(U1-Pad3)*%
X47625000Y-140335000D03*
%TO.P,U1,5*%
%TO.N,Net-(U1-Pad5)*%
X52705000Y-140335000D03*
%TO.P,U1,6*%
%TO.N,+9VA*%
X55245000Y-140335000D03*
%TO.P,U1,7*%
%TO.N,GNDPWR*%
X57785000Y-140335000D03*
%TO.P,U1,8*%
%TO.N,Net-(C23-Pad2)*%
X60325000Y-140335000D03*
%TD*%
D26*
%TO.P,U2,1*%
%TO.N,Net-(U2-Pad1)*%
X74930000Y-133223000D03*
D27*
%TO.P,U2,2*%
%TO.N,Net-(U2-Pad2)*%
X77470000Y-133223000D03*
%TO.P,U2,3*%
%TO.N,/Reset*%
X80010000Y-133223000D03*
%TO.P,U2,4*%
%TO.N,GNDPWR*%
X82550000Y-133223000D03*
%TO.P,U2,5*%
%TO.N,/CAN_Tx*%
X85090000Y-133223000D03*
%TO.P,U2,6*%
%TO.N,Net-(SW2-Pad8)*%
X87630000Y-133223000D03*
%TO.P,U2,7*%
%TO.N,Net-(SW2-Pad7)*%
X90170000Y-133223000D03*
%TO.P,U2,8*%
%TO.N,Net-(SW2-Pad6)*%
X92710000Y-133223000D03*
%TO.P,U2,9*%
%TO.N,Net-(SW2-Pad5)*%
X95250000Y-133223000D03*
%TO.P,U2,10*%
%TO.N,Net-(U2-Pad10)*%
X97790000Y-133223000D03*
%TO.P,U2,11*%
%TO.N,Net-(U2-Pad11)*%
X100330000Y-133223000D03*
%TO.P,U2,12*%
%TO.N,Net-(U2-Pad12)*%
X102870000Y-133223000D03*
%TO.P,U2,13*%
%TO.N,/CAN_Rx*%
X105410000Y-133223000D03*
%TO.P,U2,14*%
%TO.N,/Tracking*%
X107950000Y-133223000D03*
%TO.P,U2,15*%
%TO.N,/Battery_Full*%
X110490000Y-133223000D03*
%TO.P,U2,16*%
%TO.N,Net-(U2-Pad16)*%
X110490000Y-117983000D03*
%TO.P,U2,17*%
%TO.N,+3V3*%
X107950000Y-117983000D03*
%TO.P,U2,18*%
%TO.N,Net-(U2-Pad18)*%
X105410000Y-117983000D03*
%TO.P,U2,19*%
%TO.N,Net-(U2-Pad19)*%
X102870000Y-117983000D03*
%TO.P,U2,20*%
%TO.N,/PWM*%
X100330000Y-117983000D03*
%TO.P,U2,21*%
%TO.N,/Battery_Current*%
X97790000Y-117983000D03*
%TO.P,U2,22*%
%TO.N,/Array_Current*%
X95250000Y-117983000D03*
%TO.P,U2,23*%
%TO.N,/Battery_Voltage*%
X92710000Y-117983000D03*
%TO.P,U2,24*%
%TO.N,/Array_Voltage*%
X90170000Y-117983000D03*
%TO.P,U2,25*%
%TO.N,Net-(U2-Pad25)*%
X87630000Y-117983000D03*
%TO.P,U2,26*%
%TO.N,Net-(U2-Pad26)*%
X85090000Y-117983000D03*
%TO.P,U2,27*%
%TO.N,+5V*%
X82550000Y-117983000D03*
%TO.P,U2,28*%
%TO.N,/Reset*%
X80010000Y-117983000D03*
%TO.P,U2,29*%
%TO.N,GNDPWR*%
X77470000Y-117983000D03*
%TO.P,U2,30*%
%TO.N,+9VA*%
X74930000Y-117983000D03*
%TD*%
D24*
%TO.P,TP23,1*%
%TO.N,/+Batt*%
X66040000Y-60960000D03*
%TD*%
%TO.P,TP24,1*%
%TO.N,/-Batt*%
X66040000Y-35560000D03*
%TD*%
D28*
%TO.P,R8,1*%
%TO.N,GNDPWR*%
X61100000Y-92710000D03*
%TO.P,R8,2*%
%TO.N,/-Arr*%
X53200000Y-92710000D03*
%TD*%
%TO.P,R11,1*%
%TO.N,/-Batt*%
X54470000Y-51435000D03*
%TO.P,R11,2*%
%TO.N,GNDPWR*%
X62370000Y-51435000D03*
%TD*%
D24*
%TO.P,TP25,1*%
%TO.N,GNDPWR*%
X193294000Y-80899000D03*
%TD*%
%TO.P,TP26,1*%
%TO.N,GNDPWR*%
X70730000Y-102970000D03*
%TD*%
%TO.P,TP27,1*%
%TO.N,GNDPWR*%
X181102000Y-106299000D03*
%TD*%
%TO.P,TP28,1*%
%TO.N,GNDPWR*%
X179070000Y-89027000D03*
%TD*%
D20*
%TO.P,C3,1*%
%TO.N,Net-(C3-Pad1)*%
X186690000Y-76835000D03*
%TO.P,C3,2*%
%TO.N,GNDPWR*%
X164190000Y-76835000D03*
%TD*%
D15*
%TO.P,D1,1*%
%TO.N,Net-(C3-Pad1)*%
X184658000Y-42799000D03*
D16*
%TO.P,D1,2*%
%TO.N,Net-(D1-Pad2)*%
X179578000Y-42799000D03*
%TD*%
D29*
%TO.P,F1,2*%
%TO.N,/+Batt*%
X57785000Y-65405000D03*
%TO.P,F1,1*%
%TO.N,Net-(F1-Pad1)*%
X57785000Y-41275000D03*
%TD*%
D30*
%TO.P,Q1,1*%
%TO.N,/Drive_PWM*%
X149225000Y-90286000D03*
D31*
%TO.P,Q1,2*%
%TO.N,Net-(D1-Pad2)*%
X149225000Y-84836000D03*
%TO.P,Q1,3*%
%TO.N,GNDPWR*%
X149225000Y-79386000D03*
%TD*%
D30*
%TO.P,Q2,1*%
%TO.N,/Drive_PWM*%
X141605000Y-79386000D03*
D31*
%TO.P,Q2,2*%
%TO.N,Net-(D1-Pad2)*%
X141605000Y-84836000D03*
%TO.P,Q2,3*%
%TO.N,GNDPWR*%
X141605000Y-90286000D03*
%TD*%
D32*
%TO.P,U6,6*%
%TO.N,Net-(R19-Pad1)*%
X59395000Y-54780000D03*
%TO.P,U6,1*%
%TO.N,GNDPWR*%
X59395000Y-56980000D03*
%TO.P,U6,5*%
X58745000Y-54780000D03*
%TO.P,U6,2*%
X58745000Y-56980000D03*
%TO.P,U6,4*%
%TO.N,/-Batt*%
X58095000Y-54780000D03*
%TO.P,U6,3*%
%TO.N,+9VA*%
X58095000Y-56980000D03*
%TD*%
%TO.P,U4,6*%
%TO.N,Net-(R18-Pad1)*%
X56175000Y-89365000D03*
%TO.P,U4,1*%
%TO.N,GNDPWR*%
X56175000Y-87165000D03*
%TO.P,U4,5*%
%TO.N,/-Arr*%
X56825000Y-89365000D03*
%TO.P,U4,2*%
%TO.N,GNDPWR*%
X56825000Y-87165000D03*
%TO.P,U4,4*%
X57475000Y-89365000D03*
%TO.P,U4,3*%
%TO.N,+9VA*%
X57475000Y-87165000D03*
%TD*%
D29*
%TO.P,J2,1*%
%TO.N,Net-(F1-Pad1)*%
X48260000Y-43815000D03*
%TO.P,J2,2*%
%TO.N,/-Batt*%
X48260000Y-51435000D03*
%TO.P,J2,1*%
%TO.N,Net-(F1-Pad1)*%
X43180000Y-43815000D03*
X40640000Y-43815000D03*
%TO.P,J2,2*%
%TO.N,/-Batt*%
X43180000Y-51435000D03*
X40640000Y-51435000D03*
%TD*%
%TO.P,J1,3*%
%TO.N,/-Arr*%
X40640000Y-92710000D03*
X43180000Y-92710000D03*
X48260000Y-92710000D03*
%TO.P,J1,1*%
%TO.N,/+Arr*%
X48260000Y-77470000D03*
%TO.P,J1,2*%
%TO.N,Net-(J1-Pad2)*%
X48260000Y-85090000D03*
%TO.P,J1,1*%
%TO.N,/+Arr*%
X43180000Y-77470000D03*
X40640000Y-77470000D03*
%TO.P,J1,2*%
%TO.N,Net-(J1-Pad2)*%
X43180000Y-85090000D03*
X40640000Y-85090000D03*
%TD*%
D33*
%TO.P,J4,4*%
%TO.N,Net-(J4-Pad4)*%
X173990000Y-132825000D03*
%TO.P,J4,1*%
%TO.N,Net-(C10-Pad1)*%
X173990000Y-123825000D03*
%TO.P,J4,2*%
%TO.N,Net-(C10-Pad2)*%
X173990000Y-126825000D03*
%TO.P,J4,3*%
%TO.N,Net-(J4-Pad3)*%
X173990000Y-129825000D03*
%TD*%
%TO.P,J5,4*%
%TO.N,Net-(J4-Pad4)*%
X165100000Y-132825000D03*
%TO.P,J5,1*%
%TO.N,Net-(C10-Pad1)*%
X165100000Y-123825000D03*
%TO.P,J5,2*%
%TO.N,Net-(C10-Pad2)*%
X165100000Y-126825000D03*
%TO.P,J5,3*%
%TO.N,Net-(J4-Pad3)*%
X165100000Y-129825000D03*
%TD*%
%TO.P,J3,1*%
%TO.N,+12V*%
X34290000Y-131445000D03*
%TO.P,J3,2*%
%TO.N,GNDREF*%
X34290000Y-134445000D03*
%TD*%
D34*
%TO.N,GNDPWR*%
X64770000Y-87630000D03*
X64770000Y-84455000D03*
X64770000Y-106680000D03*
D35*
X74930000Y-51435000D03*
D34*
X62865000Y-92710000D03*
D35*
X59055000Y-127000000D03*
D34*
X91440000Y-113665000D03*
X98425000Y-113665000D03*
X84455000Y-113665000D03*
X73270000Y-113765000D03*
D35*
X159385000Y-82550000D03*
X156210000Y-83820000D03*
X160020000Y-107950000D03*
X166370000Y-110490000D03*
X165862000Y-93091000D03*
X110490000Y-144145000D03*
X110490000Y-140970000D03*
X110490000Y-137795000D03*
X120015000Y-129540000D03*
X122555000Y-121920000D03*
X120015000Y-115570000D03*
X127635000Y-115570000D03*
X125730000Y-134620000D03*
X81950000Y-114440000D03*
X81150000Y-104315000D03*
D34*
%TO.N,+9VA*%
X64135000Y-83820000D03*
X64135000Y-88265000D03*
D35*
X56515000Y-128905000D03*
X154305000Y-106680000D03*
X116205000Y-127635000D03*
X116205000Y-106680000D03*
D34*
%TO.N,Net-(C9-Pad1)*%
X135255000Y-124460000D03*
%TO.N,Net-(C9-Pad2)*%
X138430000Y-123190000D03*
X138430000Y-125730000D03*
%TO.N,Net-(C10-Pad1)*%
X160655000Y-125095000D03*
X149225000Y-125095000D03*
X135255000Y-128270000D03*
%TO.N,Net-(C10-Pad2)*%
X159385000Y-131445000D03*
X147955000Y-134620000D03*
X147955000Y-122555000D03*
X147955000Y-129540000D03*
D35*
%TO.N,+3V3*%
X125095000Y-127000000D03*
X121285000Y-123190000D03*
X84150000Y-107015000D03*
X104050000Y-111415000D03*
X106996702Y-110361702D03*
X107251298Y-112016298D03*
D36*
%TO.N,+12V*%
X43180000Y-124460000D03*
D34*
%TO.N,/PWM*%
X99060000Y-123825000D03*
X99060000Y-131953000D03*
%TO.N,Net-(J4-Pad4)*%
X151765000Y-132080000D03*
X151765000Y-128905000D03*
X138430000Y-132080000D03*
X144145000Y-132080000D03*
%TO.N,Net-(J4-Pad3)*%
X150495000Y-130810000D03*
X138430000Y-130810000D03*
X144145000Y-130810000D03*
%TO.N,Net-(R18-Pad1)*%
X55245000Y-89535000D03*
X68580000Y-99060000D03*
X62865000Y-99060000D03*
%TO.N,Net-(R19-Pad1)*%
X66040000Y-85725000D03*
%TO.N,/CAN_Tx*%
X118745000Y-130810000D03*
%TO.N,/CAN_Rx*%
X125095000Y-128905000D03*
X125095000Y-131445000D03*
%TO.N,/Reset*%
X80010000Y-121285000D03*
X80010000Y-125095000D03*
%TO.N,Net-(R23-Pad1)*%
X66040000Y-88900000D03*
X62865000Y-88900000D03*
%TO.N,Net-(R24-Pad1)*%
X69850000Y-57785000D03*
X66675000Y-87630000D03*
%TD*%
D37*
%TO.N,GNDPWR*%
X55900000Y-85725000D02*
X55900000Y-85070000D01*
X61595000Y-84455000D02*
X64770000Y-87630000D01*
X56515000Y-84455000D02*
X61595000Y-84455000D01*
X55900000Y-85070000D02*
X56515000Y-84455000D01*
X59670000Y-60940000D02*
X59670000Y-58420000D01*
X64770000Y-66040000D02*
X59670000Y-60940000D01*
X64770000Y-84455000D02*
X64770000Y-66040000D01*
X64770000Y-113030000D02*
X64770000Y-106680000D01*
X58745000Y-56980000D02*
X59395000Y-56980000D01*
X59395000Y-56980000D02*
X59670000Y-57255000D01*
X59670000Y-57255000D02*
X59670000Y-58420000D01*
X58745000Y-54780000D02*
X58745000Y-51745000D01*
X59055000Y-51435000D02*
X62370000Y-51435000D01*
X58745000Y-51745000D02*
X59055000Y-51435000D01*
X56825000Y-87165000D02*
X56175000Y-87165000D01*
X56175000Y-87165000D02*
X55900000Y-86890000D01*
X55900000Y-86890000D02*
X55900000Y-85725000D01*
D38*
X61100000Y-92710000D02*
X62865000Y-92710000D01*
X62865000Y-92710000D02*
X76200000Y-92710000D01*
D37*
X57475000Y-89365000D02*
X57475000Y-92400000D01*
X57785000Y-92710000D02*
X61100000Y-92710000D01*
X57475000Y-92400000D02*
X57785000Y-92710000D01*
D38*
X62370000Y-51435000D02*
X74930000Y-51435000D01*
X74930000Y-51435000D02*
X91965000Y-51435000D01*
X91965000Y-51435000D02*
X100330000Y-43070000D01*
D39*
X121285000Y-100330000D02*
X123825000Y-102870000D01*
X123825000Y-102870000D02*
X123825000Y-113030000D01*
D40*
X118745000Y-97790000D02*
X121285000Y-100330000D01*
D39*
X121285000Y-100330000D02*
X121285000Y-113030000D01*
D40*
X105410000Y-95885000D02*
X116840000Y-95885000D01*
D39*
X118745000Y-97790000D02*
X118745000Y-113030000D01*
D40*
X116840000Y-95885000D02*
X118745000Y-97790000D01*
D39*
X160020000Y-107950000D02*
X160020000Y-110490000D01*
D37*
X177165000Y-102235000D02*
X181102000Y-106172000D01*
X181102000Y-106172000D02*
X181102000Y-106299000D01*
D39*
X175006000Y-95711000D02*
X176356000Y-95711000D01*
X176356000Y-95711000D02*
X177165000Y-96520000D01*
X177165000Y-96520000D02*
X177165000Y-102235000D01*
X177165000Y-102235000D02*
X168910000Y-110490000D01*
X168910000Y-110490000D02*
X166370000Y-110490000D01*
X130175000Y-110490000D02*
X127000000Y-113665000D01*
X166370000Y-110490000D02*
X160020000Y-110490000D01*
X160020000Y-110490000D02*
X130175000Y-110490000D01*
X163830000Y-91059000D02*
X159258000Y-91059000D01*
X165862000Y-93091000D02*
X163830000Y-91059000D01*
D40*
X108585000Y-99060000D02*
X111760000Y-102235000D01*
X111760000Y-102235000D02*
X111760000Y-113665000D01*
X105410000Y-95885000D02*
X108585000Y-99060000D01*
X108585000Y-99060000D02*
X108585000Y-113665000D01*
X88265000Y-86470000D02*
X95995000Y-86470000D01*
X105410000Y-95885000D02*
X105410000Y-113665000D01*
X95995000Y-86470000D02*
X105410000Y-95885000D01*
D37*
X81150000Y-104315000D02*
X81150000Y-100815000D01*
X81150000Y-100815000D02*
X81450000Y-100815000D01*
X64770000Y-113030000D02*
X64770000Y-113695000D01*
D41*
%TO.N,Net-(C3-Pad1)*%
X186690000Y-76835000D02*
X187706000Y-75819000D01*
X187706000Y-75819000D02*
X193294000Y-75819000D01*
D37*
%TO.N,+9VA*%
X64135000Y-66675000D02*
X57170000Y-59710000D01*
X57170000Y-59710000D02*
X57170000Y-58420000D01*
X64135000Y-83820000D02*
X64135000Y-66675000D01*
X58095000Y-56980000D02*
X57320000Y-56980000D01*
X57170000Y-57130000D02*
X57170000Y-58420000D01*
X57320000Y-56980000D02*
X57170000Y-57130000D01*
X61595000Y-85725000D02*
X64135000Y-88265000D01*
X61595000Y-85725000D02*
X58400000Y-85725000D01*
X57475000Y-87165000D02*
X58250000Y-87165000D01*
X58250000Y-87165000D02*
X58400000Y-87015000D01*
X58400000Y-87015000D02*
X58400000Y-85725000D01*
D41*
X57785000Y-118110000D02*
X57785000Y-127635000D01*
X57785000Y-127635000D02*
X56515000Y-128905000D01*
D39*
X175006000Y-100711000D02*
X169037000Y-106680000D01*
X169037000Y-106680000D02*
X154305000Y-106680000D01*
X116205000Y-106680000D02*
X116205000Y-127635000D01*
D37*
%TO.N,Net-(C9-Pad1)*%
X135255000Y-124460000D02*
X135255000Y-116967000D01*
X135255000Y-116967000D02*
X136144000Y-116078000D01*
%TO.N,Net-(C9-Pad2)*%
X138430000Y-125730000D02*
X138430000Y-123190000D01*
%TO.N,Net-(C10-Pad1)*%
X149225000Y-125095000D02*
X160655000Y-125095000D01*
X135255000Y-128270000D02*
X135255000Y-138684000D01*
X135255000Y-138684000D02*
X136144000Y-139573000D01*
%TO.N,Net-(C10-Pad2)*%
X164005000Y-126825000D02*
X161005000Y-123825000D01*
X148590000Y-122555000D02*
X147955000Y-122555000D01*
X149860000Y-123825000D02*
X148590000Y-122555000D01*
X161005000Y-123825000D02*
X149860000Y-123825000D01*
X164005000Y-126825000D02*
X165100000Y-126825000D01*
X159385000Y-131445000D02*
X164005000Y-126825000D01*
X147955000Y-129540000D02*
X147955000Y-134620000D01*
X147955000Y-122555000D02*
X147955000Y-129540000D01*
D41*
%TO.N,+3V3*%
X121285000Y-123190000D02*
X121285000Y-125730000D01*
X121285000Y-125730000D02*
X121920000Y-126365000D01*
X121920000Y-126365000D02*
X124460000Y-126365000D01*
X125095000Y-127000000D02*
X124460000Y-126365000D01*
D37*
X84150000Y-107015000D02*
X88550000Y-111415000D01*
X88550000Y-111415000D02*
X104050000Y-111415000D01*
X106996702Y-110361702D02*
X106996702Y-111761702D01*
X106996702Y-111761702D02*
X107251298Y-112016298D01*
D39*
%TO.N,+12V*%
X34290000Y-131445000D02*
X40640000Y-131445000D01*
X40640000Y-131445000D02*
X43180000Y-128905000D01*
X43180000Y-128905000D02*
X43180000Y-124460000D01*
X40005000Y-117475000D02*
X34290000Y-117475000D01*
X43180000Y-124460000D02*
X43180000Y-120650000D01*
X43180000Y-120650000D02*
X40005000Y-117475000D01*
D42*
%TO.N,Net-(D1-Pad2)*%
X140335000Y-50165000D02*
X140335000Y-48895000D01*
X135255000Y-43815000D02*
X135255000Y-42545000D01*
X140335000Y-48895000D02*
X135255000Y-43815000D01*
D41*
X193294000Y-70739000D02*
X170434000Y-70739000D01*
X170434000Y-70739000D02*
X163830000Y-64135000D01*
D39*
%TO.N,/Drive_PWM*%
X141605000Y-79386000D02*
X144156000Y-79386000D01*
X146166000Y-90286000D02*
X149225000Y-90286000D01*
X145415000Y-89535000D02*
X146166000Y-90286000D01*
X145415000Y-80645000D02*
X145415000Y-89535000D01*
X144156000Y-79386000D02*
X145415000Y-80645000D01*
D37*
%TO.N,/PWM*%
X99060000Y-131953000D02*
X99060000Y-123825000D01*
D38*
%TO.N,/-Arr*%
X48260000Y-92710000D02*
X53200000Y-92710000D01*
X43180000Y-92710000D02*
X48260000Y-92710000D01*
X40640000Y-92710000D02*
X43180000Y-92710000D01*
D37*
X56825000Y-89365000D02*
X56825000Y-92400000D01*
X56825000Y-92400000D02*
X56515000Y-92710000D01*
X56515000Y-92710000D02*
X53200000Y-92710000D01*
D38*
%TO.N,Net-(J1-Pad2)*%
X40640000Y-85090000D02*
X43180000Y-85090000D01*
X43180000Y-85090000D02*
X48260000Y-85090000D01*
D37*
%TO.N,/-Batt*%
X58095000Y-54780000D02*
X58095000Y-51745000D01*
X57785000Y-51435000D02*
X54470000Y-51435000D01*
X58095000Y-51745000D02*
X57785000Y-51435000D01*
D38*
X54470000Y-51435000D02*
X48260000Y-51435000D01*
X43180000Y-51435000D02*
X48260000Y-51435000D01*
X40640000Y-51435000D02*
X43180000Y-51435000D01*
D37*
%TO.N,Net-(J4-Pad4)*%
X151765000Y-128905000D02*
X151765000Y-132080000D01*
X138430000Y-132080000D02*
X144145000Y-132080000D01*
%TO.N,Net-(J4-Pad3)*%
X150495000Y-130810000D02*
X150495000Y-138684000D01*
X150495000Y-138684000D02*
X151384000Y-139573000D01*
X138430000Y-130810000D02*
X144145000Y-130810000D01*
%TO.N,Net-(R18-Pad1)*%
X55415000Y-89365000D02*
X55245000Y-89535000D01*
X56175000Y-89365000D02*
X55415000Y-89365000D01*
X62865000Y-99060000D02*
X68580000Y-99060000D01*
%TO.N,Net-(R19-Pad1)*%
X59860000Y-54780000D02*
X60960000Y-55880000D01*
X60960000Y-55880000D02*
X60960000Y-60960000D01*
X60960000Y-60960000D02*
X66040000Y-66040000D01*
X66040000Y-66040000D02*
X66040000Y-85725000D01*
X59860000Y-54780000D02*
X59395000Y-54780000D01*
%TO.N,/CAN_Tx*%
X121285000Y-118110000D02*
X118745000Y-120650000D01*
X118745000Y-120650000D02*
X118745000Y-130810000D01*
%TO.N,/CAN_Rx*%
X125095000Y-131445000D02*
X125095000Y-128905000D01*
X127000000Y-127000000D02*
X127000000Y-118745000D01*
X125095000Y-128905000D02*
X127000000Y-127000000D01*
X127000000Y-118745000D02*
X126365000Y-118110000D01*
%TO.N,/Reset*%
X80010000Y-121285000D02*
X80010000Y-125095000D01*
%TO.N,Net-(R23-Pad1)*%
X62865000Y-88900000D02*
X66040000Y-88900000D01*
%TO.N,Net-(R24-Pad1)*%
X69850000Y-62865000D02*
X66675000Y-66040000D01*
X69850000Y-57785000D02*
X69850000Y-62865000D01*
X66675000Y-66040000D02*
X66675000Y-87630000D01*
%TD*%
%TO.N,GNDPWR*%
G36*
X115380001Y-127675521D02*
G01*
X115391939Y-127796728D01*
X115439113Y-127952241D01*
X115515720Y-128095563D01*
X115618816Y-128221185D01*
X115744438Y-128324281D01*
X115887760Y-128400888D01*
X116043273Y-128448062D01*
X116205000Y-128463991D01*
X116366728Y-128448062D01*
X116522241Y-128400888D01*
X116665563Y-128324281D01*
X116791185Y-128221185D01*
X116894281Y-128095563D01*
X116970888Y-127952241D01*
X117018062Y-127796728D01*
X117030000Y-127675521D01*
X117030000Y-113540000D01*
X128529009Y-113540000D01*
X128399489Y-146560000D01*
X52830000Y-146560000D01*
X52830000Y-145199000D01*
X86654153Y-145199000D01*
X86657532Y-145233306D01*
X86667539Y-145266294D01*
X86683789Y-145296695D01*
X86705657Y-145323343D01*
X86732305Y-145345211D01*
X86762706Y-145361461D01*
X86795694Y-145371468D01*
X86830000Y-145374847D01*
X87561250Y-145374000D01*
X87605000Y-145330250D01*
X87605000Y-144424000D01*
X87655000Y-144424000D01*
X87655000Y-145330250D01*
X87698750Y-145374000D01*
X88430000Y-145374847D01*
X88464306Y-145371468D01*
X88497294Y-145361461D01*
X88527695Y-145345211D01*
X88554343Y-145323343D01*
X88576211Y-145296695D01*
X88592461Y-145266294D01*
X88602468Y-145233306D01*
X88605847Y-145199000D01*
X88605126Y-144576166D01*
X89211230Y-144576166D01*
X89264216Y-144759809D01*
X89352011Y-144929586D01*
X89471241Y-145078973D01*
X89617324Y-145202229D01*
X89784646Y-145294617D01*
X89966777Y-145352587D01*
X89992834Y-145357768D01*
X90145000Y-145329914D01*
X90145000Y-144424000D01*
X90195000Y-144424000D01*
X90195000Y-145329914D01*
X90347166Y-145357768D01*
X90373223Y-145352587D01*
X90555354Y-145294617D01*
X90722676Y-145202229D01*
X90868759Y-145078973D01*
X90987989Y-144929586D01*
X91075784Y-144759809D01*
X91128770Y-144576166D01*
X91751230Y-144576166D01*
X91804216Y-144759809D01*
X91892011Y-144929586D01*
X92011241Y-145078973D01*
X92157324Y-145202229D01*
X92324646Y-145294617D01*
X92506777Y-145352587D01*
X92532834Y-145357768D01*
X92685000Y-145329914D01*
X92685000Y-144424000D01*
X92735000Y-144424000D01*
X92735000Y-145329914D01*
X92887166Y-145357768D01*
X92913223Y-145352587D01*
X93095354Y-145294617D01*
X93262676Y-145202229D01*
X93408759Y-145078973D01*
X93527989Y-144929586D01*
X93615784Y-144759809D01*
X93668770Y-144576166D01*
X94291230Y-144576166D01*
X94344216Y-144759809D01*
X94432011Y-144929586D01*
X94551241Y-145078973D01*
X94697324Y-145202229D01*
X94864646Y-145294617D01*
X95046777Y-145352587D01*
X95072834Y-145357768D01*
X95225000Y-145329914D01*
X95225000Y-144424000D01*
X95275000Y-144424000D01*
X95275000Y-145329914D01*
X95427166Y-145357768D01*
X95453223Y-145352587D01*
X95635354Y-145294617D01*
X95802676Y-145202229D01*
X95948759Y-145078973D01*
X96067989Y-144929586D01*
X96155784Y-144759809D01*
X96208770Y-144576166D01*
X96180931Y-144424000D01*
X95275000Y-144424000D01*
X95225000Y-144424000D01*
X94319069Y-144424000D01*
X94291230Y-144576166D01*
X93668770Y-144576166D01*
X93640931Y-144424000D01*
X92735000Y-144424000D01*
X92685000Y-144424000D01*
X91779069Y-144424000D01*
X91751230Y-144576166D01*
X91128770Y-144576166D01*
X91100931Y-144424000D01*
X90195000Y-144424000D01*
X90145000Y-144424000D01*
X89239069Y-144424000D01*
X89211230Y-144576166D01*
X88605126Y-144576166D01*
X88605000Y-144467750D01*
X88561250Y-144424000D01*
X87655000Y-144424000D01*
X87605000Y-144424000D01*
X86698750Y-144424000D01*
X86655000Y-144467750D01*
X86654153Y-145199000D01*
X52830000Y-145199000D01*
X52830000Y-144331418D01*
X70333938Y-144331418D01*
X70446392Y-144479675D01*
X70648510Y-144592457D01*
X70868746Y-144663641D01*
X71098638Y-144690491D01*
X71329350Y-144671976D01*
X71552017Y-144608806D01*
X71758083Y-144503411D01*
X71793608Y-144479675D01*
X71906062Y-144331418D01*
X71120000Y-143545355D01*
X70333938Y-144331418D01*
X52830000Y-144331418D01*
X52830000Y-143488638D01*
X69939509Y-143488638D01*
X69958024Y-143719350D01*
X70021194Y-143942017D01*
X70126589Y-144148083D01*
X70150325Y-144183608D01*
X70298582Y-144296062D01*
X71084645Y-143510000D01*
X71155355Y-143510000D01*
X71941418Y-144296062D01*
X72089675Y-144183608D01*
X72202457Y-143981490D01*
X72273641Y-143761254D01*
X72300491Y-143531362D01*
X72288304Y-143379499D01*
X74295000Y-143379499D01*
X74295000Y-143640501D01*
X74345919Y-143896488D01*
X74445800Y-144137623D01*
X74590805Y-144354638D01*
X74775362Y-144539195D01*
X74992377Y-144684200D01*
X75233512Y-144784081D01*
X75489499Y-144835000D01*
X75750501Y-144835000D01*
X76006488Y-144784081D01*
X76247623Y-144684200D01*
X76464638Y-144539195D01*
X76649195Y-144354638D01*
X76794200Y-144137623D01*
X76894081Y-143896488D01*
X76945000Y-143640501D01*
X76945000Y-143599000D01*
X86654153Y-143599000D01*
X86655000Y-144330250D01*
X86698750Y-144374000D01*
X87605000Y-144374000D01*
X87605000Y-143467750D01*
X87655000Y-143467750D01*
X87655000Y-144374000D01*
X88561250Y-144374000D01*
X88605000Y-144330250D01*
X88605125Y-144221834D01*
X89211230Y-144221834D01*
X89239069Y-144374000D01*
X90145000Y-144374000D01*
X90145000Y-143468086D01*
X90195000Y-143468086D01*
X90195000Y-144374000D01*
X91100931Y-144374000D01*
X91128770Y-144221834D01*
X91751230Y-144221834D01*
X91779069Y-144374000D01*
X92685000Y-144374000D01*
X92685000Y-143468086D01*
X92735000Y-143468086D01*
X92735000Y-144374000D01*
X93640931Y-144374000D01*
X93668770Y-144221834D01*
X94291230Y-144221834D01*
X94319069Y-144374000D01*
X95225000Y-144374000D01*
X95225000Y-143468086D01*
X95275000Y-143468086D01*
X95275000Y-144374000D01*
X96180931Y-144374000D01*
X96208770Y-144221834D01*
X96155784Y-144038191D01*
X96067989Y-143868414D01*
X95948759Y-143719027D01*
X95802676Y-143595771D01*
X95635354Y-143503383D01*
X95453223Y-143445413D01*
X95427166Y-143440232D01*
X95275000Y-143468086D01*
X95225000Y-143468086D01*
X95072834Y-143440232D01*
X95046777Y-143445413D01*
X94864646Y-143503383D01*
X94697324Y-143595771D01*
X94551241Y-143719027D01*
X94432011Y-143868414D01*
X94344216Y-144038191D01*
X94291230Y-144221834D01*
X93668770Y-144221834D01*
X93615784Y-144038191D01*
X93527989Y-143868414D01*
X93408759Y-143719027D01*
X93262676Y-143595771D01*
X93095354Y-143503383D01*
X92913223Y-143445413D01*
X92887166Y-143440232D01*
X92735000Y-143468086D01*
X92685000Y-143468086D01*
X92532834Y-143440232D01*
X92506777Y-143445413D01*
X92324646Y-143503383D01*
X92157324Y-143595771D01*
X92011241Y-143719027D01*
X91892011Y-143868414D01*
X91804216Y-144038191D01*
X91751230Y-144221834D01*
X91128770Y-144221834D01*
X91075784Y-144038191D01*
X90987989Y-143868414D01*
X90868759Y-143719027D01*
X90722676Y-143595771D01*
X90555354Y-143503383D01*
X90373223Y-143445413D01*
X90347166Y-143440232D01*
X90195000Y-143468086D01*
X90145000Y-143468086D01*
X89992834Y-143440232D01*
X89966777Y-143445413D01*
X89784646Y-143503383D01*
X89617324Y-143595771D01*
X89471241Y-143719027D01*
X89352011Y-143868414D01*
X89264216Y-144038191D01*
X89211230Y-144221834D01*
X88605125Y-144221834D01*
X88605847Y-143599000D01*
X88602468Y-143564694D01*
X88592461Y-143531706D01*
X88576211Y-143501305D01*
X88554343Y-143474657D01*
X88527695Y-143452789D01*
X88497294Y-143436539D01*
X88464306Y-143426532D01*
X88430000Y-143423153D01*
X87698750Y-143424000D01*
X87655000Y-143467750D01*
X87605000Y-143467750D01*
X87561250Y-143424000D01*
X86830000Y-143423153D01*
X86795694Y-143426532D01*
X86762706Y-143436539D01*
X86732305Y-143452789D01*
X86705657Y-143474657D01*
X86683789Y-143501305D01*
X86667539Y-143531706D01*
X86657532Y-143564694D01*
X86654153Y-143599000D01*
X76945000Y-143599000D01*
X76945000Y-143379499D01*
X76894081Y-143123512D01*
X76794200Y-142882377D01*
X76649195Y-142665362D01*
X76464638Y-142480805D01*
X76247623Y-142335800D01*
X76006488Y-142235919D01*
X75750501Y-142185000D01*
X75489499Y-142185000D01*
X75233512Y-142235919D01*
X74992377Y-142335800D01*
X74775362Y-142480805D01*
X74590805Y-142665362D01*
X74445800Y-142882377D01*
X74345919Y-143123512D01*
X74295000Y-143379499D01*
X72288304Y-143379499D01*
X72281976Y-143300650D01*
X72218806Y-143077983D01*
X72113411Y-142871917D01*
X72089675Y-142836392D01*
X71941418Y-142723938D01*
X71155355Y-143510000D01*
X71084645Y-143510000D01*
X70298582Y-142723938D01*
X70150325Y-142836392D01*
X70037543Y-143038510D01*
X69966359Y-143258746D01*
X69939509Y-143488638D01*
X52830000Y-143488638D01*
X52830000Y-142688582D01*
X70333938Y-142688582D01*
X71120000Y-143474645D01*
X71906062Y-142688582D01*
X71793608Y-142540325D01*
X71591490Y-142427543D01*
X71371254Y-142356359D01*
X71141362Y-142329509D01*
X70910650Y-142348024D01*
X70687983Y-142411194D01*
X70481917Y-142516589D01*
X70446392Y-142540325D01*
X70333938Y-142688582D01*
X52830000Y-142688582D01*
X52830000Y-141653495D01*
X52940241Y-141642637D01*
X53166442Y-141574019D01*
X53374910Y-141462591D01*
X53557634Y-141312634D01*
X53707591Y-141129909D01*
X53819019Y-140921441D01*
X53887637Y-140695240D01*
X53905000Y-140518949D01*
X53905000Y-140151051D01*
X54045000Y-140151051D01*
X54045000Y-140518950D01*
X54062363Y-140695241D01*
X54130981Y-140921442D01*
X54242409Y-141129910D01*
X54392367Y-141312634D01*
X54575091Y-141462591D01*
X54783559Y-141574019D01*
X55009760Y-141642637D01*
X55245000Y-141665806D01*
X55480241Y-141642637D01*
X55706442Y-141574019D01*
X55914910Y-141462591D01*
X56097634Y-141312634D01*
X56247591Y-141129909D01*
X56359019Y-140921441D01*
X56427637Y-140695240D01*
X56445000Y-140518949D01*
X56445000Y-140360000D01*
X56735000Y-140360000D01*
X56735000Y-140485000D01*
X56760053Y-140689364D01*
X56824494Y-140884914D01*
X56925846Y-141064135D01*
X57060215Y-141220139D01*
X57222437Y-141346932D01*
X57406278Y-141439640D01*
X57596098Y-141492868D01*
X57760000Y-141465939D01*
X57760000Y-140360000D01*
X57810000Y-140360000D01*
X57810000Y-141465939D01*
X57973902Y-141492868D01*
X58163722Y-141439640D01*
X58347563Y-141346932D01*
X58509785Y-141220139D01*
X58644154Y-141064135D01*
X58745506Y-140884914D01*
X58809947Y-140689364D01*
X58835000Y-140485000D01*
X58835000Y-140360000D01*
X57810000Y-140360000D01*
X57760000Y-140360000D01*
X56735000Y-140360000D01*
X56445000Y-140360000D01*
X56445000Y-140185000D01*
X56735000Y-140185000D01*
X56735000Y-140310000D01*
X57760000Y-140310000D01*
X57760000Y-139204061D01*
X57810000Y-139204061D01*
X57810000Y-140310000D01*
X58835000Y-140310000D01*
X58835000Y-140185000D01*
X58830839Y-140151051D01*
X59125000Y-140151051D01*
X59125000Y-140518950D01*
X59142363Y-140695241D01*
X59210981Y-140921442D01*
X59322409Y-141129910D01*
X59472367Y-141312634D01*
X59655091Y-141462591D01*
X59863559Y-141574019D01*
X60089760Y-141642637D01*
X60325000Y-141665806D01*
X60560241Y-141642637D01*
X60786442Y-141574019D01*
X60994910Y-141462591D01*
X61177634Y-141312634D01*
X61327591Y-141129909D01*
X61439019Y-140921441D01*
X61507637Y-140695240D01*
X61525000Y-140518949D01*
X61525000Y-140151050D01*
X61507637Y-139974759D01*
X61439019Y-139748558D01*
X61327591Y-139540090D01*
X61177634Y-139357366D01*
X60994909Y-139207409D01*
X60786441Y-139095981D01*
X60560240Y-139027363D01*
X60325000Y-139004194D01*
X60089759Y-139027363D01*
X59863558Y-139095981D01*
X59655090Y-139207409D01*
X59472366Y-139357366D01*
X59322409Y-139540091D01*
X59210981Y-139748559D01*
X59142363Y-139974760D01*
X59125000Y-140151051D01*
X58830839Y-140151051D01*
X58809947Y-139980636D01*
X58745506Y-139785086D01*
X58644154Y-139605865D01*
X58509785Y-139449861D01*
X58347563Y-139323068D01*
X58163722Y-139230360D01*
X57973902Y-139177132D01*
X57810000Y-139204061D01*
X57760000Y-139204061D01*
X57596098Y-139177132D01*
X57406278Y-139230360D01*
X57222437Y-139323068D01*
X57060215Y-139449861D01*
X56925846Y-139605865D01*
X56824494Y-139785086D01*
X56760053Y-139980636D01*
X56735000Y-140185000D01*
X56445000Y-140185000D01*
X56445000Y-140151050D01*
X56427637Y-139974759D01*
X56359019Y-139748558D01*
X56247591Y-139540090D01*
X56097634Y-139357366D01*
X55914909Y-139207409D01*
X55706441Y-139095981D01*
X55480240Y-139027363D01*
X55245000Y-139004194D01*
X55009759Y-139027363D01*
X54783558Y-139095981D01*
X54575090Y-139207409D01*
X54392366Y-139357366D01*
X54242409Y-139540091D01*
X54130981Y-139748559D01*
X54062363Y-139974760D01*
X54045000Y-140151051D01*
X53905000Y-140151051D01*
X53905000Y-140151050D01*
X53887637Y-139974759D01*
X53819019Y-139748558D01*
X53707591Y-139540090D01*
X53557634Y-139357366D01*
X53374909Y-139207409D01*
X53166441Y-139095981D01*
X52940240Y-139027363D01*
X52830000Y-139016505D01*
X52830000Y-137831418D01*
X70333938Y-137831418D01*
X70446392Y-137979675D01*
X70648510Y-138092457D01*
X70868746Y-138163641D01*
X71098638Y-138190491D01*
X71329350Y-138171976D01*
X71552017Y-138108806D01*
X71758083Y-138003411D01*
X71793608Y-137979675D01*
X71906062Y-137831418D01*
X71120000Y-137045355D01*
X70333938Y-137831418D01*
X52830000Y-137831418D01*
X52830000Y-136988638D01*
X69939509Y-136988638D01*
X69958024Y-137219350D01*
X70021194Y-137442017D01*
X70126589Y-137648083D01*
X70150325Y-137683608D01*
X70298582Y-137796062D01*
X71084645Y-137010000D01*
X71155355Y-137010000D01*
X71941418Y-137796062D01*
X72089675Y-137683608D01*
X72202457Y-137481490D01*
X72273641Y-137261254D01*
X72300491Y-137031362D01*
X72288304Y-136879499D01*
X74295000Y-136879499D01*
X74295000Y-137140501D01*
X74345919Y-137396488D01*
X74445800Y-137637623D01*
X74590805Y-137854638D01*
X74775362Y-138039195D01*
X74992377Y-138184200D01*
X75233512Y-138284081D01*
X75489499Y-138335000D01*
X75750501Y-138335000D01*
X76006488Y-138284081D01*
X76247623Y-138184200D01*
X76464638Y-138039195D01*
X76649195Y-137854638D01*
X76794200Y-137637623D01*
X76894081Y-137396488D01*
X76945000Y-137140501D01*
X76945000Y-136879499D01*
X76902970Y-136668197D01*
X86505000Y-136668197D01*
X86505000Y-136889803D01*
X86548233Y-137107150D01*
X86633038Y-137311887D01*
X86756156Y-137496145D01*
X86912855Y-137652844D01*
X87097113Y-137775962D01*
X87301850Y-137860767D01*
X87519197Y-137904000D01*
X87740803Y-137904000D01*
X87958150Y-137860767D01*
X88162887Y-137775962D01*
X88347145Y-137652844D01*
X88503844Y-137496145D01*
X88626962Y-137311887D01*
X88711767Y-137107150D01*
X88755000Y-136889803D01*
X88755000Y-136668197D01*
X89045000Y-136668197D01*
X89045000Y-136889803D01*
X89088233Y-137107150D01*
X89173038Y-137311887D01*
X89296156Y-137496145D01*
X89452855Y-137652844D01*
X89637113Y-137775962D01*
X89841850Y-137860767D01*
X90059197Y-137904000D01*
X90280803Y-137904000D01*
X90498150Y-137860767D01*
X90702887Y-137775962D01*
X90887145Y-137652844D01*
X91043844Y-137496145D01*
X91166962Y-137311887D01*
X91251767Y-137107150D01*
X91295000Y-136889803D01*
X91295000Y-136668197D01*
X91585000Y-136668197D01*
X91585000Y-136889803D01*
X91628233Y-137107150D01*
X91713038Y-137311887D01*
X91836156Y-137496145D01*
X91992855Y-137652844D01*
X92177113Y-137775962D01*
X92381850Y-137860767D01*
X92599197Y-137904000D01*
X92820803Y-137904000D01*
X93038150Y-137860767D01*
X93242887Y-137775962D01*
X93427145Y-137652844D01*
X93583844Y-137496145D01*
X93706962Y-137311887D01*
X93791767Y-137107150D01*
X93835000Y-136889803D01*
X93835000Y-136668197D01*
X94125000Y-136668197D01*
X94125000Y-136889803D01*
X94168233Y-137107150D01*
X94253038Y-137311887D01*
X94376156Y-137496145D01*
X94532855Y-137652844D01*
X94717113Y-137775962D01*
X94921850Y-137860767D01*
X95139197Y-137904000D01*
X95360803Y-137904000D01*
X95578150Y-137860767D01*
X95782887Y-137775962D01*
X95967145Y-137652844D01*
X96123844Y-137496145D01*
X96246962Y-137311887D01*
X96331767Y-137107150D01*
X96375000Y-136889803D01*
X96375000Y-136668197D01*
X96331767Y-136450850D01*
X96246962Y-136246113D01*
X96123844Y-136061855D01*
X95967145Y-135905156D01*
X95782887Y-135782038D01*
X95578150Y-135697233D01*
X95360803Y-135654000D01*
X95139197Y-135654000D01*
X94921850Y-135697233D01*
X94717113Y-135782038D01*
X94532855Y-135905156D01*
X94376156Y-136061855D01*
X94253038Y-136246113D01*
X94168233Y-136450850D01*
X94125000Y-136668197D01*
X93835000Y-136668197D01*
X93791767Y-136450850D01*
X93706962Y-136246113D01*
X93583844Y-136061855D01*
X93427145Y-135905156D01*
X93242887Y-135782038D01*
X93038150Y-135697233D01*
X92820803Y-135654000D01*
X92599197Y-135654000D01*
X92381850Y-135697233D01*
X92177113Y-135782038D01*
X91992855Y-135905156D01*
X91836156Y-136061855D01*
X91713038Y-136246113D01*
X91628233Y-136450850D01*
X91585000Y-136668197D01*
X91295000Y-136668197D01*
X91251767Y-136450850D01*
X91166962Y-136246113D01*
X91043844Y-136061855D01*
X90887145Y-135905156D01*
X90702887Y-135782038D01*
X90498150Y-135697233D01*
X90280803Y-135654000D01*
X90059197Y-135654000D01*
X89841850Y-135697233D01*
X89637113Y-135782038D01*
X89452855Y-135905156D01*
X89296156Y-136061855D01*
X89173038Y-136246113D01*
X89088233Y-136450850D01*
X89045000Y-136668197D01*
X88755000Y-136668197D01*
X88711767Y-136450850D01*
X88626962Y-136246113D01*
X88503844Y-136061855D01*
X88347145Y-135905156D01*
X88162887Y-135782038D01*
X87958150Y-135697233D01*
X87740803Y-135654000D01*
X87519197Y-135654000D01*
X87301850Y-135697233D01*
X87097113Y-135782038D01*
X86912855Y-135905156D01*
X86756156Y-136061855D01*
X86633038Y-136246113D01*
X86548233Y-136450850D01*
X86505000Y-136668197D01*
X76902970Y-136668197D01*
X76894081Y-136623512D01*
X76794200Y-136382377D01*
X76649195Y-136165362D01*
X76464638Y-135980805D01*
X76247623Y-135835800D01*
X76006488Y-135735919D01*
X75750501Y-135685000D01*
X75489499Y-135685000D01*
X75233512Y-135735919D01*
X74992377Y-135835800D01*
X74775362Y-135980805D01*
X74590805Y-136165362D01*
X74445800Y-136382377D01*
X74345919Y-136623512D01*
X74295000Y-136879499D01*
X72288304Y-136879499D01*
X72281976Y-136800650D01*
X72218806Y-136577983D01*
X72113411Y-136371917D01*
X72089675Y-136336392D01*
X71941418Y-136223938D01*
X71155355Y-137010000D01*
X71084645Y-137010000D01*
X70298582Y-136223938D01*
X70150325Y-136336392D01*
X70037543Y-136538510D01*
X69966359Y-136758746D01*
X69939509Y-136988638D01*
X52830000Y-136988638D01*
X52830000Y-136188582D01*
X70333938Y-136188582D01*
X71120000Y-136974645D01*
X71906062Y-136188582D01*
X71793608Y-136040325D01*
X71591490Y-135927543D01*
X71371254Y-135856359D01*
X71141362Y-135829509D01*
X70910650Y-135848024D01*
X70687983Y-135911194D01*
X70481917Y-136016589D01*
X70446392Y-136040325D01*
X70333938Y-136188582D01*
X52830000Y-136188582D01*
X52830000Y-132461000D01*
X73841428Y-132461000D01*
X73841428Y-133985000D01*
X73847703Y-134048711D01*
X73866287Y-134109974D01*
X73896465Y-134166434D01*
X73937079Y-134215921D01*
X73986566Y-134256535D01*
X74043026Y-134286713D01*
X74104289Y-134305297D01*
X74168000Y-134311572D01*
X75692000Y-134311572D01*
X75755711Y-134305297D01*
X75816974Y-134286713D01*
X75873434Y-134256535D01*
X75922921Y-134215921D01*
X75963535Y-134166434D01*
X75993713Y-134109974D01*
X76012297Y-134048711D01*
X76018572Y-133985000D01*
X76018572Y-133115940D01*
X76383000Y-133115940D01*
X76383000Y-133330060D01*
X76424772Y-133540066D01*
X76506713Y-133737888D01*
X76625672Y-133915922D01*
X76777078Y-134067328D01*
X76955112Y-134186287D01*
X77152934Y-134268228D01*
X77362940Y-134310000D01*
X77577060Y-134310000D01*
X77787066Y-134268228D01*
X77984888Y-134186287D01*
X78162922Y-134067328D01*
X78314328Y-133915922D01*
X78433287Y-133737888D01*
X78515228Y-133540066D01*
X78557000Y-133330060D01*
X78557000Y-133115940D01*
X78923000Y-133115940D01*
X78923000Y-133330060D01*
X78964772Y-133540066D01*
X79046713Y-133737888D01*
X79165672Y-133915922D01*
X79317078Y-134067328D01*
X79495112Y-134186287D01*
X79692934Y-134268228D01*
X79902940Y-134310000D01*
X80117060Y-134310000D01*
X80327066Y-134268228D01*
X80524888Y-134186287D01*
X80702922Y-134067328D01*
X80854328Y-133915922D01*
X80881496Y-133875261D01*
X81933095Y-133875261D01*
X82017001Y-133999143D01*
X82178661Y-134088212D01*
X82354590Y-134144033D01*
X82538029Y-134164458D01*
X82721929Y-134148703D01*
X82899221Y-134097375D01*
X83063093Y-134012444D01*
X83082999Y-133999143D01*
X83166905Y-133875261D01*
X82550000Y-133258355D01*
X81933095Y-133875261D01*
X80881496Y-133875261D01*
X80973287Y-133737888D01*
X81055228Y-133540066D01*
X81097000Y-133330060D01*
X81097000Y-133211029D01*
X81608542Y-133211029D01*
X81624297Y-133394929D01*
X81675625Y-133572221D01*
X81760556Y-133736093D01*
X81773857Y-133755999D01*
X81897739Y-133839905D01*
X82514645Y-133223000D01*
X82585355Y-133223000D01*
X83202261Y-133839905D01*
X83326143Y-133755999D01*
X83415212Y-133594339D01*
X83471033Y-133418410D01*
X83491458Y-133234971D01*
X83481261Y-133115940D01*
X84003000Y-133115940D01*
X84003000Y-133330060D01*
X84044772Y-133540066D01*
X84126713Y-133737888D01*
X84245672Y-133915922D01*
X84397078Y-134067328D01*
X84575112Y-134186287D01*
X84772934Y-134268228D01*
X84982940Y-134310000D01*
X85197060Y-134310000D01*
X85407066Y-134268228D01*
X85604888Y-134186287D01*
X85782922Y-134067328D01*
X85934328Y-133915922D01*
X86053287Y-133737888D01*
X86135228Y-133540066D01*
X86177000Y-133330060D01*
X86177000Y-133115940D01*
X86543000Y-133115940D01*
X86543000Y-133330060D01*
X86584772Y-133540066D01*
X86666713Y-133737888D01*
X86785672Y-133915922D01*
X86937078Y-134067328D01*
X87115112Y-134186287D01*
X87312934Y-134268228D01*
X87522940Y-134310000D01*
X87737060Y-134310000D01*
X87947066Y-134268228D01*
X88144888Y-134186287D01*
X88322922Y-134067328D01*
X88474328Y-133915922D01*
X88593287Y-133737888D01*
X88675228Y-133540066D01*
X88717000Y-133330060D01*
X88717000Y-133115940D01*
X89083000Y-133115940D01*
X89083000Y-133330060D01*
X89124772Y-133540066D01*
X89206713Y-133737888D01*
X89325672Y-133915922D01*
X89477078Y-134067328D01*
X89655112Y-134186287D01*
X89852934Y-134268228D01*
X90062940Y-134310000D01*
X90277060Y-134310000D01*
X90487066Y-134268228D01*
X90684888Y-134186287D01*
X90862922Y-134067328D01*
X91014328Y-133915922D01*
X91133287Y-133737888D01*
X91215228Y-133540066D01*
X91257000Y-133330060D01*
X91257000Y-133115940D01*
X91623000Y-133115940D01*
X91623000Y-133330060D01*
X91664772Y-133540066D01*
X91746713Y-133737888D01*
X91865672Y-133915922D01*
X92017078Y-134067328D01*
X92195112Y-134186287D01*
X92392934Y-134268228D01*
X92602940Y-134310000D01*
X92817060Y-134310000D01*
X93027066Y-134268228D01*
X93224888Y-134186287D01*
X93402922Y-134067328D01*
X93554328Y-133915922D01*
X93673287Y-133737888D01*
X93755228Y-133540066D01*
X93797000Y-133330060D01*
X93797000Y-133115940D01*
X94163000Y-133115940D01*
X94163000Y-133330060D01*
X94204772Y-133540066D01*
X94286713Y-133737888D01*
X94405672Y-133915922D01*
X94557078Y-134067328D01*
X94735112Y-134186287D01*
X94932934Y-134268228D01*
X95142940Y-134310000D01*
X95357060Y-134310000D01*
X95567066Y-134268228D01*
X95764888Y-134186287D01*
X95942922Y-134067328D01*
X96094328Y-133915922D01*
X96213287Y-133737888D01*
X96295228Y-133540066D01*
X96337000Y-133330060D01*
X96337000Y-133115940D01*
X96703000Y-133115940D01*
X96703000Y-133330060D01*
X96744772Y-133540066D01*
X96826713Y-133737888D01*
X96945672Y-133915922D01*
X97097078Y-134067328D01*
X97275112Y-134186287D01*
X97472934Y-134268228D01*
X97682940Y-134310000D01*
X97897060Y-134310000D01*
X98107066Y-134268228D01*
X98304888Y-134186287D01*
X98482922Y-134067328D01*
X98634328Y-133915922D01*
X98753287Y-133737888D01*
X98835228Y-133540066D01*
X98877000Y-133330060D01*
X98877000Y-133115940D01*
X99243000Y-133115940D01*
X99243000Y-133330060D01*
X99284772Y-133540066D01*
X99366713Y-133737888D01*
X99485672Y-133915922D01*
X99637078Y-134067328D01*
X99815112Y-134186287D01*
X100012934Y-134268228D01*
X100222940Y-134310000D01*
X100437060Y-134310000D01*
X100647066Y-134268228D01*
X100844888Y-134186287D01*
X101022922Y-134067328D01*
X101174328Y-133915922D01*
X101293287Y-133737888D01*
X101375228Y-133540066D01*
X101417000Y-133330060D01*
X101417000Y-133115940D01*
X101783000Y-133115940D01*
X101783000Y-133330060D01*
X101824772Y-133540066D01*
X101906713Y-133737888D01*
X102025672Y-133915922D01*
X102177078Y-134067328D01*
X102355112Y-134186287D01*
X102552934Y-134268228D01*
X102762940Y-134310000D01*
X102977060Y-134310000D01*
X103187066Y-134268228D01*
X103384888Y-134186287D01*
X103562922Y-134067328D01*
X103714328Y-133915922D01*
X103833287Y-133737888D01*
X103915228Y-133540066D01*
X103957000Y-133330060D01*
X103957000Y-133115940D01*
X104323000Y-133115940D01*
X104323000Y-133330060D01*
X104364772Y-133540066D01*
X104446713Y-133737888D01*
X104565672Y-133915922D01*
X104717078Y-134067328D01*
X104895112Y-134186287D01*
X105092934Y-134268228D01*
X105302940Y-134310000D01*
X105517060Y-134310000D01*
X105727066Y-134268228D01*
X105924888Y-134186287D01*
X106102922Y-134067328D01*
X106254328Y-133915922D01*
X106373287Y-133737888D01*
X106455228Y-133540066D01*
X106497000Y-133330060D01*
X106497000Y-133115940D01*
X106863000Y-133115940D01*
X106863000Y-133330060D01*
X106904772Y-133540066D01*
X106986713Y-133737888D01*
X107105672Y-133915922D01*
X107257078Y-134067328D01*
X107435112Y-134186287D01*
X107632934Y-134268228D01*
X107842940Y-134310000D01*
X108057060Y-134310000D01*
X108267066Y-134268228D01*
X108464888Y-134186287D01*
X108642922Y-134067328D01*
X108794328Y-133915922D01*
X108913287Y-133737888D01*
X108995228Y-133540066D01*
X109037000Y-133330060D01*
X109037000Y-133115940D01*
X109403000Y-133115940D01*
X109403000Y-133330060D01*
X109444772Y-133540066D01*
X109526713Y-133737888D01*
X109645672Y-133915922D01*
X109797078Y-134067328D01*
X109975112Y-134186287D01*
X110172934Y-134268228D01*
X110382940Y-134310000D01*
X110597060Y-134310000D01*
X110807066Y-134268228D01*
X111004888Y-134186287D01*
X111182922Y-134067328D01*
X111334328Y-133915922D01*
X111453287Y-133737888D01*
X111535228Y-133540066D01*
X111577000Y-133330060D01*
X111577000Y-133115940D01*
X111535228Y-132905934D01*
X111453287Y-132708112D01*
X111334328Y-132530078D01*
X111182922Y-132378672D01*
X111004888Y-132259713D01*
X110807066Y-132177772D01*
X110597060Y-132136000D01*
X110382940Y-132136000D01*
X110172934Y-132177772D01*
X109975112Y-132259713D01*
X109797078Y-132378672D01*
X109645672Y-132530078D01*
X109526713Y-132708112D01*
X109444772Y-132905934D01*
X109403000Y-133115940D01*
X109037000Y-133115940D01*
X108995228Y-132905934D01*
X108913287Y-132708112D01*
X108794328Y-132530078D01*
X108642922Y-132378672D01*
X108464888Y-132259713D01*
X108267066Y-132177772D01*
X108057060Y-132136000D01*
X107842940Y-132136000D01*
X107632934Y-132177772D01*
X107435112Y-132259713D01*
X107257078Y-132378672D01*
X107105672Y-132530078D01*
X106986713Y-132708112D01*
X106904772Y-132905934D01*
X106863000Y-133115940D01*
X106497000Y-133115940D01*
X106455228Y-132905934D01*
X106373287Y-132708112D01*
X106254328Y-132530078D01*
X106102922Y-132378672D01*
X105924888Y-132259713D01*
X105727066Y-132177772D01*
X105517060Y-132136000D01*
X105302940Y-132136000D01*
X105092934Y-132177772D01*
X104895112Y-132259713D01*
X104717078Y-132378672D01*
X104565672Y-132530078D01*
X104446713Y-132708112D01*
X104364772Y-132905934D01*
X104323000Y-133115940D01*
X103957000Y-133115940D01*
X103915228Y-132905934D01*
X103833287Y-132708112D01*
X103714328Y-132530078D01*
X103562922Y-132378672D01*
X103384888Y-132259713D01*
X103187066Y-132177772D01*
X102977060Y-132136000D01*
X102762940Y-132136000D01*
X102552934Y-132177772D01*
X102355112Y-132259713D01*
X102177078Y-132378672D01*
X102025672Y-132530078D01*
X101906713Y-132708112D01*
X101824772Y-132905934D01*
X101783000Y-133115940D01*
X101417000Y-133115940D01*
X101375228Y-132905934D01*
X101293287Y-132708112D01*
X101174328Y-132530078D01*
X101022922Y-132378672D01*
X100844888Y-132259713D01*
X100647066Y-132177772D01*
X100437060Y-132136000D01*
X100222940Y-132136000D01*
X100012934Y-132177772D01*
X99815112Y-132259713D01*
X99637078Y-132378672D01*
X99485672Y-132530078D01*
X99366713Y-132708112D01*
X99284772Y-132905934D01*
X99243000Y-133115940D01*
X98877000Y-133115940D01*
X98835228Y-132905934D01*
X98753287Y-132708112D01*
X98634328Y-132530078D01*
X98482922Y-132378672D01*
X98304888Y-132259713D01*
X98107066Y-132177772D01*
X97897060Y-132136000D01*
X97682940Y-132136000D01*
X97472934Y-132177772D01*
X97275112Y-132259713D01*
X97097078Y-132378672D01*
X96945672Y-132530078D01*
X96826713Y-132708112D01*
X96744772Y-132905934D01*
X96703000Y-133115940D01*
X96337000Y-133115940D01*
X96295228Y-132905934D01*
X96213287Y-132708112D01*
X96094328Y-132530078D01*
X95942922Y-132378672D01*
X95764888Y-132259713D01*
X95567066Y-132177772D01*
X95357060Y-132136000D01*
X95142940Y-132136000D01*
X94932934Y-132177772D01*
X94735112Y-132259713D01*
X94557078Y-132378672D01*
X94405672Y-132530078D01*
X94286713Y-132708112D01*
X94204772Y-132905934D01*
X94163000Y-133115940D01*
X93797000Y-133115940D01*
X93755228Y-132905934D01*
X93673287Y-132708112D01*
X93554328Y-132530078D01*
X93402922Y-132378672D01*
X93224888Y-132259713D01*
X93027066Y-132177772D01*
X92817060Y-132136000D01*
X92602940Y-132136000D01*
X92392934Y-132177772D01*
X92195112Y-132259713D01*
X92017078Y-132378672D01*
X91865672Y-132530078D01*
X91746713Y-132708112D01*
X91664772Y-132905934D01*
X91623000Y-133115940D01*
X91257000Y-133115940D01*
X91215228Y-132905934D01*
X91133287Y-132708112D01*
X91014328Y-132530078D01*
X90862922Y-132378672D01*
X90684888Y-132259713D01*
X90487066Y-132177772D01*
X90277060Y-132136000D01*
X90062940Y-132136000D01*
X89852934Y-132177772D01*
X89655112Y-132259713D01*
X89477078Y-132378672D01*
X89325672Y-132530078D01*
X89206713Y-132708112D01*
X89124772Y-132905934D01*
X89083000Y-133115940D01*
X88717000Y-133115940D01*
X88675228Y-132905934D01*
X88593287Y-132708112D01*
X88474328Y-132530078D01*
X88322922Y-132378672D01*
X88144888Y-132259713D01*
X87947066Y-132177772D01*
X87737060Y-132136000D01*
X87522940Y-132136000D01*
X87312934Y-132177772D01*
X87115112Y-132259713D01*
X86937078Y-132378672D01*
X86785672Y-132530078D01*
X86666713Y-132708112D01*
X86584772Y-132905934D01*
X86543000Y-133115940D01*
X86177000Y-133115940D01*
X86135228Y-132905934D01*
X86053287Y-132708112D01*
X85934328Y-132530078D01*
X85782922Y-132378672D01*
X85604888Y-132259713D01*
X85407066Y-132177772D01*
X85197060Y-132136000D01*
X84982940Y-132136000D01*
X84772934Y-132177772D01*
X84575112Y-132259713D01*
X84397078Y-132378672D01*
X84245672Y-132530078D01*
X84126713Y-132708112D01*
X84044772Y-132905934D01*
X84003000Y-133115940D01*
X83481261Y-133115940D01*
X83475703Y-133051071D01*
X83424375Y-132873779D01*
X83339444Y-132709907D01*
X83326143Y-132690001D01*
X83202261Y-132606095D01*
X82585355Y-133223000D01*
X82514645Y-133223000D01*
X81897739Y-132606095D01*
X81773857Y-132690001D01*
X81684788Y-132851661D01*
X81628967Y-133027590D01*
X81608542Y-133211029D01*
X81097000Y-133211029D01*
X81097000Y-133115940D01*
X81055228Y-132905934D01*
X80973287Y-132708112D01*
X80881497Y-132570739D01*
X81933095Y-132570739D01*
X82550000Y-133187645D01*
X83166905Y-132570739D01*
X83082999Y-132446857D01*
X82921339Y-132357788D01*
X82745410Y-132301967D01*
X82561971Y-132281542D01*
X82378071Y-132297297D01*
X82200779Y-132348625D01*
X82036907Y-132433556D01*
X82017001Y-132446857D01*
X81933095Y-132570739D01*
X80881497Y-132570739D01*
X80854328Y-132530078D01*
X80702922Y-132378672D01*
X80524888Y-132259713D01*
X80327066Y-132177772D01*
X80117060Y-132136000D01*
X79902940Y-132136000D01*
X79692934Y-132177772D01*
X79495112Y-132259713D01*
X79317078Y-132378672D01*
X79165672Y-132530078D01*
X79046713Y-132708112D01*
X78964772Y-132905934D01*
X78923000Y-133115940D01*
X78557000Y-133115940D01*
X78515228Y-132905934D01*
X78433287Y-132708112D01*
X78314328Y-132530078D01*
X78162922Y-132378672D01*
X77984888Y-132259713D01*
X77787066Y-132177772D01*
X77577060Y-132136000D01*
X77362940Y-132136000D01*
X77152934Y-132177772D01*
X76955112Y-132259713D01*
X76777078Y-132378672D01*
X76625672Y-132530078D01*
X76506713Y-132708112D01*
X76424772Y-132905934D01*
X76383000Y-133115940D01*
X76018572Y-133115940D01*
X76018572Y-132461000D01*
X76012297Y-132397289D01*
X75993713Y-132336026D01*
X75963535Y-132279566D01*
X75922921Y-132230079D01*
X75873434Y-132189465D01*
X75816974Y-132159287D01*
X75755711Y-132140703D01*
X75692000Y-132134428D01*
X74168000Y-132134428D01*
X74104289Y-132140703D01*
X74043026Y-132159287D01*
X73986566Y-132189465D01*
X73937079Y-132230079D01*
X73896465Y-132279566D01*
X73866287Y-132336026D01*
X73847703Y-132397289D01*
X73841428Y-132461000D01*
X52830000Y-132461000D01*
X52830000Y-131496776D01*
X56603388Y-127723388D01*
X56618934Y-127704446D01*
X56630485Y-127682835D01*
X56637598Y-127659386D01*
X56640000Y-127635000D01*
X56640000Y-124460715D01*
X56699096Y-119459063D01*
X56967906Y-119638676D01*
X57210000Y-119738955D01*
X57210001Y-127396826D01*
X56359027Y-128247801D01*
X56318110Y-128255940D01*
X56195268Y-128306823D01*
X56084713Y-128380693D01*
X55990693Y-128474713D01*
X55916823Y-128585268D01*
X55865940Y-128708110D01*
X55840000Y-128838518D01*
X55840000Y-128971482D01*
X55865940Y-129101890D01*
X55916823Y-129224732D01*
X55990693Y-129335287D01*
X56084713Y-129429307D01*
X56195268Y-129503177D01*
X56318110Y-129554060D01*
X56448518Y-129580000D01*
X56581482Y-129580000D01*
X56711890Y-129554060D01*
X56834732Y-129503177D01*
X56945287Y-129429307D01*
X57039307Y-129335287D01*
X57113177Y-129224732D01*
X57164060Y-129101890D01*
X57172199Y-129060973D01*
X58171612Y-128061561D01*
X58193554Y-128043554D01*
X58227782Y-128001847D01*
X58265408Y-127955999D01*
X58318801Y-127856108D01*
X58326147Y-127831890D01*
X58351680Y-127747720D01*
X58360000Y-127663246D01*
X58360000Y-127663244D01*
X58362782Y-127635001D01*
X58360000Y-127606758D01*
X58360000Y-121223443D01*
X79385000Y-121223443D01*
X79385000Y-121346557D01*
X79409019Y-121467306D01*
X79456132Y-121581048D01*
X79524531Y-121683414D01*
X79560000Y-121718883D01*
X79560001Y-124661116D01*
X79524531Y-124696586D01*
X79456132Y-124798952D01*
X79409019Y-124912694D01*
X79385000Y-125033443D01*
X79385000Y-125156557D01*
X79409019Y-125277306D01*
X79456132Y-125391048D01*
X79524531Y-125493414D01*
X79611586Y-125580469D01*
X79713952Y-125648868D01*
X79827694Y-125695981D01*
X79948443Y-125720000D01*
X80071557Y-125720000D01*
X80192306Y-125695981D01*
X80306048Y-125648868D01*
X80408414Y-125580469D01*
X80495469Y-125493414D01*
X80563868Y-125391048D01*
X80610981Y-125277306D01*
X80635000Y-125156557D01*
X80635000Y-125033443D01*
X80610981Y-124912694D01*
X80563868Y-124798952D01*
X80495469Y-124696586D01*
X80460000Y-124661117D01*
X80460000Y-123763443D01*
X98435000Y-123763443D01*
X98435000Y-123886557D01*
X98459019Y-124007306D01*
X98506132Y-124121048D01*
X98574531Y-124223414D01*
X98610001Y-124258884D01*
X98610000Y-131519117D01*
X98574531Y-131554586D01*
X98506132Y-131656952D01*
X98459019Y-131770694D01*
X98435000Y-131891443D01*
X98435000Y-132014557D01*
X98459019Y-132135306D01*
X98506132Y-132249048D01*
X98574531Y-132351414D01*
X98661586Y-132438469D01*
X98763952Y-132506868D01*
X98877694Y-132553981D01*
X98998443Y-132578000D01*
X99121557Y-132578000D01*
X99242306Y-132553981D01*
X99356048Y-132506868D01*
X99458414Y-132438469D01*
X99545469Y-132351414D01*
X99613868Y-132249048D01*
X99660981Y-132135306D01*
X99685000Y-132014557D01*
X99685000Y-131891443D01*
X99660981Y-131770694D01*
X99613868Y-131656952D01*
X99545469Y-131554586D01*
X99510000Y-131519117D01*
X99510000Y-130748443D01*
X118120000Y-130748443D01*
X118120000Y-130871557D01*
X118144019Y-130992306D01*
X118191132Y-131106048D01*
X118259531Y-131208414D01*
X118346586Y-131295469D01*
X118448952Y-131363868D01*
X118562694Y-131410981D01*
X118683443Y-131435000D01*
X118806557Y-131435000D01*
X118927306Y-131410981D01*
X119041048Y-131363868D01*
X119143414Y-131295469D01*
X119230469Y-131208414D01*
X119298868Y-131106048D01*
X119345981Y-130992306D01*
X119370000Y-130871557D01*
X119370000Y-130748443D01*
X119345981Y-130627694D01*
X119298868Y-130513952D01*
X119230469Y-130411586D01*
X119195000Y-130376117D01*
X119195000Y-128843443D01*
X124470000Y-128843443D01*
X124470000Y-128966557D01*
X124494019Y-129087306D01*
X124541132Y-129201048D01*
X124609531Y-129303414D01*
X124645001Y-129338884D01*
X124645000Y-131011117D01*
X124609531Y-131046586D01*
X124541132Y-131148952D01*
X124494019Y-131262694D01*
X124470000Y-131383443D01*
X124470000Y-131506557D01*
X124494019Y-131627306D01*
X124541132Y-131741048D01*
X124609531Y-131843414D01*
X124696586Y-131930469D01*
X124798952Y-131998868D01*
X124912694Y-132045981D01*
X125033443Y-132070000D01*
X125156557Y-132070000D01*
X125277306Y-132045981D01*
X125391048Y-131998868D01*
X125493414Y-131930469D01*
X125580469Y-131843414D01*
X125648868Y-131741048D01*
X125695981Y-131627306D01*
X125720000Y-131506557D01*
X125720000Y-131383443D01*
X125695981Y-131262694D01*
X125648868Y-131148952D01*
X125580469Y-131046586D01*
X125545000Y-131011117D01*
X125545000Y-129338883D01*
X125580469Y-129303414D01*
X125648868Y-129201048D01*
X125695981Y-129087306D01*
X125720000Y-128966557D01*
X125720000Y-128916395D01*
X127302573Y-127333823D01*
X127319737Y-127319737D01*
X127333824Y-127302572D01*
X127333828Y-127302568D01*
X127375971Y-127251217D01*
X127417757Y-127173041D01*
X127417757Y-127173040D01*
X127443489Y-127088215D01*
X127450000Y-127022105D01*
X127450000Y-127022094D01*
X127452176Y-127000000D01*
X127450000Y-126977906D01*
X127450000Y-119459666D01*
X127464624Y-119449895D01*
X127704895Y-119209624D01*
X127893676Y-118927094D01*
X128023710Y-118613164D01*
X128090000Y-118279898D01*
X128090000Y-117940102D01*
X128023710Y-117606836D01*
X127893676Y-117292906D01*
X127704895Y-117010376D01*
X127464624Y-116770105D01*
X127182094Y-116581324D01*
X126868164Y-116451290D01*
X126534898Y-116385000D01*
X126195102Y-116385000D01*
X125861836Y-116451290D01*
X125547906Y-116581324D01*
X125265376Y-116770105D01*
X125025105Y-117010376D01*
X124836324Y-117292906D01*
X124706290Y-117606836D01*
X124640000Y-117940102D01*
X124640000Y-118279898D01*
X124706290Y-118613164D01*
X124836324Y-118927094D01*
X125025105Y-119209624D01*
X125265376Y-119449895D01*
X125547906Y-119638676D01*
X125861836Y-119768710D01*
X126195102Y-119835000D01*
X126534898Y-119835000D01*
X126550001Y-119831996D01*
X126550000Y-126813604D01*
X125083605Y-128280000D01*
X125033443Y-128280000D01*
X124912694Y-128304019D01*
X124798952Y-128351132D01*
X124696586Y-128419531D01*
X124609531Y-128506586D01*
X124541132Y-128608952D01*
X124494019Y-128722694D01*
X124470000Y-128843443D01*
X119195000Y-128843443D01*
X119195000Y-123123518D01*
X120610000Y-123123518D01*
X120610000Y-123256482D01*
X120635940Y-123386890D01*
X120686823Y-123509732D01*
X120710000Y-123544419D01*
X120710001Y-125701747D01*
X120707218Y-125730000D01*
X120718321Y-125842719D01*
X120751199Y-125951107D01*
X120804592Y-126050998D01*
X120850441Y-126106865D01*
X120876447Y-126138554D01*
X120898389Y-126156561D01*
X121493439Y-126751612D01*
X121511446Y-126773554D01*
X121599002Y-126845408D01*
X121698892Y-126898801D01*
X121807280Y-126931680D01*
X121891754Y-126940000D01*
X121891757Y-126940000D01*
X121920000Y-126942782D01*
X121948243Y-126940000D01*
X124221828Y-126940000D01*
X124437801Y-127155974D01*
X124445940Y-127196890D01*
X124496823Y-127319732D01*
X124570693Y-127430287D01*
X124664713Y-127524307D01*
X124775268Y-127598177D01*
X124898110Y-127649060D01*
X125028518Y-127675000D01*
X125161482Y-127675000D01*
X125291890Y-127649060D01*
X125414732Y-127598177D01*
X125525287Y-127524307D01*
X125619307Y-127430287D01*
X125693177Y-127319732D01*
X125744060Y-127196890D01*
X125770000Y-127066482D01*
X125770000Y-126933518D01*
X125744060Y-126803110D01*
X125693177Y-126680268D01*
X125619307Y-126569713D01*
X125525287Y-126475693D01*
X125414732Y-126401823D01*
X125291890Y-126350940D01*
X125250974Y-126342801D01*
X124886565Y-125978393D01*
X124868554Y-125956446D01*
X124780998Y-125884592D01*
X124681108Y-125831199D01*
X124572720Y-125798320D01*
X124488246Y-125790000D01*
X124488243Y-125790000D01*
X124460000Y-125787218D01*
X124431757Y-125790000D01*
X122158173Y-125790000D01*
X121860000Y-125491828D01*
X121860000Y-123544419D01*
X121883177Y-123509732D01*
X121934060Y-123386890D01*
X121960000Y-123256482D01*
X121960000Y-123123518D01*
X121934060Y-122993110D01*
X121883177Y-122870268D01*
X121809307Y-122759713D01*
X121715287Y-122665693D01*
X121604732Y-122591823D01*
X121481890Y-122540940D01*
X121351482Y-122515000D01*
X121218518Y-122515000D01*
X121088110Y-122540940D01*
X120965268Y-122591823D01*
X120854713Y-122665693D01*
X120760693Y-122759713D01*
X120686823Y-122870268D01*
X120635940Y-122993110D01*
X120610000Y-123123518D01*
X119195000Y-123123518D01*
X119195000Y-120836395D01*
X120422835Y-119608560D01*
X120467906Y-119638676D01*
X120781836Y-119768710D01*
X121115102Y-119835000D01*
X121454898Y-119835000D01*
X121788164Y-119768710D01*
X122102094Y-119638676D01*
X122384624Y-119449895D01*
X122624895Y-119209624D01*
X122813676Y-118927094D01*
X122943710Y-118613164D01*
X123010000Y-118279898D01*
X123010000Y-117940102D01*
X122943710Y-117606836D01*
X122813676Y-117292906D01*
X122624895Y-117010376D01*
X122384624Y-116770105D01*
X122102094Y-116581324D01*
X121788164Y-116451290D01*
X121454898Y-116385000D01*
X121115102Y-116385000D01*
X120781836Y-116451290D01*
X120467906Y-116581324D01*
X120185376Y-116770105D01*
X119945105Y-117010376D01*
X119756324Y-117292906D01*
X119626290Y-117606836D01*
X119560000Y-117940102D01*
X119560000Y-118279898D01*
X119626290Y-118613164D01*
X119756324Y-118927094D01*
X119786440Y-118972165D01*
X118442434Y-120316171D01*
X118425263Y-120330263D01*
X118411172Y-120347433D01*
X118369029Y-120398784D01*
X118327244Y-120476959D01*
X118327243Y-120476960D01*
X118301511Y-120561786D01*
X118295000Y-120627896D01*
X118295000Y-120627906D01*
X118292824Y-120650000D01*
X118295000Y-120672094D01*
X118295001Y-130376116D01*
X118259531Y-130411586D01*
X118191132Y-130513952D01*
X118144019Y-130627694D01*
X118120000Y-130748443D01*
X99510000Y-130748443D01*
X99510000Y-124258883D01*
X99545469Y-124223414D01*
X99613868Y-124121048D01*
X99660981Y-124007306D01*
X99685000Y-123886557D01*
X99685000Y-123763443D01*
X99660981Y-123642694D01*
X99613868Y-123528952D01*
X99545469Y-123426586D01*
X99458414Y-123339531D01*
X99356048Y-123271132D01*
X99242306Y-123224019D01*
X99121557Y-123200000D01*
X98998443Y-123200000D01*
X98877694Y-123224019D01*
X98763952Y-123271132D01*
X98661586Y-123339531D01*
X98574531Y-123426586D01*
X98506132Y-123528952D01*
X98459019Y-123642694D01*
X98435000Y-123763443D01*
X80460000Y-123763443D01*
X80460000Y-121718883D01*
X80495469Y-121683414D01*
X80563868Y-121581048D01*
X80610981Y-121467306D01*
X80635000Y-121346557D01*
X80635000Y-121223443D01*
X80610981Y-121102694D01*
X80563868Y-120988952D01*
X80495469Y-120886586D01*
X80408414Y-120799531D01*
X80306048Y-120731132D01*
X80192306Y-120684019D01*
X80071557Y-120660000D01*
X79948443Y-120660000D01*
X79827694Y-120684019D01*
X79713952Y-120731132D01*
X79611586Y-120799531D01*
X79524531Y-120886586D01*
X79456132Y-120988952D01*
X79409019Y-121102694D01*
X79385000Y-121223443D01*
X58360000Y-121223443D01*
X58360000Y-119738955D01*
X58602094Y-119638676D01*
X58884624Y-119449895D01*
X59118839Y-119215680D01*
X62429675Y-119215680D01*
X62590100Y-119404903D01*
X62860206Y-119557535D01*
X63154900Y-119654538D01*
X63462855Y-119692186D01*
X63772238Y-119669031D01*
X64071159Y-119585963D01*
X64348130Y-119446175D01*
X64409900Y-119404903D01*
X64570325Y-119215680D01*
X63500000Y-118145355D01*
X62429675Y-119215680D01*
X59118839Y-119215680D01*
X59124895Y-119209624D01*
X59313676Y-118927094D01*
X59443710Y-118613164D01*
X59510000Y-118279898D01*
X59510000Y-118072855D01*
X61917814Y-118072855D01*
X61940969Y-118382238D01*
X62024037Y-118681159D01*
X62163825Y-118958130D01*
X62205097Y-119019900D01*
X62394320Y-119180325D01*
X63464645Y-118110000D01*
X63535355Y-118110000D01*
X64605680Y-119180325D01*
X64794903Y-119019900D01*
X64947535Y-118749794D01*
X65044538Y-118455100D01*
X65082186Y-118147145D01*
X65061889Y-117875940D01*
X73843000Y-117875940D01*
X73843000Y-118090060D01*
X73884772Y-118300066D01*
X73966713Y-118497888D01*
X74085672Y-118675922D01*
X74237078Y-118827328D01*
X74415112Y-118946287D01*
X74612934Y-119028228D01*
X74822940Y-119070000D01*
X75037060Y-119070000D01*
X75247066Y-119028228D01*
X75444888Y-118946287D01*
X75622922Y-118827328D01*
X75774328Y-118675922D01*
X75801496Y-118635261D01*
X76853095Y-118635261D01*
X76937001Y-118759143D01*
X77098661Y-118848212D01*
X77274590Y-118904033D01*
X77458029Y-118924458D01*
X77641929Y-118908703D01*
X77819221Y-118857375D01*
X77983093Y-118772444D01*
X78002999Y-118759143D01*
X78086905Y-118635261D01*
X77470000Y-118018355D01*
X76853095Y-118635261D01*
X75801496Y-118635261D01*
X75893287Y-118497888D01*
X75975228Y-118300066D01*
X76017000Y-118090060D01*
X76017000Y-117971029D01*
X76528542Y-117971029D01*
X76544297Y-118154929D01*
X76595625Y-118332221D01*
X76680556Y-118496093D01*
X76693857Y-118515999D01*
X76817739Y-118599905D01*
X77434645Y-117983000D01*
X77505355Y-117983000D01*
X78122261Y-118599905D01*
X78246143Y-118515999D01*
X78335212Y-118354339D01*
X78391033Y-118178410D01*
X78411458Y-117994971D01*
X78401261Y-117875940D01*
X78923000Y-117875940D01*
X78923000Y-118090060D01*
X78964772Y-118300066D01*
X79046713Y-118497888D01*
X79165672Y-118675922D01*
X79317078Y-118827328D01*
X79495112Y-118946287D01*
X79692934Y-119028228D01*
X79902940Y-119070000D01*
X80117060Y-119070000D01*
X80327066Y-119028228D01*
X80524888Y-118946287D01*
X80702922Y-118827328D01*
X80854328Y-118675922D01*
X80973287Y-118497888D01*
X81055228Y-118300066D01*
X81097000Y-118090060D01*
X81097000Y-117875940D01*
X81463000Y-117875940D01*
X81463000Y-118090060D01*
X81504772Y-118300066D01*
X81586713Y-118497888D01*
X81705672Y-118675922D01*
X81857078Y-118827328D01*
X82035112Y-118946287D01*
X82232934Y-119028228D01*
X82442940Y-119070000D01*
X82657060Y-119070000D01*
X82867066Y-119028228D01*
X83064888Y-118946287D01*
X83242922Y-118827328D01*
X83394328Y-118675922D01*
X83513287Y-118497888D01*
X83595228Y-118300066D01*
X83637000Y-118090060D01*
X83637000Y-117875940D01*
X84003000Y-117875940D01*
X84003000Y-118090060D01*
X84044772Y-118300066D01*
X84126713Y-118497888D01*
X84245672Y-118675922D01*
X84397078Y-118827328D01*
X84575112Y-118946287D01*
X84772934Y-119028228D01*
X84982940Y-119070000D01*
X85197060Y-119070000D01*
X85407066Y-119028228D01*
X85604888Y-118946287D01*
X85782922Y-118827328D01*
X85934328Y-118675922D01*
X86053287Y-118497888D01*
X86135228Y-118300066D01*
X86177000Y-118090060D01*
X86177000Y-117875940D01*
X86543000Y-117875940D01*
X86543000Y-118090060D01*
X86584772Y-118300066D01*
X86666713Y-118497888D01*
X86785672Y-118675922D01*
X86937078Y-118827328D01*
X87115112Y-118946287D01*
X87312934Y-119028228D01*
X87522940Y-119070000D01*
X87737060Y-119070000D01*
X87947066Y-119028228D01*
X88144888Y-118946287D01*
X88322922Y-118827328D01*
X88474328Y-118675922D01*
X88593287Y-118497888D01*
X88675228Y-118300066D01*
X88717000Y-118090060D01*
X88717000Y-117875940D01*
X89083000Y-117875940D01*
X89083000Y-118090060D01*
X89124772Y-118300066D01*
X89206713Y-118497888D01*
X89325672Y-118675922D01*
X89477078Y-118827328D01*
X89655112Y-118946287D01*
X89852934Y-119028228D01*
X90062940Y-119070000D01*
X90277060Y-119070000D01*
X90487066Y-119028228D01*
X90684888Y-118946287D01*
X90862922Y-118827328D01*
X91014328Y-118675922D01*
X91133287Y-118497888D01*
X91215228Y-118300066D01*
X91257000Y-118090060D01*
X91257000Y-117875940D01*
X91623000Y-117875940D01*
X91623000Y-118090060D01*
X91664772Y-118300066D01*
X91746713Y-118497888D01*
X91865672Y-118675922D01*
X92017078Y-118827328D01*
X92195112Y-118946287D01*
X92392934Y-119028228D01*
X92602940Y-119070000D01*
X92817060Y-119070000D01*
X93027066Y-119028228D01*
X93224888Y-118946287D01*
X93402922Y-118827328D01*
X93554328Y-118675922D01*
X93673287Y-118497888D01*
X93755228Y-118300066D01*
X93797000Y-118090060D01*
X93797000Y-117875940D01*
X94163000Y-117875940D01*
X94163000Y-118090060D01*
X94204772Y-118300066D01*
X94286713Y-118497888D01*
X94405672Y-118675922D01*
X94557078Y-118827328D01*
X94735112Y-118946287D01*
X94932934Y-119028228D01*
X95142940Y-119070000D01*
X95357060Y-119070000D01*
X95567066Y-119028228D01*
X95764888Y-118946287D01*
X95942922Y-118827328D01*
X96094328Y-118675922D01*
X96213287Y-118497888D01*
X96295228Y-118300066D01*
X96337000Y-118090060D01*
X96337000Y-117875940D01*
X96703000Y-117875940D01*
X96703000Y-118090060D01*
X96744772Y-118300066D01*
X96826713Y-118497888D01*
X96945672Y-118675922D01*
X97097078Y-118827328D01*
X97275112Y-118946287D01*
X97472934Y-119028228D01*
X97682940Y-119070000D01*
X97897060Y-119070000D01*
X98107066Y-119028228D01*
X98304888Y-118946287D01*
X98482922Y-118827328D01*
X98634328Y-118675922D01*
X98753287Y-118497888D01*
X98835228Y-118300066D01*
X98877000Y-118090060D01*
X98877000Y-117875940D01*
X99243000Y-117875940D01*
X99243000Y-118090060D01*
X99284772Y-118300066D01*
X99366713Y-118497888D01*
X99485672Y-118675922D01*
X99637078Y-118827328D01*
X99815112Y-118946287D01*
X100012934Y-119028228D01*
X100222940Y-119070000D01*
X100437060Y-119070000D01*
X100647066Y-119028228D01*
X100844888Y-118946287D01*
X101022922Y-118827328D01*
X101174328Y-118675922D01*
X101293287Y-118497888D01*
X101375228Y-118300066D01*
X101417000Y-118090060D01*
X101417000Y-117875940D01*
X101783000Y-117875940D01*
X101783000Y-118090060D01*
X101824772Y-118300066D01*
X101906713Y-118497888D01*
X102025672Y-118675922D01*
X102177078Y-118827328D01*
X102355112Y-118946287D01*
X102552934Y-119028228D01*
X102762940Y-119070000D01*
X102977060Y-119070000D01*
X103187066Y-119028228D01*
X103384888Y-118946287D01*
X103562922Y-118827328D01*
X103714328Y-118675922D01*
X103833287Y-118497888D01*
X103915228Y-118300066D01*
X103957000Y-118090060D01*
X103957000Y-117875940D01*
X104323000Y-117875940D01*
X104323000Y-118090060D01*
X104364772Y-118300066D01*
X104446713Y-118497888D01*
X104565672Y-118675922D01*
X104717078Y-118827328D01*
X104895112Y-118946287D01*
X105092934Y-119028228D01*
X105302940Y-119070000D01*
X105517060Y-119070000D01*
X105727066Y-119028228D01*
X105924888Y-118946287D01*
X106102922Y-118827328D01*
X106254328Y-118675922D01*
X106373287Y-118497888D01*
X106455228Y-118300066D01*
X106497000Y-118090060D01*
X106497000Y-117875940D01*
X106863000Y-117875940D01*
X106863000Y-118090060D01*
X106904772Y-118300066D01*
X106986713Y-118497888D01*
X107105672Y-118675922D01*
X107257078Y-118827328D01*
X107435112Y-118946287D01*
X107632934Y-119028228D01*
X107842940Y-119070000D01*
X108057060Y-119070000D01*
X108267066Y-119028228D01*
X108464888Y-118946287D01*
X108642922Y-118827328D01*
X108794328Y-118675922D01*
X108913287Y-118497888D01*
X108995228Y-118300066D01*
X109037000Y-118090060D01*
X109037000Y-117875940D01*
X109403000Y-117875940D01*
X109403000Y-118090060D01*
X109444772Y-118300066D01*
X109526713Y-118497888D01*
X109645672Y-118675922D01*
X109797078Y-118827328D01*
X109975112Y-118946287D01*
X110172934Y-119028228D01*
X110382940Y-119070000D01*
X110597060Y-119070000D01*
X110807066Y-119028228D01*
X111004888Y-118946287D01*
X111182922Y-118827328D01*
X111334328Y-118675922D01*
X111453287Y-118497888D01*
X111535228Y-118300066D01*
X111577000Y-118090060D01*
X111577000Y-117875940D01*
X111535228Y-117665934D01*
X111453287Y-117468112D01*
X111334328Y-117290078D01*
X111182922Y-117138672D01*
X111004888Y-117019713D01*
X110807066Y-116937772D01*
X110597060Y-116896000D01*
X110382940Y-116896000D01*
X110172934Y-116937772D01*
X109975112Y-117019713D01*
X109797078Y-117138672D01*
X109645672Y-117290078D01*
X109526713Y-117468112D01*
X109444772Y-117665934D01*
X109403000Y-117875940D01*
X109037000Y-117875940D01*
X108995228Y-117665934D01*
X108913287Y-117468112D01*
X108794328Y-117290078D01*
X108642922Y-117138672D01*
X108464888Y-117019713D01*
X108267066Y-116937772D01*
X108057060Y-116896000D01*
X107842940Y-116896000D01*
X107632934Y-116937772D01*
X107435112Y-117019713D01*
X107257078Y-117138672D01*
X107105672Y-117290078D01*
X106986713Y-117468112D01*
X106904772Y-117665934D01*
X106863000Y-117875940D01*
X106497000Y-117875940D01*
X106455228Y-117665934D01*
X106373287Y-117468112D01*
X106254328Y-117290078D01*
X106102922Y-117138672D01*
X105924888Y-117019713D01*
X105727066Y-116937772D01*
X105517060Y-116896000D01*
X105302940Y-116896000D01*
X105092934Y-116937772D01*
X104895112Y-117019713D01*
X104717078Y-117138672D01*
X104565672Y-117290078D01*
X104446713Y-117468112D01*
X104364772Y-117665934D01*
X104323000Y-117875940D01*
X103957000Y-117875940D01*
X103915228Y-117665934D01*
X103833287Y-117468112D01*
X103714328Y-117290078D01*
X103562922Y-117138672D01*
X103384888Y-117019713D01*
X103187066Y-116937772D01*
X102977060Y-116896000D01*
X102762940Y-116896000D01*
X102552934Y-116937772D01*
X102355112Y-117019713D01*
X102177078Y-117138672D01*
X102025672Y-117290078D01*
X101906713Y-117468112D01*
X101824772Y-117665934D01*
X101783000Y-117875940D01*
X101417000Y-117875940D01*
X101375228Y-117665934D01*
X101293287Y-117468112D01*
X101174328Y-117290078D01*
X101022922Y-117138672D01*
X100844888Y-117019713D01*
X100647066Y-116937772D01*
X100437060Y-116896000D01*
X100222940Y-116896000D01*
X100012934Y-116937772D01*
X99815112Y-117019713D01*
X99637078Y-117138672D01*
X99485672Y-117290078D01*
X99366713Y-117468112D01*
X99284772Y-117665934D01*
X99243000Y-117875940D01*
X98877000Y-117875940D01*
X98835228Y-117665934D01*
X98753287Y-117468112D01*
X98634328Y-117290078D01*
X98482922Y-117138672D01*
X98304888Y-117019713D01*
X98107066Y-116937772D01*
X97897060Y-116896000D01*
X97682940Y-116896000D01*
X97472934Y-116937772D01*
X97275112Y-117019713D01*
X97097078Y-117138672D01*
X96945672Y-117290078D01*
X96826713Y-117468112D01*
X96744772Y-117665934D01*
X96703000Y-117875940D01*
X96337000Y-117875940D01*
X96295228Y-117665934D01*
X96213287Y-117468112D01*
X96094328Y-117290078D01*
X95942922Y-117138672D01*
X95764888Y-117019713D01*
X95567066Y-116937772D01*
X95357060Y-116896000D01*
X95142940Y-116896000D01*
X94932934Y-116937772D01*
X94735112Y-117019713D01*
X94557078Y-117138672D01*
X94405672Y-117290078D01*
X94286713Y-117468112D01*
X94204772Y-117665934D01*
X94163000Y-117875940D01*
X93797000Y-117875940D01*
X93755228Y-117665934D01*
X93673287Y-117468112D01*
X93554328Y-117290078D01*
X93402922Y-117138672D01*
X93224888Y-117019713D01*
X93027066Y-116937772D01*
X92817060Y-116896000D01*
X92602940Y-116896000D01*
X92392934Y-116937772D01*
X92195112Y-117019713D01*
X92017078Y-117138672D01*
X91865672Y-117290078D01*
X91746713Y-117468112D01*
X91664772Y-117665934D01*
X91623000Y-117875940D01*
X91257000Y-117875940D01*
X91215228Y-117665934D01*
X91133287Y-117468112D01*
X91014328Y-117290078D01*
X90862922Y-117138672D01*
X90684888Y-117019713D01*
X90487066Y-116937772D01*
X90277060Y-116896000D01*
X90062940Y-116896000D01*
X89852934Y-116937772D01*
X89655112Y-117019713D01*
X89477078Y-117138672D01*
X89325672Y-117290078D01*
X89206713Y-117468112D01*
X89124772Y-117665934D01*
X89083000Y-117875940D01*
X88717000Y-117875940D01*
X88675228Y-117665934D01*
X88593287Y-117468112D01*
X88474328Y-117290078D01*
X88322922Y-117138672D01*
X88144888Y-117019713D01*
X87947066Y-116937772D01*
X87737060Y-116896000D01*
X87522940Y-116896000D01*
X87312934Y-116937772D01*
X87115112Y-117019713D01*
X86937078Y-117138672D01*
X86785672Y-117290078D01*
X86666713Y-117468112D01*
X86584772Y-117665934D01*
X86543000Y-117875940D01*
X86177000Y-117875940D01*
X86135228Y-117665934D01*
X86053287Y-117468112D01*
X85934328Y-117290078D01*
X85782922Y-117138672D01*
X85604888Y-117019713D01*
X85407066Y-116937772D01*
X85197060Y-116896000D01*
X84982940Y-116896000D01*
X84772934Y-116937772D01*
X84575112Y-117019713D01*
X84397078Y-117138672D01*
X84245672Y-117290078D01*
X84126713Y-117468112D01*
X84044772Y-117665934D01*
X84003000Y-117875940D01*
X83637000Y-117875940D01*
X83595228Y-117665934D01*
X83513287Y-117468112D01*
X83394328Y-117290078D01*
X83242922Y-117138672D01*
X83064888Y-117019713D01*
X82867066Y-116937772D01*
X82657060Y-116896000D01*
X82442940Y-116896000D01*
X82232934Y-116937772D01*
X82035112Y-117019713D01*
X81857078Y-117138672D01*
X81705672Y-117290078D01*
X81586713Y-117468112D01*
X81504772Y-117665934D01*
X81463000Y-117875940D01*
X81097000Y-117875940D01*
X81055228Y-117665934D01*
X80973287Y-117468112D01*
X80854328Y-117290078D01*
X80702922Y-117138672D01*
X80524888Y-117019713D01*
X80327066Y-116937772D01*
X80117060Y-116896000D01*
X79902940Y-116896000D01*
X79692934Y-116937772D01*
X79495112Y-117019713D01*
X79317078Y-117138672D01*
X79165672Y-117290078D01*
X79046713Y-117468112D01*
X78964772Y-117665934D01*
X78923000Y-117875940D01*
X78401261Y-117875940D01*
X78395703Y-117811071D01*
X78344375Y-117633779D01*
X78259444Y-117469907D01*
X78246143Y-117450001D01*
X78122261Y-117366095D01*
X77505355Y-117983000D01*
X77434645Y-117983000D01*
X76817739Y-117366095D01*
X76693857Y-117450001D01*
X76604788Y-117611661D01*
X76548967Y-117787590D01*
X76528542Y-117971029D01*
X76017000Y-117971029D01*
X76017000Y-117875940D01*
X75975228Y-117665934D01*
X75893287Y-117468112D01*
X75801497Y-117330739D01*
X76853095Y-117330739D01*
X77470000Y-117947645D01*
X78086905Y-117330739D01*
X78002999Y-117206857D01*
X77841339Y-117117788D01*
X77665410Y-117061967D01*
X77481971Y-117041542D01*
X77298071Y-117057297D01*
X77120779Y-117108625D01*
X76956907Y-117193556D01*
X76937001Y-117206857D01*
X76853095Y-117330739D01*
X75801497Y-117330739D01*
X75774328Y-117290078D01*
X75622922Y-117138672D01*
X75444888Y-117019713D01*
X75247066Y-116937772D01*
X75037060Y-116896000D01*
X74822940Y-116896000D01*
X74612934Y-116937772D01*
X74415112Y-117019713D01*
X74237078Y-117138672D01*
X74085672Y-117290078D01*
X73966713Y-117468112D01*
X73884772Y-117665934D01*
X73843000Y-117875940D01*
X65061889Y-117875940D01*
X65059031Y-117837762D01*
X64975963Y-117538841D01*
X64836175Y-117261870D01*
X64794903Y-117200100D01*
X64605680Y-117039675D01*
X63535355Y-118110000D01*
X63464645Y-118110000D01*
X62394320Y-117039675D01*
X62205097Y-117200100D01*
X62052465Y-117470206D01*
X61955462Y-117764900D01*
X61917814Y-118072855D01*
X59510000Y-118072855D01*
X59510000Y-117940102D01*
X59443710Y-117606836D01*
X59313676Y-117292906D01*
X59124895Y-117010376D01*
X59118839Y-117004320D01*
X62429675Y-117004320D01*
X63500000Y-118074645D01*
X64570325Y-117004320D01*
X64409900Y-116815097D01*
X64139794Y-116662465D01*
X63845100Y-116565462D01*
X63537145Y-116527814D01*
X63227762Y-116550969D01*
X62928841Y-116634037D01*
X62651870Y-116773825D01*
X62590100Y-116815097D01*
X62429675Y-117004320D01*
X59118839Y-117004320D01*
X58884624Y-116770105D01*
X58602094Y-116581324D01*
X58288164Y-116451290D01*
X57954898Y-116385000D01*
X57615102Y-116385000D01*
X57281836Y-116451290D01*
X56967906Y-116581324D01*
X56731229Y-116739467D01*
X56769032Y-113540000D01*
X115380000Y-113540000D01*
X115380001Y-127675521D01*
G37*
X115380001Y-127675521D02*
X115391939Y-127796728D01*
X115439113Y-127952241D01*
X115515720Y-128095563D01*
X115618816Y-128221185D01*
X115744438Y-128324281D01*
X115887760Y-128400888D01*
X116043273Y-128448062D01*
X116205000Y-128463991D01*
X116366728Y-128448062D01*
X116522241Y-128400888D01*
X116665563Y-128324281D01*
X116791185Y-128221185D01*
X116894281Y-128095563D01*
X116970888Y-127952241D01*
X117018062Y-127796728D01*
X117030000Y-127675521D01*
X117030000Y-113540000D01*
X128529009Y-113540000D01*
X128399489Y-146560000D01*
X52830000Y-146560000D01*
X52830000Y-145199000D01*
X86654153Y-145199000D01*
X86657532Y-145233306D01*
X86667539Y-145266294D01*
X86683789Y-145296695D01*
X86705657Y-145323343D01*
X86732305Y-145345211D01*
X86762706Y-145361461D01*
X86795694Y-145371468D01*
X86830000Y-145374847D01*
X87561250Y-145374000D01*
X87605000Y-145330250D01*
X87605000Y-144424000D01*
X87655000Y-144424000D01*
X87655000Y-145330250D01*
X87698750Y-145374000D01*
X88430000Y-145374847D01*
X88464306Y-145371468D01*
X88497294Y-145361461D01*
X88527695Y-145345211D01*
X88554343Y-145323343D01*
X88576211Y-145296695D01*
X88592461Y-145266294D01*
X88602468Y-145233306D01*
X88605847Y-145199000D01*
X88605126Y-144576166D01*
X89211230Y-144576166D01*
X89264216Y-144759809D01*
X89352011Y-144929586D01*
X89471241Y-145078973D01*
X89617324Y-145202229D01*
X89784646Y-145294617D01*
X89966777Y-145352587D01*
X89992834Y-145357768D01*
X90145000Y-145329914D01*
X90145000Y-144424000D01*
X90195000Y-144424000D01*
X90195000Y-145329914D01*
X90347166Y-145357768D01*
X90373223Y-145352587D01*
X90555354Y-145294617D01*
X90722676Y-145202229D01*
X90868759Y-145078973D01*
X90987989Y-144929586D01*
X91075784Y-144759809D01*
X91128770Y-144576166D01*
X91751230Y-144576166D01*
X91804216Y-144759809D01*
X91892011Y-144929586D01*
X92011241Y-145078973D01*
X92157324Y-145202229D01*
X92324646Y-145294617D01*
X92506777Y-145352587D01*
X92532834Y-145357768D01*
X92685000Y-145329914D01*
X92685000Y-144424000D01*
X92735000Y-144424000D01*
X92735000Y-145329914D01*
X92887166Y-145357768D01*
X92913223Y-145352587D01*
X93095354Y-145294617D01*
X93262676Y-145202229D01*
X93408759Y-145078973D01*
X93527989Y-144929586D01*
X93615784Y-144759809D01*
X93668770Y-144576166D01*
X94291230Y-144576166D01*
X94344216Y-144759809D01*
X94432011Y-144929586D01*
X94551241Y-145078973D01*
X94697324Y-145202229D01*
X94864646Y-145294617D01*
X95046777Y-145352587D01*
X95072834Y-145357768D01*
X95225000Y-145329914D01*
X95225000Y-144424000D01*
X95275000Y-144424000D01*
X95275000Y-145329914D01*
X95427166Y-145357768D01*
X95453223Y-145352587D01*
X95635354Y-145294617D01*
X95802676Y-145202229D01*
X95948759Y-145078973D01*
X96067989Y-144929586D01*
X96155784Y-144759809D01*
X96208770Y-144576166D01*
X96180931Y-144424000D01*
X95275000Y-144424000D01*
X95225000Y-144424000D01*
X94319069Y-144424000D01*
X94291230Y-144576166D01*
X93668770Y-144576166D01*
X93640931Y-144424000D01*
X92735000Y-144424000D01*
X92685000Y-144424000D01*
X91779069Y-144424000D01*
X91751230Y-144576166D01*
X91128770Y-144576166D01*
X91100931Y-144424000D01*
X90195000Y-144424000D01*
X90145000Y-144424000D01*
X89239069Y-144424000D01*
X89211230Y-144576166D01*
X88605126Y-144576166D01*
X88605000Y-144467750D01*
X88561250Y-144424000D01*
X87655000Y-144424000D01*
X87605000Y-144424000D01*
X86698750Y-144424000D01*
X86655000Y-144467750D01*
X86654153Y-145199000D01*
X52830000Y-145199000D01*
X52830000Y-144331418D01*
X70333938Y-144331418D01*
X70446392Y-144479675D01*
X70648510Y-144592457D01*
X70868746Y-144663641D01*
X71098638Y-144690491D01*
X71329350Y-144671976D01*
X71552017Y-144608806D01*
X71758083Y-144503411D01*
X71793608Y-144479675D01*
X71906062Y-144331418D01*
X71120000Y-143545355D01*
X70333938Y-144331418D01*
X52830000Y-144331418D01*
X52830000Y-143488638D01*
X69939509Y-143488638D01*
X69958024Y-143719350D01*
X70021194Y-143942017D01*
X70126589Y-144148083D01*
X70150325Y-144183608D01*
X70298582Y-144296062D01*
X71084645Y-143510000D01*
X71155355Y-143510000D01*
X71941418Y-144296062D01*
X72089675Y-144183608D01*
X72202457Y-143981490D01*
X72273641Y-143761254D01*
X72300491Y-143531362D01*
X72288304Y-143379499D01*
X74295000Y-143379499D01*
X74295000Y-143640501D01*
X74345919Y-143896488D01*
X74445800Y-144137623D01*
X74590805Y-144354638D01*
X74775362Y-144539195D01*
X74992377Y-144684200D01*
X75233512Y-144784081D01*
X75489499Y-144835000D01*
X75750501Y-144835000D01*
X76006488Y-144784081D01*
X76247623Y-144684200D01*
X76464638Y-144539195D01*
X76649195Y-144354638D01*
X76794200Y-144137623D01*
X76894081Y-143896488D01*
X76945000Y-143640501D01*
X76945000Y-143599000D01*
X86654153Y-143599000D01*
X86655000Y-144330250D01*
X86698750Y-144374000D01*
X87605000Y-144374000D01*
X87605000Y-143467750D01*
X87655000Y-143467750D01*
X87655000Y-144374000D01*
X88561250Y-144374000D01*
X88605000Y-144330250D01*
X88605125Y-144221834D01*
X89211230Y-144221834D01*
X89239069Y-144374000D01*
X90145000Y-144374000D01*
X90145000Y-143468086D01*
X90195000Y-143468086D01*
X90195000Y-144374000D01*
X91100931Y-144374000D01*
X91128770Y-144221834D01*
X91751230Y-144221834D01*
X91779069Y-144374000D01*
X92685000Y-144374000D01*
X92685000Y-143468086D01*
X92735000Y-143468086D01*
X92735000Y-144374000D01*
X93640931Y-144374000D01*
X93668770Y-144221834D01*
X94291230Y-144221834D01*
X94319069Y-144374000D01*
X95225000Y-144374000D01*
X95225000Y-143468086D01*
X95275000Y-143468086D01*
X95275000Y-144374000D01*
X96180931Y-144374000D01*
X96208770Y-144221834D01*
X96155784Y-144038191D01*
X96067989Y-143868414D01*
X95948759Y-143719027D01*
X95802676Y-143595771D01*
X95635354Y-143503383D01*
X95453223Y-143445413D01*
X95427166Y-143440232D01*
X95275000Y-143468086D01*
X95225000Y-143468086D01*
X95072834Y-143440232D01*
X95046777Y-143445413D01*
X94864646Y-143503383D01*
X94697324Y-143595771D01*
X94551241Y-143719027D01*
X94432011Y-143868414D01*
X94344216Y-144038191D01*
X94291230Y-144221834D01*
X93668770Y-144221834D01*
X93615784Y-144038191D01*
X93527989Y-143868414D01*
X93408759Y-143719027D01*
X93262676Y-143595771D01*
X93095354Y-143503383D01*
X92913223Y-143445413D01*
X92887166Y-143440232D01*
X92735000Y-143468086D01*
X92685000Y-143468086D01*
X92532834Y-143440232D01*
X92506777Y-143445413D01*
X92324646Y-143503383D01*
X92157324Y-143595771D01*
X92011241Y-143719027D01*
X91892011Y-143868414D01*
X91804216Y-144038191D01*
X91751230Y-144221834D01*
X91128770Y-144221834D01*
X91075784Y-144038191D01*
X90987989Y-143868414D01*
X90868759Y-143719027D01*
X90722676Y-143595771D01*
X90555354Y-143503383D01*
X90373223Y-143445413D01*
X90347166Y-143440232D01*
X90195000Y-143468086D01*
X90145000Y-143468086D01*
X89992834Y-143440232D01*
X89966777Y-143445413D01*
X89784646Y-143503383D01*
X89617324Y-143595771D01*
X89471241Y-143719027D01*
X89352011Y-143868414D01*
X89264216Y-144038191D01*
X89211230Y-144221834D01*
X88605125Y-144221834D01*
X88605847Y-143599000D01*
X88602468Y-143564694D01*
X88592461Y-143531706D01*
X88576211Y-143501305D01*
X88554343Y-143474657D01*
X88527695Y-143452789D01*
X88497294Y-143436539D01*
X88464306Y-143426532D01*
X88430000Y-143423153D01*
X87698750Y-143424000D01*
X87655000Y-143467750D01*
X87605000Y-143467750D01*
X87561250Y-143424000D01*
X86830000Y-143423153D01*
X86795694Y-143426532D01*
X86762706Y-143436539D01*
X86732305Y-143452789D01*
X86705657Y-143474657D01*
X86683789Y-143501305D01*
X86667539Y-143531706D01*
X86657532Y-143564694D01*
X86654153Y-143599000D01*
X76945000Y-143599000D01*
X76945000Y-143379499D01*
X76894081Y-143123512D01*
X76794200Y-142882377D01*
X76649195Y-142665362D01*
X76464638Y-142480805D01*
X76247623Y-142335800D01*
X76006488Y-142235919D01*
X75750501Y-142185000D01*
X75489499Y-142185000D01*
X75233512Y-142235919D01*
X74992377Y-142335800D01*
X74775362Y-142480805D01*
X74590805Y-142665362D01*
X74445800Y-142882377D01*
X74345919Y-143123512D01*
X74295000Y-143379499D01*
X72288304Y-143379499D01*
X72281976Y-143300650D01*
X72218806Y-143077983D01*
X72113411Y-142871917D01*
X72089675Y-142836392D01*
X71941418Y-142723938D01*
X71155355Y-143510000D01*
X71084645Y-143510000D01*
X70298582Y-142723938D01*
X70150325Y-142836392D01*
X70037543Y-143038510D01*
X69966359Y-143258746D01*
X69939509Y-143488638D01*
X52830000Y-143488638D01*
X52830000Y-142688582D01*
X70333938Y-142688582D01*
X71120000Y-143474645D01*
X71906062Y-142688582D01*
X71793608Y-142540325D01*
X71591490Y-142427543D01*
X71371254Y-142356359D01*
X71141362Y-142329509D01*
X70910650Y-142348024D01*
X70687983Y-142411194D01*
X70481917Y-142516589D01*
X70446392Y-142540325D01*
X70333938Y-142688582D01*
X52830000Y-142688582D01*
X52830000Y-141653495D01*
X52940241Y-141642637D01*
X53166442Y-141574019D01*
X53374910Y-141462591D01*
X53557634Y-141312634D01*
X53707591Y-141129909D01*
X53819019Y-140921441D01*
X53887637Y-140695240D01*
X53905000Y-140518949D01*
X53905000Y-140151051D01*
X54045000Y-140151051D01*
X54045000Y-140518950D01*
X54062363Y-140695241D01*
X54130981Y-140921442D01*
X54242409Y-141129910D01*
X54392367Y-141312634D01*
X54575091Y-141462591D01*
X54783559Y-141574019D01*
X55009760Y-141642637D01*
X55245000Y-141665806D01*
X55480241Y-141642637D01*
X55706442Y-141574019D01*
X55914910Y-141462591D01*
X56097634Y-141312634D01*
X56247591Y-141129909D01*
X56359019Y-140921441D01*
X56427637Y-140695240D01*
X56445000Y-140518949D01*
X56445000Y-140360000D01*
X56735000Y-140360000D01*
X56735000Y-140485000D01*
X56760053Y-140689364D01*
X56824494Y-140884914D01*
X56925846Y-141064135D01*
X57060215Y-141220139D01*
X57222437Y-141346932D01*
X57406278Y-141439640D01*
X57596098Y-141492868D01*
X57760000Y-141465939D01*
X57760000Y-140360000D01*
X57810000Y-140360000D01*
X57810000Y-141465939D01*
X57973902Y-141492868D01*
X58163722Y-141439640D01*
X58347563Y-141346932D01*
X58509785Y-141220139D01*
X58644154Y-141064135D01*
X58745506Y-140884914D01*
X58809947Y-140689364D01*
X58835000Y-140485000D01*
X58835000Y-140360000D01*
X57810000Y-140360000D01*
X57760000Y-140360000D01*
X56735000Y-140360000D01*
X56445000Y-140360000D01*
X56445000Y-140185000D01*
X56735000Y-140185000D01*
X56735000Y-140310000D01*
X57760000Y-140310000D01*
X57760000Y-139204061D01*
X57810000Y-139204061D01*
X57810000Y-140310000D01*
X58835000Y-140310000D01*
X58835000Y-140185000D01*
X58830839Y-140151051D01*
X59125000Y-140151051D01*
X59125000Y-140518950D01*
X59142363Y-140695241D01*
X59210981Y-140921442D01*
X59322409Y-141129910D01*
X59472367Y-141312634D01*
X59655091Y-141462591D01*
X59863559Y-141574019D01*
X60089760Y-141642637D01*
X60325000Y-141665806D01*
X60560241Y-141642637D01*
X60786442Y-141574019D01*
X60994910Y-141462591D01*
X61177634Y-141312634D01*
X61327591Y-141129909D01*
X61439019Y-140921441D01*
X61507637Y-140695240D01*
X61525000Y-140518949D01*
X61525000Y-140151050D01*
X61507637Y-139974759D01*
X61439019Y-139748558D01*
X61327591Y-139540090D01*
X61177634Y-139357366D01*
X60994909Y-139207409D01*
X60786441Y-139095981D01*
X60560240Y-139027363D01*
X60325000Y-139004194D01*
X60089759Y-139027363D01*
X59863558Y-139095981D01*
X59655090Y-139207409D01*
X59472366Y-139357366D01*
X59322409Y-139540091D01*
X59210981Y-139748559D01*
X59142363Y-139974760D01*
X59125000Y-140151051D01*
X58830839Y-140151051D01*
X58809947Y-139980636D01*
X58745506Y-139785086D01*
X58644154Y-139605865D01*
X58509785Y-139449861D01*
X58347563Y-139323068D01*
X58163722Y-139230360D01*
X57973902Y-139177132D01*
X57810000Y-139204061D01*
X57760000Y-139204061D01*
X57596098Y-139177132D01*
X57406278Y-139230360D01*
X57222437Y-139323068D01*
X57060215Y-139449861D01*
X56925846Y-139605865D01*
X56824494Y-139785086D01*
X56760053Y-139980636D01*
X56735000Y-140185000D01*
X56445000Y-140185000D01*
X56445000Y-140151050D01*
X56427637Y-139974759D01*
X56359019Y-139748558D01*
X56247591Y-139540090D01*
X56097634Y-139357366D01*
X55914909Y-139207409D01*
X55706441Y-139095981D01*
X55480240Y-139027363D01*
X55245000Y-139004194D01*
X55009759Y-139027363D01*
X54783558Y-139095981D01*
X54575090Y-139207409D01*
X54392366Y-139357366D01*
X54242409Y-139540091D01*
X54130981Y-139748559D01*
X54062363Y-139974760D01*
X54045000Y-140151051D01*
X53905000Y-140151051D01*
X53905000Y-140151050D01*
X53887637Y-139974759D01*
X53819019Y-139748558D01*
X53707591Y-139540090D01*
X53557634Y-139357366D01*
X53374909Y-139207409D01*
X53166441Y-139095981D01*
X52940240Y-139027363D01*
X52830000Y-139016505D01*
X52830000Y-137831418D01*
X70333938Y-137831418D01*
X70446392Y-137979675D01*
X70648510Y-138092457D01*
X70868746Y-138163641D01*
X71098638Y-138190491D01*
X71329350Y-138171976D01*
X71552017Y-138108806D01*
X71758083Y-138003411D01*
X71793608Y-137979675D01*
X71906062Y-137831418D01*
X71120000Y-137045355D01*
X70333938Y-137831418D01*
X52830000Y-137831418D01*
X52830000Y-136988638D01*
X69939509Y-136988638D01*
X69958024Y-137219350D01*
X70021194Y-137442017D01*
X70126589Y-137648083D01*
X70150325Y-137683608D01*
X70298582Y-137796062D01*
X71084645Y-137010000D01*
X71155355Y-137010000D01*
X71941418Y-137796062D01*
X72089675Y-137683608D01*
X72202457Y-137481490D01*
X72273641Y-137261254D01*
X72300491Y-137031362D01*
X72288304Y-136879499D01*
X74295000Y-136879499D01*
X74295000Y-137140501D01*
X74345919Y-137396488D01*
X74445800Y-137637623D01*
X74590805Y-137854638D01*
X74775362Y-138039195D01*
X74992377Y-138184200D01*
X75233512Y-138284081D01*
X75489499Y-138335000D01*
X75750501Y-138335000D01*
X76006488Y-138284081D01*
X76247623Y-138184200D01*
X76464638Y-138039195D01*
X76649195Y-137854638D01*
X76794200Y-137637623D01*
X76894081Y-137396488D01*
X76945000Y-137140501D01*
X76945000Y-136879499D01*
X76902970Y-136668197D01*
X86505000Y-136668197D01*
X86505000Y-136889803D01*
X86548233Y-137107150D01*
X86633038Y-137311887D01*
X86756156Y-137496145D01*
X86912855Y-137652844D01*
X87097113Y-137775962D01*
X87301850Y-137860767D01*
X87519197Y-137904000D01*
X87740803Y-137904000D01*
X87958150Y-137860767D01*
X88162887Y-137775962D01*
X88347145Y-137652844D01*
X88503844Y-137496145D01*
X88626962Y-137311887D01*
X88711767Y-137107150D01*
X88755000Y-136889803D01*
X88755000Y-136668197D01*
X89045000Y-136668197D01*
X89045000Y-136889803D01*
X89088233Y-137107150D01*
X89173038Y-137311887D01*
X89296156Y-137496145D01*
X89452855Y-137652844D01*
X89637113Y-137775962D01*
X89841850Y-137860767D01*
X90059197Y-137904000D01*
X90280803Y-137904000D01*
X90498150Y-137860767D01*
X90702887Y-137775962D01*
X90887145Y-137652844D01*
X91043844Y-137496145D01*
X91166962Y-137311887D01*
X91251767Y-137107150D01*
X91295000Y-136889803D01*
X91295000Y-136668197D01*
X91585000Y-136668197D01*
X91585000Y-136889803D01*
X91628233Y-137107150D01*
X91713038Y-137311887D01*
X91836156Y-137496145D01*
X91992855Y-137652844D01*
X92177113Y-137775962D01*
X92381850Y-137860767D01*
X92599197Y-137904000D01*
X92820803Y-137904000D01*
X93038150Y-137860767D01*
X93242887Y-137775962D01*
X93427145Y-137652844D01*
X93583844Y-137496145D01*
X93706962Y-137311887D01*
X93791767Y-137107150D01*
X93835000Y-136889803D01*
X93835000Y-136668197D01*
X94125000Y-136668197D01*
X94125000Y-136889803D01*
X94168233Y-137107150D01*
X94253038Y-137311887D01*
X94376156Y-137496145D01*
X94532855Y-137652844D01*
X94717113Y-137775962D01*
X94921850Y-137860767D01*
X95139197Y-137904000D01*
X95360803Y-137904000D01*
X95578150Y-137860767D01*
X95782887Y-137775962D01*
X95967145Y-137652844D01*
X96123844Y-137496145D01*
X96246962Y-137311887D01*
X96331767Y-137107150D01*
X96375000Y-136889803D01*
X96375000Y-136668197D01*
X96331767Y-136450850D01*
X96246962Y-136246113D01*
X96123844Y-136061855D01*
X95967145Y-135905156D01*
X95782887Y-135782038D01*
X95578150Y-135697233D01*
X95360803Y-135654000D01*
X95139197Y-135654000D01*
X94921850Y-135697233D01*
X94717113Y-135782038D01*
X94532855Y-135905156D01*
X94376156Y-136061855D01*
X94253038Y-136246113D01*
X94168233Y-136450850D01*
X94125000Y-136668197D01*
X93835000Y-136668197D01*
X93791767Y-136450850D01*
X93706962Y-136246113D01*
X93583844Y-136061855D01*
X93427145Y-135905156D01*
X93242887Y-135782038D01*
X93038150Y-135697233D01*
X92820803Y-135654000D01*
X92599197Y-135654000D01*
X92381850Y-135697233D01*
X92177113Y-135782038D01*
X91992855Y-135905156D01*
X91836156Y-136061855D01*
X91713038Y-136246113D01*
X91628233Y-136450850D01*
X91585000Y-136668197D01*
X91295000Y-136668197D01*
X91251767Y-136450850D01*
X91166962Y-136246113D01*
X91043844Y-136061855D01*
X90887145Y-135905156D01*
X90702887Y-135782038D01*
X90498150Y-135697233D01*
X90280803Y-135654000D01*
X90059197Y-135654000D01*
X89841850Y-135697233D01*
X89637113Y-135782038D01*
X89452855Y-135905156D01*
X89296156Y-136061855D01*
X89173038Y-136246113D01*
X89088233Y-136450850D01*
X89045000Y-136668197D01*
X88755000Y-136668197D01*
X88711767Y-136450850D01*
X88626962Y-136246113D01*
X88503844Y-136061855D01*
X88347145Y-135905156D01*
X88162887Y-135782038D01*
X87958150Y-135697233D01*
X87740803Y-135654000D01*
X87519197Y-135654000D01*
X87301850Y-135697233D01*
X87097113Y-135782038D01*
X86912855Y-135905156D01*
X86756156Y-136061855D01*
X86633038Y-136246113D01*
X86548233Y-136450850D01*
X86505000Y-136668197D01*
X76902970Y-136668197D01*
X76894081Y-136623512D01*
X76794200Y-136382377D01*
X76649195Y-136165362D01*
X76464638Y-135980805D01*
X76247623Y-135835800D01*
X76006488Y-135735919D01*
X75750501Y-135685000D01*
X75489499Y-135685000D01*
X75233512Y-135735919D01*
X74992377Y-135835800D01*
X74775362Y-135980805D01*
X74590805Y-136165362D01*
X74445800Y-136382377D01*
X74345919Y-136623512D01*
X74295000Y-136879499D01*
X72288304Y-136879499D01*
X72281976Y-136800650D01*
X72218806Y-136577983D01*
X72113411Y-136371917D01*
X72089675Y-136336392D01*
X71941418Y-136223938D01*
X71155355Y-137010000D01*
X71084645Y-137010000D01*
X70298582Y-136223938D01*
X70150325Y-136336392D01*
X70037543Y-136538510D01*
X69966359Y-136758746D01*
X69939509Y-136988638D01*
X52830000Y-136988638D01*
X52830000Y-136188582D01*
X70333938Y-136188582D01*
X71120000Y-136974645D01*
X71906062Y-136188582D01*
X71793608Y-136040325D01*
X71591490Y-135927543D01*
X71371254Y-135856359D01*
X71141362Y-135829509D01*
X70910650Y-135848024D01*
X70687983Y-135911194D01*
X70481917Y-136016589D01*
X70446392Y-136040325D01*
X70333938Y-136188582D01*
X52830000Y-136188582D01*
X52830000Y-132461000D01*
X73841428Y-132461000D01*
X73841428Y-133985000D01*
X73847703Y-134048711D01*
X73866287Y-134109974D01*
X73896465Y-134166434D01*
X73937079Y-134215921D01*
X73986566Y-134256535D01*
X74043026Y-134286713D01*
X74104289Y-134305297D01*
X74168000Y-134311572D01*
X75692000Y-134311572D01*
X75755711Y-134305297D01*
X75816974Y-134286713D01*
X75873434Y-134256535D01*
X75922921Y-134215921D01*
X75963535Y-134166434D01*
X75993713Y-134109974D01*
X76012297Y-134048711D01*
X76018572Y-133985000D01*
X76018572Y-133115940D01*
X76383000Y-133115940D01*
X76383000Y-133330060D01*
X76424772Y-133540066D01*
X76506713Y-133737888D01*
X76625672Y-133915922D01*
X76777078Y-134067328D01*
X76955112Y-134186287D01*
X77152934Y-134268228D01*
X77362940Y-134310000D01*
X77577060Y-134310000D01*
X77787066Y-134268228D01*
X77984888Y-134186287D01*
X78162922Y-134067328D01*
X78314328Y-133915922D01*
X78433287Y-133737888D01*
X78515228Y-133540066D01*
X78557000Y-133330060D01*
X78557000Y-133115940D01*
X78923000Y-133115940D01*
X78923000Y-133330060D01*
X78964772Y-133540066D01*
X79046713Y-133737888D01*
X79165672Y-133915922D01*
X79317078Y-134067328D01*
X79495112Y-134186287D01*
X79692934Y-134268228D01*
X79902940Y-134310000D01*
X80117060Y-134310000D01*
X80327066Y-134268228D01*
X80524888Y-134186287D01*
X80702922Y-134067328D01*
X80854328Y-133915922D01*
X80881496Y-133875261D01*
X81933095Y-133875261D01*
X82017001Y-133999143D01*
X82178661Y-134088212D01*
X82354590Y-134144033D01*
X82538029Y-134164458D01*
X82721929Y-134148703D01*
X82899221Y-134097375D01*
X83063093Y-134012444D01*
X83082999Y-133999143D01*
X83166905Y-133875261D01*
X82550000Y-133258355D01*
X81933095Y-133875261D01*
X80881496Y-133875261D01*
X80973287Y-133737888D01*
X81055228Y-133540066D01*
X81097000Y-133330060D01*
X81097000Y-133211029D01*
X81608542Y-133211029D01*
X81624297Y-133394929D01*
X81675625Y-133572221D01*
X81760556Y-133736093D01*
X81773857Y-133755999D01*
X81897739Y-133839905D01*
X82514645Y-133223000D01*
X82585355Y-133223000D01*
X83202261Y-133839905D01*
X83326143Y-133755999D01*
X83415212Y-133594339D01*
X83471033Y-133418410D01*
X83491458Y-133234971D01*
X83481261Y-133115940D01*
X84003000Y-133115940D01*
X84003000Y-133330060D01*
X84044772Y-133540066D01*
X84126713Y-133737888D01*
X84245672Y-133915922D01*
X84397078Y-134067328D01*
X84575112Y-134186287D01*
X84772934Y-134268228D01*
X84982940Y-134310000D01*
X85197060Y-134310000D01*
X85407066Y-134268228D01*
X85604888Y-134186287D01*
X85782922Y-134067328D01*
X85934328Y-133915922D01*
X86053287Y-133737888D01*
X86135228Y-133540066D01*
X86177000Y-133330060D01*
X86177000Y-133115940D01*
X86543000Y-133115940D01*
X86543000Y-133330060D01*
X86584772Y-133540066D01*
X86666713Y-133737888D01*
X86785672Y-133915922D01*
X86937078Y-134067328D01*
X87115112Y-134186287D01*
X87312934Y-134268228D01*
X87522940Y-134310000D01*
X87737060Y-134310000D01*
X87947066Y-134268228D01*
X88144888Y-134186287D01*
X88322922Y-134067328D01*
X88474328Y-133915922D01*
X88593287Y-133737888D01*
X88675228Y-133540066D01*
X88717000Y-133330060D01*
X88717000Y-133115940D01*
X89083000Y-133115940D01*
X89083000Y-133330060D01*
X89124772Y-133540066D01*
X89206713Y-133737888D01*
X89325672Y-133915922D01*
X89477078Y-134067328D01*
X89655112Y-134186287D01*
X89852934Y-134268228D01*
X90062940Y-134310000D01*
X90277060Y-134310000D01*
X90487066Y-134268228D01*
X90684888Y-134186287D01*
X90862922Y-134067328D01*
X91014328Y-133915922D01*
X91133287Y-133737888D01*
X91215228Y-133540066D01*
X91257000Y-133330060D01*
X91257000Y-133115940D01*
X91623000Y-133115940D01*
X91623000Y-133330060D01*
X91664772Y-133540066D01*
X91746713Y-133737888D01*
X91865672Y-133915922D01*
X92017078Y-134067328D01*
X92195112Y-134186287D01*
X92392934Y-134268228D01*
X92602940Y-134310000D01*
X92817060Y-134310000D01*
X93027066Y-134268228D01*
X93224888Y-134186287D01*
X93402922Y-134067328D01*
X93554328Y-133915922D01*
X93673287Y-133737888D01*
X93755228Y-133540066D01*
X93797000Y-133330060D01*
X93797000Y-133115940D01*
X94163000Y-133115940D01*
X94163000Y-133330060D01*
X94204772Y-133540066D01*
X94286713Y-133737888D01*
X94405672Y-133915922D01*
X94557078Y-134067328D01*
X94735112Y-134186287D01*
X94932934Y-134268228D01*
X95142940Y-134310000D01*
X95357060Y-134310000D01*
X95567066Y-134268228D01*
X95764888Y-134186287D01*
X95942922Y-134067328D01*
X96094328Y-133915922D01*
X96213287Y-133737888D01*
X96295228Y-133540066D01*
X96337000Y-133330060D01*
X96337000Y-133115940D01*
X96703000Y-133115940D01*
X96703000Y-133330060D01*
X96744772Y-133540066D01*
X96826713Y-133737888D01*
X96945672Y-133915922D01*
X97097078Y-134067328D01*
X97275112Y-134186287D01*
X97472934Y-134268228D01*
X97682940Y-134310000D01*
X97897060Y-134310000D01*
X98107066Y-134268228D01*
X98304888Y-134186287D01*
X98482922Y-134067328D01*
X98634328Y-133915922D01*
X98753287Y-133737888D01*
X98835228Y-133540066D01*
X98877000Y-133330060D01*
X98877000Y-133115940D01*
X99243000Y-133115940D01*
X99243000Y-133330060D01*
X99284772Y-133540066D01*
X99366713Y-133737888D01*
X99485672Y-133915922D01*
X99637078Y-134067328D01*
X99815112Y-134186287D01*
X100012934Y-134268228D01*
X100222940Y-134310000D01*
X100437060Y-134310000D01*
X100647066Y-134268228D01*
X100844888Y-134186287D01*
X101022922Y-134067328D01*
X101174328Y-133915922D01*
X101293287Y-133737888D01*
X101375228Y-133540066D01*
X101417000Y-133330060D01*
X101417000Y-133115940D01*
X101783000Y-133115940D01*
X101783000Y-133330060D01*
X101824772Y-133540066D01*
X101906713Y-133737888D01*
X102025672Y-133915922D01*
X102177078Y-134067328D01*
X102355112Y-134186287D01*
X102552934Y-134268228D01*
X102762940Y-134310000D01*
X102977060Y-134310000D01*
X103187066Y-134268228D01*
X103384888Y-134186287D01*
X103562922Y-134067328D01*
X103714328Y-133915922D01*
X103833287Y-133737888D01*
X103915228Y-133540066D01*
X103957000Y-133330060D01*
X103957000Y-133115940D01*
X104323000Y-133115940D01*
X104323000Y-133330060D01*
X104364772Y-133540066D01*
X104446713Y-133737888D01*
X104565672Y-133915922D01*
X104717078Y-134067328D01*
X104895112Y-134186287D01*
X105092934Y-134268228D01*
X105302940Y-134310000D01*
X105517060Y-134310000D01*
X105727066Y-134268228D01*
X105924888Y-134186287D01*
X106102922Y-134067328D01*
X106254328Y-133915922D01*
X106373287Y-133737888D01*
X106455228Y-133540066D01*
X106497000Y-133330060D01*
X106497000Y-133115940D01*
X106863000Y-133115940D01*
X106863000Y-133330060D01*
X106904772Y-133540066D01*
X106986713Y-133737888D01*
X107105672Y-133915922D01*
X107257078Y-134067328D01*
X107435112Y-134186287D01*
X107632934Y-134268228D01*
X107842940Y-134310000D01*
X108057060Y-134310000D01*
X108267066Y-134268228D01*
X108464888Y-134186287D01*
X108642922Y-134067328D01*
X108794328Y-133915922D01*
X108913287Y-133737888D01*
X108995228Y-133540066D01*
X109037000Y-133330060D01*
X109037000Y-133115940D01*
X109403000Y-133115940D01*
X109403000Y-133330060D01*
X109444772Y-133540066D01*
X109526713Y-133737888D01*
X109645672Y-133915922D01*
X109797078Y-134067328D01*
X109975112Y-134186287D01*
X110172934Y-134268228D01*
X110382940Y-134310000D01*
X110597060Y-134310000D01*
X110807066Y-134268228D01*
X111004888Y-134186287D01*
X111182922Y-134067328D01*
X111334328Y-133915922D01*
X111453287Y-133737888D01*
X111535228Y-133540066D01*
X111577000Y-133330060D01*
X111577000Y-133115940D01*
X111535228Y-132905934D01*
X111453287Y-132708112D01*
X111334328Y-132530078D01*
X111182922Y-132378672D01*
X111004888Y-132259713D01*
X110807066Y-132177772D01*
X110597060Y-132136000D01*
X110382940Y-132136000D01*
X110172934Y-132177772D01*
X109975112Y-132259713D01*
X109797078Y-132378672D01*
X109645672Y-132530078D01*
X109526713Y-132708112D01*
X109444772Y-132905934D01*
X109403000Y-133115940D01*
X109037000Y-133115940D01*
X108995228Y-132905934D01*
X108913287Y-132708112D01*
X108794328Y-132530078D01*
X108642922Y-132378672D01*
X108464888Y-132259713D01*
X108267066Y-132177772D01*
X108057060Y-132136000D01*
X107842940Y-132136000D01*
X107632934Y-132177772D01*
X107435112Y-132259713D01*
X107257078Y-132378672D01*
X107105672Y-132530078D01*
X106986713Y-132708112D01*
X106904772Y-132905934D01*
X106863000Y-133115940D01*
X106497000Y-133115940D01*
X106455228Y-132905934D01*
X106373287Y-132708112D01*
X106254328Y-132530078D01*
X106102922Y-132378672D01*
X105924888Y-132259713D01*
X105727066Y-132177772D01*
X105517060Y-132136000D01*
X105302940Y-132136000D01*
X105092934Y-132177772D01*
X104895112Y-132259713D01*
X104717078Y-132378672D01*
X104565672Y-132530078D01*
X104446713Y-132708112D01*
X104364772Y-132905934D01*
X104323000Y-133115940D01*
X103957000Y-133115940D01*
X103915228Y-132905934D01*
X103833287Y-132708112D01*
X103714328Y-132530078D01*
X103562922Y-132378672D01*
X103384888Y-132259713D01*
X103187066Y-132177772D01*
X102977060Y-132136000D01*
X102762940Y-132136000D01*
X102552934Y-132177772D01*
X102355112Y-132259713D01*
X102177078Y-132378672D01*
X102025672Y-132530078D01*
X101906713Y-132708112D01*
X101824772Y-132905934D01*
X101783000Y-133115940D01*
X101417000Y-133115940D01*
X101375228Y-132905934D01*
X101293287Y-132708112D01*
X101174328Y-132530078D01*
X101022922Y-132378672D01*
X100844888Y-132259713D01*
X100647066Y-132177772D01*
X100437060Y-132136000D01*
X100222940Y-132136000D01*
X100012934Y-132177772D01*
X99815112Y-132259713D01*
X99637078Y-132378672D01*
X99485672Y-132530078D01*
X99366713Y-132708112D01*
X99284772Y-132905934D01*
X99243000Y-133115940D01*
X98877000Y-133115940D01*
X98835228Y-132905934D01*
X98753287Y-132708112D01*
X98634328Y-132530078D01*
X98482922Y-132378672D01*
X98304888Y-132259713D01*
X98107066Y-132177772D01*
X97897060Y-132136000D01*
X97682940Y-132136000D01*
X97472934Y-132177772D01*
X97275112Y-132259713D01*
X97097078Y-132378672D01*
X96945672Y-132530078D01*
X96826713Y-132708112D01*
X96744772Y-132905934D01*
X96703000Y-133115940D01*
X96337000Y-133115940D01*
X96295228Y-132905934D01*
X96213287Y-132708112D01*
X96094328Y-132530078D01*
X95942922Y-132378672D01*
X95764888Y-132259713D01*
X95567066Y-132177772D01*
X95357060Y-132136000D01*
X95142940Y-132136000D01*
X94932934Y-132177772D01*
X94735112Y-132259713D01*
X94557078Y-132378672D01*
X94405672Y-132530078D01*
X94286713Y-132708112D01*
X94204772Y-132905934D01*
X94163000Y-133115940D01*
X93797000Y-133115940D01*
X93755228Y-132905934D01*
X93673287Y-132708112D01*
X93554328Y-132530078D01*
X93402922Y-132378672D01*
X93224888Y-132259713D01*
X93027066Y-132177772D01*
X92817060Y-132136000D01*
X92602940Y-132136000D01*
X92392934Y-132177772D01*
X92195112Y-132259713D01*
X92017078Y-132378672D01*
X91865672Y-132530078D01*
X91746713Y-132708112D01*
X91664772Y-132905934D01*
X91623000Y-133115940D01*
X91257000Y-133115940D01*
X91215228Y-132905934D01*
X91133287Y-132708112D01*
X91014328Y-132530078D01*
X90862922Y-132378672D01*
X90684888Y-132259713D01*
X90487066Y-132177772D01*
X90277060Y-132136000D01*
X90062940Y-132136000D01*
X89852934Y-132177772D01*
X89655112Y-132259713D01*
X89477078Y-132378672D01*
X89325672Y-132530078D01*
X89206713Y-132708112D01*
X89124772Y-132905934D01*
X89083000Y-133115940D01*
X88717000Y-133115940D01*
X88675228Y-132905934D01*
X88593287Y-132708112D01*
X88474328Y-132530078D01*
X88322922Y-132378672D01*
X88144888Y-132259713D01*
X87947066Y-132177772D01*
X87737060Y-132136000D01*
X87522940Y-132136000D01*
X87312934Y-132177772D01*
X87115112Y-132259713D01*
X86937078Y-132378672D01*
X86785672Y-132530078D01*
X86666713Y-132708112D01*
X86584772Y-132905934D01*
X86543000Y-133115940D01*
X86177000Y-133115940D01*
X86135228Y-132905934D01*
X86053287Y-132708112D01*
X85934328Y-132530078D01*
X85782922Y-132378672D01*
X85604888Y-132259713D01*
X85407066Y-132177772D01*
X85197060Y-132136000D01*
X84982940Y-132136000D01*
X84772934Y-132177772D01*
X84575112Y-132259713D01*
X84397078Y-132378672D01*
X84245672Y-132530078D01*
X84126713Y-132708112D01*
X84044772Y-132905934D01*
X84003000Y-133115940D01*
X83481261Y-133115940D01*
X83475703Y-133051071D01*
X83424375Y-132873779D01*
X83339444Y-132709907D01*
X83326143Y-132690001D01*
X83202261Y-132606095D01*
X82585355Y-133223000D01*
X82514645Y-133223000D01*
X81897739Y-132606095D01*
X81773857Y-132690001D01*
X81684788Y-132851661D01*
X81628967Y-133027590D01*
X81608542Y-133211029D01*
X81097000Y-133211029D01*
X81097000Y-133115940D01*
X81055228Y-132905934D01*
X80973287Y-132708112D01*
X80881497Y-132570739D01*
X81933095Y-132570739D01*
X82550000Y-133187645D01*
X83166905Y-132570739D01*
X83082999Y-132446857D01*
X82921339Y-132357788D01*
X82745410Y-132301967D01*
X82561971Y-132281542D01*
X82378071Y-132297297D01*
X82200779Y-132348625D01*
X82036907Y-132433556D01*
X82017001Y-132446857D01*
X81933095Y-132570739D01*
X80881497Y-132570739D01*
X80854328Y-132530078D01*
X80702922Y-132378672D01*
X80524888Y-132259713D01*
X80327066Y-132177772D01*
X80117060Y-132136000D01*
X79902940Y-132136000D01*
X79692934Y-132177772D01*
X79495112Y-132259713D01*
X79317078Y-132378672D01*
X79165672Y-132530078D01*
X79046713Y-132708112D01*
X78964772Y-132905934D01*
X78923000Y-133115940D01*
X78557000Y-133115940D01*
X78515228Y-132905934D01*
X78433287Y-132708112D01*
X78314328Y-132530078D01*
X78162922Y-132378672D01*
X77984888Y-132259713D01*
X77787066Y-132177772D01*
X77577060Y-132136000D01*
X77362940Y-132136000D01*
X77152934Y-132177772D01*
X76955112Y-132259713D01*
X76777078Y-132378672D01*
X76625672Y-132530078D01*
X76506713Y-132708112D01*
X76424772Y-132905934D01*
X76383000Y-133115940D01*
X76018572Y-133115940D01*
X76018572Y-132461000D01*
X76012297Y-132397289D01*
X75993713Y-132336026D01*
X75963535Y-132279566D01*
X75922921Y-132230079D01*
X75873434Y-132189465D01*
X75816974Y-132159287D01*
X75755711Y-132140703D01*
X75692000Y-132134428D01*
X74168000Y-132134428D01*
X74104289Y-132140703D01*
X74043026Y-132159287D01*
X73986566Y-132189465D01*
X73937079Y-132230079D01*
X73896465Y-132279566D01*
X73866287Y-132336026D01*
X73847703Y-132397289D01*
X73841428Y-132461000D01*
X52830000Y-132461000D01*
X52830000Y-131496776D01*
X56603388Y-127723388D01*
X56618934Y-127704446D01*
X56630485Y-127682835D01*
X56637598Y-127659386D01*
X56640000Y-127635000D01*
X56640000Y-124460715D01*
X56699096Y-119459063D01*
X56967906Y-119638676D01*
X57210000Y-119738955D01*
X57210001Y-127396826D01*
X56359027Y-128247801D01*
X56318110Y-128255940D01*
X56195268Y-128306823D01*
X56084713Y-128380693D01*
X55990693Y-128474713D01*
X55916823Y-128585268D01*
X55865940Y-128708110D01*
X55840000Y-128838518D01*
X55840000Y-128971482D01*
X55865940Y-129101890D01*
X55916823Y-129224732D01*
X55990693Y-129335287D01*
X56084713Y-129429307D01*
X56195268Y-129503177D01*
X56318110Y-129554060D01*
X56448518Y-129580000D01*
X56581482Y-129580000D01*
X56711890Y-129554060D01*
X56834732Y-129503177D01*
X56945287Y-129429307D01*
X57039307Y-129335287D01*
X57113177Y-129224732D01*
X57164060Y-129101890D01*
X57172199Y-129060973D01*
X58171612Y-128061561D01*
X58193554Y-128043554D01*
X58227782Y-128001847D01*
X58265408Y-127955999D01*
X58318801Y-127856108D01*
X58326147Y-127831890D01*
X58351680Y-127747720D01*
X58360000Y-127663246D01*
X58360000Y-127663244D01*
X58362782Y-127635001D01*
X58360000Y-127606758D01*
X58360000Y-121223443D01*
X79385000Y-121223443D01*
X79385000Y-121346557D01*
X79409019Y-121467306D01*
X79456132Y-121581048D01*
X79524531Y-121683414D01*
X79560000Y-121718883D01*
X79560001Y-124661116D01*
X79524531Y-124696586D01*
X79456132Y-124798952D01*
X79409019Y-124912694D01*
X79385000Y-125033443D01*
X79385000Y-125156557D01*
X79409019Y-125277306D01*
X79456132Y-125391048D01*
X79524531Y-125493414D01*
X79611586Y-125580469D01*
X79713952Y-125648868D01*
X79827694Y-125695981D01*
X79948443Y-125720000D01*
X80071557Y-125720000D01*
X80192306Y-125695981D01*
X80306048Y-125648868D01*
X80408414Y-125580469D01*
X80495469Y-125493414D01*
X80563868Y-125391048D01*
X80610981Y-125277306D01*
X80635000Y-125156557D01*
X80635000Y-125033443D01*
X80610981Y-124912694D01*
X80563868Y-124798952D01*
X80495469Y-124696586D01*
X80460000Y-124661117D01*
X80460000Y-123763443D01*
X98435000Y-123763443D01*
X98435000Y-123886557D01*
X98459019Y-124007306D01*
X98506132Y-124121048D01*
X98574531Y-124223414D01*
X98610001Y-124258884D01*
X98610000Y-131519117D01*
X98574531Y-131554586D01*
X98506132Y-131656952D01*
X98459019Y-131770694D01*
X98435000Y-131891443D01*
X98435000Y-132014557D01*
X98459019Y-132135306D01*
X98506132Y-132249048D01*
X98574531Y-132351414D01*
X98661586Y-132438469D01*
X98763952Y-132506868D01*
X98877694Y-132553981D01*
X98998443Y-132578000D01*
X99121557Y-132578000D01*
X99242306Y-132553981D01*
X99356048Y-132506868D01*
X99458414Y-132438469D01*
X99545469Y-132351414D01*
X99613868Y-132249048D01*
X99660981Y-132135306D01*
X99685000Y-132014557D01*
X99685000Y-131891443D01*
X99660981Y-131770694D01*
X99613868Y-131656952D01*
X99545469Y-131554586D01*
X99510000Y-131519117D01*
X99510000Y-130748443D01*
X118120000Y-130748443D01*
X118120000Y-130871557D01*
X118144019Y-130992306D01*
X118191132Y-131106048D01*
X118259531Y-131208414D01*
X118346586Y-131295469D01*
X118448952Y-131363868D01*
X118562694Y-131410981D01*
X118683443Y-131435000D01*
X118806557Y-131435000D01*
X118927306Y-131410981D01*
X119041048Y-131363868D01*
X119143414Y-131295469D01*
X119230469Y-131208414D01*
X119298868Y-131106048D01*
X119345981Y-130992306D01*
X119370000Y-130871557D01*
X119370000Y-130748443D01*
X119345981Y-130627694D01*
X119298868Y-130513952D01*
X119230469Y-130411586D01*
X119195000Y-130376117D01*
X119195000Y-128843443D01*
X124470000Y-128843443D01*
X124470000Y-128966557D01*
X124494019Y-129087306D01*
X124541132Y-129201048D01*
X124609531Y-129303414D01*
X124645001Y-129338884D01*
X124645000Y-131011117D01*
X124609531Y-131046586D01*
X124541132Y-131148952D01*
X124494019Y-131262694D01*
X124470000Y-131383443D01*
X124470000Y-131506557D01*
X124494019Y-131627306D01*
X124541132Y-131741048D01*
X124609531Y-131843414D01*
X124696586Y-131930469D01*
X124798952Y-131998868D01*
X124912694Y-132045981D01*
X125033443Y-132070000D01*
X125156557Y-132070000D01*
X125277306Y-132045981D01*
X125391048Y-131998868D01*
X125493414Y-131930469D01*
X125580469Y-131843414D01*
X125648868Y-131741048D01*
X125695981Y-131627306D01*
X125720000Y-131506557D01*
X125720000Y-131383443D01*
X125695981Y-131262694D01*
X125648868Y-131148952D01*
X125580469Y-131046586D01*
X125545000Y-131011117D01*
X125545000Y-129338883D01*
X125580469Y-129303414D01*
X125648868Y-129201048D01*
X125695981Y-129087306D01*
X125720000Y-128966557D01*
X125720000Y-128916395D01*
X127302573Y-127333823D01*
X127319737Y-127319737D01*
X127333824Y-127302572D01*
X127333828Y-127302568D01*
X127375971Y-127251217D01*
X127417757Y-127173041D01*
X127417757Y-127173040D01*
X127443489Y-127088215D01*
X127450000Y-127022105D01*
X127450000Y-127022094D01*
X127452176Y-127000000D01*
X127450000Y-126977906D01*
X127450000Y-119459666D01*
X127464624Y-119449895D01*
X127704895Y-119209624D01*
X127893676Y-118927094D01*
X128023710Y-118613164D01*
X128090000Y-118279898D01*
X128090000Y-117940102D01*
X128023710Y-117606836D01*
X127893676Y-117292906D01*
X127704895Y-117010376D01*
X127464624Y-116770105D01*
X127182094Y-116581324D01*
X126868164Y-116451290D01*
X126534898Y-116385000D01*
X126195102Y-116385000D01*
X125861836Y-116451290D01*
X125547906Y-116581324D01*
X125265376Y-116770105D01*
X125025105Y-117010376D01*
X124836324Y-117292906D01*
X124706290Y-117606836D01*
X124640000Y-117940102D01*
X124640000Y-118279898D01*
X124706290Y-118613164D01*
X124836324Y-118927094D01*
X125025105Y-119209624D01*
X125265376Y-119449895D01*
X125547906Y-119638676D01*
X125861836Y-119768710D01*
X126195102Y-119835000D01*
X126534898Y-119835000D01*
X126550001Y-119831996D01*
X126550000Y-126813604D01*
X125083605Y-128280000D01*
X125033443Y-128280000D01*
X124912694Y-128304019D01*
X124798952Y-128351132D01*
X124696586Y-128419531D01*
X124609531Y-128506586D01*
X124541132Y-128608952D01*
X124494019Y-128722694D01*
X124470000Y-128843443D01*
X119195000Y-128843443D01*
X119195000Y-123123518D01*
X120610000Y-123123518D01*
X120610000Y-123256482D01*
X120635940Y-123386890D01*
X120686823Y-123509732D01*
X120710000Y-123544419D01*
X120710001Y-125701747D01*
X120707218Y-125730000D01*
X120718321Y-125842719D01*
X120751199Y-125951107D01*
X120804592Y-126050998D01*
X120850441Y-126106865D01*
X120876447Y-126138554D01*
X120898389Y-126156561D01*
X121493439Y-126751612D01*
X121511446Y-126773554D01*
X121599002Y-126845408D01*
X121698892Y-126898801D01*
X121807280Y-126931680D01*
X121891754Y-126940000D01*
X121891757Y-126940000D01*
X121920000Y-126942782D01*
X121948243Y-126940000D01*
X124221828Y-126940000D01*
X124437801Y-127155974D01*
X124445940Y-127196890D01*
X124496823Y-127319732D01*
X124570693Y-127430287D01*
X124664713Y-127524307D01*
X124775268Y-127598177D01*
X124898110Y-127649060D01*
X125028518Y-127675000D01*
X125161482Y-127675000D01*
X125291890Y-127649060D01*
X125414732Y-127598177D01*
X125525287Y-127524307D01*
X125619307Y-127430287D01*
X125693177Y-127319732D01*
X125744060Y-127196890D01*
X125770000Y-127066482D01*
X125770000Y-126933518D01*
X125744060Y-126803110D01*
X125693177Y-126680268D01*
X125619307Y-126569713D01*
X125525287Y-126475693D01*
X125414732Y-126401823D01*
X125291890Y-126350940D01*
X125250974Y-126342801D01*
X124886565Y-125978393D01*
X124868554Y-125956446D01*
X124780998Y-125884592D01*
X124681108Y-125831199D01*
X124572720Y-125798320D01*
X124488246Y-125790000D01*
X124488243Y-125790000D01*
X124460000Y-125787218D01*
X124431757Y-125790000D01*
X122158173Y-125790000D01*
X121860000Y-125491828D01*
X121860000Y-123544419D01*
X121883177Y-123509732D01*
X121934060Y-123386890D01*
X121960000Y-123256482D01*
X121960000Y-123123518D01*
X121934060Y-122993110D01*
X121883177Y-122870268D01*
X121809307Y-122759713D01*
X121715287Y-122665693D01*
X121604732Y-122591823D01*
X121481890Y-122540940D01*
X121351482Y-122515000D01*
X121218518Y-122515000D01*
X121088110Y-122540940D01*
X120965268Y-122591823D01*
X120854713Y-122665693D01*
X120760693Y-122759713D01*
X120686823Y-122870268D01*
X120635940Y-122993110D01*
X120610000Y-123123518D01*
X119195000Y-123123518D01*
X119195000Y-120836395D01*
X120422835Y-119608560D01*
X120467906Y-119638676D01*
X120781836Y-119768710D01*
X121115102Y-119835000D01*
X121454898Y-119835000D01*
X121788164Y-119768710D01*
X122102094Y-119638676D01*
X122384624Y-119449895D01*
X122624895Y-119209624D01*
X122813676Y-118927094D01*
X122943710Y-118613164D01*
X123010000Y-118279898D01*
X123010000Y-117940102D01*
X122943710Y-117606836D01*
X122813676Y-117292906D01*
X122624895Y-117010376D01*
X122384624Y-116770105D01*
X122102094Y-116581324D01*
X121788164Y-116451290D01*
X121454898Y-116385000D01*
X121115102Y-116385000D01*
X120781836Y-116451290D01*
X120467906Y-116581324D01*
X120185376Y-116770105D01*
X119945105Y-117010376D01*
X119756324Y-117292906D01*
X119626290Y-117606836D01*
X119560000Y-117940102D01*
X119560000Y-118279898D01*
X119626290Y-118613164D01*
X119756324Y-118927094D01*
X119786440Y-118972165D01*
X118442434Y-120316171D01*
X118425263Y-120330263D01*
X118411172Y-120347433D01*
X118369029Y-120398784D01*
X118327244Y-120476959D01*
X118327243Y-120476960D01*
X118301511Y-120561786D01*
X118295000Y-120627896D01*
X118295000Y-120627906D01*
X118292824Y-120650000D01*
X118295000Y-120672094D01*
X118295001Y-130376116D01*
X118259531Y-130411586D01*
X118191132Y-130513952D01*
X118144019Y-130627694D01*
X118120000Y-130748443D01*
X99510000Y-130748443D01*
X99510000Y-124258883D01*
X99545469Y-124223414D01*
X99613868Y-124121048D01*
X99660981Y-124007306D01*
X99685000Y-123886557D01*
X99685000Y-123763443D01*
X99660981Y-123642694D01*
X99613868Y-123528952D01*
X99545469Y-123426586D01*
X99458414Y-123339531D01*
X99356048Y-123271132D01*
X99242306Y-123224019D01*
X99121557Y-123200000D01*
X98998443Y-123200000D01*
X98877694Y-123224019D01*
X98763952Y-123271132D01*
X98661586Y-123339531D01*
X98574531Y-123426586D01*
X98506132Y-123528952D01*
X98459019Y-123642694D01*
X98435000Y-123763443D01*
X80460000Y-123763443D01*
X80460000Y-121718883D01*
X80495469Y-121683414D01*
X80563868Y-121581048D01*
X80610981Y-121467306D01*
X80635000Y-121346557D01*
X80635000Y-121223443D01*
X80610981Y-121102694D01*
X80563868Y-120988952D01*
X80495469Y-120886586D01*
X80408414Y-120799531D01*
X80306048Y-120731132D01*
X80192306Y-120684019D01*
X80071557Y-120660000D01*
X79948443Y-120660000D01*
X79827694Y-120684019D01*
X79713952Y-120731132D01*
X79611586Y-120799531D01*
X79524531Y-120886586D01*
X79456132Y-120988952D01*
X79409019Y-121102694D01*
X79385000Y-121223443D01*
X58360000Y-121223443D01*
X58360000Y-119738955D01*
X58602094Y-119638676D01*
X58884624Y-119449895D01*
X59118839Y-119215680D01*
X62429675Y-119215680D01*
X62590100Y-119404903D01*
X62860206Y-119557535D01*
X63154900Y-119654538D01*
X63462855Y-119692186D01*
X63772238Y-119669031D01*
X64071159Y-119585963D01*
X64348130Y-119446175D01*
X64409900Y-119404903D01*
X64570325Y-119215680D01*
X63500000Y-118145355D01*
X62429675Y-119215680D01*
X59118839Y-119215680D01*
X59124895Y-119209624D01*
X59313676Y-118927094D01*
X59443710Y-118613164D01*
X59510000Y-118279898D01*
X59510000Y-118072855D01*
X61917814Y-118072855D01*
X61940969Y-118382238D01*
X62024037Y-118681159D01*
X62163825Y-118958130D01*
X62205097Y-119019900D01*
X62394320Y-119180325D01*
X63464645Y-118110000D01*
X63535355Y-118110000D01*
X64605680Y-119180325D01*
X64794903Y-119019900D01*
X64947535Y-118749794D01*
X65044538Y-118455100D01*
X65082186Y-118147145D01*
X65061889Y-117875940D01*
X73843000Y-117875940D01*
X73843000Y-118090060D01*
X73884772Y-118300066D01*
X73966713Y-118497888D01*
X74085672Y-118675922D01*
X74237078Y-118827328D01*
X74415112Y-118946287D01*
X74612934Y-119028228D01*
X74822940Y-119070000D01*
X75037060Y-119070000D01*
X75247066Y-119028228D01*
X75444888Y-118946287D01*
X75622922Y-118827328D01*
X75774328Y-118675922D01*
X75801496Y-118635261D01*
X76853095Y-118635261D01*
X76937001Y-118759143D01*
X77098661Y-118848212D01*
X77274590Y-118904033D01*
X77458029Y-118924458D01*
X77641929Y-118908703D01*
X77819221Y-118857375D01*
X77983093Y-118772444D01*
X78002999Y-118759143D01*
X78086905Y-118635261D01*
X77470000Y-118018355D01*
X76853095Y-118635261D01*
X75801496Y-118635261D01*
X75893287Y-118497888D01*
X75975228Y-118300066D01*
X76017000Y-118090060D01*
X76017000Y-117971029D01*
X76528542Y-117971029D01*
X76544297Y-118154929D01*
X76595625Y-118332221D01*
X76680556Y-118496093D01*
X76693857Y-118515999D01*
X76817739Y-118599905D01*
X77434645Y-117983000D01*
X77505355Y-117983000D01*
X78122261Y-118599905D01*
X78246143Y-118515999D01*
X78335212Y-118354339D01*
X78391033Y-118178410D01*
X78411458Y-117994971D01*
X78401261Y-117875940D01*
X78923000Y-117875940D01*
X78923000Y-118090060D01*
X78964772Y-118300066D01*
X79046713Y-118497888D01*
X79165672Y-118675922D01*
X79317078Y-118827328D01*
X79495112Y-118946287D01*
X79692934Y-119028228D01*
X79902940Y-119070000D01*
X80117060Y-119070000D01*
X80327066Y-119028228D01*
X80524888Y-118946287D01*
X80702922Y-118827328D01*
X80854328Y-118675922D01*
X80973287Y-118497888D01*
X81055228Y-118300066D01*
X81097000Y-118090060D01*
X81097000Y-117875940D01*
X81463000Y-117875940D01*
X81463000Y-118090060D01*
X81504772Y-118300066D01*
X81586713Y-118497888D01*
X81705672Y-118675922D01*
X81857078Y-118827328D01*
X82035112Y-118946287D01*
X82232934Y-119028228D01*
X82442940Y-119070000D01*
X82657060Y-119070000D01*
X82867066Y-119028228D01*
X83064888Y-118946287D01*
X83242922Y-118827328D01*
X83394328Y-118675922D01*
X83513287Y-118497888D01*
X83595228Y-118300066D01*
X83637000Y-118090060D01*
X83637000Y-117875940D01*
X84003000Y-117875940D01*
X84003000Y-118090060D01*
X84044772Y-118300066D01*
X84126713Y-118497888D01*
X84245672Y-118675922D01*
X84397078Y-118827328D01*
X84575112Y-118946287D01*
X84772934Y-119028228D01*
X84982940Y-119070000D01*
X85197060Y-119070000D01*
X85407066Y-119028228D01*
X85604888Y-118946287D01*
X85782922Y-118827328D01*
X85934328Y-118675922D01*
X86053287Y-118497888D01*
X86135228Y-118300066D01*
X86177000Y-118090060D01*
X86177000Y-117875940D01*
X86543000Y-117875940D01*
X86543000Y-118090060D01*
X86584772Y-118300066D01*
X86666713Y-118497888D01*
X86785672Y-118675922D01*
X86937078Y-118827328D01*
X87115112Y-118946287D01*
X87312934Y-119028228D01*
X87522940Y-119070000D01*
X87737060Y-119070000D01*
X87947066Y-119028228D01*
X88144888Y-118946287D01*
X88322922Y-118827328D01*
X88474328Y-118675922D01*
X88593287Y-118497888D01*
X88675228Y-118300066D01*
X88717000Y-118090060D01*
X88717000Y-117875940D01*
X89083000Y-117875940D01*
X89083000Y-118090060D01*
X89124772Y-118300066D01*
X89206713Y-118497888D01*
X89325672Y-118675922D01*
X89477078Y-118827328D01*
X89655112Y-118946287D01*
X89852934Y-119028228D01*
X90062940Y-119070000D01*
X90277060Y-119070000D01*
X90487066Y-119028228D01*
X90684888Y-118946287D01*
X90862922Y-118827328D01*
X91014328Y-118675922D01*
X91133287Y-118497888D01*
X91215228Y-118300066D01*
X91257000Y-118090060D01*
X91257000Y-117875940D01*
X91623000Y-117875940D01*
X91623000Y-118090060D01*
X91664772Y-118300066D01*
X91746713Y-118497888D01*
X91865672Y-118675922D01*
X92017078Y-118827328D01*
X92195112Y-118946287D01*
X92392934Y-119028228D01*
X92602940Y-119070000D01*
X92817060Y-119070000D01*
X93027066Y-119028228D01*
X93224888Y-118946287D01*
X93402922Y-118827328D01*
X93554328Y-118675922D01*
X93673287Y-118497888D01*
X93755228Y-118300066D01*
X93797000Y-118090060D01*
X93797000Y-117875940D01*
X94163000Y-117875940D01*
X94163000Y-118090060D01*
X94204772Y-118300066D01*
X94286713Y-118497888D01*
X94405672Y-118675922D01*
X94557078Y-118827328D01*
X94735112Y-118946287D01*
X94932934Y-119028228D01*
X95142940Y-119070000D01*
X95357060Y-119070000D01*
X95567066Y-119028228D01*
X95764888Y-118946287D01*
X95942922Y-118827328D01*
X96094328Y-118675922D01*
X96213287Y-118497888D01*
X96295228Y-118300066D01*
X96337000Y-118090060D01*
X96337000Y-117875940D01*
X96703000Y-117875940D01*
X96703000Y-118090060D01*
X96744772Y-118300066D01*
X96826713Y-118497888D01*
X96945672Y-118675922D01*
X97097078Y-118827328D01*
X97275112Y-118946287D01*
X97472934Y-119028228D01*
X97682940Y-119070000D01*
X97897060Y-119070000D01*
X98107066Y-119028228D01*
X98304888Y-118946287D01*
X98482922Y-118827328D01*
X98634328Y-118675922D01*
X98753287Y-118497888D01*
X98835228Y-118300066D01*
X98877000Y-118090060D01*
X98877000Y-117875940D01*
X99243000Y-117875940D01*
X99243000Y-118090060D01*
X99284772Y-118300066D01*
X99366713Y-118497888D01*
X99485672Y-118675922D01*
X99637078Y-118827328D01*
X99815112Y-118946287D01*
X100012934Y-119028228D01*
X100222940Y-119070000D01*
X100437060Y-119070000D01*
X100647066Y-119028228D01*
X100844888Y-118946287D01*
X101022922Y-118827328D01*
X101174328Y-118675922D01*
X101293287Y-118497888D01*
X101375228Y-118300066D01*
X101417000Y-118090060D01*
X101417000Y-117875940D01*
X101783000Y-117875940D01*
X101783000Y-118090060D01*
X101824772Y-118300066D01*
X101906713Y-118497888D01*
X102025672Y-118675922D01*
X102177078Y-118827328D01*
X102355112Y-118946287D01*
X102552934Y-119028228D01*
X102762940Y-119070000D01*
X102977060Y-119070000D01*
X103187066Y-119028228D01*
X103384888Y-118946287D01*
X103562922Y-118827328D01*
X103714328Y-118675922D01*
X103833287Y-118497888D01*
X103915228Y-118300066D01*
X103957000Y-118090060D01*
X103957000Y-117875940D01*
X104323000Y-117875940D01*
X104323000Y-118090060D01*
X104364772Y-118300066D01*
X104446713Y-118497888D01*
X104565672Y-118675922D01*
X104717078Y-118827328D01*
X104895112Y-118946287D01*
X105092934Y-119028228D01*
X105302940Y-119070000D01*
X105517060Y-119070000D01*
X105727066Y-119028228D01*
X105924888Y-118946287D01*
X106102922Y-118827328D01*
X106254328Y-118675922D01*
X106373287Y-118497888D01*
X106455228Y-118300066D01*
X106497000Y-118090060D01*
X106497000Y-117875940D01*
X106863000Y-117875940D01*
X106863000Y-118090060D01*
X106904772Y-118300066D01*
X106986713Y-118497888D01*
X107105672Y-118675922D01*
X107257078Y-118827328D01*
X107435112Y-118946287D01*
X107632934Y-119028228D01*
X107842940Y-119070000D01*
X108057060Y-119070000D01*
X108267066Y-119028228D01*
X108464888Y-118946287D01*
X108642922Y-118827328D01*
X108794328Y-118675922D01*
X108913287Y-118497888D01*
X108995228Y-118300066D01*
X109037000Y-118090060D01*
X109037000Y-117875940D01*
X109403000Y-117875940D01*
X109403000Y-118090060D01*
X109444772Y-118300066D01*
X109526713Y-118497888D01*
X109645672Y-118675922D01*
X109797078Y-118827328D01*
X109975112Y-118946287D01*
X110172934Y-119028228D01*
X110382940Y-119070000D01*
X110597060Y-119070000D01*
X110807066Y-119028228D01*
X111004888Y-118946287D01*
X111182922Y-118827328D01*
X111334328Y-118675922D01*
X111453287Y-118497888D01*
X111535228Y-118300066D01*
X111577000Y-118090060D01*
X111577000Y-117875940D01*
X111535228Y-117665934D01*
X111453287Y-117468112D01*
X111334328Y-117290078D01*
X111182922Y-117138672D01*
X111004888Y-117019713D01*
X110807066Y-116937772D01*
X110597060Y-116896000D01*
X110382940Y-116896000D01*
X110172934Y-116937772D01*
X109975112Y-117019713D01*
X109797078Y-117138672D01*
X109645672Y-117290078D01*
X109526713Y-117468112D01*
X109444772Y-117665934D01*
X109403000Y-117875940D01*
X109037000Y-117875940D01*
X108995228Y-117665934D01*
X108913287Y-117468112D01*
X108794328Y-117290078D01*
X108642922Y-117138672D01*
X108464888Y-117019713D01*
X108267066Y-116937772D01*
X108057060Y-116896000D01*
X107842940Y-116896000D01*
X107632934Y-116937772D01*
X107435112Y-117019713D01*
X107257078Y-117138672D01*
X107105672Y-117290078D01*
X106986713Y-117468112D01*
X106904772Y-117665934D01*
X106863000Y-117875940D01*
X106497000Y-117875940D01*
X106455228Y-117665934D01*
X106373287Y-117468112D01*
X106254328Y-117290078D01*
X106102922Y-117138672D01*
X105924888Y-117019713D01*
X105727066Y-116937772D01*
X105517060Y-116896000D01*
X105302940Y-116896000D01*
X105092934Y-116937772D01*
X104895112Y-117019713D01*
X104717078Y-117138672D01*
X104565672Y-117290078D01*
X104446713Y-117468112D01*
X104364772Y-117665934D01*
X104323000Y-117875940D01*
X103957000Y-117875940D01*
X103915228Y-117665934D01*
X103833287Y-117468112D01*
X103714328Y-117290078D01*
X103562922Y-117138672D01*
X103384888Y-117019713D01*
X103187066Y-116937772D01*
X102977060Y-116896000D01*
X102762940Y-116896000D01*
X102552934Y-116937772D01*
X102355112Y-117019713D01*
X102177078Y-117138672D01*
X102025672Y-117290078D01*
X101906713Y-117468112D01*
X101824772Y-117665934D01*
X101783000Y-117875940D01*
X101417000Y-117875940D01*
X101375228Y-117665934D01*
X101293287Y-117468112D01*
X101174328Y-117290078D01*
X101022922Y-117138672D01*
X100844888Y-117019713D01*
X100647066Y-116937772D01*
X100437060Y-116896000D01*
X100222940Y-116896000D01*
X100012934Y-116937772D01*
X99815112Y-117019713D01*
X99637078Y-117138672D01*
X99485672Y-117290078D01*
X99366713Y-117468112D01*
X99284772Y-117665934D01*
X99243000Y-117875940D01*
X98877000Y-117875940D01*
X98835228Y-117665934D01*
X98753287Y-117468112D01*
X98634328Y-117290078D01*
X98482922Y-117138672D01*
X98304888Y-117019713D01*
X98107066Y-116937772D01*
X97897060Y-116896000D01*
X97682940Y-116896000D01*
X97472934Y-116937772D01*
X97275112Y-117019713D01*
X97097078Y-117138672D01*
X96945672Y-117290078D01*
X96826713Y-117468112D01*
X96744772Y-117665934D01*
X96703000Y-117875940D01*
X96337000Y-117875940D01*
X96295228Y-117665934D01*
X96213287Y-117468112D01*
X96094328Y-117290078D01*
X95942922Y-117138672D01*
X95764888Y-117019713D01*
X95567066Y-116937772D01*
X95357060Y-116896000D01*
X95142940Y-116896000D01*
X94932934Y-116937772D01*
X94735112Y-117019713D01*
X94557078Y-117138672D01*
X94405672Y-117290078D01*
X94286713Y-117468112D01*
X94204772Y-117665934D01*
X94163000Y-117875940D01*
X93797000Y-117875940D01*
X93755228Y-117665934D01*
X93673287Y-117468112D01*
X93554328Y-117290078D01*
X93402922Y-117138672D01*
X93224888Y-117019713D01*
X93027066Y-116937772D01*
X92817060Y-116896000D01*
X92602940Y-116896000D01*
X92392934Y-116937772D01*
X92195112Y-117019713D01*
X92017078Y-117138672D01*
X91865672Y-117290078D01*
X91746713Y-117468112D01*
X91664772Y-117665934D01*
X91623000Y-117875940D01*
X91257000Y-117875940D01*
X91215228Y-117665934D01*
X91133287Y-117468112D01*
X91014328Y-117290078D01*
X90862922Y-117138672D01*
X90684888Y-117019713D01*
X90487066Y-116937772D01*
X90277060Y-116896000D01*
X90062940Y-116896000D01*
X89852934Y-116937772D01*
X89655112Y-117019713D01*
X89477078Y-117138672D01*
X89325672Y-117290078D01*
X89206713Y-117468112D01*
X89124772Y-117665934D01*
X89083000Y-117875940D01*
X88717000Y-117875940D01*
X88675228Y-117665934D01*
X88593287Y-117468112D01*
X88474328Y-117290078D01*
X88322922Y-117138672D01*
X88144888Y-117019713D01*
X87947066Y-116937772D01*
X87737060Y-116896000D01*
X87522940Y-116896000D01*
X87312934Y-116937772D01*
X87115112Y-117019713D01*
X86937078Y-117138672D01*
X86785672Y-117290078D01*
X86666713Y-117468112D01*
X86584772Y-117665934D01*
X86543000Y-117875940D01*
X86177000Y-117875940D01*
X86135228Y-117665934D01*
X86053287Y-117468112D01*
X85934328Y-117290078D01*
X85782922Y-117138672D01*
X85604888Y-117019713D01*
X85407066Y-116937772D01*
X85197060Y-116896000D01*
X84982940Y-116896000D01*
X84772934Y-116937772D01*
X84575112Y-117019713D01*
X84397078Y-117138672D01*
X84245672Y-117290078D01*
X84126713Y-117468112D01*
X84044772Y-117665934D01*
X84003000Y-117875940D01*
X83637000Y-117875940D01*
X83595228Y-117665934D01*
X83513287Y-117468112D01*
X83394328Y-117290078D01*
X83242922Y-117138672D01*
X83064888Y-117019713D01*
X82867066Y-116937772D01*
X82657060Y-116896000D01*
X82442940Y-116896000D01*
X82232934Y-116937772D01*
X82035112Y-117019713D01*
X81857078Y-117138672D01*
X81705672Y-117290078D01*
X81586713Y-117468112D01*
X81504772Y-117665934D01*
X81463000Y-117875940D01*
X81097000Y-117875940D01*
X81055228Y-117665934D01*
X80973287Y-117468112D01*
X80854328Y-117290078D01*
X80702922Y-117138672D01*
X80524888Y-117019713D01*
X80327066Y-116937772D01*
X80117060Y-116896000D01*
X79902940Y-116896000D01*
X79692934Y-116937772D01*
X79495112Y-117019713D01*
X79317078Y-117138672D01*
X79165672Y-117290078D01*
X79046713Y-117468112D01*
X78964772Y-117665934D01*
X78923000Y-117875940D01*
X78401261Y-117875940D01*
X78395703Y-117811071D01*
X78344375Y-117633779D01*
X78259444Y-117469907D01*
X78246143Y-117450001D01*
X78122261Y-117366095D01*
X77505355Y-117983000D01*
X77434645Y-117983000D01*
X76817739Y-117366095D01*
X76693857Y-117450001D01*
X76604788Y-117611661D01*
X76548967Y-117787590D01*
X76528542Y-117971029D01*
X76017000Y-117971029D01*
X76017000Y-117875940D01*
X75975228Y-117665934D01*
X75893287Y-117468112D01*
X75801497Y-117330739D01*
X76853095Y-117330739D01*
X77470000Y-117947645D01*
X78086905Y-117330739D01*
X78002999Y-117206857D01*
X77841339Y-117117788D01*
X77665410Y-117061967D01*
X77481971Y-117041542D01*
X77298071Y-117057297D01*
X77120779Y-117108625D01*
X76956907Y-117193556D01*
X76937001Y-117206857D01*
X76853095Y-117330739D01*
X75801497Y-117330739D01*
X75774328Y-117290078D01*
X75622922Y-117138672D01*
X75444888Y-117019713D01*
X75247066Y-116937772D01*
X75037060Y-116896000D01*
X74822940Y-116896000D01*
X74612934Y-116937772D01*
X74415112Y-117019713D01*
X74237078Y-117138672D01*
X74085672Y-117290078D01*
X73966713Y-117468112D01*
X73884772Y-117665934D01*
X73843000Y-117875940D01*
X65061889Y-117875940D01*
X65059031Y-117837762D01*
X64975963Y-117538841D01*
X64836175Y-117261870D01*
X64794903Y-117200100D01*
X64605680Y-117039675D01*
X63535355Y-118110000D01*
X63464645Y-118110000D01*
X62394320Y-117039675D01*
X62205097Y-117200100D01*
X62052465Y-117470206D01*
X61955462Y-117764900D01*
X61917814Y-118072855D01*
X59510000Y-118072855D01*
X59510000Y-117940102D01*
X59443710Y-117606836D01*
X59313676Y-117292906D01*
X59124895Y-117010376D01*
X59118839Y-117004320D01*
X62429675Y-117004320D01*
X63500000Y-118074645D01*
X64570325Y-117004320D01*
X64409900Y-116815097D01*
X64139794Y-116662465D01*
X63845100Y-116565462D01*
X63537145Y-116527814D01*
X63227762Y-116550969D01*
X62928841Y-116634037D01*
X62651870Y-116773825D01*
X62590100Y-116815097D01*
X62429675Y-117004320D01*
X59118839Y-117004320D01*
X58884624Y-116770105D01*
X58602094Y-116581324D01*
X58288164Y-116451290D01*
X57954898Y-116385000D01*
X57615102Y-116385000D01*
X57281836Y-116451290D01*
X56967906Y-116581324D01*
X56731229Y-116739467D01*
X56769032Y-113540000D01*
X115380000Y-113540000D01*
X115380001Y-127675521D01*
G36*
X201170000Y-77418224D02*
G01*
X194893224Y-83695000D01*
X163830000Y-83695000D01*
X163805614Y-83697402D01*
X163782165Y-83704515D01*
X163760554Y-83716066D01*
X163741612Y-83731612D01*
X159931612Y-87541612D01*
X159916066Y-87560554D01*
X159904515Y-87582165D01*
X159897402Y-87605614D01*
X159895000Y-87630000D01*
X159895000Y-93293224D01*
X152348224Y-100840000D01*
X73785000Y-100840000D01*
X73785000Y-97286007D01*
X142925000Y-97286007D01*
X142925000Y-97743993D01*
X143014348Y-98193178D01*
X143189611Y-98616301D01*
X143444054Y-98997101D01*
X143767899Y-99320946D01*
X144148699Y-99575389D01*
X144571822Y-99750652D01*
X145021007Y-99840000D01*
X145478993Y-99840000D01*
X145928178Y-99750652D01*
X146351301Y-99575389D01*
X146732101Y-99320946D01*
X147055946Y-98997101D01*
X147310389Y-98616301D01*
X147485652Y-98193178D01*
X147575000Y-97743993D01*
X147575000Y-97286007D01*
X147485652Y-96836822D01*
X147310389Y-96413699D01*
X147055946Y-96032899D01*
X146732101Y-95709054D01*
X146351301Y-95454611D01*
X145928178Y-95279348D01*
X145478993Y-95190000D01*
X145021007Y-95190000D01*
X144571822Y-95279348D01*
X144148699Y-95454611D01*
X143767899Y-95709054D01*
X143444054Y-96032899D01*
X143189611Y-96413699D01*
X143014348Y-96836822D01*
X142925000Y-97286007D01*
X73785000Y-97286007D01*
X73785000Y-90635447D01*
X139197738Y-90635447D01*
X139217539Y-90725406D01*
X139329922Y-90987643D01*
X139491306Y-91222917D01*
X139695489Y-91422185D01*
X139934624Y-91577790D01*
X140199521Y-91683752D01*
X140480000Y-91736000D01*
X141480000Y-91736000D01*
X141480000Y-90411000D01*
X141730000Y-90411000D01*
X141730000Y-91736000D01*
X142730000Y-91736000D01*
X143010479Y-91683752D01*
X143275376Y-91577790D01*
X143514511Y-91422185D01*
X143718694Y-91222917D01*
X143880078Y-90987643D01*
X143992461Y-90725406D01*
X144012262Y-90635447D01*
X143999408Y-90411000D01*
X141730000Y-90411000D01*
X141480000Y-90411000D01*
X139210592Y-90411000D01*
X139197738Y-90635447D01*
X73785000Y-90635447D01*
X73785000Y-89936553D01*
X139197738Y-89936553D01*
X139210592Y-90161000D01*
X141480000Y-90161000D01*
X141480000Y-88836000D01*
X141730000Y-88836000D01*
X141730000Y-90161000D01*
X143999408Y-90161000D01*
X144012262Y-89936553D01*
X143992461Y-89846594D01*
X143880078Y-89584357D01*
X143718694Y-89349083D01*
X143514511Y-89149815D01*
X143275376Y-88994210D01*
X143010479Y-88888248D01*
X142730000Y-88836000D01*
X141730000Y-88836000D01*
X141480000Y-88836000D01*
X140480000Y-88836000D01*
X140199521Y-88888248D01*
X139934624Y-88994210D01*
X139695489Y-89149815D01*
X139491306Y-89349083D01*
X139329922Y-89584357D01*
X139217539Y-89846594D01*
X139197738Y-89936553D01*
X73785000Y-89936553D01*
X73785000Y-88083636D01*
X86828141Y-88083636D01*
X87068821Y-88329062D01*
X87454491Y-88526703D01*
X87871307Y-88645307D01*
X88303253Y-88680314D01*
X88733729Y-88630380D01*
X89146192Y-88497424D01*
X89461179Y-88329062D01*
X89701859Y-88083636D01*
X88265000Y-86646777D01*
X86828141Y-88083636D01*
X73785000Y-88083636D01*
X73785000Y-86508253D01*
X86054686Y-86508253D01*
X86104620Y-86938729D01*
X86237576Y-87351192D01*
X86405938Y-87666179D01*
X86651364Y-87906859D01*
X88088223Y-86470000D01*
X88441777Y-86470000D01*
X89878636Y-87906859D01*
X90124062Y-87666179D01*
X90321703Y-87280509D01*
X90440307Y-86863693D01*
X90475314Y-86431747D01*
X90425380Y-86001271D01*
X90292424Y-85588808D01*
X90124062Y-85273821D01*
X89878636Y-85033141D01*
X88441777Y-86470000D01*
X88088223Y-86470000D01*
X86651364Y-85033141D01*
X86405938Y-85273821D01*
X86208297Y-85659491D01*
X86089693Y-86076307D01*
X86054686Y-86508253D01*
X73785000Y-86508253D01*
X73785000Y-84856364D01*
X86828141Y-84856364D01*
X88265000Y-86293223D01*
X89701859Y-84856364D01*
X89461179Y-84610938D01*
X89415071Y-84587309D01*
X106060000Y-84587309D01*
X106060000Y-85084691D01*
X106157035Y-85572515D01*
X106347374Y-86032036D01*
X106623705Y-86445593D01*
X106975407Y-86797295D01*
X107388964Y-87073626D01*
X107848485Y-87263965D01*
X108336309Y-87361000D01*
X108833691Y-87361000D01*
X109321515Y-87263965D01*
X109781036Y-87073626D01*
X110194593Y-86797295D01*
X110546295Y-86445593D01*
X110822626Y-86032036D01*
X111012965Y-85572515D01*
X111110000Y-85084691D01*
X111110000Y-84587309D01*
X127860000Y-84587309D01*
X127860000Y-85084691D01*
X127957035Y-85572515D01*
X128147374Y-86032036D01*
X128423705Y-86445593D01*
X128775407Y-86797295D01*
X129188964Y-87073626D01*
X129648485Y-87263965D01*
X130136309Y-87361000D01*
X130633691Y-87361000D01*
X131121515Y-87263965D01*
X131581036Y-87073626D01*
X131994593Y-86797295D01*
X132346295Y-86445593D01*
X132622626Y-86032036D01*
X132812965Y-85572515D01*
X132910000Y-85084691D01*
X132910000Y-84836000D01*
X138720928Y-84836000D01*
X138757130Y-85203564D01*
X138864344Y-85557003D01*
X139038451Y-85882734D01*
X139272760Y-86168240D01*
X139558266Y-86402549D01*
X139883997Y-86576656D01*
X140237436Y-86683870D01*
X140512891Y-86711000D01*
X142697109Y-86711000D01*
X142972564Y-86683870D01*
X143326003Y-86576656D01*
X143651734Y-86402549D01*
X143937240Y-86168240D01*
X144171549Y-85882734D01*
X144345656Y-85557003D01*
X144452870Y-85203564D01*
X144489072Y-84836000D01*
X144452870Y-84468436D01*
X144345656Y-84114997D01*
X144171549Y-83789266D01*
X143937240Y-83503760D01*
X143651734Y-83269451D01*
X143326003Y-83095344D01*
X142972564Y-82988130D01*
X142697109Y-82961000D01*
X140512891Y-82961000D01*
X140237436Y-82988130D01*
X139883997Y-83095344D01*
X139558266Y-83269451D01*
X139272760Y-83503760D01*
X139038451Y-83789266D01*
X138864344Y-84114997D01*
X138757130Y-84468436D01*
X138720928Y-84836000D01*
X132910000Y-84836000D01*
X132910000Y-84587309D01*
X132812965Y-84099485D01*
X132622626Y-83639964D01*
X132346295Y-83226407D01*
X131994593Y-82874705D01*
X131581036Y-82598374D01*
X131121515Y-82408035D01*
X130633691Y-82311000D01*
X130136309Y-82311000D01*
X129648485Y-82408035D01*
X129188964Y-82598374D01*
X128775407Y-82874705D01*
X128423705Y-83226407D01*
X128147374Y-83639964D01*
X127957035Y-84099485D01*
X127860000Y-84587309D01*
X111110000Y-84587309D01*
X111012965Y-84099485D01*
X110822626Y-83639964D01*
X110546295Y-83226407D01*
X110194593Y-82874705D01*
X109781036Y-82598374D01*
X109321515Y-82408035D01*
X108833691Y-82311000D01*
X108336309Y-82311000D01*
X107848485Y-82408035D01*
X107388964Y-82598374D01*
X106975407Y-82874705D01*
X106623705Y-83226407D01*
X106347374Y-83639964D01*
X106157035Y-84099485D01*
X106060000Y-84587309D01*
X89415071Y-84587309D01*
X89075509Y-84413297D01*
X88658693Y-84294693D01*
X88226747Y-84259686D01*
X87796271Y-84309620D01*
X87383808Y-84442576D01*
X87068821Y-84610938D01*
X86828141Y-84856364D01*
X73785000Y-84856364D01*
X73785000Y-77521776D01*
X75836776Y-75470000D01*
X85636976Y-75470000D01*
X85636976Y-79470000D01*
X85649043Y-79592521D01*
X85684781Y-79710334D01*
X85742817Y-79818911D01*
X85820920Y-79914080D01*
X85916089Y-79992183D01*
X86024666Y-80050219D01*
X86142479Y-80085957D01*
X86265000Y-80098024D01*
X90265000Y-80098024D01*
X90387521Y-80085957D01*
X90505334Y-80050219D01*
X90613911Y-79992183D01*
X90709080Y-79914080D01*
X90787183Y-79818911D01*
X90845219Y-79710334D01*
X90880957Y-79592521D01*
X90893024Y-79470000D01*
X90893024Y-78136000D01*
X139028428Y-78136000D01*
X139028428Y-80636000D01*
X139034703Y-80699711D01*
X139053287Y-80760974D01*
X139083465Y-80817434D01*
X139124079Y-80866921D01*
X139173566Y-80907535D01*
X139230026Y-80937713D01*
X139291289Y-80956297D01*
X139355000Y-80962572D01*
X143855000Y-80962572D01*
X143918711Y-80956297D01*
X143979974Y-80937713D01*
X144036434Y-80907535D01*
X144085921Y-80866921D01*
X144126535Y-80817434D01*
X144156713Y-80760974D01*
X144175297Y-80699711D01*
X144181572Y-80636000D01*
X144181572Y-80578297D01*
X144590000Y-80986726D01*
X144590001Y-89494477D01*
X144586010Y-89535000D01*
X144601938Y-89696728D01*
X144640982Y-89825437D01*
X144649113Y-89852241D01*
X144725720Y-89995563D01*
X144828816Y-90121185D01*
X144860291Y-90147016D01*
X145553983Y-90840709D01*
X145579815Y-90872185D01*
X145705437Y-90975281D01*
X145848759Y-91051888D01*
X145957097Y-91084752D01*
X146004271Y-91099062D01*
X146019870Y-91100598D01*
X146125479Y-91111000D01*
X146125486Y-91111000D01*
X146165999Y-91114990D01*
X146206512Y-91111000D01*
X146648428Y-91111000D01*
X146648428Y-91536000D01*
X146654703Y-91599711D01*
X146673287Y-91660974D01*
X146703465Y-91717434D01*
X146744079Y-91766921D01*
X146793566Y-91807535D01*
X146850026Y-91837713D01*
X146911289Y-91856297D01*
X146975000Y-91862572D01*
X151475000Y-91862572D01*
X151538711Y-91856297D01*
X151599974Y-91837713D01*
X151656434Y-91807535D01*
X151705921Y-91766921D01*
X151746535Y-91717434D01*
X151776713Y-91660974D01*
X151795297Y-91599711D01*
X151801572Y-91536000D01*
X151801572Y-89036000D01*
X151795297Y-88972289D01*
X151776713Y-88911026D01*
X151746535Y-88854566D01*
X151705921Y-88805079D01*
X151656434Y-88764465D01*
X151599974Y-88734287D01*
X151538711Y-88715703D01*
X151475000Y-88709428D01*
X146975000Y-88709428D01*
X146911289Y-88715703D01*
X146850026Y-88734287D01*
X146793566Y-88764465D01*
X146744079Y-88805079D01*
X146703465Y-88854566D01*
X146673287Y-88911026D01*
X146654703Y-88972289D01*
X146648428Y-89036000D01*
X146648428Y-89461000D01*
X146507726Y-89461000D01*
X146240000Y-89193275D01*
X146240000Y-84836000D01*
X146340928Y-84836000D01*
X146377130Y-85203564D01*
X146484344Y-85557003D01*
X146658451Y-85882734D01*
X146892760Y-86168240D01*
X147178266Y-86402549D01*
X147503997Y-86576656D01*
X147857436Y-86683870D01*
X148132891Y-86711000D01*
X150317109Y-86711000D01*
X150592564Y-86683870D01*
X150946003Y-86576656D01*
X151271734Y-86402549D01*
X151557240Y-86168240D01*
X151791549Y-85882734D01*
X151965656Y-85557003D01*
X152072870Y-85203564D01*
X152109072Y-84836000D01*
X152072870Y-84468436D01*
X151965656Y-84114997D01*
X151791549Y-83789266D01*
X151557240Y-83503760D01*
X151271734Y-83269451D01*
X150946003Y-83095344D01*
X150592564Y-82988130D01*
X150317109Y-82961000D01*
X148132891Y-82961000D01*
X147857436Y-82988130D01*
X147503997Y-83095344D01*
X147178266Y-83269451D01*
X146892760Y-83503760D01*
X146658451Y-83789266D01*
X146484344Y-84114997D01*
X146377130Y-84468436D01*
X146340928Y-84836000D01*
X146240000Y-84836000D01*
X146240000Y-82085326D01*
X192284450Y-82085326D01*
X192452981Y-82269227D01*
X192736458Y-82406972D01*
X193041362Y-82486769D01*
X193355974Y-82505547D01*
X193668205Y-82462587D01*
X193966055Y-82359539D01*
X194135019Y-82269227D01*
X194303550Y-82085326D01*
X193294000Y-81075777D01*
X192284450Y-82085326D01*
X146240000Y-82085326D01*
X146240000Y-80960974D01*
X191687453Y-80960974D01*
X191730413Y-81273205D01*
X191833461Y-81571055D01*
X191923773Y-81740019D01*
X192107674Y-81908550D01*
X193117223Y-80899000D01*
X193470777Y-80899000D01*
X194480326Y-81908550D01*
X194664227Y-81740019D01*
X194801972Y-81456542D01*
X194881769Y-81151638D01*
X194900547Y-80837026D01*
X194857587Y-80524795D01*
X194754539Y-80226945D01*
X194664227Y-80057981D01*
X194480326Y-79889450D01*
X193470777Y-80899000D01*
X193117223Y-80899000D01*
X192107674Y-79889450D01*
X191923773Y-80057981D01*
X191786028Y-80341458D01*
X191706231Y-80646362D01*
X191687453Y-80960974D01*
X146240000Y-80960974D01*
X146240000Y-80685513D01*
X146243990Y-80645000D01*
X146240000Y-80604487D01*
X146240000Y-80604479D01*
X146228062Y-80483272D01*
X146180888Y-80327759D01*
X146104281Y-80184437D01*
X146001185Y-80058815D01*
X145969711Y-80032985D01*
X145672173Y-79735447D01*
X146817738Y-79735447D01*
X146837539Y-79825406D01*
X146949922Y-80087643D01*
X147111306Y-80322917D01*
X147315489Y-80522185D01*
X147554624Y-80677790D01*
X147819521Y-80783752D01*
X148100000Y-80836000D01*
X149100000Y-80836000D01*
X149100000Y-79511000D01*
X149350000Y-79511000D01*
X149350000Y-80836000D01*
X150350000Y-80836000D01*
X150630479Y-80783752D01*
X150895376Y-80677790D01*
X151134511Y-80522185D01*
X151338694Y-80322917D01*
X151500078Y-80087643D01*
X151612461Y-79825406D01*
X151632262Y-79735447D01*
X151630958Y-79712674D01*
X192284450Y-79712674D01*
X193294000Y-80722223D01*
X194303550Y-79712674D01*
X194135019Y-79528773D01*
X193851542Y-79391028D01*
X193546638Y-79311231D01*
X193232026Y-79292453D01*
X192919795Y-79335413D01*
X192621945Y-79438461D01*
X192452981Y-79528773D01*
X192284450Y-79712674D01*
X151630958Y-79712674D01*
X151619408Y-79511000D01*
X149350000Y-79511000D01*
X149100000Y-79511000D01*
X146830592Y-79511000D01*
X146817738Y-79735447D01*
X145672173Y-79735447D01*
X144973279Y-79036553D01*
X146817738Y-79036553D01*
X146830592Y-79261000D01*
X149100000Y-79261000D01*
X149100000Y-77936000D01*
X149350000Y-77936000D01*
X149350000Y-79261000D01*
X151619408Y-79261000D01*
X151632262Y-79036553D01*
X151612461Y-78946594D01*
X151500078Y-78684357D01*
X151338694Y-78449083D01*
X151134511Y-78249815D01*
X150895376Y-78094210D01*
X150630479Y-77988248D01*
X150350000Y-77936000D01*
X149350000Y-77936000D01*
X149100000Y-77936000D01*
X148100000Y-77936000D01*
X147819521Y-77988248D01*
X147554624Y-78094210D01*
X147315489Y-78249815D01*
X147111306Y-78449083D01*
X146949922Y-78684357D01*
X146837539Y-78946594D01*
X146817738Y-79036553D01*
X144973279Y-79036553D01*
X144768021Y-78831296D01*
X144742185Y-78799815D01*
X144616563Y-78696719D01*
X144473241Y-78620112D01*
X144317728Y-78572938D01*
X144196521Y-78561000D01*
X144196513Y-78561000D01*
X144181572Y-78559528D01*
X144181572Y-78136000D01*
X144175297Y-78072289D01*
X144156713Y-78011026D01*
X144126535Y-77954566D01*
X144085921Y-77905079D01*
X144053770Y-77878692D01*
X163323084Y-77878692D01*
X163467517Y-78042076D01*
X163716888Y-78159832D01*
X163984441Y-78226675D01*
X164259893Y-78240037D01*
X164532660Y-78199404D01*
X164792258Y-78106338D01*
X164912483Y-78042076D01*
X165056916Y-77878692D01*
X164190000Y-77011777D01*
X163323084Y-77878692D01*
X144053770Y-77878692D01*
X144036434Y-77864465D01*
X143979974Y-77834287D01*
X143918711Y-77815703D01*
X143855000Y-77809428D01*
X139355000Y-77809428D01*
X139291289Y-77815703D01*
X139230026Y-77834287D01*
X139173566Y-77864465D01*
X139124079Y-77905079D01*
X139083465Y-77954566D01*
X139053287Y-78011026D01*
X139034703Y-78072289D01*
X139028428Y-78136000D01*
X90893024Y-78136000D01*
X90893024Y-76904893D01*
X162784963Y-76904893D01*
X162825596Y-77177660D01*
X162918662Y-77437258D01*
X162982924Y-77557483D01*
X163146308Y-77701916D01*
X164013223Y-76835000D01*
X164366777Y-76835000D01*
X165233692Y-77701916D01*
X165397076Y-77557483D01*
X165514832Y-77308112D01*
X165581675Y-77040559D01*
X165595037Y-76765107D01*
X165578673Y-76655253D01*
X184865000Y-76655253D01*
X184865000Y-77014747D01*
X184935134Y-77367333D01*
X185072706Y-77699461D01*
X185272430Y-77998369D01*
X185526631Y-78252570D01*
X185825539Y-78452294D01*
X186157667Y-78589866D01*
X186510253Y-78660000D01*
X186869747Y-78660000D01*
X187222333Y-78589866D01*
X187554461Y-78452294D01*
X187853369Y-78252570D01*
X188107570Y-77998369D01*
X188307294Y-77699461D01*
X188444866Y-77367333D01*
X188515000Y-77014747D01*
X188515000Y-76694000D01*
X191464593Y-76694000D01*
X191499468Y-76778197D01*
X191721080Y-77109862D01*
X192003138Y-77391920D01*
X192334803Y-77613532D01*
X192703329Y-77766180D01*
X193094555Y-77844000D01*
X193493445Y-77844000D01*
X193884671Y-77766180D01*
X194253197Y-77613532D01*
X194584862Y-77391920D01*
X194866920Y-77109862D01*
X195088532Y-76778197D01*
X195241180Y-76409671D01*
X195319000Y-76018445D01*
X195319000Y-75619555D01*
X195241180Y-75228329D01*
X195088532Y-74859803D01*
X194866920Y-74528138D01*
X194584862Y-74246080D01*
X194253197Y-74024468D01*
X193884671Y-73871820D01*
X193493445Y-73794000D01*
X193094555Y-73794000D01*
X192703329Y-73871820D01*
X192334803Y-74024468D01*
X192003138Y-74246080D01*
X191721080Y-74528138D01*
X191499468Y-74859803D01*
X191464593Y-74944000D01*
X187748979Y-74944000D01*
X187706000Y-74939767D01*
X187663021Y-74944000D01*
X187534470Y-74956661D01*
X187369532Y-75006695D01*
X187227856Y-75082422D01*
X187222333Y-75080134D01*
X186869747Y-75010000D01*
X186510253Y-75010000D01*
X186157667Y-75080134D01*
X185825539Y-75217706D01*
X185526631Y-75417430D01*
X185272430Y-75671631D01*
X185072706Y-75970539D01*
X184935134Y-76302667D01*
X184865000Y-76655253D01*
X165578673Y-76655253D01*
X165554404Y-76492340D01*
X165461338Y-76232742D01*
X165397076Y-76112517D01*
X165233692Y-75968084D01*
X164366777Y-76835000D01*
X164013223Y-76835000D01*
X163146308Y-75968084D01*
X162982924Y-76112517D01*
X162865168Y-76361888D01*
X162798325Y-76629441D01*
X162784963Y-76904893D01*
X90893024Y-76904893D01*
X90893024Y-75791308D01*
X163323084Y-75791308D01*
X164190000Y-76658223D01*
X165056916Y-75791308D01*
X164912483Y-75627924D01*
X164663112Y-75510168D01*
X164395559Y-75443325D01*
X164120107Y-75429963D01*
X163847340Y-75470596D01*
X163587742Y-75563662D01*
X163467517Y-75627924D01*
X163323084Y-75791308D01*
X90893024Y-75791308D01*
X90893024Y-75470000D01*
X90880957Y-75347479D01*
X90845219Y-75229666D01*
X90787183Y-75121089D01*
X90709080Y-75025920D01*
X90613911Y-74947817D01*
X90505334Y-74889781D01*
X90387521Y-74854043D01*
X90265000Y-74841976D01*
X86265000Y-74841976D01*
X86142479Y-74854043D01*
X86024666Y-74889781D01*
X85916089Y-74947817D01*
X85820920Y-75025920D01*
X85742817Y-75121089D01*
X85684781Y-75229666D01*
X85649043Y-75347479D01*
X85636976Y-75470000D01*
X75836776Y-75470000D01*
X79420769Y-71886007D01*
X142925000Y-71886007D01*
X142925000Y-72343993D01*
X143014348Y-72793178D01*
X143189611Y-73216301D01*
X143444054Y-73597101D01*
X143767899Y-73920946D01*
X144148699Y-74175389D01*
X144571822Y-74350652D01*
X145021007Y-74440000D01*
X145478993Y-74440000D01*
X145928178Y-74350652D01*
X146351301Y-74175389D01*
X146732101Y-73920946D01*
X147055946Y-73597101D01*
X147310389Y-73216301D01*
X147485652Y-72793178D01*
X147575000Y-72343993D01*
X147575000Y-71886007D01*
X147485652Y-71436822D01*
X147310389Y-71013699D01*
X147055946Y-70632899D01*
X146732101Y-70309054D01*
X146351301Y-70054611D01*
X145928178Y-69879348D01*
X145478993Y-69790000D01*
X145021007Y-69790000D01*
X144571822Y-69879348D01*
X144148699Y-70054611D01*
X143767899Y-70309054D01*
X143444054Y-70632899D01*
X143189611Y-71013699D01*
X143014348Y-71436822D01*
X142925000Y-71886007D01*
X79420769Y-71886007D01*
X86448388Y-64858388D01*
X86463934Y-64839446D01*
X86475485Y-64817835D01*
X86482598Y-64794386D01*
X86485000Y-64770000D01*
X86485000Y-63955253D01*
X162005000Y-63955253D01*
X162005000Y-64314747D01*
X162075134Y-64667333D01*
X162212706Y-64999461D01*
X162412430Y-65298369D01*
X162666631Y-65552570D01*
X162965539Y-65752294D01*
X163297667Y-65889866D01*
X163650253Y-65960000D01*
X164009747Y-65960000D01*
X164349903Y-65892339D01*
X169784883Y-71327319D01*
X169812288Y-71360712D01*
X169945524Y-71470056D01*
X170097532Y-71551305D01*
X170224080Y-71589694D01*
X170262469Y-71601339D01*
X170433999Y-71618233D01*
X170476978Y-71614000D01*
X191464593Y-71614000D01*
X191499468Y-71698197D01*
X191721080Y-72029862D01*
X192003138Y-72311920D01*
X192334803Y-72533532D01*
X192703329Y-72686180D01*
X193094555Y-72764000D01*
X193493445Y-72764000D01*
X193884671Y-72686180D01*
X194253197Y-72533532D01*
X194584862Y-72311920D01*
X194866920Y-72029862D01*
X195088532Y-71698197D01*
X195241180Y-71329671D01*
X195319000Y-70938445D01*
X195319000Y-70539555D01*
X195241180Y-70148329D01*
X195088532Y-69779803D01*
X194866920Y-69448138D01*
X194584862Y-69166080D01*
X194253197Y-68944468D01*
X193884671Y-68791820D01*
X193493445Y-68714000D01*
X193094555Y-68714000D01*
X192703329Y-68791820D01*
X192334803Y-68944468D01*
X192003138Y-69166080D01*
X191721080Y-69448138D01*
X191499468Y-69779803D01*
X191464593Y-69864000D01*
X170796436Y-69864000D01*
X165587339Y-64654903D01*
X165655000Y-64314747D01*
X165655000Y-63955253D01*
X184405000Y-63955253D01*
X184405000Y-64314747D01*
X184475134Y-64667333D01*
X184612706Y-64999461D01*
X184812430Y-65298369D01*
X185066631Y-65552570D01*
X185365539Y-65752294D01*
X185697667Y-65889866D01*
X186050253Y-65960000D01*
X186409747Y-65960000D01*
X186762333Y-65889866D01*
X187094461Y-65752294D01*
X187393369Y-65552570D01*
X187647570Y-65298369D01*
X187847294Y-64999461D01*
X187984866Y-64667333D01*
X188055000Y-64314747D01*
X188055000Y-63955253D01*
X187984866Y-63602667D01*
X187847294Y-63270539D01*
X187647570Y-62971631D01*
X187393369Y-62717430D01*
X187094461Y-62517706D01*
X186762333Y-62380134D01*
X186409747Y-62310000D01*
X186050253Y-62310000D01*
X185697667Y-62380134D01*
X185365539Y-62517706D01*
X185066631Y-62717430D01*
X184812430Y-62971631D01*
X184612706Y-63270539D01*
X184475134Y-63602667D01*
X184405000Y-63955253D01*
X165655000Y-63955253D01*
X165584866Y-63602667D01*
X165447294Y-63270539D01*
X165247570Y-62971631D01*
X164993369Y-62717430D01*
X164694461Y-62517706D01*
X164362333Y-62380134D01*
X164009747Y-62310000D01*
X163650253Y-62310000D01*
X163297667Y-62380134D01*
X162965539Y-62517706D01*
X162666631Y-62717430D01*
X162412430Y-62971631D01*
X162212706Y-63270539D01*
X162075134Y-63602667D01*
X162005000Y-63955253D01*
X86485000Y-63955253D01*
X86485000Y-50070000D01*
X97701976Y-50070000D01*
X97701976Y-54070000D01*
X97714043Y-54192521D01*
X97749781Y-54310334D01*
X97807817Y-54418911D01*
X97885920Y-54514080D01*
X97981089Y-54592183D01*
X98089666Y-54650219D01*
X98207479Y-54685957D01*
X98330000Y-54698024D01*
X102330000Y-54698024D01*
X102452521Y-54685957D01*
X102570334Y-54650219D01*
X102678911Y-54592183D01*
X102774080Y-54514080D01*
X102852183Y-54418911D01*
X102910219Y-54310334D01*
X102945957Y-54192521D01*
X102958024Y-54070000D01*
X102958024Y-50070000D01*
X102945957Y-49947479D01*
X102910219Y-49829666D01*
X102852183Y-49721089D01*
X102774080Y-49625920D01*
X102678911Y-49547817D01*
X102570334Y-49489781D01*
X102452521Y-49454043D01*
X102330000Y-49441976D01*
X98330000Y-49441976D01*
X98207479Y-49454043D01*
X98089666Y-49489781D01*
X97981089Y-49547817D01*
X97885920Y-49625920D01*
X97807817Y-49721089D01*
X97749781Y-49829666D01*
X97714043Y-49947479D01*
X97701976Y-50070000D01*
X86485000Y-50070000D01*
X86485000Y-49265000D01*
X133726976Y-49265000D01*
X133726976Y-51065000D01*
X133739043Y-51187521D01*
X133774781Y-51305334D01*
X133832817Y-51413911D01*
X133910920Y-51509080D01*
X134006089Y-51587183D01*
X134114666Y-51645219D01*
X134232479Y-51680957D01*
X134355000Y-51693024D01*
X136155000Y-51693024D01*
X136277521Y-51680957D01*
X136395334Y-51645219D01*
X136503911Y-51587183D01*
X136599080Y-51509080D01*
X136677183Y-51413911D01*
X136735219Y-51305334D01*
X136770957Y-51187521D01*
X136783024Y-51065000D01*
X136783024Y-49265000D01*
X136770957Y-49142479D01*
X136735219Y-49024666D01*
X136677183Y-48916089D01*
X136599080Y-48820920D01*
X136503911Y-48742817D01*
X136395334Y-48684781D01*
X136277521Y-48649043D01*
X136155000Y-48636976D01*
X134355000Y-48636976D01*
X134232479Y-48649043D01*
X134114666Y-48684781D01*
X134006089Y-48742817D01*
X133910920Y-48820920D01*
X133832817Y-48916089D01*
X133774781Y-49024666D01*
X133739043Y-49142479D01*
X133726976Y-49265000D01*
X86485000Y-49265000D01*
X86485000Y-46086007D01*
X122525000Y-46086007D01*
X122525000Y-46543993D01*
X122614348Y-46993178D01*
X122789611Y-47416301D01*
X123044054Y-47797101D01*
X123367899Y-48120946D01*
X123748699Y-48375389D01*
X124171822Y-48550652D01*
X124621007Y-48640000D01*
X125078993Y-48640000D01*
X125528178Y-48550652D01*
X125951301Y-48375389D01*
X126332101Y-48120946D01*
X126655946Y-47797101D01*
X126910389Y-47416301D01*
X127085652Y-46993178D01*
X127175000Y-46543993D01*
X127175000Y-46086007D01*
X127085652Y-45636822D01*
X126910389Y-45213699D01*
X126655946Y-44832899D01*
X126332101Y-44509054D01*
X125951301Y-44254611D01*
X125528178Y-44079348D01*
X125078993Y-43990000D01*
X124621007Y-43990000D01*
X124171822Y-44079348D01*
X123748699Y-44254611D01*
X123367899Y-44509054D01*
X123044054Y-44832899D01*
X122789611Y-45213699D01*
X122614348Y-45636822D01*
X122525000Y-46086007D01*
X86485000Y-46086007D01*
X86485000Y-44683636D01*
X98893141Y-44683636D01*
X99133821Y-44929062D01*
X99519491Y-45126703D01*
X99936307Y-45245307D01*
X100368253Y-45280314D01*
X100798729Y-45230380D01*
X101211192Y-45097424D01*
X101526179Y-44929062D01*
X101766859Y-44683636D01*
X100330000Y-43246777D01*
X98893141Y-44683636D01*
X86485000Y-44683636D01*
X86485000Y-43108253D01*
X98119686Y-43108253D01*
X98169620Y-43538729D01*
X98302576Y-43951192D01*
X98470938Y-44266179D01*
X98716364Y-44506859D01*
X100153223Y-43070000D01*
X100506777Y-43070000D01*
X101943636Y-44506859D01*
X102189062Y-44266179D01*
X102386703Y-43880509D01*
X102405343Y-43815000D01*
X133370929Y-43815000D01*
X133380000Y-43907102D01*
X133380000Y-43907108D01*
X133396964Y-44079348D01*
X133407130Y-44182564D01*
X133436450Y-44279219D01*
X133514344Y-44536002D01*
X133688451Y-44861733D01*
X133922760Y-45147240D01*
X133994308Y-45205958D01*
X138460000Y-49671651D01*
X138460000Y-50257108D01*
X138487130Y-50532563D01*
X138594344Y-50886002D01*
X138768451Y-51211733D01*
X139002760Y-51497240D01*
X139288266Y-51731549D01*
X139613997Y-51905656D01*
X139967436Y-52012870D01*
X140335000Y-52049072D01*
X140702563Y-52012870D01*
X141056002Y-51905656D01*
X141381733Y-51731549D01*
X141667240Y-51497240D01*
X141901549Y-51211734D01*
X142075656Y-50886003D01*
X142182870Y-50532564D01*
X142210000Y-50257109D01*
X142210000Y-48987102D01*
X142219071Y-48895000D01*
X142210000Y-48802898D01*
X142210000Y-48802891D01*
X142182870Y-48527436D01*
X142075656Y-48173997D01*
X141901549Y-47848266D01*
X141667240Y-47562760D01*
X141595697Y-47504046D01*
X140177658Y-46086007D01*
X147925000Y-46086007D01*
X147925000Y-46543993D01*
X148014348Y-46993178D01*
X148189611Y-47416301D01*
X148444054Y-47797101D01*
X148767899Y-48120946D01*
X149148699Y-48375389D01*
X149571822Y-48550652D01*
X150021007Y-48640000D01*
X150478993Y-48640000D01*
X150928178Y-48550652D01*
X151351301Y-48375389D01*
X151732101Y-48120946D01*
X152055946Y-47797101D01*
X152310389Y-47416301D01*
X152485652Y-46993178D01*
X152575000Y-46543993D01*
X152575000Y-46386007D01*
X167025000Y-46386007D01*
X167025000Y-46843993D01*
X167114348Y-47293178D01*
X167289611Y-47716301D01*
X167544054Y-48097101D01*
X167867899Y-48420946D01*
X168248699Y-48675389D01*
X168671822Y-48850652D01*
X169121007Y-48940000D01*
X169578993Y-48940000D01*
X170028178Y-48850652D01*
X170451301Y-48675389D01*
X170832101Y-48420946D01*
X171155946Y-48097101D01*
X171410389Y-47716301D01*
X171585652Y-47293178D01*
X171675000Y-46843993D01*
X171675000Y-46386007D01*
X192425000Y-46386007D01*
X192425000Y-46843993D01*
X192514348Y-47293178D01*
X192689611Y-47716301D01*
X192944054Y-48097101D01*
X193267899Y-48420946D01*
X193648699Y-48675389D01*
X194071822Y-48850652D01*
X194521007Y-48940000D01*
X194978993Y-48940000D01*
X195428178Y-48850652D01*
X195851301Y-48675389D01*
X196232101Y-48420946D01*
X196555946Y-48097101D01*
X196810389Y-47716301D01*
X196985652Y-47293178D01*
X197075000Y-46843993D01*
X197075000Y-46386007D01*
X196985652Y-45936822D01*
X196810389Y-45513699D01*
X196555946Y-45132899D01*
X196232101Y-44809054D01*
X195851301Y-44554611D01*
X195428178Y-44379348D01*
X194978993Y-44290000D01*
X194521007Y-44290000D01*
X194071822Y-44379348D01*
X193648699Y-44554611D01*
X193267899Y-44809054D01*
X192944054Y-45132899D01*
X192689611Y-45513699D01*
X192514348Y-45936822D01*
X192425000Y-46386007D01*
X171675000Y-46386007D01*
X171585652Y-45936822D01*
X171410389Y-45513699D01*
X171155946Y-45132899D01*
X170832101Y-44809054D01*
X170451301Y-44554611D01*
X170028178Y-44379348D01*
X169578993Y-44290000D01*
X169121007Y-44290000D01*
X168671822Y-44379348D01*
X168248699Y-44554611D01*
X167867899Y-44809054D01*
X167544054Y-45132899D01*
X167289611Y-45513699D01*
X167114348Y-45936822D01*
X167025000Y-46386007D01*
X152575000Y-46386007D01*
X152575000Y-46086007D01*
X152485652Y-45636822D01*
X152310389Y-45213699D01*
X152055946Y-44832899D01*
X151732101Y-44509054D01*
X151351301Y-44254611D01*
X150928178Y-44079348D01*
X150478993Y-43990000D01*
X150021007Y-43990000D01*
X149571822Y-44079348D01*
X149148699Y-44254611D01*
X148767899Y-44509054D01*
X148444054Y-44832899D01*
X148189611Y-45213699D01*
X148014348Y-45636822D01*
X147925000Y-46086007D01*
X140177658Y-46086007D01*
X137130000Y-43038350D01*
X137130000Y-42452891D01*
X137102870Y-42177436D01*
X136995656Y-41823997D01*
X136899981Y-41645000D01*
X138806976Y-41645000D01*
X138806976Y-43445000D01*
X138819043Y-43567521D01*
X138854781Y-43685334D01*
X138912817Y-43793911D01*
X138990920Y-43889080D01*
X139086089Y-43967183D01*
X139194666Y-44025219D01*
X139312479Y-44060957D01*
X139435000Y-44073024D01*
X141235000Y-44073024D01*
X141357521Y-44060957D01*
X141475334Y-44025219D01*
X141583911Y-43967183D01*
X141679080Y-43889080D01*
X141757183Y-43793911D01*
X141815219Y-43685334D01*
X141850957Y-43567521D01*
X141863024Y-43445000D01*
X141863024Y-42648801D01*
X178053000Y-42648801D01*
X178053000Y-42949199D01*
X178111605Y-43243826D01*
X178226562Y-43521358D01*
X178393455Y-43771131D01*
X178605869Y-43983545D01*
X178855642Y-44150438D01*
X179133174Y-44265395D01*
X179427801Y-44324000D01*
X179728199Y-44324000D01*
X180022826Y-44265395D01*
X180300358Y-44150438D01*
X180550131Y-43983545D01*
X180762545Y-43771131D01*
X180929438Y-43521358D01*
X181044395Y-43243826D01*
X181103000Y-42949199D01*
X181103000Y-42648801D01*
X181044395Y-42354174D01*
X180929438Y-42076642D01*
X180810742Y-41899000D01*
X183129976Y-41899000D01*
X183129976Y-43699000D01*
X183142043Y-43821521D01*
X183177781Y-43939334D01*
X183235817Y-44047911D01*
X183313920Y-44143080D01*
X183409089Y-44221183D01*
X183517666Y-44279219D01*
X183635479Y-44314957D01*
X183758000Y-44327024D01*
X185558000Y-44327024D01*
X185680521Y-44314957D01*
X185798334Y-44279219D01*
X185906911Y-44221183D01*
X186002080Y-44143080D01*
X186080183Y-44047911D01*
X186138219Y-43939334D01*
X186173957Y-43821521D01*
X186186024Y-43699000D01*
X186186024Y-41899000D01*
X186173957Y-41776479D01*
X186138219Y-41658666D01*
X186080183Y-41550089D01*
X186002080Y-41454920D01*
X185906911Y-41376817D01*
X185798334Y-41318781D01*
X185680521Y-41283043D01*
X185558000Y-41270976D01*
X183758000Y-41270976D01*
X183635479Y-41283043D01*
X183517666Y-41318781D01*
X183409089Y-41376817D01*
X183313920Y-41454920D01*
X183235817Y-41550089D01*
X183177781Y-41658666D01*
X183142043Y-41776479D01*
X183129976Y-41899000D01*
X180810742Y-41899000D01*
X180762545Y-41826869D01*
X180550131Y-41614455D01*
X180300358Y-41447562D01*
X180022826Y-41332605D01*
X179728199Y-41274000D01*
X179427801Y-41274000D01*
X179133174Y-41332605D01*
X178855642Y-41447562D01*
X178605869Y-41614455D01*
X178393455Y-41826869D01*
X178226562Y-42076642D01*
X178111605Y-42354174D01*
X178053000Y-42648801D01*
X141863024Y-42648801D01*
X141863024Y-41645000D01*
X141850957Y-41522479D01*
X141815219Y-41404666D01*
X141757183Y-41296089D01*
X141679080Y-41200920D01*
X141583911Y-41122817D01*
X141475334Y-41064781D01*
X141357521Y-41029043D01*
X141235000Y-41016976D01*
X139435000Y-41016976D01*
X139312479Y-41029043D01*
X139194666Y-41064781D01*
X139086089Y-41122817D01*
X138990920Y-41200920D01*
X138912817Y-41296089D01*
X138854781Y-41404666D01*
X138819043Y-41522479D01*
X138806976Y-41645000D01*
X136899981Y-41645000D01*
X136821549Y-41498266D01*
X136587240Y-41212760D01*
X136301734Y-40978451D01*
X135976003Y-40804344D01*
X135622564Y-40697130D01*
X135255000Y-40660928D01*
X134887437Y-40697130D01*
X134533998Y-40804344D01*
X134208267Y-40978451D01*
X133922761Y-41212760D01*
X133688452Y-41498266D01*
X133514345Y-41823997D01*
X133407130Y-42177436D01*
X133380000Y-42452891D01*
X133380000Y-43722898D01*
X133370929Y-43815000D01*
X102405343Y-43815000D01*
X102505307Y-43463693D01*
X102540314Y-43031747D01*
X102490380Y-42601271D01*
X102357424Y-42188808D01*
X102189062Y-41873821D01*
X101943636Y-41633141D01*
X100506777Y-43070000D01*
X100153223Y-43070000D01*
X98716364Y-41633141D01*
X98470938Y-41873821D01*
X98273297Y-42259491D01*
X98154693Y-42676307D01*
X98119686Y-43108253D01*
X86485000Y-43108253D01*
X86485000Y-41456364D01*
X98893141Y-41456364D01*
X100330000Y-42893223D01*
X101766859Y-41456364D01*
X101526179Y-41210938D01*
X101140509Y-41013297D01*
X100723693Y-40894693D01*
X100291747Y-40859686D01*
X99861271Y-40909620D01*
X99448808Y-41042576D01*
X99133821Y-41210938D01*
X98893141Y-41456364D01*
X86485000Y-41456364D01*
X86485000Y-33780000D01*
X201170000Y-33780000D01*
X201170000Y-77418224D01*
G37*
X201170000Y-77418224D02*
X194893224Y-83695000D01*
X163830000Y-83695000D01*
X163805614Y-83697402D01*
X163782165Y-83704515D01*
X163760554Y-83716066D01*
X163741612Y-83731612D01*
X159931612Y-87541612D01*
X159916066Y-87560554D01*
X159904515Y-87582165D01*
X159897402Y-87605614D01*
X159895000Y-87630000D01*
X159895000Y-93293224D01*
X152348224Y-100840000D01*
X73785000Y-100840000D01*
X73785000Y-97286007D01*
X142925000Y-97286007D01*
X142925000Y-97743993D01*
X143014348Y-98193178D01*
X143189611Y-98616301D01*
X143444054Y-98997101D01*
X143767899Y-99320946D01*
X144148699Y-99575389D01*
X144571822Y-99750652D01*
X145021007Y-99840000D01*
X145478993Y-99840000D01*
X145928178Y-99750652D01*
X146351301Y-99575389D01*
X146732101Y-99320946D01*
X147055946Y-98997101D01*
X147310389Y-98616301D01*
X147485652Y-98193178D01*
X147575000Y-97743993D01*
X147575000Y-97286007D01*
X147485652Y-96836822D01*
X147310389Y-96413699D01*
X147055946Y-96032899D01*
X146732101Y-95709054D01*
X146351301Y-95454611D01*
X145928178Y-95279348D01*
X145478993Y-95190000D01*
X145021007Y-95190000D01*
X144571822Y-95279348D01*
X144148699Y-95454611D01*
X143767899Y-95709054D01*
X143444054Y-96032899D01*
X143189611Y-96413699D01*
X143014348Y-96836822D01*
X142925000Y-97286007D01*
X73785000Y-97286007D01*
X73785000Y-90635447D01*
X139197738Y-90635447D01*
X139217539Y-90725406D01*
X139329922Y-90987643D01*
X139491306Y-91222917D01*
X139695489Y-91422185D01*
X139934624Y-91577790D01*
X140199521Y-91683752D01*
X140480000Y-91736000D01*
X141480000Y-91736000D01*
X141480000Y-90411000D01*
X141730000Y-90411000D01*
X141730000Y-91736000D01*
X142730000Y-91736000D01*
X143010479Y-91683752D01*
X143275376Y-91577790D01*
X143514511Y-91422185D01*
X143718694Y-91222917D01*
X143880078Y-90987643D01*
X143992461Y-90725406D01*
X144012262Y-90635447D01*
X143999408Y-90411000D01*
X141730000Y-90411000D01*
X141480000Y-90411000D01*
X139210592Y-90411000D01*
X139197738Y-90635447D01*
X73785000Y-90635447D01*
X73785000Y-89936553D01*
X139197738Y-89936553D01*
X139210592Y-90161000D01*
X141480000Y-90161000D01*
X141480000Y-88836000D01*
X141730000Y-88836000D01*
X141730000Y-90161000D01*
X143999408Y-90161000D01*
X144012262Y-89936553D01*
X143992461Y-89846594D01*
X143880078Y-89584357D01*
X143718694Y-89349083D01*
X143514511Y-89149815D01*
X143275376Y-88994210D01*
X143010479Y-88888248D01*
X142730000Y-88836000D01*
X141730000Y-88836000D01*
X141480000Y-88836000D01*
X140480000Y-88836000D01*
X140199521Y-88888248D01*
X139934624Y-88994210D01*
X139695489Y-89149815D01*
X139491306Y-89349083D01*
X139329922Y-89584357D01*
X139217539Y-89846594D01*
X139197738Y-89936553D01*
X73785000Y-89936553D01*
X73785000Y-88083636D01*
X86828141Y-88083636D01*
X87068821Y-88329062D01*
X87454491Y-88526703D01*
X87871307Y-88645307D01*
X88303253Y-88680314D01*
X88733729Y-88630380D01*
X89146192Y-88497424D01*
X89461179Y-88329062D01*
X89701859Y-88083636D01*
X88265000Y-86646777D01*
X86828141Y-88083636D01*
X73785000Y-88083636D01*
X73785000Y-86508253D01*
X86054686Y-86508253D01*
X86104620Y-86938729D01*
X86237576Y-87351192D01*
X86405938Y-87666179D01*
X86651364Y-87906859D01*
X88088223Y-86470000D01*
X88441777Y-86470000D01*
X89878636Y-87906859D01*
X90124062Y-87666179D01*
X90321703Y-87280509D01*
X90440307Y-86863693D01*
X90475314Y-86431747D01*
X90425380Y-86001271D01*
X90292424Y-85588808D01*
X90124062Y-85273821D01*
X89878636Y-85033141D01*
X88441777Y-86470000D01*
X88088223Y-86470000D01*
X86651364Y-85033141D01*
X86405938Y-85273821D01*
X86208297Y-85659491D01*
X86089693Y-86076307D01*
X86054686Y-86508253D01*
X73785000Y-86508253D01*
X73785000Y-84856364D01*
X86828141Y-84856364D01*
X88265000Y-86293223D01*
X89701859Y-84856364D01*
X89461179Y-84610938D01*
X89415071Y-84587309D01*
X106060000Y-84587309D01*
X106060000Y-85084691D01*
X106157035Y-85572515D01*
X106347374Y-86032036D01*
X106623705Y-86445593D01*
X106975407Y-86797295D01*
X107388964Y-87073626D01*
X107848485Y-87263965D01*
X108336309Y-87361000D01*
X108833691Y-87361000D01*
X109321515Y-87263965D01*
X109781036Y-87073626D01*
X110194593Y-86797295D01*
X110546295Y-86445593D01*
X110822626Y-86032036D01*
X111012965Y-85572515D01*
X111110000Y-85084691D01*
X111110000Y-84587309D01*
X127860000Y-84587309D01*
X127860000Y-85084691D01*
X127957035Y-85572515D01*
X128147374Y-86032036D01*
X128423705Y-86445593D01*
X128775407Y-86797295D01*
X129188964Y-87073626D01*
X129648485Y-87263965D01*
X130136309Y-87361000D01*
X130633691Y-87361000D01*
X131121515Y-87263965D01*
X131581036Y-87073626D01*
X131994593Y-86797295D01*
X132346295Y-86445593D01*
X132622626Y-86032036D01*
X132812965Y-85572515D01*
X132910000Y-85084691D01*
X132910000Y-84836000D01*
X138720928Y-84836000D01*
X138757130Y-85203564D01*
X138864344Y-85557003D01*
X139038451Y-85882734D01*
X139272760Y-86168240D01*
X139558266Y-86402549D01*
X139883997Y-86576656D01*
X140237436Y-86683870D01*
X140512891Y-86711000D01*
X142697109Y-86711000D01*
X142972564Y-86683870D01*
X143326003Y-86576656D01*
X143651734Y-86402549D01*
X143937240Y-86168240D01*
X144171549Y-85882734D01*
X144345656Y-85557003D01*
X144452870Y-85203564D01*
X144489072Y-84836000D01*
X144452870Y-84468436D01*
X144345656Y-84114997D01*
X144171549Y-83789266D01*
X143937240Y-83503760D01*
X143651734Y-83269451D01*
X143326003Y-83095344D01*
X142972564Y-82988130D01*
X142697109Y-82961000D01*
X140512891Y-82961000D01*
X140237436Y-82988130D01*
X139883997Y-83095344D01*
X139558266Y-83269451D01*
X139272760Y-83503760D01*
X139038451Y-83789266D01*
X138864344Y-84114997D01*
X138757130Y-84468436D01*
X138720928Y-84836000D01*
X132910000Y-84836000D01*
X132910000Y-84587309D01*
X132812965Y-84099485D01*
X132622626Y-83639964D01*
X132346295Y-83226407D01*
X131994593Y-82874705D01*
X131581036Y-82598374D01*
X131121515Y-82408035D01*
X130633691Y-82311000D01*
X130136309Y-82311000D01*
X129648485Y-82408035D01*
X129188964Y-82598374D01*
X128775407Y-82874705D01*
X128423705Y-83226407D01*
X128147374Y-83639964D01*
X127957035Y-84099485D01*
X127860000Y-84587309D01*
X111110000Y-84587309D01*
X111012965Y-84099485D01*
X110822626Y-83639964D01*
X110546295Y-83226407D01*
X110194593Y-82874705D01*
X109781036Y-82598374D01*
X109321515Y-82408035D01*
X108833691Y-82311000D01*
X108336309Y-82311000D01*
X107848485Y-82408035D01*
X107388964Y-82598374D01*
X106975407Y-82874705D01*
X106623705Y-83226407D01*
X106347374Y-83639964D01*
X106157035Y-84099485D01*
X106060000Y-84587309D01*
X89415071Y-84587309D01*
X89075509Y-84413297D01*
X88658693Y-84294693D01*
X88226747Y-84259686D01*
X87796271Y-84309620D01*
X87383808Y-84442576D01*
X87068821Y-84610938D01*
X86828141Y-84856364D01*
X73785000Y-84856364D01*
X73785000Y-77521776D01*
X75836776Y-75470000D01*
X85636976Y-75470000D01*
X85636976Y-79470000D01*
X85649043Y-79592521D01*
X85684781Y-79710334D01*
X85742817Y-79818911D01*
X85820920Y-79914080D01*
X85916089Y-79992183D01*
X86024666Y-80050219D01*
X86142479Y-80085957D01*
X86265000Y-80098024D01*
X90265000Y-80098024D01*
X90387521Y-80085957D01*
X90505334Y-80050219D01*
X90613911Y-79992183D01*
X90709080Y-79914080D01*
X90787183Y-79818911D01*
X90845219Y-79710334D01*
X90880957Y-79592521D01*
X90893024Y-79470000D01*
X90893024Y-78136000D01*
X139028428Y-78136000D01*
X139028428Y-80636000D01*
X139034703Y-80699711D01*
X139053287Y-80760974D01*
X139083465Y-80817434D01*
X139124079Y-80866921D01*
X139173566Y-80907535D01*
X139230026Y-80937713D01*
X139291289Y-80956297D01*
X139355000Y-80962572D01*
X143855000Y-80962572D01*
X143918711Y-80956297D01*
X143979974Y-80937713D01*
X144036434Y-80907535D01*
X144085921Y-80866921D01*
X144126535Y-80817434D01*
X144156713Y-80760974D01*
X144175297Y-80699711D01*
X144181572Y-80636000D01*
X144181572Y-80578297D01*
X144590000Y-80986726D01*
X144590001Y-89494477D01*
X144586010Y-89535000D01*
X144601938Y-89696728D01*
X144640982Y-89825437D01*
X144649113Y-89852241D01*
X144725720Y-89995563D01*
X144828816Y-90121185D01*
X144860291Y-90147016D01*
X145553983Y-90840709D01*
X145579815Y-90872185D01*
X145705437Y-90975281D01*
X145848759Y-91051888D01*
X145957097Y-91084752D01*
X146004271Y-91099062D01*
X146019870Y-91100598D01*
X146125479Y-91111000D01*
X146125486Y-91111000D01*
X146165999Y-91114990D01*
X146206512Y-91111000D01*
X146648428Y-91111000D01*
X146648428Y-91536000D01*
X146654703Y-91599711D01*
X146673287Y-91660974D01*
X146703465Y-91717434D01*
X146744079Y-91766921D01*
X146793566Y-91807535D01*
X146850026Y-91837713D01*
X146911289Y-91856297D01*
X146975000Y-91862572D01*
X151475000Y-91862572D01*
X151538711Y-91856297D01*
X151599974Y-91837713D01*
X151656434Y-91807535D01*
X151705921Y-91766921D01*
X151746535Y-91717434D01*
X151776713Y-91660974D01*
X151795297Y-91599711D01*
X151801572Y-91536000D01*
X151801572Y-89036000D01*
X151795297Y-88972289D01*
X151776713Y-88911026D01*
X151746535Y-88854566D01*
X151705921Y-88805079D01*
X151656434Y-88764465D01*
X151599974Y-88734287D01*
X151538711Y-88715703D01*
X151475000Y-88709428D01*
X146975000Y-88709428D01*
X146911289Y-88715703D01*
X146850026Y-88734287D01*
X146793566Y-88764465D01*
X146744079Y-88805079D01*
X146703465Y-88854566D01*
X146673287Y-88911026D01*
X146654703Y-88972289D01*
X146648428Y-89036000D01*
X146648428Y-89461000D01*
X146507726Y-89461000D01*
X146240000Y-89193275D01*
X146240000Y-84836000D01*
X146340928Y-84836000D01*
X146377130Y-85203564D01*
X146484344Y-85557003D01*
X146658451Y-85882734D01*
X146892760Y-86168240D01*
X147178266Y-86402549D01*
X147503997Y-86576656D01*
X147857436Y-86683870D01*
X148132891Y-86711000D01*
X150317109Y-86711000D01*
X150592564Y-86683870D01*
X150946003Y-86576656D01*
X151271734Y-86402549D01*
X151557240Y-86168240D01*
X151791549Y-85882734D01*
X151965656Y-85557003D01*
X152072870Y-85203564D01*
X152109072Y-84836000D01*
X152072870Y-84468436D01*
X151965656Y-84114997D01*
X151791549Y-83789266D01*
X151557240Y-83503760D01*
X151271734Y-83269451D01*
X150946003Y-83095344D01*
X150592564Y-82988130D01*
X150317109Y-82961000D01*
X148132891Y-82961000D01*
X147857436Y-82988130D01*
X147503997Y-83095344D01*
X147178266Y-83269451D01*
X146892760Y-83503760D01*
X146658451Y-83789266D01*
X146484344Y-84114997D01*
X146377130Y-84468436D01*
X146340928Y-84836000D01*
X146240000Y-84836000D01*
X146240000Y-82085326D01*
X192284450Y-82085326D01*
X192452981Y-82269227D01*
X192736458Y-82406972D01*
X193041362Y-82486769D01*
X193355974Y-82505547D01*
X193668205Y-82462587D01*
X193966055Y-82359539D01*
X194135019Y-82269227D01*
X194303550Y-82085326D01*
X193294000Y-81075777D01*
X192284450Y-82085326D01*
X146240000Y-82085326D01*
X146240000Y-80960974D01*
X191687453Y-80960974D01*
X191730413Y-81273205D01*
X191833461Y-81571055D01*
X191923773Y-81740019D01*
X192107674Y-81908550D01*
X193117223Y-80899000D01*
X193470777Y-80899000D01*
X194480326Y-81908550D01*
X194664227Y-81740019D01*
X194801972Y-81456542D01*
X194881769Y-81151638D01*
X194900547Y-80837026D01*
X194857587Y-80524795D01*
X194754539Y-80226945D01*
X194664227Y-80057981D01*
X194480326Y-79889450D01*
X193470777Y-80899000D01*
X193117223Y-80899000D01*
X192107674Y-79889450D01*
X191923773Y-80057981D01*
X191786028Y-80341458D01*
X191706231Y-80646362D01*
X191687453Y-80960974D01*
X146240000Y-80960974D01*
X146240000Y-80685513D01*
X146243990Y-80645000D01*
X146240000Y-80604487D01*
X146240000Y-80604479D01*
X146228062Y-80483272D01*
X146180888Y-80327759D01*
X146104281Y-80184437D01*
X146001185Y-80058815D01*
X145969711Y-80032985D01*
X145672173Y-79735447D01*
X146817738Y-79735447D01*
X146837539Y-79825406D01*
X146949922Y-80087643D01*
X147111306Y-80322917D01*
X147315489Y-80522185D01*
X147554624Y-80677790D01*
X147819521Y-80783752D01*
X148100000Y-80836000D01*
X149100000Y-80836000D01*
X149100000Y-79511000D01*
X149350000Y-79511000D01*
X149350000Y-80836000D01*
X150350000Y-80836000D01*
X150630479Y-80783752D01*
X150895376Y-80677790D01*
X151134511Y-80522185D01*
X151338694Y-80322917D01*
X151500078Y-80087643D01*
X151612461Y-79825406D01*
X151632262Y-79735447D01*
X151630958Y-79712674D01*
X192284450Y-79712674D01*
X193294000Y-80722223D01*
X194303550Y-79712674D01*
X194135019Y-79528773D01*
X193851542Y-79391028D01*
X193546638Y-79311231D01*
X193232026Y-79292453D01*
X192919795Y-79335413D01*
X192621945Y-79438461D01*
X192452981Y-79528773D01*
X192284450Y-79712674D01*
X151630958Y-79712674D01*
X151619408Y-79511000D01*
X149350000Y-79511000D01*
X149100000Y-79511000D01*
X146830592Y-79511000D01*
X146817738Y-79735447D01*
X145672173Y-79735447D01*
X144973279Y-79036553D01*
X146817738Y-79036553D01*
X146830592Y-79261000D01*
X149100000Y-79261000D01*
X149100000Y-77936000D01*
X149350000Y-77936000D01*
X149350000Y-79261000D01*
X151619408Y-79261000D01*
X151632262Y-79036553D01*
X151612461Y-78946594D01*
X151500078Y-78684357D01*
X151338694Y-78449083D01*
X151134511Y-78249815D01*
X150895376Y-78094210D01*
X150630479Y-77988248D01*
X150350000Y-77936000D01*
X149350000Y-77936000D01*
X149100000Y-77936000D01*
X148100000Y-77936000D01*
X147819521Y-77988248D01*
X147554624Y-78094210D01*
X147315489Y-78249815D01*
X147111306Y-78449083D01*
X146949922Y-78684357D01*
X146837539Y-78946594D01*
X146817738Y-79036553D01*
X144973279Y-79036553D01*
X144768021Y-78831296D01*
X144742185Y-78799815D01*
X144616563Y-78696719D01*
X144473241Y-78620112D01*
X144317728Y-78572938D01*
X144196521Y-78561000D01*
X144196513Y-78561000D01*
X144181572Y-78559528D01*
X144181572Y-78136000D01*
X144175297Y-78072289D01*
X144156713Y-78011026D01*
X144126535Y-77954566D01*
X144085921Y-77905079D01*
X144053770Y-77878692D01*
X163323084Y-77878692D01*
X163467517Y-78042076D01*
X163716888Y-78159832D01*
X163984441Y-78226675D01*
X164259893Y-78240037D01*
X164532660Y-78199404D01*
X164792258Y-78106338D01*
X164912483Y-78042076D01*
X165056916Y-77878692D01*
X164190000Y-77011777D01*
X163323084Y-77878692D01*
X144053770Y-77878692D01*
X144036434Y-77864465D01*
X143979974Y-77834287D01*
X143918711Y-77815703D01*
X143855000Y-77809428D01*
X139355000Y-77809428D01*
X139291289Y-77815703D01*
X139230026Y-77834287D01*
X139173566Y-77864465D01*
X139124079Y-77905079D01*
X139083465Y-77954566D01*
X139053287Y-78011026D01*
X139034703Y-78072289D01*
X139028428Y-78136000D01*
X90893024Y-78136000D01*
X90893024Y-76904893D01*
X162784963Y-76904893D01*
X162825596Y-77177660D01*
X162918662Y-77437258D01*
X162982924Y-77557483D01*
X163146308Y-77701916D01*
X164013223Y-76835000D01*
X164366777Y-76835000D01*
X165233692Y-77701916D01*
X165397076Y-77557483D01*
X165514832Y-77308112D01*
X165581675Y-77040559D01*
X165595037Y-76765107D01*
X165578673Y-76655253D01*
X184865000Y-76655253D01*
X184865000Y-77014747D01*
X184935134Y-77367333D01*
X185072706Y-77699461D01*
X185272430Y-77998369D01*
X185526631Y-78252570D01*
X185825539Y-78452294D01*
X186157667Y-78589866D01*
X186510253Y-78660000D01*
X186869747Y-78660000D01*
X187222333Y-78589866D01*
X187554461Y-78452294D01*
X187853369Y-78252570D01*
X188107570Y-77998369D01*
X188307294Y-77699461D01*
X188444866Y-77367333D01*
X188515000Y-77014747D01*
X188515000Y-76694000D01*
X191464593Y-76694000D01*
X191499468Y-76778197D01*
X191721080Y-77109862D01*
X192003138Y-77391920D01*
X192334803Y-77613532D01*
X192703329Y-77766180D01*
X193094555Y-77844000D01*
X193493445Y-77844000D01*
X193884671Y-77766180D01*
X194253197Y-77613532D01*
X194584862Y-77391920D01*
X194866920Y-77109862D01*
X195088532Y-76778197D01*
X195241180Y-76409671D01*
X195319000Y-76018445D01*
X195319000Y-75619555D01*
X195241180Y-75228329D01*
X195088532Y-74859803D01*
X194866920Y-74528138D01*
X194584862Y-74246080D01*
X194253197Y-74024468D01*
X193884671Y-73871820D01*
X193493445Y-73794000D01*
X193094555Y-73794000D01*
X192703329Y-73871820D01*
X192334803Y-74024468D01*
X192003138Y-74246080D01*
X191721080Y-74528138D01*
X191499468Y-74859803D01*
X191464593Y-74944000D01*
X187748979Y-74944000D01*
X187706000Y-74939767D01*
X187663021Y-74944000D01*
X187534470Y-74956661D01*
X187369532Y-75006695D01*
X187227856Y-75082422D01*
X187222333Y-75080134D01*
X186869747Y-75010000D01*
X186510253Y-75010000D01*
X186157667Y-75080134D01*
X185825539Y-75217706D01*
X185526631Y-75417430D01*
X185272430Y-75671631D01*
X185072706Y-75970539D01*
X184935134Y-76302667D01*
X184865000Y-76655253D01*
X165578673Y-76655253D01*
X165554404Y-76492340D01*
X165461338Y-76232742D01*
X165397076Y-76112517D01*
X165233692Y-75968084D01*
X164366777Y-76835000D01*
X164013223Y-76835000D01*
X163146308Y-75968084D01*
X162982924Y-76112517D01*
X162865168Y-76361888D01*
X162798325Y-76629441D01*
X162784963Y-76904893D01*
X90893024Y-76904893D01*
X90893024Y-75791308D01*
X163323084Y-75791308D01*
X164190000Y-76658223D01*
X165056916Y-75791308D01*
X164912483Y-75627924D01*
X164663112Y-75510168D01*
X164395559Y-75443325D01*
X164120107Y-75429963D01*
X163847340Y-75470596D01*
X163587742Y-75563662D01*
X163467517Y-75627924D01*
X163323084Y-75791308D01*
X90893024Y-75791308D01*
X90893024Y-75470000D01*
X90880957Y-75347479D01*
X90845219Y-75229666D01*
X90787183Y-75121089D01*
X90709080Y-75025920D01*
X90613911Y-74947817D01*
X90505334Y-74889781D01*
X90387521Y-74854043D01*
X90265000Y-74841976D01*
X86265000Y-74841976D01*
X86142479Y-74854043D01*
X86024666Y-74889781D01*
X85916089Y-74947817D01*
X85820920Y-75025920D01*
X85742817Y-75121089D01*
X85684781Y-75229666D01*
X85649043Y-75347479D01*
X85636976Y-75470000D01*
X75836776Y-75470000D01*
X79420769Y-71886007D01*
X142925000Y-71886007D01*
X142925000Y-72343993D01*
X143014348Y-72793178D01*
X143189611Y-73216301D01*
X143444054Y-73597101D01*
X143767899Y-73920946D01*
X144148699Y-74175389D01*
X144571822Y-74350652D01*
X145021007Y-74440000D01*
X145478993Y-74440000D01*
X145928178Y-74350652D01*
X146351301Y-74175389D01*
X146732101Y-73920946D01*
X147055946Y-73597101D01*
X147310389Y-73216301D01*
X147485652Y-72793178D01*
X147575000Y-72343993D01*
X147575000Y-71886007D01*
X147485652Y-71436822D01*
X147310389Y-71013699D01*
X147055946Y-70632899D01*
X146732101Y-70309054D01*
X146351301Y-70054611D01*
X145928178Y-69879348D01*
X145478993Y-69790000D01*
X145021007Y-69790000D01*
X144571822Y-69879348D01*
X144148699Y-70054611D01*
X143767899Y-70309054D01*
X143444054Y-70632899D01*
X143189611Y-71013699D01*
X143014348Y-71436822D01*
X142925000Y-71886007D01*
X79420769Y-71886007D01*
X86448388Y-64858388D01*
X86463934Y-64839446D01*
X86475485Y-64817835D01*
X86482598Y-64794386D01*
X86485000Y-64770000D01*
X86485000Y-63955253D01*
X162005000Y-63955253D01*
X162005000Y-64314747D01*
X162075134Y-64667333D01*
X162212706Y-64999461D01*
X162412430Y-65298369D01*
X162666631Y-65552570D01*
X162965539Y-65752294D01*
X163297667Y-65889866D01*
X163650253Y-65960000D01*
X164009747Y-65960000D01*
X164349903Y-65892339D01*
X169784883Y-71327319D01*
X169812288Y-71360712D01*
X169945524Y-71470056D01*
X170097532Y-71551305D01*
X170224080Y-71589694D01*
X170262469Y-71601339D01*
X170433999Y-71618233D01*
X170476978Y-71614000D01*
X191464593Y-71614000D01*
X191499468Y-71698197D01*
X191721080Y-72029862D01*
X192003138Y-72311920D01*
X192334803Y-72533532D01*
X192703329Y-72686180D01*
X193094555Y-72764000D01*
X193493445Y-72764000D01*
X193884671Y-72686180D01*
X194253197Y-72533532D01*
X194584862Y-72311920D01*
X194866920Y-72029862D01*
X195088532Y-71698197D01*
X195241180Y-71329671D01*
X195319000Y-70938445D01*
X195319000Y-70539555D01*
X195241180Y-70148329D01*
X195088532Y-69779803D01*
X194866920Y-69448138D01*
X194584862Y-69166080D01*
X194253197Y-68944468D01*
X193884671Y-68791820D01*
X193493445Y-68714000D01*
X193094555Y-68714000D01*
X192703329Y-68791820D01*
X192334803Y-68944468D01*
X192003138Y-69166080D01*
X191721080Y-69448138D01*
X191499468Y-69779803D01*
X191464593Y-69864000D01*
X170796436Y-69864000D01*
X165587339Y-64654903D01*
X165655000Y-64314747D01*
X165655000Y-63955253D01*
X184405000Y-63955253D01*
X184405000Y-64314747D01*
X184475134Y-64667333D01*
X184612706Y-64999461D01*
X184812430Y-65298369D01*
X185066631Y-65552570D01*
X185365539Y-65752294D01*
X185697667Y-65889866D01*
X186050253Y-65960000D01*
X186409747Y-65960000D01*
X186762333Y-65889866D01*
X187094461Y-65752294D01*
X187393369Y-65552570D01*
X187647570Y-65298369D01*
X187847294Y-64999461D01*
X187984866Y-64667333D01*
X188055000Y-64314747D01*
X188055000Y-63955253D01*
X187984866Y-63602667D01*
X187847294Y-63270539D01*
X187647570Y-62971631D01*
X187393369Y-62717430D01*
X187094461Y-62517706D01*
X186762333Y-62380134D01*
X186409747Y-62310000D01*
X186050253Y-62310000D01*
X185697667Y-62380134D01*
X185365539Y-62517706D01*
X185066631Y-62717430D01*
X184812430Y-62971631D01*
X184612706Y-63270539D01*
X184475134Y-63602667D01*
X184405000Y-63955253D01*
X165655000Y-63955253D01*
X165584866Y-63602667D01*
X165447294Y-63270539D01*
X165247570Y-62971631D01*
X164993369Y-62717430D01*
X164694461Y-62517706D01*
X164362333Y-62380134D01*
X164009747Y-62310000D01*
X163650253Y-62310000D01*
X163297667Y-62380134D01*
X162965539Y-62517706D01*
X162666631Y-62717430D01*
X162412430Y-62971631D01*
X162212706Y-63270539D01*
X162075134Y-63602667D01*
X162005000Y-63955253D01*
X86485000Y-63955253D01*
X86485000Y-50070000D01*
X97701976Y-50070000D01*
X97701976Y-54070000D01*
X97714043Y-54192521D01*
X97749781Y-54310334D01*
X97807817Y-54418911D01*
X97885920Y-54514080D01*
X97981089Y-54592183D01*
X98089666Y-54650219D01*
X98207479Y-54685957D01*
X98330000Y-54698024D01*
X102330000Y-54698024D01*
X102452521Y-54685957D01*
X102570334Y-54650219D01*
X102678911Y-54592183D01*
X102774080Y-54514080D01*
X102852183Y-54418911D01*
X102910219Y-54310334D01*
X102945957Y-54192521D01*
X102958024Y-54070000D01*
X102958024Y-50070000D01*
X102945957Y-49947479D01*
X102910219Y-49829666D01*
X102852183Y-49721089D01*
X102774080Y-49625920D01*
X102678911Y-49547817D01*
X102570334Y-49489781D01*
X102452521Y-49454043D01*
X102330000Y-49441976D01*
X98330000Y-49441976D01*
X98207479Y-49454043D01*
X98089666Y-49489781D01*
X97981089Y-49547817D01*
X97885920Y-49625920D01*
X97807817Y-49721089D01*
X97749781Y-49829666D01*
X97714043Y-49947479D01*
X97701976Y-50070000D01*
X86485000Y-50070000D01*
X86485000Y-49265000D01*
X133726976Y-49265000D01*
X133726976Y-51065000D01*
X133739043Y-51187521D01*
X133774781Y-51305334D01*
X133832817Y-51413911D01*
X133910920Y-51509080D01*
X134006089Y-51587183D01*
X134114666Y-51645219D01*
X134232479Y-51680957D01*
X134355000Y-51693024D01*
X136155000Y-51693024D01*
X136277521Y-51680957D01*
X136395334Y-51645219D01*
X136503911Y-51587183D01*
X136599080Y-51509080D01*
X136677183Y-51413911D01*
X136735219Y-51305334D01*
X136770957Y-51187521D01*
X136783024Y-51065000D01*
X136783024Y-49265000D01*
X136770957Y-49142479D01*
X136735219Y-49024666D01*
X136677183Y-48916089D01*
X136599080Y-48820920D01*
X136503911Y-48742817D01*
X136395334Y-48684781D01*
X136277521Y-48649043D01*
X136155000Y-48636976D01*
X134355000Y-48636976D01*
X134232479Y-48649043D01*
X134114666Y-48684781D01*
X134006089Y-48742817D01*
X133910920Y-48820920D01*
X133832817Y-48916089D01*
X133774781Y-49024666D01*
X133739043Y-49142479D01*
X133726976Y-49265000D01*
X86485000Y-49265000D01*
X86485000Y-46086007D01*
X122525000Y-46086007D01*
X122525000Y-46543993D01*
X122614348Y-46993178D01*
X122789611Y-47416301D01*
X123044054Y-47797101D01*
X123367899Y-48120946D01*
X123748699Y-48375389D01*
X124171822Y-48550652D01*
X124621007Y-48640000D01*
X125078993Y-48640000D01*
X125528178Y-48550652D01*
X125951301Y-48375389D01*
X126332101Y-48120946D01*
X126655946Y-47797101D01*
X126910389Y-47416301D01*
X127085652Y-46993178D01*
X127175000Y-46543993D01*
X127175000Y-46086007D01*
X127085652Y-45636822D01*
X126910389Y-45213699D01*
X126655946Y-44832899D01*
X126332101Y-44509054D01*
X125951301Y-44254611D01*
X125528178Y-44079348D01*
X125078993Y-43990000D01*
X124621007Y-43990000D01*
X124171822Y-44079348D01*
X123748699Y-44254611D01*
X123367899Y-44509054D01*
X123044054Y-44832899D01*
X122789611Y-45213699D01*
X122614348Y-45636822D01*
X122525000Y-46086007D01*
X86485000Y-46086007D01*
X86485000Y-44683636D01*
X98893141Y-44683636D01*
X99133821Y-44929062D01*
X99519491Y-45126703D01*
X99936307Y-45245307D01*
X100368253Y-45280314D01*
X100798729Y-45230380D01*
X101211192Y-45097424D01*
X101526179Y-44929062D01*
X101766859Y-44683636D01*
X100330000Y-43246777D01*
X98893141Y-44683636D01*
X86485000Y-44683636D01*
X86485000Y-43108253D01*
X98119686Y-43108253D01*
X98169620Y-43538729D01*
X98302576Y-43951192D01*
X98470938Y-44266179D01*
X98716364Y-44506859D01*
X100153223Y-43070000D01*
X100506777Y-43070000D01*
X101943636Y-44506859D01*
X102189062Y-44266179D01*
X102386703Y-43880509D01*
X102405343Y-43815000D01*
X133370929Y-43815000D01*
X133380000Y-43907102D01*
X133380000Y-43907108D01*
X133396964Y-44079348D01*
X133407130Y-44182564D01*
X133436450Y-44279219D01*
X133514344Y-44536002D01*
X133688451Y-44861733D01*
X133922760Y-45147240D01*
X133994308Y-45205958D01*
X138460000Y-49671651D01*
X138460000Y-50257108D01*
X138487130Y-50532563D01*
X138594344Y-50886002D01*
X138768451Y-51211733D01*
X139002760Y-51497240D01*
X139288266Y-51731549D01*
X139613997Y-51905656D01*
X139967436Y-52012870D01*
X140335000Y-52049072D01*
X140702563Y-52012870D01*
X141056002Y-51905656D01*
X141381733Y-51731549D01*
X141667240Y-51497240D01*
X141901549Y-51211734D01*
X142075656Y-50886003D01*
X142182870Y-50532564D01*
X142210000Y-50257109D01*
X142210000Y-48987102D01*
X142219071Y-48895000D01*
X142210000Y-48802898D01*
X142210000Y-48802891D01*
X142182870Y-48527436D01*
X142075656Y-48173997D01*
X141901549Y-47848266D01*
X141667240Y-47562760D01*
X141595697Y-47504046D01*
X140177658Y-46086007D01*
X147925000Y-46086007D01*
X147925000Y-46543993D01*
X148014348Y-46993178D01*
X148189611Y-47416301D01*
X148444054Y-47797101D01*
X148767899Y-48120946D01*
X149148699Y-48375389D01*
X149571822Y-48550652D01*
X150021007Y-48640000D01*
X150478993Y-48640000D01*
X150928178Y-48550652D01*
X151351301Y-48375389D01*
X151732101Y-48120946D01*
X152055946Y-47797101D01*
X152310389Y-47416301D01*
X152485652Y-46993178D01*
X152575000Y-46543993D01*
X152575000Y-46386007D01*
X167025000Y-46386007D01*
X167025000Y-46843993D01*
X167114348Y-47293178D01*
X167289611Y-47716301D01*
X167544054Y-48097101D01*
X167867899Y-48420946D01*
X168248699Y-48675389D01*
X168671822Y-48850652D01*
X169121007Y-48940000D01*
X169578993Y-48940000D01*
X170028178Y-48850652D01*
X170451301Y-48675389D01*
X170832101Y-48420946D01*
X171155946Y-48097101D01*
X171410389Y-47716301D01*
X171585652Y-47293178D01*
X171675000Y-46843993D01*
X171675000Y-46386007D01*
X192425000Y-46386007D01*
X192425000Y-46843993D01*
X192514348Y-47293178D01*
X192689611Y-47716301D01*
X192944054Y-48097101D01*
X193267899Y-48420946D01*
X193648699Y-48675389D01*
X194071822Y-48850652D01*
X194521007Y-48940000D01*
X194978993Y-48940000D01*
X195428178Y-48850652D01*
X195851301Y-48675389D01*
X196232101Y-48420946D01*
X196555946Y-48097101D01*
X196810389Y-47716301D01*
X196985652Y-47293178D01*
X197075000Y-46843993D01*
X197075000Y-46386007D01*
X196985652Y-45936822D01*
X196810389Y-45513699D01*
X196555946Y-45132899D01*
X196232101Y-44809054D01*
X195851301Y-44554611D01*
X195428178Y-44379348D01*
X194978993Y-44290000D01*
X194521007Y-44290000D01*
X194071822Y-44379348D01*
X193648699Y-44554611D01*
X193267899Y-44809054D01*
X192944054Y-45132899D01*
X192689611Y-45513699D01*
X192514348Y-45936822D01*
X192425000Y-46386007D01*
X171675000Y-46386007D01*
X171585652Y-45936822D01*
X171410389Y-45513699D01*
X171155946Y-45132899D01*
X170832101Y-44809054D01*
X170451301Y-44554611D01*
X170028178Y-44379348D01*
X169578993Y-44290000D01*
X169121007Y-44290000D01*
X168671822Y-44379348D01*
X168248699Y-44554611D01*
X167867899Y-44809054D01*
X167544054Y-45132899D01*
X167289611Y-45513699D01*
X167114348Y-45936822D01*
X167025000Y-46386007D01*
X152575000Y-46386007D01*
X152575000Y-46086007D01*
X152485652Y-45636822D01*
X152310389Y-45213699D01*
X152055946Y-44832899D01*
X151732101Y-44509054D01*
X151351301Y-44254611D01*
X150928178Y-44079348D01*
X150478993Y-43990000D01*
X150021007Y-43990000D01*
X149571822Y-44079348D01*
X149148699Y-44254611D01*
X148767899Y-44509054D01*
X148444054Y-44832899D01*
X148189611Y-45213699D01*
X148014348Y-45636822D01*
X147925000Y-46086007D01*
X140177658Y-46086007D01*
X137130000Y-43038350D01*
X137130000Y-42452891D01*
X137102870Y-42177436D01*
X136995656Y-41823997D01*
X136899981Y-41645000D01*
X138806976Y-41645000D01*
X138806976Y-43445000D01*
X138819043Y-43567521D01*
X138854781Y-43685334D01*
X138912817Y-43793911D01*
X138990920Y-43889080D01*
X139086089Y-43967183D01*
X139194666Y-44025219D01*
X139312479Y-44060957D01*
X139435000Y-44073024D01*
X141235000Y-44073024D01*
X141357521Y-44060957D01*
X141475334Y-44025219D01*
X141583911Y-43967183D01*
X141679080Y-43889080D01*
X141757183Y-43793911D01*
X141815219Y-43685334D01*
X141850957Y-43567521D01*
X141863024Y-43445000D01*
X141863024Y-42648801D01*
X178053000Y-42648801D01*
X178053000Y-42949199D01*
X178111605Y-43243826D01*
X178226562Y-43521358D01*
X178393455Y-43771131D01*
X178605869Y-43983545D01*
X178855642Y-44150438D01*
X179133174Y-44265395D01*
X179427801Y-44324000D01*
X179728199Y-44324000D01*
X180022826Y-44265395D01*
X180300358Y-44150438D01*
X180550131Y-43983545D01*
X180762545Y-43771131D01*
X180929438Y-43521358D01*
X181044395Y-43243826D01*
X181103000Y-42949199D01*
X181103000Y-42648801D01*
X181044395Y-42354174D01*
X180929438Y-42076642D01*
X180810742Y-41899000D01*
X183129976Y-41899000D01*
X183129976Y-43699000D01*
X183142043Y-43821521D01*
X183177781Y-43939334D01*
X183235817Y-44047911D01*
X183313920Y-44143080D01*
X183409089Y-44221183D01*
X183517666Y-44279219D01*
X183635479Y-44314957D01*
X183758000Y-44327024D01*
X185558000Y-44327024D01*
X185680521Y-44314957D01*
X185798334Y-44279219D01*
X185906911Y-44221183D01*
X186002080Y-44143080D01*
X186080183Y-44047911D01*
X186138219Y-43939334D01*
X186173957Y-43821521D01*
X186186024Y-43699000D01*
X186186024Y-41899000D01*
X186173957Y-41776479D01*
X186138219Y-41658666D01*
X186080183Y-41550089D01*
X186002080Y-41454920D01*
X185906911Y-41376817D01*
X185798334Y-41318781D01*
X185680521Y-41283043D01*
X185558000Y-41270976D01*
X183758000Y-41270976D01*
X183635479Y-41283043D01*
X183517666Y-41318781D01*
X183409089Y-41376817D01*
X183313920Y-41454920D01*
X183235817Y-41550089D01*
X183177781Y-41658666D01*
X183142043Y-41776479D01*
X183129976Y-41899000D01*
X180810742Y-41899000D01*
X180762545Y-41826869D01*
X180550131Y-41614455D01*
X180300358Y-41447562D01*
X180022826Y-41332605D01*
X179728199Y-41274000D01*
X179427801Y-41274000D01*
X179133174Y-41332605D01*
X178855642Y-41447562D01*
X178605869Y-41614455D01*
X178393455Y-41826869D01*
X178226562Y-42076642D01*
X178111605Y-42354174D01*
X178053000Y-42648801D01*
X141863024Y-42648801D01*
X141863024Y-41645000D01*
X141850957Y-41522479D01*
X141815219Y-41404666D01*
X141757183Y-41296089D01*
X141679080Y-41200920D01*
X141583911Y-41122817D01*
X141475334Y-41064781D01*
X141357521Y-41029043D01*
X141235000Y-41016976D01*
X139435000Y-41016976D01*
X139312479Y-41029043D01*
X139194666Y-41064781D01*
X139086089Y-41122817D01*
X138990920Y-41200920D01*
X138912817Y-41296089D01*
X138854781Y-41404666D01*
X138819043Y-41522479D01*
X138806976Y-41645000D01*
X136899981Y-41645000D01*
X136821549Y-41498266D01*
X136587240Y-41212760D01*
X136301734Y-40978451D01*
X135976003Y-40804344D01*
X135622564Y-40697130D01*
X135255000Y-40660928D01*
X134887437Y-40697130D01*
X134533998Y-40804344D01*
X134208267Y-40978451D01*
X133922761Y-41212760D01*
X133688452Y-41498266D01*
X133514345Y-41823997D01*
X133407130Y-42177436D01*
X133380000Y-42452891D01*
X133380000Y-43722898D01*
X133370929Y-43815000D01*
X102405343Y-43815000D01*
X102505307Y-43463693D01*
X102540314Y-43031747D01*
X102490380Y-42601271D01*
X102357424Y-42188808D01*
X102189062Y-41873821D01*
X101943636Y-41633141D01*
X100506777Y-43070000D01*
X100153223Y-43070000D01*
X98716364Y-41633141D01*
X98470938Y-41873821D01*
X98273297Y-42259491D01*
X98154693Y-42676307D01*
X98119686Y-43108253D01*
X86485000Y-43108253D01*
X86485000Y-41456364D01*
X98893141Y-41456364D01*
X100330000Y-42893223D01*
X101766859Y-41456364D01*
X101526179Y-41210938D01*
X101140509Y-41013297D01*
X100723693Y-40894693D01*
X100291747Y-40859686D01*
X99861271Y-40909620D01*
X99448808Y-41042576D01*
X99133821Y-41210938D01*
X98893141Y-41456364D01*
X86485000Y-41456364D01*
X86485000Y-33780000D01*
X201170000Y-33780000D01*
X201170000Y-77418224D01*
%TD*%
M02*
