%TF.GenerationSoftware,KiCad,Pcbnew,5.1.7-a382d34a8~88~ubuntu18.04.1*%
%TF.CreationDate,2020-12-13T04:00:48-06:00*%
%TF.ProjectId,MPPT,4d505054-2e6b-4696-9361-645f70636258,Rev1.3*%
%TF.SameCoordinates,Original*%
%TF.FileFunction,Legend,Bot*%
%TF.FilePolarity,Positive*%
%FSLAX46Y46*%
G04 Gerber Fmt 4.6, Leading zero omitted, Abs format (unit mm)*
G04 Created by KiCad (PCBNEW 5.1.7-a382d34a8~88~ubuntu18.04.1) date 2020-12-13 04:00:48*
%MOMM*%
%LPD*%
G01*
G04 APERTURE LIST*
%ADD10C,0.150000*%
%ADD11C,0.010000*%
%ADD12C,0.120000*%
%ADD13C,2.600000*%
%ADD14O,2.400000X2.400000*%
%ADD15C,3.200000*%
%ADD16C,4.400000*%
%ADD17C,3.600000*%
%ADD18C,2.400000*%
%ADD19C,1.908000*%
%ADD20O,2.100000X2.100000*%
%ADD21C,1.670000*%
%ADD22O,1.900000X2.420000*%
%ADD23O,4.900000X2.900000*%
%ADD24C,4.200000*%
%ADD25C,2.686000*%
%ADD26C,1.930000*%
%ADD27C,2.900000*%
G04 APERTURE END LIST*
D10*
X74363571Y-139565714D02*
X74363571Y-138958571D01*
X74399285Y-138887142D01*
X74435000Y-138851428D01*
X74506428Y-138815714D01*
X74649285Y-138815714D01*
X74720714Y-138851428D01*
X74756428Y-138887142D01*
X74792142Y-138958571D01*
X74792142Y-139565714D01*
X75506428Y-139565714D02*
X75149285Y-139565714D01*
X75113571Y-139208571D01*
X75149285Y-139244285D01*
X75220714Y-139280000D01*
X75399285Y-139280000D01*
X75470714Y-139244285D01*
X75506428Y-139208571D01*
X75542142Y-139137142D01*
X75542142Y-138958571D01*
X75506428Y-138887142D01*
X75470714Y-138851428D01*
X75399285Y-138815714D01*
X75220714Y-138815714D01*
X75149285Y-138851428D01*
X75113571Y-138887142D01*
X112078571Y-139465714D02*
X112078571Y-138858571D01*
X112114285Y-138787142D01*
X112150000Y-138751428D01*
X112221428Y-138715714D01*
X112364285Y-138715714D01*
X112435714Y-138751428D01*
X112471428Y-138787142D01*
X112507142Y-138858571D01*
X112507142Y-139465714D01*
X113185714Y-139215714D02*
X113185714Y-138715714D01*
X113007142Y-139501428D02*
X112828571Y-138965714D01*
X113292857Y-138965714D01*
D11*
%TO.C,G\u002A\u002A\u002A*%
G36*
X34831583Y-28644313D02*
G01*
X35015010Y-28778627D01*
X35285292Y-28963048D01*
X35613442Y-29178760D01*
X35970474Y-29406948D01*
X36327401Y-29628795D01*
X36655235Y-29825486D01*
X36892379Y-29960489D01*
X37639592Y-30327640D01*
X38369034Y-30606038D01*
X39057050Y-30790144D01*
X39679988Y-30874424D01*
X40214193Y-30853339D01*
X40459657Y-30795469D01*
X40943131Y-30549277D01*
X41344541Y-30157205D01*
X41630449Y-29685429D01*
X41745497Y-29418420D01*
X41828173Y-29182845D01*
X41874075Y-29003973D01*
X41878801Y-28907074D01*
X41837950Y-28917418D01*
X41747121Y-29060274D01*
X41735551Y-29082000D01*
X41402360Y-29545842D01*
X40953612Y-29919930D01*
X40817666Y-29999921D01*
X40644575Y-30081448D01*
X40459985Y-30134418D01*
X40222995Y-30164376D01*
X39892704Y-30176869D01*
X39505333Y-30177887D01*
X39043087Y-30170070D01*
X38687723Y-30145514D01*
X38376941Y-30094661D01*
X38048442Y-30007955D01*
X37727333Y-29905125D01*
X37334308Y-29759784D01*
X36852265Y-29559941D01*
X36341207Y-29331511D01*
X35861137Y-29100408D01*
X35843500Y-29091512D01*
X35459660Y-28899671D01*
X35135966Y-28742028D01*
X34899073Y-28631240D01*
X34775636Y-28579964D01*
X34764000Y-28578923D01*
X34831583Y-28644313D01*
G37*
X34831583Y-28644313D02*
X35015010Y-28778627D01*
X35285292Y-28963048D01*
X35613442Y-29178760D01*
X35970474Y-29406948D01*
X36327401Y-29628795D01*
X36655235Y-29825486D01*
X36892379Y-29960489D01*
X37639592Y-30327640D01*
X38369034Y-30606038D01*
X39057050Y-30790144D01*
X39679988Y-30874424D01*
X40214193Y-30853339D01*
X40459657Y-30795469D01*
X40943131Y-30549277D01*
X41344541Y-30157205D01*
X41630449Y-29685429D01*
X41745497Y-29418420D01*
X41828173Y-29182845D01*
X41874075Y-29003973D01*
X41878801Y-28907074D01*
X41837950Y-28917418D01*
X41747121Y-29060274D01*
X41735551Y-29082000D01*
X41402360Y-29545842D01*
X40953612Y-29919930D01*
X40817666Y-29999921D01*
X40644575Y-30081448D01*
X40459985Y-30134418D01*
X40222995Y-30164376D01*
X39892704Y-30176869D01*
X39505333Y-30177887D01*
X39043087Y-30170070D01*
X38687723Y-30145514D01*
X38376941Y-30094661D01*
X38048442Y-30007955D01*
X37727333Y-29905125D01*
X37334308Y-29759784D01*
X36852265Y-29559941D01*
X36341207Y-29331511D01*
X35861137Y-29100408D01*
X35843500Y-29091512D01*
X35459660Y-28899671D01*
X35135966Y-28742028D01*
X34899073Y-28631240D01*
X34775636Y-28579964D01*
X34764000Y-28578923D01*
X34831583Y-28644313D01*
G36*
X31553384Y-27279884D02*
G01*
X30786905Y-27361699D01*
X30115679Y-27506139D01*
X29980333Y-27547989D01*
X29343721Y-27804973D01*
X28848334Y-28102975D01*
X28498625Y-28433364D01*
X28299048Y-28787511D01*
X28254056Y-29156786D01*
X28368103Y-29532560D01*
X28645643Y-29906203D01*
X28723941Y-29982501D01*
X29183294Y-30304800D01*
X29765672Y-30546745D01*
X30441566Y-30701518D01*
X31181469Y-30762305D01*
X31936278Y-30724577D01*
X32328741Y-30660619D01*
X32734886Y-30565150D01*
X33006958Y-30479726D01*
X33375756Y-30315908D01*
X33777258Y-30096585D01*
X34160836Y-29853294D01*
X34475862Y-29617570D01*
X34637000Y-29464358D01*
X34806333Y-29270501D01*
X34552333Y-29399686D01*
X33897245Y-29662412D01*
X33153870Y-29842303D01*
X32364552Y-29937579D01*
X31571634Y-29946459D01*
X30817458Y-29867163D01*
X30144368Y-29697909D01*
X29887861Y-29595870D01*
X29461482Y-29353059D01*
X29199786Y-29093225D01*
X29099991Y-28824425D01*
X29159314Y-28554717D01*
X29374973Y-28292160D01*
X29744185Y-28044810D01*
X30264169Y-27820726D01*
X30530666Y-27734350D01*
X31346797Y-27560229D01*
X32249602Y-27487743D01*
X33191306Y-27515587D01*
X34124134Y-27642453D01*
X34965111Y-27855601D01*
X35297390Y-27958953D01*
X35562869Y-28034913D01*
X35725026Y-28073382D01*
X35757242Y-28074647D01*
X35714995Y-28020450D01*
X35541425Y-27933737D01*
X35268765Y-27825844D01*
X34929248Y-27708111D01*
X34555106Y-27591876D01*
X34178572Y-27488478D01*
X33913343Y-27426034D01*
X33167703Y-27310467D01*
X32364017Y-27262279D01*
X31553384Y-27279884D01*
G37*
X31553384Y-27279884D02*
X30786905Y-27361699D01*
X30115679Y-27506139D01*
X29980333Y-27547989D01*
X29343721Y-27804973D01*
X28848334Y-28102975D01*
X28498625Y-28433364D01*
X28299048Y-28787511D01*
X28254056Y-29156786D01*
X28368103Y-29532560D01*
X28645643Y-29906203D01*
X28723941Y-29982501D01*
X29183294Y-30304800D01*
X29765672Y-30546745D01*
X30441566Y-30701518D01*
X31181469Y-30762305D01*
X31936278Y-30724577D01*
X32328741Y-30660619D01*
X32734886Y-30565150D01*
X33006958Y-30479726D01*
X33375756Y-30315908D01*
X33777258Y-30096585D01*
X34160836Y-29853294D01*
X34475862Y-29617570D01*
X34637000Y-29464358D01*
X34806333Y-29270501D01*
X34552333Y-29399686D01*
X33897245Y-29662412D01*
X33153870Y-29842303D01*
X32364552Y-29937579D01*
X31571634Y-29946459D01*
X30817458Y-29867163D01*
X30144368Y-29697909D01*
X29887861Y-29595870D01*
X29461482Y-29353059D01*
X29199786Y-29093225D01*
X29099991Y-28824425D01*
X29159314Y-28554717D01*
X29374973Y-28292160D01*
X29744185Y-28044810D01*
X30264169Y-27820726D01*
X30530666Y-27734350D01*
X31346797Y-27560229D01*
X32249602Y-27487743D01*
X33191306Y-27515587D01*
X34124134Y-27642453D01*
X34965111Y-27855601D01*
X35297390Y-27958953D01*
X35562869Y-28034913D01*
X35725026Y-28073382D01*
X35757242Y-28074647D01*
X35714995Y-28020450D01*
X35541425Y-27933737D01*
X35268765Y-27825844D01*
X34929248Y-27708111D01*
X34555106Y-27591876D01*
X34178572Y-27488478D01*
X33913343Y-27426034D01*
X33167703Y-27310467D01*
X32364017Y-27262279D01*
X31553384Y-27279884D01*
G36*
X36776057Y-26440662D02*
G01*
X35161699Y-26494837D01*
X33393779Y-26580813D01*
X31473471Y-26698673D01*
X31208000Y-26716663D01*
X30555054Y-26762680D01*
X29864444Y-26813602D01*
X29186667Y-26865553D01*
X28572222Y-26914655D01*
X28071607Y-26957030D01*
X28033000Y-26960458D01*
X26763000Y-27073801D01*
X28668000Y-27019567D01*
X29484920Y-26999732D01*
X30370947Y-26984324D01*
X31306118Y-26973234D01*
X32270473Y-26966357D01*
X33244050Y-26963585D01*
X34206887Y-26964811D01*
X35139022Y-26969927D01*
X36020493Y-26978828D01*
X36831340Y-26991404D01*
X37551599Y-27007551D01*
X38161310Y-27027159D01*
X38640511Y-27050123D01*
X38955000Y-27074767D01*
X39929560Y-27194425D01*
X40742254Y-27327204D01*
X41400220Y-27475644D01*
X41910594Y-27642283D01*
X42280513Y-27829661D01*
X42517114Y-28040318D01*
X42627533Y-28276793D01*
X42638000Y-28385189D01*
X42588075Y-28627824D01*
X42467500Y-28871887D01*
X42462901Y-28878430D01*
X42364737Y-29030554D01*
X42354275Y-29098634D01*
X42444724Y-29080003D01*
X42649295Y-28971997D01*
X42976666Y-28774745D01*
X43405374Y-28484938D01*
X43769208Y-28190182D01*
X44041715Y-27914932D01*
X44196441Y-27683643D01*
X44215108Y-27629878D01*
X44201021Y-27370570D01*
X44021618Y-27142240D01*
X43678074Y-26944968D01*
X43171565Y-26778839D01*
X42503266Y-26643934D01*
X41674353Y-26540336D01*
X40686000Y-26468127D01*
X39539382Y-26427390D01*
X38235677Y-26418208D01*
X36776057Y-26440662D01*
G37*
X36776057Y-26440662D02*
X35161699Y-26494837D01*
X33393779Y-26580813D01*
X31473471Y-26698673D01*
X31208000Y-26716663D01*
X30555054Y-26762680D01*
X29864444Y-26813602D01*
X29186667Y-26865553D01*
X28572222Y-26914655D01*
X28071607Y-26957030D01*
X28033000Y-26960458D01*
X26763000Y-27073801D01*
X28668000Y-27019567D01*
X29484920Y-26999732D01*
X30370947Y-26984324D01*
X31306118Y-26973234D01*
X32270473Y-26966357D01*
X33244050Y-26963585D01*
X34206887Y-26964811D01*
X35139022Y-26969927D01*
X36020493Y-26978828D01*
X36831340Y-26991404D01*
X37551599Y-27007551D01*
X38161310Y-27027159D01*
X38640511Y-27050123D01*
X38955000Y-27074767D01*
X39929560Y-27194425D01*
X40742254Y-27327204D01*
X41400220Y-27475644D01*
X41910594Y-27642283D01*
X42280513Y-27829661D01*
X42517114Y-28040318D01*
X42627533Y-28276793D01*
X42638000Y-28385189D01*
X42588075Y-28627824D01*
X42467500Y-28871887D01*
X42462901Y-28878430D01*
X42364737Y-29030554D01*
X42354275Y-29098634D01*
X42444724Y-29080003D01*
X42649295Y-28971997D01*
X42976666Y-28774745D01*
X43405374Y-28484938D01*
X43769208Y-28190182D01*
X44041715Y-27914932D01*
X44196441Y-27683643D01*
X44215108Y-27629878D01*
X44201021Y-27370570D01*
X44021618Y-27142240D01*
X43678074Y-26944968D01*
X43171565Y-26778839D01*
X42503266Y-26643934D01*
X41674353Y-26540336D01*
X40686000Y-26468127D01*
X39539382Y-26427390D01*
X38235677Y-26418208D01*
X36776057Y-26440662D01*
G36*
X40201383Y-27754315D02*
G01*
X40184686Y-27833167D01*
X40208444Y-28047794D01*
X40263594Y-28307471D01*
X40332892Y-28545123D01*
X40399093Y-28693676D01*
X40408918Y-28705361D01*
X40598991Y-28800001D01*
X40847669Y-28828677D01*
X41050500Y-28780932D01*
X41149141Y-28645585D01*
X41199599Y-28421812D01*
X41204653Y-28161811D01*
X41167081Y-27917782D01*
X41089665Y-27741923D01*
X40992142Y-27685000D01*
X40932474Y-27743109D01*
X40915290Y-27931093D01*
X40927627Y-28158009D01*
X40945826Y-28425789D01*
X40933735Y-28563448D01*
X40877317Y-28609415D01*
X40765260Y-28602509D01*
X40641007Y-28560283D01*
X40562779Y-28448762D01*
X40505202Y-28224613D01*
X40488259Y-28129500D01*
X40418605Y-27843155D01*
X40334235Y-27698690D01*
X40297759Y-27685000D01*
X40201383Y-27754315D01*
G37*
X40201383Y-27754315D02*
X40184686Y-27833167D01*
X40208444Y-28047794D01*
X40263594Y-28307471D01*
X40332892Y-28545123D01*
X40399093Y-28693676D01*
X40408918Y-28705361D01*
X40598991Y-28800001D01*
X40847669Y-28828677D01*
X41050500Y-28780932D01*
X41149141Y-28645585D01*
X41199599Y-28421812D01*
X41204653Y-28161811D01*
X41167081Y-27917782D01*
X41089665Y-27741923D01*
X40992142Y-27685000D01*
X40932474Y-27743109D01*
X40915290Y-27931093D01*
X40927627Y-28158009D01*
X40945826Y-28425789D01*
X40933735Y-28563448D01*
X40877317Y-28609415D01*
X40765260Y-28602509D01*
X40641007Y-28560283D01*
X40562779Y-28448762D01*
X40505202Y-28224613D01*
X40488259Y-28129500D01*
X40418605Y-27843155D01*
X40334235Y-27698690D01*
X40297759Y-27685000D01*
X40201383Y-27754315D01*
G36*
X38362865Y-27728696D02*
G01*
X38341588Y-27790834D01*
X38444029Y-27873619D01*
X38574000Y-27896667D01*
X38756081Y-27936982D01*
X38790729Y-28033427D01*
X38672099Y-28149247D01*
X38618526Y-28176596D01*
X38444391Y-28324319D01*
X38419657Y-28513490D01*
X38546231Y-28702372D01*
X38592839Y-28738533D01*
X38803917Y-28852544D01*
X38975081Y-28844270D01*
X39071680Y-28793836D01*
X39152317Y-28692447D01*
X39097074Y-28612410D01*
X38939008Y-28586665D01*
X38872354Y-28595225D01*
X38704282Y-28585631D01*
X38658118Y-28500169D01*
X38737770Y-28384420D01*
X38848672Y-28318910D01*
X39024951Y-28169940D01*
X39067567Y-27969311D01*
X38993958Y-27807933D01*
X38865162Y-27729772D01*
X38678073Y-27689491D01*
X38491153Y-27688621D01*
X38362865Y-27728696D01*
G37*
X38362865Y-27728696D02*
X38341588Y-27790834D01*
X38444029Y-27873619D01*
X38574000Y-27896667D01*
X38756081Y-27936982D01*
X38790729Y-28033427D01*
X38672099Y-28149247D01*
X38618526Y-28176596D01*
X38444391Y-28324319D01*
X38419657Y-28513490D01*
X38546231Y-28702372D01*
X38592839Y-28738533D01*
X38803917Y-28852544D01*
X38975081Y-28844270D01*
X39071680Y-28793836D01*
X39152317Y-28692447D01*
X39097074Y-28612410D01*
X38939008Y-28586665D01*
X38872354Y-28595225D01*
X38704282Y-28585631D01*
X38658118Y-28500169D01*
X38737770Y-28384420D01*
X38848672Y-28318910D01*
X39024951Y-28169940D01*
X39067567Y-27969311D01*
X38993958Y-27807933D01*
X38865162Y-27729772D01*
X38678073Y-27689491D01*
X38491153Y-27688621D01*
X38362865Y-27728696D01*
G36*
X39323781Y-27698596D02*
G01*
X39193756Y-27745668D01*
X39166666Y-27812000D01*
X39236950Y-27915509D01*
X39333084Y-27939000D01*
X39438805Y-27970175D01*
X39505004Y-28089676D01*
X39552166Y-28336465D01*
X39555658Y-28362334D01*
X39615134Y-28648175D01*
X39698818Y-28776210D01*
X39735852Y-28785667D01*
X39806747Y-28753698D01*
X39827907Y-28633218D01*
X39805064Y-28387366D01*
X39801666Y-28362334D01*
X39775050Y-28108201D01*
X39790819Y-27980507D01*
X39856074Y-27940076D01*
X39878388Y-27939000D01*
X39995657Y-27874644D01*
X40013333Y-27812000D01*
X39968014Y-27732135D01*
X39811106Y-27693127D01*
X39590000Y-27685000D01*
X39323781Y-27698596D01*
G37*
X39323781Y-27698596D02*
X39193756Y-27745668D01*
X39166666Y-27812000D01*
X39236950Y-27915509D01*
X39333084Y-27939000D01*
X39438805Y-27970175D01*
X39505004Y-28089676D01*
X39552166Y-28336465D01*
X39555658Y-28362334D01*
X39615134Y-28648175D01*
X39698818Y-28776210D01*
X39735852Y-28785667D01*
X39806747Y-28753698D01*
X39827907Y-28633218D01*
X39805064Y-28387366D01*
X39801666Y-28362334D01*
X39775050Y-28108201D01*
X39790819Y-27980507D01*
X39856074Y-27940076D01*
X39878388Y-27939000D01*
X39995657Y-27874644D01*
X40013333Y-27812000D01*
X39968014Y-27732135D01*
X39811106Y-27693127D01*
X39590000Y-27685000D01*
X39323781Y-27698596D01*
G36*
X36392000Y-27693171D02*
G01*
X36201456Y-27720224D01*
X36137025Y-27769973D01*
X36139409Y-27790834D01*
X36242111Y-27886847D01*
X36358132Y-27923722D01*
X36501636Y-27995816D01*
X36543156Y-28177722D01*
X36572487Y-28492587D01*
X36648927Y-28706292D01*
X36760568Y-28785663D01*
X36761425Y-28785667D01*
X36821787Y-28760620D01*
X36843041Y-28665418D01*
X36824963Y-28469973D01*
X36767327Y-28144193D01*
X36756225Y-28087167D01*
X36788456Y-27962742D01*
X36881537Y-27939000D01*
X37027642Y-27893815D01*
X37067716Y-27843517D01*
X37118831Y-27863527D01*
X37223855Y-28005276D01*
X37361098Y-28238984D01*
X37376070Y-28266851D01*
X37529682Y-28525806D01*
X37669732Y-28711760D01*
X37766620Y-28785593D01*
X37768624Y-28785667D01*
X37858170Y-28708915D01*
X37958572Y-28504296D01*
X38017659Y-28328136D01*
X38106341Y-28005851D01*
X38141640Y-27812502D01*
X38123933Y-27716449D01*
X38053594Y-27686054D01*
X38025280Y-27685000D01*
X37918358Y-27757943D01*
X37848875Y-27917834D01*
X37782079Y-28187998D01*
X37722903Y-28299036D01*
X37651520Y-28258914D01*
X37548103Y-28075599D01*
X37532833Y-28044834D01*
X37355306Y-27685000D01*
X36729931Y-27685000D01*
X36392000Y-27693171D01*
G37*
X36392000Y-27693171D02*
X36201456Y-27720224D01*
X36137025Y-27769973D01*
X36139409Y-27790834D01*
X36242111Y-27886847D01*
X36358132Y-27923722D01*
X36501636Y-27995816D01*
X36543156Y-28177722D01*
X36572487Y-28492587D01*
X36648927Y-28706292D01*
X36760568Y-28785663D01*
X36761425Y-28785667D01*
X36821787Y-28760620D01*
X36843041Y-28665418D01*
X36824963Y-28469973D01*
X36767327Y-28144193D01*
X36756225Y-28087167D01*
X36788456Y-27962742D01*
X36881537Y-27939000D01*
X37027642Y-27893815D01*
X37067716Y-27843517D01*
X37118831Y-27863527D01*
X37223855Y-28005276D01*
X37361098Y-28238984D01*
X37376070Y-28266851D01*
X37529682Y-28525806D01*
X37669732Y-28711760D01*
X37766620Y-28785593D01*
X37768624Y-28785667D01*
X37858170Y-28708915D01*
X37958572Y-28504296D01*
X38017659Y-28328136D01*
X38106341Y-28005851D01*
X38141640Y-27812502D01*
X38123933Y-27716449D01*
X38053594Y-27686054D01*
X38025280Y-27685000D01*
X37918358Y-27757943D01*
X37848875Y-27917834D01*
X37782079Y-28187998D01*
X37722903Y-28299036D01*
X37651520Y-28258914D01*
X37548103Y-28075599D01*
X37532833Y-28044834D01*
X37355306Y-27685000D01*
X36729931Y-27685000D01*
X36392000Y-27693171D01*
G36*
X32504978Y-24302039D02*
G01*
X32197332Y-24384318D01*
X31570758Y-24658482D01*
X30966490Y-25078275D01*
X30417655Y-25620341D01*
X30378230Y-25666975D01*
X30165568Y-25932321D01*
X29995188Y-26164225D01*
X29887457Y-26332853D01*
X29862740Y-26408370D01*
X29871521Y-26409302D01*
X29942702Y-26355987D01*
X30111084Y-26219039D01*
X30344831Y-26024479D01*
X30430441Y-25952442D01*
X31142867Y-25423873D01*
X31860105Y-25043433D01*
X32596574Y-24809838D01*
X33366691Y-24721807D01*
X34184873Y-24778057D01*
X35065537Y-24977308D01*
X36023103Y-25318276D01*
X36289686Y-25431400D01*
X36658483Y-25586373D01*
X36883585Y-25667557D01*
X36971145Y-25680023D01*
X36927317Y-25628842D01*
X36758254Y-25519085D01*
X36470110Y-25355824D01*
X36069038Y-25144130D01*
X35737666Y-24976458D01*
X34958536Y-24619603D01*
X34272342Y-24378189D01*
X33652445Y-24247760D01*
X33072203Y-24223863D01*
X32504978Y-24302039D01*
G37*
X32504978Y-24302039D02*
X32197332Y-24384318D01*
X31570758Y-24658482D01*
X30966490Y-25078275D01*
X30417655Y-25620341D01*
X30378230Y-25666975D01*
X30165568Y-25932321D01*
X29995188Y-26164225D01*
X29887457Y-26332853D01*
X29862740Y-26408370D01*
X29871521Y-26409302D01*
X29942702Y-26355987D01*
X30111084Y-26219039D01*
X30344831Y-26024479D01*
X30430441Y-25952442D01*
X31142867Y-25423873D01*
X31860105Y-25043433D01*
X32596574Y-24809838D01*
X33366691Y-24721807D01*
X34184873Y-24778057D01*
X35065537Y-24977308D01*
X36023103Y-25318276D01*
X36289686Y-25431400D01*
X36658483Y-25586373D01*
X36883585Y-25667557D01*
X36971145Y-25680023D01*
X36927317Y-25628842D01*
X36758254Y-25519085D01*
X36470110Y-25355824D01*
X36069038Y-25144130D01*
X35737666Y-24976458D01*
X34958536Y-24619603D01*
X34272342Y-24378189D01*
X33652445Y-24247760D01*
X33072203Y-24223863D01*
X32504978Y-24302039D01*
D12*
%TO.C,D2*%
X53670000Y-72055000D02*
X53670000Y-70055000D01*
X53670000Y-70055000D02*
X57520000Y-70055000D01*
X53670000Y-72055000D02*
X57520000Y-72055000D01*
%TO.C,C2*%
X54068748Y-61070000D02*
X54591252Y-61070000D01*
X54068748Y-62540000D02*
X54591252Y-62540000D01*
%TO.C,R12*%
X54122936Y-59520000D02*
X54577064Y-59520000D01*
X54122936Y-58050000D02*
X54577064Y-58050000D01*
%TO.C,D10*%
X66290000Y-122595000D02*
X64290000Y-122595000D01*
X64290000Y-122595000D02*
X64290000Y-118745000D01*
X66290000Y-122595000D02*
X66290000Y-118745000D01*
%TO.C,R26*%
X28165000Y-57337936D02*
X28165000Y-57792064D01*
X29635000Y-57337936D02*
X29635000Y-57792064D01*
%TO.C,R25*%
X31160000Y-57345436D02*
X31160000Y-57799564D01*
X32630000Y-57345436D02*
X32630000Y-57799564D01*
%TO.C,R24*%
X32722064Y-62395000D02*
X32267936Y-62395000D01*
X32722064Y-60925000D02*
X32267936Y-60925000D01*
%TO.C,R22*%
X84952064Y-130120000D02*
X84497936Y-130120000D01*
X84952064Y-131590000D02*
X84497936Y-131590000D01*
%TO.C,R21*%
X89439564Y-130170000D02*
X88985436Y-130170000D01*
X89439564Y-131640000D02*
X88985436Y-131640000D01*
%TO.C,R19*%
X120874564Y-130060000D02*
X120420436Y-130060000D01*
X120874564Y-131530000D02*
X120420436Y-131530000D01*
%TO.C,R18*%
X122195000Y-134702064D02*
X122195000Y-134247936D01*
X120725000Y-134702064D02*
X120725000Y-134247936D01*
%TO.C,R17*%
X72605000Y-124612064D02*
X72605000Y-124157936D01*
X71135000Y-124612064D02*
X71135000Y-124157936D01*
%TO.C,R16*%
X80260000Y-136943737D02*
X80260000Y-135496263D01*
X77550000Y-136943737D02*
X77550000Y-135496263D01*
%TO.C,R15*%
X72685000Y-105632064D02*
X72685000Y-105177936D01*
X71215000Y-105632064D02*
X71215000Y-105177936D01*
%TO.C,R14*%
X115005000Y-135421263D02*
X115005000Y-136868737D01*
X117715000Y-135421263D02*
X117715000Y-136868737D01*
%TO.C,L4*%
X28404622Y-62140000D02*
X27605378Y-62140000D01*
X28404622Y-61020000D02*
X27605378Y-61020000D01*
%TO.C,L3*%
X23814622Y-65130000D02*
X23015378Y-65130000D01*
X23814622Y-64010000D02*
X23015378Y-64010000D01*
%TO.C,D9*%
X69660000Y-122585000D02*
X67660000Y-122585000D01*
X67660000Y-122585000D02*
X67660000Y-118735000D01*
X69660000Y-122585000D02*
X69660000Y-118735000D01*
%TO.C,D8*%
X66240000Y-103645000D02*
X64240000Y-103645000D01*
X64240000Y-103645000D02*
X64240000Y-99795000D01*
X66240000Y-103645000D02*
X66240000Y-99795000D01*
%TO.C,D7*%
X69680000Y-103635000D02*
X67680000Y-103635000D01*
X67680000Y-103635000D02*
X67680000Y-99785000D01*
X69680000Y-103635000D02*
X69680000Y-99785000D01*
%TO.C,D1*%
X53660000Y-76465000D02*
X57510000Y-76465000D01*
X53660000Y-74465000D02*
X57510000Y-74465000D01*
X53660000Y-76465000D02*
X53660000Y-74465000D01*
%TO.C,C24*%
X32470000Y-65501252D02*
X32470000Y-64978748D01*
X33940000Y-65501252D02*
X33940000Y-64978748D01*
%TO.C,C23*%
X29420000Y-65451252D02*
X29420000Y-64928748D01*
X30890000Y-65451252D02*
X30890000Y-64928748D01*
%TO.C,C22*%
X26390000Y-65441252D02*
X26390000Y-64918748D01*
X27860000Y-65441252D02*
X27860000Y-64918748D01*
%TO.C,C21*%
X23123748Y-60935000D02*
X23646252Y-60935000D01*
X23123748Y-62405000D02*
X23646252Y-62405000D01*
%TO.C,C20*%
X27493748Y-75025000D02*
X28016252Y-75025000D01*
X27493748Y-73555000D02*
X28016252Y-73555000D01*
%TO.C,C19*%
X27513748Y-72005000D02*
X28036252Y-72005000D01*
X27513748Y-70535000D02*
X28036252Y-70535000D01*
%TO.C,C18*%
X23606252Y-73545000D02*
X23083748Y-73545000D01*
X23606252Y-75015000D02*
X23083748Y-75015000D01*
%TO.C,C17*%
X23646252Y-70475000D02*
X23123748Y-70475000D01*
X23646252Y-71945000D02*
X23123748Y-71945000D01*
%TO.C,C14*%
X72575000Y-120086252D02*
X72575000Y-119563748D01*
X71105000Y-120086252D02*
X71105000Y-119563748D01*
%TO.C,C13*%
X72590000Y-137031252D02*
X72590000Y-136508748D01*
X71120000Y-137031252D02*
X71120000Y-136508748D01*
%TO.C,C12*%
X72695000Y-101186252D02*
X72695000Y-100663748D01*
X71225000Y-101186252D02*
X71225000Y-100663748D01*
%TO.C,C11*%
X110325000Y-137046252D02*
X110325000Y-136523748D01*
X108855000Y-137046252D02*
X108855000Y-136523748D01*
%TO.C,D2*%
D10*
X56403571Y-73134285D02*
X56403571Y-72384285D01*
X56225000Y-72384285D01*
X56117857Y-72420000D01*
X56046428Y-72491428D01*
X56010714Y-72562857D01*
X55975000Y-72705714D01*
X55975000Y-72812857D01*
X56010714Y-72955714D01*
X56046428Y-73027142D01*
X56117857Y-73098571D01*
X56225000Y-73134285D01*
X56403571Y-73134285D01*
X55689285Y-72455714D02*
X55653571Y-72420000D01*
X55582142Y-72384285D01*
X55403571Y-72384285D01*
X55332142Y-72420000D01*
X55296428Y-72455714D01*
X55260714Y-72527142D01*
X55260714Y-72598571D01*
X55296428Y-72705714D01*
X55725000Y-73134285D01*
X55260714Y-73134285D01*
%TO.C,C2*%
X54695000Y-63772857D02*
X54730714Y-63808571D01*
X54837857Y-63844285D01*
X54909285Y-63844285D01*
X55016428Y-63808571D01*
X55087857Y-63737142D01*
X55123571Y-63665714D01*
X55159285Y-63522857D01*
X55159285Y-63415714D01*
X55123571Y-63272857D01*
X55087857Y-63201428D01*
X55016428Y-63130000D01*
X54909285Y-63094285D01*
X54837857Y-63094285D01*
X54730714Y-63130000D01*
X54695000Y-63165714D01*
X54409285Y-63165714D02*
X54373571Y-63130000D01*
X54302142Y-63094285D01*
X54123571Y-63094285D01*
X54052142Y-63130000D01*
X54016428Y-63165714D01*
X53980714Y-63237142D01*
X53980714Y-63308571D01*
X54016428Y-63415714D01*
X54445000Y-63844285D01*
X53980714Y-63844285D01*
%TO.C,R12*%
X54812142Y-60664285D02*
X55062142Y-60307142D01*
X55240714Y-60664285D02*
X55240714Y-59914285D01*
X54955000Y-59914285D01*
X54883571Y-59950000D01*
X54847857Y-59985714D01*
X54812142Y-60057142D01*
X54812142Y-60164285D01*
X54847857Y-60235714D01*
X54883571Y-60271428D01*
X54955000Y-60307142D01*
X55240714Y-60307142D01*
X54097857Y-60664285D02*
X54526428Y-60664285D01*
X54312142Y-60664285D02*
X54312142Y-59914285D01*
X54383571Y-60021428D01*
X54455000Y-60092857D01*
X54526428Y-60128571D01*
X53812142Y-59985714D02*
X53776428Y-59950000D01*
X53705000Y-59914285D01*
X53526428Y-59914285D01*
X53455000Y-59950000D01*
X53419285Y-59985714D01*
X53383571Y-60057142D01*
X53383571Y-60128571D01*
X53419285Y-60235714D01*
X53847857Y-60664285D01*
X53383571Y-60664285D01*
%TO.C,D10*%
X66185714Y-123569285D02*
X66185714Y-122819285D01*
X66007142Y-122819285D01*
X65900000Y-122855000D01*
X65828571Y-122926428D01*
X65792857Y-122997857D01*
X65757142Y-123140714D01*
X65757142Y-123247857D01*
X65792857Y-123390714D01*
X65828571Y-123462142D01*
X65900000Y-123533571D01*
X66007142Y-123569285D01*
X66185714Y-123569285D01*
X65042857Y-123569285D02*
X65471428Y-123569285D01*
X65257142Y-123569285D02*
X65257142Y-122819285D01*
X65328571Y-122926428D01*
X65400000Y-122997857D01*
X65471428Y-123033571D01*
X64578571Y-122819285D02*
X64507142Y-122819285D01*
X64435714Y-122855000D01*
X64400000Y-122890714D01*
X64364285Y-122962142D01*
X64328571Y-123105000D01*
X64328571Y-123283571D01*
X64364285Y-123426428D01*
X64400000Y-123497857D01*
X64435714Y-123533571D01*
X64507142Y-123569285D01*
X64578571Y-123569285D01*
X64650000Y-123533571D01*
X64685714Y-123497857D01*
X64721428Y-123426428D01*
X64757142Y-123283571D01*
X64757142Y-123105000D01*
X64721428Y-122962142D01*
X64685714Y-122890714D01*
X64650000Y-122855000D01*
X64578571Y-122819285D01*
%TO.C,R26*%
X30739285Y-57082857D02*
X30382142Y-56832857D01*
X30739285Y-56654285D02*
X29989285Y-56654285D01*
X29989285Y-56940000D01*
X30025000Y-57011428D01*
X30060714Y-57047142D01*
X30132142Y-57082857D01*
X30239285Y-57082857D01*
X30310714Y-57047142D01*
X30346428Y-57011428D01*
X30382142Y-56940000D01*
X30382142Y-56654285D01*
X30060714Y-57368571D02*
X30025000Y-57404285D01*
X29989285Y-57475714D01*
X29989285Y-57654285D01*
X30025000Y-57725714D01*
X30060714Y-57761428D01*
X30132142Y-57797142D01*
X30203571Y-57797142D01*
X30310714Y-57761428D01*
X30739285Y-57332857D01*
X30739285Y-57797142D01*
X29989285Y-58440000D02*
X29989285Y-58297142D01*
X30025000Y-58225714D01*
X30060714Y-58190000D01*
X30167857Y-58118571D01*
X30310714Y-58082857D01*
X30596428Y-58082857D01*
X30667857Y-58118571D01*
X30703571Y-58154285D01*
X30739285Y-58225714D01*
X30739285Y-58368571D01*
X30703571Y-58440000D01*
X30667857Y-58475714D01*
X30596428Y-58511428D01*
X30417857Y-58511428D01*
X30346428Y-58475714D01*
X30310714Y-58440000D01*
X30275000Y-58368571D01*
X30275000Y-58225714D01*
X30310714Y-58154285D01*
X30346428Y-58118571D01*
X30417857Y-58082857D01*
%TO.C,R25*%
X33689285Y-57082857D02*
X33332142Y-56832857D01*
X33689285Y-56654285D02*
X32939285Y-56654285D01*
X32939285Y-56940000D01*
X32975000Y-57011428D01*
X33010714Y-57047142D01*
X33082142Y-57082857D01*
X33189285Y-57082857D01*
X33260714Y-57047142D01*
X33296428Y-57011428D01*
X33332142Y-56940000D01*
X33332142Y-56654285D01*
X33010714Y-57368571D02*
X32975000Y-57404285D01*
X32939285Y-57475714D01*
X32939285Y-57654285D01*
X32975000Y-57725714D01*
X33010714Y-57761428D01*
X33082142Y-57797142D01*
X33153571Y-57797142D01*
X33260714Y-57761428D01*
X33689285Y-57332857D01*
X33689285Y-57797142D01*
X32939285Y-58475714D02*
X32939285Y-58118571D01*
X33296428Y-58082857D01*
X33260714Y-58118571D01*
X33225000Y-58190000D01*
X33225000Y-58368571D01*
X33260714Y-58440000D01*
X33296428Y-58475714D01*
X33367857Y-58511428D01*
X33546428Y-58511428D01*
X33617857Y-58475714D01*
X33653571Y-58440000D01*
X33689285Y-58368571D01*
X33689285Y-58190000D01*
X33653571Y-58118571D01*
X33617857Y-58082857D01*
%TO.C,R24*%
X32802142Y-63394285D02*
X33052142Y-63037142D01*
X33230714Y-63394285D02*
X33230714Y-62644285D01*
X32945000Y-62644285D01*
X32873571Y-62680000D01*
X32837857Y-62715714D01*
X32802142Y-62787142D01*
X32802142Y-62894285D01*
X32837857Y-62965714D01*
X32873571Y-63001428D01*
X32945000Y-63037142D01*
X33230714Y-63037142D01*
X32516428Y-62715714D02*
X32480714Y-62680000D01*
X32409285Y-62644285D01*
X32230714Y-62644285D01*
X32159285Y-62680000D01*
X32123571Y-62715714D01*
X32087857Y-62787142D01*
X32087857Y-62858571D01*
X32123571Y-62965714D01*
X32552142Y-63394285D01*
X32087857Y-63394285D01*
X31445000Y-62894285D02*
X31445000Y-63394285D01*
X31623571Y-62608571D02*
X31802142Y-63144285D01*
X31337857Y-63144285D01*
%TO.C,R22*%
X85182142Y-132894285D02*
X85432142Y-132537142D01*
X85610714Y-132894285D02*
X85610714Y-132144285D01*
X85325000Y-132144285D01*
X85253571Y-132180000D01*
X85217857Y-132215714D01*
X85182142Y-132287142D01*
X85182142Y-132394285D01*
X85217857Y-132465714D01*
X85253571Y-132501428D01*
X85325000Y-132537142D01*
X85610714Y-132537142D01*
X84896428Y-132215714D02*
X84860714Y-132180000D01*
X84789285Y-132144285D01*
X84610714Y-132144285D01*
X84539285Y-132180000D01*
X84503571Y-132215714D01*
X84467857Y-132287142D01*
X84467857Y-132358571D01*
X84503571Y-132465714D01*
X84932142Y-132894285D01*
X84467857Y-132894285D01*
X84182142Y-132215714D02*
X84146428Y-132180000D01*
X84075000Y-132144285D01*
X83896428Y-132144285D01*
X83825000Y-132180000D01*
X83789285Y-132215714D01*
X83753571Y-132287142D01*
X83753571Y-132358571D01*
X83789285Y-132465714D01*
X84217857Y-132894285D01*
X83753571Y-132894285D01*
%TO.C,R21*%
X90212142Y-132814285D02*
X90462142Y-132457142D01*
X90640714Y-132814285D02*
X90640714Y-132064285D01*
X90355000Y-132064285D01*
X90283571Y-132100000D01*
X90247857Y-132135714D01*
X90212142Y-132207142D01*
X90212142Y-132314285D01*
X90247857Y-132385714D01*
X90283571Y-132421428D01*
X90355000Y-132457142D01*
X90640714Y-132457142D01*
X89926428Y-132135714D02*
X89890714Y-132100000D01*
X89819285Y-132064285D01*
X89640714Y-132064285D01*
X89569285Y-132100000D01*
X89533571Y-132135714D01*
X89497857Y-132207142D01*
X89497857Y-132278571D01*
X89533571Y-132385714D01*
X89962142Y-132814285D01*
X89497857Y-132814285D01*
X88783571Y-132814285D02*
X89212142Y-132814285D01*
X88997857Y-132814285D02*
X88997857Y-132064285D01*
X89069285Y-132171428D01*
X89140714Y-132242857D01*
X89212142Y-132278571D01*
%TO.C,R19*%
X121107142Y-132619285D02*
X121357142Y-132262142D01*
X121535714Y-132619285D02*
X121535714Y-131869285D01*
X121250000Y-131869285D01*
X121178571Y-131905000D01*
X121142857Y-131940714D01*
X121107142Y-132012142D01*
X121107142Y-132119285D01*
X121142857Y-132190714D01*
X121178571Y-132226428D01*
X121250000Y-132262142D01*
X121535714Y-132262142D01*
X120392857Y-132619285D02*
X120821428Y-132619285D01*
X120607142Y-132619285D02*
X120607142Y-131869285D01*
X120678571Y-131976428D01*
X120750000Y-132047857D01*
X120821428Y-132083571D01*
X120035714Y-132619285D02*
X119892857Y-132619285D01*
X119821428Y-132583571D01*
X119785714Y-132547857D01*
X119714285Y-132440714D01*
X119678571Y-132297857D01*
X119678571Y-132012142D01*
X119714285Y-131940714D01*
X119750000Y-131905000D01*
X119821428Y-131869285D01*
X119964285Y-131869285D01*
X120035714Y-131905000D01*
X120071428Y-131940714D01*
X120107142Y-132012142D01*
X120107142Y-132190714D01*
X120071428Y-132262142D01*
X120035714Y-132297857D01*
X119964285Y-132333571D01*
X119821428Y-132333571D01*
X119750000Y-132297857D01*
X119714285Y-132262142D01*
X119678571Y-132190714D01*
%TO.C,R18*%
X123449285Y-133992857D02*
X123092142Y-133742857D01*
X123449285Y-133564285D02*
X122699285Y-133564285D01*
X122699285Y-133850000D01*
X122735000Y-133921428D01*
X122770714Y-133957142D01*
X122842142Y-133992857D01*
X122949285Y-133992857D01*
X123020714Y-133957142D01*
X123056428Y-133921428D01*
X123092142Y-133850000D01*
X123092142Y-133564285D01*
X123449285Y-134707142D02*
X123449285Y-134278571D01*
X123449285Y-134492857D02*
X122699285Y-134492857D01*
X122806428Y-134421428D01*
X122877857Y-134350000D01*
X122913571Y-134278571D01*
X123020714Y-135135714D02*
X122985000Y-135064285D01*
X122949285Y-135028571D01*
X122877857Y-134992857D01*
X122842142Y-134992857D01*
X122770714Y-135028571D01*
X122735000Y-135064285D01*
X122699285Y-135135714D01*
X122699285Y-135278571D01*
X122735000Y-135350000D01*
X122770714Y-135385714D01*
X122842142Y-135421428D01*
X122877857Y-135421428D01*
X122949285Y-135385714D01*
X122985000Y-135350000D01*
X123020714Y-135278571D01*
X123020714Y-135135714D01*
X123056428Y-135064285D01*
X123092142Y-135028571D01*
X123163571Y-134992857D01*
X123306428Y-134992857D01*
X123377857Y-135028571D01*
X123413571Y-135064285D01*
X123449285Y-135135714D01*
X123449285Y-135278571D01*
X123413571Y-135350000D01*
X123377857Y-135385714D01*
X123306428Y-135421428D01*
X123163571Y-135421428D01*
X123092142Y-135385714D01*
X123056428Y-135350000D01*
X123020714Y-135278571D01*
%TO.C,R17*%
X73749285Y-123722857D02*
X73392142Y-123472857D01*
X73749285Y-123294285D02*
X72999285Y-123294285D01*
X72999285Y-123580000D01*
X73035000Y-123651428D01*
X73070714Y-123687142D01*
X73142142Y-123722857D01*
X73249285Y-123722857D01*
X73320714Y-123687142D01*
X73356428Y-123651428D01*
X73392142Y-123580000D01*
X73392142Y-123294285D01*
X73749285Y-124437142D02*
X73749285Y-124008571D01*
X73749285Y-124222857D02*
X72999285Y-124222857D01*
X73106428Y-124151428D01*
X73177857Y-124080000D01*
X73213571Y-124008571D01*
X72999285Y-124687142D02*
X72999285Y-125187142D01*
X73749285Y-124865714D01*
%TO.C,R16*%
X79307142Y-139519285D02*
X79557142Y-139162142D01*
X79735714Y-139519285D02*
X79735714Y-138769285D01*
X79450000Y-138769285D01*
X79378571Y-138805000D01*
X79342857Y-138840714D01*
X79307142Y-138912142D01*
X79307142Y-139019285D01*
X79342857Y-139090714D01*
X79378571Y-139126428D01*
X79450000Y-139162142D01*
X79735714Y-139162142D01*
X78592857Y-139519285D02*
X79021428Y-139519285D01*
X78807142Y-139519285D02*
X78807142Y-138769285D01*
X78878571Y-138876428D01*
X78950000Y-138947857D01*
X79021428Y-138983571D01*
X77950000Y-138769285D02*
X78092857Y-138769285D01*
X78164285Y-138805000D01*
X78200000Y-138840714D01*
X78271428Y-138947857D01*
X78307142Y-139090714D01*
X78307142Y-139376428D01*
X78271428Y-139447857D01*
X78235714Y-139483571D01*
X78164285Y-139519285D01*
X78021428Y-139519285D01*
X77950000Y-139483571D01*
X77914285Y-139447857D01*
X77878571Y-139376428D01*
X77878571Y-139197857D01*
X77914285Y-139126428D01*
X77950000Y-139090714D01*
X78021428Y-139055000D01*
X78164285Y-139055000D01*
X78235714Y-139090714D01*
X78271428Y-139126428D01*
X78307142Y-139197857D01*
%TO.C,R15*%
X73919285Y-104402857D02*
X73562142Y-104152857D01*
X73919285Y-103974285D02*
X73169285Y-103974285D01*
X73169285Y-104260000D01*
X73205000Y-104331428D01*
X73240714Y-104367142D01*
X73312142Y-104402857D01*
X73419285Y-104402857D01*
X73490714Y-104367142D01*
X73526428Y-104331428D01*
X73562142Y-104260000D01*
X73562142Y-103974285D01*
X73919285Y-105117142D02*
X73919285Y-104688571D01*
X73919285Y-104902857D02*
X73169285Y-104902857D01*
X73276428Y-104831428D01*
X73347857Y-104760000D01*
X73383571Y-104688571D01*
X73169285Y-105795714D02*
X73169285Y-105438571D01*
X73526428Y-105402857D01*
X73490714Y-105438571D01*
X73455000Y-105510000D01*
X73455000Y-105688571D01*
X73490714Y-105760000D01*
X73526428Y-105795714D01*
X73597857Y-105831428D01*
X73776428Y-105831428D01*
X73847857Y-105795714D01*
X73883571Y-105760000D01*
X73919285Y-105688571D01*
X73919285Y-105510000D01*
X73883571Y-105438571D01*
X73847857Y-105402857D01*
%TO.C,R14*%
X116832142Y-139444285D02*
X117082142Y-139087142D01*
X117260714Y-139444285D02*
X117260714Y-138694285D01*
X116975000Y-138694285D01*
X116903571Y-138730000D01*
X116867857Y-138765714D01*
X116832142Y-138837142D01*
X116832142Y-138944285D01*
X116867857Y-139015714D01*
X116903571Y-139051428D01*
X116975000Y-139087142D01*
X117260714Y-139087142D01*
X116117857Y-139444285D02*
X116546428Y-139444285D01*
X116332142Y-139444285D02*
X116332142Y-138694285D01*
X116403571Y-138801428D01*
X116475000Y-138872857D01*
X116546428Y-138908571D01*
X115475000Y-138944285D02*
X115475000Y-139444285D01*
X115653571Y-138658571D02*
X115832142Y-139194285D01*
X115367857Y-139194285D01*
%TO.C,L4*%
X28085000Y-63324285D02*
X28442142Y-63324285D01*
X28442142Y-62574285D01*
X27513571Y-62824285D02*
X27513571Y-63324285D01*
X27692142Y-62538571D02*
X27870714Y-63074285D01*
X27406428Y-63074285D01*
%TO.C,L3*%
X23500000Y-66329285D02*
X23857142Y-66329285D01*
X23857142Y-65579285D01*
X23321428Y-65579285D02*
X22857142Y-65579285D01*
X23107142Y-65865000D01*
X23000000Y-65865000D01*
X22928571Y-65900714D01*
X22892857Y-65936428D01*
X22857142Y-66007857D01*
X22857142Y-66186428D01*
X22892857Y-66257857D01*
X22928571Y-66293571D01*
X23000000Y-66329285D01*
X23214285Y-66329285D01*
X23285714Y-66293571D01*
X23321428Y-66257857D01*
%TO.C,D9*%
X69203571Y-123494285D02*
X69203571Y-122744285D01*
X69025000Y-122744285D01*
X68917857Y-122780000D01*
X68846428Y-122851428D01*
X68810714Y-122922857D01*
X68775000Y-123065714D01*
X68775000Y-123172857D01*
X68810714Y-123315714D01*
X68846428Y-123387142D01*
X68917857Y-123458571D01*
X69025000Y-123494285D01*
X69203571Y-123494285D01*
X68417857Y-123494285D02*
X68275000Y-123494285D01*
X68203571Y-123458571D01*
X68167857Y-123422857D01*
X68096428Y-123315714D01*
X68060714Y-123172857D01*
X68060714Y-122887142D01*
X68096428Y-122815714D01*
X68132142Y-122780000D01*
X68203571Y-122744285D01*
X68346428Y-122744285D01*
X68417857Y-122780000D01*
X68453571Y-122815714D01*
X68489285Y-122887142D01*
X68489285Y-123065714D01*
X68453571Y-123137142D01*
X68417857Y-123172857D01*
X68346428Y-123208571D01*
X68203571Y-123208571D01*
X68132142Y-123172857D01*
X68096428Y-123137142D01*
X68060714Y-123065714D01*
%TO.C,D8*%
X65743571Y-104619285D02*
X65743571Y-103869285D01*
X65565000Y-103869285D01*
X65457857Y-103905000D01*
X65386428Y-103976428D01*
X65350714Y-104047857D01*
X65315000Y-104190714D01*
X65315000Y-104297857D01*
X65350714Y-104440714D01*
X65386428Y-104512142D01*
X65457857Y-104583571D01*
X65565000Y-104619285D01*
X65743571Y-104619285D01*
X64886428Y-104190714D02*
X64957857Y-104155000D01*
X64993571Y-104119285D01*
X65029285Y-104047857D01*
X65029285Y-104012142D01*
X64993571Y-103940714D01*
X64957857Y-103905000D01*
X64886428Y-103869285D01*
X64743571Y-103869285D01*
X64672142Y-103905000D01*
X64636428Y-103940714D01*
X64600714Y-104012142D01*
X64600714Y-104047857D01*
X64636428Y-104119285D01*
X64672142Y-104155000D01*
X64743571Y-104190714D01*
X64886428Y-104190714D01*
X64957857Y-104226428D01*
X64993571Y-104262142D01*
X65029285Y-104333571D01*
X65029285Y-104476428D01*
X64993571Y-104547857D01*
X64957857Y-104583571D01*
X64886428Y-104619285D01*
X64743571Y-104619285D01*
X64672142Y-104583571D01*
X64636428Y-104547857D01*
X64600714Y-104476428D01*
X64600714Y-104333571D01*
X64636428Y-104262142D01*
X64672142Y-104226428D01*
X64743571Y-104190714D01*
%TO.C,D7*%
X69228571Y-104594285D02*
X69228571Y-103844285D01*
X69050000Y-103844285D01*
X68942857Y-103880000D01*
X68871428Y-103951428D01*
X68835714Y-104022857D01*
X68800000Y-104165714D01*
X68800000Y-104272857D01*
X68835714Y-104415714D01*
X68871428Y-104487142D01*
X68942857Y-104558571D01*
X69050000Y-104594285D01*
X69228571Y-104594285D01*
X68550000Y-103844285D02*
X68050000Y-103844285D01*
X68371428Y-104594285D01*
%TO.C,D1*%
X56288571Y-77579285D02*
X56288571Y-76829285D01*
X56110000Y-76829285D01*
X56002857Y-76865000D01*
X55931428Y-76936428D01*
X55895714Y-77007857D01*
X55860000Y-77150714D01*
X55860000Y-77257857D01*
X55895714Y-77400714D01*
X55931428Y-77472142D01*
X56002857Y-77543571D01*
X56110000Y-77579285D01*
X56288571Y-77579285D01*
X55145714Y-77579285D02*
X55574285Y-77579285D01*
X55360000Y-77579285D02*
X55360000Y-76829285D01*
X55431428Y-76936428D01*
X55502857Y-77007857D01*
X55574285Y-77043571D01*
%TO.C,C24*%
X35017857Y-64732857D02*
X35053571Y-64697142D01*
X35089285Y-64590000D01*
X35089285Y-64518571D01*
X35053571Y-64411428D01*
X34982142Y-64340000D01*
X34910714Y-64304285D01*
X34767857Y-64268571D01*
X34660714Y-64268571D01*
X34517857Y-64304285D01*
X34446428Y-64340000D01*
X34375000Y-64411428D01*
X34339285Y-64518571D01*
X34339285Y-64590000D01*
X34375000Y-64697142D01*
X34410714Y-64732857D01*
X34410714Y-65018571D02*
X34375000Y-65054285D01*
X34339285Y-65125714D01*
X34339285Y-65304285D01*
X34375000Y-65375714D01*
X34410714Y-65411428D01*
X34482142Y-65447142D01*
X34553571Y-65447142D01*
X34660714Y-65411428D01*
X35089285Y-64982857D01*
X35089285Y-65447142D01*
X34589285Y-66090000D02*
X35089285Y-66090000D01*
X34303571Y-65911428D02*
X34839285Y-65732857D01*
X34839285Y-66197142D01*
%TO.C,C23*%
X31947857Y-64752857D02*
X31983571Y-64717142D01*
X32019285Y-64610000D01*
X32019285Y-64538571D01*
X31983571Y-64431428D01*
X31912142Y-64360000D01*
X31840714Y-64324285D01*
X31697857Y-64288571D01*
X31590714Y-64288571D01*
X31447857Y-64324285D01*
X31376428Y-64360000D01*
X31305000Y-64431428D01*
X31269285Y-64538571D01*
X31269285Y-64610000D01*
X31305000Y-64717142D01*
X31340714Y-64752857D01*
X31340714Y-65038571D02*
X31305000Y-65074285D01*
X31269285Y-65145714D01*
X31269285Y-65324285D01*
X31305000Y-65395714D01*
X31340714Y-65431428D01*
X31412142Y-65467142D01*
X31483571Y-65467142D01*
X31590714Y-65431428D01*
X32019285Y-65002857D01*
X32019285Y-65467142D01*
X31269285Y-65717142D02*
X31269285Y-66181428D01*
X31555000Y-65931428D01*
X31555000Y-66038571D01*
X31590714Y-66110000D01*
X31626428Y-66145714D01*
X31697857Y-66181428D01*
X31876428Y-66181428D01*
X31947857Y-66145714D01*
X31983571Y-66110000D01*
X32019285Y-66038571D01*
X32019285Y-65824285D01*
X31983571Y-65752857D01*
X31947857Y-65717142D01*
%TO.C,C22*%
X28947857Y-64692857D02*
X28983571Y-64657142D01*
X29019285Y-64550000D01*
X29019285Y-64478571D01*
X28983571Y-64371428D01*
X28912142Y-64300000D01*
X28840714Y-64264285D01*
X28697857Y-64228571D01*
X28590714Y-64228571D01*
X28447857Y-64264285D01*
X28376428Y-64300000D01*
X28305000Y-64371428D01*
X28269285Y-64478571D01*
X28269285Y-64550000D01*
X28305000Y-64657142D01*
X28340714Y-64692857D01*
X28340714Y-64978571D02*
X28305000Y-65014285D01*
X28269285Y-65085714D01*
X28269285Y-65264285D01*
X28305000Y-65335714D01*
X28340714Y-65371428D01*
X28412142Y-65407142D01*
X28483571Y-65407142D01*
X28590714Y-65371428D01*
X29019285Y-64942857D01*
X29019285Y-65407142D01*
X28340714Y-65692857D02*
X28305000Y-65728571D01*
X28269285Y-65800000D01*
X28269285Y-65978571D01*
X28305000Y-66050000D01*
X28340714Y-66085714D01*
X28412142Y-66121428D01*
X28483571Y-66121428D01*
X28590714Y-66085714D01*
X29019285Y-65657142D01*
X29019285Y-66121428D01*
%TO.C,C21*%
X23862142Y-63482857D02*
X23897857Y-63518571D01*
X24005000Y-63554285D01*
X24076428Y-63554285D01*
X24183571Y-63518571D01*
X24255000Y-63447142D01*
X24290714Y-63375714D01*
X24326428Y-63232857D01*
X24326428Y-63125714D01*
X24290714Y-62982857D01*
X24255000Y-62911428D01*
X24183571Y-62840000D01*
X24076428Y-62804285D01*
X24005000Y-62804285D01*
X23897857Y-62840000D01*
X23862142Y-62875714D01*
X23576428Y-62875714D02*
X23540714Y-62840000D01*
X23469285Y-62804285D01*
X23290714Y-62804285D01*
X23219285Y-62840000D01*
X23183571Y-62875714D01*
X23147857Y-62947142D01*
X23147857Y-63018571D01*
X23183571Y-63125714D01*
X23612142Y-63554285D01*
X23147857Y-63554285D01*
X22433571Y-63554285D02*
X22862142Y-63554285D01*
X22647857Y-63554285D02*
X22647857Y-62804285D01*
X22719285Y-62911428D01*
X22790714Y-62982857D01*
X22862142Y-63018571D01*
%TO.C,C20*%
X28782142Y-76162857D02*
X28817857Y-76198571D01*
X28925000Y-76234285D01*
X28996428Y-76234285D01*
X29103571Y-76198571D01*
X29175000Y-76127142D01*
X29210714Y-76055714D01*
X29246428Y-75912857D01*
X29246428Y-75805714D01*
X29210714Y-75662857D01*
X29175000Y-75591428D01*
X29103571Y-75520000D01*
X28996428Y-75484285D01*
X28925000Y-75484285D01*
X28817857Y-75520000D01*
X28782142Y-75555714D01*
X28496428Y-75555714D02*
X28460714Y-75520000D01*
X28389285Y-75484285D01*
X28210714Y-75484285D01*
X28139285Y-75520000D01*
X28103571Y-75555714D01*
X28067857Y-75627142D01*
X28067857Y-75698571D01*
X28103571Y-75805714D01*
X28532142Y-76234285D01*
X28067857Y-76234285D01*
X27603571Y-75484285D02*
X27532142Y-75484285D01*
X27460714Y-75520000D01*
X27425000Y-75555714D01*
X27389285Y-75627142D01*
X27353571Y-75770000D01*
X27353571Y-75948571D01*
X27389285Y-76091428D01*
X27425000Y-76162857D01*
X27460714Y-76198571D01*
X27532142Y-76234285D01*
X27603571Y-76234285D01*
X27675000Y-76198571D01*
X27710714Y-76162857D01*
X27746428Y-76091428D01*
X27782142Y-75948571D01*
X27782142Y-75770000D01*
X27746428Y-75627142D01*
X27710714Y-75555714D01*
X27675000Y-75520000D01*
X27603571Y-75484285D01*
%TO.C,C19*%
X28257142Y-73032857D02*
X28292857Y-73068571D01*
X28400000Y-73104285D01*
X28471428Y-73104285D01*
X28578571Y-73068571D01*
X28650000Y-72997142D01*
X28685714Y-72925714D01*
X28721428Y-72782857D01*
X28721428Y-72675714D01*
X28685714Y-72532857D01*
X28650000Y-72461428D01*
X28578571Y-72390000D01*
X28471428Y-72354285D01*
X28400000Y-72354285D01*
X28292857Y-72390000D01*
X28257142Y-72425714D01*
X27542857Y-73104285D02*
X27971428Y-73104285D01*
X27757142Y-73104285D02*
X27757142Y-72354285D01*
X27828571Y-72461428D01*
X27900000Y-72532857D01*
X27971428Y-72568571D01*
X27185714Y-73104285D02*
X27042857Y-73104285D01*
X26971428Y-73068571D01*
X26935714Y-73032857D01*
X26864285Y-72925714D01*
X26828571Y-72782857D01*
X26828571Y-72497142D01*
X26864285Y-72425714D01*
X26900000Y-72390000D01*
X26971428Y-72354285D01*
X27114285Y-72354285D01*
X27185714Y-72390000D01*
X27221428Y-72425714D01*
X27257142Y-72497142D01*
X27257142Y-72675714D01*
X27221428Y-72747142D01*
X27185714Y-72782857D01*
X27114285Y-72818571D01*
X26971428Y-72818571D01*
X26900000Y-72782857D01*
X26864285Y-72747142D01*
X26828571Y-72675714D01*
%TO.C,C18*%
X23232142Y-76152857D02*
X23267857Y-76188571D01*
X23375000Y-76224285D01*
X23446428Y-76224285D01*
X23553571Y-76188571D01*
X23625000Y-76117142D01*
X23660714Y-76045714D01*
X23696428Y-75902857D01*
X23696428Y-75795714D01*
X23660714Y-75652857D01*
X23625000Y-75581428D01*
X23553571Y-75510000D01*
X23446428Y-75474285D01*
X23375000Y-75474285D01*
X23267857Y-75510000D01*
X23232142Y-75545714D01*
X22517857Y-76224285D02*
X22946428Y-76224285D01*
X22732142Y-76224285D02*
X22732142Y-75474285D01*
X22803571Y-75581428D01*
X22875000Y-75652857D01*
X22946428Y-75688571D01*
X22089285Y-75795714D02*
X22160714Y-75760000D01*
X22196428Y-75724285D01*
X22232142Y-75652857D01*
X22232142Y-75617142D01*
X22196428Y-75545714D01*
X22160714Y-75510000D01*
X22089285Y-75474285D01*
X21946428Y-75474285D01*
X21875000Y-75510000D01*
X21839285Y-75545714D01*
X21803571Y-75617142D01*
X21803571Y-75652857D01*
X21839285Y-75724285D01*
X21875000Y-75760000D01*
X21946428Y-75795714D01*
X22089285Y-75795714D01*
X22160714Y-75831428D01*
X22196428Y-75867142D01*
X22232142Y-75938571D01*
X22232142Y-76081428D01*
X22196428Y-76152857D01*
X22160714Y-76188571D01*
X22089285Y-76224285D01*
X21946428Y-76224285D01*
X21875000Y-76188571D01*
X21839285Y-76152857D01*
X21803571Y-76081428D01*
X21803571Y-75938571D01*
X21839285Y-75867142D01*
X21875000Y-75831428D01*
X21946428Y-75795714D01*
%TO.C,C17*%
X23857142Y-73007857D02*
X23892857Y-73043571D01*
X24000000Y-73079285D01*
X24071428Y-73079285D01*
X24178571Y-73043571D01*
X24250000Y-72972142D01*
X24285714Y-72900714D01*
X24321428Y-72757857D01*
X24321428Y-72650714D01*
X24285714Y-72507857D01*
X24250000Y-72436428D01*
X24178571Y-72365000D01*
X24071428Y-72329285D01*
X24000000Y-72329285D01*
X23892857Y-72365000D01*
X23857142Y-72400714D01*
X23142857Y-73079285D02*
X23571428Y-73079285D01*
X23357142Y-73079285D02*
X23357142Y-72329285D01*
X23428571Y-72436428D01*
X23500000Y-72507857D01*
X23571428Y-72543571D01*
X22892857Y-72329285D02*
X22392857Y-72329285D01*
X22714285Y-73079285D01*
%TO.C,C14*%
X72342142Y-122412857D02*
X72377857Y-122448571D01*
X72485000Y-122484285D01*
X72556428Y-122484285D01*
X72663571Y-122448571D01*
X72735000Y-122377142D01*
X72770714Y-122305714D01*
X72806428Y-122162857D01*
X72806428Y-122055714D01*
X72770714Y-121912857D01*
X72735000Y-121841428D01*
X72663571Y-121770000D01*
X72556428Y-121734285D01*
X72485000Y-121734285D01*
X72377857Y-121770000D01*
X72342142Y-121805714D01*
X71627857Y-122484285D02*
X72056428Y-122484285D01*
X71842142Y-122484285D02*
X71842142Y-121734285D01*
X71913571Y-121841428D01*
X71985000Y-121912857D01*
X72056428Y-121948571D01*
X70985000Y-121984285D02*
X70985000Y-122484285D01*
X71163571Y-121698571D02*
X71342142Y-122234285D01*
X70877857Y-122234285D01*
%TO.C,C13*%
X72257142Y-139447857D02*
X72292857Y-139483571D01*
X72400000Y-139519285D01*
X72471428Y-139519285D01*
X72578571Y-139483571D01*
X72650000Y-139412142D01*
X72685714Y-139340714D01*
X72721428Y-139197857D01*
X72721428Y-139090714D01*
X72685714Y-138947857D01*
X72650000Y-138876428D01*
X72578571Y-138805000D01*
X72471428Y-138769285D01*
X72400000Y-138769285D01*
X72292857Y-138805000D01*
X72257142Y-138840714D01*
X71542857Y-139519285D02*
X71971428Y-139519285D01*
X71757142Y-139519285D02*
X71757142Y-138769285D01*
X71828571Y-138876428D01*
X71900000Y-138947857D01*
X71971428Y-138983571D01*
X71292857Y-138769285D02*
X70828571Y-138769285D01*
X71078571Y-139055000D01*
X70971428Y-139055000D01*
X70900000Y-139090714D01*
X70864285Y-139126428D01*
X70828571Y-139197857D01*
X70828571Y-139376428D01*
X70864285Y-139447857D01*
X70900000Y-139483571D01*
X70971428Y-139519285D01*
X71185714Y-139519285D01*
X71257142Y-139483571D01*
X71292857Y-139447857D01*
%TO.C,C12*%
X72432142Y-103432857D02*
X72467857Y-103468571D01*
X72575000Y-103504285D01*
X72646428Y-103504285D01*
X72753571Y-103468571D01*
X72825000Y-103397142D01*
X72860714Y-103325714D01*
X72896428Y-103182857D01*
X72896428Y-103075714D01*
X72860714Y-102932857D01*
X72825000Y-102861428D01*
X72753571Y-102790000D01*
X72646428Y-102754285D01*
X72575000Y-102754285D01*
X72467857Y-102790000D01*
X72432142Y-102825714D01*
X71717857Y-103504285D02*
X72146428Y-103504285D01*
X71932142Y-103504285D02*
X71932142Y-102754285D01*
X72003571Y-102861428D01*
X72075000Y-102932857D01*
X72146428Y-102968571D01*
X71432142Y-102825714D02*
X71396428Y-102790000D01*
X71325000Y-102754285D01*
X71146428Y-102754285D01*
X71075000Y-102790000D01*
X71039285Y-102825714D01*
X71003571Y-102897142D01*
X71003571Y-102968571D01*
X71039285Y-103075714D01*
X71467857Y-103504285D01*
X71003571Y-103504285D01*
%TO.C,C11*%
X110032142Y-139372857D02*
X110067857Y-139408571D01*
X110175000Y-139444285D01*
X110246428Y-139444285D01*
X110353571Y-139408571D01*
X110425000Y-139337142D01*
X110460714Y-139265714D01*
X110496428Y-139122857D01*
X110496428Y-139015714D01*
X110460714Y-138872857D01*
X110425000Y-138801428D01*
X110353571Y-138730000D01*
X110246428Y-138694285D01*
X110175000Y-138694285D01*
X110067857Y-138730000D01*
X110032142Y-138765714D01*
X109317857Y-139444285D02*
X109746428Y-139444285D01*
X109532142Y-139444285D02*
X109532142Y-138694285D01*
X109603571Y-138801428D01*
X109675000Y-138872857D01*
X109746428Y-138908571D01*
X108603571Y-139444285D02*
X109032142Y-139444285D01*
X108817857Y-139444285D02*
X108817857Y-138694285D01*
X108889285Y-138801428D01*
X108960714Y-138872857D01*
X109032142Y-138908571D01*
%TD*%
%LPC*%
%TO.C,D2*%
G36*
G01*
X56520000Y-71605000D02*
X56520000Y-70505000D01*
G75*
G02*
X56720000Y-70305000I200000J0D01*
G01*
X57820000Y-70305000D01*
G75*
G02*
X58020000Y-70505000I0J-200000D01*
G01*
X58020000Y-71605000D01*
G75*
G02*
X57820000Y-71805000I-200000J0D01*
G01*
X56720000Y-71805000D01*
G75*
G02*
X56520000Y-71605000I0J200000D01*
G01*
G37*
G36*
G01*
X53720000Y-71605000D02*
X53720000Y-70505000D01*
G75*
G02*
X53920000Y-70305000I200000J0D01*
G01*
X55020000Y-70305000D01*
G75*
G02*
X55220000Y-70505000I0J-200000D01*
G01*
X55220000Y-71605000D01*
G75*
G02*
X55020000Y-71805000I-200000J0D01*
G01*
X53920000Y-71805000D01*
G75*
G02*
X53720000Y-71605000I0J200000D01*
G01*
G37*
%TD*%
D13*
%TO.C,C9*%
X118920000Y-28255000D03*
X118920000Y-43255000D03*
%TD*%
%TO.C,C2*%
G36*
G01*
X54580000Y-62380000D02*
X54580000Y-61230000D01*
G75*
G02*
X54930000Y-60880000I350000J0D01*
G01*
X55630000Y-60880000D01*
G75*
G02*
X55980000Y-61230000I0J-350000D01*
G01*
X55980000Y-62380000D01*
G75*
G02*
X55630000Y-62730000I-350000J0D01*
G01*
X54930000Y-62730000D01*
G75*
G02*
X54580000Y-62380000I0J350000D01*
G01*
G37*
G36*
G01*
X52680000Y-62380000D02*
X52680000Y-61230000D01*
G75*
G02*
X53030000Y-60880000I350000J0D01*
G01*
X53730000Y-60880000D01*
G75*
G02*
X54080000Y-61230000I0J-350000D01*
G01*
X54080000Y-62380000D01*
G75*
G02*
X53730000Y-62730000I-350000J0D01*
G01*
X53030000Y-62730000D01*
G75*
G02*
X52680000Y-62380000I0J350000D01*
G01*
G37*
%TD*%
D14*
%TO.C,R13*%
X104630000Y-41985000D03*
G36*
G01*
X105630000Y-48265000D02*
X103630000Y-48265000D01*
G75*
G02*
X103430000Y-48065000I0J200000D01*
G01*
X103430000Y-46065000D01*
G75*
G02*
X103630000Y-45865000I200000J0D01*
G01*
X105630000Y-45865000D01*
G75*
G02*
X105830000Y-46065000I0J-200000D01*
G01*
X105830000Y-48065000D01*
G75*
G02*
X105630000Y-48265000I-200000J0D01*
G01*
G37*
%TD*%
%TO.C,R12*%
G36*
G01*
X54550000Y-59337441D02*
X54550000Y-58232559D01*
G75*
G02*
X54897559Y-57885000I347559J0D01*
G01*
X55627441Y-57885000D01*
G75*
G02*
X55975000Y-58232559I0J-347559D01*
G01*
X55975000Y-59337441D01*
G75*
G02*
X55627441Y-59685000I-347559J0D01*
G01*
X54897559Y-59685000D01*
G75*
G02*
X54550000Y-59337441I0J347559D01*
G01*
G37*
G36*
G01*
X52725000Y-59337441D02*
X52725000Y-58232559D01*
G75*
G02*
X53072559Y-57885000I347559J0D01*
G01*
X53802441Y-57885000D01*
G75*
G02*
X54150000Y-58232559I0J-347559D01*
G01*
X54150000Y-59337441D01*
G75*
G02*
X53802441Y-59685000I-347559J0D01*
G01*
X53072559Y-59685000D01*
G75*
G02*
X52725000Y-59337441I0J347559D01*
G01*
G37*
%TD*%
D15*
%TO.C,TP13*%
X53510000Y-54295000D03*
%TD*%
D16*
%TO.C,HS2*%
X99920000Y-57215000D03*
X99920000Y-31815000D03*
%TD*%
D17*
%TO.C,H4*%
X22500000Y-22470000D03*
%TD*%
%TO.C,H3*%
X137500000Y-22470000D03*
%TD*%
%TO.C,H2*%
X22500000Y-157470000D03*
%TD*%
%TO.C,D10*%
G36*
G01*
X65840000Y-119745000D02*
X64740000Y-119745000D01*
G75*
G02*
X64540000Y-119545000I0J200000D01*
G01*
X64540000Y-118445000D01*
G75*
G02*
X64740000Y-118245000I200000J0D01*
G01*
X65840000Y-118245000D01*
G75*
G02*
X66040000Y-118445000I0J-200000D01*
G01*
X66040000Y-119545000D01*
G75*
G02*
X65840000Y-119745000I-200000J0D01*
G01*
G37*
G36*
G01*
X65840000Y-122545000D02*
X64740000Y-122545000D01*
G75*
G02*
X64540000Y-122345000I0J200000D01*
G01*
X64540000Y-121245000D01*
G75*
G02*
X64740000Y-121045000I200000J0D01*
G01*
X65840000Y-121045000D01*
G75*
G02*
X66040000Y-121245000I0J-200000D01*
G01*
X66040000Y-122345000D01*
G75*
G02*
X65840000Y-122545000I-200000J0D01*
G01*
G37*
%TD*%
D18*
%TO.C,SW1*%
X35825000Y-101805000D03*
X31325000Y-101805000D03*
X35825000Y-95305000D03*
X31325000Y-95305000D03*
%TD*%
%TO.C,U5*%
G36*
G01*
X74495000Y-138310000D02*
X74495000Y-137610000D01*
G75*
G02*
X74695000Y-137410000I200000J0D01*
G01*
X75095000Y-137410000D01*
G75*
G02*
X75295000Y-137610000I0J-200000D01*
G01*
X75295000Y-138310000D01*
G75*
G02*
X75095000Y-138510000I-200000J0D01*
G01*
X74695000Y-138510000D01*
G75*
G02*
X74495000Y-138310000I0J200000D01*
G01*
G37*
G36*
G01*
X73845000Y-138310000D02*
X73845000Y-137610000D01*
G75*
G02*
X74045000Y-137410000I200000J0D01*
G01*
X74445000Y-137410000D01*
G75*
G02*
X74645000Y-137610000I0J-200000D01*
G01*
X74645000Y-138310000D01*
G75*
G02*
X74445000Y-138510000I-200000J0D01*
G01*
X74045000Y-138510000D01*
G75*
G02*
X73845000Y-138310000I0J200000D01*
G01*
G37*
G36*
G01*
X75145000Y-138310000D02*
X75145000Y-137610000D01*
G75*
G02*
X75345000Y-137410000I200000J0D01*
G01*
X75745000Y-137410000D01*
G75*
G02*
X75945000Y-137610000I0J-200000D01*
G01*
X75945000Y-138310000D01*
G75*
G02*
X75745000Y-138510000I-200000J0D01*
G01*
X75345000Y-138510000D01*
G75*
G02*
X75145000Y-138310000I0J200000D01*
G01*
G37*
G36*
G01*
X75145000Y-136410000D02*
X75145000Y-135710000D01*
G75*
G02*
X75345000Y-135510000I200000J0D01*
G01*
X75745000Y-135510000D01*
G75*
G02*
X75945000Y-135710000I0J-200000D01*
G01*
X75945000Y-136410000D01*
G75*
G02*
X75745000Y-136610000I-200000J0D01*
G01*
X75345000Y-136610000D01*
G75*
G02*
X75145000Y-136410000I0J200000D01*
G01*
G37*
G36*
G01*
X74495000Y-136410000D02*
X74495000Y-135710000D01*
G75*
G02*
X74695000Y-135510000I200000J0D01*
G01*
X75095000Y-135510000D01*
G75*
G02*
X75295000Y-135710000I0J-200000D01*
G01*
X75295000Y-136410000D01*
G75*
G02*
X75095000Y-136610000I-200000J0D01*
G01*
X74695000Y-136610000D01*
G75*
G02*
X74495000Y-136410000I0J200000D01*
G01*
G37*
G36*
G01*
X73845000Y-136410000D02*
X73845000Y-135710000D01*
G75*
G02*
X74045000Y-135510000I200000J0D01*
G01*
X74445000Y-135510000D01*
G75*
G02*
X74645000Y-135710000I0J-200000D01*
G01*
X74645000Y-136410000D01*
G75*
G02*
X74445000Y-136610000I-200000J0D01*
G01*
X74045000Y-136610000D01*
G75*
G02*
X73845000Y-136410000I0J200000D01*
G01*
G37*
%TD*%
%TO.C,U4*%
G36*
G01*
X112270000Y-138315000D02*
X112270000Y-137615000D01*
G75*
G02*
X112470000Y-137415000I200000J0D01*
G01*
X112870000Y-137415000D01*
G75*
G02*
X113070000Y-137615000I0J-200000D01*
G01*
X113070000Y-138315000D01*
G75*
G02*
X112870000Y-138515000I-200000J0D01*
G01*
X112470000Y-138515000D01*
G75*
G02*
X112270000Y-138315000I0J200000D01*
G01*
G37*
G36*
G01*
X111620000Y-138315000D02*
X111620000Y-137615000D01*
G75*
G02*
X111820000Y-137415000I200000J0D01*
G01*
X112220000Y-137415000D01*
G75*
G02*
X112420000Y-137615000I0J-200000D01*
G01*
X112420000Y-138315000D01*
G75*
G02*
X112220000Y-138515000I-200000J0D01*
G01*
X111820000Y-138515000D01*
G75*
G02*
X111620000Y-138315000I0J200000D01*
G01*
G37*
G36*
G01*
X112920000Y-138315000D02*
X112920000Y-137615000D01*
G75*
G02*
X113120000Y-137415000I200000J0D01*
G01*
X113520000Y-137415000D01*
G75*
G02*
X113720000Y-137615000I0J-200000D01*
G01*
X113720000Y-138315000D01*
G75*
G02*
X113520000Y-138515000I-200000J0D01*
G01*
X113120000Y-138515000D01*
G75*
G02*
X112920000Y-138315000I0J200000D01*
G01*
G37*
G36*
G01*
X112920000Y-136415000D02*
X112920000Y-135715000D01*
G75*
G02*
X113120000Y-135515000I200000J0D01*
G01*
X113520000Y-135515000D01*
G75*
G02*
X113720000Y-135715000I0J-200000D01*
G01*
X113720000Y-136415000D01*
G75*
G02*
X113520000Y-136615000I-200000J0D01*
G01*
X113120000Y-136615000D01*
G75*
G02*
X112920000Y-136415000I0J200000D01*
G01*
G37*
G36*
G01*
X112270000Y-136415000D02*
X112270000Y-135715000D01*
G75*
G02*
X112470000Y-135515000I200000J0D01*
G01*
X112870000Y-135515000D01*
G75*
G02*
X113070000Y-135715000I0J-200000D01*
G01*
X113070000Y-136415000D01*
G75*
G02*
X112870000Y-136615000I-200000J0D01*
G01*
X112470000Y-136615000D01*
G75*
G02*
X112270000Y-136415000I0J200000D01*
G01*
G37*
G36*
G01*
X111620000Y-136415000D02*
X111620000Y-135715000D01*
G75*
G02*
X111820000Y-135515000I200000J0D01*
G01*
X112220000Y-135515000D01*
G75*
G02*
X112420000Y-135715000I0J-200000D01*
G01*
X112420000Y-136415000D01*
G75*
G02*
X112220000Y-136615000I-200000J0D01*
G01*
X111820000Y-136615000D01*
G75*
G02*
X111620000Y-136415000I0J200000D01*
G01*
G37*
%TD*%
D19*
%TO.C,U3*%
X55035000Y-135420000D03*
X52495000Y-135420000D03*
X49955000Y-135420000D03*
X47415000Y-135420000D03*
X42335000Y-135420000D03*
X39795000Y-135420000D03*
G36*
G01*
X36301000Y-136174000D02*
X36301000Y-134666000D01*
G75*
G02*
X36501000Y-134466000I200000J0D01*
G01*
X38009000Y-134466000D01*
G75*
G02*
X38209000Y-134666000I0J-200000D01*
G01*
X38209000Y-136174000D01*
G75*
G02*
X38009000Y-136374000I-200000J0D01*
G01*
X36501000Y-136374000D01*
G75*
G02*
X36301000Y-136174000I0J200000D01*
G01*
G37*
%TD*%
D15*
%TO.C,TP28*%
X39625000Y-44015000D03*
%TD*%
%TO.C,TP27*%
X39675000Y-49190000D03*
%TD*%
%TO.C,TP26*%
X39590000Y-69490000D03*
%TD*%
%TO.C,TP25*%
X39725000Y-54265000D03*
%TD*%
%TO.C,TP24*%
X39725000Y-59340000D03*
%TD*%
%TO.C,TP23*%
X39650000Y-64390000D03*
%TD*%
%TO.C,TP22*%
X33000000Y-75465000D03*
%TD*%
%TO.C,TP21*%
X39550000Y-74515000D03*
%TD*%
%TO.C,TP19*%
X71840000Y-111005000D03*
%TD*%
%TO.C,TP18*%
X67040000Y-125515000D03*
%TD*%
%TO.C,TP17*%
X67060000Y-106605000D03*
%TD*%
%TO.C,TP16*%
X97050000Y-154055000D03*
%TD*%
%TO.C,TP15*%
X127280000Y-28965000D03*
%TD*%
%TO.C,TP14*%
X127240000Y-35575000D03*
%TD*%
%TO.C,TP12*%
X134525000Y-151955000D03*
%TD*%
%TO.C,TP11*%
X93300000Y-136105000D03*
%TD*%
%TO.C,TP10*%
X127270000Y-42185000D03*
%TD*%
%TO.C,TP9*%
X130775000Y-136180000D03*
%TD*%
%TO.C,TP8*%
X55445000Y-149760000D03*
%TD*%
%TO.C,TP7*%
X46975000Y-145070000D03*
%TD*%
%TO.C,TP6*%
X48675000Y-156850000D03*
%TD*%
%TO.C,TP5*%
X55445000Y-156910000D03*
%TD*%
%TO.C,TP4*%
X62060000Y-70255000D03*
%TD*%
%TO.C,TP3*%
X62140000Y-75295000D03*
%TD*%
%TO.C,TP2*%
X49590000Y-72785000D03*
%TD*%
%TO.C,TP1*%
X63685000Y-90840000D03*
%TD*%
%TO.C,R26*%
G36*
G01*
X28347559Y-57765000D02*
X29452441Y-57765000D01*
G75*
G02*
X29800000Y-58112559I0J-347559D01*
G01*
X29800000Y-58842441D01*
G75*
G02*
X29452441Y-59190000I-347559J0D01*
G01*
X28347559Y-59190000D01*
G75*
G02*
X28000000Y-58842441I0J347559D01*
G01*
X28000000Y-58112559D01*
G75*
G02*
X28347559Y-57765000I347559J0D01*
G01*
G37*
G36*
G01*
X28347559Y-55940000D02*
X29452441Y-55940000D01*
G75*
G02*
X29800000Y-56287559I0J-347559D01*
G01*
X29800000Y-57017441D01*
G75*
G02*
X29452441Y-57365000I-347559J0D01*
G01*
X28347559Y-57365000D01*
G75*
G02*
X28000000Y-57017441I0J347559D01*
G01*
X28000000Y-56287559D01*
G75*
G02*
X28347559Y-55940000I347559J0D01*
G01*
G37*
%TD*%
%TO.C,R25*%
G36*
G01*
X31342559Y-57772500D02*
X32447441Y-57772500D01*
G75*
G02*
X32795000Y-58120059I0J-347559D01*
G01*
X32795000Y-58849941D01*
G75*
G02*
X32447441Y-59197500I-347559J0D01*
G01*
X31342559Y-59197500D01*
G75*
G02*
X30995000Y-58849941I0J347559D01*
G01*
X30995000Y-58120059D01*
G75*
G02*
X31342559Y-57772500I347559J0D01*
G01*
G37*
G36*
G01*
X31342559Y-55947500D02*
X32447441Y-55947500D01*
G75*
G02*
X32795000Y-56295059I0J-347559D01*
G01*
X32795000Y-57024941D01*
G75*
G02*
X32447441Y-57372500I-347559J0D01*
G01*
X31342559Y-57372500D01*
G75*
G02*
X30995000Y-57024941I0J347559D01*
G01*
X30995000Y-56295059D01*
G75*
G02*
X31342559Y-55947500I347559J0D01*
G01*
G37*
%TD*%
%TO.C,R24*%
G36*
G01*
X34120000Y-61107559D02*
X34120000Y-62212441D01*
G75*
G02*
X33772441Y-62560000I-347559J0D01*
G01*
X33042559Y-62560000D01*
G75*
G02*
X32695000Y-62212441I0J347559D01*
G01*
X32695000Y-61107559D01*
G75*
G02*
X33042559Y-60760000I347559J0D01*
G01*
X33772441Y-60760000D01*
G75*
G02*
X34120000Y-61107559I0J-347559D01*
G01*
G37*
G36*
G01*
X32295000Y-61107559D02*
X32295000Y-62212441D01*
G75*
G02*
X31947441Y-62560000I-347559J0D01*
G01*
X31217559Y-62560000D01*
G75*
G02*
X30870000Y-62212441I0J347559D01*
G01*
X30870000Y-61107559D01*
G75*
G02*
X31217559Y-60760000I347559J0D01*
G01*
X31947441Y-60760000D01*
G75*
G02*
X32295000Y-61107559I0J-347559D01*
G01*
G37*
%TD*%
%TO.C,R22*%
G36*
G01*
X84525000Y-130302559D02*
X84525000Y-131407441D01*
G75*
G02*
X84177441Y-131755000I-347559J0D01*
G01*
X83447559Y-131755000D01*
G75*
G02*
X83100000Y-131407441I0J347559D01*
G01*
X83100000Y-130302559D01*
G75*
G02*
X83447559Y-129955000I347559J0D01*
G01*
X84177441Y-129955000D01*
G75*
G02*
X84525000Y-130302559I0J-347559D01*
G01*
G37*
G36*
G01*
X86350000Y-130302559D02*
X86350000Y-131407441D01*
G75*
G02*
X86002441Y-131755000I-347559J0D01*
G01*
X85272559Y-131755000D01*
G75*
G02*
X84925000Y-131407441I0J347559D01*
G01*
X84925000Y-130302559D01*
G75*
G02*
X85272559Y-129955000I347559J0D01*
G01*
X86002441Y-129955000D01*
G75*
G02*
X86350000Y-130302559I0J-347559D01*
G01*
G37*
%TD*%
%TO.C,R21*%
G36*
G01*
X89012500Y-130352559D02*
X89012500Y-131457441D01*
G75*
G02*
X88664941Y-131805000I-347559J0D01*
G01*
X87935059Y-131805000D01*
G75*
G02*
X87587500Y-131457441I0J347559D01*
G01*
X87587500Y-130352559D01*
G75*
G02*
X87935059Y-130005000I347559J0D01*
G01*
X88664941Y-130005000D01*
G75*
G02*
X89012500Y-130352559I0J-347559D01*
G01*
G37*
G36*
G01*
X90837500Y-130352559D02*
X90837500Y-131457441D01*
G75*
G02*
X90489941Y-131805000I-347559J0D01*
G01*
X89760059Y-131805000D01*
G75*
G02*
X89412500Y-131457441I0J347559D01*
G01*
X89412500Y-130352559D01*
G75*
G02*
X89760059Y-130005000I347559J0D01*
G01*
X90489941Y-130005000D01*
G75*
G02*
X90837500Y-130352559I0J-347559D01*
G01*
G37*
%TD*%
%TO.C,R19*%
G36*
G01*
X120447500Y-130242559D02*
X120447500Y-131347441D01*
G75*
G02*
X120099941Y-131695000I-347559J0D01*
G01*
X119370059Y-131695000D01*
G75*
G02*
X119022500Y-131347441I0J347559D01*
G01*
X119022500Y-130242559D01*
G75*
G02*
X119370059Y-129895000I347559J0D01*
G01*
X120099941Y-129895000D01*
G75*
G02*
X120447500Y-130242559I0J-347559D01*
G01*
G37*
G36*
G01*
X122272500Y-130242559D02*
X122272500Y-131347441D01*
G75*
G02*
X121924941Y-131695000I-347559J0D01*
G01*
X121195059Y-131695000D01*
G75*
G02*
X120847500Y-131347441I0J347559D01*
G01*
X120847500Y-130242559D01*
G75*
G02*
X121195059Y-129895000I347559J0D01*
G01*
X121924941Y-129895000D01*
G75*
G02*
X122272500Y-130242559I0J-347559D01*
G01*
G37*
%TD*%
%TO.C,R18*%
G36*
G01*
X122012441Y-134275000D02*
X120907559Y-134275000D01*
G75*
G02*
X120560000Y-133927441I0J347559D01*
G01*
X120560000Y-133197559D01*
G75*
G02*
X120907559Y-132850000I347559J0D01*
G01*
X122012441Y-132850000D01*
G75*
G02*
X122360000Y-133197559I0J-347559D01*
G01*
X122360000Y-133927441D01*
G75*
G02*
X122012441Y-134275000I-347559J0D01*
G01*
G37*
G36*
G01*
X122012441Y-136100000D02*
X120907559Y-136100000D01*
G75*
G02*
X120560000Y-135752441I0J347559D01*
G01*
X120560000Y-135022559D01*
G75*
G02*
X120907559Y-134675000I347559J0D01*
G01*
X122012441Y-134675000D01*
G75*
G02*
X122360000Y-135022559I0J-347559D01*
G01*
X122360000Y-135752441D01*
G75*
G02*
X122012441Y-136100000I-347559J0D01*
G01*
G37*
%TD*%
%TO.C,R17*%
G36*
G01*
X72422441Y-124185000D02*
X71317559Y-124185000D01*
G75*
G02*
X70970000Y-123837441I0J347559D01*
G01*
X70970000Y-123107559D01*
G75*
G02*
X71317559Y-122760000I347559J0D01*
G01*
X72422441Y-122760000D01*
G75*
G02*
X72770000Y-123107559I0J-347559D01*
G01*
X72770000Y-123837441D01*
G75*
G02*
X72422441Y-124185000I-347559J0D01*
G01*
G37*
G36*
G01*
X72422441Y-126010000D02*
X71317559Y-126010000D01*
G75*
G02*
X70970000Y-125662441I0J347559D01*
G01*
X70970000Y-124932559D01*
G75*
G02*
X71317559Y-124585000I347559J0D01*
G01*
X72422441Y-124585000D01*
G75*
G02*
X72770000Y-124932559I0J-347559D01*
G01*
X72770000Y-125662441D01*
G75*
G02*
X72422441Y-126010000I-347559J0D01*
G01*
G37*
%TD*%
%TO.C,R16*%
G36*
G01*
X80091113Y-135520000D02*
X77718887Y-135520000D01*
G75*
G02*
X77380000Y-135181113I0J338887D01*
G01*
X77380000Y-134333887D01*
G75*
G02*
X77718887Y-133995000I338887J0D01*
G01*
X80091113Y-133995000D01*
G75*
G02*
X80430000Y-134333887I0J-338887D01*
G01*
X80430000Y-135181113D01*
G75*
G02*
X80091113Y-135520000I-338887J0D01*
G01*
G37*
G36*
G01*
X80091113Y-138445000D02*
X77718887Y-138445000D01*
G75*
G02*
X77380000Y-138106113I0J338887D01*
G01*
X77380000Y-137258887D01*
G75*
G02*
X77718887Y-136920000I338887J0D01*
G01*
X80091113Y-136920000D01*
G75*
G02*
X80430000Y-137258887I0J-338887D01*
G01*
X80430000Y-138106113D01*
G75*
G02*
X80091113Y-138445000I-338887J0D01*
G01*
G37*
%TD*%
%TO.C,R15*%
G36*
G01*
X72502441Y-105205000D02*
X71397559Y-105205000D01*
G75*
G02*
X71050000Y-104857441I0J347559D01*
G01*
X71050000Y-104127559D01*
G75*
G02*
X71397559Y-103780000I347559J0D01*
G01*
X72502441Y-103780000D01*
G75*
G02*
X72850000Y-104127559I0J-347559D01*
G01*
X72850000Y-104857441D01*
G75*
G02*
X72502441Y-105205000I-347559J0D01*
G01*
G37*
G36*
G01*
X72502441Y-107030000D02*
X71397559Y-107030000D01*
G75*
G02*
X71050000Y-106682441I0J347559D01*
G01*
X71050000Y-105952559D01*
G75*
G02*
X71397559Y-105605000I347559J0D01*
G01*
X72502441Y-105605000D01*
G75*
G02*
X72850000Y-105952559I0J-347559D01*
G01*
X72850000Y-106682441D01*
G75*
G02*
X72502441Y-107030000I-347559J0D01*
G01*
G37*
%TD*%
%TO.C,R14*%
G36*
G01*
X115173887Y-136845000D02*
X117546113Y-136845000D01*
G75*
G02*
X117885000Y-137183887I0J-338887D01*
G01*
X117885000Y-138031113D01*
G75*
G02*
X117546113Y-138370000I-338887J0D01*
G01*
X115173887Y-138370000D01*
G75*
G02*
X114835000Y-138031113I0J338887D01*
G01*
X114835000Y-137183887D01*
G75*
G02*
X115173887Y-136845000I338887J0D01*
G01*
G37*
G36*
G01*
X115173887Y-133920000D02*
X117546113Y-133920000D01*
G75*
G02*
X117885000Y-134258887I0J-338887D01*
G01*
X117885000Y-135106113D01*
G75*
G02*
X117546113Y-135445000I-338887J0D01*
G01*
X115173887Y-135445000D01*
G75*
G02*
X114835000Y-135106113I0J338887D01*
G01*
X114835000Y-134258887D01*
G75*
G02*
X115173887Y-133920000I338887J0D01*
G01*
G37*
%TD*%
%TO.C,L4*%
G36*
G01*
X29705000Y-61098750D02*
X29705000Y-62061250D01*
G75*
G02*
X29386250Y-62380000I-318750J0D01*
G01*
X28748750Y-62380000D01*
G75*
G02*
X28430000Y-62061250I0J318750D01*
G01*
X28430000Y-61098750D01*
G75*
G02*
X28748750Y-60780000I318750J0D01*
G01*
X29386250Y-60780000D01*
G75*
G02*
X29705000Y-61098750I0J-318750D01*
G01*
G37*
G36*
G01*
X27580000Y-61098750D02*
X27580000Y-62061250D01*
G75*
G02*
X27261250Y-62380000I-318750J0D01*
G01*
X26623750Y-62380000D01*
G75*
G02*
X26305000Y-62061250I0J318750D01*
G01*
X26305000Y-61098750D01*
G75*
G02*
X26623750Y-60780000I318750J0D01*
G01*
X27261250Y-60780000D01*
G75*
G02*
X27580000Y-61098750I0J-318750D01*
G01*
G37*
%TD*%
%TO.C,L3*%
G36*
G01*
X25115000Y-64088750D02*
X25115000Y-65051250D01*
G75*
G02*
X24796250Y-65370000I-318750J0D01*
G01*
X24158750Y-65370000D01*
G75*
G02*
X23840000Y-65051250I0J318750D01*
G01*
X23840000Y-64088750D01*
G75*
G02*
X24158750Y-63770000I318750J0D01*
G01*
X24796250Y-63770000D01*
G75*
G02*
X25115000Y-64088750I0J-318750D01*
G01*
G37*
G36*
G01*
X22990000Y-64088750D02*
X22990000Y-65051250D01*
G75*
G02*
X22671250Y-65370000I-318750J0D01*
G01*
X22033750Y-65370000D01*
G75*
G02*
X21715000Y-65051250I0J318750D01*
G01*
X21715000Y-64088750D01*
G75*
G02*
X22033750Y-63770000I318750J0D01*
G01*
X22671250Y-63770000D01*
G75*
G02*
X22990000Y-64088750I0J-318750D01*
G01*
G37*
%TD*%
D20*
%TO.C,JP1*%
X22410000Y-57490000D03*
G36*
G01*
X24100000Y-56440000D02*
X25800000Y-56440000D01*
G75*
G02*
X26000000Y-56640000I0J-200000D01*
G01*
X26000000Y-58340000D01*
G75*
G02*
X25800000Y-58540000I-200000J0D01*
G01*
X24100000Y-58540000D01*
G75*
G02*
X23900000Y-58340000I0J200000D01*
G01*
X23900000Y-56640000D01*
G75*
G02*
X24100000Y-56440000I200000J0D01*
G01*
G37*
%TD*%
D21*
%TO.C,J1*%
X44795000Y-158000000D03*
X35795000Y-158000000D03*
G36*
G01*
X42745000Y-155146666D02*
X42745000Y-156933334D01*
G75*
G02*
X42428334Y-157250000I-316666J0D01*
G01*
X41161666Y-157250000D01*
G75*
G02*
X40845000Y-156933334I0J316666D01*
G01*
X40845000Y-155146666D01*
G75*
G02*
X41161666Y-154830000I316666J0D01*
G01*
X42428334Y-154830000D01*
G75*
G02*
X42745000Y-155146666I0J-316666D01*
G01*
G37*
D22*
X38795000Y-156040000D03*
%TD*%
%TO.C,D9*%
G36*
G01*
X69210000Y-119735000D02*
X68110000Y-119735000D01*
G75*
G02*
X67910000Y-119535000I0J200000D01*
G01*
X67910000Y-118435000D01*
G75*
G02*
X68110000Y-118235000I200000J0D01*
G01*
X69210000Y-118235000D01*
G75*
G02*
X69410000Y-118435000I0J-200000D01*
G01*
X69410000Y-119535000D01*
G75*
G02*
X69210000Y-119735000I-200000J0D01*
G01*
G37*
G36*
G01*
X69210000Y-122535000D02*
X68110000Y-122535000D01*
G75*
G02*
X67910000Y-122335000I0J200000D01*
G01*
X67910000Y-121235000D01*
G75*
G02*
X68110000Y-121035000I200000J0D01*
G01*
X69210000Y-121035000D01*
G75*
G02*
X69410000Y-121235000I0J-200000D01*
G01*
X69410000Y-122335000D01*
G75*
G02*
X69210000Y-122535000I-200000J0D01*
G01*
G37*
%TD*%
%TO.C,D8*%
G36*
G01*
X65790000Y-100795000D02*
X64690000Y-100795000D01*
G75*
G02*
X64490000Y-100595000I0J200000D01*
G01*
X64490000Y-99495000D01*
G75*
G02*
X64690000Y-99295000I200000J0D01*
G01*
X65790000Y-99295000D01*
G75*
G02*
X65990000Y-99495000I0J-200000D01*
G01*
X65990000Y-100595000D01*
G75*
G02*
X65790000Y-100795000I-200000J0D01*
G01*
G37*
G36*
G01*
X65790000Y-103595000D02*
X64690000Y-103595000D01*
G75*
G02*
X64490000Y-103395000I0J200000D01*
G01*
X64490000Y-102295000D01*
G75*
G02*
X64690000Y-102095000I200000J0D01*
G01*
X65790000Y-102095000D01*
G75*
G02*
X65990000Y-102295000I0J-200000D01*
G01*
X65990000Y-103395000D01*
G75*
G02*
X65790000Y-103595000I-200000J0D01*
G01*
G37*
%TD*%
%TO.C,D7*%
G36*
G01*
X69230000Y-100785000D02*
X68130000Y-100785000D01*
G75*
G02*
X67930000Y-100585000I0J200000D01*
G01*
X67930000Y-99485000D01*
G75*
G02*
X68130000Y-99285000I200000J0D01*
G01*
X69230000Y-99285000D01*
G75*
G02*
X69430000Y-99485000I0J-200000D01*
G01*
X69430000Y-100585000D01*
G75*
G02*
X69230000Y-100785000I-200000J0D01*
G01*
G37*
G36*
G01*
X69230000Y-103585000D02*
X68130000Y-103585000D01*
G75*
G02*
X67930000Y-103385000I0J200000D01*
G01*
X67930000Y-102285000D01*
G75*
G02*
X68130000Y-102085000I200000J0D01*
G01*
X69230000Y-102085000D01*
G75*
G02*
X69430000Y-102285000I0J-200000D01*
G01*
X69430000Y-103385000D01*
G75*
G02*
X69230000Y-103585000I-200000J0D01*
G01*
G37*
%TD*%
%TO.C,D1*%
G36*
G01*
X53710000Y-76015000D02*
X53710000Y-74915000D01*
G75*
G02*
X53910000Y-74715000I200000J0D01*
G01*
X55010000Y-74715000D01*
G75*
G02*
X55210000Y-74915000I0J-200000D01*
G01*
X55210000Y-76015000D01*
G75*
G02*
X55010000Y-76215000I-200000J0D01*
G01*
X53910000Y-76215000D01*
G75*
G02*
X53710000Y-76015000I0J200000D01*
G01*
G37*
G36*
G01*
X56510000Y-76015000D02*
X56510000Y-74915000D01*
G75*
G02*
X56710000Y-74715000I200000J0D01*
G01*
X57810000Y-74715000D01*
G75*
G02*
X58010000Y-74915000I0J-200000D01*
G01*
X58010000Y-76015000D01*
G75*
G02*
X57810000Y-76215000I-200000J0D01*
G01*
X56710000Y-76215000D01*
G75*
G02*
X56510000Y-76015000I0J200000D01*
G01*
G37*
%TD*%
%TO.C,C24*%
G36*
G01*
X33780000Y-66890000D02*
X32630000Y-66890000D01*
G75*
G02*
X32280000Y-66540000I0J350000D01*
G01*
X32280000Y-65840000D01*
G75*
G02*
X32630000Y-65490000I350000J0D01*
G01*
X33780000Y-65490000D01*
G75*
G02*
X34130000Y-65840000I0J-350000D01*
G01*
X34130000Y-66540000D01*
G75*
G02*
X33780000Y-66890000I-350000J0D01*
G01*
G37*
G36*
G01*
X33780000Y-64990000D02*
X32630000Y-64990000D01*
G75*
G02*
X32280000Y-64640000I0J350000D01*
G01*
X32280000Y-63940000D01*
G75*
G02*
X32630000Y-63590000I350000J0D01*
G01*
X33780000Y-63590000D01*
G75*
G02*
X34130000Y-63940000I0J-350000D01*
G01*
X34130000Y-64640000D01*
G75*
G02*
X33780000Y-64990000I-350000J0D01*
G01*
G37*
%TD*%
%TO.C,C23*%
G36*
G01*
X30730000Y-66840000D02*
X29580000Y-66840000D01*
G75*
G02*
X29230000Y-66490000I0J350000D01*
G01*
X29230000Y-65790000D01*
G75*
G02*
X29580000Y-65440000I350000J0D01*
G01*
X30730000Y-65440000D01*
G75*
G02*
X31080000Y-65790000I0J-350000D01*
G01*
X31080000Y-66490000D01*
G75*
G02*
X30730000Y-66840000I-350000J0D01*
G01*
G37*
G36*
G01*
X30730000Y-64940000D02*
X29580000Y-64940000D01*
G75*
G02*
X29230000Y-64590000I0J350000D01*
G01*
X29230000Y-63890000D01*
G75*
G02*
X29580000Y-63540000I350000J0D01*
G01*
X30730000Y-63540000D01*
G75*
G02*
X31080000Y-63890000I0J-350000D01*
G01*
X31080000Y-64590000D01*
G75*
G02*
X30730000Y-64940000I-350000J0D01*
G01*
G37*
%TD*%
%TO.C,C22*%
G36*
G01*
X27700000Y-66830000D02*
X26550000Y-66830000D01*
G75*
G02*
X26200000Y-66480000I0J350000D01*
G01*
X26200000Y-65780000D01*
G75*
G02*
X26550000Y-65430000I350000J0D01*
G01*
X27700000Y-65430000D01*
G75*
G02*
X28050000Y-65780000I0J-350000D01*
G01*
X28050000Y-66480000D01*
G75*
G02*
X27700000Y-66830000I-350000J0D01*
G01*
G37*
G36*
G01*
X27700000Y-64930000D02*
X26550000Y-64930000D01*
G75*
G02*
X26200000Y-64580000I0J350000D01*
G01*
X26200000Y-63880000D01*
G75*
G02*
X26550000Y-63530000I350000J0D01*
G01*
X27700000Y-63530000D01*
G75*
G02*
X28050000Y-63880000I0J-350000D01*
G01*
X28050000Y-64580000D01*
G75*
G02*
X27700000Y-64930000I-350000J0D01*
G01*
G37*
%TD*%
%TO.C,C21*%
G36*
G01*
X21735000Y-62245000D02*
X21735000Y-61095000D01*
G75*
G02*
X22085000Y-60745000I350000J0D01*
G01*
X22785000Y-60745000D01*
G75*
G02*
X23135000Y-61095000I0J-350000D01*
G01*
X23135000Y-62245000D01*
G75*
G02*
X22785000Y-62595000I-350000J0D01*
G01*
X22085000Y-62595000D01*
G75*
G02*
X21735000Y-62245000I0J350000D01*
G01*
G37*
G36*
G01*
X23635000Y-62245000D02*
X23635000Y-61095000D01*
G75*
G02*
X23985000Y-60745000I350000J0D01*
G01*
X24685000Y-60745000D01*
G75*
G02*
X25035000Y-61095000I0J-350000D01*
G01*
X25035000Y-62245000D01*
G75*
G02*
X24685000Y-62595000I-350000J0D01*
G01*
X23985000Y-62595000D01*
G75*
G02*
X23635000Y-62245000I0J350000D01*
G01*
G37*
%TD*%
%TO.C,C20*%
G36*
G01*
X28005000Y-74865000D02*
X28005000Y-73715000D01*
G75*
G02*
X28355000Y-73365000I350000J0D01*
G01*
X29055000Y-73365000D01*
G75*
G02*
X29405000Y-73715000I0J-350000D01*
G01*
X29405000Y-74865000D01*
G75*
G02*
X29055000Y-75215000I-350000J0D01*
G01*
X28355000Y-75215000D01*
G75*
G02*
X28005000Y-74865000I0J350000D01*
G01*
G37*
G36*
G01*
X26105000Y-74865000D02*
X26105000Y-73715000D01*
G75*
G02*
X26455000Y-73365000I350000J0D01*
G01*
X27155000Y-73365000D01*
G75*
G02*
X27505000Y-73715000I0J-350000D01*
G01*
X27505000Y-74865000D01*
G75*
G02*
X27155000Y-75215000I-350000J0D01*
G01*
X26455000Y-75215000D01*
G75*
G02*
X26105000Y-74865000I0J350000D01*
G01*
G37*
%TD*%
%TO.C,C19*%
G36*
G01*
X28025000Y-71845000D02*
X28025000Y-70695000D01*
G75*
G02*
X28375000Y-70345000I350000J0D01*
G01*
X29075000Y-70345000D01*
G75*
G02*
X29425000Y-70695000I0J-350000D01*
G01*
X29425000Y-71845000D01*
G75*
G02*
X29075000Y-72195000I-350000J0D01*
G01*
X28375000Y-72195000D01*
G75*
G02*
X28025000Y-71845000I0J350000D01*
G01*
G37*
G36*
G01*
X26125000Y-71845000D02*
X26125000Y-70695000D01*
G75*
G02*
X26475000Y-70345000I350000J0D01*
G01*
X27175000Y-70345000D01*
G75*
G02*
X27525000Y-70695000I0J-350000D01*
G01*
X27525000Y-71845000D01*
G75*
G02*
X27175000Y-72195000I-350000J0D01*
G01*
X26475000Y-72195000D01*
G75*
G02*
X26125000Y-71845000I0J350000D01*
G01*
G37*
%TD*%
%TO.C,C18*%
G36*
G01*
X23095000Y-73705000D02*
X23095000Y-74855000D01*
G75*
G02*
X22745000Y-75205000I-350000J0D01*
G01*
X22045000Y-75205000D01*
G75*
G02*
X21695000Y-74855000I0J350000D01*
G01*
X21695000Y-73705000D01*
G75*
G02*
X22045000Y-73355000I350000J0D01*
G01*
X22745000Y-73355000D01*
G75*
G02*
X23095000Y-73705000I0J-350000D01*
G01*
G37*
G36*
G01*
X24995000Y-73705000D02*
X24995000Y-74855000D01*
G75*
G02*
X24645000Y-75205000I-350000J0D01*
G01*
X23945000Y-75205000D01*
G75*
G02*
X23595000Y-74855000I0J350000D01*
G01*
X23595000Y-73705000D01*
G75*
G02*
X23945000Y-73355000I350000J0D01*
G01*
X24645000Y-73355000D01*
G75*
G02*
X24995000Y-73705000I0J-350000D01*
G01*
G37*
%TD*%
%TO.C,C17*%
G36*
G01*
X23135000Y-70635000D02*
X23135000Y-71785000D01*
G75*
G02*
X22785000Y-72135000I-350000J0D01*
G01*
X22085000Y-72135000D01*
G75*
G02*
X21735000Y-71785000I0J350000D01*
G01*
X21735000Y-70635000D01*
G75*
G02*
X22085000Y-70285000I350000J0D01*
G01*
X22785000Y-70285000D01*
G75*
G02*
X23135000Y-70635000I0J-350000D01*
G01*
G37*
G36*
G01*
X25035000Y-70635000D02*
X25035000Y-71785000D01*
G75*
G02*
X24685000Y-72135000I-350000J0D01*
G01*
X23985000Y-72135000D01*
G75*
G02*
X23635000Y-71785000I0J350000D01*
G01*
X23635000Y-70635000D01*
G75*
G02*
X23985000Y-70285000I350000J0D01*
G01*
X24685000Y-70285000D01*
G75*
G02*
X25035000Y-70635000I0J-350000D01*
G01*
G37*
%TD*%
%TO.C,C14*%
G36*
G01*
X72415000Y-119575000D02*
X71265000Y-119575000D01*
G75*
G02*
X70915000Y-119225000I0J350000D01*
G01*
X70915000Y-118525000D01*
G75*
G02*
X71265000Y-118175000I350000J0D01*
G01*
X72415000Y-118175000D01*
G75*
G02*
X72765000Y-118525000I0J-350000D01*
G01*
X72765000Y-119225000D01*
G75*
G02*
X72415000Y-119575000I-350000J0D01*
G01*
G37*
G36*
G01*
X72415000Y-121475000D02*
X71265000Y-121475000D01*
G75*
G02*
X70915000Y-121125000I0J350000D01*
G01*
X70915000Y-120425000D01*
G75*
G02*
X71265000Y-120075000I350000J0D01*
G01*
X72415000Y-120075000D01*
G75*
G02*
X72765000Y-120425000I0J-350000D01*
G01*
X72765000Y-121125000D01*
G75*
G02*
X72415000Y-121475000I-350000J0D01*
G01*
G37*
%TD*%
%TO.C,C13*%
G36*
G01*
X72430000Y-136520000D02*
X71280000Y-136520000D01*
G75*
G02*
X70930000Y-136170000I0J350000D01*
G01*
X70930000Y-135470000D01*
G75*
G02*
X71280000Y-135120000I350000J0D01*
G01*
X72430000Y-135120000D01*
G75*
G02*
X72780000Y-135470000I0J-350000D01*
G01*
X72780000Y-136170000D01*
G75*
G02*
X72430000Y-136520000I-350000J0D01*
G01*
G37*
G36*
G01*
X72430000Y-138420000D02*
X71280000Y-138420000D01*
G75*
G02*
X70930000Y-138070000I0J350000D01*
G01*
X70930000Y-137370000D01*
G75*
G02*
X71280000Y-137020000I350000J0D01*
G01*
X72430000Y-137020000D01*
G75*
G02*
X72780000Y-137370000I0J-350000D01*
G01*
X72780000Y-138070000D01*
G75*
G02*
X72430000Y-138420000I-350000J0D01*
G01*
G37*
%TD*%
%TO.C,C12*%
G36*
G01*
X72535000Y-100675000D02*
X71385000Y-100675000D01*
G75*
G02*
X71035000Y-100325000I0J350000D01*
G01*
X71035000Y-99625000D01*
G75*
G02*
X71385000Y-99275000I350000J0D01*
G01*
X72535000Y-99275000D01*
G75*
G02*
X72885000Y-99625000I0J-350000D01*
G01*
X72885000Y-100325000D01*
G75*
G02*
X72535000Y-100675000I-350000J0D01*
G01*
G37*
G36*
G01*
X72535000Y-102575000D02*
X71385000Y-102575000D01*
G75*
G02*
X71035000Y-102225000I0J350000D01*
G01*
X71035000Y-101525000D01*
G75*
G02*
X71385000Y-101175000I350000J0D01*
G01*
X72535000Y-101175000D01*
G75*
G02*
X72885000Y-101525000I0J-350000D01*
G01*
X72885000Y-102225000D01*
G75*
G02*
X72535000Y-102575000I-350000J0D01*
G01*
G37*
%TD*%
%TO.C,C11*%
G36*
G01*
X110165000Y-136535000D02*
X109015000Y-136535000D01*
G75*
G02*
X108665000Y-136185000I0J350000D01*
G01*
X108665000Y-135485000D01*
G75*
G02*
X109015000Y-135135000I350000J0D01*
G01*
X110165000Y-135135000D01*
G75*
G02*
X110515000Y-135485000I0J-350000D01*
G01*
X110515000Y-136185000D01*
G75*
G02*
X110165000Y-136535000I-350000J0D01*
G01*
G37*
G36*
G01*
X110165000Y-138435000D02*
X109015000Y-138435000D01*
G75*
G02*
X108665000Y-138085000I0J350000D01*
G01*
X108665000Y-137385000D01*
G75*
G02*
X109015000Y-137035000I350000J0D01*
G01*
X110165000Y-137035000D01*
G75*
G02*
X110515000Y-137385000I0J-350000D01*
G01*
X110515000Y-138085000D01*
G75*
G02*
X110165000Y-138435000I-350000J0D01*
G01*
G37*
%TD*%
D23*
%TO.C,Q1*%
X75750000Y-38925000D03*
X75750000Y-44375000D03*
G36*
G01*
X78000000Y-51275000D02*
X73500000Y-51275000D01*
G75*
G02*
X73300000Y-51075000I0J200000D01*
G01*
X73300000Y-48575000D01*
G75*
G02*
X73500000Y-48375000I200000J0D01*
G01*
X78000000Y-48375000D01*
G75*
G02*
X78200000Y-48575000I0J-200000D01*
G01*
X78200000Y-51075000D01*
G75*
G02*
X78000000Y-51275000I-200000J0D01*
G01*
G37*
%TD*%
%TO.C,Q2*%
X67960000Y-49825000D03*
X67960000Y-44375000D03*
G36*
G01*
X65710000Y-37475000D02*
X70210000Y-37475000D01*
G75*
G02*
X70410000Y-37675000I0J-200000D01*
G01*
X70410000Y-40175000D01*
G75*
G02*
X70210000Y-40375000I-200000J0D01*
G01*
X65710000Y-40375000D01*
G75*
G02*
X65510000Y-40175000I0J200000D01*
G01*
X65510000Y-37675000D01*
G75*
G02*
X65710000Y-37475000I200000J0D01*
G01*
G37*
%TD*%
D14*
%TO.C,D5*%
X92444000Y-85568000D03*
G36*
G01*
X86164000Y-86568000D02*
X86164000Y-84568000D01*
G75*
G02*
X86364000Y-84368000I200000J0D01*
G01*
X88364000Y-84368000D01*
G75*
G02*
X88564000Y-84568000I0J-200000D01*
G01*
X88564000Y-86568000D01*
G75*
G02*
X88364000Y-86768000I-200000J0D01*
G01*
X86364000Y-86768000D01*
G75*
G02*
X86164000Y-86568000I0J200000D01*
G01*
G37*
%TD*%
D16*
%TO.C,HS1*%
X102604000Y-80996000D03*
X77204000Y-80996000D03*
%TD*%
D14*
%TO.C,D6*%
X87364000Y-76424000D03*
G36*
G01*
X93644000Y-75424000D02*
X93644000Y-77424000D01*
G75*
G02*
X93444000Y-77624000I-200000J0D01*
G01*
X91444000Y-77624000D01*
G75*
G02*
X91244000Y-77424000I0J200000D01*
G01*
X91244000Y-75424000D01*
G75*
G02*
X91444000Y-75224000I200000J0D01*
G01*
X93444000Y-75224000D01*
G75*
G02*
X93644000Y-75424000I0J-200000D01*
G01*
G37*
%TD*%
D21*
%TO.C,J4*%
X20825000Y-48920000D03*
X35825000Y-48920000D03*
G36*
G01*
X22875000Y-51773334D02*
X22875000Y-49986666D01*
G75*
G02*
X23191666Y-49670000I316666J0D01*
G01*
X24458334Y-49670000D01*
G75*
G02*
X24775000Y-49986666I0J-316666D01*
G01*
X24775000Y-51773334D01*
G75*
G02*
X24458334Y-52090000I-316666J0D01*
G01*
X23191666Y-52090000D01*
G75*
G02*
X22875000Y-51773334I0J316666D01*
G01*
G37*
D22*
X26825000Y-50880000D03*
X29825000Y-50880000D03*
X32825000Y-50880000D03*
%TD*%
D21*
%TO.C,J5*%
X20825000Y-41080000D03*
X35825000Y-41080000D03*
G36*
G01*
X22875000Y-43933334D02*
X22875000Y-42146666D01*
G75*
G02*
X23191666Y-41830000I316666J0D01*
G01*
X24458334Y-41830000D01*
G75*
G02*
X24775000Y-42146666I0J-316666D01*
G01*
X24775000Y-43933334D01*
G75*
G02*
X24458334Y-44250000I-316666J0D01*
G01*
X23191666Y-44250000D01*
G75*
G02*
X22875000Y-43933334I0J316666D01*
G01*
G37*
D22*
X26825000Y-43040000D03*
X29825000Y-43040000D03*
X32825000Y-43040000D03*
%TD*%
D15*
%TO.C,TP20*%
X75750000Y-124205000D03*
%TD*%
D24*
%TO.C,L2*%
X137760000Y-70255000D03*
X115960000Y-70255000D03*
%TD*%
D17*
%TO.C,H1*%
X137520000Y-157565000D03*
%TD*%
D25*
%TO.C,J3*%
X74535000Y-143660000D03*
X82155000Y-143660000D03*
X74535000Y-148740000D03*
X74535000Y-151280000D03*
X82155000Y-148740000D03*
X82155000Y-151280000D03*
D17*
X66475000Y-154080000D03*
X90215000Y-154080000D03*
%TD*%
D25*
%TO.C,J2*%
X111990000Y-143665000D03*
X119610000Y-143665000D03*
X111990000Y-148745000D03*
X111990000Y-151285000D03*
X119610000Y-148745000D03*
X119610000Y-151285000D03*
D17*
X103930000Y-154085000D03*
X127670000Y-154085000D03*
%TD*%
%TO.C,U1*%
G36*
G01*
X54545000Y-89135000D02*
X54545000Y-87605000D01*
G75*
G02*
X54745000Y-87405000I200000J0D01*
G01*
X56275000Y-87405000D01*
G75*
G02*
X56475000Y-87605000I0J-200000D01*
G01*
X56475000Y-89135000D01*
G75*
G02*
X56275000Y-89335000I-200000J0D01*
G01*
X54745000Y-89335000D01*
G75*
G02*
X54545000Y-89135000I0J200000D01*
G01*
G37*
D26*
X55510000Y-90910000D03*
X55510000Y-93450000D03*
X55510000Y-95990000D03*
X55510000Y-98530000D03*
X55510000Y-101070000D03*
X55510000Y-103610000D03*
X55510000Y-106150000D03*
X55510000Y-108690000D03*
X55510000Y-111230000D03*
X55510000Y-113770000D03*
X55510000Y-116310000D03*
X55510000Y-118850000D03*
X55510000Y-121390000D03*
X55510000Y-123930000D03*
G36*
G01*
X39305000Y-89135000D02*
X39305000Y-87605000D01*
G75*
G02*
X39505000Y-87405000I200000J0D01*
G01*
X41035000Y-87405000D01*
G75*
G02*
X41235000Y-87605000I0J-200000D01*
G01*
X41235000Y-89135000D01*
G75*
G02*
X41035000Y-89335000I-200000J0D01*
G01*
X39505000Y-89335000D01*
G75*
G02*
X39305000Y-89135000I0J200000D01*
G01*
G37*
X40270000Y-90910000D03*
X40270000Y-93450000D03*
X40270000Y-95990000D03*
X40270000Y-98530000D03*
X40270000Y-101070000D03*
X40270000Y-103610000D03*
X40270000Y-106150000D03*
X40270000Y-108690000D03*
X40270000Y-111230000D03*
X40270000Y-113770000D03*
X40270000Y-116310000D03*
X40270000Y-118850000D03*
X40270000Y-121390000D03*
X40270000Y-123930000D03*
%TD*%
D16*
%TO.C,HS3*%
X71899000Y-31719000D03*
X71899000Y-57119000D03*
%TD*%
D27*
%TO.C,F2*%
X87765000Y-134480000D03*
X63665000Y-134480000D03*
%TD*%
%TO.C,F1*%
X101140000Y-134445000D03*
X125240000Y-134445000D03*
%TD*%
D14*
%TO.C,D4*%
X95210000Y-47055000D03*
G36*
G01*
X94210000Y-40775000D02*
X96210000Y-40775000D01*
G75*
G02*
X96410000Y-40975000I0J-200000D01*
G01*
X96410000Y-42975000D01*
G75*
G02*
X96210000Y-43175000I-200000J0D01*
G01*
X94210000Y-43175000D01*
G75*
G02*
X94010000Y-42975000I0J200000D01*
G01*
X94010000Y-40975000D01*
G75*
G02*
X94210000Y-40775000I200000J0D01*
G01*
G37*
%TD*%
D16*
%TO.C,C10*%
X96770000Y-111655000D03*
G36*
G01*
X84570000Y-113655000D02*
X84570000Y-109655000D01*
G75*
G02*
X84770000Y-109455000I200000J0D01*
G01*
X88770000Y-109455000D01*
G75*
G02*
X88970000Y-109655000I0J-200000D01*
G01*
X88970000Y-113655000D01*
G75*
G02*
X88770000Y-113855000I-200000J0D01*
G01*
X84770000Y-113855000D01*
G75*
G02*
X84570000Y-113655000I0J200000D01*
G01*
G37*
%TD*%
%TO.C,C8*%
X119850000Y-111605000D03*
G36*
G01*
X132050000Y-109605000D02*
X132050000Y-113605000D01*
G75*
G02*
X131850000Y-113805000I-200000J0D01*
G01*
X127850000Y-113805000D01*
G75*
G02*
X127650000Y-113605000I0J200000D01*
G01*
X127650000Y-109605000D01*
G75*
G02*
X127850000Y-109405000I200000J0D01*
G01*
X131850000Y-109405000D01*
G75*
G02*
X132050000Y-109605000I0J-200000D01*
G01*
G37*
%TD*%
M02*
