%TF.GenerationSoftware,KiCad,Pcbnew,5.1.7-a382d34a8~88~ubuntu18.04.1*%
%TF.CreationDate,2020-12-13T04:00:48-06:00*%
%TF.ProjectId,MPPT,4d505054-2e6b-4696-9361-645f70636258,Rev1.3*%
%TF.SameCoordinates,Original*%
%TF.FileFunction,Soldermask,Top*%
%TF.FilePolarity,Negative*%
%FSLAX46Y46*%
G04 Gerber Fmt 4.6, Leading zero omitted, Abs format (unit mm)*
G04 Created by KiCad (PCBNEW 5.1.7-a382d34a8~88~ubuntu18.04.1) date 2020-12-13 04:00:48*
%MOMM*%
%LPD*%
G01*
G04 APERTURE LIST*
%ADD10C,2.600000*%
%ADD11O,2.400000X2.400000*%
%ADD12C,3.200000*%
%ADD13C,4.400000*%
%ADD14C,3.600000*%
%ADD15C,2.400000*%
%ADD16C,1.908000*%
%ADD17O,2.100000X2.100000*%
%ADD18C,1.670000*%
%ADD19O,1.900000X2.420000*%
%ADD20O,4.900000X2.900000*%
%ADD21C,4.200000*%
%ADD22C,2.686000*%
%ADD23C,1.930000*%
%ADD24C,2.900000*%
G04 APERTURE END LIST*
D10*
%TO.C,C9*%
X118920000Y-28255000D03*
X118920000Y-43255000D03*
%TD*%
D11*
%TO.C,R13*%
X104630000Y-41985000D03*
G36*
G01*
X105630000Y-48265000D02*
X103630000Y-48265000D01*
G75*
G02*
X103430000Y-48065000I0J200000D01*
G01*
X103430000Y-46065000D01*
G75*
G02*
X103630000Y-45865000I200000J0D01*
G01*
X105630000Y-45865000D01*
G75*
G02*
X105830000Y-46065000I0J-200000D01*
G01*
X105830000Y-48065000D01*
G75*
G02*
X105630000Y-48265000I-200000J0D01*
G01*
G37*
%TD*%
%TO.C,D3*%
G36*
G01*
X55520000Y-59125000D02*
X55520000Y-58025000D01*
G75*
G02*
X55720000Y-57825000I200000J0D01*
G01*
X56820000Y-57825000D01*
G75*
G02*
X57020000Y-58025000I0J-200000D01*
G01*
X57020000Y-59125000D01*
G75*
G02*
X56820000Y-59325000I-200000J0D01*
G01*
X55720000Y-59325000D01*
G75*
G02*
X55520000Y-59125000I0J200000D01*
G01*
G37*
G36*
G01*
X52720000Y-59125000D02*
X52720000Y-58025000D01*
G75*
G02*
X52920000Y-57825000I200000J0D01*
G01*
X54020000Y-57825000D01*
G75*
G02*
X54220000Y-58025000I0J-200000D01*
G01*
X54220000Y-59125000D01*
G75*
G02*
X54020000Y-59325000I-200000J0D01*
G01*
X52920000Y-59325000D01*
G75*
G02*
X52720000Y-59125000I0J200000D01*
G01*
G37*
%TD*%
D12*
%TO.C,TP13*%
X53510000Y-54295000D03*
%TD*%
D13*
%TO.C,HS2*%
X99920000Y-57215000D03*
X99920000Y-31815000D03*
%TD*%
%TO.C,R1*%
G36*
G01*
X50047559Y-65640000D02*
X51152441Y-65640000D01*
G75*
G02*
X51500000Y-65987559I0J-347559D01*
G01*
X51500000Y-66717441D01*
G75*
G02*
X51152441Y-67065000I-347559J0D01*
G01*
X50047559Y-67065000D01*
G75*
G02*
X49700000Y-66717441I0J347559D01*
G01*
X49700000Y-65987559D01*
G75*
G02*
X50047559Y-65640000I347559J0D01*
G01*
G37*
G36*
G01*
X50047559Y-63815000D02*
X51152441Y-63815000D01*
G75*
G02*
X51500000Y-64162559I0J-347559D01*
G01*
X51500000Y-64892441D01*
G75*
G02*
X51152441Y-65240000I-347559J0D01*
G01*
X50047559Y-65240000D01*
G75*
G02*
X49700000Y-64892441I0J347559D01*
G01*
X49700000Y-64162559D01*
G75*
G02*
X50047559Y-63815000I347559J0D01*
G01*
G37*
%TD*%
%TO.C,C1*%
G36*
G01*
X56110000Y-74720000D02*
X56110000Y-75870000D01*
G75*
G02*
X55760000Y-76220000I-350000J0D01*
G01*
X55060000Y-76220000D01*
G75*
G02*
X54710000Y-75870000I0J350000D01*
G01*
X54710000Y-74720000D01*
G75*
G02*
X55060000Y-74370000I350000J0D01*
G01*
X55760000Y-74370000D01*
G75*
G02*
X56110000Y-74720000I0J-350000D01*
G01*
G37*
G36*
G01*
X58010000Y-74720000D02*
X58010000Y-75870000D01*
G75*
G02*
X57660000Y-76220000I-350000J0D01*
G01*
X56960000Y-76220000D01*
G75*
G02*
X56610000Y-75870000I0J350000D01*
G01*
X56610000Y-74720000D01*
G75*
G02*
X56960000Y-74370000I350000J0D01*
G01*
X57660000Y-74370000D01*
G75*
G02*
X58010000Y-74720000I0J-350000D01*
G01*
G37*
%TD*%
%TO.C,LED2*%
G36*
G01*
X97606250Y-148955000D02*
X96493750Y-148955000D01*
G75*
G02*
X96150000Y-148611250I0J343750D01*
G01*
X96150000Y-147923750D01*
G75*
G02*
X96493750Y-147580000I343750J0D01*
G01*
X97606250Y-147580000D01*
G75*
G02*
X97950000Y-147923750I0J-343750D01*
G01*
X97950000Y-148611250D01*
G75*
G02*
X97606250Y-148955000I-343750J0D01*
G01*
G37*
G36*
G01*
X97606250Y-150830000D02*
X96493750Y-150830000D01*
G75*
G02*
X96150000Y-150486250I0J343750D01*
G01*
X96150000Y-149798750D01*
G75*
G02*
X96493750Y-149455000I343750J0D01*
G01*
X97606250Y-149455000D01*
G75*
G02*
X97950000Y-149798750I0J-343750D01*
G01*
X97950000Y-150486250D01*
G75*
G02*
X97606250Y-150830000I-343750J0D01*
G01*
G37*
%TD*%
D14*
%TO.C,H4*%
X22500000Y-22470000D03*
%TD*%
%TO.C,H3*%
X137500000Y-22470000D03*
%TD*%
%TO.C,H2*%
X22500000Y-157470000D03*
%TD*%
%TO.C,C4*%
G36*
G01*
X36725000Y-148276955D02*
X36725000Y-150703045D01*
G75*
G02*
X36388045Y-151040000I-336955J0D01*
G01*
X35511955Y-151040000D01*
G75*
G02*
X35175000Y-150703045I0J336955D01*
G01*
X35175000Y-148276955D01*
G75*
G02*
X35511955Y-147940000I336955J0D01*
G01*
X36388045Y-147940000D01*
G75*
G02*
X36725000Y-148276955I0J-336955D01*
G01*
G37*
G36*
G01*
X39675000Y-148276955D02*
X39675000Y-150703045D01*
G75*
G02*
X39338045Y-151040000I-336955J0D01*
G01*
X38461955Y-151040000D01*
G75*
G02*
X38125000Y-150703045I0J336955D01*
G01*
X38125000Y-148276955D01*
G75*
G02*
X38461955Y-147940000I336955J0D01*
G01*
X39338045Y-147940000D01*
G75*
G02*
X39675000Y-148276955I0J-336955D01*
G01*
G37*
%TD*%
%TO.C,C7*%
G36*
G01*
X51588045Y-149670000D02*
X49161955Y-149670000D01*
G75*
G02*
X48825000Y-149333045I0J336955D01*
G01*
X48825000Y-148456955D01*
G75*
G02*
X49161955Y-148120000I336955J0D01*
G01*
X51588045Y-148120000D01*
G75*
G02*
X51925000Y-148456955I0J-336955D01*
G01*
X51925000Y-149333045D01*
G75*
G02*
X51588045Y-149670000I-336955J0D01*
G01*
G37*
G36*
G01*
X51588045Y-152620000D02*
X49161955Y-152620000D01*
G75*
G02*
X48825000Y-152283045I0J336955D01*
G01*
X48825000Y-151406955D01*
G75*
G02*
X49161955Y-151070000I336955J0D01*
G01*
X51588045Y-151070000D01*
G75*
G02*
X51925000Y-151406955I0J-336955D01*
G01*
X51925000Y-152283045D01*
G75*
G02*
X51588045Y-152620000I-336955J0D01*
G01*
G37*
%TD*%
%TO.C,C6*%
G36*
G01*
X55235000Y-145805000D02*
X55235000Y-144655000D01*
G75*
G02*
X55585000Y-144305000I350000J0D01*
G01*
X56285000Y-144305000D01*
G75*
G02*
X56635000Y-144655000I0J-350000D01*
G01*
X56635000Y-145805000D01*
G75*
G02*
X56285000Y-146155000I-350000J0D01*
G01*
X55585000Y-146155000D01*
G75*
G02*
X55235000Y-145805000I0J350000D01*
G01*
G37*
G36*
G01*
X53335000Y-145805000D02*
X53335000Y-144655000D01*
G75*
G02*
X53685000Y-144305000I350000J0D01*
G01*
X54385000Y-144305000D01*
G75*
G02*
X54735000Y-144655000I0J-350000D01*
G01*
X54735000Y-145805000D01*
G75*
G02*
X54385000Y-146155000I-350000J0D01*
G01*
X53685000Y-146155000D01*
G75*
G02*
X53335000Y-145805000I0J350000D01*
G01*
G37*
%TD*%
%TO.C,C5*%
G36*
G01*
X36705000Y-144026955D02*
X36705000Y-146453045D01*
G75*
G02*
X36368045Y-146790000I-336955J0D01*
G01*
X35491955Y-146790000D01*
G75*
G02*
X35155000Y-146453045I0J336955D01*
G01*
X35155000Y-144026955D01*
G75*
G02*
X35491955Y-143690000I336955J0D01*
G01*
X36368045Y-143690000D01*
G75*
G02*
X36705000Y-144026955I0J-336955D01*
G01*
G37*
G36*
G01*
X39655000Y-144026955D02*
X39655000Y-146453045D01*
G75*
G02*
X39318045Y-146790000I-336955J0D01*
G01*
X38441955Y-146790000D01*
G75*
G02*
X38105000Y-146453045I0J336955D01*
G01*
X38105000Y-144026955D01*
G75*
G02*
X38441955Y-143690000I336955J0D01*
G01*
X39318045Y-143690000D01*
G75*
G02*
X39655000Y-144026955I0J-336955D01*
G01*
G37*
%TD*%
%TO.C,R11*%
G36*
G01*
X35820000Y-114637441D02*
X35820000Y-113532559D01*
G75*
G02*
X36167559Y-113185000I347559J0D01*
G01*
X36897441Y-113185000D01*
G75*
G02*
X37245000Y-113532559I0J-347559D01*
G01*
X37245000Y-114637441D01*
G75*
G02*
X36897441Y-114985000I-347559J0D01*
G01*
X36167559Y-114985000D01*
G75*
G02*
X35820000Y-114637441I0J347559D01*
G01*
G37*
G36*
G01*
X33995000Y-114637441D02*
X33995000Y-113532559D01*
G75*
G02*
X34342559Y-113185000I347559J0D01*
G01*
X35072441Y-113185000D01*
G75*
G02*
X35420000Y-113532559I0J-347559D01*
G01*
X35420000Y-114637441D01*
G75*
G02*
X35072441Y-114985000I-347559J0D01*
G01*
X34342559Y-114985000D01*
G75*
G02*
X33995000Y-114637441I0J347559D01*
G01*
G37*
%TD*%
%TO.C,LED10*%
G36*
G01*
X31400000Y-114651250D02*
X31400000Y-113538750D01*
G75*
G02*
X31743750Y-113195000I343750J0D01*
G01*
X32431250Y-113195000D01*
G75*
G02*
X32775000Y-113538750I0J-343750D01*
G01*
X32775000Y-114651250D01*
G75*
G02*
X32431250Y-114995000I-343750J0D01*
G01*
X31743750Y-114995000D01*
G75*
G02*
X31400000Y-114651250I0J343750D01*
G01*
G37*
G36*
G01*
X29525000Y-114651250D02*
X29525000Y-113538750D01*
G75*
G02*
X29868750Y-113195000I343750J0D01*
G01*
X30556250Y-113195000D01*
G75*
G02*
X30900000Y-113538750I0J-343750D01*
G01*
X30900000Y-114651250D01*
G75*
G02*
X30556250Y-114995000I-343750J0D01*
G01*
X29868750Y-114995000D01*
G75*
G02*
X29525000Y-114651250I0J343750D01*
G01*
G37*
%TD*%
%TO.C,U8*%
G36*
G01*
X22505000Y-62925000D02*
X21855000Y-62925000D01*
G75*
G02*
X21655000Y-62725000I0J200000D01*
G01*
X21655000Y-60925000D01*
G75*
G02*
X21855000Y-60725000I200000J0D01*
G01*
X22505000Y-60725000D01*
G75*
G02*
X22705000Y-60925000I0J-200000D01*
G01*
X22705000Y-62725000D01*
G75*
G02*
X22505000Y-62925000I-200000J0D01*
G01*
G37*
G36*
G01*
X23775000Y-62925000D02*
X23125000Y-62925000D01*
G75*
G02*
X22925000Y-62725000I0J200000D01*
G01*
X22925000Y-60925000D01*
G75*
G02*
X23125000Y-60725000I200000J0D01*
G01*
X23775000Y-60725000D01*
G75*
G02*
X23975000Y-60925000I0J-200000D01*
G01*
X23975000Y-62725000D01*
G75*
G02*
X23775000Y-62925000I-200000J0D01*
G01*
G37*
G36*
G01*
X25045000Y-62925000D02*
X24395000Y-62925000D01*
G75*
G02*
X24195000Y-62725000I0J200000D01*
G01*
X24195000Y-60925000D01*
G75*
G02*
X24395000Y-60725000I200000J0D01*
G01*
X25045000Y-60725000D01*
G75*
G02*
X25245000Y-60925000I0J-200000D01*
G01*
X25245000Y-62725000D01*
G75*
G02*
X25045000Y-62925000I-200000J0D01*
G01*
G37*
G36*
G01*
X26315000Y-62925000D02*
X25665000Y-62925000D01*
G75*
G02*
X25465000Y-62725000I0J200000D01*
G01*
X25465000Y-60925000D01*
G75*
G02*
X25665000Y-60725000I200000J0D01*
G01*
X26315000Y-60725000D01*
G75*
G02*
X26515000Y-60925000I0J-200000D01*
G01*
X26515000Y-62725000D01*
G75*
G02*
X26315000Y-62925000I-200000J0D01*
G01*
G37*
G36*
G01*
X27585000Y-62925000D02*
X26935000Y-62925000D01*
G75*
G02*
X26735000Y-62725000I0J200000D01*
G01*
X26735000Y-60925000D01*
G75*
G02*
X26935000Y-60725000I200000J0D01*
G01*
X27585000Y-60725000D01*
G75*
G02*
X27785000Y-60925000I0J-200000D01*
G01*
X27785000Y-62725000D01*
G75*
G02*
X27585000Y-62925000I-200000J0D01*
G01*
G37*
G36*
G01*
X28855000Y-62925000D02*
X28205000Y-62925000D01*
G75*
G02*
X28005000Y-62725000I0J200000D01*
G01*
X28005000Y-60925000D01*
G75*
G02*
X28205000Y-60725000I200000J0D01*
G01*
X28855000Y-60725000D01*
G75*
G02*
X29055000Y-60925000I0J-200000D01*
G01*
X29055000Y-62725000D01*
G75*
G02*
X28855000Y-62925000I-200000J0D01*
G01*
G37*
G36*
G01*
X30125000Y-62925000D02*
X29475000Y-62925000D01*
G75*
G02*
X29275000Y-62725000I0J200000D01*
G01*
X29275000Y-60925000D01*
G75*
G02*
X29475000Y-60725000I200000J0D01*
G01*
X30125000Y-60725000D01*
G75*
G02*
X30325000Y-60925000I0J-200000D01*
G01*
X30325000Y-62725000D01*
G75*
G02*
X30125000Y-62925000I-200000J0D01*
G01*
G37*
G36*
G01*
X31395000Y-62925000D02*
X30745000Y-62925000D01*
G75*
G02*
X30545000Y-62725000I0J200000D01*
G01*
X30545000Y-60925000D01*
G75*
G02*
X30745000Y-60725000I200000J0D01*
G01*
X31395000Y-60725000D01*
G75*
G02*
X31595000Y-60925000I0J-200000D01*
G01*
X31595000Y-62725000D01*
G75*
G02*
X31395000Y-62925000I-200000J0D01*
G01*
G37*
G36*
G01*
X32665000Y-62925000D02*
X32015000Y-62925000D01*
G75*
G02*
X31815000Y-62725000I0J200000D01*
G01*
X31815000Y-60925000D01*
G75*
G02*
X32015000Y-60725000I200000J0D01*
G01*
X32665000Y-60725000D01*
G75*
G02*
X32865000Y-60925000I0J-200000D01*
G01*
X32865000Y-62725000D01*
G75*
G02*
X32665000Y-62925000I-200000J0D01*
G01*
G37*
G36*
G01*
X33935000Y-62925000D02*
X33285000Y-62925000D01*
G75*
G02*
X33085000Y-62725000I0J200000D01*
G01*
X33085000Y-60925000D01*
G75*
G02*
X33285000Y-60725000I200000J0D01*
G01*
X33935000Y-60725000D01*
G75*
G02*
X34135000Y-60925000I0J-200000D01*
G01*
X34135000Y-62725000D01*
G75*
G02*
X33935000Y-62925000I-200000J0D01*
G01*
G37*
G36*
G01*
X33935000Y-72375000D02*
X33285000Y-72375000D01*
G75*
G02*
X33085000Y-72175000I0J200000D01*
G01*
X33085000Y-70375000D01*
G75*
G02*
X33285000Y-70175000I200000J0D01*
G01*
X33935000Y-70175000D01*
G75*
G02*
X34135000Y-70375000I0J-200000D01*
G01*
X34135000Y-72175000D01*
G75*
G02*
X33935000Y-72375000I-200000J0D01*
G01*
G37*
G36*
G01*
X32665000Y-72375000D02*
X32015000Y-72375000D01*
G75*
G02*
X31815000Y-72175000I0J200000D01*
G01*
X31815000Y-70375000D01*
G75*
G02*
X32015000Y-70175000I200000J0D01*
G01*
X32665000Y-70175000D01*
G75*
G02*
X32865000Y-70375000I0J-200000D01*
G01*
X32865000Y-72175000D01*
G75*
G02*
X32665000Y-72375000I-200000J0D01*
G01*
G37*
G36*
G01*
X31395000Y-72375000D02*
X30745000Y-72375000D01*
G75*
G02*
X30545000Y-72175000I0J200000D01*
G01*
X30545000Y-70375000D01*
G75*
G02*
X30745000Y-70175000I200000J0D01*
G01*
X31395000Y-70175000D01*
G75*
G02*
X31595000Y-70375000I0J-200000D01*
G01*
X31595000Y-72175000D01*
G75*
G02*
X31395000Y-72375000I-200000J0D01*
G01*
G37*
G36*
G01*
X30125000Y-72375000D02*
X29475000Y-72375000D01*
G75*
G02*
X29275000Y-72175000I0J200000D01*
G01*
X29275000Y-70375000D01*
G75*
G02*
X29475000Y-70175000I200000J0D01*
G01*
X30125000Y-70175000D01*
G75*
G02*
X30325000Y-70375000I0J-200000D01*
G01*
X30325000Y-72175000D01*
G75*
G02*
X30125000Y-72375000I-200000J0D01*
G01*
G37*
G36*
G01*
X28855000Y-72375000D02*
X28205000Y-72375000D01*
G75*
G02*
X28005000Y-72175000I0J200000D01*
G01*
X28005000Y-70375000D01*
G75*
G02*
X28205000Y-70175000I200000J0D01*
G01*
X28855000Y-70175000D01*
G75*
G02*
X29055000Y-70375000I0J-200000D01*
G01*
X29055000Y-72175000D01*
G75*
G02*
X28855000Y-72375000I-200000J0D01*
G01*
G37*
G36*
G01*
X27585000Y-72375000D02*
X26935000Y-72375000D01*
G75*
G02*
X26735000Y-72175000I0J200000D01*
G01*
X26735000Y-70375000D01*
G75*
G02*
X26935000Y-70175000I200000J0D01*
G01*
X27585000Y-70175000D01*
G75*
G02*
X27785000Y-70375000I0J-200000D01*
G01*
X27785000Y-72175000D01*
G75*
G02*
X27585000Y-72375000I-200000J0D01*
G01*
G37*
G36*
G01*
X26315000Y-72375000D02*
X25665000Y-72375000D01*
G75*
G02*
X25465000Y-72175000I0J200000D01*
G01*
X25465000Y-70375000D01*
G75*
G02*
X25665000Y-70175000I200000J0D01*
G01*
X26315000Y-70175000D01*
G75*
G02*
X26515000Y-70375000I0J-200000D01*
G01*
X26515000Y-72175000D01*
G75*
G02*
X26315000Y-72375000I-200000J0D01*
G01*
G37*
G36*
G01*
X25045000Y-72375000D02*
X24395000Y-72375000D01*
G75*
G02*
X24195000Y-72175000I0J200000D01*
G01*
X24195000Y-70375000D01*
G75*
G02*
X24395000Y-70175000I200000J0D01*
G01*
X25045000Y-70175000D01*
G75*
G02*
X25245000Y-70375000I0J-200000D01*
G01*
X25245000Y-72175000D01*
G75*
G02*
X25045000Y-72375000I-200000J0D01*
G01*
G37*
G36*
G01*
X23775000Y-72375000D02*
X23125000Y-72375000D01*
G75*
G02*
X22925000Y-72175000I0J200000D01*
G01*
X22925000Y-70375000D01*
G75*
G02*
X23125000Y-70175000I200000J0D01*
G01*
X23775000Y-70175000D01*
G75*
G02*
X23975000Y-70375000I0J-200000D01*
G01*
X23975000Y-72175000D01*
G75*
G02*
X23775000Y-72375000I-200000J0D01*
G01*
G37*
G36*
G01*
X22505000Y-72375000D02*
X21855000Y-72375000D01*
G75*
G02*
X21655000Y-72175000I0J200000D01*
G01*
X21655000Y-70375000D01*
G75*
G02*
X21855000Y-70175000I200000J0D01*
G01*
X22505000Y-70175000D01*
G75*
G02*
X22705000Y-70375000I0J-200000D01*
G01*
X22705000Y-72175000D01*
G75*
G02*
X22505000Y-72375000I-200000J0D01*
G01*
G37*
%TD*%
%TO.C,SW2*%
G36*
G01*
X34770000Y-110275000D02*
X34770000Y-108755000D01*
G75*
G02*
X34970000Y-108555000I200000J0D01*
G01*
X37130000Y-108555000D01*
G75*
G02*
X37330000Y-108755000I0J-200000D01*
G01*
X37330000Y-110275000D01*
G75*
G02*
X37130000Y-110475000I-200000J0D01*
G01*
X34970000Y-110475000D01*
G75*
G02*
X34770000Y-110275000I0J200000D01*
G01*
G37*
G36*
G01*
X34770000Y-107735000D02*
X34770000Y-106215000D01*
G75*
G02*
X34970000Y-106015000I200000J0D01*
G01*
X37130000Y-106015000D01*
G75*
G02*
X37330000Y-106215000I0J-200000D01*
G01*
X37330000Y-107735000D01*
G75*
G02*
X37130000Y-107935000I-200000J0D01*
G01*
X34970000Y-107935000D01*
G75*
G02*
X34770000Y-107735000I0J200000D01*
G01*
G37*
G36*
G01*
X26510000Y-110275000D02*
X26510000Y-108755000D01*
G75*
G02*
X26710000Y-108555000I200000J0D01*
G01*
X28870000Y-108555000D01*
G75*
G02*
X29070000Y-108755000I0J-200000D01*
G01*
X29070000Y-110275000D01*
G75*
G02*
X28870000Y-110475000I-200000J0D01*
G01*
X26710000Y-110475000D01*
G75*
G02*
X26510000Y-110275000I0J200000D01*
G01*
G37*
G36*
G01*
X26510000Y-107735000D02*
X26510000Y-106215000D01*
G75*
G02*
X26710000Y-106015000I200000J0D01*
G01*
X28870000Y-106015000D01*
G75*
G02*
X29070000Y-106215000I0J-200000D01*
G01*
X29070000Y-107735000D01*
G75*
G02*
X28870000Y-107935000I-200000J0D01*
G01*
X26710000Y-107935000D01*
G75*
G02*
X26510000Y-107735000I0J200000D01*
G01*
G37*
%TD*%
D15*
%TO.C,SW1*%
X35825000Y-101805000D03*
X31325000Y-101805000D03*
X35825000Y-95305000D03*
X31325000Y-95305000D03*
%TD*%
%TO.C,R2*%
G36*
G01*
X135096113Y-141447500D02*
X133623887Y-141447500D01*
G75*
G02*
X133285000Y-141108613I0J338887D01*
G01*
X133285000Y-140261387D01*
G75*
G02*
X133623887Y-139922500I338887J0D01*
G01*
X135096113Y-139922500D01*
G75*
G02*
X135435000Y-140261387I0J-338887D01*
G01*
X135435000Y-141108613D01*
G75*
G02*
X135096113Y-141447500I-338887J0D01*
G01*
G37*
G36*
G01*
X135096113Y-144372500D02*
X133623887Y-144372500D01*
G75*
G02*
X133285000Y-144033613I0J338887D01*
G01*
X133285000Y-143186387D01*
G75*
G02*
X133623887Y-142847500I338887J0D01*
G01*
X135096113Y-142847500D01*
G75*
G02*
X135435000Y-143186387I0J-338887D01*
G01*
X135435000Y-144033613D01*
G75*
G02*
X135096113Y-144372500I-338887J0D01*
G01*
G37*
%TD*%
%TO.C,LED1*%
G36*
G01*
X135081250Y-146905000D02*
X133968750Y-146905000D01*
G75*
G02*
X133625000Y-146561250I0J343750D01*
G01*
X133625000Y-145873750D01*
G75*
G02*
X133968750Y-145530000I343750J0D01*
G01*
X135081250Y-145530000D01*
G75*
G02*
X135425000Y-145873750I0J-343750D01*
G01*
X135425000Y-146561250D01*
G75*
G02*
X135081250Y-146905000I-343750J0D01*
G01*
G37*
G36*
G01*
X135081250Y-148780000D02*
X133968750Y-148780000D01*
G75*
G02*
X133625000Y-148436250I0J343750D01*
G01*
X133625000Y-147748750D01*
G75*
G02*
X133968750Y-147405000I343750J0D01*
G01*
X135081250Y-147405000D01*
G75*
G02*
X135425000Y-147748750I0J-343750D01*
G01*
X135425000Y-148436250D01*
G75*
G02*
X135081250Y-148780000I-343750J0D01*
G01*
G37*
%TD*%
%TO.C,U9*%
G36*
G01*
X31075000Y-57200000D02*
X30275000Y-57200000D01*
G75*
G02*
X30075000Y-57000000I0J200000D01*
G01*
X30075000Y-56100000D01*
G75*
G02*
X30275000Y-55900000I200000J0D01*
G01*
X31075000Y-55900000D01*
G75*
G02*
X31275000Y-56100000I0J-200000D01*
G01*
X31275000Y-57000000D01*
G75*
G02*
X31075000Y-57200000I-200000J0D01*
G01*
G37*
G36*
G01*
X32025000Y-59200000D02*
X31225000Y-59200000D01*
G75*
G02*
X31025000Y-59000000I0J200000D01*
G01*
X31025000Y-58100000D01*
G75*
G02*
X31225000Y-57900000I200000J0D01*
G01*
X32025000Y-57900000D01*
G75*
G02*
X32225000Y-58100000I0J-200000D01*
G01*
X32225000Y-59000000D01*
G75*
G02*
X32025000Y-59200000I-200000J0D01*
G01*
G37*
G36*
G01*
X30125000Y-59200000D02*
X29325000Y-59200000D01*
G75*
G02*
X29125000Y-59000000I0J200000D01*
G01*
X29125000Y-58100000D01*
G75*
G02*
X29325000Y-57900000I200000J0D01*
G01*
X30125000Y-57900000D01*
G75*
G02*
X30325000Y-58100000I0J-200000D01*
G01*
X30325000Y-59000000D01*
G75*
G02*
X30125000Y-59200000I-200000J0D01*
G01*
G37*
%TD*%
D16*
%TO.C,U3*%
X55035000Y-135420000D03*
X52495000Y-135420000D03*
X49955000Y-135420000D03*
X47415000Y-135420000D03*
X42335000Y-135420000D03*
X39795000Y-135420000D03*
G36*
G01*
X36301000Y-136174000D02*
X36301000Y-134666000D01*
G75*
G02*
X36501000Y-134466000I200000J0D01*
G01*
X38009000Y-134466000D01*
G75*
G02*
X38209000Y-134666000I0J-200000D01*
G01*
X38209000Y-136174000D01*
G75*
G02*
X38009000Y-136374000I-200000J0D01*
G01*
X36501000Y-136374000D01*
G75*
G02*
X36301000Y-136174000I0J200000D01*
G01*
G37*
%TD*%
%TO.C,U2*%
G36*
G01*
X53720000Y-67190000D02*
X53220000Y-67190000D01*
G75*
G02*
X52970000Y-66940000I0J250000D01*
G01*
X52970000Y-65090000D01*
G75*
G02*
X53220000Y-64840000I250000J0D01*
G01*
X53720000Y-64840000D01*
G75*
G02*
X53970000Y-65090000I0J-250000D01*
G01*
X53970000Y-66940000D01*
G75*
G02*
X53720000Y-67190000I-250000J0D01*
G01*
G37*
G36*
G01*
X54990000Y-67190000D02*
X54490000Y-67190000D01*
G75*
G02*
X54240000Y-66940000I0J250000D01*
G01*
X54240000Y-65090000D01*
G75*
G02*
X54490000Y-64840000I250000J0D01*
G01*
X54990000Y-64840000D01*
G75*
G02*
X55240000Y-65090000I0J-250000D01*
G01*
X55240000Y-66940000D01*
G75*
G02*
X54990000Y-67190000I-250000J0D01*
G01*
G37*
G36*
G01*
X56260000Y-67190000D02*
X55760000Y-67190000D01*
G75*
G02*
X55510000Y-66940000I0J250000D01*
G01*
X55510000Y-65090000D01*
G75*
G02*
X55760000Y-64840000I250000J0D01*
G01*
X56260000Y-64840000D01*
G75*
G02*
X56510000Y-65090000I0J-250000D01*
G01*
X56510000Y-66940000D01*
G75*
G02*
X56260000Y-67190000I-250000J0D01*
G01*
G37*
G36*
G01*
X57530000Y-67190000D02*
X57030000Y-67190000D01*
G75*
G02*
X56780000Y-66940000I0J250000D01*
G01*
X56780000Y-65090000D01*
G75*
G02*
X57030000Y-64840000I250000J0D01*
G01*
X57530000Y-64840000D01*
G75*
G02*
X57780000Y-65090000I0J-250000D01*
G01*
X57780000Y-66940000D01*
G75*
G02*
X57530000Y-67190000I-250000J0D01*
G01*
G37*
G36*
G01*
X57530000Y-72140000D02*
X57030000Y-72140000D01*
G75*
G02*
X56780000Y-71890000I0J250000D01*
G01*
X56780000Y-70040000D01*
G75*
G02*
X57030000Y-69790000I250000J0D01*
G01*
X57530000Y-69790000D01*
G75*
G02*
X57780000Y-70040000I0J-250000D01*
G01*
X57780000Y-71890000D01*
G75*
G02*
X57530000Y-72140000I-250000J0D01*
G01*
G37*
G36*
G01*
X56260000Y-72140000D02*
X55760000Y-72140000D01*
G75*
G02*
X55510000Y-71890000I0J250000D01*
G01*
X55510000Y-70040000D01*
G75*
G02*
X55760000Y-69790000I250000J0D01*
G01*
X56260000Y-69790000D01*
G75*
G02*
X56510000Y-70040000I0J-250000D01*
G01*
X56510000Y-71890000D01*
G75*
G02*
X56260000Y-72140000I-250000J0D01*
G01*
G37*
G36*
G01*
X54990000Y-72140000D02*
X54490000Y-72140000D01*
G75*
G02*
X54240000Y-71890000I0J250000D01*
G01*
X54240000Y-70040000D01*
G75*
G02*
X54490000Y-69790000I250000J0D01*
G01*
X54990000Y-69790000D01*
G75*
G02*
X55240000Y-70040000I0J-250000D01*
G01*
X55240000Y-71890000D01*
G75*
G02*
X54990000Y-72140000I-250000J0D01*
G01*
G37*
G36*
G01*
X53720000Y-72140000D02*
X53220000Y-72140000D01*
G75*
G02*
X52970000Y-71890000I0J250000D01*
G01*
X52970000Y-70040000D01*
G75*
G02*
X53220000Y-69790000I250000J0D01*
G01*
X53720000Y-69790000D01*
G75*
G02*
X53970000Y-70040000I0J-250000D01*
G01*
X53970000Y-71890000D01*
G75*
G02*
X53720000Y-72140000I-250000J0D01*
G01*
G37*
%TD*%
D12*
%TO.C,TP28*%
X39625000Y-44015000D03*
%TD*%
%TO.C,TP27*%
X39675000Y-49190000D03*
%TD*%
%TO.C,TP26*%
X39590000Y-69490000D03*
%TD*%
%TO.C,TP25*%
X39725000Y-54265000D03*
%TD*%
%TO.C,TP24*%
X39725000Y-59340000D03*
%TD*%
%TO.C,TP23*%
X39650000Y-64390000D03*
%TD*%
%TO.C,TP22*%
X33000000Y-75465000D03*
%TD*%
%TO.C,TP21*%
X39550000Y-74515000D03*
%TD*%
%TO.C,TP19*%
X71840000Y-111005000D03*
%TD*%
%TO.C,TP18*%
X67040000Y-125515000D03*
%TD*%
%TO.C,TP17*%
X67060000Y-106605000D03*
%TD*%
%TO.C,TP16*%
X97050000Y-154055000D03*
%TD*%
%TO.C,TP15*%
X127280000Y-28965000D03*
%TD*%
%TO.C,TP14*%
X127240000Y-35575000D03*
%TD*%
%TO.C,TP12*%
X134525000Y-151955000D03*
%TD*%
%TO.C,TP11*%
X93300000Y-136105000D03*
%TD*%
%TO.C,TP10*%
X127270000Y-42185000D03*
%TD*%
%TO.C,TP9*%
X130775000Y-136180000D03*
%TD*%
%TO.C,TP8*%
X55445000Y-149760000D03*
%TD*%
%TO.C,TP7*%
X46975000Y-145070000D03*
%TD*%
%TO.C,TP6*%
X48675000Y-156850000D03*
%TD*%
%TO.C,TP5*%
X55445000Y-156910000D03*
%TD*%
%TO.C,TP4*%
X62060000Y-70255000D03*
%TD*%
%TO.C,TP3*%
X62140000Y-75295000D03*
%TD*%
%TO.C,TP2*%
X49590000Y-72785000D03*
%TD*%
%TO.C,TP1*%
X63685000Y-90840000D03*
%TD*%
%TO.C,R10*%
G36*
G01*
X35860000Y-129587441D02*
X35860000Y-128482559D01*
G75*
G02*
X36207559Y-128135000I347559J0D01*
G01*
X36937441Y-128135000D01*
G75*
G02*
X37285000Y-128482559I0J-347559D01*
G01*
X37285000Y-129587441D01*
G75*
G02*
X36937441Y-129935000I-347559J0D01*
G01*
X36207559Y-129935000D01*
G75*
G02*
X35860000Y-129587441I0J347559D01*
G01*
G37*
G36*
G01*
X34035000Y-129587441D02*
X34035000Y-128482559D01*
G75*
G02*
X34382559Y-128135000I347559J0D01*
G01*
X35112441Y-128135000D01*
G75*
G02*
X35460000Y-128482559I0J-347559D01*
G01*
X35460000Y-129587441D01*
G75*
G02*
X35112441Y-129935000I-347559J0D01*
G01*
X34382559Y-129935000D01*
G75*
G02*
X34035000Y-129587441I0J347559D01*
G01*
G37*
%TD*%
%TO.C,R9*%
G36*
G01*
X35830000Y-126587441D02*
X35830000Y-125482559D01*
G75*
G02*
X36177559Y-125135000I347559J0D01*
G01*
X36907441Y-125135000D01*
G75*
G02*
X37255000Y-125482559I0J-347559D01*
G01*
X37255000Y-126587441D01*
G75*
G02*
X36907441Y-126935000I-347559J0D01*
G01*
X36177559Y-126935000D01*
G75*
G02*
X35830000Y-126587441I0J347559D01*
G01*
G37*
G36*
G01*
X34005000Y-126587441D02*
X34005000Y-125482559D01*
G75*
G02*
X34352559Y-125135000I347559J0D01*
G01*
X35082441Y-125135000D01*
G75*
G02*
X35430000Y-125482559I0J-347559D01*
G01*
X35430000Y-126587441D01*
G75*
G02*
X35082441Y-126935000I-347559J0D01*
G01*
X34352559Y-126935000D01*
G75*
G02*
X34005000Y-126587441I0J347559D01*
G01*
G37*
%TD*%
%TO.C,R8*%
G36*
G01*
X35820000Y-123587441D02*
X35820000Y-122482559D01*
G75*
G02*
X36167559Y-122135000I347559J0D01*
G01*
X36897441Y-122135000D01*
G75*
G02*
X37245000Y-122482559I0J-347559D01*
G01*
X37245000Y-123587441D01*
G75*
G02*
X36897441Y-123935000I-347559J0D01*
G01*
X36167559Y-123935000D01*
G75*
G02*
X35820000Y-123587441I0J347559D01*
G01*
G37*
G36*
G01*
X33995000Y-123587441D02*
X33995000Y-122482559D01*
G75*
G02*
X34342559Y-122135000I347559J0D01*
G01*
X35072441Y-122135000D01*
G75*
G02*
X35420000Y-122482559I0J-347559D01*
G01*
X35420000Y-123587441D01*
G75*
G02*
X35072441Y-123935000I-347559J0D01*
G01*
X34342559Y-123935000D01*
G75*
G02*
X33995000Y-123587441I0J347559D01*
G01*
G37*
%TD*%
%TO.C,R7*%
G36*
G01*
X35810000Y-117607441D02*
X35810000Y-116502559D01*
G75*
G02*
X36157559Y-116155000I347559J0D01*
G01*
X36887441Y-116155000D01*
G75*
G02*
X37235000Y-116502559I0J-347559D01*
G01*
X37235000Y-117607441D01*
G75*
G02*
X36887441Y-117955000I-347559J0D01*
G01*
X36157559Y-117955000D01*
G75*
G02*
X35810000Y-117607441I0J347559D01*
G01*
G37*
G36*
G01*
X33985000Y-117607441D02*
X33985000Y-116502559D01*
G75*
G02*
X34332559Y-116155000I347559J0D01*
G01*
X35062441Y-116155000D01*
G75*
G02*
X35410000Y-116502559I0J-347559D01*
G01*
X35410000Y-117607441D01*
G75*
G02*
X35062441Y-117955000I-347559J0D01*
G01*
X34332559Y-117955000D01*
G75*
G02*
X33985000Y-117607441I0J347559D01*
G01*
G37*
%TD*%
%TO.C,R6*%
G36*
G01*
X35800000Y-120617441D02*
X35800000Y-119512559D01*
G75*
G02*
X36147559Y-119165000I347559J0D01*
G01*
X36877441Y-119165000D01*
G75*
G02*
X37225000Y-119512559I0J-347559D01*
G01*
X37225000Y-120617441D01*
G75*
G02*
X36877441Y-120965000I-347559J0D01*
G01*
X36147559Y-120965000D01*
G75*
G02*
X35800000Y-120617441I0J347559D01*
G01*
G37*
G36*
G01*
X33975000Y-120617441D02*
X33975000Y-119512559D01*
G75*
G02*
X34322559Y-119165000I347559J0D01*
G01*
X35052441Y-119165000D01*
G75*
G02*
X35400000Y-119512559I0J-347559D01*
G01*
X35400000Y-120617441D01*
G75*
G02*
X35052441Y-120965000I-347559J0D01*
G01*
X34322559Y-120965000D01*
G75*
G02*
X33975000Y-120617441I0J347559D01*
G01*
G37*
%TD*%
%TO.C,R5*%
G36*
G01*
X32375000Y-147482441D02*
X32375000Y-146377559D01*
G75*
G02*
X32722559Y-146030000I347559J0D01*
G01*
X33452441Y-146030000D01*
G75*
G02*
X33800000Y-146377559I0J-347559D01*
G01*
X33800000Y-147482441D01*
G75*
G02*
X33452441Y-147830000I-347559J0D01*
G01*
X32722559Y-147830000D01*
G75*
G02*
X32375000Y-147482441I0J347559D01*
G01*
G37*
G36*
G01*
X30550000Y-147482441D02*
X30550000Y-146377559D01*
G75*
G02*
X30897559Y-146030000I347559J0D01*
G01*
X31627441Y-146030000D01*
G75*
G02*
X31975000Y-146377559I0J-347559D01*
G01*
X31975000Y-147482441D01*
G75*
G02*
X31627441Y-147830000I-347559J0D01*
G01*
X30897559Y-147830000D01*
G75*
G02*
X30550000Y-147482441I0J347559D01*
G01*
G37*
%TD*%
%TO.C,R4*%
G36*
G01*
X32425000Y-153507441D02*
X32425000Y-152402559D01*
G75*
G02*
X32772559Y-152055000I347559J0D01*
G01*
X33502441Y-152055000D01*
G75*
G02*
X33850000Y-152402559I0J-347559D01*
G01*
X33850000Y-153507441D01*
G75*
G02*
X33502441Y-153855000I-347559J0D01*
G01*
X32772559Y-153855000D01*
G75*
G02*
X32425000Y-153507441I0J347559D01*
G01*
G37*
G36*
G01*
X30600000Y-153507441D02*
X30600000Y-152402559D01*
G75*
G02*
X30947559Y-152055000I347559J0D01*
G01*
X31677441Y-152055000D01*
G75*
G02*
X32025000Y-152402559I0J-347559D01*
G01*
X32025000Y-153507441D01*
G75*
G02*
X31677441Y-153855000I-347559J0D01*
G01*
X30947559Y-153855000D01*
G75*
G02*
X30600000Y-153507441I0J347559D01*
G01*
G37*
%TD*%
%TO.C,R3*%
G36*
G01*
X97626113Y-143505000D02*
X96153887Y-143505000D01*
G75*
G02*
X95815000Y-143166113I0J338887D01*
G01*
X95815000Y-142318887D01*
G75*
G02*
X96153887Y-141980000I338887J0D01*
G01*
X97626113Y-141980000D01*
G75*
G02*
X97965000Y-142318887I0J-338887D01*
G01*
X97965000Y-143166113D01*
G75*
G02*
X97626113Y-143505000I-338887J0D01*
G01*
G37*
G36*
G01*
X97626113Y-146430000D02*
X96153887Y-146430000D01*
G75*
G02*
X95815000Y-146091113I0J338887D01*
G01*
X95815000Y-145243887D01*
G75*
G02*
X96153887Y-144905000I338887J0D01*
G01*
X97626113Y-144905000D01*
G75*
G02*
X97965000Y-145243887I0J-338887D01*
G01*
X97965000Y-146091113D01*
G75*
G02*
X97626113Y-146430000I-338887J0D01*
G01*
G37*
%TD*%
%TO.C,LED9*%
G36*
G01*
X31330000Y-129591250D02*
X31330000Y-128478750D01*
G75*
G02*
X31673750Y-128135000I343750J0D01*
G01*
X32361250Y-128135000D01*
G75*
G02*
X32705000Y-128478750I0J-343750D01*
G01*
X32705000Y-129591250D01*
G75*
G02*
X32361250Y-129935000I-343750J0D01*
G01*
X31673750Y-129935000D01*
G75*
G02*
X31330000Y-129591250I0J343750D01*
G01*
G37*
G36*
G01*
X29455000Y-129591250D02*
X29455000Y-128478750D01*
G75*
G02*
X29798750Y-128135000I343750J0D01*
G01*
X30486250Y-128135000D01*
G75*
G02*
X30830000Y-128478750I0J-343750D01*
G01*
X30830000Y-129591250D01*
G75*
G02*
X30486250Y-129935000I-343750J0D01*
G01*
X29798750Y-129935000D01*
G75*
G02*
X29455000Y-129591250I0J343750D01*
G01*
G37*
%TD*%
%TO.C,LED8*%
G36*
G01*
X31380000Y-126591250D02*
X31380000Y-125478750D01*
G75*
G02*
X31723750Y-125135000I343750J0D01*
G01*
X32411250Y-125135000D01*
G75*
G02*
X32755000Y-125478750I0J-343750D01*
G01*
X32755000Y-126591250D01*
G75*
G02*
X32411250Y-126935000I-343750J0D01*
G01*
X31723750Y-126935000D01*
G75*
G02*
X31380000Y-126591250I0J343750D01*
G01*
G37*
G36*
G01*
X29505000Y-126591250D02*
X29505000Y-125478750D01*
G75*
G02*
X29848750Y-125135000I343750J0D01*
G01*
X30536250Y-125135000D01*
G75*
G02*
X30880000Y-125478750I0J-343750D01*
G01*
X30880000Y-126591250D01*
G75*
G02*
X30536250Y-126935000I-343750J0D01*
G01*
X29848750Y-126935000D01*
G75*
G02*
X29505000Y-126591250I0J343750D01*
G01*
G37*
%TD*%
%TO.C,LED7*%
G36*
G01*
X31370000Y-123591250D02*
X31370000Y-122478750D01*
G75*
G02*
X31713750Y-122135000I343750J0D01*
G01*
X32401250Y-122135000D01*
G75*
G02*
X32745000Y-122478750I0J-343750D01*
G01*
X32745000Y-123591250D01*
G75*
G02*
X32401250Y-123935000I-343750J0D01*
G01*
X31713750Y-123935000D01*
G75*
G02*
X31370000Y-123591250I0J343750D01*
G01*
G37*
G36*
G01*
X29495000Y-123591250D02*
X29495000Y-122478750D01*
G75*
G02*
X29838750Y-122135000I343750J0D01*
G01*
X30526250Y-122135000D01*
G75*
G02*
X30870000Y-122478750I0J-343750D01*
G01*
X30870000Y-123591250D01*
G75*
G02*
X30526250Y-123935000I-343750J0D01*
G01*
X29838750Y-123935000D01*
G75*
G02*
X29495000Y-123591250I0J343750D01*
G01*
G37*
%TD*%
%TO.C,LED6*%
G36*
G01*
X31377500Y-117581250D02*
X31377500Y-116468750D01*
G75*
G02*
X31721250Y-116125000I343750J0D01*
G01*
X32408750Y-116125000D01*
G75*
G02*
X32752500Y-116468750I0J-343750D01*
G01*
X32752500Y-117581250D01*
G75*
G02*
X32408750Y-117925000I-343750J0D01*
G01*
X31721250Y-117925000D01*
G75*
G02*
X31377500Y-117581250I0J343750D01*
G01*
G37*
G36*
G01*
X29502500Y-117581250D02*
X29502500Y-116468750D01*
G75*
G02*
X29846250Y-116125000I343750J0D01*
G01*
X30533750Y-116125000D01*
G75*
G02*
X30877500Y-116468750I0J-343750D01*
G01*
X30877500Y-117581250D01*
G75*
G02*
X30533750Y-117925000I-343750J0D01*
G01*
X29846250Y-117925000D01*
G75*
G02*
X29502500Y-117581250I0J343750D01*
G01*
G37*
%TD*%
%TO.C,LED5*%
G36*
G01*
X31390000Y-120591250D02*
X31390000Y-119478750D01*
G75*
G02*
X31733750Y-119135000I343750J0D01*
G01*
X32421250Y-119135000D01*
G75*
G02*
X32765000Y-119478750I0J-343750D01*
G01*
X32765000Y-120591250D01*
G75*
G02*
X32421250Y-120935000I-343750J0D01*
G01*
X31733750Y-120935000D01*
G75*
G02*
X31390000Y-120591250I0J343750D01*
G01*
G37*
G36*
G01*
X29515000Y-120591250D02*
X29515000Y-119478750D01*
G75*
G02*
X29858750Y-119135000I343750J0D01*
G01*
X30546250Y-119135000D01*
G75*
G02*
X30890000Y-119478750I0J-343750D01*
G01*
X30890000Y-120591250D01*
G75*
G02*
X30546250Y-120935000I-343750J0D01*
G01*
X29858750Y-120935000D01*
G75*
G02*
X29515000Y-120591250I0J343750D01*
G01*
G37*
%TD*%
%TO.C,LED4*%
G36*
G01*
X31875000Y-143348750D02*
X31875000Y-144461250D01*
G75*
G02*
X31531250Y-144805000I-343750J0D01*
G01*
X30843750Y-144805000D01*
G75*
G02*
X30500000Y-144461250I0J343750D01*
G01*
X30500000Y-143348750D01*
G75*
G02*
X30843750Y-143005000I343750J0D01*
G01*
X31531250Y-143005000D01*
G75*
G02*
X31875000Y-143348750I0J-343750D01*
G01*
G37*
G36*
G01*
X33750000Y-143348750D02*
X33750000Y-144461250D01*
G75*
G02*
X33406250Y-144805000I-343750J0D01*
G01*
X32718750Y-144805000D01*
G75*
G02*
X32375000Y-144461250I0J343750D01*
G01*
X32375000Y-143348750D01*
G75*
G02*
X32718750Y-143005000I343750J0D01*
G01*
X33406250Y-143005000D01*
G75*
G02*
X33750000Y-143348750I0J-343750D01*
G01*
G37*
%TD*%
%TO.C,LED3*%
G36*
G01*
X31875000Y-149398750D02*
X31875000Y-150511250D01*
G75*
G02*
X31531250Y-150855000I-343750J0D01*
G01*
X30843750Y-150855000D01*
G75*
G02*
X30500000Y-150511250I0J343750D01*
G01*
X30500000Y-149398750D01*
G75*
G02*
X30843750Y-149055000I343750J0D01*
G01*
X31531250Y-149055000D01*
G75*
G02*
X31875000Y-149398750I0J-343750D01*
G01*
G37*
G36*
G01*
X33750000Y-149398750D02*
X33750000Y-150511250D01*
G75*
G02*
X33406250Y-150855000I-343750J0D01*
G01*
X32718750Y-150855000D01*
G75*
G02*
X32375000Y-150511250I0J343750D01*
G01*
X32375000Y-149398750D01*
G75*
G02*
X32718750Y-149055000I343750J0D01*
G01*
X33406250Y-149055000D01*
G75*
G02*
X33750000Y-149398750I0J-343750D01*
G01*
G37*
%TD*%
%TO.C,L1*%
G36*
G01*
X42256250Y-148895000D02*
X41293750Y-148895000D01*
G75*
G02*
X40975000Y-148576250I0J318750D01*
G01*
X40975000Y-147938750D01*
G75*
G02*
X41293750Y-147620000I318750J0D01*
G01*
X42256250Y-147620000D01*
G75*
G02*
X42575000Y-147938750I0J-318750D01*
G01*
X42575000Y-148576250D01*
G75*
G02*
X42256250Y-148895000I-318750J0D01*
G01*
G37*
G36*
G01*
X42256250Y-151020000D02*
X41293750Y-151020000D01*
G75*
G02*
X40975000Y-150701250I0J318750D01*
G01*
X40975000Y-150063750D01*
G75*
G02*
X41293750Y-149745000I318750J0D01*
G01*
X42256250Y-149745000D01*
G75*
G02*
X42575000Y-150063750I0J-318750D01*
G01*
X42575000Y-150701250D01*
G75*
G02*
X42256250Y-151020000I-318750J0D01*
G01*
G37*
%TD*%
D17*
%TO.C,JP1*%
X22410000Y-57490000D03*
G36*
G01*
X24100000Y-56440000D02*
X25800000Y-56440000D01*
G75*
G02*
X26000000Y-56640000I0J-200000D01*
G01*
X26000000Y-58340000D01*
G75*
G02*
X25800000Y-58540000I-200000J0D01*
G01*
X24100000Y-58540000D01*
G75*
G02*
X23900000Y-58340000I0J200000D01*
G01*
X23900000Y-56640000D01*
G75*
G02*
X24100000Y-56440000I200000J0D01*
G01*
G37*
%TD*%
D18*
%TO.C,J1*%
X44795000Y-158000000D03*
X35795000Y-158000000D03*
G36*
G01*
X42745000Y-155146666D02*
X42745000Y-156933334D01*
G75*
G02*
X42428334Y-157250000I-316666J0D01*
G01*
X41161666Y-157250000D01*
G75*
G02*
X40845000Y-156933334I0J316666D01*
G01*
X40845000Y-155146666D01*
G75*
G02*
X41161666Y-154830000I316666J0D01*
G01*
X42428334Y-154830000D01*
G75*
G02*
X42745000Y-155146666I0J-316666D01*
G01*
G37*
D19*
X38795000Y-156040000D03*
%TD*%
%TO.C,C3*%
G36*
G01*
X54570000Y-62380000D02*
X54570000Y-61230000D01*
G75*
G02*
X54920000Y-60880000I350000J0D01*
G01*
X55620000Y-60880000D01*
G75*
G02*
X55970000Y-61230000I0J-350000D01*
G01*
X55970000Y-62380000D01*
G75*
G02*
X55620000Y-62730000I-350000J0D01*
G01*
X54920000Y-62730000D01*
G75*
G02*
X54570000Y-62380000I0J350000D01*
G01*
G37*
G36*
G01*
X52670000Y-62380000D02*
X52670000Y-61230000D01*
G75*
G02*
X53020000Y-60880000I350000J0D01*
G01*
X53720000Y-60880000D01*
G75*
G02*
X54070000Y-61230000I0J-350000D01*
G01*
X54070000Y-62380000D01*
G75*
G02*
X53720000Y-62730000I-350000J0D01*
G01*
X53020000Y-62730000D01*
G75*
G02*
X52670000Y-62380000I0J350000D01*
G01*
G37*
%TD*%
D20*
%TO.C,Q1*%
X75750000Y-38925000D03*
X75750000Y-44375000D03*
G36*
G01*
X78000000Y-51275000D02*
X73500000Y-51275000D01*
G75*
G02*
X73300000Y-51075000I0J200000D01*
G01*
X73300000Y-48575000D01*
G75*
G02*
X73500000Y-48375000I200000J0D01*
G01*
X78000000Y-48375000D01*
G75*
G02*
X78200000Y-48575000I0J-200000D01*
G01*
X78200000Y-51075000D01*
G75*
G02*
X78000000Y-51275000I-200000J0D01*
G01*
G37*
%TD*%
%TO.C,R23*%
G36*
G01*
X75600000Y-119342559D02*
X75600000Y-120447441D01*
G75*
G02*
X75252441Y-120795000I-347559J0D01*
G01*
X74522559Y-120795000D01*
G75*
G02*
X74175000Y-120447441I0J347559D01*
G01*
X74175000Y-119342559D01*
G75*
G02*
X74522559Y-118995000I347559J0D01*
G01*
X75252441Y-118995000D01*
G75*
G02*
X75600000Y-119342559I0J-347559D01*
G01*
G37*
G36*
G01*
X77425000Y-119342559D02*
X77425000Y-120447441D01*
G75*
G02*
X77077441Y-120795000I-347559J0D01*
G01*
X76347559Y-120795000D01*
G75*
G02*
X76000000Y-120447441I0J347559D01*
G01*
X76000000Y-119342559D01*
G75*
G02*
X76347559Y-118995000I347559J0D01*
G01*
X77077441Y-118995000D01*
G75*
G02*
X77425000Y-119342559I0J-347559D01*
G01*
G37*
%TD*%
%TO.C,Q2*%
X67960000Y-49825000D03*
X67960000Y-44375000D03*
G36*
G01*
X65710000Y-37475000D02*
X70210000Y-37475000D01*
G75*
G02*
X70410000Y-37675000I0J-200000D01*
G01*
X70410000Y-40175000D01*
G75*
G02*
X70210000Y-40375000I-200000J0D01*
G01*
X65710000Y-40375000D01*
G75*
G02*
X65510000Y-40175000I0J200000D01*
G01*
X65510000Y-37675000D01*
G75*
G02*
X65710000Y-37475000I200000J0D01*
G01*
G37*
%TD*%
D11*
%TO.C,D5*%
X92444000Y-85568000D03*
G36*
G01*
X86164000Y-86568000D02*
X86164000Y-84568000D01*
G75*
G02*
X86364000Y-84368000I200000J0D01*
G01*
X88364000Y-84368000D01*
G75*
G02*
X88564000Y-84568000I0J-200000D01*
G01*
X88564000Y-86568000D01*
G75*
G02*
X88364000Y-86768000I-200000J0D01*
G01*
X86364000Y-86768000D01*
G75*
G02*
X86164000Y-86568000I0J200000D01*
G01*
G37*
%TD*%
D13*
%TO.C,HS1*%
X102604000Y-80996000D03*
X77204000Y-80996000D03*
%TD*%
D11*
%TO.C,D6*%
X87364000Y-76424000D03*
G36*
G01*
X93644000Y-75424000D02*
X93644000Y-77424000D01*
G75*
G02*
X93444000Y-77624000I-200000J0D01*
G01*
X91444000Y-77624000D01*
G75*
G02*
X91244000Y-77424000I0J200000D01*
G01*
X91244000Y-75424000D01*
G75*
G02*
X91444000Y-75224000I200000J0D01*
G01*
X93444000Y-75224000D01*
G75*
G02*
X93644000Y-75424000I0J-200000D01*
G01*
G37*
%TD*%
D18*
%TO.C,J4*%
X20825000Y-48920000D03*
X35825000Y-48920000D03*
G36*
G01*
X22875000Y-51773334D02*
X22875000Y-49986666D01*
G75*
G02*
X23191666Y-49670000I316666J0D01*
G01*
X24458334Y-49670000D01*
G75*
G02*
X24775000Y-49986666I0J-316666D01*
G01*
X24775000Y-51773334D01*
G75*
G02*
X24458334Y-52090000I-316666J0D01*
G01*
X23191666Y-52090000D01*
G75*
G02*
X22875000Y-51773334I0J316666D01*
G01*
G37*
D19*
X26825000Y-50880000D03*
X29825000Y-50880000D03*
X32825000Y-50880000D03*
%TD*%
%TO.C,C16*%
G36*
G01*
X75705000Y-115855000D02*
X74555000Y-115855000D01*
G75*
G02*
X74205000Y-115505000I0J350000D01*
G01*
X74205000Y-114805000D01*
G75*
G02*
X74555000Y-114455000I350000J0D01*
G01*
X75705000Y-114455000D01*
G75*
G02*
X76055000Y-114805000I0J-350000D01*
G01*
X76055000Y-115505000D01*
G75*
G02*
X75705000Y-115855000I-350000J0D01*
G01*
G37*
G36*
G01*
X75705000Y-117755000D02*
X74555000Y-117755000D01*
G75*
G02*
X74205000Y-117405000I0J350000D01*
G01*
X74205000Y-116705000D01*
G75*
G02*
X74555000Y-116355000I350000J0D01*
G01*
X75705000Y-116355000D01*
G75*
G02*
X76055000Y-116705000I0J-350000D01*
G01*
X76055000Y-117405000D01*
G75*
G02*
X75705000Y-117755000I-350000J0D01*
G01*
G37*
%TD*%
%TO.C,D14*%
G36*
G01*
X64040000Y-115885000D02*
X62940000Y-115885000D01*
G75*
G02*
X62740000Y-115685000I0J200000D01*
G01*
X62740000Y-114585000D01*
G75*
G02*
X62940000Y-114385000I200000J0D01*
G01*
X64040000Y-114385000D01*
G75*
G02*
X64240000Y-114585000I0J-200000D01*
G01*
X64240000Y-115685000D01*
G75*
G02*
X64040000Y-115885000I-200000J0D01*
G01*
G37*
G36*
G01*
X64040000Y-118685000D02*
X62940000Y-118685000D01*
G75*
G02*
X62740000Y-118485000I0J200000D01*
G01*
X62740000Y-117385000D01*
G75*
G02*
X62940000Y-117185000I200000J0D01*
G01*
X64040000Y-117185000D01*
G75*
G02*
X64240000Y-117385000I0J-200000D01*
G01*
X64240000Y-118485000D01*
G75*
G02*
X64040000Y-118685000I-200000J0D01*
G01*
G37*
%TD*%
%TO.C,C15*%
G36*
G01*
X76335000Y-97975000D02*
X75185000Y-97975000D01*
G75*
G02*
X74835000Y-97625000I0J350000D01*
G01*
X74835000Y-96925000D01*
G75*
G02*
X75185000Y-96575000I350000J0D01*
G01*
X76335000Y-96575000D01*
G75*
G02*
X76685000Y-96925000I0J-350000D01*
G01*
X76685000Y-97625000D01*
G75*
G02*
X76335000Y-97975000I-350000J0D01*
G01*
G37*
G36*
G01*
X76335000Y-99875000D02*
X75185000Y-99875000D01*
G75*
G02*
X74835000Y-99525000I0J350000D01*
G01*
X74835000Y-98825000D01*
G75*
G02*
X75185000Y-98475000I350000J0D01*
G01*
X76335000Y-98475000D01*
G75*
G02*
X76685000Y-98825000I0J-350000D01*
G01*
X76685000Y-99525000D01*
G75*
G02*
X76335000Y-99875000I-350000J0D01*
G01*
G37*
%TD*%
%TO.C,R20*%
G36*
G01*
X76230000Y-101422559D02*
X76230000Y-102527441D01*
G75*
G02*
X75882441Y-102875000I-347559J0D01*
G01*
X75152559Y-102875000D01*
G75*
G02*
X74805000Y-102527441I0J347559D01*
G01*
X74805000Y-101422559D01*
G75*
G02*
X75152559Y-101075000I347559J0D01*
G01*
X75882441Y-101075000D01*
G75*
G02*
X76230000Y-101422559I0J-347559D01*
G01*
G37*
G36*
G01*
X78055000Y-101422559D02*
X78055000Y-102527441D01*
G75*
G02*
X77707441Y-102875000I-347559J0D01*
G01*
X76977559Y-102875000D01*
G75*
G02*
X76630000Y-102527441I0J347559D01*
G01*
X76630000Y-101422559D01*
G75*
G02*
X76977559Y-101075000I347559J0D01*
G01*
X77707441Y-101075000D01*
G75*
G02*
X78055000Y-101422559I0J-347559D01*
G01*
G37*
%TD*%
D18*
%TO.C,J5*%
X20825000Y-41080000D03*
X35825000Y-41080000D03*
G36*
G01*
X22875000Y-43933334D02*
X22875000Y-42146666D01*
G75*
G02*
X23191666Y-41830000I316666J0D01*
G01*
X24458334Y-41830000D01*
G75*
G02*
X24775000Y-42146666I0J-316666D01*
G01*
X24775000Y-43933334D01*
G75*
G02*
X24458334Y-44250000I-316666J0D01*
G01*
X23191666Y-44250000D01*
G75*
G02*
X22875000Y-43933334I0J316666D01*
G01*
G37*
D19*
X26825000Y-43040000D03*
X29825000Y-43040000D03*
X32825000Y-43040000D03*
%TD*%
%TO.C,D12*%
G36*
G01*
X64760000Y-98025000D02*
X63660000Y-98025000D01*
G75*
G02*
X63460000Y-97825000I0J200000D01*
G01*
X63460000Y-96725000D01*
G75*
G02*
X63660000Y-96525000I200000J0D01*
G01*
X64760000Y-96525000D01*
G75*
G02*
X64960000Y-96725000I0J-200000D01*
G01*
X64960000Y-97825000D01*
G75*
G02*
X64760000Y-98025000I-200000J0D01*
G01*
G37*
G36*
G01*
X64760000Y-100825000D02*
X63660000Y-100825000D01*
G75*
G02*
X63460000Y-100625000I0J200000D01*
G01*
X63460000Y-99525000D01*
G75*
G02*
X63660000Y-99325000I200000J0D01*
G01*
X64760000Y-99325000D01*
G75*
G02*
X64960000Y-99525000I0J-200000D01*
G01*
X64960000Y-100625000D01*
G75*
G02*
X64760000Y-100825000I-200000J0D01*
G01*
G37*
%TD*%
%TO.C,D13*%
G36*
G01*
X67550000Y-115935000D02*
X66450000Y-115935000D01*
G75*
G02*
X66250000Y-115735000I0J200000D01*
G01*
X66250000Y-114635000D01*
G75*
G02*
X66450000Y-114435000I200000J0D01*
G01*
X67550000Y-114435000D01*
G75*
G02*
X67750000Y-114635000I0J-200000D01*
G01*
X67750000Y-115735000D01*
G75*
G02*
X67550000Y-115935000I-200000J0D01*
G01*
G37*
G36*
G01*
X67550000Y-118735000D02*
X66450000Y-118735000D01*
G75*
G02*
X66250000Y-118535000I0J200000D01*
G01*
X66250000Y-117435000D01*
G75*
G02*
X66450000Y-117235000I200000J0D01*
G01*
X67550000Y-117235000D01*
G75*
G02*
X67750000Y-117435000I0J-200000D01*
G01*
X67750000Y-118535000D01*
G75*
G02*
X67550000Y-118735000I-200000J0D01*
G01*
G37*
%TD*%
%TO.C,U6*%
G36*
G01*
X73590000Y-101800000D02*
X73590000Y-102450000D01*
G75*
G02*
X73390000Y-102650000I-200000J0D01*
G01*
X72330000Y-102650000D01*
G75*
G02*
X72130000Y-102450000I0J200000D01*
G01*
X72130000Y-101800000D01*
G75*
G02*
X72330000Y-101600000I200000J0D01*
G01*
X73390000Y-101600000D01*
G75*
G02*
X73590000Y-101800000I0J-200000D01*
G01*
G37*
G36*
G01*
X73590000Y-100850000D02*
X73590000Y-101500000D01*
G75*
G02*
X73390000Y-101700000I-200000J0D01*
G01*
X72330000Y-101700000D01*
G75*
G02*
X72130000Y-101500000I0J200000D01*
G01*
X72130000Y-100850000D01*
G75*
G02*
X72330000Y-100650000I200000J0D01*
G01*
X73390000Y-100650000D01*
G75*
G02*
X73590000Y-100850000I0J-200000D01*
G01*
G37*
G36*
G01*
X73590000Y-99900000D02*
X73590000Y-100550000D01*
G75*
G02*
X73390000Y-100750000I-200000J0D01*
G01*
X72330000Y-100750000D01*
G75*
G02*
X72130000Y-100550000I0J200000D01*
G01*
X72130000Y-99900000D01*
G75*
G02*
X72330000Y-99700000I200000J0D01*
G01*
X73390000Y-99700000D01*
G75*
G02*
X73590000Y-99900000I0J-200000D01*
G01*
G37*
G36*
G01*
X71390000Y-99900000D02*
X71390000Y-100550000D01*
G75*
G02*
X71190000Y-100750000I-200000J0D01*
G01*
X70130000Y-100750000D01*
G75*
G02*
X69930000Y-100550000I0J200000D01*
G01*
X69930000Y-99900000D01*
G75*
G02*
X70130000Y-99700000I200000J0D01*
G01*
X71190000Y-99700000D01*
G75*
G02*
X71390000Y-99900000I0J-200000D01*
G01*
G37*
G36*
G01*
X71390000Y-101800000D02*
X71390000Y-102450000D01*
G75*
G02*
X71190000Y-102650000I-200000J0D01*
G01*
X70130000Y-102650000D01*
G75*
G02*
X69930000Y-102450000I0J200000D01*
G01*
X69930000Y-101800000D01*
G75*
G02*
X70130000Y-101600000I200000J0D01*
G01*
X71190000Y-101600000D01*
G75*
G02*
X71390000Y-101800000I0J-200000D01*
G01*
G37*
G36*
G01*
X71390000Y-100850000D02*
X71390000Y-101500000D01*
G75*
G02*
X71190000Y-101700000I-200000J0D01*
G01*
X70130000Y-101700000D01*
G75*
G02*
X69930000Y-101500000I0J200000D01*
G01*
X69930000Y-100850000D01*
G75*
G02*
X70130000Y-100650000I200000J0D01*
G01*
X71190000Y-100650000D01*
G75*
G02*
X71390000Y-100850000I0J-200000D01*
G01*
G37*
%TD*%
%TO.C,U7*%
G36*
G01*
X73000000Y-119640000D02*
X73000000Y-120290000D01*
G75*
G02*
X72800000Y-120490000I-200000J0D01*
G01*
X71740000Y-120490000D01*
G75*
G02*
X71540000Y-120290000I0J200000D01*
G01*
X71540000Y-119640000D01*
G75*
G02*
X71740000Y-119440000I200000J0D01*
G01*
X72800000Y-119440000D01*
G75*
G02*
X73000000Y-119640000I0J-200000D01*
G01*
G37*
G36*
G01*
X73000000Y-118690000D02*
X73000000Y-119340000D01*
G75*
G02*
X72800000Y-119540000I-200000J0D01*
G01*
X71740000Y-119540000D01*
G75*
G02*
X71540000Y-119340000I0J200000D01*
G01*
X71540000Y-118690000D01*
G75*
G02*
X71740000Y-118490000I200000J0D01*
G01*
X72800000Y-118490000D01*
G75*
G02*
X73000000Y-118690000I0J-200000D01*
G01*
G37*
G36*
G01*
X73000000Y-117740000D02*
X73000000Y-118390000D01*
G75*
G02*
X72800000Y-118590000I-200000J0D01*
G01*
X71740000Y-118590000D01*
G75*
G02*
X71540000Y-118390000I0J200000D01*
G01*
X71540000Y-117740000D01*
G75*
G02*
X71740000Y-117540000I200000J0D01*
G01*
X72800000Y-117540000D01*
G75*
G02*
X73000000Y-117740000I0J-200000D01*
G01*
G37*
G36*
G01*
X70800000Y-117740000D02*
X70800000Y-118390000D01*
G75*
G02*
X70600000Y-118590000I-200000J0D01*
G01*
X69540000Y-118590000D01*
G75*
G02*
X69340000Y-118390000I0J200000D01*
G01*
X69340000Y-117740000D01*
G75*
G02*
X69540000Y-117540000I200000J0D01*
G01*
X70600000Y-117540000D01*
G75*
G02*
X70800000Y-117740000I0J-200000D01*
G01*
G37*
G36*
G01*
X70800000Y-119640000D02*
X70800000Y-120290000D01*
G75*
G02*
X70600000Y-120490000I-200000J0D01*
G01*
X69540000Y-120490000D01*
G75*
G02*
X69340000Y-120290000I0J200000D01*
G01*
X69340000Y-119640000D01*
G75*
G02*
X69540000Y-119440000I200000J0D01*
G01*
X70600000Y-119440000D01*
G75*
G02*
X70800000Y-119640000I0J-200000D01*
G01*
G37*
G36*
G01*
X70800000Y-118690000D02*
X70800000Y-119340000D01*
G75*
G02*
X70600000Y-119540000I-200000J0D01*
G01*
X69540000Y-119540000D01*
G75*
G02*
X69340000Y-119340000I0J200000D01*
G01*
X69340000Y-118690000D01*
G75*
G02*
X69540000Y-118490000I200000J0D01*
G01*
X70600000Y-118490000D01*
G75*
G02*
X70800000Y-118690000I0J-200000D01*
G01*
G37*
%TD*%
%TO.C,D11*%
G36*
G01*
X68170000Y-98065000D02*
X67070000Y-98065000D01*
G75*
G02*
X66870000Y-97865000I0J200000D01*
G01*
X66870000Y-96765000D01*
G75*
G02*
X67070000Y-96565000I200000J0D01*
G01*
X68170000Y-96565000D01*
G75*
G02*
X68370000Y-96765000I0J-200000D01*
G01*
X68370000Y-97865000D01*
G75*
G02*
X68170000Y-98065000I-200000J0D01*
G01*
G37*
G36*
G01*
X68170000Y-100865000D02*
X67070000Y-100865000D01*
G75*
G02*
X66870000Y-100665000I0J200000D01*
G01*
X66870000Y-99565000D01*
G75*
G02*
X67070000Y-99365000I200000J0D01*
G01*
X68170000Y-99365000D01*
G75*
G02*
X68370000Y-99565000I0J-200000D01*
G01*
X68370000Y-100665000D01*
G75*
G02*
X68170000Y-100865000I-200000J0D01*
G01*
G37*
%TD*%
D12*
%TO.C,TP20*%
X75750000Y-124205000D03*
%TD*%
D21*
%TO.C,L2*%
X137760000Y-70255000D03*
X115960000Y-70255000D03*
%TD*%
D14*
%TO.C,H1*%
X137520000Y-157565000D03*
%TD*%
D22*
%TO.C,J3*%
X74535000Y-143660000D03*
X82155000Y-143660000D03*
X74535000Y-148740000D03*
X74535000Y-151280000D03*
X82155000Y-148740000D03*
X82155000Y-151280000D03*
D14*
X66475000Y-154080000D03*
X90215000Y-154080000D03*
%TD*%
D22*
%TO.C,J2*%
X111990000Y-143665000D03*
X119610000Y-143665000D03*
X111990000Y-148745000D03*
X111990000Y-151285000D03*
X119610000Y-148745000D03*
X119610000Y-151285000D03*
D14*
X103930000Y-154085000D03*
X127670000Y-154085000D03*
%TD*%
%TO.C,U1*%
G36*
G01*
X54545000Y-89135000D02*
X54545000Y-87605000D01*
G75*
G02*
X54745000Y-87405000I200000J0D01*
G01*
X56275000Y-87405000D01*
G75*
G02*
X56475000Y-87605000I0J-200000D01*
G01*
X56475000Y-89135000D01*
G75*
G02*
X56275000Y-89335000I-200000J0D01*
G01*
X54745000Y-89335000D01*
G75*
G02*
X54545000Y-89135000I0J200000D01*
G01*
G37*
D23*
X55510000Y-90910000D03*
X55510000Y-93450000D03*
X55510000Y-95990000D03*
X55510000Y-98530000D03*
X55510000Y-101070000D03*
X55510000Y-103610000D03*
X55510000Y-106150000D03*
X55510000Y-108690000D03*
X55510000Y-111230000D03*
X55510000Y-113770000D03*
X55510000Y-116310000D03*
X55510000Y-118850000D03*
X55510000Y-121390000D03*
X55510000Y-123930000D03*
G36*
G01*
X39305000Y-89135000D02*
X39305000Y-87605000D01*
G75*
G02*
X39505000Y-87405000I200000J0D01*
G01*
X41035000Y-87405000D01*
G75*
G02*
X41235000Y-87605000I0J-200000D01*
G01*
X41235000Y-89135000D01*
G75*
G02*
X41035000Y-89335000I-200000J0D01*
G01*
X39505000Y-89335000D01*
G75*
G02*
X39305000Y-89135000I0J200000D01*
G01*
G37*
X40270000Y-90910000D03*
X40270000Y-93450000D03*
X40270000Y-95990000D03*
X40270000Y-98530000D03*
X40270000Y-101070000D03*
X40270000Y-103610000D03*
X40270000Y-106150000D03*
X40270000Y-108690000D03*
X40270000Y-111230000D03*
X40270000Y-113770000D03*
X40270000Y-116310000D03*
X40270000Y-118850000D03*
X40270000Y-121390000D03*
X40270000Y-123930000D03*
%TD*%
D13*
%TO.C,HS3*%
X71899000Y-31719000D03*
X71899000Y-57119000D03*
%TD*%
D24*
%TO.C,F2*%
X87765000Y-134480000D03*
X63665000Y-134480000D03*
%TD*%
%TO.C,F1*%
X101140000Y-134445000D03*
X125240000Y-134445000D03*
%TD*%
D11*
%TO.C,D4*%
X95210000Y-47055000D03*
G36*
G01*
X94210000Y-40775000D02*
X96210000Y-40775000D01*
G75*
G02*
X96410000Y-40975000I0J-200000D01*
G01*
X96410000Y-42975000D01*
G75*
G02*
X96210000Y-43175000I-200000J0D01*
G01*
X94210000Y-43175000D01*
G75*
G02*
X94010000Y-42975000I0J200000D01*
G01*
X94010000Y-40975000D01*
G75*
G02*
X94210000Y-40775000I200000J0D01*
G01*
G37*
%TD*%
D13*
%TO.C,C10*%
X96770000Y-111655000D03*
G36*
G01*
X84570000Y-113655000D02*
X84570000Y-109655000D01*
G75*
G02*
X84770000Y-109455000I200000J0D01*
G01*
X88770000Y-109455000D01*
G75*
G02*
X88970000Y-109655000I0J-200000D01*
G01*
X88970000Y-113655000D01*
G75*
G02*
X88770000Y-113855000I-200000J0D01*
G01*
X84770000Y-113855000D01*
G75*
G02*
X84570000Y-113655000I0J200000D01*
G01*
G37*
%TD*%
%TO.C,C8*%
X119850000Y-111605000D03*
G36*
G01*
X132050000Y-109605000D02*
X132050000Y-113605000D01*
G75*
G02*
X131850000Y-113805000I-200000J0D01*
G01*
X127850000Y-113805000D01*
G75*
G02*
X127650000Y-113605000I0J200000D01*
G01*
X127650000Y-109605000D01*
G75*
G02*
X127850000Y-109405000I200000J0D01*
G01*
X131850000Y-109405000D01*
G75*
G02*
X132050000Y-109605000I0J-200000D01*
G01*
G37*
%TD*%
M02*
