%TF.GenerationSoftware,KiCad,Pcbnew,5.1.6-c6e7f7d~87~ubuntu18.04.1*%
%TF.CreationDate,2020-09-05T21:12:04-05:00*%
%TF.ProjectId,MPPT,4d505054-2e6b-4696-9361-645f70636258,Rev1.2+*%
%TF.SameCoordinates,Original*%
%TF.FileFunction,Soldermask,Top*%
%TF.FilePolarity,Negative*%
%FSLAX46Y46*%
G04 Gerber Fmt 4.6, Leading zero omitted, Abs format (unit mm)*
G04 Created by KiCad (PCBNEW 5.1.6-c6e7f7d~87~ubuntu18.04.1) date 2020-09-05 21:12:04*
%MOMM*%
%LPD*%
G01*
G04 APERTURE LIST*
%ADD10C,4.400000*%
%ADD11R,1.000000X1.650000*%
%ADD12R,4.400000X4.400000*%
%ADD13R,1.300000X1.600000*%
%ADD14R,1.650000X1.900000*%
%ADD15R,2.400000X2.400000*%
%ADD16C,2.400000*%
%ADD17R,1.650000X1.400000*%
%ADD18R,1.400000X1.650000*%
%ADD19R,1.900000X1.650000*%
%ADD20R,2.200000X2.200000*%
%ADD21O,2.200000X2.200000*%
%ADD22R,2.200000X3.900000*%
%ADD23R,1.500000X1.500000*%
%ADD24R,2.100000X2.100000*%
%ADD25O,2.100000X2.100000*%
%ADD26C,4.200000*%
%ADD27R,1.700000X1.900000*%
%ADD28R,1.900000X1.700000*%
%ADD29C,2.800000*%
%ADD30O,2.800000X2.800000*%
%ADD31R,2.100000X2.400000*%
%ADD32R,2.000000X2.000000*%
%ADD33O,2.000000X2.000000*%
%ADD34C,3.200000*%
%ADD35O,2.150000X2.400000*%
%ADD36R,1.924000X1.924000*%
%ADD37C,1.924000*%
%ADD38R,2.350000X1.000000*%
%ADD39R,2.400000X1.100000*%
%ADD40C,2.686000*%
%ADD41R,4.900000X2.900000*%
%ADD42O,4.900000X2.900000*%
%ADD43R,1.000000X1.950000*%
%ADD44C,3.600000*%
%ADD45C,2.100000*%
%ADD46C,1.670000*%
%ADD47R,3.900000X2.000000*%
G04 APERTURE END LIST*
D10*
%TO.C,HS2*%
X124850000Y-46315000D03*
X150250000Y-46315000D03*
%TD*%
%TO.C,HS1*%
X169350000Y-46615000D03*
X194750000Y-46615000D03*
%TD*%
%TO.C,HS3*%
X145250000Y-97515000D03*
X145250000Y-72115000D03*
%TD*%
D11*
%TO.C,U8*%
X82700000Y-108065000D03*
X81750000Y-108065000D03*
X80800000Y-108065000D03*
X80800000Y-105565000D03*
X81750000Y-105565000D03*
X82700000Y-105565000D03*
%TD*%
%TO.C,U9*%
X80700000Y-110865000D03*
X81650000Y-110865000D03*
X82600000Y-110865000D03*
X82600000Y-113365000D03*
X81650000Y-113365000D03*
X80700000Y-113365000D03*
%TD*%
D12*
%TO.C,C2*%
X100330000Y-52070000D03*
D10*
X100330000Y-43070000D03*
%TD*%
D13*
%TO.C,D10*%
X163196000Y-104775000D03*
X166496000Y-104775000D03*
%TD*%
D12*
%TO.C,C1*%
X88265000Y-77470000D03*
D10*
X88265000Y-86470000D03*
%TD*%
D14*
%TO.C,C6*%
X160274000Y-104501000D03*
X160274000Y-102001000D03*
%TD*%
D15*
%TO.C,C7*%
X175006000Y-100711000D03*
D16*
X175006000Y-95711000D03*
%TD*%
D14*
%TO.C,C8*%
X167894000Y-97897000D03*
X167894000Y-95397000D03*
%TD*%
D17*
%TO.C,C13*%
X124460000Y-125460000D03*
X124460000Y-123460000D03*
%TD*%
%TO.C,C14*%
X122555000Y-125460000D03*
X122555000Y-123460000D03*
%TD*%
D18*
%TO.C,C15*%
X123555000Y-129540000D03*
X121555000Y-129540000D03*
%TD*%
%TO.C,C16*%
X123555000Y-127635000D03*
X121555000Y-127635000D03*
%TD*%
D19*
%TO.C,C21*%
X95230000Y-109220000D03*
X92730000Y-109220000D03*
%TD*%
%TO.C,C22*%
X102215000Y-109220000D03*
X99715000Y-109220000D03*
%TD*%
D14*
%TO.C,C23*%
X62230000Y-134005000D03*
X62230000Y-136505000D03*
%TD*%
D20*
%TO.C,D2*%
X135255000Y-50165000D03*
D21*
X140335000Y-50165000D03*
%TD*%
D20*
%TO.C,D3*%
X140335000Y-42545000D03*
D21*
X135255000Y-42545000D03*
%TD*%
D22*
%TO.C,D4*%
X159385000Y-90286000D03*
X159385000Y-85286000D03*
%TD*%
D23*
%TO.C,D5*%
X74410000Y-113765000D03*
X77210000Y-113765000D03*
%TD*%
D13*
%TO.C,D6*%
X74160000Y-111860000D03*
X77460000Y-111860000D03*
%TD*%
D23*
%TO.C,D7*%
X88395000Y-113665000D03*
X85595000Y-113665000D03*
%TD*%
D13*
%TO.C,D8*%
X88645000Y-111760000D03*
X85345000Y-111760000D03*
%TD*%
D23*
%TO.C,D9*%
X163446000Y-107315000D03*
X166246000Y-107315000D03*
%TD*%
D24*
%TO.C,JP1*%
X151765000Y-121920000D03*
D25*
X154305000Y-121920000D03*
%TD*%
D26*
%TO.C,L1*%
X108585000Y-84836000D03*
X130385000Y-84836000D03*
%TD*%
D27*
%TO.C,L4*%
X48895000Y-129460000D03*
X48895000Y-132160000D03*
%TD*%
%TO.C,LED1*%
X53340000Y-90250000D03*
X53340000Y-87550000D03*
%TD*%
%TO.C,LED2*%
X65405000Y-47545000D03*
X65405000Y-50245000D03*
%TD*%
D28*
%TO.C,LED3*%
X45005000Y-121285000D03*
X47705000Y-121285000D03*
%TD*%
%TO.C,LED4*%
X109300000Y-137795000D03*
X106600000Y-137795000D03*
%TD*%
%TO.C,LED5*%
X109300000Y-140970000D03*
X106600000Y-140970000D03*
%TD*%
%TO.C,LED6*%
X109300000Y-144145000D03*
X106600000Y-144145000D03*
%TD*%
%TO.C,LED7*%
X57705000Y-125095000D03*
X60405000Y-125095000D03*
%TD*%
D27*
%TO.C,LED8*%
X120015000Y-114380000D03*
X120015000Y-111680000D03*
%TD*%
%TO.C,LED9*%
X127635000Y-114380000D03*
X127635000Y-111680000D03*
%TD*%
D29*
%TO.C,R1*%
X163830000Y-64135000D03*
D30*
X186230000Y-64135000D03*
%TD*%
D31*
%TO.C,R2*%
X156210000Y-90286000D03*
X156210000Y-86286000D03*
%TD*%
%TO.C,R3*%
X60960000Y-81185000D03*
X60960000Y-85185000D03*
%TD*%
%TO.C,R4*%
X72390000Y-61055000D03*
X72390000Y-57055000D03*
%TD*%
%TO.C,R5*%
X60960000Y-88170000D03*
X60960000Y-92170000D03*
%TD*%
%TO.C,R6*%
X72390000Y-54070000D03*
X72390000Y-50070000D03*
%TD*%
%TO.C,R7*%
X163830000Y-89059000D03*
X163830000Y-93059000D03*
%TD*%
D27*
%TO.C,R9*%
X151765000Y-125015000D03*
X151765000Y-127715000D03*
%TD*%
%TO.C,R10*%
X154305000Y-125015000D03*
X154305000Y-127715000D03*
%TD*%
D31*
%TO.C,R12*%
X53340000Y-85185000D03*
X53340000Y-81185000D03*
%TD*%
%TO.C,R13*%
X65405000Y-52610000D03*
X65405000Y-56610000D03*
%TD*%
D28*
%TO.C,R14*%
X47705000Y-118745000D03*
X45005000Y-118745000D03*
%TD*%
%TO.C,R15*%
X104220000Y-137795000D03*
X101520000Y-137795000D03*
%TD*%
%TO.C,R16*%
X104220000Y-140970000D03*
X101520000Y-140970000D03*
%TD*%
%TO.C,R17*%
X104220000Y-144145000D03*
X101520000Y-144145000D03*
%TD*%
%TO.C,R18*%
X92630000Y-106680000D03*
X95330000Y-106680000D03*
%TD*%
%TO.C,R19*%
X99615000Y-106680000D03*
X102315000Y-106680000D03*
%TD*%
%TO.C,R20*%
X60405000Y-122555000D03*
X57705000Y-122555000D03*
%TD*%
D27*
%TO.C,R21*%
X122555000Y-111680000D03*
X122555000Y-114380000D03*
%TD*%
%TO.C,R22*%
X125095000Y-111680000D03*
X125095000Y-114380000D03*
%TD*%
D16*
%TO.C,SW1*%
X75620000Y-143510000D03*
X71120000Y-143510000D03*
X75620000Y-137010000D03*
X71120000Y-137010000D03*
%TD*%
D32*
%TO.C,SW2*%
X87630000Y-144399000D03*
D33*
X95250000Y-136779000D03*
X90170000Y-144399000D03*
X92710000Y-136779000D03*
X92710000Y-144399000D03*
X90170000Y-136779000D03*
X95250000Y-144399000D03*
X87630000Y-136779000D03*
%TD*%
D34*
%TO.C,TP1*%
X54610000Y-72390000D03*
%TD*%
%TO.C,TP2*%
X54610000Y-100330000D03*
%TD*%
%TO.C,TP3*%
X193294000Y-70739000D03*
%TD*%
%TO.C,TP4*%
X193294000Y-75819000D03*
%TD*%
%TO.C,TP5*%
X57785000Y-118110000D03*
%TD*%
%TO.C,TP6*%
X63500000Y-118110000D03*
%TD*%
%TO.C,TP7*%
X77080000Y-102970000D03*
%TD*%
%TO.C,TP8*%
X88265000Y-102870000D03*
%TD*%
%TO.C,TP9*%
X95250000Y-102870000D03*
%TD*%
%TO.C,TP10*%
X102235000Y-102870000D03*
%TD*%
%TO.C,TP11*%
X176530000Y-106299000D03*
%TD*%
%TO.C,TP12*%
X168910000Y-89027000D03*
%TD*%
%TO.C,TP13*%
X136144000Y-116078000D03*
%TD*%
%TO.C,TP14*%
X135890000Y-139700000D03*
%TD*%
%TO.C,TP15*%
X140970000Y-139700000D03*
%TD*%
%TO.C,TP16*%
X141224000Y-116078000D03*
%TD*%
%TO.C,TP17*%
X34290000Y-117475000D03*
%TD*%
%TO.C,TP18*%
X34290000Y-123190000D03*
%TD*%
%TO.C,TP19*%
X121285000Y-118110000D03*
%TD*%
%TO.C,TP20*%
X126365000Y-118110000D03*
%TD*%
%TO.C,TP21*%
X151130000Y-139700000D03*
%TD*%
%TO.C,TP22*%
X156210000Y-139700000D03*
%TD*%
D35*
%TO.C,U1*%
X42545000Y-140335000D03*
X45085000Y-140335000D03*
X47625000Y-140335000D03*
X52705000Y-140335000D03*
X55245000Y-140335000D03*
X57785000Y-140335000D03*
X60325000Y-140335000D03*
%TD*%
D36*
%TO.C,U2*%
X74930000Y-133223000D03*
D37*
X77470000Y-133223000D03*
X80010000Y-133223000D03*
X82550000Y-133223000D03*
X85090000Y-133223000D03*
X87630000Y-133223000D03*
X90170000Y-133223000D03*
X92710000Y-133223000D03*
X95250000Y-133223000D03*
X97790000Y-133223000D03*
X100330000Y-133223000D03*
X102870000Y-133223000D03*
X105410000Y-133223000D03*
X107950000Y-133223000D03*
X110490000Y-133223000D03*
X110490000Y-117983000D03*
X107950000Y-117983000D03*
X105410000Y-117983000D03*
X102870000Y-117983000D03*
X100330000Y-117983000D03*
X97790000Y-117983000D03*
X95250000Y-117983000D03*
X92710000Y-117983000D03*
X90170000Y-117983000D03*
X87630000Y-117983000D03*
X85090000Y-117983000D03*
X82550000Y-117983000D03*
X80010000Y-117983000D03*
X77470000Y-117983000D03*
X74930000Y-117983000D03*
%TD*%
D38*
%TO.C,U5*%
X127380000Y-123190000D03*
X127380000Y-124460000D03*
X127380000Y-125730000D03*
X127380000Y-127000000D03*
X127380000Y-128270000D03*
X127380000Y-129540000D03*
X127380000Y-130810000D03*
X127380000Y-132080000D03*
X127380000Y-133350000D03*
X127380000Y-134620000D03*
X136780000Y-134620000D03*
X136780000Y-133350000D03*
X136780000Y-132080000D03*
X136780000Y-130810000D03*
X136780000Y-129540000D03*
X136780000Y-128270000D03*
X136780000Y-127000000D03*
X136780000Y-125730000D03*
X136780000Y-124460000D03*
X136780000Y-123190000D03*
%TD*%
D34*
%TO.C,TP23*%
X66040000Y-60960000D03*
%TD*%
%TO.C,TP24*%
X66040000Y-35560000D03*
%TD*%
D28*
%TO.C,R23*%
X77160000Y-106780000D03*
X74460000Y-106780000D03*
%TD*%
%TO.C,R24*%
X85645000Y-106680000D03*
X88345000Y-106680000D03*
%TD*%
D14*
%TO.C,C9*%
X140335000Y-125075000D03*
X140335000Y-122575000D03*
%TD*%
%TO.C,C10*%
X146685000Y-125075000D03*
X146685000Y-122575000D03*
%TD*%
%TO.C,C11*%
X142240000Y-127655000D03*
X142240000Y-130155000D03*
%TD*%
%TO.C,C12*%
X140335000Y-127655000D03*
X140335000Y-130155000D03*
%TD*%
D28*
%TO.C,L2*%
X144860000Y-125095000D03*
X142160000Y-125095000D03*
%TD*%
%TO.C,L3*%
X144860000Y-122555000D03*
X142160000Y-122555000D03*
%TD*%
D27*
%TO.C,R25*%
X140335000Y-132635000D03*
X140335000Y-135335000D03*
%TD*%
D39*
%TO.C,U7*%
X154510000Y-130495000D03*
X154510000Y-132395000D03*
X157910000Y-131445000D03*
%TD*%
D34*
%TO.C,TP25*%
X193294000Y-80899000D03*
%TD*%
%TO.C,TP26*%
X70730000Y-102970000D03*
%TD*%
%TO.C,TP27*%
X181102000Y-106299000D03*
%TD*%
%TO.C,TP28*%
X179070000Y-89027000D03*
%TD*%
D29*
%TO.C,C3*%
X186690000Y-76835000D03*
X164190000Y-76835000D03*
%TD*%
D20*
%TO.C,D1*%
X184658000Y-42799000D03*
D21*
X179578000Y-42799000D03*
%TD*%
D40*
%TO.C,F1*%
X57785000Y-65405000D03*
X57785000Y-41275000D03*
%TD*%
D41*
%TO.C,Q1*%
X149225000Y-90286000D03*
D42*
X149225000Y-84836000D03*
X149225000Y-79386000D03*
%TD*%
D41*
%TO.C,Q2*%
X141605000Y-79386000D03*
D42*
X141605000Y-84836000D03*
X141605000Y-90286000D03*
%TD*%
D43*
%TO.C,U3*%
X161925000Y-96487000D03*
X161925000Y-101887000D03*
X163195000Y-96487000D03*
X163195000Y-101887000D03*
X164465000Y-96487000D03*
X164465000Y-101887000D03*
X165735000Y-96487000D03*
X165735000Y-101887000D03*
%TD*%
D40*
%TO.C,J2*%
X48260000Y-43815000D03*
X48260000Y-51435000D03*
X43180000Y-43815000D03*
X40640000Y-43815000D03*
X43180000Y-51435000D03*
X40640000Y-51435000D03*
D44*
X37840000Y-35755000D03*
X37840000Y-59495000D03*
%TD*%
D40*
%TO.C,J1*%
X40640000Y-92710000D03*
X43180000Y-92710000D03*
X48260000Y-92710000D03*
X48260000Y-77470000D03*
X48260000Y-85090000D03*
X43180000Y-77470000D03*
X40640000Y-77470000D03*
X43180000Y-85090000D03*
X40640000Y-85090000D03*
D44*
X37840000Y-69410000D03*
X37840000Y-100770000D03*
%TD*%
D45*
%TO.C,J4*%
X173990000Y-132825000D03*
D46*
X175950000Y-135825000D03*
D45*
X173990000Y-123825000D03*
X173990000Y-126825000D03*
X173990000Y-129825000D03*
D46*
X175950000Y-120825000D03*
%TD*%
D45*
%TO.C,J5*%
X165100000Y-132825000D03*
D46*
X167060000Y-135825000D03*
D45*
X165100000Y-123825000D03*
X165100000Y-126825000D03*
X165100000Y-129825000D03*
D46*
X167060000Y-120825000D03*
%TD*%
D19*
%TO.C,C19*%
X74560000Y-109320000D03*
X77060000Y-109320000D03*
%TD*%
%TO.C,C20*%
X88245000Y-109220000D03*
X85745000Y-109220000D03*
%TD*%
D23*
%TO.C,D11*%
X95380000Y-113665000D03*
X92580000Y-113665000D03*
%TD*%
D13*
%TO.C,D12*%
X95630000Y-111760000D03*
X92330000Y-111760000D03*
%TD*%
D23*
%TO.C,D13*%
X102365000Y-113665000D03*
X99565000Y-113665000D03*
%TD*%
D13*
%TO.C,D14*%
X102615000Y-111760000D03*
X99315000Y-111760000D03*
%TD*%
D46*
%TO.C,J3*%
X36250000Y-137445000D03*
D45*
X34290000Y-131445000D03*
X34290000Y-134445000D03*
D46*
X36250000Y-128445000D03*
%TD*%
D47*
%TO.C,C4*%
X45880000Y-133985000D03*
X40480000Y-133985000D03*
%TD*%
%TO.C,C5*%
X53180000Y-133985000D03*
X58580000Y-133985000D03*
%TD*%
%TO.C,C24*%
X45880000Y-127000000D03*
X40480000Y-127000000D03*
%TD*%
M02*
