%TF.GenerationSoftware,KiCad,Pcbnew,5.1.6-c6e7f7d~87~ubuntu18.04.1*%
%TF.CreationDate,2020-09-05T21:12:04-05:00*%
%TF.ProjectId,MPPT,4d505054-2e6b-4696-9361-645f70636258,Rev1.2+*%
%TF.SameCoordinates,Original*%
%TF.FileFunction,Copper,L1,Top*%
%TF.FilePolarity,Positive*%
%FSLAX46Y46*%
G04 Gerber Fmt 4.6, Leading zero omitted, Abs format (unit mm)*
G04 Created by KiCad (PCBNEW 5.1.6-c6e7f7d~87~ubuntu18.04.1) date 2020-09-05 21:12:04*
%MOMM*%
%LPD*%
G01*
G04 APERTURE LIST*
%TA.AperFunction,ComponentPad*%
%ADD10C,4.000000*%
%TD*%
%TA.AperFunction,SMDPad,CuDef*%
%ADD11R,0.600000X1.250000*%
%TD*%
%TA.AperFunction,ComponentPad*%
%ADD12R,4.000000X4.000000*%
%TD*%
%TA.AperFunction,SMDPad,CuDef*%
%ADD13R,0.900000X1.200000*%
%TD*%
%TA.AperFunction,SMDPad,CuDef*%
%ADD14R,1.250000X1.500000*%
%TD*%
%TA.AperFunction,ComponentPad*%
%ADD15R,2.000000X2.000000*%
%TD*%
%TA.AperFunction,ComponentPad*%
%ADD16C,2.000000*%
%TD*%
%TA.AperFunction,SMDPad,CuDef*%
%ADD17R,1.250000X1.000000*%
%TD*%
%TA.AperFunction,SMDPad,CuDef*%
%ADD18R,1.000000X1.250000*%
%TD*%
%TA.AperFunction,SMDPad,CuDef*%
%ADD19R,1.500000X1.250000*%
%TD*%
%TA.AperFunction,ComponentPad*%
%ADD20R,1.800000X1.800000*%
%TD*%
%TA.AperFunction,ComponentPad*%
%ADD21O,1.800000X1.800000*%
%TD*%
%TA.AperFunction,SMDPad,CuDef*%
%ADD22R,1.800000X3.500000*%
%TD*%
%TA.AperFunction,SMDPad,CuDef*%
%ADD23R,1.100000X1.100000*%
%TD*%
%TA.AperFunction,ComponentPad*%
%ADD24R,1.700000X1.700000*%
%TD*%
%TA.AperFunction,ComponentPad*%
%ADD25O,1.700000X1.700000*%
%TD*%
%TA.AperFunction,ComponentPad*%
%ADD26C,3.800000*%
%TD*%
%TA.AperFunction,SMDPad,CuDef*%
%ADD27R,1.300000X1.500000*%
%TD*%
%TA.AperFunction,SMDPad,CuDef*%
%ADD28R,1.500000X1.300000*%
%TD*%
%TA.AperFunction,ComponentPad*%
%ADD29C,2.400000*%
%TD*%
%TA.AperFunction,ComponentPad*%
%ADD30O,2.400000X2.400000*%
%TD*%
%TA.AperFunction,SMDPad,CuDef*%
%ADD31R,1.700000X2.000000*%
%TD*%
%TA.AperFunction,ComponentPad*%
%ADD32R,1.600000X1.600000*%
%TD*%
%TA.AperFunction,ComponentPad*%
%ADD33O,1.600000X1.600000*%
%TD*%
%TA.AperFunction,ComponentPad*%
%ADD34C,2.800000*%
%TD*%
%TA.AperFunction,ComponentPad*%
%ADD35O,1.750000X2.000000*%
%TD*%
%TA.AperFunction,ComponentPad*%
%ADD36R,1.524000X1.524000*%
%TD*%
%TA.AperFunction,ComponentPad*%
%ADD37C,1.524000*%
%TD*%
%TA.AperFunction,SMDPad,CuDef*%
%ADD38R,1.950000X0.600000*%
%TD*%
%TA.AperFunction,SMDPad,CuDef*%
%ADD39R,2.000000X0.700000*%
%TD*%
%TA.AperFunction,ComponentPad*%
%ADD40C,2.286000*%
%TD*%
%TA.AperFunction,ComponentPad*%
%ADD41R,4.500000X2.500000*%
%TD*%
%TA.AperFunction,ComponentPad*%
%ADD42O,4.500000X2.500000*%
%TD*%
%TA.AperFunction,SMDPad,CuDef*%
%ADD43R,0.600000X1.550000*%
%TD*%
%TA.AperFunction,ComponentPad*%
%ADD44C,1.700000*%
%TD*%
%TA.AperFunction,SMDPad,CuDef*%
%ADD45R,3.500000X1.600000*%
%TD*%
%TA.AperFunction,ViaPad*%
%ADD46C,0.600000*%
%TD*%
%TA.AperFunction,ViaPad*%
%ADD47C,0.700000*%
%TD*%
%TA.AperFunction,ViaPad*%
%ADD48C,1.300000*%
%TD*%
%TA.AperFunction,Conductor*%
%ADD49C,0.250000*%
%TD*%
%TA.AperFunction,Conductor*%
%ADD50C,0.500000*%
%TD*%
%TA.AperFunction,Conductor*%
%ADD51C,4.300000*%
%TD*%
%TA.AperFunction,Conductor*%
%ADD52C,1.000000*%
%TD*%
%TA.AperFunction,Conductor*%
%ADD53C,2.500000*%
%TD*%
G04 APERTURE END LIST*
D10*
%TO.P,HS2,1*%
%TO.N,N/C*%
X124850000Y-46315000D03*
X150250000Y-46315000D03*
%TD*%
%TO.P,HS1,1*%
%TO.N,N/C*%
X169350000Y-46615000D03*
X194750000Y-46615000D03*
%TD*%
%TO.P,HS3,1*%
%TO.N,N/C*%
X145250000Y-97515000D03*
X145250000Y-72115000D03*
%TD*%
D11*
%TO.P,U8,6*%
%TO.N,+3V3*%
X82700000Y-108065000D03*
%TO.P,U8,5*%
%TO.N,Net-(U8-Pad5)*%
X81750000Y-108065000D03*
%TO.P,U8,4*%
%TO.N,/Array_Voltage*%
X80800000Y-108065000D03*
%TO.P,U8,3*%
%TO.N,Net-(C19-Pad1)*%
X80800000Y-105565000D03*
%TO.P,U8,2*%
%TO.N,GNDPWR*%
X81750000Y-105565000D03*
%TO.P,U8,1*%
%TO.N,/Array_Voltage*%
X82700000Y-105565000D03*
%TD*%
%TO.P,U9,6*%
%TO.N,+3V3*%
X80700000Y-110865000D03*
%TO.P,U9,5*%
%TO.N,Net-(U9-Pad5)*%
X81650000Y-110865000D03*
%TO.P,U9,4*%
%TO.N,/Battery_Voltage*%
X82600000Y-110865000D03*
%TO.P,U9,3*%
%TO.N,Net-(C20-Pad1)*%
X82600000Y-113365000D03*
%TO.P,U9,2*%
%TO.N,GNDPWR*%
X81650000Y-113365000D03*
%TO.P,U9,1*%
%TO.N,/Battery_Voltage*%
X80700000Y-113365000D03*
%TD*%
D12*
%TO.P,C2,1*%
%TO.N,/+Batt*%
X100330000Y-52070000D03*
D10*
%TO.P,C2,2*%
%TO.N,GNDPWR*%
X100330000Y-43070000D03*
%TD*%
D13*
%TO.P,D10,1*%
%TO.N,/PWM*%
X163196000Y-104775000D03*
%TO.P,D10,2*%
%TO.N,GNDPWR*%
X166496000Y-104775000D03*
%TD*%
D12*
%TO.P,C1,1*%
%TO.N,/+Arr*%
X88265000Y-77470000D03*
D10*
%TO.P,C1,2*%
%TO.N,GNDPWR*%
X88265000Y-86470000D03*
%TD*%
D14*
%TO.P,C6,1*%
%TO.N,GNDPWR*%
X160274000Y-104501000D03*
%TO.P,C6,2*%
%TO.N,+9VA*%
X160274000Y-102001000D03*
%TD*%
D15*
%TO.P,C7,1*%
%TO.N,+9VA*%
X175006000Y-100711000D03*
D16*
%TO.P,C7,2*%
%TO.N,GNDPWR*%
X175006000Y-95711000D03*
%TD*%
D14*
%TO.P,C8,1*%
%TO.N,+9VA*%
X167894000Y-97897000D03*
%TO.P,C8,2*%
%TO.N,GNDPWR*%
X167894000Y-95397000D03*
%TD*%
D17*
%TO.P,C13,1*%
%TO.N,+5V*%
X124460000Y-125460000D03*
%TO.P,C13,2*%
%TO.N,GNDPWR*%
X124460000Y-123460000D03*
%TD*%
%TO.P,C14,1*%
%TO.N,+5V*%
X122555000Y-125460000D03*
%TO.P,C14,2*%
%TO.N,GNDPWR*%
X122555000Y-123460000D03*
%TD*%
D18*
%TO.P,C15,1*%
%TO.N,+3V3*%
X123555000Y-129540000D03*
%TO.P,C15,2*%
%TO.N,GNDPWR*%
X121555000Y-129540000D03*
%TD*%
%TO.P,C16,1*%
%TO.N,+3V3*%
X123555000Y-127635000D03*
%TO.P,C16,2*%
%TO.N,GNDPWR*%
X121555000Y-127635000D03*
%TD*%
D19*
%TO.P,C21,1*%
%TO.N,/Array_Current*%
X95230000Y-109220000D03*
%TO.P,C21,2*%
%TO.N,GNDPWR*%
X92730000Y-109220000D03*
%TD*%
%TO.P,C22,1*%
%TO.N,/Battery_Current*%
X102215000Y-109220000D03*
%TO.P,C22,2*%
%TO.N,GNDPWR*%
X99715000Y-109220000D03*
%TD*%
D14*
%TO.P,C23,1*%
%TO.N,GNDPWR*%
X62230000Y-134005000D03*
%TO.P,C23,2*%
%TO.N,Net-(C23-Pad2)*%
X62230000Y-136505000D03*
%TD*%
D20*
%TO.P,D2,1*%
%TO.N,/+Batt*%
X135255000Y-50165000D03*
D21*
%TO.P,D2,2*%
%TO.N,Net-(D1-Pad2)*%
X140335000Y-50165000D03*
%TD*%
D20*
%TO.P,D3,1*%
%TO.N,/+Batt*%
X140335000Y-42545000D03*
D21*
%TO.P,D3,2*%
%TO.N,Net-(D1-Pad2)*%
X135255000Y-42545000D03*
%TD*%
D22*
%TO.P,D4,1*%
%TO.N,/Drive_PWM*%
X159385000Y-90286000D03*
%TO.P,D4,2*%
%TO.N,GNDPWR*%
X159385000Y-85286000D03*
%TD*%
D23*
%TO.P,D5,2*%
%TO.N,GNDPWR*%
X74410000Y-113765000D03*
%TO.P,D5,1*%
%TO.N,/Array_Voltage*%
X77210000Y-113765000D03*
%TD*%
D13*
%TO.P,D6,2*%
%TO.N,GNDPWR*%
X74160000Y-111860000D03*
%TO.P,D6,1*%
%TO.N,/Array_Voltage*%
X77460000Y-111860000D03*
%TD*%
D23*
%TO.P,D7,1*%
%TO.N,/Battery_Voltage*%
X88395000Y-113665000D03*
%TO.P,D7,2*%
%TO.N,GNDPWR*%
X85595000Y-113665000D03*
%TD*%
D13*
%TO.P,D8,1*%
%TO.N,/Battery_Voltage*%
X88645000Y-111760000D03*
%TO.P,D8,2*%
%TO.N,GNDPWR*%
X85345000Y-111760000D03*
%TD*%
D23*
%TO.P,D9,1*%
%TO.N,/PWM*%
X163446000Y-107315000D03*
%TO.P,D9,2*%
%TO.N,GNDPWR*%
X166246000Y-107315000D03*
%TD*%
D24*
%TO.P,JP1,1*%
%TO.N,Net-(JP1-Pad1)*%
X151765000Y-121920000D03*
D25*
%TO.P,JP1,2*%
%TO.N,Net-(JP1-Pad2)*%
X154305000Y-121920000D03*
%TD*%
D26*
%TO.P,L1,1*%
%TO.N,/+Arr*%
X108585000Y-84836000D03*
%TO.P,L1,2*%
%TO.N,Net-(D1-Pad2)*%
X130385000Y-84836000D03*
%TD*%
D27*
%TO.P,L4,1*%
%TO.N,+12V*%
X48895000Y-129460000D03*
%TO.P,L4,2*%
%TO.N,Net-(C4-Pad1)*%
X48895000Y-132160000D03*
%TD*%
%TO.P,LED1,1*%
%TO.N,/-Arr*%
X53340000Y-90250000D03*
%TO.P,LED1,2*%
%TO.N,Net-(LED1-Pad2)*%
X53340000Y-87550000D03*
%TD*%
%TO.P,LED2,1*%
%TO.N,/-Batt*%
X65405000Y-47545000D03*
%TO.P,LED2,2*%
%TO.N,Net-(LED2-Pad2)*%
X65405000Y-50245000D03*
%TD*%
D28*
%TO.P,LED3,1*%
%TO.N,GNDREF*%
X45005000Y-121285000D03*
%TO.P,LED3,2*%
%TO.N,Net-(LED3-Pad2)*%
X47705000Y-121285000D03*
%TD*%
%TO.P,LED4,1*%
%TO.N,GNDPWR*%
X109300000Y-137795000D03*
%TO.P,LED4,2*%
%TO.N,Net-(LED4-Pad2)*%
X106600000Y-137795000D03*
%TD*%
%TO.P,LED5,1*%
%TO.N,GNDPWR*%
X109300000Y-140970000D03*
%TO.P,LED5,2*%
%TO.N,Net-(LED5-Pad2)*%
X106600000Y-140970000D03*
%TD*%
%TO.P,LED6,1*%
%TO.N,GNDPWR*%
X109300000Y-144145000D03*
%TO.P,LED6,2*%
%TO.N,Net-(LED6-Pad2)*%
X106600000Y-144145000D03*
%TD*%
%TO.P,LED7,1*%
%TO.N,GNDPWR*%
X57705000Y-125095000D03*
%TO.P,LED7,2*%
%TO.N,Net-(LED7-Pad2)*%
X60405000Y-125095000D03*
%TD*%
D27*
%TO.P,LED8,1*%
%TO.N,GNDPWR*%
X120015000Y-114380000D03*
%TO.P,LED8,2*%
%TO.N,Net-(LED8-Pad2)*%
X120015000Y-111680000D03*
%TD*%
%TO.P,LED9,1*%
%TO.N,GNDPWR*%
X127635000Y-114380000D03*
%TO.P,LED9,2*%
%TO.N,Net-(LED9-Pad2)*%
X127635000Y-111680000D03*
%TD*%
D29*
%TO.P,R1,1*%
%TO.N,Net-(D1-Pad2)*%
X163830000Y-64135000D03*
D30*
%TO.P,R1,2*%
%TO.N,Net-(C3-Pad1)*%
X186230000Y-64135000D03*
%TD*%
D31*
%TO.P,R2,1*%
%TO.N,/Drive_PWM*%
X156210000Y-90286000D03*
%TO.P,R2,2*%
%TO.N,GNDPWR*%
X156210000Y-86286000D03*
%TD*%
%TO.P,R3,1*%
%TO.N,/+Arr*%
X60960000Y-81185000D03*
%TO.P,R3,2*%
%TO.N,Net-(R23-Pad1)*%
X60960000Y-85185000D03*
%TD*%
%TO.P,R4,1*%
%TO.N,/+Batt*%
X72390000Y-61055000D03*
%TO.P,R4,2*%
%TO.N,Net-(R24-Pad1)*%
X72390000Y-57055000D03*
%TD*%
%TO.P,R5,1*%
%TO.N,Net-(R23-Pad1)*%
X60960000Y-88170000D03*
%TO.P,R5,2*%
%TO.N,GNDPWR*%
X60960000Y-92170000D03*
%TD*%
%TO.P,R6,1*%
%TO.N,Net-(R24-Pad1)*%
X72390000Y-54070000D03*
%TO.P,R6,2*%
%TO.N,GNDPWR*%
X72390000Y-50070000D03*
%TD*%
%TO.P,R7,1*%
%TO.N,/Drive_PWM*%
X163830000Y-89059000D03*
%TO.P,R7,2*%
%TO.N,Net-(R7-Pad2)*%
X163830000Y-93059000D03*
%TD*%
D27*
%TO.P,R9,1*%
%TO.N,Net-(JP1-Pad1)*%
X151765000Y-125015000D03*
%TO.P,R9,2*%
%TO.N,Net-(J4-Pad4)*%
X151765000Y-127715000D03*
%TD*%
%TO.P,R10,1*%
%TO.N,Net-(JP1-Pad2)*%
X154305000Y-125015000D03*
%TO.P,R10,2*%
%TO.N,Net-(J4-Pad3)*%
X154305000Y-127715000D03*
%TD*%
D31*
%TO.P,R12,1*%
%TO.N,Net-(LED1-Pad2)*%
X53340000Y-85185000D03*
%TO.P,R12,2*%
%TO.N,/+Arr*%
X53340000Y-81185000D03*
%TD*%
%TO.P,R13,1*%
%TO.N,Net-(LED2-Pad2)*%
X65405000Y-52610000D03*
%TO.P,R13,2*%
%TO.N,/+Batt*%
X65405000Y-56610000D03*
%TD*%
D28*
%TO.P,R14,1*%
%TO.N,Net-(LED3-Pad2)*%
X47705000Y-118745000D03*
%TO.P,R14,2*%
%TO.N,+12V*%
X45005000Y-118745000D03*
%TD*%
%TO.P,R15,1*%
%TO.N,Net-(LED4-Pad2)*%
X104220000Y-137795000D03*
%TO.P,R15,2*%
%TO.N,/Battery_Full*%
X101520000Y-137795000D03*
%TD*%
%TO.P,R16,1*%
%TO.N,Net-(LED5-Pad2)*%
X104220000Y-140970000D03*
%TO.P,R16,2*%
%TO.N,/Tracking*%
X101520000Y-140970000D03*
%TD*%
%TO.P,R17,1*%
%TO.N,Net-(LED6-Pad2)*%
X104220000Y-144145000D03*
%TO.P,R17,2*%
%TO.N,/PWM*%
X101520000Y-144145000D03*
%TD*%
%TO.P,R18,1*%
%TO.N,Net-(R18-Pad1)*%
X92630000Y-106680000D03*
%TO.P,R18,2*%
%TO.N,/Array_Current*%
X95330000Y-106680000D03*
%TD*%
%TO.P,R19,1*%
%TO.N,Net-(R19-Pad1)*%
X99615000Y-106680000D03*
%TO.P,R19,2*%
%TO.N,/Battery_Current*%
X102315000Y-106680000D03*
%TD*%
%TO.P,R20,1*%
%TO.N,Net-(LED7-Pad2)*%
X60405000Y-122555000D03*
%TO.P,R20,2*%
%TO.N,+9VA*%
X57705000Y-122555000D03*
%TD*%
D27*
%TO.P,R21,1*%
%TO.N,Net-(LED8-Pad2)*%
X122555000Y-111680000D03*
%TO.P,R21,2*%
%TO.N,/CAN_Tx*%
X122555000Y-114380000D03*
%TD*%
%TO.P,R22,1*%
%TO.N,Net-(LED9-Pad2)*%
X125095000Y-111680000D03*
%TO.P,R22,2*%
%TO.N,/CAN_Rx*%
X125095000Y-114380000D03*
%TD*%
D16*
%TO.P,SW1,2*%
%TO.N,/Reset*%
X75620000Y-143510000D03*
%TO.P,SW1,1*%
%TO.N,GNDPWR*%
X71120000Y-143510000D03*
%TO.P,SW1,2*%
%TO.N,/Reset*%
X75620000Y-137010000D03*
%TO.P,SW1,1*%
%TO.N,GNDPWR*%
X71120000Y-137010000D03*
%TD*%
D32*
%TO.P,SW2,1*%
%TO.N,GNDPWR*%
X87630000Y-144399000D03*
D33*
%TO.P,SW2,5*%
%TO.N,Net-(SW2-Pad5)*%
X95250000Y-136779000D03*
%TO.P,SW2,2*%
%TO.N,GNDPWR*%
X90170000Y-144399000D03*
%TO.P,SW2,6*%
%TO.N,Net-(SW2-Pad6)*%
X92710000Y-136779000D03*
%TO.P,SW2,3*%
%TO.N,GNDPWR*%
X92710000Y-144399000D03*
%TO.P,SW2,7*%
%TO.N,Net-(SW2-Pad7)*%
X90170000Y-136779000D03*
%TO.P,SW2,4*%
%TO.N,GNDPWR*%
X95250000Y-144399000D03*
%TO.P,SW2,8*%
%TO.N,Net-(SW2-Pad8)*%
X87630000Y-136779000D03*
%TD*%
D34*
%TO.P,TP1,1*%
%TO.N,/+Arr*%
X54610000Y-72390000D03*
%TD*%
%TO.P,TP2,1*%
%TO.N,/-Arr*%
X54610000Y-100330000D03*
%TD*%
%TO.P,TP3,1*%
%TO.N,Net-(D1-Pad2)*%
X193294000Y-70739000D03*
%TD*%
%TO.P,TP4,1*%
%TO.N,Net-(C3-Pad1)*%
X193294000Y-75819000D03*
%TD*%
%TO.P,TP5,1*%
%TO.N,+9VA*%
X57785000Y-118110000D03*
%TD*%
%TO.P,TP6,1*%
%TO.N,GNDPWR*%
X63500000Y-118110000D03*
%TD*%
%TO.P,TP7,1*%
%TO.N,/Array_Voltage*%
X77080000Y-102970000D03*
%TD*%
%TO.P,TP8,1*%
%TO.N,/Battery_Voltage*%
X88265000Y-102870000D03*
%TD*%
%TO.P,TP9,1*%
%TO.N,/Array_Current*%
X95250000Y-102870000D03*
%TD*%
%TO.P,TP10,1*%
%TO.N,/Battery_Current*%
X102235000Y-102870000D03*
%TD*%
%TO.P,TP11,1*%
%TO.N,/PWM*%
X176530000Y-106299000D03*
%TD*%
%TO.P,TP12,1*%
%TO.N,/Drive_PWM*%
X168910000Y-89027000D03*
%TD*%
%TO.P,TP13,1*%
%TO.N,Net-(C9-Pad1)*%
X136144000Y-116078000D03*
%TD*%
%TO.P,TP14,1*%
%TO.N,Net-(C10-Pad1)*%
X135890000Y-139700000D03*
%TD*%
%TO.P,TP15,1*%
%TO.N,Net-(C10-Pad2)*%
X140970000Y-139700000D03*
%TD*%
%TO.P,TP16,1*%
%TO.N,Net-(C9-Pad2)*%
X141224000Y-116078000D03*
%TD*%
%TO.P,TP17,1*%
%TO.N,+12V*%
X34290000Y-117475000D03*
%TD*%
%TO.P,TP18,1*%
%TO.N,GNDREF*%
X34290000Y-123190000D03*
%TD*%
%TO.P,TP19,1*%
%TO.N,/CAN_Tx*%
X121285000Y-118110000D03*
%TD*%
%TO.P,TP20,1*%
%TO.N,/CAN_Rx*%
X126365000Y-118110000D03*
%TD*%
%TO.P,TP21,1*%
%TO.N,Net-(J4-Pad3)*%
X151130000Y-139700000D03*
%TD*%
%TO.P,TP22,1*%
%TO.N,Net-(J4-Pad4)*%
X156210000Y-139700000D03*
%TD*%
D35*
%TO.P,U1,1*%
%TO.N,GNDREF*%
X42545000Y-140335000D03*
%TO.P,U1,2*%
%TO.N,Net-(C4-Pad1)*%
X45085000Y-140335000D03*
%TO.P,U1,3*%
%TO.N,Net-(U1-Pad3)*%
X47625000Y-140335000D03*
%TO.P,U1,5*%
%TO.N,Net-(U1-Pad5)*%
X52705000Y-140335000D03*
%TO.P,U1,6*%
%TO.N,+9VA*%
X55245000Y-140335000D03*
%TO.P,U1,7*%
%TO.N,GNDPWR*%
X57785000Y-140335000D03*
%TO.P,U1,8*%
%TO.N,Net-(C23-Pad2)*%
X60325000Y-140335000D03*
%TD*%
D36*
%TO.P,U2,1*%
%TO.N,Net-(U2-Pad1)*%
X74930000Y-133223000D03*
D37*
%TO.P,U2,2*%
%TO.N,Net-(U2-Pad2)*%
X77470000Y-133223000D03*
%TO.P,U2,3*%
%TO.N,/Reset*%
X80010000Y-133223000D03*
%TO.P,U2,4*%
%TO.N,GNDPWR*%
X82550000Y-133223000D03*
%TO.P,U2,5*%
%TO.N,/CAN_Tx*%
X85090000Y-133223000D03*
%TO.P,U2,6*%
%TO.N,Net-(SW2-Pad8)*%
X87630000Y-133223000D03*
%TO.P,U2,7*%
%TO.N,Net-(SW2-Pad7)*%
X90170000Y-133223000D03*
%TO.P,U2,8*%
%TO.N,Net-(SW2-Pad6)*%
X92710000Y-133223000D03*
%TO.P,U2,9*%
%TO.N,Net-(SW2-Pad5)*%
X95250000Y-133223000D03*
%TO.P,U2,10*%
%TO.N,Net-(U2-Pad10)*%
X97790000Y-133223000D03*
%TO.P,U2,11*%
%TO.N,Net-(U2-Pad11)*%
X100330000Y-133223000D03*
%TO.P,U2,12*%
%TO.N,Net-(U2-Pad12)*%
X102870000Y-133223000D03*
%TO.P,U2,13*%
%TO.N,/CAN_Rx*%
X105410000Y-133223000D03*
%TO.P,U2,14*%
%TO.N,/Tracking*%
X107950000Y-133223000D03*
%TO.P,U2,15*%
%TO.N,/Battery_Full*%
X110490000Y-133223000D03*
%TO.P,U2,16*%
%TO.N,Net-(U2-Pad16)*%
X110490000Y-117983000D03*
%TO.P,U2,17*%
%TO.N,+3V3*%
X107950000Y-117983000D03*
%TO.P,U2,18*%
%TO.N,Net-(U2-Pad18)*%
X105410000Y-117983000D03*
%TO.P,U2,19*%
%TO.N,Net-(U2-Pad19)*%
X102870000Y-117983000D03*
%TO.P,U2,20*%
%TO.N,/PWM*%
X100330000Y-117983000D03*
%TO.P,U2,21*%
%TO.N,/Battery_Current*%
X97790000Y-117983000D03*
%TO.P,U2,22*%
%TO.N,/Array_Current*%
X95250000Y-117983000D03*
%TO.P,U2,23*%
%TO.N,/Battery_Voltage*%
X92710000Y-117983000D03*
%TO.P,U2,24*%
%TO.N,/Array_Voltage*%
X90170000Y-117983000D03*
%TO.P,U2,25*%
%TO.N,Net-(U2-Pad25)*%
X87630000Y-117983000D03*
%TO.P,U2,26*%
%TO.N,Net-(U2-Pad26)*%
X85090000Y-117983000D03*
%TO.P,U2,27*%
%TO.N,+5V*%
X82550000Y-117983000D03*
%TO.P,U2,28*%
%TO.N,/Reset*%
X80010000Y-117983000D03*
%TO.P,U2,29*%
%TO.N,GNDPWR*%
X77470000Y-117983000D03*
%TO.P,U2,30*%
%TO.N,+9VA*%
X74930000Y-117983000D03*
%TD*%
D38*
%TO.P,U5,1*%
%TO.N,GNDPWR*%
X127380000Y-123190000D03*
%TO.P,U5,2*%
X127380000Y-124460000D03*
%TO.P,U5,3*%
%TO.N,+5V*%
X127380000Y-125730000D03*
%TO.P,U5,4*%
%TO.N,+3V3*%
X127380000Y-127000000D03*
%TO.P,U5,5*%
%TO.N,/CAN_Rx*%
X127380000Y-128270000D03*
%TO.P,U5,6*%
%TO.N,Net-(U5-Pad6)*%
X127380000Y-129540000D03*
%TO.P,U5,7*%
%TO.N,/CAN_Tx*%
X127380000Y-130810000D03*
%TO.P,U5,8*%
%TO.N,Net-(U5-Pad8)*%
X127380000Y-132080000D03*
%TO.P,U5,9*%
%TO.N,Net-(U5-Pad9)*%
X127380000Y-133350000D03*
%TO.P,U5,10*%
%TO.N,GNDPWR*%
X127380000Y-134620000D03*
%TO.P,U5,11*%
%TO.N,Net-(C10-Pad2)*%
X136780000Y-134620000D03*
%TO.P,U5,12*%
%TO.N,Net-(R25-Pad1)*%
X136780000Y-133350000D03*
%TO.P,U5,13*%
%TO.N,Net-(J4-Pad4)*%
X136780000Y-132080000D03*
%TO.P,U5,14*%
%TO.N,Net-(J4-Pad3)*%
X136780000Y-130810000D03*
%TO.P,U5,15*%
%TO.N,Net-(C10-Pad2)*%
X136780000Y-129540000D03*
%TO.P,U5,16*%
%TO.N,Net-(C10-Pad1)*%
X136780000Y-128270000D03*
%TO.P,U5,17*%
%TO.N,Net-(U5-Pad17)*%
X136780000Y-127000000D03*
%TO.P,U5,18*%
%TO.N,Net-(C9-Pad2)*%
X136780000Y-125730000D03*
%TO.P,U5,19*%
%TO.N,Net-(C9-Pad1)*%
X136780000Y-124460000D03*
%TO.P,U5,20*%
%TO.N,Net-(C9-Pad2)*%
X136780000Y-123190000D03*
%TD*%
D34*
%TO.P,TP23,1*%
%TO.N,/+Batt*%
X66040000Y-60960000D03*
%TD*%
%TO.P,TP24,1*%
%TO.N,/-Batt*%
X66040000Y-35560000D03*
%TD*%
D28*
%TO.P,R23,2*%
%TO.N,Net-(C19-Pad1)*%
X77160000Y-106780000D03*
%TO.P,R23,1*%
%TO.N,Net-(R23-Pad1)*%
X74460000Y-106780000D03*
%TD*%
%TO.P,R24,1*%
%TO.N,Net-(R24-Pad1)*%
X85645000Y-106680000D03*
%TO.P,R24,2*%
%TO.N,Net-(C20-Pad1)*%
X88345000Y-106680000D03*
%TD*%
D14*
%TO.P,C9,1*%
%TO.N,Net-(C9-Pad1)*%
X140335000Y-125075000D03*
%TO.P,C9,2*%
%TO.N,Net-(C9-Pad2)*%
X140335000Y-122575000D03*
%TD*%
%TO.P,C10,1*%
%TO.N,Net-(C10-Pad1)*%
X146685000Y-125075000D03*
%TO.P,C10,2*%
%TO.N,Net-(C10-Pad2)*%
X146685000Y-122575000D03*
%TD*%
%TO.P,C11,1*%
%TO.N,Net-(C10-Pad1)*%
X142240000Y-127655000D03*
%TO.P,C11,2*%
%TO.N,Net-(C10-Pad2)*%
X142240000Y-130155000D03*
%TD*%
%TO.P,C12,1*%
%TO.N,Net-(C10-Pad1)*%
X140335000Y-127655000D03*
%TO.P,C12,2*%
%TO.N,Net-(C10-Pad2)*%
X140335000Y-130155000D03*
%TD*%
D28*
%TO.P,L2,1*%
%TO.N,Net-(C10-Pad1)*%
X144860000Y-125095000D03*
%TO.P,L2,2*%
%TO.N,Net-(C9-Pad1)*%
X142160000Y-125095000D03*
%TD*%
%TO.P,L3,1*%
%TO.N,Net-(C10-Pad2)*%
X144860000Y-122555000D03*
%TO.P,L3,2*%
%TO.N,Net-(C9-Pad2)*%
X142160000Y-122555000D03*
%TD*%
D27*
%TO.P,R25,1*%
%TO.N,Net-(R25-Pad1)*%
X140335000Y-132635000D03*
%TO.P,R25,2*%
%TO.N,Net-(C10-Pad2)*%
X140335000Y-135335000D03*
%TD*%
D39*
%TO.P,U7,1*%
%TO.N,Net-(J4-Pad3)*%
X154510000Y-130495000D03*
%TO.P,U7,2*%
%TO.N,Net-(J4-Pad4)*%
X154510000Y-132395000D03*
%TO.P,U7,3*%
%TO.N,Net-(C10-Pad2)*%
X157910000Y-131445000D03*
%TD*%
D34*
%TO.P,TP25,1*%
%TO.N,GNDPWR*%
X193294000Y-80899000D03*
%TD*%
%TO.P,TP26,1*%
%TO.N,GNDPWR*%
X70730000Y-102970000D03*
%TD*%
%TO.P,TP27,1*%
%TO.N,GNDPWR*%
X181102000Y-106299000D03*
%TD*%
%TO.P,TP28,1*%
%TO.N,GNDPWR*%
X179070000Y-89027000D03*
%TD*%
D29*
%TO.P,C3,1*%
%TO.N,Net-(C3-Pad1)*%
X186690000Y-76835000D03*
%TO.P,C3,2*%
%TO.N,GNDPWR*%
X164190000Y-76835000D03*
%TD*%
D20*
%TO.P,D1,1*%
%TO.N,Net-(C3-Pad1)*%
X184658000Y-42799000D03*
D21*
%TO.P,D1,2*%
%TO.N,Net-(D1-Pad2)*%
X179578000Y-42799000D03*
%TD*%
D40*
%TO.P,F1,2*%
%TO.N,/+Batt*%
X57785000Y-65405000D03*
%TO.P,F1,1*%
%TO.N,Net-(F1-Pad1)*%
X57785000Y-41275000D03*
%TD*%
D41*
%TO.P,Q1,1*%
%TO.N,/Drive_PWM*%
X149225000Y-90286000D03*
D42*
%TO.P,Q1,2*%
%TO.N,Net-(D1-Pad2)*%
X149225000Y-84836000D03*
%TO.P,Q1,3*%
%TO.N,GNDPWR*%
X149225000Y-79386000D03*
%TD*%
D41*
%TO.P,Q2,1*%
%TO.N,/Drive_PWM*%
X141605000Y-79386000D03*
D42*
%TO.P,Q2,2*%
%TO.N,Net-(D1-Pad2)*%
X141605000Y-84836000D03*
%TO.P,Q2,3*%
%TO.N,GNDPWR*%
X141605000Y-90286000D03*
%TD*%
D43*
%TO.P,U3,8*%
%TO.N,+9VA*%
X161925000Y-96487000D03*
%TO.P,U3,1*%
X161925000Y-101887000D03*
%TO.P,U3,7*%
%TO.N,Net-(R7-Pad2)*%
X163195000Y-96487000D03*
%TO.P,U3,2*%
%TO.N,/PWM*%
X163195000Y-101887000D03*
%TO.P,U3,6*%
%TO.N,Net-(R7-Pad2)*%
X164465000Y-96487000D03*
%TO.P,U3,3*%
%TO.N,/PWM*%
X164465000Y-101887000D03*
%TO.P,U3,5*%
%TO.N,GNDPWR*%
X165735000Y-96487000D03*
%TO.P,U3,4*%
X165735000Y-101887000D03*
%TD*%
D40*
%TO.P,J2,1*%
%TO.N,Net-(F1-Pad1)*%
X48260000Y-43815000D03*
%TO.P,J2,2*%
%TO.N,/-Batt*%
X48260000Y-51435000D03*
%TO.P,J2,1*%
%TO.N,Net-(F1-Pad1)*%
X43180000Y-43815000D03*
X40640000Y-43815000D03*
%TO.P,J2,2*%
%TO.N,/-Batt*%
X43180000Y-51435000D03*
X40640000Y-51435000D03*
%TD*%
%TO.P,J1,3*%
%TO.N,/-Arr*%
X40640000Y-92710000D03*
X43180000Y-92710000D03*
X48260000Y-92710000D03*
%TO.P,J1,1*%
%TO.N,/+Arr*%
X48260000Y-77470000D03*
%TO.P,J1,2*%
%TO.N,Net-(J1-Pad2)*%
X48260000Y-85090000D03*
%TO.P,J1,1*%
%TO.N,/+Arr*%
X43180000Y-77470000D03*
X40640000Y-77470000D03*
%TO.P,J1,2*%
%TO.N,Net-(J1-Pad2)*%
X43180000Y-85090000D03*
X40640000Y-85090000D03*
%TD*%
D44*
%TO.P,J4,4*%
%TO.N,Net-(J4-Pad4)*%
X173990000Y-132825000D03*
%TO.P,J4,1*%
%TO.N,Net-(C10-Pad1)*%
X173990000Y-123825000D03*
%TO.P,J4,2*%
%TO.N,Net-(C10-Pad2)*%
X173990000Y-126825000D03*
%TO.P,J4,3*%
%TO.N,Net-(J4-Pad3)*%
X173990000Y-129825000D03*
%TD*%
%TO.P,J5,4*%
%TO.N,Net-(J4-Pad4)*%
X165100000Y-132825000D03*
%TO.P,J5,1*%
%TO.N,Net-(C10-Pad1)*%
X165100000Y-123825000D03*
%TO.P,J5,2*%
%TO.N,Net-(C10-Pad2)*%
X165100000Y-126825000D03*
%TO.P,J5,3*%
%TO.N,Net-(J4-Pad3)*%
X165100000Y-129825000D03*
%TD*%
D19*
%TO.P,C19,2*%
%TO.N,GNDPWR*%
X74560000Y-109320000D03*
%TO.P,C19,1*%
%TO.N,Net-(C19-Pad1)*%
X77060000Y-109320000D03*
%TD*%
%TO.P,C20,1*%
%TO.N,Net-(C20-Pad1)*%
X88245000Y-109220000D03*
%TO.P,C20,2*%
%TO.N,GNDPWR*%
X85745000Y-109220000D03*
%TD*%
D23*
%TO.P,D11,1*%
%TO.N,/Array_Current*%
X95380000Y-113665000D03*
%TO.P,D11,2*%
%TO.N,GNDPWR*%
X92580000Y-113665000D03*
%TD*%
D13*
%TO.P,D12,1*%
%TO.N,/Array_Current*%
X95630000Y-111760000D03*
%TO.P,D12,2*%
%TO.N,GNDPWR*%
X92330000Y-111760000D03*
%TD*%
D23*
%TO.P,D13,1*%
%TO.N,/Battery_Current*%
X102365000Y-113665000D03*
%TO.P,D13,2*%
%TO.N,GNDPWR*%
X99565000Y-113665000D03*
%TD*%
D13*
%TO.P,D14,1*%
%TO.N,/Battery_Current*%
X102615000Y-111760000D03*
%TO.P,D14,2*%
%TO.N,GNDPWR*%
X99315000Y-111760000D03*
%TD*%
D44*
%TO.P,J3,1*%
%TO.N,+12V*%
X34290000Y-131445000D03*
%TO.P,J3,2*%
%TO.N,GNDREF*%
X34290000Y-134445000D03*
%TD*%
D45*
%TO.P,C4,1*%
%TO.N,Net-(C4-Pad1)*%
X45880000Y-133985000D03*
%TO.P,C4,2*%
%TO.N,GNDREF*%
X40480000Y-133985000D03*
%TD*%
%TO.P,C5,1*%
%TO.N,+9VA*%
X53180000Y-133985000D03*
%TO.P,C5,2*%
%TO.N,GNDPWR*%
X58580000Y-133985000D03*
%TD*%
%TO.P,C24,1*%
%TO.N,+12V*%
X45880000Y-127000000D03*
%TO.P,C24,2*%
%TO.N,GNDREF*%
X40480000Y-127000000D03*
%TD*%
D46*
%TO.N,GNDPWR*%
X64770000Y-87630000D03*
X64770000Y-84455000D03*
X64770000Y-106680000D03*
D47*
X74930000Y-51435000D03*
D46*
X62865000Y-92710000D03*
D47*
X59055000Y-127000000D03*
D46*
X91440000Y-113665000D03*
X98425000Y-113665000D03*
X84455000Y-113665000D03*
X73270000Y-113765000D03*
D47*
X159385000Y-82550000D03*
X156210000Y-83820000D03*
X160020000Y-107950000D03*
X166370000Y-110490000D03*
X165862000Y-93091000D03*
X110490000Y-144145000D03*
X110490000Y-140970000D03*
X110490000Y-137795000D03*
X120015000Y-129540000D03*
X122555000Y-121920000D03*
X120015000Y-115570000D03*
X127635000Y-115570000D03*
X125730000Y-134620000D03*
X81950000Y-114440000D03*
X81150000Y-104315000D03*
D46*
%TO.N,+9VA*%
X64135000Y-83820000D03*
X64135000Y-88265000D03*
D47*
X56515000Y-128905000D03*
X154305000Y-106680000D03*
X116205000Y-127635000D03*
X116205000Y-106680000D03*
D46*
%TO.N,Net-(C9-Pad1)*%
X135255000Y-124460000D03*
%TO.N,Net-(C9-Pad2)*%
X138430000Y-123190000D03*
X138430000Y-125730000D03*
%TO.N,Net-(C10-Pad1)*%
X160655000Y-125095000D03*
X149225000Y-125095000D03*
X135255000Y-128270000D03*
%TO.N,Net-(C10-Pad2)*%
X159385000Y-131445000D03*
X147955000Y-134620000D03*
X147955000Y-122555000D03*
X147955000Y-129540000D03*
D47*
%TO.N,+3V3*%
X125095000Y-127000000D03*
X121285000Y-123190000D03*
X84150000Y-107015000D03*
X104050000Y-111415000D03*
X106996702Y-110361702D03*
X107251298Y-112016298D03*
D48*
%TO.N,+12V*%
X43180000Y-124460000D03*
D46*
%TO.N,/PWM*%
X99060000Y-123825000D03*
X99060000Y-131953000D03*
%TO.N,Net-(J4-Pad4)*%
X151765000Y-132080000D03*
X151765000Y-128905000D03*
X138430000Y-132080000D03*
X144145000Y-132080000D03*
%TO.N,Net-(J4-Pad3)*%
X150495000Y-130810000D03*
X138430000Y-130810000D03*
X144145000Y-130810000D03*
%TO.N,Net-(R18-Pad1)*%
X55245000Y-89535000D03*
X68580000Y-99060000D03*
X62865000Y-99060000D03*
%TO.N,Net-(R19-Pad1)*%
X66040000Y-85725000D03*
%TO.N,/CAN_Tx*%
X118745000Y-130810000D03*
%TO.N,/CAN_Rx*%
X125095000Y-128905000D03*
X125095000Y-131445000D03*
%TO.N,/Reset*%
X80010000Y-121285000D03*
X80010000Y-125095000D03*
%TO.N,Net-(R23-Pad1)*%
X66040000Y-88900000D03*
X62865000Y-88900000D03*
%TO.N,Net-(R24-Pad1)*%
X69850000Y-57785000D03*
X66675000Y-87630000D03*
%TD*%
D49*
%TO.N,/+Arr*%
X54610000Y-72390000D02*
X49530000Y-72390000D01*
X48260000Y-73660000D02*
X48260000Y-77470000D01*
X49530000Y-72390000D02*
X48260000Y-73660000D01*
D50*
X60960000Y-81185000D02*
X60960000Y-77470000D01*
X53340000Y-81185000D02*
X53340000Y-77470000D01*
D51*
X48260000Y-77470000D02*
X53340000Y-77470000D01*
X53340000Y-77470000D02*
X54610000Y-77470000D01*
X54610000Y-77470000D02*
X60960000Y-77470000D01*
X60960000Y-77470000D02*
X88265000Y-77470000D01*
X43180000Y-77470000D02*
X48260000Y-77470000D01*
X40640000Y-77470000D02*
X43180000Y-77470000D01*
X88265000Y-77470000D02*
X101219000Y-77470000D01*
X101219000Y-77470000D02*
X108585000Y-84836000D01*
D49*
%TO.N,GNDPWR*%
X64770000Y-84455000D02*
X64770000Y-87630000D01*
X64770000Y-87630000D02*
X64770000Y-106680000D01*
D50*
X72390000Y-50070000D02*
X73565000Y-50070000D01*
X73565000Y-50070000D02*
X74930000Y-51435000D01*
X60960000Y-92170000D02*
X62325000Y-92170000D01*
X62325000Y-92170000D02*
X62865000Y-92710000D01*
X57705000Y-125095000D02*
X57705000Y-126285000D01*
X58420000Y-127000000D02*
X59055000Y-127000000D01*
X57705000Y-126285000D02*
X58420000Y-127000000D01*
D52*
X58580000Y-133985000D02*
X60960000Y-133985000D01*
X60980000Y-134005000D02*
X62230000Y-134005000D01*
X60960000Y-133985000D02*
X60980000Y-134005000D01*
X57785000Y-140335000D02*
X57785000Y-136525000D01*
X58580000Y-135730000D02*
X58580000Y-133985000D01*
X57785000Y-136525000D02*
X58580000Y-135730000D01*
D49*
X70730000Y-102970000D02*
X70730000Y-106780000D01*
X73270000Y-109320000D02*
X74560000Y-109320000D01*
X70730000Y-106780000D02*
X73270000Y-109320000D01*
X92580000Y-113665000D02*
X91440000Y-113665000D01*
X99565000Y-113665000D02*
X98425000Y-113665000D01*
X85595000Y-113665000D02*
X84455000Y-113665000D01*
X74410000Y-113765000D02*
X73270000Y-113765000D01*
X99315000Y-111760000D02*
X99315000Y-112650000D01*
X99565000Y-112900000D02*
X99565000Y-113665000D01*
X99315000Y-112650000D02*
X99565000Y-112900000D01*
X99715000Y-109220000D02*
X99715000Y-110470000D01*
X99315000Y-110870000D02*
X99315000Y-111760000D01*
X99715000Y-110470000D02*
X99315000Y-110870000D01*
X92330000Y-111760000D02*
X92330000Y-112650000D01*
X92580000Y-112900000D02*
X92580000Y-113665000D01*
X92330000Y-112650000D02*
X92580000Y-112900000D01*
X92730000Y-109220000D02*
X92730000Y-110470000D01*
X92330000Y-110870000D02*
X92330000Y-111760000D01*
X92730000Y-110470000D02*
X92330000Y-110870000D01*
X85345000Y-111760000D02*
X85345000Y-112650000D01*
X85595000Y-112900000D02*
X85595000Y-113665000D01*
X85345000Y-112650000D02*
X85595000Y-112900000D01*
X85745000Y-109220000D02*
X85745000Y-110470000D01*
X85345000Y-110870000D02*
X85345000Y-111760000D01*
X85745000Y-110470000D02*
X85345000Y-110870000D01*
X74160000Y-111860000D02*
X74160000Y-112750000D01*
X74410000Y-113000000D02*
X74410000Y-113765000D01*
X74160000Y-112750000D02*
X74410000Y-113000000D01*
X74560000Y-109320000D02*
X74560000Y-110570000D01*
X74160000Y-110970000D02*
X74160000Y-111860000D01*
X74560000Y-110570000D02*
X74160000Y-110970000D01*
D52*
X159385000Y-85286000D02*
X159385000Y-82550000D01*
X156210000Y-86286000D02*
X156210000Y-83820000D01*
X160274000Y-104501000D02*
X160274000Y-107696000D01*
X160274000Y-107696000D02*
X160020000Y-107950000D01*
X166246000Y-107315000D02*
X166246000Y-110366000D01*
X166246000Y-110366000D02*
X166370000Y-110490000D01*
X167894000Y-95397000D02*
X168208000Y-95711000D01*
X168208000Y-95711000D02*
X175006000Y-95711000D01*
X166496000Y-104775000D02*
X166496000Y-107065000D01*
X166496000Y-107065000D02*
X166246000Y-107315000D01*
X165735000Y-101887000D02*
X166496000Y-102648000D01*
X166496000Y-102648000D02*
X166496000Y-104775000D01*
D49*
X179070000Y-89027000D02*
X175006000Y-93091000D01*
X175006000Y-93091000D02*
X175006000Y-95711000D01*
D52*
X166825000Y-95397000D02*
X166825000Y-94054000D01*
X166825000Y-94054000D02*
X165862000Y-93091000D01*
X165735000Y-96487000D02*
X166825000Y-95397000D01*
X166825000Y-95397000D02*
X167894000Y-95397000D01*
D50*
X109300000Y-144145000D02*
X110490000Y-144145000D01*
X109300000Y-140970000D02*
X110490000Y-140970000D01*
X109300000Y-137795000D02*
X110490000Y-137795000D01*
X121555000Y-129540000D02*
X120015000Y-129540000D01*
X122555000Y-123460000D02*
X122555000Y-121920000D01*
D49*
X120015000Y-114380000D02*
X120015000Y-115570000D01*
X127635000Y-114380000D02*
X127635000Y-115570000D01*
D50*
X121555000Y-129540000D02*
X121555000Y-127635000D01*
X127380000Y-134620000D02*
X125730000Y-134620000D01*
X125460000Y-123460000D02*
X126460000Y-124460000D01*
X126460000Y-124460000D02*
X127380000Y-124460000D01*
X122555000Y-123460000D02*
X124460000Y-123460000D01*
X124460000Y-123460000D02*
X125460000Y-123460000D01*
X125460000Y-123460000D02*
X125730000Y-123190000D01*
X125730000Y-123190000D02*
X127380000Y-123190000D01*
D49*
X81650000Y-113365000D02*
X81650000Y-114140000D01*
X81650000Y-114140000D02*
X81950000Y-114440000D01*
X81750000Y-105565000D02*
X81750000Y-104915000D01*
X81750000Y-104915000D02*
X81150000Y-104315000D01*
D50*
%TO.N,/+Batt*%
X72390000Y-61055000D02*
X69945000Y-61055000D01*
X69850000Y-60960000D02*
X66040000Y-60960000D01*
X69945000Y-61055000D02*
X69850000Y-60960000D01*
X66040000Y-60960000D02*
X63500000Y-60960000D01*
X63500000Y-60960000D02*
X62865000Y-60325000D01*
X65405000Y-56610000D02*
X64040000Y-56610000D01*
X62865000Y-60325000D02*
X57785000Y-65405000D01*
X62865000Y-57785000D02*
X62865000Y-60325000D01*
X64040000Y-56610000D02*
X62865000Y-57785000D01*
D51*
X57785000Y-65405000D02*
X80010000Y-65405000D01*
X93345000Y-52070000D02*
X100330000Y-52070000D01*
X80010000Y-65405000D02*
X93345000Y-52070000D01*
D53*
X135255000Y-50165000D02*
X135255000Y-48895000D01*
X140335000Y-43815000D02*
X140335000Y-42545000D01*
X135255000Y-48895000D02*
X140335000Y-43815000D01*
D51*
X135255000Y-50165000D02*
X133350000Y-52070000D01*
X133350000Y-52070000D02*
X100330000Y-52070000D01*
%TO.N,Net-(C3-Pad1)*%
X186230000Y-64135000D02*
X186230000Y-76375000D01*
X186230000Y-76375000D02*
X186690000Y-76835000D01*
X184658000Y-42799000D02*
X186230000Y-44371000D01*
X186230000Y-44371000D02*
X186230000Y-64135000D01*
D52*
%TO.N,Net-(C4-Pad1)*%
X45880000Y-133985000D02*
X45880000Y-137000000D01*
X45085000Y-137795000D02*
X45085000Y-140335000D01*
X45880000Y-137000000D02*
X45085000Y-137795000D01*
X48895000Y-132160000D02*
X48895000Y-133350000D01*
X48260000Y-133985000D02*
X45880000Y-133985000D01*
X48895000Y-133350000D02*
X48260000Y-133985000D01*
%TO.N,GNDREF*%
X40480000Y-133985000D02*
X40480000Y-135730000D01*
X42545000Y-137795000D02*
X42545000Y-140335000D01*
X40480000Y-135730000D02*
X42545000Y-137795000D01*
X40480000Y-133985000D02*
X37465000Y-133985000D01*
X37465000Y-133985000D02*
X37005000Y-134445000D01*
X37005000Y-134445000D02*
X34290000Y-134445000D01*
X40480000Y-127000000D02*
X40480000Y-133985000D01*
X34290000Y-123190000D02*
X38735000Y-123190000D01*
X38735000Y-123190000D02*
X40480000Y-124935000D01*
X40480000Y-124935000D02*
X40480000Y-127000000D01*
D50*
X45005000Y-121285000D02*
X36195000Y-121285000D01*
X36195000Y-121285000D02*
X34290000Y-123190000D01*
D49*
%TO.N,+9VA*%
X64135000Y-88265000D02*
X64135000Y-83820000D01*
X64135000Y-88265000D02*
X64135000Y-107188000D01*
X74930000Y-117983000D02*
X64135000Y-107188000D01*
D50*
X57785000Y-118110000D02*
X57785000Y-120650000D01*
X57705000Y-120730000D02*
X57705000Y-122555000D01*
X57785000Y-120650000D02*
X57705000Y-120730000D01*
D52*
X53180000Y-133985000D02*
X53180000Y-132240000D01*
X64008000Y-128905000D02*
X74930000Y-117983000D01*
X56515000Y-128905000D02*
X64008000Y-128905000D01*
X53180000Y-132240000D02*
X56515000Y-128905000D01*
X53180000Y-133985000D02*
X53180000Y-135730000D01*
X55245000Y-137795000D02*
X55245000Y-140335000D01*
X53180000Y-135730000D02*
X55245000Y-137795000D01*
X160274000Y-102001000D02*
X158984000Y-102001000D01*
X158984000Y-102001000D02*
X154305000Y-106680000D01*
X84582000Y-127635000D02*
X116205000Y-127635000D01*
X84582000Y-127635000D02*
X74930000Y-117983000D01*
X154305000Y-106680000D02*
X116205000Y-106680000D01*
X167894000Y-97897000D02*
X167620000Y-98171000D01*
X167620000Y-98171000D02*
X162306000Y-98171000D01*
X161925000Y-97790000D02*
X161925000Y-96487000D01*
X162306000Y-98171000D02*
X161925000Y-97790000D01*
X175006000Y-100711000D02*
X170708000Y-100711000D01*
X170708000Y-100711000D02*
X167894000Y-97897000D01*
X161925000Y-101887000D02*
X160388000Y-101887000D01*
X160388000Y-101887000D02*
X160274000Y-102001000D01*
D49*
%TO.N,Net-(C9-Pad1)*%
X136780000Y-124460000D02*
X135255000Y-124460000D01*
X136780000Y-124460000D02*
X139720000Y-124460000D01*
X139720000Y-124460000D02*
X140355000Y-125095000D01*
X140355000Y-125095000D02*
X142160000Y-125095000D01*
%TO.N,Net-(C9-Pad2)*%
X140335000Y-122575000D02*
X140335000Y-116967000D01*
X140335000Y-116967000D02*
X141224000Y-116078000D01*
X136780000Y-125730000D02*
X138430000Y-125730000D01*
X136780000Y-123190000D02*
X138430000Y-123190000D01*
X138430000Y-123190000D02*
X139720000Y-123190000D01*
X139720000Y-123190000D02*
X140355000Y-122555000D01*
X140355000Y-122555000D02*
X142160000Y-122555000D01*
%TO.N,Net-(C10-Pad1)*%
X146685000Y-125075000D02*
X146705000Y-125095000D01*
X146705000Y-125095000D02*
X149225000Y-125095000D01*
X161925000Y-123825000D02*
X165100000Y-123825000D01*
X160655000Y-125095000D02*
X161925000Y-123825000D01*
X173990000Y-123825000D02*
X165100000Y-123825000D01*
X136780000Y-128270000D02*
X135255000Y-128270000D01*
X146685000Y-125075000D02*
X146685000Y-126365000D01*
X145395000Y-127655000D02*
X142240000Y-127655000D01*
X146685000Y-126365000D02*
X145395000Y-127655000D01*
X136780000Y-128270000D02*
X139720000Y-128270000D01*
X139720000Y-128270000D02*
X140335000Y-127655000D01*
X140335000Y-127655000D02*
X142240000Y-127655000D01*
X144860000Y-125095000D02*
X146665000Y-125095000D01*
X146665000Y-125095000D02*
X146685000Y-125075000D01*
%TO.N,Net-(C10-Pad2)*%
X157910000Y-131445000D02*
X159385000Y-131445000D01*
X165100000Y-126825000D02*
X173990000Y-126825000D01*
X140335000Y-135335000D02*
X140335000Y-138684000D01*
X140335000Y-138684000D02*
X141224000Y-139573000D01*
X147955000Y-129540000D02*
X142855000Y-129540000D01*
X142855000Y-129540000D02*
X142240000Y-130155000D01*
X141050000Y-134620000D02*
X140335000Y-135335000D01*
X147955000Y-134620000D02*
X141050000Y-134620000D01*
X136780000Y-134620000D02*
X139620000Y-134620000D01*
X139620000Y-134620000D02*
X140335000Y-135335000D01*
X146685000Y-122575000D02*
X147935000Y-122575000D01*
X147935000Y-122575000D02*
X147955000Y-122555000D01*
X147955000Y-129540000D02*
X147935000Y-129520000D01*
X136780000Y-129540000D02*
X139720000Y-129540000D01*
X139720000Y-129540000D02*
X140335000Y-130155000D01*
X140335000Y-130155000D02*
X142240000Y-130155000D01*
X144860000Y-122555000D02*
X146665000Y-122555000D01*
X146665000Y-122555000D02*
X146685000Y-122575000D01*
D50*
%TO.N,+5V*%
X122555000Y-125460000D02*
X90027000Y-125460000D01*
X90027000Y-125460000D02*
X82550000Y-117983000D01*
X124460000Y-125460000D02*
X125460000Y-125460000D01*
X125730000Y-125730000D02*
X127380000Y-125730000D01*
X125460000Y-125460000D02*
X125730000Y-125730000D01*
X122555000Y-125460000D02*
X124460000Y-125460000D01*
%TO.N,+3V3*%
X121285000Y-123190000D02*
X113157000Y-123190000D01*
X113157000Y-123190000D02*
X107950000Y-117983000D01*
X123555000Y-127635000D02*
X123555000Y-129540000D01*
X125095000Y-127000000D02*
X124190000Y-127000000D01*
X124190000Y-127000000D02*
X123555000Y-127635000D01*
X127380000Y-127000000D02*
X125095000Y-127000000D01*
D49*
X80700000Y-110304998D02*
X81489998Y-109515000D01*
X80700000Y-110865000D02*
X80700000Y-110304998D01*
X82700000Y-108940000D02*
X82700000Y-108065000D01*
X82125000Y-109515000D02*
X82700000Y-108940000D01*
X81489998Y-109515000D02*
X82125000Y-109515000D01*
X82700000Y-108065000D02*
X83100000Y-108065000D01*
X83100000Y-108065000D02*
X84150000Y-107015000D01*
X104050000Y-111415000D02*
X105943404Y-111415000D01*
X105943404Y-111415000D02*
X106996702Y-110361702D01*
X107950000Y-112715000D02*
X107950000Y-117983000D01*
X107251298Y-112016298D02*
X107950000Y-112715000D01*
%TO.N,/Array_Voltage*%
X77460000Y-111860000D02*
X77460000Y-112750000D01*
X77210000Y-113000000D02*
X77210000Y-113765000D01*
X77460000Y-112750000D02*
X77210000Y-113000000D01*
X90170000Y-117983000D02*
X88102000Y-115915000D01*
X79360000Y-115915000D02*
X77210000Y-113765000D01*
X88102000Y-115915000D02*
X79360000Y-115915000D01*
X82700000Y-105565000D02*
X82700000Y-106365000D01*
X82700000Y-106365000D02*
X82250000Y-106815000D01*
X81175000Y-106815000D02*
X80800000Y-107190000D01*
X80800000Y-107190000D02*
X80800000Y-108065000D01*
X82250000Y-106815000D02*
X81175000Y-106815000D01*
X82700000Y-104690000D02*
X82700000Y-105565000D01*
X80980000Y-102970000D02*
X82700000Y-104690000D01*
X77080000Y-102970000D02*
X80980000Y-102970000D01*
X80800000Y-108520000D02*
X77460000Y-111860000D01*
X80800000Y-108065000D02*
X80800000Y-108520000D01*
%TO.N,/Battery_Voltage*%
X88395000Y-113665000D02*
X88395000Y-115065000D01*
X92710000Y-116205000D02*
X92710000Y-117983000D01*
X92075000Y-115570000D02*
X92710000Y-116205000D01*
X88900000Y-115570000D02*
X92075000Y-115570000D01*
X88395000Y-115065000D02*
X88900000Y-115570000D01*
X88645000Y-111760000D02*
X88645000Y-112650000D01*
X88395000Y-112900000D02*
X88395000Y-113665000D01*
X88645000Y-112650000D02*
X88395000Y-112900000D01*
X82600000Y-110865000D02*
X82600000Y-111565000D01*
X82600000Y-111565000D02*
X82050000Y-112115000D01*
X80700000Y-112490000D02*
X80700000Y-113365000D01*
X81075000Y-112115000D02*
X80700000Y-112490000D01*
X82050000Y-112115000D02*
X81075000Y-112115000D01*
X88345000Y-115115000D02*
X88395000Y-115065000D01*
X81489998Y-115115000D02*
X88345000Y-115115000D01*
X80700000Y-113365000D02*
X80700000Y-114325002D01*
X80700000Y-114325002D02*
X81489998Y-115115000D01*
X88265000Y-102870000D02*
X90050000Y-104655000D01*
X90050000Y-110355000D02*
X88645000Y-111760000D01*
X90050000Y-104655000D02*
X90050000Y-110355000D01*
%TO.N,/Array_Current*%
X95380000Y-113665000D02*
X95380000Y-115440000D01*
X95250000Y-115570000D02*
X95250000Y-117983000D01*
X95380000Y-115440000D02*
X95250000Y-115570000D01*
X95330000Y-106680000D02*
X95330000Y-105490000D01*
X95250000Y-105410000D02*
X95250000Y-102870000D01*
X95330000Y-105490000D02*
X95250000Y-105410000D01*
X95630000Y-111760000D02*
X95630000Y-112650000D01*
X95380000Y-112900000D02*
X95380000Y-113665000D01*
X95630000Y-112650000D02*
X95380000Y-112900000D01*
X95230000Y-109220000D02*
X95230000Y-110470000D01*
X95630000Y-110870000D02*
X95630000Y-111760000D01*
X95230000Y-110470000D02*
X95630000Y-110870000D01*
X95330000Y-106680000D02*
X95330000Y-107870000D01*
X95230000Y-107970000D02*
X95230000Y-109220000D01*
X95330000Y-107870000D02*
X95230000Y-107970000D01*
%TO.N,/Battery_Current*%
X102365000Y-113665000D02*
X102365000Y-114805000D01*
X102365000Y-114805000D02*
X101600000Y-115570000D01*
X97790000Y-116205000D02*
X97790000Y-117983000D01*
X98425000Y-115570000D02*
X97790000Y-116205000D01*
X101600000Y-115570000D02*
X98425000Y-115570000D01*
X102615000Y-111760000D02*
X102615000Y-112650000D01*
X102365000Y-112900000D02*
X102365000Y-113665000D01*
X102615000Y-112650000D02*
X102365000Y-112900000D01*
X102215000Y-109220000D02*
X102215000Y-110470000D01*
X102615000Y-110870000D02*
X102615000Y-111760000D01*
X102215000Y-110470000D02*
X102615000Y-110870000D01*
X102315000Y-106680000D02*
X102315000Y-107870000D01*
X102215000Y-107970000D02*
X102215000Y-109220000D01*
X102315000Y-107870000D02*
X102215000Y-107970000D01*
X102315000Y-106680000D02*
X102315000Y-105490000D01*
X102235000Y-105410000D02*
X102235000Y-102870000D01*
X102315000Y-105490000D02*
X102235000Y-105410000D01*
D52*
%TO.N,Net-(C23-Pad2)*%
X62230000Y-136505000D02*
X62230000Y-138430000D01*
X62230000Y-138430000D02*
X60325000Y-140335000D01*
%TO.N,+12V*%
X45880000Y-127000000D02*
X45880000Y-125255000D01*
X45085000Y-124460000D02*
X45880000Y-125255000D01*
X45085000Y-124460000D02*
X43180000Y-124460000D01*
X45880000Y-127000000D02*
X48260000Y-127000000D01*
X48895000Y-127635000D02*
X48895000Y-129460000D01*
X48260000Y-127000000D02*
X48895000Y-127635000D01*
D50*
X34290000Y-117475000D02*
X35560000Y-118745000D01*
X35560000Y-118745000D02*
X45005000Y-118745000D01*
D51*
%TO.N,Net-(D1-Pad2)*%
X140335000Y-50165000D02*
X141605000Y-51435000D01*
X141605000Y-51435000D02*
X141605000Y-64135000D01*
X130385000Y-84836000D02*
X130385000Y-75355000D01*
X130385000Y-75355000D02*
X141605000Y-64135000D01*
X141605000Y-64135000D02*
X163830000Y-64135000D01*
D53*
X141605000Y-84836000D02*
X149225000Y-84836000D01*
X130385000Y-84836000D02*
X141605000Y-84836000D01*
D51*
X163830000Y-64135000D02*
X167894000Y-64135000D01*
X179578000Y-52451000D02*
X179578000Y-42799000D01*
X167894000Y-64135000D02*
X179578000Y-52451000D01*
D52*
%TO.N,/Drive_PWM*%
X159385000Y-90286000D02*
X160612000Y-89059000D01*
X160612000Y-89059000D02*
X163830000Y-89059000D01*
X156210000Y-90286000D02*
X159385000Y-90286000D01*
X149225000Y-90286000D02*
X156210000Y-90286000D01*
D49*
X163830000Y-89059000D02*
X163862000Y-89027000D01*
X163862000Y-89027000D02*
X168910000Y-89027000D01*
%TO.N,/PWM*%
X163446000Y-108207000D02*
X163452000Y-108207000D01*
X171069000Y-111760000D02*
X176530000Y-106299000D01*
X165100000Y-111760000D02*
X171069000Y-111760000D01*
X164465000Y-111125000D02*
X165100000Y-111760000D01*
X164465000Y-109220000D02*
X164465000Y-111125000D01*
X163452000Y-108207000D02*
X164465000Y-109220000D01*
X163195000Y-101887000D02*
X164465000Y-101887000D01*
X163196000Y-104775000D02*
X163195000Y-104774000D01*
X163195000Y-104774000D02*
X163195000Y-101887000D01*
X163446000Y-107315000D02*
X163196000Y-107065000D01*
X163196000Y-107065000D02*
X163196000Y-104775000D01*
X162433000Y-109220000D02*
X163446000Y-108207000D01*
X162433000Y-109220000D02*
X109093000Y-109220000D01*
X100330000Y-117983000D02*
X109093000Y-109220000D01*
X163446000Y-108207000D02*
X163446000Y-107315000D01*
X101520000Y-144145000D02*
X100330000Y-144145000D01*
X99060000Y-123825000D02*
X99060000Y-121158000D01*
X100330000Y-119888000D02*
X100330000Y-117983000D01*
X99060000Y-131953000D02*
X99060000Y-142875000D01*
X100330000Y-119888000D02*
X99060000Y-121158000D01*
X100330000Y-144145000D02*
X99060000Y-142875000D01*
D51*
%TO.N,Net-(F1-Pad1)*%
X48260000Y-43815000D02*
X55245000Y-43815000D01*
X55245000Y-43815000D02*
X57785000Y-41275000D01*
X43180000Y-43815000D02*
X48260000Y-43815000D01*
X40640000Y-43815000D02*
X43180000Y-43815000D01*
D50*
%TO.N,/-Arr*%
X54610000Y-100330000D02*
X52070000Y-100330000D01*
X48260000Y-96520000D02*
X48260000Y-92710000D01*
X52070000Y-100330000D02*
X48260000Y-96520000D01*
X53340000Y-90250000D02*
X50880000Y-92710000D01*
X50880000Y-92710000D02*
X48260000Y-92710000D01*
%TO.N,/-Batt*%
X65405000Y-47545000D02*
X65405000Y-40640000D01*
X66040000Y-40005000D02*
X66040000Y-35560000D01*
X65405000Y-40640000D02*
X66040000Y-40005000D01*
X65405000Y-47545000D02*
X58500000Y-47545000D01*
X54610000Y-51435000D02*
X48260000Y-51435000D01*
X58500000Y-47545000D02*
X54610000Y-51435000D01*
D49*
%TO.N,Net-(J4-Pad4)*%
X154510000Y-132395000D02*
X154510000Y-137619000D01*
X154510000Y-137619000D02*
X156464000Y-139573000D01*
X165100000Y-132825000D02*
X173990000Y-132825000D01*
X154510000Y-132395000D02*
X154940000Y-132825000D01*
X154940000Y-132825000D02*
X165100000Y-132825000D01*
X151765000Y-127715000D02*
X151765000Y-128905000D01*
X154195000Y-132080000D02*
X151765000Y-132080000D01*
X151765000Y-132080000D02*
X144145000Y-132080000D01*
X138430000Y-132080000D02*
X136780000Y-132080000D01*
X154195000Y-132080000D02*
X154510000Y-132395000D01*
%TO.N,Net-(J4-Pad3)*%
X165100000Y-129825000D02*
X173990000Y-129825000D01*
X154510000Y-130495000D02*
X155180000Y-129825000D01*
X155180000Y-129825000D02*
X165100000Y-129825000D01*
X154510000Y-130495000D02*
X154510000Y-129745000D01*
X154305000Y-129540000D02*
X154305000Y-127715000D01*
X154510000Y-129745000D02*
X154305000Y-129540000D01*
X154195000Y-130810000D02*
X150495000Y-130810000D01*
X150495000Y-130810000D02*
X144145000Y-130810000D01*
X138430000Y-130810000D02*
X136780000Y-130810000D01*
X154195000Y-130810000D02*
X154510000Y-130495000D01*
%TO.N,Net-(JP1-Pad1)*%
X151765000Y-125015000D02*
X151765000Y-121920000D01*
%TO.N,Net-(JP1-Pad2)*%
X154305000Y-125015000D02*
X154305000Y-121920000D01*
D50*
%TO.N,Net-(LED1-Pad2)*%
X53340000Y-85185000D02*
X53340000Y-87550000D01*
%TO.N,Net-(LED2-Pad2)*%
X65405000Y-52610000D02*
X65405000Y-50245000D01*
%TO.N,Net-(LED3-Pad2)*%
X47705000Y-118745000D02*
X47705000Y-121285000D01*
D49*
%TO.N,Net-(LED4-Pad2)*%
X104220000Y-137795000D02*
X106600000Y-137795000D01*
%TO.N,Net-(LED5-Pad2)*%
X104220000Y-140970000D02*
X106600000Y-140970000D01*
%TO.N,Net-(LED6-Pad2)*%
X104220000Y-144145000D02*
X106600000Y-144145000D01*
D50*
%TO.N,Net-(LED7-Pad2)*%
X60405000Y-122555000D02*
X60405000Y-125095000D01*
D49*
%TO.N,Net-(LED8-Pad2)*%
X122555000Y-111680000D02*
X120015000Y-111680000D01*
%TO.N,Net-(LED9-Pad2)*%
X125095000Y-111680000D02*
X127635000Y-111680000D01*
D52*
%TO.N,Net-(R7-Pad2)*%
X163830000Y-95123000D02*
X163830000Y-93059000D01*
D50*
X164465000Y-96487000D02*
X164465000Y-95758000D01*
X164465000Y-95758000D02*
X163830000Y-95123000D01*
X163195000Y-96487000D02*
X163195000Y-95758000D01*
X163195000Y-95758000D02*
X163830000Y-95123000D01*
D49*
%TO.N,/Battery_Full*%
X102235000Y-135890000D02*
X109220000Y-135890000D01*
X101520000Y-136605000D02*
X102235000Y-135890000D01*
X101520000Y-137795000D02*
X101520000Y-136605000D01*
X110490000Y-134620000D02*
X110490000Y-133223000D01*
X109220000Y-135890000D02*
X110490000Y-134620000D01*
X110490000Y-133223000D02*
X110490000Y-133223000D01*
%TO.N,/Tracking*%
X101520000Y-140970000D02*
X100330000Y-140970000D01*
X107950000Y-134239000D02*
X106934000Y-135255000D01*
X106934000Y-135255000D02*
X100584000Y-135255000D01*
X100584000Y-135255000D02*
X99695000Y-136144000D01*
X99695000Y-136144000D02*
X99695000Y-140335000D01*
X107950000Y-134239000D02*
X107950000Y-133223000D01*
X100330000Y-140970000D02*
X99695000Y-140335000D01*
%TO.N,Net-(R18-Pad1)*%
X55245000Y-94615000D02*
X59690000Y-99060000D01*
X55245000Y-89535000D02*
X55245000Y-94615000D01*
X92630000Y-101520000D02*
X92630000Y-106680000D01*
X90170000Y-99060000D02*
X92630000Y-101520000D01*
X68580000Y-99060000D02*
X90170000Y-99060000D01*
X59690000Y-99060000D02*
X62865000Y-99060000D01*
%TO.N,Net-(R19-Pad1)*%
X99615000Y-106680000D02*
X99615000Y-102155000D01*
X95885000Y-98425000D02*
X99615000Y-102155000D01*
X67945000Y-98425000D02*
X95885000Y-98425000D01*
X66040000Y-85725000D02*
X67310000Y-86995000D01*
X67310000Y-86995000D02*
X67310000Y-97790000D01*
X67310000Y-97790000D02*
X67945000Y-98425000D01*
%TO.N,/CAN_Tx*%
X121285000Y-118110000D02*
X122555000Y-116840000D01*
X122555000Y-116840000D02*
X122555000Y-114380000D01*
X85090000Y-133223000D02*
X87503000Y-130810000D01*
X87503000Y-130810000D02*
X118745000Y-130810000D01*
X118745000Y-130810000D02*
X127380000Y-130810000D01*
%TO.N,/CAN_Rx*%
X127380000Y-128270000D02*
X125730000Y-128270000D01*
X125730000Y-128270000D02*
X125095000Y-128905000D01*
X107188000Y-131445000D02*
X125095000Y-131445000D01*
X105410000Y-133223000D02*
X107188000Y-131445000D01*
X126365000Y-118110000D02*
X125095000Y-116840000D01*
X125095000Y-116840000D02*
X125095000Y-114380000D01*
%TO.N,/Reset*%
X75620000Y-137010000D02*
X78255000Y-137010000D01*
X80010000Y-135255000D02*
X80010000Y-133223000D01*
X78255000Y-137010000D02*
X80010000Y-135255000D01*
X75620000Y-143510000D02*
X75620000Y-137010000D01*
X80010000Y-117983000D02*
X80010000Y-121285000D01*
X80010000Y-125095000D02*
X80010000Y-133223000D01*
%TO.N,Net-(SW2-Pad5)*%
X95250000Y-136779000D02*
X95250000Y-133223000D01*
%TO.N,Net-(SW2-Pad6)*%
X92710000Y-136779000D02*
X92710000Y-133223000D01*
%TO.N,Net-(SW2-Pad7)*%
X90170000Y-136779000D02*
X90170000Y-133223000D01*
%TO.N,Net-(SW2-Pad8)*%
X87630000Y-136779000D02*
X87630000Y-133223000D01*
%TO.N,Net-(R25-Pad1)*%
X136780000Y-133350000D02*
X139620000Y-133350000D01*
X139620000Y-133350000D02*
X140335000Y-132635000D01*
%TO.N,Net-(R23-Pad1)*%
X60960000Y-88170000D02*
X62135000Y-88170000D01*
X62135000Y-88170000D02*
X62865000Y-88900000D01*
D50*
X60960000Y-85185000D02*
X60960000Y-88170000D01*
D49*
X66040000Y-99060000D02*
X66040000Y-88900000D01*
X67410000Y-100430000D02*
X66040000Y-99060000D01*
X72635000Y-100430000D02*
X67410000Y-100430000D01*
X74460000Y-106780000D02*
X74460000Y-102255000D01*
X74460000Y-102255000D02*
X72635000Y-100430000D01*
%TO.N,Net-(R24-Pad1)*%
X72390000Y-57055000D02*
X70580000Y-57055000D01*
X70580000Y-57055000D02*
X69850000Y-57785000D01*
D50*
X72390000Y-54070000D02*
X72390000Y-57055000D01*
D49*
X85645000Y-102155000D02*
X85645000Y-106680000D01*
X83185000Y-99695000D02*
X85645000Y-102155000D01*
X67945000Y-99695000D02*
X83185000Y-99695000D01*
X66675000Y-87630000D02*
X66675000Y-98425000D01*
X66675000Y-98425000D02*
X67945000Y-99695000D01*
%TO.N,Net-(C19-Pad1)*%
X78638610Y-105565000D02*
X77610010Y-106593600D01*
X80800000Y-105565000D02*
X78638610Y-105565000D01*
X77060000Y-107516410D02*
X77478205Y-107098205D01*
X77060000Y-109320000D02*
X77060000Y-107516410D01*
%TO.N,Net-(C20-Pad1)*%
X86940000Y-107915000D02*
X88245000Y-109220000D01*
X87746410Y-107915000D02*
X88663205Y-106998205D01*
X86940000Y-107915000D02*
X87746410Y-107915000D01*
X83829999Y-108235001D02*
X83829999Y-112135001D01*
X84150000Y-107915000D02*
X83829999Y-108235001D01*
X83829999Y-112135001D02*
X82600000Y-113365000D01*
X86940000Y-107915000D02*
X84150000Y-107915000D01*
%TD*%
M02*
