M48
; DRILL file {KiCad 5.1.7-a382d34a8~88~ubuntu18.04.1} date Sat Dec 19 10:48:33 2020
; FORMAT={-:-/ absolute / metric / decimal}
; #@! TF.CreationDate,2020-12-19T10:48:33-06:00
; #@! TF.GenerationSoftware,Kicad,Pcbnew,5.1.7-a382d34a8~88~ubuntu18.04.1
; #@! TF.FileFunction,Plated,1,2,PTH
FMAT,2
METRIC
T1C0.400
T2C0.500
T3C1.000
T4C1.020
T5C1.100
T6C1.321
T7C1.400
T8C1.500
T9C1.600
T10C1.900
T11C2.000
T12C2.500
%
G90
G05
T1
X23.465Y-60.07
X24.715Y-60.17
X27.215Y-67.48
X28.555Y-60.08
X29.815Y-60.13
X30.575Y-59.59
X32.335Y-60.21
X43.16Y-121.965
X46.725Y-77.005
X48.375Y-76.98
X49.69Y-77.025
X54.75Y-73.175
X73.86Y-106.345
X85.625Y-129.105
X106.85Y-129.065
X121.56Y-129.015
T2
X21.89Y-69.435
X23.04Y-69.385
X24.275Y-75.965
X24.325Y-69.39
X26.065Y-69.34
X26.8Y-75.965
X27.79Y-104.565
X27.8Y-111.805
X28.565Y-69.37
X28.65Y-120.065
X28.65Y-123.025
X28.66Y-126.045
X28.68Y-114.075
X28.68Y-117.025
X28.68Y-129.025
X33.075Y-142.23
X34.5Y-146.955
X34.6Y-154.605
X42.425Y-120.055
X44.3Y-120.43
X46.575Y-93.455
X46.675Y-78.03
X46.75Y-79.18
X48.625Y-116.53
X48.675Y-113.93
X50.7Y-68.065
X50.725Y-79.155
X50.8Y-78.005
X51.47Y-58.735
X51.525Y-93.455
X51.9Y-76.98
X51.9Y-79.13
X53.48Y-63.875
X54.75Y-68.14
X57.29Y-63.925
X57.35Y-61.815
X58.07Y-58.555
X59.04Y-70.955
X59.12Y-75.455
X59.675Y-121.405
X60.875Y-100.105
X61.35Y-117.93
X65.25Y-115.255
X65.56Y-97.285
X68.99Y-97.265
X70.0Y-137.155
X73.415Y-136.97
X73.525Y-115.13
X73.525Y-119.005
X74.2Y-97.285
X74.2Y-101.145
X76.605Y-136.05
X88.2Y-127.18
X88.225Y-126.08
X91.9Y-140.305
X105.75Y-137.68
X107.625Y-137.63
X111.11Y-136.995
X114.16Y-136.055
T3
X22.41Y-57.49
X24.95Y-57.49
X37.255Y-135.42
X39.795Y-135.42
X42.335Y-135.42
X47.415Y-135.42
X49.955Y-135.42
X52.495Y-135.42
X55.035Y-135.42
T4
X23.825Y-43.04
X26.825Y-43.04
X29.825Y-43.04
X32.825Y-43.04
X38.795Y-156.04
X41.795Y-156.04
X23.825Y-50.88
X26.825Y-50.88
X29.825Y-50.88
X32.825Y-50.88
X40.27Y-88.37
X40.27Y-90.91
X40.27Y-93.45
X40.27Y-95.99
X40.27Y-98.53
X40.27Y-101.07
X40.27Y-103.61
X40.27Y-106.15
X40.27Y-108.69
X40.27Y-111.23
X40.27Y-113.77
X40.27Y-116.31
X40.27Y-118.85
X40.27Y-121.39
X40.27Y-123.93
X55.51Y-88.37
X55.51Y-90.91
X55.51Y-93.45
X55.51Y-95.99
X55.51Y-98.53
X55.51Y-101.07
X55.51Y-103.61
X55.51Y-106.15
X55.51Y-108.69
X55.51Y-111.23
X55.51Y-113.77
X55.51Y-116.31
X55.51Y-118.85
X55.51Y-121.39
X55.51Y-123.93
T5
X95.21Y-41.975
X95.21Y-47.055
X87.364Y-85.568
X92.444Y-85.568
X118.92Y-28.255
X118.92Y-43.255
X104.63Y-41.985
X104.63Y-47.065
X31.325Y-95.305
X31.325Y-101.805
X35.825Y-95.305
X35.825Y-101.805
X87.364Y-76.424
X92.444Y-76.424
T6
X74.535Y-143.66
X74.535Y-148.74
X74.535Y-151.28
X82.155Y-143.66
X82.155Y-148.74
X82.155Y-151.28
X111.99Y-143.665
X111.99Y-148.745
X111.99Y-151.285
X119.61Y-143.665
X119.61Y-148.745
X119.61Y-151.285
T7
X101.14Y-134.445
X125.24Y-134.445
X63.665Y-134.48
X87.765Y-134.48
T8
X67.96Y-38.925
X67.96Y-44.375
X67.96Y-49.825
X75.75Y-38.925
X75.75Y-44.375
X75.75Y-49.825
T9
X97.05Y-154.055
X62.06Y-70.255
X71.84Y-111.005
X127.28Y-28.965
X39.725Y-59.34
X39.675Y-49.19
X62.14Y-75.295
X75.75Y-124.205
X63.685Y-90.84
X93.3Y-136.105
X39.59Y-69.49
X39.65Y-64.39
X33.0Y-75.465
X127.27Y-42.185
X39.55Y-74.515
X134.525Y-151.955
X127.24Y-35.575
X39.625Y-44.015
X49.59Y-72.785
X55.445Y-156.91
X67.06Y-106.605
X130.775Y-136.18
X67.04Y-125.515
X46.975Y-145.07
X55.445Y-149.76
X39.725Y-54.265
X53.51Y-54.295
X48.675Y-156.85
T10
X115.96Y-70.255
X137.76Y-70.255
T11
X86.77Y-111.655
X96.77Y-111.655
X119.85Y-111.605
X129.85Y-111.605
T12
X71.899Y-31.719
X71.899Y-57.119
X77.204Y-80.996
X102.604Y-80.996
X99.92Y-31.815
X99.92Y-57.215
T0
M30
