%TF.GenerationSoftware,KiCad,Pcbnew,(5.1.9)-1*%
%TF.CreationDate,2021-04-03T20:29:17-05:00*%
%TF.ProjectId,MPPT,4d505054-2e6b-4696-9361-645f70636258,1.3.0*%
%TF.SameCoordinates,Original*%
%TF.FileFunction,Soldermask,Top*%
%TF.FilePolarity,Negative*%
%FSLAX46Y46*%
G04 Gerber Fmt 4.6, Leading zero omitted, Abs format (unit mm)*
G04 Created by KiCad (PCBNEW (5.1.9)-1) date 2021-04-03 20:29:17*
%MOMM*%
%LPD*%
G01*
G04 APERTURE LIST*
%ADD10C,2.200000*%
%ADD11O,2.000000X2.000000*%
%ADD12R,2.000000X2.000000*%
%ADD13R,1.100000X1.100000*%
%ADD14C,2.800000*%
%ADD15C,4.000000*%
%ADD16C,3.200000*%
%ADD17R,0.650000X1.800000*%
%ADD18R,2.160000X1.520000*%
%ADD19C,2.000000*%
%ADD20R,0.800000X0.900000*%
%ADD21C,1.508000*%
%ADD22R,1.508000X1.508000*%
%ADD23O,1.700000X1.700000*%
%ADD24R,1.700000X1.700000*%
%ADD25O,1.500000X2.020000*%
%ADD26C,1.270000*%
%ADD27O,4.500000X2.500000*%
%ADD28R,4.500000X2.500000*%
%ADD29R,1.060000X0.650000*%
%ADD30C,3.800000*%
%ADD31C,2.286000*%
%ADD32R,1.530000X1.530000*%
%ADD33C,1.530000*%
%ADD34C,2.500000*%
%ADD35R,4.000000X4.000000*%
G04 APERTURE END LIST*
D10*
%TO.C,C9*%
X118920000Y-28255000D03*
X118920000Y-43255000D03*
%TD*%
D11*
%TO.C,R13*%
X104630000Y-41985000D03*
D12*
X104630000Y-47065000D03*
%TD*%
D13*
%TO.C,D3*%
X56270000Y-58575000D03*
X53470000Y-58575000D03*
%TD*%
D14*
%TO.C,TP13*%
X53510000Y-54295000D03*
%TD*%
D15*
%TO.C,HS2*%
X99920000Y-31815000D03*
X99920000Y-57215000D03*
%TD*%
%TO.C,R1*%
G36*
G01*
X50149998Y-65840000D02*
X51050002Y-65840000D01*
G75*
G02*
X51300000Y-66089998I0J-249998D01*
G01*
X51300000Y-66615002D01*
G75*
G02*
X51050002Y-66865000I-249998J0D01*
G01*
X50149998Y-66865000D01*
G75*
G02*
X49900000Y-66615002I0J249998D01*
G01*
X49900000Y-66089998D01*
G75*
G02*
X50149998Y-65840000I249998J0D01*
G01*
G37*
G36*
G01*
X50149998Y-64015000D02*
X51050002Y-64015000D01*
G75*
G02*
X51300000Y-64264998I0J-249998D01*
G01*
X51300000Y-64790002D01*
G75*
G02*
X51050002Y-65040000I-249998J0D01*
G01*
X50149998Y-65040000D01*
G75*
G02*
X49900000Y-64790002I0J249998D01*
G01*
X49900000Y-64264998D01*
G75*
G02*
X50149998Y-64015000I249998J0D01*
G01*
G37*
%TD*%
%TO.C,C1*%
G36*
G01*
X55910000Y-74820000D02*
X55910000Y-75770000D01*
G75*
G02*
X55660000Y-76020000I-250000J0D01*
G01*
X55160000Y-76020000D01*
G75*
G02*
X54910000Y-75770000I0J250000D01*
G01*
X54910000Y-74820000D01*
G75*
G02*
X55160000Y-74570000I250000J0D01*
G01*
X55660000Y-74570000D01*
G75*
G02*
X55910000Y-74820000I0J-250000D01*
G01*
G37*
G36*
G01*
X57810000Y-74820000D02*
X57810000Y-75770000D01*
G75*
G02*
X57560000Y-76020000I-250000J0D01*
G01*
X57060000Y-76020000D01*
G75*
G02*
X56810000Y-75770000I0J250000D01*
G01*
X56810000Y-74820000D01*
G75*
G02*
X57060000Y-74570000I250000J0D01*
G01*
X57560000Y-74570000D01*
G75*
G02*
X57810000Y-74820000I0J-250000D01*
G01*
G37*
%TD*%
%TO.C,LED2*%
G36*
G01*
X97506250Y-148755000D02*
X96593750Y-148755000D01*
G75*
G02*
X96350000Y-148511250I0J243750D01*
G01*
X96350000Y-148023750D01*
G75*
G02*
X96593750Y-147780000I243750J0D01*
G01*
X97506250Y-147780000D01*
G75*
G02*
X97750000Y-148023750I0J-243750D01*
G01*
X97750000Y-148511250D01*
G75*
G02*
X97506250Y-148755000I-243750J0D01*
G01*
G37*
G36*
G01*
X97506250Y-150630000D02*
X96593750Y-150630000D01*
G75*
G02*
X96350000Y-150386250I0J243750D01*
G01*
X96350000Y-149898750D01*
G75*
G02*
X96593750Y-149655000I243750J0D01*
G01*
X97506250Y-149655000D01*
G75*
G02*
X97750000Y-149898750I0J-243750D01*
G01*
X97750000Y-150386250D01*
G75*
G02*
X97506250Y-150630000I-243750J0D01*
G01*
G37*
%TD*%
D16*
%TO.C,H4*%
X22500000Y-22470000D03*
%TD*%
%TO.C,H3*%
X137500000Y-22470000D03*
%TD*%
%TO.C,H2*%
X22500000Y-157470000D03*
%TD*%
%TO.C,C4*%
G36*
G01*
X36525000Y-148389999D02*
X36525000Y-150590001D01*
G75*
G02*
X36275001Y-150840000I-249999J0D01*
G01*
X35624999Y-150840000D01*
G75*
G02*
X35375000Y-150590001I0J249999D01*
G01*
X35375000Y-148389999D01*
G75*
G02*
X35624999Y-148140000I249999J0D01*
G01*
X36275001Y-148140000D01*
G75*
G02*
X36525000Y-148389999I0J-249999D01*
G01*
G37*
G36*
G01*
X39475000Y-148389999D02*
X39475000Y-150590001D01*
G75*
G02*
X39225001Y-150840000I-249999J0D01*
G01*
X38574999Y-150840000D01*
G75*
G02*
X38325000Y-150590001I0J249999D01*
G01*
X38325000Y-148389999D01*
G75*
G02*
X38574999Y-148140000I249999J0D01*
G01*
X39225001Y-148140000D01*
G75*
G02*
X39475000Y-148389999I0J-249999D01*
G01*
G37*
%TD*%
%TO.C,C7*%
G36*
G01*
X51475001Y-149470000D02*
X49274999Y-149470000D01*
G75*
G02*
X49025000Y-149220001I0J249999D01*
G01*
X49025000Y-148569999D01*
G75*
G02*
X49274999Y-148320000I249999J0D01*
G01*
X51475001Y-148320000D01*
G75*
G02*
X51725000Y-148569999I0J-249999D01*
G01*
X51725000Y-149220001D01*
G75*
G02*
X51475001Y-149470000I-249999J0D01*
G01*
G37*
G36*
G01*
X51475001Y-152420000D02*
X49274999Y-152420000D01*
G75*
G02*
X49025000Y-152170001I0J249999D01*
G01*
X49025000Y-151519999D01*
G75*
G02*
X49274999Y-151270000I249999J0D01*
G01*
X51475001Y-151270000D01*
G75*
G02*
X51725000Y-151519999I0J-249999D01*
G01*
X51725000Y-152170001D01*
G75*
G02*
X51475001Y-152420000I-249999J0D01*
G01*
G37*
%TD*%
%TO.C,C6*%
G36*
G01*
X55435000Y-145705000D02*
X55435000Y-144755000D01*
G75*
G02*
X55685000Y-144505000I250000J0D01*
G01*
X56185000Y-144505000D01*
G75*
G02*
X56435000Y-144755000I0J-250000D01*
G01*
X56435000Y-145705000D01*
G75*
G02*
X56185000Y-145955000I-250000J0D01*
G01*
X55685000Y-145955000D01*
G75*
G02*
X55435000Y-145705000I0J250000D01*
G01*
G37*
G36*
G01*
X53535000Y-145705000D02*
X53535000Y-144755000D01*
G75*
G02*
X53785000Y-144505000I250000J0D01*
G01*
X54285000Y-144505000D01*
G75*
G02*
X54535000Y-144755000I0J-250000D01*
G01*
X54535000Y-145705000D01*
G75*
G02*
X54285000Y-145955000I-250000J0D01*
G01*
X53785000Y-145955000D01*
G75*
G02*
X53535000Y-145705000I0J250000D01*
G01*
G37*
%TD*%
%TO.C,C5*%
G36*
G01*
X36505000Y-144139999D02*
X36505000Y-146340001D01*
G75*
G02*
X36255001Y-146590000I-249999J0D01*
G01*
X35604999Y-146590000D01*
G75*
G02*
X35355000Y-146340001I0J249999D01*
G01*
X35355000Y-144139999D01*
G75*
G02*
X35604999Y-143890000I249999J0D01*
G01*
X36255001Y-143890000D01*
G75*
G02*
X36505000Y-144139999I0J-249999D01*
G01*
G37*
G36*
G01*
X39455000Y-144139999D02*
X39455000Y-146340001D01*
G75*
G02*
X39205001Y-146590000I-249999J0D01*
G01*
X38554999Y-146590000D01*
G75*
G02*
X38305000Y-146340001I0J249999D01*
G01*
X38305000Y-144139999D01*
G75*
G02*
X38554999Y-143890000I249999J0D01*
G01*
X39205001Y-143890000D01*
G75*
G02*
X39455000Y-144139999I0J-249999D01*
G01*
G37*
%TD*%
%TO.C,R11*%
G36*
G01*
X36020000Y-114535002D02*
X36020000Y-113634998D01*
G75*
G02*
X36269998Y-113385000I249998J0D01*
G01*
X36795002Y-113385000D01*
G75*
G02*
X37045000Y-113634998I0J-249998D01*
G01*
X37045000Y-114535002D01*
G75*
G02*
X36795002Y-114785000I-249998J0D01*
G01*
X36269998Y-114785000D01*
G75*
G02*
X36020000Y-114535002I0J249998D01*
G01*
G37*
G36*
G01*
X34195000Y-114535002D02*
X34195000Y-113634998D01*
G75*
G02*
X34444998Y-113385000I249998J0D01*
G01*
X34970002Y-113385000D01*
G75*
G02*
X35220000Y-113634998I0J-249998D01*
G01*
X35220000Y-114535002D01*
G75*
G02*
X34970002Y-114785000I-249998J0D01*
G01*
X34444998Y-114785000D01*
G75*
G02*
X34195000Y-114535002I0J249998D01*
G01*
G37*
%TD*%
%TO.C,LED10*%
G36*
G01*
X31600000Y-114551250D02*
X31600000Y-113638750D01*
G75*
G02*
X31843750Y-113395000I243750J0D01*
G01*
X32331250Y-113395000D01*
G75*
G02*
X32575000Y-113638750I0J-243750D01*
G01*
X32575000Y-114551250D01*
G75*
G02*
X32331250Y-114795000I-243750J0D01*
G01*
X31843750Y-114795000D01*
G75*
G02*
X31600000Y-114551250I0J243750D01*
G01*
G37*
G36*
G01*
X29725000Y-114551250D02*
X29725000Y-113638750D01*
G75*
G02*
X29968750Y-113395000I243750J0D01*
G01*
X30456250Y-113395000D01*
G75*
G02*
X30700000Y-113638750I0J-243750D01*
G01*
X30700000Y-114551250D01*
G75*
G02*
X30456250Y-114795000I-243750J0D01*
G01*
X29968750Y-114795000D01*
G75*
G02*
X29725000Y-114551250I0J243750D01*
G01*
G37*
%TD*%
D17*
%TO.C,U8*%
X22180000Y-61825000D03*
X23450000Y-61825000D03*
X24720000Y-61825000D03*
X25990000Y-61825000D03*
X27260000Y-61825000D03*
X28530000Y-61825000D03*
X29800000Y-61825000D03*
X31070000Y-61825000D03*
X32340000Y-61825000D03*
X33610000Y-61825000D03*
X33610000Y-71275000D03*
X32340000Y-71275000D03*
X31070000Y-71275000D03*
X29800000Y-71275000D03*
X28530000Y-71275000D03*
X27260000Y-71275000D03*
X25990000Y-71275000D03*
X24720000Y-71275000D03*
X23450000Y-71275000D03*
X22180000Y-71275000D03*
%TD*%
D18*
%TO.C,SW2*%
X36050000Y-109515000D03*
X36050000Y-106975000D03*
X27790000Y-109515000D03*
X27790000Y-106975000D03*
%TD*%
D19*
%TO.C,SW1*%
X35825000Y-101805000D03*
X31325000Y-101805000D03*
X35825000Y-95305000D03*
X31325000Y-95305000D03*
%TD*%
%TO.C,R2*%
G36*
G01*
X134985002Y-141247500D02*
X133734998Y-141247500D01*
G75*
G02*
X133485000Y-140997502I0J249998D01*
G01*
X133485000Y-140372498D01*
G75*
G02*
X133734998Y-140122500I249998J0D01*
G01*
X134985002Y-140122500D01*
G75*
G02*
X135235000Y-140372498I0J-249998D01*
G01*
X135235000Y-140997502D01*
G75*
G02*
X134985002Y-141247500I-249998J0D01*
G01*
G37*
G36*
G01*
X134985002Y-144172500D02*
X133734998Y-144172500D01*
G75*
G02*
X133485000Y-143922502I0J249998D01*
G01*
X133485000Y-143297498D01*
G75*
G02*
X133734998Y-143047500I249998J0D01*
G01*
X134985002Y-143047500D01*
G75*
G02*
X135235000Y-143297498I0J-249998D01*
G01*
X135235000Y-143922502D01*
G75*
G02*
X134985002Y-144172500I-249998J0D01*
G01*
G37*
%TD*%
%TO.C,LED1*%
G36*
G01*
X134981250Y-146705000D02*
X134068750Y-146705000D01*
G75*
G02*
X133825000Y-146461250I0J243750D01*
G01*
X133825000Y-145973750D01*
G75*
G02*
X134068750Y-145730000I243750J0D01*
G01*
X134981250Y-145730000D01*
G75*
G02*
X135225000Y-145973750I0J-243750D01*
G01*
X135225000Y-146461250D01*
G75*
G02*
X134981250Y-146705000I-243750J0D01*
G01*
G37*
G36*
G01*
X134981250Y-148580000D02*
X134068750Y-148580000D01*
G75*
G02*
X133825000Y-148336250I0J243750D01*
G01*
X133825000Y-147848750D01*
G75*
G02*
X134068750Y-147605000I243750J0D01*
G01*
X134981250Y-147605000D01*
G75*
G02*
X135225000Y-147848750I0J-243750D01*
G01*
X135225000Y-148336250D01*
G75*
G02*
X134981250Y-148580000I-243750J0D01*
G01*
G37*
%TD*%
D20*
%TO.C,U9*%
X30675000Y-56550000D03*
X31625000Y-58550000D03*
X29725000Y-58550000D03*
%TD*%
D21*
%TO.C,U3*%
X55035000Y-135420000D03*
X52495000Y-135420000D03*
X49955000Y-135420000D03*
X47415000Y-135420000D03*
X42335000Y-135420000D03*
X39795000Y-135420000D03*
D22*
X37255000Y-135420000D03*
%TD*%
%TO.C,U2*%
G36*
G01*
X53620000Y-66990000D02*
X53320000Y-66990000D01*
G75*
G02*
X53170000Y-66840000I0J150000D01*
G01*
X53170000Y-65190000D01*
G75*
G02*
X53320000Y-65040000I150000J0D01*
G01*
X53620000Y-65040000D01*
G75*
G02*
X53770000Y-65190000I0J-150000D01*
G01*
X53770000Y-66840000D01*
G75*
G02*
X53620000Y-66990000I-150000J0D01*
G01*
G37*
G36*
G01*
X54890000Y-66990000D02*
X54590000Y-66990000D01*
G75*
G02*
X54440000Y-66840000I0J150000D01*
G01*
X54440000Y-65190000D01*
G75*
G02*
X54590000Y-65040000I150000J0D01*
G01*
X54890000Y-65040000D01*
G75*
G02*
X55040000Y-65190000I0J-150000D01*
G01*
X55040000Y-66840000D01*
G75*
G02*
X54890000Y-66990000I-150000J0D01*
G01*
G37*
G36*
G01*
X56160000Y-66990000D02*
X55860000Y-66990000D01*
G75*
G02*
X55710000Y-66840000I0J150000D01*
G01*
X55710000Y-65190000D01*
G75*
G02*
X55860000Y-65040000I150000J0D01*
G01*
X56160000Y-65040000D01*
G75*
G02*
X56310000Y-65190000I0J-150000D01*
G01*
X56310000Y-66840000D01*
G75*
G02*
X56160000Y-66990000I-150000J0D01*
G01*
G37*
G36*
G01*
X57430000Y-66990000D02*
X57130000Y-66990000D01*
G75*
G02*
X56980000Y-66840000I0J150000D01*
G01*
X56980000Y-65190000D01*
G75*
G02*
X57130000Y-65040000I150000J0D01*
G01*
X57430000Y-65040000D01*
G75*
G02*
X57580000Y-65190000I0J-150000D01*
G01*
X57580000Y-66840000D01*
G75*
G02*
X57430000Y-66990000I-150000J0D01*
G01*
G37*
G36*
G01*
X57430000Y-71940000D02*
X57130000Y-71940000D01*
G75*
G02*
X56980000Y-71790000I0J150000D01*
G01*
X56980000Y-70140000D01*
G75*
G02*
X57130000Y-69990000I150000J0D01*
G01*
X57430000Y-69990000D01*
G75*
G02*
X57580000Y-70140000I0J-150000D01*
G01*
X57580000Y-71790000D01*
G75*
G02*
X57430000Y-71940000I-150000J0D01*
G01*
G37*
G36*
G01*
X56160000Y-71940000D02*
X55860000Y-71940000D01*
G75*
G02*
X55710000Y-71790000I0J150000D01*
G01*
X55710000Y-70140000D01*
G75*
G02*
X55860000Y-69990000I150000J0D01*
G01*
X56160000Y-69990000D01*
G75*
G02*
X56310000Y-70140000I0J-150000D01*
G01*
X56310000Y-71790000D01*
G75*
G02*
X56160000Y-71940000I-150000J0D01*
G01*
G37*
G36*
G01*
X54890000Y-71940000D02*
X54590000Y-71940000D01*
G75*
G02*
X54440000Y-71790000I0J150000D01*
G01*
X54440000Y-70140000D01*
G75*
G02*
X54590000Y-69990000I150000J0D01*
G01*
X54890000Y-69990000D01*
G75*
G02*
X55040000Y-70140000I0J-150000D01*
G01*
X55040000Y-71790000D01*
G75*
G02*
X54890000Y-71940000I-150000J0D01*
G01*
G37*
G36*
G01*
X53620000Y-71940000D02*
X53320000Y-71940000D01*
G75*
G02*
X53170000Y-71790000I0J150000D01*
G01*
X53170000Y-70140000D01*
G75*
G02*
X53320000Y-69990000I150000J0D01*
G01*
X53620000Y-69990000D01*
G75*
G02*
X53770000Y-70140000I0J-150000D01*
G01*
X53770000Y-71790000D01*
G75*
G02*
X53620000Y-71940000I-150000J0D01*
G01*
G37*
%TD*%
D14*
%TO.C,TP28*%
X39625000Y-44015000D03*
%TD*%
%TO.C,TP27*%
X39675000Y-49190000D03*
%TD*%
%TO.C,TP26*%
X39590000Y-69490000D03*
%TD*%
%TO.C,TP25*%
X39725000Y-54265000D03*
%TD*%
%TO.C,TP24*%
X39725000Y-59340000D03*
%TD*%
%TO.C,TP23*%
X39650000Y-64390000D03*
%TD*%
%TO.C,TP22*%
X33000000Y-75465000D03*
%TD*%
%TO.C,TP21*%
X39550000Y-74515000D03*
%TD*%
%TO.C,TP19*%
X71840000Y-111005000D03*
%TD*%
%TO.C,TP18*%
X67040000Y-125515000D03*
%TD*%
%TO.C,TP17*%
X67060000Y-106605000D03*
%TD*%
%TO.C,TP16*%
X97050000Y-154055000D03*
%TD*%
%TO.C,TP15*%
X127280000Y-28965000D03*
%TD*%
%TO.C,TP14*%
X127240000Y-35575000D03*
%TD*%
%TO.C,TP12*%
X134525000Y-151955000D03*
%TD*%
%TO.C,TP11*%
X93300000Y-136105000D03*
%TD*%
%TO.C,TP10*%
X127270000Y-42185000D03*
%TD*%
%TO.C,TP9*%
X130775000Y-136180000D03*
%TD*%
%TO.C,TP8*%
X55445000Y-149760000D03*
%TD*%
%TO.C,TP7*%
X46975000Y-145070000D03*
%TD*%
%TO.C,TP6*%
X48675000Y-156850000D03*
%TD*%
%TO.C,TP5*%
X55445000Y-156910000D03*
%TD*%
%TO.C,TP4*%
X62060000Y-70255000D03*
%TD*%
%TO.C,TP3*%
X62140000Y-75295000D03*
%TD*%
%TO.C,TP2*%
X49590000Y-72785000D03*
%TD*%
%TO.C,TP1*%
X63685000Y-90840000D03*
%TD*%
%TO.C,R10*%
G36*
G01*
X36060000Y-129485002D02*
X36060000Y-128584998D01*
G75*
G02*
X36309998Y-128335000I249998J0D01*
G01*
X36835002Y-128335000D01*
G75*
G02*
X37085000Y-128584998I0J-249998D01*
G01*
X37085000Y-129485002D01*
G75*
G02*
X36835002Y-129735000I-249998J0D01*
G01*
X36309998Y-129735000D01*
G75*
G02*
X36060000Y-129485002I0J249998D01*
G01*
G37*
G36*
G01*
X34235000Y-129485002D02*
X34235000Y-128584998D01*
G75*
G02*
X34484998Y-128335000I249998J0D01*
G01*
X35010002Y-128335000D01*
G75*
G02*
X35260000Y-128584998I0J-249998D01*
G01*
X35260000Y-129485002D01*
G75*
G02*
X35010002Y-129735000I-249998J0D01*
G01*
X34484998Y-129735000D01*
G75*
G02*
X34235000Y-129485002I0J249998D01*
G01*
G37*
%TD*%
%TO.C,R9*%
G36*
G01*
X36030000Y-126485002D02*
X36030000Y-125584998D01*
G75*
G02*
X36279998Y-125335000I249998J0D01*
G01*
X36805002Y-125335000D01*
G75*
G02*
X37055000Y-125584998I0J-249998D01*
G01*
X37055000Y-126485002D01*
G75*
G02*
X36805002Y-126735000I-249998J0D01*
G01*
X36279998Y-126735000D01*
G75*
G02*
X36030000Y-126485002I0J249998D01*
G01*
G37*
G36*
G01*
X34205000Y-126485002D02*
X34205000Y-125584998D01*
G75*
G02*
X34454998Y-125335000I249998J0D01*
G01*
X34980002Y-125335000D01*
G75*
G02*
X35230000Y-125584998I0J-249998D01*
G01*
X35230000Y-126485002D01*
G75*
G02*
X34980002Y-126735000I-249998J0D01*
G01*
X34454998Y-126735000D01*
G75*
G02*
X34205000Y-126485002I0J249998D01*
G01*
G37*
%TD*%
%TO.C,R8*%
G36*
G01*
X36020000Y-123485002D02*
X36020000Y-122584998D01*
G75*
G02*
X36269998Y-122335000I249998J0D01*
G01*
X36795002Y-122335000D01*
G75*
G02*
X37045000Y-122584998I0J-249998D01*
G01*
X37045000Y-123485002D01*
G75*
G02*
X36795002Y-123735000I-249998J0D01*
G01*
X36269998Y-123735000D01*
G75*
G02*
X36020000Y-123485002I0J249998D01*
G01*
G37*
G36*
G01*
X34195000Y-123485002D02*
X34195000Y-122584998D01*
G75*
G02*
X34444998Y-122335000I249998J0D01*
G01*
X34970002Y-122335000D01*
G75*
G02*
X35220000Y-122584998I0J-249998D01*
G01*
X35220000Y-123485002D01*
G75*
G02*
X34970002Y-123735000I-249998J0D01*
G01*
X34444998Y-123735000D01*
G75*
G02*
X34195000Y-123485002I0J249998D01*
G01*
G37*
%TD*%
%TO.C,R7*%
G36*
G01*
X36010000Y-117505002D02*
X36010000Y-116604998D01*
G75*
G02*
X36259998Y-116355000I249998J0D01*
G01*
X36785002Y-116355000D01*
G75*
G02*
X37035000Y-116604998I0J-249998D01*
G01*
X37035000Y-117505002D01*
G75*
G02*
X36785002Y-117755000I-249998J0D01*
G01*
X36259998Y-117755000D01*
G75*
G02*
X36010000Y-117505002I0J249998D01*
G01*
G37*
G36*
G01*
X34185000Y-117505002D02*
X34185000Y-116604998D01*
G75*
G02*
X34434998Y-116355000I249998J0D01*
G01*
X34960002Y-116355000D01*
G75*
G02*
X35210000Y-116604998I0J-249998D01*
G01*
X35210000Y-117505002D01*
G75*
G02*
X34960002Y-117755000I-249998J0D01*
G01*
X34434998Y-117755000D01*
G75*
G02*
X34185000Y-117505002I0J249998D01*
G01*
G37*
%TD*%
%TO.C,R6*%
G36*
G01*
X36000000Y-120515002D02*
X36000000Y-119614998D01*
G75*
G02*
X36249998Y-119365000I249998J0D01*
G01*
X36775002Y-119365000D01*
G75*
G02*
X37025000Y-119614998I0J-249998D01*
G01*
X37025000Y-120515002D01*
G75*
G02*
X36775002Y-120765000I-249998J0D01*
G01*
X36249998Y-120765000D01*
G75*
G02*
X36000000Y-120515002I0J249998D01*
G01*
G37*
G36*
G01*
X34175000Y-120515002D02*
X34175000Y-119614998D01*
G75*
G02*
X34424998Y-119365000I249998J0D01*
G01*
X34950002Y-119365000D01*
G75*
G02*
X35200000Y-119614998I0J-249998D01*
G01*
X35200000Y-120515002D01*
G75*
G02*
X34950002Y-120765000I-249998J0D01*
G01*
X34424998Y-120765000D01*
G75*
G02*
X34175000Y-120515002I0J249998D01*
G01*
G37*
%TD*%
%TO.C,R5*%
G36*
G01*
X32575000Y-147380002D02*
X32575000Y-146479998D01*
G75*
G02*
X32824998Y-146230000I249998J0D01*
G01*
X33350002Y-146230000D01*
G75*
G02*
X33600000Y-146479998I0J-249998D01*
G01*
X33600000Y-147380002D01*
G75*
G02*
X33350002Y-147630000I-249998J0D01*
G01*
X32824998Y-147630000D01*
G75*
G02*
X32575000Y-147380002I0J249998D01*
G01*
G37*
G36*
G01*
X30750000Y-147380002D02*
X30750000Y-146479998D01*
G75*
G02*
X30999998Y-146230000I249998J0D01*
G01*
X31525002Y-146230000D01*
G75*
G02*
X31775000Y-146479998I0J-249998D01*
G01*
X31775000Y-147380002D01*
G75*
G02*
X31525002Y-147630000I-249998J0D01*
G01*
X30999998Y-147630000D01*
G75*
G02*
X30750000Y-147380002I0J249998D01*
G01*
G37*
%TD*%
%TO.C,R4*%
G36*
G01*
X32625000Y-153405002D02*
X32625000Y-152504998D01*
G75*
G02*
X32874998Y-152255000I249998J0D01*
G01*
X33400002Y-152255000D01*
G75*
G02*
X33650000Y-152504998I0J-249998D01*
G01*
X33650000Y-153405002D01*
G75*
G02*
X33400002Y-153655000I-249998J0D01*
G01*
X32874998Y-153655000D01*
G75*
G02*
X32625000Y-153405002I0J249998D01*
G01*
G37*
G36*
G01*
X30800000Y-153405002D02*
X30800000Y-152504998D01*
G75*
G02*
X31049998Y-152255000I249998J0D01*
G01*
X31575002Y-152255000D01*
G75*
G02*
X31825000Y-152504998I0J-249998D01*
G01*
X31825000Y-153405002D01*
G75*
G02*
X31575002Y-153655000I-249998J0D01*
G01*
X31049998Y-153655000D01*
G75*
G02*
X30800000Y-153405002I0J249998D01*
G01*
G37*
%TD*%
%TO.C,R3*%
G36*
G01*
X97515002Y-143305000D02*
X96264998Y-143305000D01*
G75*
G02*
X96015000Y-143055002I0J249998D01*
G01*
X96015000Y-142429998D01*
G75*
G02*
X96264998Y-142180000I249998J0D01*
G01*
X97515002Y-142180000D01*
G75*
G02*
X97765000Y-142429998I0J-249998D01*
G01*
X97765000Y-143055002D01*
G75*
G02*
X97515002Y-143305000I-249998J0D01*
G01*
G37*
G36*
G01*
X97515002Y-146230000D02*
X96264998Y-146230000D01*
G75*
G02*
X96015000Y-145980002I0J249998D01*
G01*
X96015000Y-145354998D01*
G75*
G02*
X96264998Y-145105000I249998J0D01*
G01*
X97515002Y-145105000D01*
G75*
G02*
X97765000Y-145354998I0J-249998D01*
G01*
X97765000Y-145980002D01*
G75*
G02*
X97515002Y-146230000I-249998J0D01*
G01*
G37*
%TD*%
%TO.C,LED9*%
G36*
G01*
X31530000Y-129491250D02*
X31530000Y-128578750D01*
G75*
G02*
X31773750Y-128335000I243750J0D01*
G01*
X32261250Y-128335000D01*
G75*
G02*
X32505000Y-128578750I0J-243750D01*
G01*
X32505000Y-129491250D01*
G75*
G02*
X32261250Y-129735000I-243750J0D01*
G01*
X31773750Y-129735000D01*
G75*
G02*
X31530000Y-129491250I0J243750D01*
G01*
G37*
G36*
G01*
X29655000Y-129491250D02*
X29655000Y-128578750D01*
G75*
G02*
X29898750Y-128335000I243750J0D01*
G01*
X30386250Y-128335000D01*
G75*
G02*
X30630000Y-128578750I0J-243750D01*
G01*
X30630000Y-129491250D01*
G75*
G02*
X30386250Y-129735000I-243750J0D01*
G01*
X29898750Y-129735000D01*
G75*
G02*
X29655000Y-129491250I0J243750D01*
G01*
G37*
%TD*%
%TO.C,LED8*%
G36*
G01*
X31580000Y-126491250D02*
X31580000Y-125578750D01*
G75*
G02*
X31823750Y-125335000I243750J0D01*
G01*
X32311250Y-125335000D01*
G75*
G02*
X32555000Y-125578750I0J-243750D01*
G01*
X32555000Y-126491250D01*
G75*
G02*
X32311250Y-126735000I-243750J0D01*
G01*
X31823750Y-126735000D01*
G75*
G02*
X31580000Y-126491250I0J243750D01*
G01*
G37*
G36*
G01*
X29705000Y-126491250D02*
X29705000Y-125578750D01*
G75*
G02*
X29948750Y-125335000I243750J0D01*
G01*
X30436250Y-125335000D01*
G75*
G02*
X30680000Y-125578750I0J-243750D01*
G01*
X30680000Y-126491250D01*
G75*
G02*
X30436250Y-126735000I-243750J0D01*
G01*
X29948750Y-126735000D01*
G75*
G02*
X29705000Y-126491250I0J243750D01*
G01*
G37*
%TD*%
%TO.C,LED7*%
G36*
G01*
X31570000Y-123491250D02*
X31570000Y-122578750D01*
G75*
G02*
X31813750Y-122335000I243750J0D01*
G01*
X32301250Y-122335000D01*
G75*
G02*
X32545000Y-122578750I0J-243750D01*
G01*
X32545000Y-123491250D01*
G75*
G02*
X32301250Y-123735000I-243750J0D01*
G01*
X31813750Y-123735000D01*
G75*
G02*
X31570000Y-123491250I0J243750D01*
G01*
G37*
G36*
G01*
X29695000Y-123491250D02*
X29695000Y-122578750D01*
G75*
G02*
X29938750Y-122335000I243750J0D01*
G01*
X30426250Y-122335000D01*
G75*
G02*
X30670000Y-122578750I0J-243750D01*
G01*
X30670000Y-123491250D01*
G75*
G02*
X30426250Y-123735000I-243750J0D01*
G01*
X29938750Y-123735000D01*
G75*
G02*
X29695000Y-123491250I0J243750D01*
G01*
G37*
%TD*%
%TO.C,LED6*%
G36*
G01*
X31577500Y-117481250D02*
X31577500Y-116568750D01*
G75*
G02*
X31821250Y-116325000I243750J0D01*
G01*
X32308750Y-116325000D01*
G75*
G02*
X32552500Y-116568750I0J-243750D01*
G01*
X32552500Y-117481250D01*
G75*
G02*
X32308750Y-117725000I-243750J0D01*
G01*
X31821250Y-117725000D01*
G75*
G02*
X31577500Y-117481250I0J243750D01*
G01*
G37*
G36*
G01*
X29702500Y-117481250D02*
X29702500Y-116568750D01*
G75*
G02*
X29946250Y-116325000I243750J0D01*
G01*
X30433750Y-116325000D01*
G75*
G02*
X30677500Y-116568750I0J-243750D01*
G01*
X30677500Y-117481250D01*
G75*
G02*
X30433750Y-117725000I-243750J0D01*
G01*
X29946250Y-117725000D01*
G75*
G02*
X29702500Y-117481250I0J243750D01*
G01*
G37*
%TD*%
%TO.C,LED5*%
G36*
G01*
X31590000Y-120491250D02*
X31590000Y-119578750D01*
G75*
G02*
X31833750Y-119335000I243750J0D01*
G01*
X32321250Y-119335000D01*
G75*
G02*
X32565000Y-119578750I0J-243750D01*
G01*
X32565000Y-120491250D01*
G75*
G02*
X32321250Y-120735000I-243750J0D01*
G01*
X31833750Y-120735000D01*
G75*
G02*
X31590000Y-120491250I0J243750D01*
G01*
G37*
G36*
G01*
X29715000Y-120491250D02*
X29715000Y-119578750D01*
G75*
G02*
X29958750Y-119335000I243750J0D01*
G01*
X30446250Y-119335000D01*
G75*
G02*
X30690000Y-119578750I0J-243750D01*
G01*
X30690000Y-120491250D01*
G75*
G02*
X30446250Y-120735000I-243750J0D01*
G01*
X29958750Y-120735000D01*
G75*
G02*
X29715000Y-120491250I0J243750D01*
G01*
G37*
%TD*%
%TO.C,LED4*%
G36*
G01*
X31675000Y-143448750D02*
X31675000Y-144361250D01*
G75*
G02*
X31431250Y-144605000I-243750J0D01*
G01*
X30943750Y-144605000D01*
G75*
G02*
X30700000Y-144361250I0J243750D01*
G01*
X30700000Y-143448750D01*
G75*
G02*
X30943750Y-143205000I243750J0D01*
G01*
X31431250Y-143205000D01*
G75*
G02*
X31675000Y-143448750I0J-243750D01*
G01*
G37*
G36*
G01*
X33550000Y-143448750D02*
X33550000Y-144361250D01*
G75*
G02*
X33306250Y-144605000I-243750J0D01*
G01*
X32818750Y-144605000D01*
G75*
G02*
X32575000Y-144361250I0J243750D01*
G01*
X32575000Y-143448750D01*
G75*
G02*
X32818750Y-143205000I243750J0D01*
G01*
X33306250Y-143205000D01*
G75*
G02*
X33550000Y-143448750I0J-243750D01*
G01*
G37*
%TD*%
%TO.C,LED3*%
G36*
G01*
X31675000Y-149498750D02*
X31675000Y-150411250D01*
G75*
G02*
X31431250Y-150655000I-243750J0D01*
G01*
X30943750Y-150655000D01*
G75*
G02*
X30700000Y-150411250I0J243750D01*
G01*
X30700000Y-149498750D01*
G75*
G02*
X30943750Y-149255000I243750J0D01*
G01*
X31431250Y-149255000D01*
G75*
G02*
X31675000Y-149498750I0J-243750D01*
G01*
G37*
G36*
G01*
X33550000Y-149498750D02*
X33550000Y-150411250D01*
G75*
G02*
X33306250Y-150655000I-243750J0D01*
G01*
X32818750Y-150655000D01*
G75*
G02*
X32575000Y-150411250I0J243750D01*
G01*
X32575000Y-149498750D01*
G75*
G02*
X32818750Y-149255000I243750J0D01*
G01*
X33306250Y-149255000D01*
G75*
G02*
X33550000Y-149498750I0J-243750D01*
G01*
G37*
%TD*%
%TO.C,L1*%
G36*
G01*
X42156250Y-148695000D02*
X41393750Y-148695000D01*
G75*
G02*
X41175000Y-148476250I0J218750D01*
G01*
X41175000Y-148038750D01*
G75*
G02*
X41393750Y-147820000I218750J0D01*
G01*
X42156250Y-147820000D01*
G75*
G02*
X42375000Y-148038750I0J-218750D01*
G01*
X42375000Y-148476250D01*
G75*
G02*
X42156250Y-148695000I-218750J0D01*
G01*
G37*
G36*
G01*
X42156250Y-150820000D02*
X41393750Y-150820000D01*
G75*
G02*
X41175000Y-150601250I0J218750D01*
G01*
X41175000Y-150163750D01*
G75*
G02*
X41393750Y-149945000I218750J0D01*
G01*
X42156250Y-149945000D01*
G75*
G02*
X42375000Y-150163750I0J-218750D01*
G01*
X42375000Y-150601250D01*
G75*
G02*
X42156250Y-150820000I-218750J0D01*
G01*
G37*
%TD*%
D23*
%TO.C,JP1*%
X22410000Y-57490000D03*
D24*
X24950000Y-57490000D03*
%TD*%
D25*
%TO.C,J1*%
X38795000Y-156040000D03*
G36*
G01*
X42545000Y-155280000D02*
X42545000Y-156800000D01*
G75*
G02*
X42295000Y-157050000I-250000J0D01*
G01*
X41295000Y-157050000D01*
G75*
G02*
X41045000Y-156800000I0J250000D01*
G01*
X41045000Y-155280000D01*
G75*
G02*
X41295000Y-155030000I250000J0D01*
G01*
X42295000Y-155030000D01*
G75*
G02*
X42545000Y-155280000I0J-250000D01*
G01*
G37*
D26*
X35795000Y-158000000D03*
X44795000Y-158000000D03*
%TD*%
%TO.C,C3*%
G36*
G01*
X54770000Y-62280000D02*
X54770000Y-61330000D01*
G75*
G02*
X55020000Y-61080000I250000J0D01*
G01*
X55520000Y-61080000D01*
G75*
G02*
X55770000Y-61330000I0J-250000D01*
G01*
X55770000Y-62280000D01*
G75*
G02*
X55520000Y-62530000I-250000J0D01*
G01*
X55020000Y-62530000D01*
G75*
G02*
X54770000Y-62280000I0J250000D01*
G01*
G37*
G36*
G01*
X52870000Y-62280000D02*
X52870000Y-61330000D01*
G75*
G02*
X53120000Y-61080000I250000J0D01*
G01*
X53620000Y-61080000D01*
G75*
G02*
X53870000Y-61330000I0J-250000D01*
G01*
X53870000Y-62280000D01*
G75*
G02*
X53620000Y-62530000I-250000J0D01*
G01*
X53120000Y-62530000D01*
G75*
G02*
X52870000Y-62280000I0J250000D01*
G01*
G37*
%TD*%
D27*
%TO.C,Q1*%
X75750000Y-38925000D03*
X75750000Y-44375000D03*
D28*
X75750000Y-49825000D03*
%TD*%
%TO.C,R23*%
G36*
G01*
X75400000Y-119444998D02*
X75400000Y-120345002D01*
G75*
G02*
X75150002Y-120595000I-249998J0D01*
G01*
X74624998Y-120595000D01*
G75*
G02*
X74375000Y-120345002I0J249998D01*
G01*
X74375000Y-119444998D01*
G75*
G02*
X74624998Y-119195000I249998J0D01*
G01*
X75150002Y-119195000D01*
G75*
G02*
X75400000Y-119444998I0J-249998D01*
G01*
G37*
G36*
G01*
X77225000Y-119444998D02*
X77225000Y-120345002D01*
G75*
G02*
X76975002Y-120595000I-249998J0D01*
G01*
X76449998Y-120595000D01*
G75*
G02*
X76200000Y-120345002I0J249998D01*
G01*
X76200000Y-119444998D01*
G75*
G02*
X76449998Y-119195000I249998J0D01*
G01*
X76975002Y-119195000D01*
G75*
G02*
X77225000Y-119444998I0J-249998D01*
G01*
G37*
%TD*%
D27*
%TO.C,Q2*%
X67960000Y-49825000D03*
X67960000Y-44375000D03*
D28*
X67960000Y-38925000D03*
%TD*%
D11*
%TO.C,D5*%
X92444000Y-85568000D03*
D12*
X87364000Y-85568000D03*
%TD*%
D15*
%TO.C,HS1*%
X77204000Y-80996000D03*
X102604000Y-80996000D03*
%TD*%
D11*
%TO.C,D6*%
X87364000Y-76424000D03*
D12*
X92444000Y-76424000D03*
%TD*%
D25*
%TO.C,J4*%
X32825000Y-50880000D03*
X29825000Y-50880000D03*
X26825000Y-50880000D03*
G36*
G01*
X23075000Y-51640000D02*
X23075000Y-50120000D01*
G75*
G02*
X23325000Y-49870000I250000J0D01*
G01*
X24325000Y-49870000D01*
G75*
G02*
X24575000Y-50120000I0J-250000D01*
G01*
X24575000Y-51640000D01*
G75*
G02*
X24325000Y-51890000I-250000J0D01*
G01*
X23325000Y-51890000D01*
G75*
G02*
X23075000Y-51640000I0J250000D01*
G01*
G37*
D26*
X35825000Y-48920000D03*
X20825000Y-48920000D03*
%TD*%
%TO.C,C16*%
G36*
G01*
X75605000Y-115655000D02*
X74655000Y-115655000D01*
G75*
G02*
X74405000Y-115405000I0J250000D01*
G01*
X74405000Y-114905000D01*
G75*
G02*
X74655000Y-114655000I250000J0D01*
G01*
X75605000Y-114655000D01*
G75*
G02*
X75855000Y-114905000I0J-250000D01*
G01*
X75855000Y-115405000D01*
G75*
G02*
X75605000Y-115655000I-250000J0D01*
G01*
G37*
G36*
G01*
X75605000Y-117555000D02*
X74655000Y-117555000D01*
G75*
G02*
X74405000Y-117305000I0J250000D01*
G01*
X74405000Y-116805000D01*
G75*
G02*
X74655000Y-116555000I250000J0D01*
G01*
X75605000Y-116555000D01*
G75*
G02*
X75855000Y-116805000I0J-250000D01*
G01*
X75855000Y-117305000D01*
G75*
G02*
X75605000Y-117555000I-250000J0D01*
G01*
G37*
%TD*%
D13*
%TO.C,D14*%
X63490000Y-115135000D03*
X63490000Y-117935000D03*
%TD*%
%TO.C,C15*%
G36*
G01*
X76235000Y-97775000D02*
X75285000Y-97775000D01*
G75*
G02*
X75035000Y-97525000I0J250000D01*
G01*
X75035000Y-97025000D01*
G75*
G02*
X75285000Y-96775000I250000J0D01*
G01*
X76235000Y-96775000D01*
G75*
G02*
X76485000Y-97025000I0J-250000D01*
G01*
X76485000Y-97525000D01*
G75*
G02*
X76235000Y-97775000I-250000J0D01*
G01*
G37*
G36*
G01*
X76235000Y-99675000D02*
X75285000Y-99675000D01*
G75*
G02*
X75035000Y-99425000I0J250000D01*
G01*
X75035000Y-98925000D01*
G75*
G02*
X75285000Y-98675000I250000J0D01*
G01*
X76235000Y-98675000D01*
G75*
G02*
X76485000Y-98925000I0J-250000D01*
G01*
X76485000Y-99425000D01*
G75*
G02*
X76235000Y-99675000I-250000J0D01*
G01*
G37*
%TD*%
%TO.C,R20*%
G36*
G01*
X76030000Y-101524998D02*
X76030000Y-102425002D01*
G75*
G02*
X75780002Y-102675000I-249998J0D01*
G01*
X75254998Y-102675000D01*
G75*
G02*
X75005000Y-102425002I0J249998D01*
G01*
X75005000Y-101524998D01*
G75*
G02*
X75254998Y-101275000I249998J0D01*
G01*
X75780002Y-101275000D01*
G75*
G02*
X76030000Y-101524998I0J-249998D01*
G01*
G37*
G36*
G01*
X77855000Y-101524998D02*
X77855000Y-102425002D01*
G75*
G02*
X77605002Y-102675000I-249998J0D01*
G01*
X77079998Y-102675000D01*
G75*
G02*
X76830000Y-102425002I0J249998D01*
G01*
X76830000Y-101524998D01*
G75*
G02*
X77079998Y-101275000I249998J0D01*
G01*
X77605002Y-101275000D01*
G75*
G02*
X77855000Y-101524998I0J-249998D01*
G01*
G37*
%TD*%
D25*
%TO.C,J5*%
X32825000Y-43040000D03*
X29825000Y-43040000D03*
X26825000Y-43040000D03*
G36*
G01*
X23075000Y-43800000D02*
X23075000Y-42280000D01*
G75*
G02*
X23325000Y-42030000I250000J0D01*
G01*
X24325000Y-42030000D01*
G75*
G02*
X24575000Y-42280000I0J-250000D01*
G01*
X24575000Y-43800000D01*
G75*
G02*
X24325000Y-44050000I-250000J0D01*
G01*
X23325000Y-44050000D01*
G75*
G02*
X23075000Y-43800000I0J250000D01*
G01*
G37*
D26*
X35825000Y-41080000D03*
X20825000Y-41080000D03*
%TD*%
D13*
%TO.C,D12*%
X64210000Y-97275000D03*
X64210000Y-100075000D03*
%TD*%
%TO.C,D13*%
X67000000Y-115185000D03*
X67000000Y-117985000D03*
%TD*%
D29*
%TO.C,U6*%
X72860000Y-102125000D03*
X72860000Y-101175000D03*
X72860000Y-100225000D03*
X70660000Y-100225000D03*
X70660000Y-102125000D03*
X70660000Y-101175000D03*
%TD*%
%TO.C,U7*%
X72270000Y-119965000D03*
X72270000Y-119015000D03*
X72270000Y-118065000D03*
X70070000Y-118065000D03*
X70070000Y-119965000D03*
X70070000Y-119015000D03*
%TD*%
D13*
%TO.C,D11*%
X67620000Y-97315000D03*
X67620000Y-100115000D03*
%TD*%
D14*
%TO.C,TP20*%
X75750000Y-124205000D03*
%TD*%
D30*
%TO.C,L2*%
X137760000Y-70255000D03*
X115960000Y-70255000D03*
%TD*%
D16*
%TO.C,H1*%
X137520000Y-157565000D03*
%TD*%
%TO.C,J3*%
X90215000Y-154080000D03*
X66475000Y-154080000D03*
D31*
X82155000Y-151280000D03*
X82155000Y-148740000D03*
X74535000Y-151280000D03*
X74535000Y-148740000D03*
X82155000Y-143660000D03*
X74535000Y-143660000D03*
%TD*%
D16*
%TO.C,J2*%
X127670000Y-154085000D03*
X103930000Y-154085000D03*
D31*
X119610000Y-151285000D03*
X119610000Y-148745000D03*
X111990000Y-151285000D03*
X111990000Y-148745000D03*
X119610000Y-143665000D03*
X111990000Y-143665000D03*
%TD*%
D32*
%TO.C,U1*%
X55510000Y-88370000D03*
D33*
X55510000Y-90910000D03*
X55510000Y-93450000D03*
X55510000Y-95990000D03*
X55510000Y-98530000D03*
X55510000Y-101070000D03*
X55510000Y-103610000D03*
X55510000Y-106150000D03*
X55510000Y-108690000D03*
X55510000Y-111230000D03*
X55510000Y-113770000D03*
X55510000Y-116310000D03*
X55510000Y-118850000D03*
X55510000Y-121390000D03*
X55510000Y-123930000D03*
D32*
X40270000Y-88370000D03*
D33*
X40270000Y-90910000D03*
X40270000Y-93450000D03*
X40270000Y-95990000D03*
X40270000Y-98530000D03*
X40270000Y-101070000D03*
X40270000Y-103610000D03*
X40270000Y-106150000D03*
X40270000Y-108690000D03*
X40270000Y-111230000D03*
X40270000Y-113770000D03*
X40270000Y-116310000D03*
X40270000Y-118850000D03*
X40270000Y-121390000D03*
X40270000Y-123930000D03*
%TD*%
D15*
%TO.C,HS3*%
X71899000Y-57119000D03*
X71899000Y-31719000D03*
%TD*%
D34*
%TO.C,F2*%
X87765000Y-134480000D03*
X63665000Y-134480000D03*
%TD*%
%TO.C,F1*%
X101140000Y-134445000D03*
X125240000Y-134445000D03*
%TD*%
D11*
%TO.C,D4*%
X95210000Y-47055000D03*
D12*
X95210000Y-41975000D03*
%TD*%
D15*
%TO.C,C10*%
X96770000Y-111655000D03*
D35*
X86770000Y-111655000D03*
%TD*%
D15*
%TO.C,C8*%
X119850000Y-111605000D03*
D35*
X129850000Y-111605000D03*
%TD*%
M02*
