M48
; DRILL file {KiCad (6.0.1)} date Sat Mar  5 17:58:01 2022
; FORMAT={-:-/ absolute / inch / decimal}
; #@! TF.CreationDate,2022-03-05T17:58:01-06:00
; #@! TF.GenerationSoftware,Kicad,Pcbnew,(6.0.1)
; #@! TF.FileFunction,Plated,1,2,PTH
FMAT,2
INCH
; #@! TA.AperFunction,Plated,PTH,ViaDrill
T1C0.0118
; #@! TA.AperFunction,Plated,PTH,ViaDrill
T2C0.0157
; #@! TA.AperFunction,Plated,PTH,ViaDrill
T3C0.0197
; #@! TA.AperFunction,Plated,PTH,ComponentDrill
T4C0.0394
; #@! TA.AperFunction,Plated,PTH,ComponentDrill
T5C0.0402
; #@! TA.AperFunction,Plated,PTH,ComponentDrill
T6C0.0433
; #@! TA.AperFunction,Plated,PTH,ComponentDrill
T7C0.0520
; #@! TA.AperFunction,Plated,PTH,ComponentDrill
T8C0.0551
; #@! TA.AperFunction,Plated,PTH,ComponentDrill
T9C0.0591
; #@! TA.AperFunction,Plated,PTH,ComponentDrill
T10C0.0748
; #@! TA.AperFunction,Plated,PTH,ComponentDrill
T11C0.0787
; #@! TA.AperFunction,Plated,PTH,ComponentDrill
T12C0.0984
%
G90
G05
T1
X0.8117Y-5.0759
X0.8404Y-4.675
X0.8652Y-3.0567
X0.8752Y-4.8497
X0.8836Y-5.0759
X0.9012Y-5.2806
X0.9386Y-5.3544
X0.9537Y-4.8497
X0.965Y-3.0567
X0.976Y-5.2806
X0.9936Y-4.0331
X0.9939Y-3.6852
X0.9949Y-3.8016
X0.995Y-3.4575
X0.995Y-3.572
X0.995Y-3.9154
X1.0154Y-5.0763
X1.0154Y-5.1743
X1.0325Y-4.8497
X1.0427Y-3.3803
X1.085Y-3.3793
X1.0902Y-5.0763
X1.0902Y-5.1743
X1.0974Y-2.8722
X1.1116Y-4.8495
X1.1201Y-3.5461
X1.1217Y-3.8839
X1.122Y-3.599
X1.1222Y-3.8281
X1.1226Y-3.9319
X1.1226Y-4.0913
X1.123Y-3.6602
X1.123Y-3.7167
X1.1232Y-3.7837
X1.1234Y-2.2439
X1.1234Y-2.3524
X1.1644Y-4.4616
X1.1907Y-4.8497
X1.2329Y-5.0832
X1.2335Y-5.1668
X1.2346Y-4.3933
X1.2413Y-4.6755
X1.2699Y-4.8497
X1.29Y-4.6767
X1.3211Y-5.0826
X1.3211Y-5.1662
X1.3274Y-4.4287
X1.3285Y-4.3114
X1.3402Y-3.7821
X1.3742Y-4.2425
X1.4157Y-3.7807
X1.4992Y-4.1911
X1.4994Y-4.4285
X1.4996Y-4.3096
X1.6Y-4.3081
X1.6002Y-4.4278
X1.6018Y-3.7797
X1.6198Y-4.8518
X1.6604Y-5.6372
X1.6917Y-3.7805
X1.7343Y-5.6372
X1.7946Y-5.6387
X1.7946Y-5.7403
X1.7946Y-5.8558
X1.9203Y-3.4325
X1.9205Y-3.6321
X1.9207Y-3.8327
X1.9213Y-3.5315
X1.9215Y-3.3335
X1.9931Y-2.8069
X2.0636Y-3.8333
X2.0671Y-3.3333
X2.0679Y-3.6321
X2.0693Y-3.5325
X2.0711Y-3.4325
X2.1094Y-2.7431
X2.1112Y-3.6844
X2.172Y-3.253
X2.286Y-3.3728
X2.39Y-4.7953
X2.39Y-5.0037
X2.3933Y-4.4411
X2.4565Y-4.7959
X2.4573Y-5.0037
X2.5026Y-4.4452
X2.5234Y-4.8457
X2.5687Y-4.5646
X2.5687Y-4.7693
X2.6085Y-4.8463
X2.6435Y-4.6547
X2.7506Y-4.6719
X2.962Y-5.3496
X3.7585Y-5.1954
X4.139Y-1.863
X4.5228Y-1.6278
X5.1248Y-5.192
X5.1299Y-4.7659
X5.2364Y-4.7848
X5.3118Y-4.8743
X5.3805Y-5.1081
T2
X1.5472Y-4.8522
X2.8236Y-5.1598
X3.1189Y-5.1795
X3.1199Y-5.2366
X3.6258Y-6.1
X3.7988Y-6.0998
X3.8378Y-5.1581
X3.9296Y-5.0696
X4.0755Y-5.569
X4.1864Y-5.1572
X5.0175Y-4.7661
X5.0224Y-6.1012
X5.1896Y-6.1004
X5.4504Y-4.9193
T3
X0.7898Y-1.1854
X0.7898Y-1.4807
X0.7898Y-1.776
X0.7898Y-2.9571
X0.7898Y-3.2524
X0.7898Y-3.5476
X0.7898Y-3.8429
X0.7898Y-4.1382
X0.7898Y-4.4335
X0.7898Y-4.7287
X0.7969Y-5.4801
X1.085Y-0.8902
X1.085Y-1.776
X1.085Y-2.0713
X1.085Y-4.1382
X1.085Y-4.7287
X1.1793Y-6.1839
X1.3067Y-3.5736
X1.3071Y-3.9852
X1.377Y-6.2994
X1.3803Y-0.8902
X1.3803Y-2.6618
X1.3803Y-2.9571
X1.3803Y-4.7287
X1.3831Y-2.1961
X1.4236Y-4.4311
X1.4388Y-3.1642
X1.4587Y-5.0675
X1.4652Y-5.4801
X1.5124Y-3.953
X1.513Y-3.3719
X1.513Y-3.6671
X1.6478Y-4.1935
X1.648Y-4.0596
X1.6506Y-5.2148
X1.6506Y-5.3565
X1.6722Y-6.2994
X1.6756Y-0.8902
X1.6756Y-1.1854
X1.6756Y-1.4807
X1.6756Y-2.6618
X1.6756Y-2.9571
X1.6756Y-4.4335
X1.6756Y-4.7287
X1.6783Y-2.1961
X1.6923Y-4.9793
X1.7215Y-3.3026
X1.7215Y-3.5978
X1.7226Y-3.9815
X1.8575Y-5.3667
X1.9709Y-2.6618
X1.9841Y-5.3193
X1.9925Y-2.912
X1.9933Y-3.1429
X2.0927Y-3.911
X2.0927Y-4.2063
X2.0927Y-4.5016
X2.0927Y-4.7969
X2.2071Y-4.7266
X2.2346Y-2.7033
X2.2537Y-3.0244
X2.2661Y-0.8902
X2.2661Y-1.1854
X2.2661Y-1.4807
X2.2661Y-1.776
X2.2661Y-2.0713
X2.2661Y-2.3665
X2.3098Y-3.253
X2.3159Y-5.1719
X2.3159Y-5.4671
X2.3159Y-5.7624
X2.3159Y-6.0577
X2.3577Y-2.7421
X2.5581Y-6.2994
X2.5614Y-0.8902
X2.5614Y-2.3665
X2.5614Y-2.6618
X2.5614Y-2.9571
X2.5614Y-3.2524
X2.5614Y-3.5476
X2.5614Y-3.8429
X2.5614Y-4.1382
X2.5614Y-4.4335
X2.6226Y-5.0453
X2.6848Y-5.7632
X2.8043Y-5.0372
X2.8315Y-4.8142
X2.8321Y-4.7215
X2.8323Y-4.5447
X2.8323Y-4.6234
X2.8341Y-4.4541
X2.8478Y-4.9014
X2.8533Y-6.2994
X2.8567Y-0.8902
X2.8567Y-1.1854
X2.8567Y-2.3665
X2.8567Y-2.6618
X2.8567Y-2.9571
X2.8567Y-3.5476
X2.8567Y-3.8429
X2.8567Y-4.1382
X2.9018Y-4.9547
X2.9545Y-5.0071
X3.0093Y-5.0614
X3.035Y-2.0396
X3.062Y-5.1138
X3.1116Y-6.0228
X3.1486Y-6.2994
X3.152Y-0.8902
X3.152Y-1.1854
X3.152Y-1.4807
X3.152Y-2.3665
X3.152Y-2.6618
X3.152Y-2.9571
X3.152Y-3.2524
X3.152Y-3.5476
X3.152Y-3.8429
X3.152Y-4.1382
X3.152Y-4.4335
X3.152Y-4.7287
X3.4161Y-5.1447
X3.4439Y-6.2994
X3.4472Y-0.8902
X3.4472Y-1.1854
X3.4472Y-1.4807
X3.4472Y-5.6146
X3.4472Y-5.9098
X3.4978Y-5.3813
X3.7392Y-6.2994
X3.7425Y-0.8902
X3.7425Y-3.5476
X3.7425Y-3.8429
X3.7425Y-4.1382
X3.7425Y-4.4335
X3.7425Y-4.7287
X3.7504Y-5.6136
X3.7514Y-5.8709
X3.7748Y-5.1189
X3.8272Y-5.0661
X3.8815Y-5.0122
X3.9268Y-5.5156
X3.9722Y-5.0091
X4.0344Y-6.2994
X4.0352Y-2.0476
X4.0378Y-0.8902
X4.0378Y-1.1854
X4.0378Y-1.4807
X4.0378Y-2.3665
X4.0378Y-3.2524
X4.0378Y-3.5476
X4.0378Y-3.8429
X4.0378Y-4.1382
X4.0378Y-4.4335
X4.0378Y-4.7287
X4.0563Y-5.0096
X4.0998Y-5.7593
X4.149Y-5.0096
X4.203Y-5.064
X4.2557Y-5.1163
X4.3272Y-5.1173
X4.3297Y-6.2994
X4.3331Y-0.8902
X4.3331Y-1.1854
X4.3331Y-1.4807
X4.3331Y-1.776
X4.3331Y-2.0713
X4.3331Y-2.3665
X4.3331Y-3.2524
X4.3331Y-3.5476
X4.3331Y-3.8429
X4.3331Y-4.1382
X4.3331Y-4.4335
X4.3331Y-4.7287
X4.4059Y-5.1173
X4.4846Y-5.1173
X4.5819Y-6.013
X4.625Y-6.2994
X4.6283Y-0.8902
X4.6283Y-1.1854
X4.6283Y-1.4807
X4.6283Y-1.776
X4.6283Y-2.0713
X4.6283Y-2.3665
X4.6283Y-2.6618
X4.6283Y-2.9571
X4.6283Y-3.2524
X4.6283Y-3.5476
X4.6283Y-3.8429
X4.6283Y-4.1382
X4.6283Y-4.7287
X4.6283Y-5.024
X4.7785Y-5.14
X4.9059Y-5.3789
X4.9203Y-6.2994
X4.9236Y-0.8902
X4.9236Y-1.1854
X4.9236Y-1.4807
X4.9236Y-1.776
X4.9236Y-2.0713
X4.9236Y-2.3665
X4.9236Y-2.6618
X4.9236Y-5.6146
X4.9236Y-5.9098
X5.2156Y-6.2994
X5.2187Y-5.8642
X5.2189Y-0.8902
X5.2189Y-1.1854
X5.2189Y-1.4807
X5.2189Y-1.776
X5.2189Y-2.0713
X5.2189Y-2.3665
X5.2189Y-3.2524
X5.2189Y-3.5476
X5.2189Y-3.8429
X5.2189Y-4.1382
X5.2189Y-4.4335
X5.2189Y-5.3193
X5.2189Y-5.6146
X5.2362Y-4.6724
X5.2415Y-4.9998
X5.5142Y-1.1854
X5.5142Y-1.4807
X5.5142Y-1.776
X5.5142Y-2.0713
X5.5142Y-2.3665
X5.5142Y-2.6618
X5.5142Y-2.9571
X5.5142Y-3.2524
X5.5142Y-3.5476
X5.5142Y-3.8429
X5.5142Y-4.1382
X5.5142Y-4.4335
X5.5142Y-4.7287
X5.5142Y-5.024
X5.5142Y-5.3193
X5.5142Y-5.6146
X5.5142Y-5.9098
T4
X1.1915Y-5.3202
X1.2915Y-5.3202
X1.4946Y-5.9738
X1.5946Y-5.9738
X1.6946Y-5.9738
X1.7946Y-5.9738
T5
X0.8752Y-5.9244
X0.8754Y-5.578
X0.9234Y-2.1268
X0.9234Y-2.2449
X0.9933Y-5.9244
X0.9935Y-5.578
X1.1114Y-5.9244
X1.1116Y-5.578
X1.2116Y-2.8333
X1.2116Y-2.9333
X1.2116Y-3.0333
X1.2116Y-3.1333
X1.2116Y-3.2333
X1.2116Y-3.3333
X1.2116Y-3.4333
X1.2116Y-3.5333
X1.2116Y-3.6333
X1.2116Y-3.7333
X1.2116Y-3.8333
X1.2116Y-3.9333
X1.2116Y-4.0333
X1.2116Y-4.1333
X1.2116Y-4.2333
X1.2295Y-5.9244
X1.2297Y-5.578
X1.8116Y-2.8333
X1.8116Y-2.9333
X1.8116Y-3.0333
X1.8116Y-3.1333
X1.8116Y-3.2333
X1.8116Y-3.3333
X1.8116Y-3.4333
X1.8116Y-3.5333
X1.8116Y-3.6333
X1.8116Y-3.7333
X1.8116Y-3.8333
X1.8116Y-3.9333
X1.8116Y-4.0333
X1.8116Y-4.1333
X1.8116Y-4.2333
X2.0455Y-6.1795
X2.1636Y-6.1795
T6
X0.8354Y-2.5315
X0.8354Y-2.7874
X1.0126Y-2.5315
X1.0126Y-2.7874
X3.3051Y-2.9807
X3.3051Y-3.3565
X3.5051Y-2.9807
X3.5051Y-3.3565
X3.5539Y-1.6498
X3.5539Y-1.8498
X3.9291Y-1.6498
X3.9291Y-1.8498
X4.3691Y-1.627
X4.9596Y-1.627
T7
X2.9541Y-5.5549
X2.9541Y-5.7549
X2.9541Y-5.8549
X3.2541Y-5.5549
X3.2541Y-5.7549
X3.2541Y-5.8549
X4.4219Y-5.5575
X4.4219Y-5.7575
X4.4219Y-5.8575
X4.7219Y-5.5575
X4.7219Y-5.7575
X4.7219Y-5.8575
T8
X2.1651Y-5.0295
X2.1651Y-5.9783
X2.6396Y-5.1951
X3.5884Y-5.1951
X3.9988Y-5.1919
X4.9476Y-5.1919
T9
X2.501Y-1.5327
X2.501Y-1.7472
X2.501Y-1.9618
X2.8124Y-1.5315
X2.8124Y-1.7461
X2.8124Y-1.9606
T10
X4.4012Y-2.7478
X5.2594Y-2.7478
T11
X2.9222Y-4.3364
X3.3159Y-4.3364
X4.55Y-4.3478
X4.9437Y-4.3478
T12
X2.6587Y-1.2474
X2.6587Y-2.2474
X2.9049Y-3.1683
X3.7427Y-1.2476
X3.7427Y-2.2476
X3.9049Y-3.1683
T0
M30
