%TF.GenerationSoftware,KiCad,Pcbnew,(6.0.1)*%
%TF.CreationDate,2022-03-05T17:58:01-06:00*%
%TF.ProjectId,MPPT,4d505054-2e6b-4696-9361-645f70636258,1.4.0*%
%TF.SameCoordinates,PX10b1ae8PY9b06478*%
%TF.FileFunction,Paste,Top*%
%TF.FilePolarity,Positive*%
%FSLAX46Y46*%
G04 Gerber Fmt 4.6, Leading zero omitted, Abs format (unit mm)*
G04 Created by KiCad (PCBNEW (6.0.1)) date 2022-03-05 17:58:01*
%MOMM*%
%LPD*%
G01*
G04 APERTURE LIST*
G04 Aperture macros list*
%AMRoundRect*
0 Rectangle with rounded corners*
0 $1 Rounding radius*
0 $2 $3 $4 $5 $6 $7 $8 $9 X,Y pos of 4 corners*
0 Add a 4 corners polygon primitive as box body*
4,1,4,$2,$3,$4,$5,$6,$7,$8,$9,$2,$3,0*
0 Add four circle primitives for the rounded corners*
1,1,$1+$1,$2,$3*
1,1,$1+$1,$4,$5*
1,1,$1+$1,$6,$7*
1,1,$1+$1,$8,$9*
0 Add four rect primitives between the rounded corners*
20,1,$1+$1,$2,$3,$4,$5,0*
20,1,$1+$1,$4,$5,$6,$7,0*
20,1,$1+$1,$6,$7,$8,$9,0*
20,1,$1+$1,$8,$9,$2,$3,0*%
G04 Aperture macros list end*
%ADD10RoundRect,0.150000X-0.150000X0.587500X-0.150000X-0.587500X0.150000X-0.587500X0.150000X0.587500X0*%
%ADD11RoundRect,0.250000X0.450000X-0.262500X0.450000X0.262500X-0.450000X0.262500X-0.450000X-0.262500X0*%
%ADD12RoundRect,0.243750X0.243750X0.456250X-0.243750X0.456250X-0.243750X-0.456250X0.243750X-0.456250X0*%
%ADD13R,0.650000X1.800000*%
%ADD14RoundRect,0.218750X0.381250X-0.218750X0.381250X0.218750X-0.381250X0.218750X-0.381250X-0.218750X0*%
%ADD15RoundRect,0.250000X-1.020000X0.250000X-1.020000X-0.250000X1.020000X-0.250000X1.020000X0.250000X0*%
%ADD16RoundRect,0.243750X0.456250X-0.243750X0.456250X0.243750X-0.456250X0.243750X-0.456250X-0.243750X0*%
%ADD17R,1.520000X2.160000*%
%ADD18RoundRect,0.243750X-0.243750X-0.456250X0.243750X-0.456250X0.243750X0.456250X-0.243750X0.456250X0*%
%ADD19RoundRect,0.150000X0.150000X-0.825000X0.150000X0.825000X-0.150000X0.825000X-0.150000X-0.825000X0*%
G04 APERTURE END LIST*
D10*
%TO.C,U10*%
X24790000Y-134127500D03*
X22890000Y-134127500D03*
X23840000Y-136002500D03*
%TD*%
D11*
%TO.C,R2*%
X53580000Y-71500000D03*
X53580000Y-69675000D03*
%TD*%
D12*
%TO.C,LED5*%
X27127500Y-87835000D03*
X25252500Y-87835000D03*
%TD*%
%TO.C,LED10*%
X27100000Y-93610000D03*
X25225000Y-93610000D03*
%TD*%
D13*
%TO.C,U9*%
X32790000Y-116617500D03*
X31520000Y-116617500D03*
X30250000Y-116617500D03*
X28980000Y-116617500D03*
X27710000Y-116617500D03*
X26440000Y-116617500D03*
X25170000Y-116617500D03*
X23900000Y-116617500D03*
X22630000Y-116617500D03*
X21360000Y-116617500D03*
X21360000Y-126067500D03*
X22630000Y-126067500D03*
X23900000Y-126067500D03*
X25170000Y-126067500D03*
X26440000Y-126067500D03*
X27710000Y-126067500D03*
X28980000Y-126067500D03*
X30250000Y-126067500D03*
X31520000Y-126067500D03*
X32790000Y-126067500D03*
%TD*%
D14*
%TO.C,L4*%
X33555000Y-131222500D03*
X33555000Y-129097500D03*
%TD*%
D12*
%TO.C,LED8*%
X27112500Y-102440000D03*
X25237500Y-102440000D03*
%TD*%
D14*
%TO.C,L3*%
X31330000Y-131237500D03*
X31330000Y-129112500D03*
%TD*%
D12*
%TO.C,LED7*%
X27112500Y-96565000D03*
X25237500Y-96565000D03*
%TD*%
D15*
%TO.C,U4*%
X47185000Y-136325000D03*
X47185000Y-133785000D03*
X47185000Y-128705000D03*
X37025000Y-128705000D03*
X37025000Y-136325000D03*
%TD*%
D16*
%TO.C,LED3*%
X130180000Y-133732500D03*
X130180000Y-131857500D03*
%TD*%
D17*
%TO.C,SW2*%
X24490000Y-75355000D03*
X21950000Y-75355000D03*
X21950000Y-83615000D03*
X24490000Y-83615000D03*
%TD*%
D12*
%TO.C,LED9*%
X27117500Y-99445000D03*
X25242500Y-99445000D03*
%TD*%
D18*
%TO.C,LED1*%
X42175000Y-143185000D03*
X44050000Y-143185000D03*
%TD*%
%TO.C,LED2*%
X39287500Y-123235000D03*
X41162500Y-123235000D03*
%TD*%
D16*
%TO.C,LED4*%
X95455000Y-133815000D03*
X95455000Y-131940000D03*
%TD*%
D19*
%TO.C,U3*%
X53425000Y-79345000D03*
X54695000Y-79345000D03*
X55965000Y-79345000D03*
X57235000Y-79345000D03*
X57235000Y-74395000D03*
X55965000Y-74395000D03*
X54695000Y-74395000D03*
X53425000Y-74395000D03*
%TD*%
D12*
%TO.C,LED6*%
X27117500Y-90730000D03*
X25242500Y-90730000D03*
%TD*%
M02*
