%TF.GenerationSoftware,KiCad,Pcbnew,(6.0.1)*%
%TF.CreationDate,2022-03-05T17:58:01-06:00*%
%TF.ProjectId,MPPT,4d505054-2e6b-4696-9361-645f70636258,1.4.0*%
%TF.SameCoordinates,PX10b1ae8PY9b06478*%
%TF.FileFunction,Soldermask,Bot*%
%TF.FilePolarity,Negative*%
%FSLAX46Y46*%
G04 Gerber Fmt 4.6, Leading zero omitted, Abs format (unit mm)*
G04 Created by KiCad (PCBNEW (6.0.1)) date 2022-03-05 17:58:01*
%MOMM*%
%LPD*%
G01*
G04 APERTURE LIST*
G04 Aperture macros list*
%AMRoundRect*
0 Rectangle with rounded corners*
0 $1 Rounding radius*
0 $2 $3 $4 $5 $6 $7 $8 $9 X,Y pos of 4 corners*
0 Add a 4 corners polygon primitive as box body*
4,1,4,$2,$3,$4,$5,$6,$7,$8,$9,$2,$3,0*
0 Add four circle primitives for the rounded corners*
1,1,$1+$1,$2,$3*
1,1,$1+$1,$4,$5*
1,1,$1+$1,$6,$7*
1,1,$1+$1,$8,$9*
0 Add four rect primitives between the rounded corners*
20,1,$1+$1,$2,$3,$4,$5,0*
20,1,$1+$1,$4,$5,$6,$7,0*
20,1,$1+$1,$6,$7,$8,$9,0*
20,1,$1+$1,$8,$9,$2,$3,0*%
G04 Aperture macros list end*
%ADD10C,1.270000*%
%ADD11RoundRect,0.250001X0.759999X-0.499999X0.759999X0.499999X-0.759999X0.499999X-0.759999X-0.499999X0*%
%ADD12O,2.020000X1.500000*%
%ADD13C,3.200000*%
%ADD14C,2.286000*%
%ADD15RoundRect,0.250001X0.499999X0.759999X-0.499999X0.759999X-0.499999X-0.759999X0.499999X-0.759999X0*%
%ADD16O,1.500000X2.020000*%
%ADD17C,2.000000*%
%ADD18C,4.000000*%
%ADD19R,2.000000X2.000000*%
%ADD20O,2.000000X2.000000*%
%ADD21C,2.500000*%
%ADD22R,1.530000X1.530000*%
%ADD23C,1.530000*%
%ADD24R,1.700000X1.700000*%
%ADD25O,1.700000X1.700000*%
%ADD26C,2.200000*%
%ADD27R,4.000000X4.000000*%
%ADD28R,1.508000X1.508000*%
%ADD29C,1.508000*%
%ADD30R,4.500000X2.500000*%
%ADD31O,4.500000X2.500000*%
%ADD32C,3.800000*%
%ADD33R,1.000000X1.000000*%
%ADD34R,1.500000X0.400000*%
%ADD35R,1.300000X1.700000*%
%ADD36RoundRect,0.250000X-0.450000X0.262500X-0.450000X-0.262500X0.450000X-0.262500X0.450000X0.262500X0*%
%ADD37RoundRect,0.250000X-0.250000X-0.475000X0.250000X-0.475000X0.250000X0.475000X-0.250000X0.475000X0*%
%ADD38RoundRect,0.250000X0.625000X-0.312500X0.625000X0.312500X-0.625000X0.312500X-0.625000X-0.312500X0*%
%ADD39RoundRect,0.250000X0.250000X0.475000X-0.250000X0.475000X-0.250000X-0.475000X0.250000X-0.475000X0*%
%ADD40RoundRect,0.250000X0.262500X0.450000X-0.262500X0.450000X-0.262500X-0.450000X0.262500X-0.450000X0*%
%ADD41RoundRect,0.250000X0.475000X-0.250000X0.475000X0.250000X-0.475000X0.250000X-0.475000X-0.250000X0*%
%ADD42RoundRect,0.250000X0.450000X-0.262500X0.450000X0.262500X-0.450000X0.262500X-0.450000X-0.262500X0*%
%ADD43RoundRect,0.150000X-0.150000X0.512500X-0.150000X-0.512500X0.150000X-0.512500X0.150000X0.512500X0*%
%ADD44R,1.100000X1.100000*%
%ADD45R,4.000000X1.500000*%
%ADD46RoundRect,0.250000X-0.475000X0.250000X-0.475000X-0.250000X0.475000X-0.250000X0.475000X0.250000X0*%
%ADD47RoundRect,0.150000X0.150000X-0.512500X0.150000X0.512500X-0.150000X0.512500X-0.150000X-0.512500X0*%
%ADD48R,0.500000X0.500000*%
%ADD49RoundRect,0.250000X-0.625000X0.312500X-0.625000X-0.312500X0.625000X-0.312500X0.625000X0.312500X0*%
G04 APERTURE END LIST*
D10*
%TO.C,J2*%
X21495000Y-51020000D03*
X21495000Y-60020000D03*
D11*
X23455000Y-57020000D03*
D12*
X23455000Y-54020000D03*
%TD*%
D13*
%TO.C,J3*%
X127995000Y-151580000D03*
X104255000Y-151580000D03*
D14*
X112315000Y-148780000D03*
X112315000Y-146240000D03*
X112315000Y-141160000D03*
X119935000Y-148780000D03*
X119935000Y-141160000D03*
X119935000Y-146240000D03*
%TD*%
D13*
%TO.C,H1*%
X137520000Y-157565000D03*
%TD*%
%TO.C,H2*%
X22500000Y-157470000D03*
%TD*%
%TO.C,H3*%
X137500000Y-22470000D03*
%TD*%
%TO.C,H4*%
X22500000Y-22470000D03*
%TD*%
D10*
%TO.C,J6*%
X34235000Y-143640000D03*
X19235000Y-143640000D03*
D15*
X31235000Y-141680000D03*
D16*
X28235000Y-141680000D03*
X25235000Y-141680000D03*
X22235000Y-141680000D03*
%TD*%
D17*
%TO.C,SW1*%
X21220000Y-64300000D03*
X21220000Y-70800000D03*
X25720000Y-70800000D03*
X25720000Y-64300000D03*
%TD*%
D18*
%TO.C,HS3*%
X73785000Y-80475000D03*
X99185000Y-80475000D03*
%TD*%
D19*
%TO.C,D6*%
X89030000Y-75710000D03*
D20*
X83950000Y-75710000D03*
%TD*%
D10*
%TO.C,J5*%
X34230000Y-152440000D03*
X19230000Y-152440000D03*
D15*
X31230000Y-150480000D03*
D16*
X28230000Y-150480000D03*
X25230000Y-150480000D03*
X22230000Y-150480000D03*
%TD*%
D21*
%TO.C,F3*%
X54992500Y-127750000D03*
X54992500Y-151850000D03*
%TD*%
D19*
%TO.C,D5*%
X83950000Y-85255000D03*
D20*
X89030000Y-85255000D03*
%TD*%
D21*
%TO.C,F2*%
X67045000Y-131955000D03*
X91145000Y-131955000D03*
%TD*%
D18*
%TO.C,HS2*%
X95065000Y-31690000D03*
X95065000Y-57090000D03*
%TD*%
D10*
%TO.C,J1*%
X48955000Y-158920000D03*
X57955000Y-158920000D03*
D15*
X54955000Y-156960000D03*
D16*
X51955000Y-156960000D03*
%TD*%
D22*
%TO.C,U2*%
X30775000Y-71965000D03*
D23*
X30775000Y-74505000D03*
X30775000Y-77045000D03*
X30775000Y-79585000D03*
X30775000Y-82125000D03*
X30775000Y-84665000D03*
X30775000Y-87205000D03*
X30775000Y-89745000D03*
X30775000Y-92285000D03*
X30775000Y-94825000D03*
X30775000Y-97365000D03*
X30775000Y-99905000D03*
X30775000Y-102445000D03*
X30775000Y-104985000D03*
X30775000Y-107525000D03*
X46015000Y-107525000D03*
X46015000Y-104985000D03*
X46015000Y-102445000D03*
X46015000Y-99905000D03*
X46015000Y-97365000D03*
X46015000Y-94825000D03*
X46015000Y-92285000D03*
X46015000Y-89745000D03*
X46015000Y-87205000D03*
X46015000Y-84665000D03*
X46015000Y-82125000D03*
X46015000Y-79585000D03*
X46015000Y-77045000D03*
X46015000Y-74505000D03*
D22*
X46015000Y-71965000D03*
%TD*%
D19*
%TO.C,R5*%
X99800000Y-46985000D03*
D20*
X99800000Y-41905000D03*
%TD*%
D18*
%TO.C,HS1*%
X67530000Y-57085000D03*
X67530000Y-31685000D03*
%TD*%
D24*
%TO.C,JP1*%
X30265000Y-135132500D03*
D25*
X32805000Y-135132500D03*
%TD*%
D26*
%TO.C,C9*%
X110975000Y-41325000D03*
X125975000Y-41325000D03*
%TD*%
D27*
%TO.C,CP1*%
X125570000Y-110435000D03*
D18*
X115570000Y-110435000D03*
%TD*%
D28*
%TO.C,U1*%
X37962500Y-151735000D03*
D29*
X40502500Y-151735000D03*
X43042500Y-151735000D03*
X45582500Y-151735000D03*
%TD*%
D30*
%TO.C,Q1*%
X63525000Y-38930000D03*
D31*
X63525000Y-44380000D03*
X63525000Y-49830000D03*
%TD*%
D13*
%TO.C,J4*%
X90715000Y-151515000D03*
X66975000Y-151515000D03*
D14*
X75035000Y-146175000D03*
X75035000Y-148715000D03*
X75035000Y-141095000D03*
X82655000Y-141095000D03*
X82655000Y-148715000D03*
X82655000Y-146175000D03*
%TD*%
D19*
%TO.C,D4*%
X90270000Y-41905000D03*
D20*
X90270000Y-46985000D03*
%TD*%
D30*
%TO.C,Q2*%
X71435000Y-49800000D03*
D31*
X71435000Y-44350000D03*
X71435000Y-38900000D03*
%TD*%
D32*
%TO.C,L2*%
X133590000Y-69795000D03*
X111790000Y-69795000D03*
%TD*%
D21*
%TO.C,F1*%
X125670000Y-131874000D03*
X101570000Y-131874000D03*
%TD*%
D27*
%TO.C,CP2*%
X84225000Y-110145000D03*
D18*
X74225000Y-110145000D03*
%TD*%
D33*
%TO.C,TP16*%
X112055000Y-135697500D03*
%TD*%
D34*
%TO.C,U6*%
X74800000Y-132934000D03*
X74800000Y-132284000D03*
X74800000Y-131634000D03*
X77460000Y-131634000D03*
X77460000Y-132284000D03*
X77460000Y-132934000D03*
%TD*%
D35*
%TO.C,D2*%
X55170000Y-82625000D03*
X58670000Y-82625000D03*
%TD*%
D36*
%TO.C,R10*%
X69865000Y-116842500D03*
X69865000Y-118667500D03*
%TD*%
D37*
%TO.C,C19*%
X31480000Y-131417500D03*
X33380000Y-131417500D03*
%TD*%
D33*
%TO.C,TP17*%
X84325000Y-133576000D03*
%TD*%
D38*
%TO.C,R6*%
X116665000Y-133487500D03*
X116665000Y-130562500D03*
%TD*%
D33*
%TO.C,TP26*%
X32255000Y-123182500D03*
%TD*%
D37*
%TO.C,C14*%
X40640000Y-109425000D03*
X42540000Y-109425000D03*
%TD*%
D39*
%TO.C,C15*%
X42545000Y-112465000D03*
X40645000Y-112465000D03*
%TD*%
D36*
%TO.C,R9*%
X130295000Y-125390000D03*
X130295000Y-127215000D03*
%TD*%
D33*
%TO.C,TP5*%
X45600000Y-143185000D03*
%TD*%
D40*
%TO.C,R3*%
X42990000Y-123235000D03*
X41165000Y-123235000D03*
%TD*%
D41*
%TO.C,C11*%
X71720000Y-132959000D03*
X71720000Y-131059000D03*
%TD*%
D37*
%TO.C,C7*%
X41095000Y-129430000D03*
X42995000Y-129430000D03*
%TD*%
D33*
%TO.C,TP18*%
X84290000Y-130636000D03*
%TD*%
%TO.C,TP31*%
X22230000Y-123182500D03*
%TD*%
%TO.C,TP23*%
X60790000Y-112805000D03*
%TD*%
D35*
%TO.C,D10*%
X63495000Y-112810000D03*
X66995000Y-112810000D03*
%TD*%
D33*
%TO.C,TP19*%
X77485000Y-135879000D03*
%TD*%
D35*
%TO.C,D8*%
X75215000Y-135859000D03*
X71715000Y-135859000D03*
%TD*%
D42*
%TO.C,R14*%
X22490000Y-135937500D03*
X22490000Y-134112500D03*
%TD*%
D33*
%TO.C,TP1*%
X40172500Y-143185000D03*
%TD*%
D37*
%TO.C,C18*%
X31495000Y-128947500D03*
X33395000Y-128947500D03*
%TD*%
%TO.C,C20*%
X25790000Y-131427500D03*
X27690000Y-131427500D03*
%TD*%
%TO.C,C6*%
X40970000Y-138870000D03*
X42870000Y-138870000D03*
%TD*%
D33*
%TO.C,TP7*%
X58065000Y-85670000D03*
%TD*%
%TO.C,TP25*%
X33745000Y-109510000D03*
%TD*%
D39*
%TO.C,C2*%
X45592500Y-148770000D03*
X43692500Y-148770000D03*
%TD*%
D43*
%TO.C,U8*%
X65245000Y-115939882D03*
X66195000Y-115939882D03*
X67145000Y-115939882D03*
X67145000Y-118214882D03*
X66195000Y-118214882D03*
X65245000Y-118214882D03*
%TD*%
D33*
%TO.C,TP27*%
X28235000Y-123177500D03*
%TD*%
D40*
%TO.C,R12*%
X22442500Y-128927500D03*
X20617500Y-128927500D03*
%TD*%
D42*
%TO.C,R11*%
X69850000Y-114312500D03*
X69850000Y-112487500D03*
%TD*%
D33*
%TO.C,TP24*%
X33715000Y-112490000D03*
%TD*%
D35*
%TO.C,D7*%
X109815000Y-135682500D03*
X106315000Y-135682500D03*
%TD*%
D44*
%TO.C,D3*%
X56760000Y-68665000D03*
X56760000Y-71465000D03*
%TD*%
D45*
%TO.C,L1*%
X41925000Y-136055000D03*
X41925000Y-132455000D03*
%TD*%
D33*
%TO.C,TP22*%
X69955000Y-121192500D03*
%TD*%
D42*
%TO.C,R16*%
X95465000Y-133787500D03*
X95465000Y-131962500D03*
%TD*%
%TO.C,R8*%
X130300000Y-122880000D03*
X130300000Y-121055000D03*
%TD*%
D46*
%TO.C,C4*%
X50630000Y-77930000D03*
X50630000Y-79830000D03*
%TD*%
D33*
%TO.C,TP30*%
X24225000Y-123182500D03*
%TD*%
%TO.C,TP8*%
X57245000Y-76820000D03*
%TD*%
D37*
%TO.C,C12*%
X133030000Y-118675000D03*
X134930000Y-118675000D03*
%TD*%
D33*
%TO.C,TP29*%
X30245000Y-123182500D03*
%TD*%
D36*
%TO.C,R13*%
X25180000Y-134127500D03*
X25180000Y-135952500D03*
%TD*%
D39*
%TO.C,C8*%
X42985000Y-126475000D03*
X41085000Y-126475000D03*
%TD*%
D40*
%TO.C,R17*%
X27097500Y-87820000D03*
X25272500Y-87820000D03*
%TD*%
D33*
%TO.C,TP4*%
X38080000Y-106455000D03*
%TD*%
D42*
%TO.C,R15*%
X130170000Y-133702500D03*
X130170000Y-131877500D03*
%TD*%
D40*
%TO.C,R1*%
X45572500Y-145810000D03*
X43747500Y-145810000D03*
%TD*%
D33*
%TO.C,TP21*%
X136665000Y-129745000D03*
%TD*%
%TO.C,TP2*%
X37965000Y-143210000D03*
%TD*%
D39*
%TO.C,C13*%
X67140000Y-121145000D03*
X65240000Y-121145000D03*
%TD*%
D47*
%TO.C,U7*%
X134920000Y-123807500D03*
X133970000Y-123807500D03*
X133020000Y-123807500D03*
X133020000Y-121532500D03*
X133970000Y-121532500D03*
X134920000Y-121532500D03*
%TD*%
D37*
%TO.C,C16*%
X36190000Y-109465000D03*
X38090000Y-109465000D03*
%TD*%
D33*
%TO.C,TP12*%
X114880000Y-41345000D03*
%TD*%
%TO.C,TP13*%
X121900000Y-41370000D03*
%TD*%
D39*
%TO.C,C1*%
X39877500Y-148805000D03*
X37977500Y-148805000D03*
%TD*%
D33*
%TO.C,TP9*%
X50625000Y-71295000D03*
%TD*%
%TO.C,TP11*%
X105130000Y-47320000D03*
%TD*%
%TO.C,TP6*%
X42175000Y-143165000D03*
%TD*%
D39*
%TO.C,C17*%
X38085000Y-112485000D03*
X36185000Y-112485000D03*
%TD*%
D40*
%TO.C,R21*%
X27097500Y-99450000D03*
X25272500Y-99450000D03*
%TD*%
D33*
%TO.C,TP15*%
X118775000Y-133511000D03*
%TD*%
D39*
%TO.C,C21*%
X27690000Y-128937500D03*
X25790000Y-128937500D03*
%TD*%
D33*
%TO.C,TP20*%
X127445000Y-121060000D03*
%TD*%
D34*
%TO.C,U5*%
X109390000Y-132847500D03*
X109390000Y-132197500D03*
X109390000Y-131547500D03*
X112050000Y-131547500D03*
X112050000Y-132197500D03*
X112050000Y-132847500D03*
%TD*%
D48*
%TO.C,D1*%
X40162500Y-145835000D03*
X37962500Y-145835000D03*
%TD*%
D40*
%TO.C,R22*%
X27070000Y-93605000D03*
X25245000Y-93605000D03*
%TD*%
D33*
%TO.C,TP28*%
X26225000Y-123182500D03*
%TD*%
%TO.C,TP14*%
X118775000Y-130571000D03*
%TD*%
D49*
%TO.C,R7*%
X82190000Y-130585000D03*
X82190000Y-133510000D03*
%TD*%
D35*
%TO.C,D9*%
X136665000Y-126845000D03*
X133165000Y-126845000D03*
%TD*%
D33*
%TO.C,TP3*%
X28535000Y-59750000D03*
%TD*%
D40*
%TO.C,R20*%
X27090000Y-102440000D03*
X25265000Y-102440000D03*
%TD*%
D41*
%TO.C,C10*%
X106335000Y-132892500D03*
X106335000Y-130992500D03*
%TD*%
D46*
%TO.C,C5*%
X50610000Y-73965000D03*
X50610000Y-75865000D03*
%TD*%
D33*
%TO.C,TP10*%
X53570000Y-69670000D03*
%TD*%
D36*
%TO.C,R4*%
X59885000Y-69650000D03*
X59885000Y-71475000D03*
%TD*%
D40*
%TO.C,R19*%
X27095000Y-96560000D03*
X25270000Y-96560000D03*
%TD*%
D41*
%TO.C,C3*%
X28535000Y-56995000D03*
X28535000Y-55095000D03*
%TD*%
D40*
%TO.C,R18*%
X27097500Y-90730000D03*
X25272500Y-90730000D03*
%TD*%
M02*
